M48
; DRILL file {KiCad 8.0.5} date 2024-10-24T17:50:14+0200
; FORMAT={-:-/ absolute / metric / decimal}
; #@! TF.CreationDate,2024-10-24T17:50:14+02:00
; #@! TF.GenerationSoftware,Kicad,Pcbnew,8.0.5
; #@! TF.FileFunction,Plated,1,4,PTH
FMAT,2
METRIC
; #@! TA.AperFunction,Plated,PTH,ViaDrill
T1C0.300
; #@! TA.AperFunction,Plated,PTH,ViaDrill
T2C0.400
; #@! TA.AperFunction,Plated,PTH,ComponentDrill
T3C0.900
; #@! TA.AperFunction,Plated,PTH,ComponentDrill
T4C1.000
; #@! TA.AperFunction,Plated,PTH,ComponentDrill
T5C1.397
; #@! TA.AperFunction,Plated,PTH,ComponentDrill
T6C3.200
%
G90
G05
T1
X117.8Y-57.8
X117.8Y-62.4
X118.6Y-81.6
X123.576Y-89.424
X125.8Y-74.0
X129.0Y-71.4
X129.0Y-72.8
X130.2Y-75.8
X130.6Y-76.6
X130.6Y-77.4
X132.4Y-66.817
X133.8Y-67.417
X145.4Y-67.0
X145.6Y-75.8
X146.4Y-67.0
X146.4Y-74.0
X160.2Y-70.2
X161.0Y-70.8
X161.335Y-72.0
X165.2Y-112.4
X165.2Y-116.2
X165.58Y-129.42
X168.2Y-113.8
X168.2Y-130.65
X168.2Y-132.0
X168.8Y-131.4
X168.8Y-132.6
X169.0Y-130.2
T2
X119.8Y-98.0
X122.4Y-61.0
X123.2Y-84.6
X123.4Y-79.2
X123.4Y-81.2
X138.8Y-74.0
X157.6Y-73.0
X157.6Y-75.0
X160.0Y-128.2
X161.4Y-124.8
X164.0Y-109.0
X169.0Y-75.2
X170.4Y-109.6
X171.7Y-119.445
X171.8Y-115.2
T3
X110.0Y-80.21
X110.0Y-82.75
X110.0Y-87.75
X110.0Y-90.29
X110.0Y-95.5
X110.0Y-98.04
X110.0Y-103.25
X110.0Y-105.79
X110.0Y-110.75
X110.0Y-113.29
X110.0Y-118.25
X110.0Y-120.79
T4
X141.05Y-63.53
X142.435Y-60.69
X143.24Y-80.97
X143.24Y-98.75
X143.82Y-63.53
X145.205Y-60.69
X145.78Y-80.97
X145.78Y-98.75
X146.59Y-63.53
X147.975Y-60.69
X148.32Y-80.97
X148.32Y-98.75
X149.36Y-63.53
X150.745Y-60.69
X150.86Y-80.97
X150.86Y-98.75
X150.93Y-104.75
X152.13Y-63.53
X153.4Y-80.97
X153.4Y-98.75
X153.47Y-104.75
X155.94Y-80.97
X155.94Y-98.75
X156.01Y-104.75
X158.48Y-80.97
X158.48Y-98.75
X158.55Y-104.75
X161.02Y-80.97
X161.02Y-98.75
X163.56Y-80.97
X163.56Y-98.75
X166.1Y-80.97
X166.1Y-98.75
X168.64Y-80.97
X168.64Y-98.75
X171.18Y-80.97
X171.18Y-98.75
X173.72Y-80.97
X173.72Y-98.75
X176.26Y-80.97
X176.26Y-98.75
X178.8Y-80.97
X178.8Y-98.75
X180.66Y-116.905
X180.66Y-119.675
X180.66Y-122.445
X180.66Y-125.215
X180.66Y-127.985
X180.66Y-130.755
X180.66Y-133.525
X180.66Y-136.295
X181.34Y-80.97
X181.34Y-98.75
X183.5Y-118.29
X183.5Y-121.06
X183.5Y-123.83
X183.5Y-126.6
X183.5Y-129.37
X183.5Y-132.14
X183.5Y-134.91
X183.88Y-80.97
X183.88Y-98.75
X185.0Y-75.25
X186.42Y-80.97
X186.42Y-98.75
X187.54Y-75.25
X188.96Y-80.97
X188.96Y-98.75
X190.08Y-75.25
X191.5Y-80.97
X191.5Y-98.75
T5
X178.748Y-57.756
X178.748Y-67.748
X181.247Y-62.752
X181.25Y-55.254
X181.25Y-70.25
T6
X134.09Y-62.11
X159.09Y-62.11
X182.08Y-109.95
X182.08Y-143.25
M30
