G04 #@! TF.GenerationSoftware,KiCad,Pcbnew,8.0.5*
G04 #@! TF.CreationDate,2024-10-24T17:49:52+02:00*
G04 #@! TF.ProjectId,vt2_communicator,7674325f-636f-46d6-9d75-6e696361746f,rev?*
G04 #@! TF.SameCoordinates,Original*
G04 #@! TF.FileFunction,Soldermask,Bot*
G04 #@! TF.FilePolarity,Negative*
%FSLAX46Y46*%
G04 Gerber Fmt 4.6, Leading zero omitted, Abs format (unit mm)*
G04 Created by KiCad (PCBNEW 8.0.5) date 2024-10-24 17:49:52*
%MOMM*%
%LPD*%
G01*
G04 APERTURE LIST*
G04 Aperture macros list*
%AMRoundRect*
0 Rectangle with rounded corners*
0 $1 Rounding radius*
0 $2 $3 $4 $5 $6 $7 $8 $9 X,Y pos of 4 corners*
0 Add a 4 corners polygon primitive as box body*
4,1,4,$2,$3,$4,$5,$6,$7,$8,$9,$2,$3,0*
0 Add four circle primitives for the rounded corners*
1,1,$1+$1,$2,$3*
1,1,$1+$1,$4,$5*
1,1,$1+$1,$6,$7*
1,1,$1+$1,$8,$9*
0 Add four rect primitives between the rounded corners*
20,1,$1+$1,$2,$3,$4,$5,0*
20,1,$1+$1,$4,$5,$6,$7,0*
20,1,$1+$1,$6,$7,$8,$9,0*
20,1,$1+$1,$8,$9,$2,$3,0*%
%AMFreePoly0*
4,1,28,0.605014,0.794986,0.644504,0.794986,0.724698,0.756366,0.780194,0.686777,0.800000,0.600000,0.800000,-0.600000,0.780194,-0.686777,0.724698,-0.756366,0.644504,-0.794986,0.605014,-0.794986,0.600000,-0.800000,0.000000,-0.800000,-0.178017,-0.779942,-0.347107,-0.720775,-0.498792,-0.625465,-0.625465,-0.498792,-0.720775,-0.347107,-0.779942,-0.178017,-0.800000,0.000000,-0.779942,0.178017,
-0.720775,0.347107,-0.625465,0.498792,-0.498792,0.625465,-0.347107,0.720775,-0.178017,0.779942,0.000000,0.800000,0.600000,0.800000,0.605014,0.794986,0.605014,0.794986,$1*%
%AMFreePoly1*
4,1,28,0.178017,0.779942,0.347107,0.720775,0.498792,0.625465,0.625465,0.498792,0.720775,0.347107,0.779942,0.178017,0.800000,0.000000,0.779942,-0.178017,0.720775,-0.347107,0.625465,-0.498792,0.498792,-0.625465,0.347107,-0.720775,0.178017,-0.779942,0.000000,-0.800000,-0.600000,-0.800000,-0.605014,-0.794986,-0.644504,-0.794986,-0.724698,-0.756366,-0.780194,-0.686777,-0.800000,-0.600000,
-0.800000,0.600000,-0.780194,0.686777,-0.724698,0.756366,-0.644504,0.794986,-0.605014,0.794986,-0.600000,0.800000,0.000000,0.800000,0.178017,0.779942,0.178017,0.779942,$1*%
G04 Aperture macros list end*
%ADD10R,1.800000X1.800000*%
%ADD11C,1.800000*%
%ADD12C,4.000000*%
%ADD13R,1.600000X1.600000*%
%ADD14C,1.600000*%
%ADD15C,3.200000*%
%ADD16R,1.700000X1.700000*%
%ADD17O,1.700000X1.700000*%
%ADD18C,2.499360*%
%ADD19C,2.200000*%
%ADD20C,1.850000*%
%ADD21RoundRect,0.200000X-0.600000X0.600000X-0.600000X-0.600000X0.600000X-0.600000X0.600000X0.600000X0*%
%ADD22FreePoly0,270.000000*%
%ADD23FreePoly1,270.000000*%
G04 APERTURE END LIST*
D10*
X110000000Y-80210000D03*
D11*
X110000000Y-82750000D03*
D12*
X159090000Y-62110331D03*
X134090000Y-62110331D03*
D13*
X141050000Y-63530331D03*
D14*
X143820000Y-63530331D03*
X146590000Y-63530331D03*
X149360000Y-63530331D03*
X152130000Y-63530331D03*
X142435000Y-60690331D03*
X145205000Y-60690331D03*
X147975000Y-60690331D03*
X150745000Y-60690331D03*
D15*
X169500000Y-145500000D03*
D16*
X158550000Y-104750000D03*
D17*
X156010000Y-104750000D03*
X153470000Y-104750000D03*
X150930000Y-104750000D03*
D15*
X169500000Y-55500000D03*
D10*
X110000000Y-110750000D03*
D11*
X110000000Y-113290000D03*
D18*
X191244900Y-67753180D03*
X191244900Y-57750660D03*
X181250000Y-55253840D03*
X181247460Y-62751920D03*
X181250000Y-70250000D03*
X178748100Y-57755740D03*
X178748100Y-67748100D03*
D10*
X110000000Y-87750000D03*
D11*
X110000000Y-90290000D03*
D12*
X182080000Y-143250000D03*
X182080000Y-109950000D03*
D13*
X180660000Y-136295000D03*
D14*
X180660000Y-133525000D03*
X180660000Y-130755000D03*
X180660000Y-127985000D03*
X180660000Y-125215000D03*
X180660000Y-122445000D03*
X180660000Y-119675000D03*
X180660000Y-116905000D03*
X183500000Y-134910000D03*
X183500000Y-132140000D03*
X183500000Y-129370000D03*
X183500000Y-126600000D03*
X183500000Y-123830000D03*
X183500000Y-121060000D03*
X183500000Y-118290000D03*
D19*
X191370000Y-87135000D03*
D20*
X188340000Y-87435000D03*
X188340000Y-92285000D03*
D19*
X191370000Y-92585000D03*
D21*
X191500000Y-80970000D03*
D14*
X188960000Y-80970000D03*
D22*
X186420000Y-80970000D03*
D14*
X183880000Y-80970000D03*
X181340000Y-80970000D03*
X178800000Y-80970000D03*
X176260000Y-80970000D03*
D22*
X173720000Y-80970000D03*
D14*
X171180000Y-80970000D03*
X168640000Y-80970000D03*
X166100000Y-80970000D03*
X163560000Y-80970000D03*
D22*
X161020000Y-80970000D03*
D14*
X158480000Y-80970000D03*
X155940000Y-80970000D03*
X153400000Y-80970000D03*
X150860000Y-80970000D03*
D22*
X148320000Y-80970000D03*
D14*
X145780000Y-80970000D03*
X143240000Y-80970000D03*
X143240000Y-98750000D03*
X145780000Y-98750000D03*
D23*
X148320000Y-98750000D03*
D14*
X150860000Y-98750000D03*
X153400000Y-98750000D03*
X155940000Y-98750000D03*
X158480000Y-98750000D03*
D23*
X161020000Y-98750000D03*
D14*
X163560000Y-98750000D03*
X166100000Y-98750000D03*
X168640000Y-98750000D03*
X171180000Y-98750000D03*
D23*
X173720000Y-98750000D03*
D14*
X176260000Y-98750000D03*
X178800000Y-98750000D03*
X181340000Y-98750000D03*
X183880000Y-98750000D03*
D23*
X186420000Y-98750000D03*
D14*
X188960000Y-98750000D03*
X191500000Y-98750000D03*
D10*
X110000000Y-95500000D03*
D11*
X110000000Y-98040000D03*
D10*
X110000000Y-103250000D03*
D11*
X110000000Y-105790000D03*
D15*
X103500000Y-55500000D03*
D16*
X190080000Y-75250000D03*
D17*
X187540000Y-75250000D03*
X185000000Y-75250000D03*
D15*
X103500000Y-145500000D03*
D10*
X110000000Y-118250000D03*
D11*
X110000000Y-120790000D03*
M02*
