G04 #@! TF.GenerationSoftware,KiCad,Pcbnew,8.0.5*
G04 #@! TF.CreationDate,2024-10-24T17:49:52+02:00*
G04 #@! TF.ProjectId,vt2_communicator,7674325f-636f-46d6-9d75-6e696361746f,rev?*
G04 #@! TF.SameCoordinates,Original*
G04 #@! TF.FileFunction,Legend,Top*
G04 #@! TF.FilePolarity,Positive*
%FSLAX46Y46*%
G04 Gerber Fmt 4.6, Leading zero omitted, Abs format (unit mm)*
G04 Created by KiCad (PCBNEW 8.0.5) date 2024-10-24 17:49:52*
%MOMM*%
%LPD*%
G01*
G04 APERTURE LIST*
G04 Aperture macros list*
%AMRoundRect*
0 Rectangle with rounded corners*
0 $1 Rounding radius*
0 $2 $3 $4 $5 $6 $7 $8 $9 X,Y pos of 4 corners*
0 Add a 4 corners polygon primitive as box body*
4,1,4,$2,$3,$4,$5,$6,$7,$8,$9,$2,$3,0*
0 Add four circle primitives for the rounded corners*
1,1,$1+$1,$2,$3*
1,1,$1+$1,$4,$5*
1,1,$1+$1,$6,$7*
1,1,$1+$1,$8,$9*
0 Add four rect primitives between the rounded corners*
20,1,$1+$1,$2,$3,$4,$5,0*
20,1,$1+$1,$4,$5,$6,$7,0*
20,1,$1+$1,$6,$7,$8,$9,0*
20,1,$1+$1,$8,$9,$2,$3,0*%
%AMFreePoly0*
4,1,28,0.178017,0.779942,0.347107,0.720775,0.498792,0.625465,0.625465,0.498792,0.720775,0.347107,0.779942,0.178017,0.800000,0.000000,0.779942,-0.178017,0.720775,-0.347107,0.625465,-0.498792,0.498792,-0.625465,0.347107,-0.720775,0.178017,-0.779942,0.000000,-0.800000,-2.200000,-0.800000,-2.205014,-0.794986,-2.244504,-0.794986,-2.324698,-0.756366,-2.380194,-0.686777,-2.400000,-0.600000,
-2.400000,0.600000,-2.380194,0.686777,-2.324698,0.756366,-2.244504,0.794986,-2.205014,0.794986,-2.200000,0.800000,0.000000,0.800000,0.178017,0.779942,0.178017,0.779942,$1*%
%AMFreePoly1*
4,1,28,0.605014,0.794986,0.644504,0.794986,0.724698,0.756366,0.780194,0.686777,0.800000,0.600000,0.800000,-0.600000,0.780194,-0.686777,0.724698,-0.756366,0.644504,-0.794986,0.605014,-0.794986,0.600000,-0.800000,0.000000,-0.800000,-0.178017,-0.779942,-0.347107,-0.720775,-0.498792,-0.625465,-0.625465,-0.498792,-0.720775,-0.347107,-0.779942,-0.178017,-0.800000,0.000000,-0.779942,0.178017,
-0.720775,0.347107,-0.625465,0.498792,-0.498792,0.625465,-0.347107,0.720775,-0.178017,0.779942,0.000000,0.800000,0.600000,0.800000,0.605014,0.794986,0.605014,0.794986,$1*%
%AMFreePoly2*
4,1,29,0.605014,0.794986,0.644504,0.794986,0.724698,0.756366,0.780194,0.686777,0.800000,0.600000,0.800000,-0.600000,0.780194,-0.686777,0.724698,-0.756366,0.644504,-0.794986,0.605014,-0.794986,0.600000,-0.800000,0.000000,-0.800000,-1.600000,-0.800000,-1.778017,-0.779942,-1.947107,-0.720775,-2.098792,-0.625465,-2.225465,-0.498792,-2.320775,-0.347107,-2.379942,-0.178017,-2.400000,0.000000,
-2.379942,0.178017,-2.320775,0.347107,-2.225465,0.498792,-2.098792,0.625465,-1.947107,0.720775,-1.778017,0.779942,-1.600000,0.800000,0.600000,0.800000,0.605014,0.794986,0.605014,0.794986,$1*%
%AMFreePoly3*
4,1,28,0.178017,0.779942,0.347107,0.720775,0.498792,0.625465,0.625465,0.498792,0.720775,0.347107,0.779942,0.178017,0.800000,0.000000,0.779942,-0.178017,0.720775,-0.347107,0.625465,-0.498792,0.498792,-0.625465,0.347107,-0.720775,0.178017,-0.779942,0.000000,-0.800000,-0.600000,-0.800000,-0.605014,-0.794986,-0.644504,-0.794986,-0.724698,-0.756366,-0.780194,-0.686777,-0.800000,-0.600000,
-0.800000,0.600000,-0.780194,0.686777,-0.724698,0.756366,-0.644504,0.794986,-0.605014,0.794986,-0.600000,0.800000,0.000000,0.800000,0.178017,0.779942,0.178017,0.779942,$1*%
%AMFreePoly4*
4,1,29,1.778017,0.779942,1.947107,0.720775,2.098792,0.625465,2.225465,0.498792,2.320775,0.347107,2.379942,0.178017,2.400000,0.000000,2.379942,-0.178017,2.320775,-0.347107,2.225465,-0.498792,2.098792,-0.625465,1.947107,-0.720775,1.778017,-0.779942,1.600000,-0.800000,0.000000,-0.800000,-0.600000,-0.800000,-0.605014,-0.794986,-0.644504,-0.794986,-0.724698,-0.756366,-0.780194,-0.686777,
-0.800000,-0.600000,-0.800000,0.600000,-0.780194,0.686777,-0.724698,0.756366,-0.644504,0.794986,-0.605014,0.794986,-0.600000,0.800000,1.600000,0.800000,1.778017,0.779942,1.778017,0.779942,$1*%
G04 Aperture macros list end*
%ADD10C,0.500000*%
%ADD11C,0.200000*%
%ADD12C,0.300000*%
%ADD13C,0.150000*%
%ADD14C,0.304800*%
%ADD15C,0.120000*%
%ADD16C,2.499360*%
%ADD17RoundRect,0.250000X0.450000X-0.350000X0.450000X0.350000X-0.450000X0.350000X-0.450000X-0.350000X0*%
%ADD18RoundRect,0.250000X0.350000X0.450000X-0.350000X0.450000X-0.350000X-0.450000X0.350000X-0.450000X0*%
%ADD19R,1.800000X1.800000*%
%ADD20C,1.800000*%
%ADD21C,4.000000*%
%ADD22R,1.600000X1.600000*%
%ADD23C,1.600000*%
%ADD24C,3.200000*%
%ADD25R,1.700000X1.700000*%
%ADD26O,1.700000X1.700000*%
%ADD27RoundRect,0.250000X-0.350000X-0.450000X0.350000X-0.450000X0.350000X0.450000X-0.350000X0.450000X0*%
%ADD28RoundRect,0.150000X0.512500X0.150000X-0.512500X0.150000X-0.512500X-0.150000X0.512500X-0.150000X0*%
%ADD29R,1.750000X0.450000*%
%ADD30RoundRect,0.150000X0.825000X0.150000X-0.825000X0.150000X-0.825000X-0.150000X0.825000X-0.150000X0*%
%ADD31RoundRect,0.250000X-0.450000X0.350000X-0.450000X-0.350000X0.450000X-0.350000X0.450000X0.350000X0*%
%ADD32RoundRect,0.250000X0.475000X-0.337500X0.475000X0.337500X-0.475000X0.337500X-0.475000X-0.337500X0*%
%ADD33RoundRect,0.150000X0.587500X0.150000X-0.587500X0.150000X-0.587500X-0.150000X0.587500X-0.150000X0*%
%ADD34RoundRect,0.150000X-0.587500X-0.150000X0.587500X-0.150000X0.587500X0.150000X-0.587500X0.150000X0*%
%ADD35RoundRect,0.250000X0.337500X0.475000X-0.337500X0.475000X-0.337500X-0.475000X0.337500X-0.475000X0*%
%ADD36RoundRect,0.150000X0.150000X0.625000X-0.150000X0.625000X-0.150000X-0.625000X0.150000X-0.625000X0*%
%ADD37RoundRect,0.250000X0.350000X0.650000X-0.350000X0.650000X-0.350000X-0.650000X0.350000X-0.650000X0*%
%ADD38RoundRect,0.250000X-0.337500X-0.475000X0.337500X-0.475000X0.337500X0.475000X-0.337500X0.475000X0*%
%ADD39C,2.200000*%
%ADD40C,1.850000*%
%ADD41RoundRect,0.200000X-0.600000X0.600000X-0.600000X-0.600000X0.600000X-0.600000X0.600000X0.600000X0*%
%ADD42FreePoly0,270.000000*%
%ADD43RoundRect,0.800000X-0.000010X0.800000X-0.000010X-0.800000X0.000010X-0.800000X0.000010X0.800000X0*%
%ADD44FreePoly1,270.000000*%
%ADD45FreePoly2,270.000000*%
%ADD46FreePoly3,270.000000*%
%ADD47FreePoly4,270.000000*%
%ADD48RoundRect,0.250000X-0.475000X0.337500X-0.475000X-0.337500X0.475000X-0.337500X0.475000X0.337500X0*%
G04 APERTURE END LIST*
D10*
X143600000Y-123400000D02*
X142600000Y-123400000D01*
X142600000Y-126400000D01*
X143600000Y-126400000D01*
X143600000Y-127400000D01*
X137600000Y-127400000D01*
X137600000Y-126400000D01*
X138600000Y-126400000D01*
X138600000Y-123400000D01*
X139600000Y-123400000D01*
X139600000Y-126400000D01*
X141600000Y-126400000D01*
X141600000Y-123400000D01*
X139600000Y-123400000D01*
X138600000Y-123400000D01*
X137600000Y-123400000D01*
X137600000Y-122400000D01*
X143600000Y-122400000D01*
X143600000Y-123400000D01*
G36*
X143600000Y-123400000D02*
G01*
X142600000Y-123400000D01*
X142600000Y-126400000D01*
X143600000Y-126400000D01*
X143600000Y-127400000D01*
X137600000Y-127400000D01*
X137600000Y-126400000D01*
X138600000Y-126400000D01*
X138600000Y-123400000D01*
X139600000Y-123400000D01*
X139600000Y-126400000D01*
X141600000Y-126400000D01*
X141600000Y-123400000D01*
X139600000Y-123400000D01*
X138600000Y-123400000D01*
X137600000Y-123400000D01*
X137600000Y-122400000D01*
X143600000Y-122400000D01*
X143600000Y-123400000D01*
G37*
X131729410Y-109417000D02*
X131850000Y-109467000D01*
X131953560Y-109546500D01*
X135199410Y-113541400D01*
X136582790Y-112536300D01*
X140195154Y-112536300D01*
X141247339Y-112536300D01*
X144617210Y-112536300D01*
X150489881Y-116803020D01*
X153577001Y-113715900D01*
X153162500Y-110400000D01*
X141959421Y-110400000D01*
X141247339Y-112536300D01*
X140195154Y-112536300D01*
X141117029Y-109770600D01*
X141166986Y-109650000D01*
X141246439Y-109546500D01*
X141350000Y-109467000D01*
X141470590Y-109417000D01*
X141600000Y-109400000D01*
X153600000Y-109400000D01*
X153729402Y-109417000D01*
X153850000Y-109467000D01*
X153953500Y-109546500D01*
X154032999Y-109650000D01*
X154083002Y-109770600D01*
X154100000Y-109900000D01*
X154600000Y-113900000D01*
X154583002Y-114029400D01*
X154532999Y-114150000D01*
X154453500Y-114253600D01*
X151198400Y-117508700D01*
X153600000Y-124900000D01*
X151198400Y-132291300D01*
X154453500Y-135546400D01*
X154532999Y-135650000D01*
X154583002Y-135770600D01*
X154600000Y-135900000D01*
X154100000Y-139900000D01*
X154083002Y-140029400D01*
X154032999Y-140150000D01*
X153953500Y-140253500D01*
X153850000Y-140332999D01*
X153729402Y-140383000D01*
X153600000Y-140400000D01*
X141600000Y-140400000D01*
X141470590Y-140383000D01*
X141350000Y-140332999D01*
X141246439Y-140253500D01*
X141166986Y-140150000D01*
X141117029Y-140029400D01*
X140195154Y-137263701D01*
X141247339Y-137263701D01*
X141959421Y-139400000D01*
X153162500Y-139400000D01*
X153577001Y-136084101D01*
X150489881Y-132996981D01*
X144617210Y-137263701D01*
X141247339Y-137263701D01*
X140195154Y-137263701D01*
X136582790Y-137263701D01*
X135199410Y-136258601D01*
X131953560Y-140253500D01*
X131850000Y-140332999D01*
X131729410Y-140383000D01*
X131600000Y-140400000D01*
X127600000Y-140400000D01*
X127470600Y-140383000D01*
X127350000Y-140332999D01*
X127246500Y-140253500D01*
X127167000Y-140150000D01*
X127117000Y-140029400D01*
X126128417Y-134097891D01*
X127137500Y-134097891D01*
X128021200Y-139400000D01*
X131365440Y-139400000D01*
X134393520Y-135673100D01*
X130082800Y-132541201D01*
X129992223Y-132262431D01*
X131317130Y-132262431D01*
X136891809Y-136312701D01*
X143782461Y-136312701D01*
X142484340Y-132317469D01*
X141533252Y-132008440D01*
X143435400Y-132008440D01*
X144733511Y-136003699D01*
X150308191Y-131953421D01*
X152437500Y-125400000D01*
X148236721Y-125400000D01*
X143435400Y-132008440D01*
X141533252Y-132008440D01*
X134715660Y-129793261D01*
X131317130Y-132262431D01*
X129992223Y-132262431D01*
X129844400Y-131807471D01*
X127137500Y-134097891D01*
X126128417Y-134097891D01*
X126117000Y-134029391D01*
X126100000Y-133900000D01*
X126117000Y-133770590D01*
X126167000Y-133650000D01*
X126246500Y-133546439D01*
X129496500Y-130796441D01*
X129512000Y-130784510D01*
X128737200Y-128400000D01*
X124600000Y-128400000D01*
X124470600Y-128382960D01*
X124350000Y-128333001D01*
X124246500Y-128253550D01*
X121246500Y-125253546D01*
X121166999Y-125150000D01*
X121117000Y-125029395D01*
X121100000Y-124900000D01*
X122307100Y-124900000D01*
X124807100Y-127400000D01*
X128412300Y-127400000D01*
X127600000Y-124900000D01*
X128600000Y-124900000D01*
X130729350Y-131453421D01*
X134086245Y-129014490D01*
X134936880Y-129014490D01*
X142763120Y-131557391D01*
X147600000Y-124900000D01*
X142763120Y-118242609D01*
X134936880Y-120785509D01*
X134936880Y-129014490D01*
X134086245Y-129014490D01*
X134127880Y-128984240D01*
X134127880Y-120815760D01*
X134086244Y-120785509D01*
X130729350Y-118346580D01*
X128600000Y-124900000D01*
X127600000Y-124900000D01*
X128412300Y-122400000D01*
X124807100Y-122400000D01*
X122307100Y-124900000D01*
X121100000Y-124900000D01*
X121117000Y-124770605D01*
X121166999Y-124650000D01*
X121246500Y-124546454D01*
X124246500Y-121546450D01*
X124350000Y-121466999D01*
X124470600Y-121417040D01*
X124600000Y-121400000D01*
X128737200Y-121400000D01*
X129512000Y-119015490D01*
X129496500Y-119003560D01*
X126246500Y-116253560D01*
X126167000Y-116150000D01*
X126117000Y-116029410D01*
X126100000Y-115900000D01*
X126117000Y-115770610D01*
X126128417Y-115702110D01*
X127137500Y-115702110D01*
X129844400Y-117992529D01*
X129992223Y-117537569D01*
X131317130Y-117537569D01*
X134715660Y-120006740D01*
X141533250Y-117791560D01*
X143435400Y-117791560D01*
X148236721Y-124400000D01*
X152437500Y-124400000D01*
X150308191Y-117846580D01*
X144733511Y-113796300D01*
X143435400Y-117791560D01*
X141533250Y-117791560D01*
X142484340Y-117482530D01*
X143782461Y-113487300D01*
X136891809Y-113487300D01*
X131317130Y-117537569D01*
X129992223Y-117537569D01*
X130082800Y-117258800D01*
X134393520Y-114126900D01*
X131365440Y-110400000D01*
X128021200Y-110400000D01*
X127137500Y-115702110D01*
X126128417Y-115702110D01*
X127117000Y-109770600D01*
X127167000Y-109650000D01*
X127246500Y-109546500D01*
X127350000Y-109467000D01*
X127470600Y-109417000D01*
X127600000Y-109400000D01*
X131600000Y-109400000D01*
X131729410Y-109417000D01*
G36*
X131729410Y-109417000D02*
G01*
X131850000Y-109467000D01*
X131953560Y-109546500D01*
X135199410Y-113541400D01*
X136582790Y-112536300D01*
X140195154Y-112536300D01*
X141247339Y-112536300D01*
X144617210Y-112536300D01*
X150489881Y-116803020D01*
X153577001Y-113715900D01*
X153162500Y-110400000D01*
X141959421Y-110400000D01*
X141247339Y-112536300D01*
X140195154Y-112536300D01*
X141117029Y-109770600D01*
X141166986Y-109650000D01*
X141246439Y-109546500D01*
X141350000Y-109467000D01*
X141470590Y-109417000D01*
X141600000Y-109400000D01*
X153600000Y-109400000D01*
X153729402Y-109417000D01*
X153850000Y-109467000D01*
X153953500Y-109546500D01*
X154032999Y-109650000D01*
X154083002Y-109770600D01*
X154100000Y-109900000D01*
X154600000Y-113900000D01*
X154583002Y-114029400D01*
X154532999Y-114150000D01*
X154453500Y-114253600D01*
X151198400Y-117508700D01*
X153600000Y-124900000D01*
X151198400Y-132291300D01*
X154453500Y-135546400D01*
X154532999Y-135650000D01*
X154583002Y-135770600D01*
X154600000Y-135900000D01*
X154100000Y-139900000D01*
X154083002Y-140029400D01*
X154032999Y-140150000D01*
X153953500Y-140253500D01*
X153850000Y-140332999D01*
X153729402Y-140383000D01*
X153600000Y-140400000D01*
X141600000Y-140400000D01*
X141470590Y-140383000D01*
X141350000Y-140332999D01*
X141246439Y-140253500D01*
X141166986Y-140150000D01*
X141117029Y-140029400D01*
X140195154Y-137263701D01*
X141247339Y-137263701D01*
X141959421Y-139400000D01*
X153162500Y-139400000D01*
X153577001Y-136084101D01*
X150489881Y-132996981D01*
X144617210Y-137263701D01*
X141247339Y-137263701D01*
X140195154Y-137263701D01*
X136582790Y-137263701D01*
X135199410Y-136258601D01*
X131953560Y-140253500D01*
X131850000Y-140332999D01*
X131729410Y-140383000D01*
X131600000Y-140400000D01*
X127600000Y-140400000D01*
X127470600Y-140383000D01*
X127350000Y-140332999D01*
X127246500Y-140253500D01*
X127167000Y-140150000D01*
X127117000Y-140029400D01*
X126128417Y-134097891D01*
X127137500Y-134097891D01*
X128021200Y-139400000D01*
X131365440Y-139400000D01*
X134393520Y-135673100D01*
X130082800Y-132541201D01*
X129992223Y-132262431D01*
X131317130Y-132262431D01*
X136891809Y-136312701D01*
X143782461Y-136312701D01*
X142484340Y-132317469D01*
X141533252Y-132008440D01*
X143435400Y-132008440D01*
X144733511Y-136003699D01*
X150308191Y-131953421D01*
X152437500Y-125400000D01*
X148236721Y-125400000D01*
X143435400Y-132008440D01*
X141533252Y-132008440D01*
X134715660Y-129793261D01*
X131317130Y-132262431D01*
X129992223Y-132262431D01*
X129844400Y-131807471D01*
X127137500Y-134097891D01*
X126128417Y-134097891D01*
X126117000Y-134029391D01*
X126100000Y-133900000D01*
X126117000Y-133770590D01*
X126167000Y-133650000D01*
X126246500Y-133546439D01*
X129496500Y-130796441D01*
X129512000Y-130784510D01*
X128737200Y-128400000D01*
X124600000Y-128400000D01*
X124470600Y-128382960D01*
X124350000Y-128333001D01*
X124246500Y-128253550D01*
X121246500Y-125253546D01*
X121166999Y-125150000D01*
X121117000Y-125029395D01*
X121100000Y-124900000D01*
X122307100Y-124900000D01*
X124807100Y-127400000D01*
X128412300Y-127400000D01*
X127600000Y-124900000D01*
X128600000Y-124900000D01*
X130729350Y-131453421D01*
X134086245Y-129014490D01*
X134936880Y-129014490D01*
X142763120Y-131557391D01*
X147600000Y-124900000D01*
X142763120Y-118242609D01*
X134936880Y-120785509D01*
X134936880Y-129014490D01*
X134086245Y-129014490D01*
X134127880Y-128984240D01*
X134127880Y-120815760D01*
X134086244Y-120785509D01*
X130729350Y-118346580D01*
X128600000Y-124900000D01*
X127600000Y-124900000D01*
X128412300Y-122400000D01*
X124807100Y-122400000D01*
X122307100Y-124900000D01*
X121100000Y-124900000D01*
X121117000Y-124770605D01*
X121166999Y-124650000D01*
X121246500Y-124546454D01*
X124246500Y-121546450D01*
X124350000Y-121466999D01*
X124470600Y-121417040D01*
X124600000Y-121400000D01*
X128737200Y-121400000D01*
X129512000Y-119015490D01*
X129496500Y-119003560D01*
X126246500Y-116253560D01*
X126167000Y-116150000D01*
X126117000Y-116029410D01*
X126100000Y-115900000D01*
X126117000Y-115770610D01*
X126128417Y-115702110D01*
X127137500Y-115702110D01*
X129844400Y-117992529D01*
X129992223Y-117537569D01*
X131317130Y-117537569D01*
X134715660Y-120006740D01*
X141533250Y-117791560D01*
X143435400Y-117791560D01*
X148236721Y-124400000D01*
X152437500Y-124400000D01*
X150308191Y-117846580D01*
X144733511Y-113796300D01*
X143435400Y-117791560D01*
X141533250Y-117791560D01*
X142484340Y-117482530D01*
X143782461Y-113487300D01*
X136891809Y-113487300D01*
X131317130Y-117537569D01*
X129992223Y-117537569D01*
X130082800Y-117258800D01*
X134393520Y-114126900D01*
X131365440Y-110400000D01*
X128021200Y-110400000D01*
X127137500Y-115702110D01*
X126128417Y-115702110D01*
X127117000Y-109770600D01*
X127167000Y-109650000D01*
X127246500Y-109546500D01*
X127350000Y-109467000D01*
X127470600Y-109417000D01*
X127600000Y-109400000D01*
X131600000Y-109400000D01*
X131729410Y-109417000D01*
G37*
D11*
X176817292Y-74710809D02*
X176817292Y-73510809D01*
X176817292Y-73510809D02*
X177103006Y-73510809D01*
X177103006Y-73510809D02*
X177274435Y-73567952D01*
X177274435Y-73567952D02*
X177388720Y-73682238D01*
X177388720Y-73682238D02*
X177445863Y-73796524D01*
X177445863Y-73796524D02*
X177503006Y-74025095D01*
X177503006Y-74025095D02*
X177503006Y-74196524D01*
X177503006Y-74196524D02*
X177445863Y-74425095D01*
X177445863Y-74425095D02*
X177388720Y-74539381D01*
X177388720Y-74539381D02*
X177274435Y-74653667D01*
X177274435Y-74653667D02*
X177103006Y-74710809D01*
X177103006Y-74710809D02*
X176817292Y-74710809D01*
X178474435Y-74653667D02*
X178360149Y-74710809D01*
X178360149Y-74710809D02*
X178131578Y-74710809D01*
X178131578Y-74710809D02*
X178017292Y-74653667D01*
X178017292Y-74653667D02*
X177960149Y-74539381D01*
X177960149Y-74539381D02*
X177960149Y-74082238D01*
X177960149Y-74082238D02*
X178017292Y-73967952D01*
X178017292Y-73967952D02*
X178131578Y-73910809D01*
X178131578Y-73910809D02*
X178360149Y-73910809D01*
X178360149Y-73910809D02*
X178474435Y-73967952D01*
X178474435Y-73967952D02*
X178531578Y-74082238D01*
X178531578Y-74082238D02*
X178531578Y-74196524D01*
X178531578Y-74196524D02*
X177960149Y-74310809D01*
X179045863Y-74710809D02*
X179045863Y-73510809D01*
X179045863Y-73967952D02*
X179160149Y-73910809D01*
X179160149Y-73910809D02*
X179388720Y-73910809D01*
X179388720Y-73910809D02*
X179503006Y-73967952D01*
X179503006Y-73967952D02*
X179560149Y-74025095D01*
X179560149Y-74025095D02*
X179617291Y-74139381D01*
X179617291Y-74139381D02*
X179617291Y-74482238D01*
X179617291Y-74482238D02*
X179560149Y-74596524D01*
X179560149Y-74596524D02*
X179503006Y-74653667D01*
X179503006Y-74653667D02*
X179388720Y-74710809D01*
X179388720Y-74710809D02*
X179160149Y-74710809D01*
X179160149Y-74710809D02*
X179045863Y-74653667D01*
X180645863Y-73910809D02*
X180645863Y-74710809D01*
X180131577Y-73910809D02*
X180131577Y-74539381D01*
X180131577Y-74539381D02*
X180188720Y-74653667D01*
X180188720Y-74653667D02*
X180303005Y-74710809D01*
X180303005Y-74710809D02*
X180474434Y-74710809D01*
X180474434Y-74710809D02*
X180588720Y-74653667D01*
X180588720Y-74653667D02*
X180645863Y-74596524D01*
X181731577Y-73910809D02*
X181731577Y-74882238D01*
X181731577Y-74882238D02*
X181674434Y-74996524D01*
X181674434Y-74996524D02*
X181617291Y-75053667D01*
X181617291Y-75053667D02*
X181503005Y-75110809D01*
X181503005Y-75110809D02*
X181331577Y-75110809D01*
X181331577Y-75110809D02*
X181217291Y-75053667D01*
X181731577Y-74653667D02*
X181617291Y-74710809D01*
X181617291Y-74710809D02*
X181388719Y-74710809D01*
X181388719Y-74710809D02*
X181274434Y-74653667D01*
X181274434Y-74653667D02*
X181217291Y-74596524D01*
X181217291Y-74596524D02*
X181160148Y-74482238D01*
X181160148Y-74482238D02*
X181160148Y-74139381D01*
X181160148Y-74139381D02*
X181217291Y-74025095D01*
X181217291Y-74025095D02*
X181274434Y-73967952D01*
X181274434Y-73967952D02*
X181388719Y-73910809D01*
X181388719Y-73910809D02*
X181617291Y-73910809D01*
X181617291Y-73910809D02*
X181731577Y-73967952D01*
X176817292Y-75442742D02*
X176817292Y-76414171D01*
X176817292Y-76414171D02*
X176874435Y-76528457D01*
X176874435Y-76528457D02*
X176931578Y-76585600D01*
X176931578Y-76585600D02*
X177045863Y-76642742D01*
X177045863Y-76642742D02*
X177274435Y-76642742D01*
X177274435Y-76642742D02*
X177388720Y-76585600D01*
X177388720Y-76585600D02*
X177445863Y-76528457D01*
X177445863Y-76528457D02*
X177503006Y-76414171D01*
X177503006Y-76414171D02*
X177503006Y-75442742D01*
X178017292Y-76299885D02*
X178588721Y-76299885D01*
X177903006Y-76642742D02*
X178303006Y-75442742D01*
X178303006Y-75442742D02*
X178703006Y-76642742D01*
X179788720Y-76642742D02*
X179388720Y-76071314D01*
X179103006Y-76642742D02*
X179103006Y-75442742D01*
X179103006Y-75442742D02*
X179560149Y-75442742D01*
X179560149Y-75442742D02*
X179674434Y-75499885D01*
X179674434Y-75499885D02*
X179731577Y-75557028D01*
X179731577Y-75557028D02*
X179788720Y-75671314D01*
X179788720Y-75671314D02*
X179788720Y-75842742D01*
X179788720Y-75842742D02*
X179731577Y-75957028D01*
X179731577Y-75957028D02*
X179674434Y-76014171D01*
X179674434Y-76014171D02*
X179560149Y-76071314D01*
X179560149Y-76071314D02*
X179103006Y-76071314D01*
X180131577Y-75442742D02*
X180817292Y-75442742D01*
X180474434Y-76642742D02*
X180474434Y-75442742D01*
X183617292Y-105642742D02*
X183617292Y-104442742D01*
X183617292Y-104442742D02*
X184074435Y-104442742D01*
X184074435Y-104442742D02*
X184188720Y-104499885D01*
X184188720Y-104499885D02*
X184245863Y-104557028D01*
X184245863Y-104557028D02*
X184303006Y-104671314D01*
X184303006Y-104671314D02*
X184303006Y-104842742D01*
X184303006Y-104842742D02*
X184245863Y-104957028D01*
X184245863Y-104957028D02*
X184188720Y-105014171D01*
X184188720Y-105014171D02*
X184074435Y-105071314D01*
X184074435Y-105071314D02*
X183617292Y-105071314D01*
X185331578Y-105642742D02*
X185331578Y-105014171D01*
X185331578Y-105014171D02*
X185274435Y-104899885D01*
X185274435Y-104899885D02*
X185160149Y-104842742D01*
X185160149Y-104842742D02*
X184931578Y-104842742D01*
X184931578Y-104842742D02*
X184817292Y-104899885D01*
X185331578Y-105585600D02*
X185217292Y-105642742D01*
X185217292Y-105642742D02*
X184931578Y-105642742D01*
X184931578Y-105642742D02*
X184817292Y-105585600D01*
X184817292Y-105585600D02*
X184760149Y-105471314D01*
X184760149Y-105471314D02*
X184760149Y-105357028D01*
X184760149Y-105357028D02*
X184817292Y-105242742D01*
X184817292Y-105242742D02*
X184931578Y-105185600D01*
X184931578Y-105185600D02*
X185217292Y-105185600D01*
X185217292Y-105185600D02*
X185331578Y-105128457D01*
X185903006Y-105642742D02*
X185903006Y-104842742D01*
X185903006Y-105071314D02*
X185960149Y-104957028D01*
X185960149Y-104957028D02*
X186017292Y-104899885D01*
X186017292Y-104899885D02*
X186131577Y-104842742D01*
X186131577Y-104842742D02*
X186245863Y-104842742D01*
X187160149Y-105642742D02*
X187160149Y-105014171D01*
X187160149Y-105014171D02*
X187103006Y-104899885D01*
X187103006Y-104899885D02*
X186988720Y-104842742D01*
X186988720Y-104842742D02*
X186760149Y-104842742D01*
X186760149Y-104842742D02*
X186645863Y-104899885D01*
X187160149Y-105585600D02*
X187045863Y-105642742D01*
X187045863Y-105642742D02*
X186760149Y-105642742D01*
X186760149Y-105642742D02*
X186645863Y-105585600D01*
X186645863Y-105585600D02*
X186588720Y-105471314D01*
X186588720Y-105471314D02*
X186588720Y-105357028D01*
X186588720Y-105357028D02*
X186645863Y-105242742D01*
X186645863Y-105242742D02*
X186760149Y-105185600D01*
X186760149Y-105185600D02*
X187045863Y-105185600D01*
X187045863Y-105185600D02*
X187160149Y-105128457D01*
X187903005Y-105642742D02*
X187788720Y-105585600D01*
X187788720Y-105585600D02*
X187731577Y-105471314D01*
X187731577Y-105471314D02*
X187731577Y-104442742D01*
X188531576Y-105642742D02*
X188417291Y-105585600D01*
X188417291Y-105585600D02*
X188360148Y-105471314D01*
X188360148Y-105471314D02*
X188360148Y-104442742D01*
X189445862Y-105585600D02*
X189331576Y-105642742D01*
X189331576Y-105642742D02*
X189103005Y-105642742D01*
X189103005Y-105642742D02*
X188988719Y-105585600D01*
X188988719Y-105585600D02*
X188931576Y-105471314D01*
X188931576Y-105471314D02*
X188931576Y-105014171D01*
X188931576Y-105014171D02*
X188988719Y-104899885D01*
X188988719Y-104899885D02*
X189103005Y-104842742D01*
X189103005Y-104842742D02*
X189331576Y-104842742D01*
X189331576Y-104842742D02*
X189445862Y-104899885D01*
X189445862Y-104899885D02*
X189503005Y-105014171D01*
X189503005Y-105014171D02*
X189503005Y-105128457D01*
X189503005Y-105128457D02*
X188931576Y-105242742D01*
X190188718Y-105642742D02*
X190074433Y-105585600D01*
X190074433Y-105585600D02*
X190017290Y-105471314D01*
X190017290Y-105471314D02*
X190017290Y-104442742D01*
X111910809Y-56382707D02*
X110710809Y-56382707D01*
X110825095Y-55868421D02*
X110767952Y-55811278D01*
X110767952Y-55811278D02*
X110710809Y-55696993D01*
X110710809Y-55696993D02*
X110710809Y-55411278D01*
X110710809Y-55411278D02*
X110767952Y-55296993D01*
X110767952Y-55296993D02*
X110825095Y-55239850D01*
X110825095Y-55239850D02*
X110939381Y-55182707D01*
X110939381Y-55182707D02*
X111053667Y-55182707D01*
X111053667Y-55182707D02*
X111225095Y-55239850D01*
X111225095Y-55239850D02*
X111910809Y-55925564D01*
X111910809Y-55925564D02*
X111910809Y-55182707D01*
X111796524Y-53982707D02*
X111853667Y-54039850D01*
X111853667Y-54039850D02*
X111910809Y-54211278D01*
X111910809Y-54211278D02*
X111910809Y-54325564D01*
X111910809Y-54325564D02*
X111853667Y-54496993D01*
X111853667Y-54496993D02*
X111739381Y-54611278D01*
X111739381Y-54611278D02*
X111625095Y-54668421D01*
X111625095Y-54668421D02*
X111396524Y-54725564D01*
X111396524Y-54725564D02*
X111225095Y-54725564D01*
X111225095Y-54725564D02*
X110996524Y-54668421D01*
X110996524Y-54668421D02*
X110882238Y-54611278D01*
X110882238Y-54611278D02*
X110767952Y-54496993D01*
X110767952Y-54496993D02*
X110710809Y-54325564D01*
X110710809Y-54325564D02*
X110710809Y-54211278D01*
X110710809Y-54211278D02*
X110767952Y-54039850D01*
X110767952Y-54039850D02*
X110825095Y-53982707D01*
X113957028Y-55582707D02*
X113899885Y-55696993D01*
X113899885Y-55696993D02*
X113785600Y-55811279D01*
X113785600Y-55811279D02*
X113614171Y-55982707D01*
X113614171Y-55982707D02*
X113557028Y-56096993D01*
X113557028Y-56096993D02*
X113557028Y-56211279D01*
X113842742Y-56154136D02*
X113785600Y-56268422D01*
X113785600Y-56268422D02*
X113671314Y-56382707D01*
X113671314Y-56382707D02*
X113442742Y-56439850D01*
X113442742Y-56439850D02*
X113042742Y-56439850D01*
X113042742Y-56439850D02*
X112814171Y-56382707D01*
X112814171Y-56382707D02*
X112699885Y-56268422D01*
X112699885Y-56268422D02*
X112642742Y-56154136D01*
X112642742Y-56154136D02*
X112642742Y-55925564D01*
X112642742Y-55925564D02*
X112699885Y-55811279D01*
X112699885Y-55811279D02*
X112814171Y-55696993D01*
X112814171Y-55696993D02*
X113042742Y-55639850D01*
X113042742Y-55639850D02*
X113442742Y-55639850D01*
X113442742Y-55639850D02*
X113671314Y-55696993D01*
X113671314Y-55696993D02*
X113785600Y-55811279D01*
X113785600Y-55811279D02*
X113842742Y-55925564D01*
X113842742Y-55925564D02*
X113842742Y-56154136D01*
X113042742Y-55239850D02*
X113842742Y-55011279D01*
X113842742Y-55011279D02*
X113271314Y-54782707D01*
X113271314Y-54782707D02*
X113842742Y-54554136D01*
X113842742Y-54554136D02*
X113042742Y-54325564D01*
X113842742Y-53868421D02*
X113042742Y-53868421D01*
X112642742Y-53868421D02*
X112699885Y-53925564D01*
X112699885Y-53925564D02*
X112757028Y-53868421D01*
X112757028Y-53868421D02*
X112699885Y-53811278D01*
X112699885Y-53811278D02*
X112642742Y-53868421D01*
X112642742Y-53868421D02*
X112757028Y-53868421D01*
X113842742Y-53296992D02*
X113042742Y-53296992D01*
X112642742Y-53296992D02*
X112699885Y-53354135D01*
X112699885Y-53354135D02*
X112757028Y-53296992D01*
X112757028Y-53296992D02*
X112699885Y-53239849D01*
X112699885Y-53239849D02*
X112642742Y-53296992D01*
X112642742Y-53296992D02*
X112757028Y-53296992D01*
X113785600Y-52211278D02*
X113842742Y-52325563D01*
X113842742Y-52325563D02*
X113842742Y-52554135D01*
X113842742Y-52554135D02*
X113785600Y-52668420D01*
X113785600Y-52668420D02*
X113728457Y-52725563D01*
X113728457Y-52725563D02*
X113614171Y-52782706D01*
X113614171Y-52782706D02*
X113271314Y-52782706D01*
X113271314Y-52782706D02*
X113157028Y-52725563D01*
X113157028Y-52725563D02*
X113099885Y-52668420D01*
X113099885Y-52668420D02*
X113042742Y-52554135D01*
X113042742Y-52554135D02*
X113042742Y-52325563D01*
X113042742Y-52325563D02*
X113099885Y-52211278D01*
X182360149Y-52985600D02*
X182531578Y-53042742D01*
X182531578Y-53042742D02*
X182817292Y-53042742D01*
X182817292Y-53042742D02*
X182931578Y-52985600D01*
X182931578Y-52985600D02*
X182988720Y-52928457D01*
X182988720Y-52928457D02*
X183045863Y-52814171D01*
X183045863Y-52814171D02*
X183045863Y-52699885D01*
X183045863Y-52699885D02*
X182988720Y-52585600D01*
X182988720Y-52585600D02*
X182931578Y-52528457D01*
X182931578Y-52528457D02*
X182817292Y-52471314D01*
X182817292Y-52471314D02*
X182588720Y-52414171D01*
X182588720Y-52414171D02*
X182474435Y-52357028D01*
X182474435Y-52357028D02*
X182417292Y-52299885D01*
X182417292Y-52299885D02*
X182360149Y-52185600D01*
X182360149Y-52185600D02*
X182360149Y-52071314D01*
X182360149Y-52071314D02*
X182417292Y-51957028D01*
X182417292Y-51957028D02*
X182474435Y-51899885D01*
X182474435Y-51899885D02*
X182588720Y-51842742D01*
X182588720Y-51842742D02*
X182874435Y-51842742D01*
X182874435Y-51842742D02*
X183045863Y-51899885D01*
X184017292Y-52985600D02*
X183903006Y-53042742D01*
X183903006Y-53042742D02*
X183674435Y-53042742D01*
X183674435Y-53042742D02*
X183560149Y-52985600D01*
X183560149Y-52985600D02*
X183503006Y-52871314D01*
X183503006Y-52871314D02*
X183503006Y-52414171D01*
X183503006Y-52414171D02*
X183560149Y-52299885D01*
X183560149Y-52299885D02*
X183674435Y-52242742D01*
X183674435Y-52242742D02*
X183903006Y-52242742D01*
X183903006Y-52242742D02*
X184017292Y-52299885D01*
X184017292Y-52299885D02*
X184074435Y-52414171D01*
X184074435Y-52414171D02*
X184074435Y-52528457D01*
X184074435Y-52528457D02*
X183503006Y-52642742D01*
X184588720Y-53042742D02*
X184588720Y-52242742D01*
X184588720Y-52471314D02*
X184645863Y-52357028D01*
X184645863Y-52357028D02*
X184703006Y-52299885D01*
X184703006Y-52299885D02*
X184817291Y-52242742D01*
X184817291Y-52242742D02*
X184931577Y-52242742D01*
X185331577Y-53042742D02*
X185331577Y-52242742D01*
X185331577Y-51842742D02*
X185274434Y-51899885D01*
X185274434Y-51899885D02*
X185331577Y-51957028D01*
X185331577Y-51957028D02*
X185388720Y-51899885D01*
X185388720Y-51899885D02*
X185331577Y-51842742D01*
X185331577Y-51842742D02*
X185331577Y-51957028D01*
X186417292Y-53042742D02*
X186417292Y-52414171D01*
X186417292Y-52414171D02*
X186360149Y-52299885D01*
X186360149Y-52299885D02*
X186245863Y-52242742D01*
X186245863Y-52242742D02*
X186017292Y-52242742D01*
X186017292Y-52242742D02*
X185903006Y-52299885D01*
X186417292Y-52985600D02*
X186303006Y-53042742D01*
X186303006Y-53042742D02*
X186017292Y-53042742D01*
X186017292Y-53042742D02*
X185903006Y-52985600D01*
X185903006Y-52985600D02*
X185845863Y-52871314D01*
X185845863Y-52871314D02*
X185845863Y-52757028D01*
X185845863Y-52757028D02*
X185903006Y-52642742D01*
X185903006Y-52642742D02*
X186017292Y-52585600D01*
X186017292Y-52585600D02*
X186303006Y-52585600D01*
X186303006Y-52585600D02*
X186417292Y-52528457D01*
X187160148Y-53042742D02*
X187045863Y-52985600D01*
X187045863Y-52985600D02*
X186988720Y-52871314D01*
X186988720Y-52871314D02*
X186988720Y-51842742D01*
X161217292Y-104614171D02*
X161617292Y-104614171D01*
X161788720Y-105242742D02*
X161217292Y-105242742D01*
X161217292Y-105242742D02*
X161217292Y-104042742D01*
X161217292Y-104042742D02*
X161788720Y-104042742D01*
X162188720Y-105242742D02*
X162817292Y-104442742D01*
X162188720Y-104442742D02*
X162817292Y-105242742D01*
X163274435Y-104442742D02*
X163274435Y-105642742D01*
X163274435Y-104499885D02*
X163388721Y-104442742D01*
X163388721Y-104442742D02*
X163617292Y-104442742D01*
X163617292Y-104442742D02*
X163731578Y-104499885D01*
X163731578Y-104499885D02*
X163788721Y-104557028D01*
X163788721Y-104557028D02*
X163845863Y-104671314D01*
X163845863Y-104671314D02*
X163845863Y-105014171D01*
X163845863Y-105014171D02*
X163788721Y-105128457D01*
X163788721Y-105128457D02*
X163731578Y-105185600D01*
X163731578Y-105185600D02*
X163617292Y-105242742D01*
X163617292Y-105242742D02*
X163388721Y-105242742D01*
X163388721Y-105242742D02*
X163274435Y-105185600D01*
X164360149Y-105128457D02*
X164417292Y-105185600D01*
X164417292Y-105185600D02*
X164360149Y-105242742D01*
X164360149Y-105242742D02*
X164303006Y-105185600D01*
X164303006Y-105185600D02*
X164360149Y-105128457D01*
X164360149Y-105128457D02*
X164360149Y-105242742D01*
X129785600Y-60239850D02*
X129842742Y-60068422D01*
X129842742Y-60068422D02*
X129842742Y-59782707D01*
X129842742Y-59782707D02*
X129785600Y-59668422D01*
X129785600Y-59668422D02*
X129728457Y-59611279D01*
X129728457Y-59611279D02*
X129614171Y-59554136D01*
X129614171Y-59554136D02*
X129499885Y-59554136D01*
X129499885Y-59554136D02*
X129385600Y-59611279D01*
X129385600Y-59611279D02*
X129328457Y-59668422D01*
X129328457Y-59668422D02*
X129271314Y-59782707D01*
X129271314Y-59782707D02*
X129214171Y-60011279D01*
X129214171Y-60011279D02*
X129157028Y-60125564D01*
X129157028Y-60125564D02*
X129099885Y-60182707D01*
X129099885Y-60182707D02*
X128985600Y-60239850D01*
X128985600Y-60239850D02*
X128871314Y-60239850D01*
X128871314Y-60239850D02*
X128757028Y-60182707D01*
X128757028Y-60182707D02*
X128699885Y-60125564D01*
X128699885Y-60125564D02*
X128642742Y-60011279D01*
X128642742Y-60011279D02*
X128642742Y-59725564D01*
X128642742Y-59725564D02*
X128699885Y-59554136D01*
X129785600Y-58582707D02*
X129842742Y-58696993D01*
X129842742Y-58696993D02*
X129842742Y-58925565D01*
X129842742Y-58925565D02*
X129785600Y-59039850D01*
X129785600Y-59039850D02*
X129671314Y-59096993D01*
X129671314Y-59096993D02*
X129214171Y-59096993D01*
X129214171Y-59096993D02*
X129099885Y-59039850D01*
X129099885Y-59039850D02*
X129042742Y-58925565D01*
X129042742Y-58925565D02*
X129042742Y-58696993D01*
X129042742Y-58696993D02*
X129099885Y-58582707D01*
X129099885Y-58582707D02*
X129214171Y-58525565D01*
X129214171Y-58525565D02*
X129328457Y-58525565D01*
X129328457Y-58525565D02*
X129442742Y-59096993D01*
X129842742Y-58011279D02*
X129042742Y-58011279D01*
X129271314Y-58011279D02*
X129157028Y-57954136D01*
X129157028Y-57954136D02*
X129099885Y-57896994D01*
X129099885Y-57896994D02*
X129042742Y-57782708D01*
X129042742Y-57782708D02*
X129042742Y-57668422D01*
X129842742Y-57268422D02*
X129042742Y-57268422D01*
X128642742Y-57268422D02*
X128699885Y-57325565D01*
X128699885Y-57325565D02*
X128757028Y-57268422D01*
X128757028Y-57268422D02*
X128699885Y-57211279D01*
X128699885Y-57211279D02*
X128642742Y-57268422D01*
X128642742Y-57268422D02*
X128757028Y-57268422D01*
X129842742Y-56182708D02*
X129214171Y-56182708D01*
X129214171Y-56182708D02*
X129099885Y-56239850D01*
X129099885Y-56239850D02*
X129042742Y-56354136D01*
X129042742Y-56354136D02*
X129042742Y-56582708D01*
X129042742Y-56582708D02*
X129099885Y-56696993D01*
X129785600Y-56182708D02*
X129842742Y-56296993D01*
X129842742Y-56296993D02*
X129842742Y-56582708D01*
X129842742Y-56582708D02*
X129785600Y-56696993D01*
X129785600Y-56696993D02*
X129671314Y-56754136D01*
X129671314Y-56754136D02*
X129557028Y-56754136D01*
X129557028Y-56754136D02*
X129442742Y-56696993D01*
X129442742Y-56696993D02*
X129385600Y-56582708D01*
X129385600Y-56582708D02*
X129385600Y-56296993D01*
X129385600Y-56296993D02*
X129328457Y-56182708D01*
X129842742Y-55439851D02*
X129785600Y-55554136D01*
X129785600Y-55554136D02*
X129671314Y-55611279D01*
X129671314Y-55611279D02*
X128642742Y-55611279D01*
X145742857Y-54842742D02*
X145742857Y-53642742D01*
X145742857Y-53642742D02*
X146428571Y-54842742D01*
X146428571Y-54842742D02*
X146428571Y-53642742D01*
X147400000Y-54214171D02*
X147000000Y-54214171D01*
X147000000Y-54842742D02*
X147000000Y-53642742D01*
X147000000Y-53642742D02*
X147571428Y-53642742D01*
D12*
X153411653Y-68457971D02*
X153340225Y-68529400D01*
X153340225Y-68529400D02*
X153125939Y-68600828D01*
X153125939Y-68600828D02*
X152983082Y-68600828D01*
X152983082Y-68600828D02*
X152768796Y-68529400D01*
X152768796Y-68529400D02*
X152625939Y-68386542D01*
X152625939Y-68386542D02*
X152554510Y-68243685D01*
X152554510Y-68243685D02*
X152483082Y-67957971D01*
X152483082Y-67957971D02*
X152483082Y-67743685D01*
X152483082Y-67743685D02*
X152554510Y-67457971D01*
X152554510Y-67457971D02*
X152625939Y-67315114D01*
X152625939Y-67315114D02*
X152768796Y-67172257D01*
X152768796Y-67172257D02*
X152983082Y-67100828D01*
X152983082Y-67100828D02*
X153125939Y-67100828D01*
X153125939Y-67100828D02*
X153340225Y-67172257D01*
X153340225Y-67172257D02*
X153411653Y-67243685D01*
X154911653Y-68457971D02*
X154840225Y-68529400D01*
X154840225Y-68529400D02*
X154625939Y-68600828D01*
X154625939Y-68600828D02*
X154483082Y-68600828D01*
X154483082Y-68600828D02*
X154268796Y-68529400D01*
X154268796Y-68529400D02*
X154125939Y-68386542D01*
X154125939Y-68386542D02*
X154054510Y-68243685D01*
X154054510Y-68243685D02*
X153983082Y-67957971D01*
X153983082Y-67957971D02*
X153983082Y-67743685D01*
X153983082Y-67743685D02*
X154054510Y-67457971D01*
X154054510Y-67457971D02*
X154125939Y-67315114D01*
X154125939Y-67315114D02*
X154268796Y-67172257D01*
X154268796Y-67172257D02*
X154483082Y-67100828D01*
X154483082Y-67100828D02*
X154625939Y-67100828D01*
X154625939Y-67100828D02*
X154840225Y-67172257D01*
X154840225Y-67172257D02*
X154911653Y-67243685D01*
X157197367Y-67815114D02*
X157411653Y-67886542D01*
X157411653Y-67886542D02*
X157483082Y-67957971D01*
X157483082Y-67957971D02*
X157554510Y-68100828D01*
X157554510Y-68100828D02*
X157554510Y-68315114D01*
X157554510Y-68315114D02*
X157483082Y-68457971D01*
X157483082Y-68457971D02*
X157411653Y-68529400D01*
X157411653Y-68529400D02*
X157268796Y-68600828D01*
X157268796Y-68600828D02*
X156697367Y-68600828D01*
X156697367Y-68600828D02*
X156697367Y-67100828D01*
X156697367Y-67100828D02*
X157197367Y-67100828D01*
X157197367Y-67100828D02*
X157340225Y-67172257D01*
X157340225Y-67172257D02*
X157411653Y-67243685D01*
X157411653Y-67243685D02*
X157483082Y-67386542D01*
X157483082Y-67386542D02*
X157483082Y-67529400D01*
X157483082Y-67529400D02*
X157411653Y-67672257D01*
X157411653Y-67672257D02*
X157340225Y-67743685D01*
X157340225Y-67743685D02*
X157197367Y-67815114D01*
X157197367Y-67815114D02*
X156697367Y-67815114D01*
X158483082Y-67886542D02*
X158483082Y-68600828D01*
X157983082Y-67100828D02*
X158483082Y-67886542D01*
X158483082Y-67886542D02*
X158983082Y-67100828D01*
X159483081Y-68029400D02*
X160625939Y-68029400D01*
X161268796Y-68529400D02*
X161483082Y-68600828D01*
X161483082Y-68600828D02*
X161840224Y-68600828D01*
X161840224Y-68600828D02*
X161983082Y-68529400D01*
X161983082Y-68529400D02*
X162054510Y-68457971D01*
X162054510Y-68457971D02*
X162125939Y-68315114D01*
X162125939Y-68315114D02*
X162125939Y-68172257D01*
X162125939Y-68172257D02*
X162054510Y-68029400D01*
X162054510Y-68029400D02*
X161983082Y-67957971D01*
X161983082Y-67957971D02*
X161840224Y-67886542D01*
X161840224Y-67886542D02*
X161554510Y-67815114D01*
X161554510Y-67815114D02*
X161411653Y-67743685D01*
X161411653Y-67743685D02*
X161340224Y-67672257D01*
X161340224Y-67672257D02*
X161268796Y-67529400D01*
X161268796Y-67529400D02*
X161268796Y-67386542D01*
X161268796Y-67386542D02*
X161340224Y-67243685D01*
X161340224Y-67243685D02*
X161411653Y-67172257D01*
X161411653Y-67172257D02*
X161554510Y-67100828D01*
X161554510Y-67100828D02*
X161911653Y-67100828D01*
X161911653Y-67100828D02*
X162125939Y-67172257D01*
X162697367Y-68172257D02*
X163411653Y-68172257D01*
X162554510Y-68600828D02*
X163054510Y-67100828D01*
X163054510Y-67100828D02*
X163554510Y-68600828D01*
X165840224Y-67600828D02*
X165840224Y-68600828D01*
X165483081Y-67029400D02*
X165125938Y-68100828D01*
X165125938Y-68100828D02*
X166054509Y-68100828D01*
X166625937Y-68457971D02*
X166697366Y-68529400D01*
X166697366Y-68529400D02*
X166625937Y-68600828D01*
X166625937Y-68600828D02*
X166554509Y-68529400D01*
X166554509Y-68529400D02*
X166625937Y-68457971D01*
X166625937Y-68457971D02*
X166625937Y-68600828D01*
X167625938Y-67100828D02*
X167768795Y-67100828D01*
X167768795Y-67100828D02*
X167911652Y-67172257D01*
X167911652Y-67172257D02*
X167983081Y-67243685D01*
X167983081Y-67243685D02*
X168054509Y-67386542D01*
X168054509Y-67386542D02*
X168125938Y-67672257D01*
X168125938Y-67672257D02*
X168125938Y-68029400D01*
X168125938Y-68029400D02*
X168054509Y-68315114D01*
X168054509Y-68315114D02*
X167983081Y-68457971D01*
X167983081Y-68457971D02*
X167911652Y-68529400D01*
X167911652Y-68529400D02*
X167768795Y-68600828D01*
X167768795Y-68600828D02*
X167625938Y-68600828D01*
X167625938Y-68600828D02*
X167483081Y-68529400D01*
X167483081Y-68529400D02*
X167411652Y-68457971D01*
X167411652Y-68457971D02*
X167340223Y-68315114D01*
X167340223Y-68315114D02*
X167268795Y-68029400D01*
X167268795Y-68029400D02*
X167268795Y-67672257D01*
X167268795Y-67672257D02*
X167340223Y-67386542D01*
X167340223Y-67386542D02*
X167411652Y-67243685D01*
X167411652Y-67243685D02*
X167483081Y-67172257D01*
X167483081Y-67172257D02*
X167625938Y-67100828D01*
X121140225Y-144285912D02*
X121640225Y-145785912D01*
X121640225Y-145785912D02*
X122140225Y-144285912D01*
X123283082Y-145785912D02*
X123283082Y-145000198D01*
X123283082Y-145000198D02*
X123211653Y-144857341D01*
X123211653Y-144857341D02*
X123068796Y-144785912D01*
X123068796Y-144785912D02*
X122783082Y-144785912D01*
X122783082Y-144785912D02*
X122640224Y-144857341D01*
X123283082Y-145714484D02*
X123140224Y-145785912D01*
X123140224Y-145785912D02*
X122783082Y-145785912D01*
X122783082Y-145785912D02*
X122640224Y-145714484D01*
X122640224Y-145714484D02*
X122568796Y-145571626D01*
X122568796Y-145571626D02*
X122568796Y-145428769D01*
X122568796Y-145428769D02*
X122640224Y-145285912D01*
X122640224Y-145285912D02*
X122783082Y-145214484D01*
X122783082Y-145214484D02*
X123140224Y-145214484D01*
X123140224Y-145214484D02*
X123283082Y-145143055D01*
X124211653Y-145785912D02*
X124068796Y-145714484D01*
X124068796Y-145714484D02*
X123997367Y-145571626D01*
X123997367Y-145571626D02*
X123997367Y-144285912D01*
X124783081Y-145785912D02*
X124783081Y-144785912D01*
X124783081Y-144285912D02*
X124711653Y-144357341D01*
X124711653Y-144357341D02*
X124783081Y-144428769D01*
X124783081Y-144428769D02*
X124854510Y-144357341D01*
X124854510Y-144357341D02*
X124783081Y-144285912D01*
X124783081Y-144285912D02*
X124783081Y-144428769D01*
X126140225Y-145785912D02*
X126140225Y-145000198D01*
X126140225Y-145000198D02*
X126068796Y-144857341D01*
X126068796Y-144857341D02*
X125925939Y-144785912D01*
X125925939Y-144785912D02*
X125640225Y-144785912D01*
X125640225Y-144785912D02*
X125497367Y-144857341D01*
X126140225Y-145714484D02*
X125997367Y-145785912D01*
X125997367Y-145785912D02*
X125640225Y-145785912D01*
X125640225Y-145785912D02*
X125497367Y-145714484D01*
X125497367Y-145714484D02*
X125425939Y-145571626D01*
X125425939Y-145571626D02*
X125425939Y-145428769D01*
X125425939Y-145428769D02*
X125497367Y-145285912D01*
X125497367Y-145285912D02*
X125640225Y-145214484D01*
X125640225Y-145214484D02*
X125997367Y-145214484D01*
X125997367Y-145214484D02*
X126140225Y-145143055D01*
X126854510Y-144785912D02*
X126854510Y-145785912D01*
X126854510Y-144928769D02*
X126925939Y-144857341D01*
X126925939Y-144857341D02*
X127068796Y-144785912D01*
X127068796Y-144785912D02*
X127283082Y-144785912D01*
X127283082Y-144785912D02*
X127425939Y-144857341D01*
X127425939Y-144857341D02*
X127497368Y-145000198D01*
X127497368Y-145000198D02*
X127497368Y-145785912D01*
X127997368Y-144785912D02*
X128568796Y-144785912D01*
X128211653Y-144285912D02*
X128211653Y-145571626D01*
X128211653Y-145571626D02*
X128283082Y-145714484D01*
X128283082Y-145714484D02*
X128425939Y-145785912D01*
X128425939Y-145785912D02*
X128568796Y-145785912D01*
X129997368Y-144285912D02*
X130854511Y-144285912D01*
X130425939Y-145785912D02*
X130425939Y-144285912D01*
X131997368Y-144785912D02*
X131997368Y-145785912D01*
X131354510Y-144785912D02*
X131354510Y-145571626D01*
X131354510Y-145571626D02*
X131425939Y-145714484D01*
X131425939Y-145714484D02*
X131568796Y-145785912D01*
X131568796Y-145785912D02*
X131783082Y-145785912D01*
X131783082Y-145785912D02*
X131925939Y-145714484D01*
X131925939Y-145714484D02*
X131997368Y-145643055D01*
X132711653Y-145785912D02*
X132711653Y-144785912D01*
X132711653Y-145071626D02*
X132783082Y-144928769D01*
X132783082Y-144928769D02*
X132854511Y-144857341D01*
X132854511Y-144857341D02*
X132997368Y-144785912D01*
X132997368Y-144785912D02*
X133140225Y-144785912D01*
X133425939Y-144785912D02*
X133997367Y-144785912D01*
X133640224Y-144285912D02*
X133640224Y-145571626D01*
X133640224Y-145571626D02*
X133711653Y-145714484D01*
X133711653Y-145714484D02*
X133854510Y-145785912D01*
X133854510Y-145785912D02*
X133997367Y-145785912D01*
X134711653Y-145785912D02*
X134568796Y-145714484D01*
X134568796Y-145714484D02*
X134497367Y-145571626D01*
X134497367Y-145571626D02*
X134497367Y-144285912D01*
X135854510Y-145714484D02*
X135711653Y-145785912D01*
X135711653Y-145785912D02*
X135425939Y-145785912D01*
X135425939Y-145785912D02*
X135283081Y-145714484D01*
X135283081Y-145714484D02*
X135211653Y-145571626D01*
X135211653Y-145571626D02*
X135211653Y-145000198D01*
X135211653Y-145000198D02*
X135283081Y-144857341D01*
X135283081Y-144857341D02*
X135425939Y-144785912D01*
X135425939Y-144785912D02*
X135711653Y-144785912D01*
X135711653Y-144785912D02*
X135854510Y-144857341D01*
X135854510Y-144857341D02*
X135925939Y-145000198D01*
X135925939Y-145000198D02*
X135925939Y-145143055D01*
X135925939Y-145143055D02*
X135211653Y-145285912D01*
X137640224Y-144428769D02*
X137711652Y-144357341D01*
X137711652Y-144357341D02*
X137854510Y-144285912D01*
X137854510Y-144285912D02*
X138211652Y-144285912D01*
X138211652Y-144285912D02*
X138354510Y-144357341D01*
X138354510Y-144357341D02*
X138425938Y-144428769D01*
X138425938Y-144428769D02*
X138497367Y-144571626D01*
X138497367Y-144571626D02*
X138497367Y-144714484D01*
X138497367Y-144714484D02*
X138425938Y-144928769D01*
X138425938Y-144928769D02*
X137568795Y-145785912D01*
X137568795Y-145785912D02*
X138497367Y-145785912D01*
X140283080Y-145214484D02*
X141425938Y-145214484D01*
X144140223Y-145643055D02*
X144068795Y-145714484D01*
X144068795Y-145714484D02*
X143854509Y-145785912D01*
X143854509Y-145785912D02*
X143711652Y-145785912D01*
X143711652Y-145785912D02*
X143497366Y-145714484D01*
X143497366Y-145714484D02*
X143354509Y-145571626D01*
X143354509Y-145571626D02*
X143283080Y-145428769D01*
X143283080Y-145428769D02*
X143211652Y-145143055D01*
X143211652Y-145143055D02*
X143211652Y-144928769D01*
X143211652Y-144928769D02*
X143283080Y-144643055D01*
X143283080Y-144643055D02*
X143354509Y-144500198D01*
X143354509Y-144500198D02*
X143497366Y-144357341D01*
X143497366Y-144357341D02*
X143711652Y-144285912D01*
X143711652Y-144285912D02*
X143854509Y-144285912D01*
X143854509Y-144285912D02*
X144068795Y-144357341D01*
X144068795Y-144357341D02*
X144140223Y-144428769D01*
X144997366Y-145785912D02*
X144854509Y-145714484D01*
X144854509Y-145714484D02*
X144783080Y-145643055D01*
X144783080Y-145643055D02*
X144711652Y-145500198D01*
X144711652Y-145500198D02*
X144711652Y-145071626D01*
X144711652Y-145071626D02*
X144783080Y-144928769D01*
X144783080Y-144928769D02*
X144854509Y-144857341D01*
X144854509Y-144857341D02*
X144997366Y-144785912D01*
X144997366Y-144785912D02*
X145211652Y-144785912D01*
X145211652Y-144785912D02*
X145354509Y-144857341D01*
X145354509Y-144857341D02*
X145425938Y-144928769D01*
X145425938Y-144928769D02*
X145497366Y-145071626D01*
X145497366Y-145071626D02*
X145497366Y-145500198D01*
X145497366Y-145500198D02*
X145425938Y-145643055D01*
X145425938Y-145643055D02*
X145354509Y-145714484D01*
X145354509Y-145714484D02*
X145211652Y-145785912D01*
X145211652Y-145785912D02*
X144997366Y-145785912D01*
X146140223Y-145785912D02*
X146140223Y-144785912D01*
X146140223Y-144928769D02*
X146211652Y-144857341D01*
X146211652Y-144857341D02*
X146354509Y-144785912D01*
X146354509Y-144785912D02*
X146568795Y-144785912D01*
X146568795Y-144785912D02*
X146711652Y-144857341D01*
X146711652Y-144857341D02*
X146783081Y-145000198D01*
X146783081Y-145000198D02*
X146783081Y-145785912D01*
X146783081Y-145000198D02*
X146854509Y-144857341D01*
X146854509Y-144857341D02*
X146997366Y-144785912D01*
X146997366Y-144785912D02*
X147211652Y-144785912D01*
X147211652Y-144785912D02*
X147354509Y-144857341D01*
X147354509Y-144857341D02*
X147425938Y-145000198D01*
X147425938Y-145000198D02*
X147425938Y-145785912D01*
X148140223Y-145785912D02*
X148140223Y-144785912D01*
X148140223Y-144928769D02*
X148211652Y-144857341D01*
X148211652Y-144857341D02*
X148354509Y-144785912D01*
X148354509Y-144785912D02*
X148568795Y-144785912D01*
X148568795Y-144785912D02*
X148711652Y-144857341D01*
X148711652Y-144857341D02*
X148783081Y-145000198D01*
X148783081Y-145000198D02*
X148783081Y-145785912D01*
X148783081Y-145000198D02*
X148854509Y-144857341D01*
X148854509Y-144857341D02*
X148997366Y-144785912D01*
X148997366Y-144785912D02*
X149211652Y-144785912D01*
X149211652Y-144785912D02*
X149354509Y-144857341D01*
X149354509Y-144857341D02*
X149425938Y-145000198D01*
X149425938Y-145000198D02*
X149425938Y-145785912D01*
X150783081Y-144785912D02*
X150783081Y-145785912D01*
X150140223Y-144785912D02*
X150140223Y-145571626D01*
X150140223Y-145571626D02*
X150211652Y-145714484D01*
X150211652Y-145714484D02*
X150354509Y-145785912D01*
X150354509Y-145785912D02*
X150568795Y-145785912D01*
X150568795Y-145785912D02*
X150711652Y-145714484D01*
X150711652Y-145714484D02*
X150783081Y-145643055D01*
X151497366Y-144785912D02*
X151497366Y-145785912D01*
X151497366Y-144928769D02*
X151568795Y-144857341D01*
X151568795Y-144857341D02*
X151711652Y-144785912D01*
X151711652Y-144785912D02*
X151925938Y-144785912D01*
X151925938Y-144785912D02*
X152068795Y-144857341D01*
X152068795Y-144857341D02*
X152140224Y-145000198D01*
X152140224Y-145000198D02*
X152140224Y-145785912D01*
X152854509Y-145785912D02*
X152854509Y-144785912D01*
X152854509Y-144285912D02*
X152783081Y-144357341D01*
X152783081Y-144357341D02*
X152854509Y-144428769D01*
X152854509Y-144428769D02*
X152925938Y-144357341D01*
X152925938Y-144357341D02*
X152854509Y-144285912D01*
X152854509Y-144285912D02*
X152854509Y-144428769D01*
X154211653Y-145714484D02*
X154068795Y-145785912D01*
X154068795Y-145785912D02*
X153783081Y-145785912D01*
X153783081Y-145785912D02*
X153640224Y-145714484D01*
X153640224Y-145714484D02*
X153568795Y-145643055D01*
X153568795Y-145643055D02*
X153497367Y-145500198D01*
X153497367Y-145500198D02*
X153497367Y-145071626D01*
X153497367Y-145071626D02*
X153568795Y-144928769D01*
X153568795Y-144928769D02*
X153640224Y-144857341D01*
X153640224Y-144857341D02*
X153783081Y-144785912D01*
X153783081Y-144785912D02*
X154068795Y-144785912D01*
X154068795Y-144785912D02*
X154211653Y-144857341D01*
X155497367Y-145785912D02*
X155497367Y-145000198D01*
X155497367Y-145000198D02*
X155425938Y-144857341D01*
X155425938Y-144857341D02*
X155283081Y-144785912D01*
X155283081Y-144785912D02*
X154997367Y-144785912D01*
X154997367Y-144785912D02*
X154854509Y-144857341D01*
X155497367Y-145714484D02*
X155354509Y-145785912D01*
X155354509Y-145785912D02*
X154997367Y-145785912D01*
X154997367Y-145785912D02*
X154854509Y-145714484D01*
X154854509Y-145714484D02*
X154783081Y-145571626D01*
X154783081Y-145571626D02*
X154783081Y-145428769D01*
X154783081Y-145428769D02*
X154854509Y-145285912D01*
X154854509Y-145285912D02*
X154997367Y-145214484D01*
X154997367Y-145214484D02*
X155354509Y-145214484D01*
X155354509Y-145214484D02*
X155497367Y-145143055D01*
X155997367Y-144785912D02*
X156568795Y-144785912D01*
X156211652Y-144285912D02*
X156211652Y-145571626D01*
X156211652Y-145571626D02*
X156283081Y-145714484D01*
X156283081Y-145714484D02*
X156425938Y-145785912D01*
X156425938Y-145785912D02*
X156568795Y-145785912D01*
X157283081Y-145785912D02*
X157140224Y-145714484D01*
X157140224Y-145714484D02*
X157068795Y-145643055D01*
X157068795Y-145643055D02*
X156997367Y-145500198D01*
X156997367Y-145500198D02*
X156997367Y-145071626D01*
X156997367Y-145071626D02*
X157068795Y-144928769D01*
X157068795Y-144928769D02*
X157140224Y-144857341D01*
X157140224Y-144857341D02*
X157283081Y-144785912D01*
X157283081Y-144785912D02*
X157497367Y-144785912D01*
X157497367Y-144785912D02*
X157640224Y-144857341D01*
X157640224Y-144857341D02*
X157711653Y-144928769D01*
X157711653Y-144928769D02*
X157783081Y-145071626D01*
X157783081Y-145071626D02*
X157783081Y-145500198D01*
X157783081Y-145500198D02*
X157711653Y-145643055D01*
X157711653Y-145643055D02*
X157640224Y-145714484D01*
X157640224Y-145714484D02*
X157497367Y-145785912D01*
X157497367Y-145785912D02*
X157283081Y-145785912D01*
X158425938Y-145785912D02*
X158425938Y-144785912D01*
X158425938Y-145071626D02*
X158497367Y-144928769D01*
X158497367Y-144928769D02*
X158568796Y-144857341D01*
X158568796Y-144857341D02*
X158711653Y-144785912D01*
X158711653Y-144785912D02*
X158854510Y-144785912D01*
X121783082Y-148772257D02*
X121711653Y-148700828D01*
X121711653Y-148700828D02*
X121568796Y-148486542D01*
X121568796Y-148486542D02*
X121497368Y-148343685D01*
X121497368Y-148343685D02*
X121425939Y-148129400D01*
X121425939Y-148129400D02*
X121354510Y-147772257D01*
X121354510Y-147772257D02*
X121354510Y-147486542D01*
X121354510Y-147486542D02*
X121425939Y-147129400D01*
X121425939Y-147129400D02*
X121497368Y-146915114D01*
X121497368Y-146915114D02*
X121568796Y-146772257D01*
X121568796Y-146772257D02*
X121711653Y-146557971D01*
X121711653Y-146557971D02*
X121783082Y-146486542D01*
X122997368Y-148129400D02*
X122854510Y-148200828D01*
X122854510Y-148200828D02*
X122568796Y-148200828D01*
X122568796Y-148200828D02*
X122425939Y-148129400D01*
X122425939Y-148129400D02*
X122354510Y-148057971D01*
X122354510Y-148057971D02*
X122283082Y-147915114D01*
X122283082Y-147915114D02*
X122283082Y-147486542D01*
X122283082Y-147486542D02*
X122354510Y-147343685D01*
X122354510Y-147343685D02*
X122425939Y-147272257D01*
X122425939Y-147272257D02*
X122568796Y-147200828D01*
X122568796Y-147200828D02*
X122854510Y-147200828D01*
X122854510Y-147200828D02*
X122997368Y-147272257D01*
X123497367Y-148772257D02*
X123568796Y-148700828D01*
X123568796Y-148700828D02*
X123711653Y-148486542D01*
X123711653Y-148486542D02*
X123783082Y-148343685D01*
X123783082Y-148343685D02*
X123854510Y-148129400D01*
X123854510Y-148129400D02*
X123925939Y-147772257D01*
X123925939Y-147772257D02*
X123925939Y-147486542D01*
X123925939Y-147486542D02*
X123854510Y-147129400D01*
X123854510Y-147129400D02*
X123783082Y-146915114D01*
X123783082Y-146915114D02*
X123711653Y-146772257D01*
X123711653Y-146772257D02*
X123568796Y-146557971D01*
X123568796Y-146557971D02*
X123497367Y-146486542D01*
X125711653Y-146843685D02*
X125783081Y-146772257D01*
X125783081Y-146772257D02*
X125925939Y-146700828D01*
X125925939Y-146700828D02*
X126283081Y-146700828D01*
X126283081Y-146700828D02*
X126425939Y-146772257D01*
X126425939Y-146772257D02*
X126497367Y-146843685D01*
X126497367Y-146843685D02*
X126568796Y-146986542D01*
X126568796Y-146986542D02*
X126568796Y-147129400D01*
X126568796Y-147129400D02*
X126497367Y-147343685D01*
X126497367Y-147343685D02*
X125640224Y-148200828D01*
X125640224Y-148200828D02*
X126568796Y-148200828D01*
X127497367Y-146700828D02*
X127640224Y-146700828D01*
X127640224Y-146700828D02*
X127783081Y-146772257D01*
X127783081Y-146772257D02*
X127854510Y-146843685D01*
X127854510Y-146843685D02*
X127925938Y-146986542D01*
X127925938Y-146986542D02*
X127997367Y-147272257D01*
X127997367Y-147272257D02*
X127997367Y-147629400D01*
X127997367Y-147629400D02*
X127925938Y-147915114D01*
X127925938Y-147915114D02*
X127854510Y-148057971D01*
X127854510Y-148057971D02*
X127783081Y-148129400D01*
X127783081Y-148129400D02*
X127640224Y-148200828D01*
X127640224Y-148200828D02*
X127497367Y-148200828D01*
X127497367Y-148200828D02*
X127354510Y-148129400D01*
X127354510Y-148129400D02*
X127283081Y-148057971D01*
X127283081Y-148057971D02*
X127211652Y-147915114D01*
X127211652Y-147915114D02*
X127140224Y-147629400D01*
X127140224Y-147629400D02*
X127140224Y-147272257D01*
X127140224Y-147272257D02*
X127211652Y-146986542D01*
X127211652Y-146986542D02*
X127283081Y-146843685D01*
X127283081Y-146843685D02*
X127354510Y-146772257D01*
X127354510Y-146772257D02*
X127497367Y-146700828D01*
X128568795Y-146843685D02*
X128640223Y-146772257D01*
X128640223Y-146772257D02*
X128783081Y-146700828D01*
X128783081Y-146700828D02*
X129140223Y-146700828D01*
X129140223Y-146700828D02*
X129283081Y-146772257D01*
X129283081Y-146772257D02*
X129354509Y-146843685D01*
X129354509Y-146843685D02*
X129425938Y-146986542D01*
X129425938Y-146986542D02*
X129425938Y-147129400D01*
X129425938Y-147129400D02*
X129354509Y-147343685D01*
X129354509Y-147343685D02*
X128497366Y-148200828D01*
X128497366Y-148200828D02*
X129425938Y-148200828D01*
X130711652Y-147200828D02*
X130711652Y-148200828D01*
X130354509Y-146629400D02*
X129997366Y-147700828D01*
X129997366Y-147700828D02*
X130925937Y-147700828D01*
X132568794Y-148129400D02*
X132783080Y-148200828D01*
X132783080Y-148200828D02*
X133140222Y-148200828D01*
X133140222Y-148200828D02*
X133283080Y-148129400D01*
X133283080Y-148129400D02*
X133354508Y-148057971D01*
X133354508Y-148057971D02*
X133425937Y-147915114D01*
X133425937Y-147915114D02*
X133425937Y-147772257D01*
X133425937Y-147772257D02*
X133354508Y-147629400D01*
X133354508Y-147629400D02*
X133283080Y-147557971D01*
X133283080Y-147557971D02*
X133140222Y-147486542D01*
X133140222Y-147486542D02*
X132854508Y-147415114D01*
X132854508Y-147415114D02*
X132711651Y-147343685D01*
X132711651Y-147343685D02*
X132640222Y-147272257D01*
X132640222Y-147272257D02*
X132568794Y-147129400D01*
X132568794Y-147129400D02*
X132568794Y-146986542D01*
X132568794Y-146986542D02*
X132640222Y-146843685D01*
X132640222Y-146843685D02*
X132711651Y-146772257D01*
X132711651Y-146772257D02*
X132854508Y-146700828D01*
X132854508Y-146700828D02*
X133211651Y-146700828D01*
X133211651Y-146700828D02*
X133425937Y-146772257D01*
X134068793Y-148200828D02*
X134068793Y-147200828D01*
X134068793Y-146700828D02*
X133997365Y-146772257D01*
X133997365Y-146772257D02*
X134068793Y-146843685D01*
X134068793Y-146843685D02*
X134140222Y-146772257D01*
X134140222Y-146772257D02*
X134068793Y-146700828D01*
X134068793Y-146700828D02*
X134068793Y-146843685D01*
X134783079Y-148200828D02*
X134783079Y-147200828D01*
X134783079Y-147343685D02*
X134854508Y-147272257D01*
X134854508Y-147272257D02*
X134997365Y-147200828D01*
X134997365Y-147200828D02*
X135211651Y-147200828D01*
X135211651Y-147200828D02*
X135354508Y-147272257D01*
X135354508Y-147272257D02*
X135425937Y-147415114D01*
X135425937Y-147415114D02*
X135425937Y-148200828D01*
X135425937Y-147415114D02*
X135497365Y-147272257D01*
X135497365Y-147272257D02*
X135640222Y-147200828D01*
X135640222Y-147200828D02*
X135854508Y-147200828D01*
X135854508Y-147200828D02*
X135997365Y-147272257D01*
X135997365Y-147272257D02*
X136068794Y-147415114D01*
X136068794Y-147415114D02*
X136068794Y-148200828D01*
X136997365Y-148200828D02*
X136854508Y-148129400D01*
X136854508Y-148129400D02*
X136783079Y-148057971D01*
X136783079Y-148057971D02*
X136711651Y-147915114D01*
X136711651Y-147915114D02*
X136711651Y-147486542D01*
X136711651Y-147486542D02*
X136783079Y-147343685D01*
X136783079Y-147343685D02*
X136854508Y-147272257D01*
X136854508Y-147272257D02*
X136997365Y-147200828D01*
X136997365Y-147200828D02*
X137211651Y-147200828D01*
X137211651Y-147200828D02*
X137354508Y-147272257D01*
X137354508Y-147272257D02*
X137425937Y-147343685D01*
X137425937Y-147343685D02*
X137497365Y-147486542D01*
X137497365Y-147486542D02*
X137497365Y-147915114D01*
X137497365Y-147915114D02*
X137425937Y-148057971D01*
X137425937Y-148057971D02*
X137354508Y-148129400D01*
X137354508Y-148129400D02*
X137211651Y-148200828D01*
X137211651Y-148200828D02*
X136997365Y-148200828D01*
X138140222Y-147200828D02*
X138140222Y-148200828D01*
X138140222Y-147343685D02*
X138211651Y-147272257D01*
X138211651Y-147272257D02*
X138354508Y-147200828D01*
X138354508Y-147200828D02*
X138568794Y-147200828D01*
X138568794Y-147200828D02*
X138711651Y-147272257D01*
X138711651Y-147272257D02*
X138783080Y-147415114D01*
X138783080Y-147415114D02*
X138783080Y-148200828D01*
X140640222Y-148200828D02*
X140640222Y-146700828D01*
X141354508Y-147200828D02*
X141354508Y-148200828D01*
X141354508Y-147343685D02*
X141425937Y-147272257D01*
X141425937Y-147272257D02*
X141568794Y-147200828D01*
X141568794Y-147200828D02*
X141783080Y-147200828D01*
X141783080Y-147200828D02*
X141925937Y-147272257D01*
X141925937Y-147272257D02*
X141997366Y-147415114D01*
X141997366Y-147415114D02*
X141997366Y-148200828D01*
X142711651Y-147200828D02*
X142711651Y-148200828D01*
X142711651Y-147343685D02*
X142783080Y-147272257D01*
X142783080Y-147272257D02*
X142925937Y-147200828D01*
X142925937Y-147200828D02*
X143140223Y-147200828D01*
X143140223Y-147200828D02*
X143283080Y-147272257D01*
X143283080Y-147272257D02*
X143354509Y-147415114D01*
X143354509Y-147415114D02*
X143354509Y-148200828D01*
X143997366Y-148129400D02*
X144140223Y-148200828D01*
X144140223Y-148200828D02*
X144425937Y-148200828D01*
X144425937Y-148200828D02*
X144568794Y-148129400D01*
X144568794Y-148129400D02*
X144640223Y-147986542D01*
X144640223Y-147986542D02*
X144640223Y-147915114D01*
X144640223Y-147915114D02*
X144568794Y-147772257D01*
X144568794Y-147772257D02*
X144425937Y-147700828D01*
X144425937Y-147700828D02*
X144211652Y-147700828D01*
X144211652Y-147700828D02*
X144068794Y-147629400D01*
X144068794Y-147629400D02*
X143997366Y-147486542D01*
X143997366Y-147486542D02*
X143997366Y-147415114D01*
X143997366Y-147415114D02*
X144068794Y-147272257D01*
X144068794Y-147272257D02*
X144211652Y-147200828D01*
X144211652Y-147200828D02*
X144425937Y-147200828D01*
X144425937Y-147200828D02*
X144568794Y-147272257D01*
D13*
X125454819Y-87366666D02*
X124978628Y-87699999D01*
X125454819Y-87938094D02*
X124454819Y-87938094D01*
X124454819Y-87938094D02*
X124454819Y-87557142D01*
X124454819Y-87557142D02*
X124502438Y-87461904D01*
X124502438Y-87461904D02*
X124550057Y-87414285D01*
X124550057Y-87414285D02*
X124645295Y-87366666D01*
X124645295Y-87366666D02*
X124788152Y-87366666D01*
X124788152Y-87366666D02*
X124883390Y-87414285D01*
X124883390Y-87414285D02*
X124931009Y-87461904D01*
X124931009Y-87461904D02*
X124978628Y-87557142D01*
X124978628Y-87557142D02*
X124978628Y-87938094D01*
X124454819Y-87033332D02*
X124454819Y-86366666D01*
X124454819Y-86366666D02*
X125454819Y-86795237D01*
X166633333Y-71654819D02*
X166300000Y-71178628D01*
X166061905Y-71654819D02*
X166061905Y-70654819D01*
X166061905Y-70654819D02*
X166442857Y-70654819D01*
X166442857Y-70654819D02*
X166538095Y-70702438D01*
X166538095Y-70702438D02*
X166585714Y-70750057D01*
X166585714Y-70750057D02*
X166633333Y-70845295D01*
X166633333Y-70845295D02*
X166633333Y-70988152D01*
X166633333Y-70988152D02*
X166585714Y-71083390D01*
X166585714Y-71083390D02*
X166538095Y-71131009D01*
X166538095Y-71131009D02*
X166442857Y-71178628D01*
X166442857Y-71178628D02*
X166061905Y-71178628D01*
X167585714Y-71654819D02*
X167014286Y-71654819D01*
X167300000Y-71654819D02*
X167300000Y-70654819D01*
X167300000Y-70654819D02*
X167204762Y-70797676D01*
X167204762Y-70797676D02*
X167109524Y-70892914D01*
X167109524Y-70892914D02*
X167014286Y-70940533D01*
X112414819Y-82218094D02*
X111414819Y-82218094D01*
X111414819Y-82218094D02*
X111414819Y-81979999D01*
X111414819Y-81979999D02*
X111462438Y-81837142D01*
X111462438Y-81837142D02*
X111557676Y-81741904D01*
X111557676Y-81741904D02*
X111652914Y-81694285D01*
X111652914Y-81694285D02*
X111843390Y-81646666D01*
X111843390Y-81646666D02*
X111986247Y-81646666D01*
X111986247Y-81646666D02*
X112176723Y-81694285D01*
X112176723Y-81694285D02*
X112271961Y-81741904D01*
X112271961Y-81741904D02*
X112367200Y-81837142D01*
X112367200Y-81837142D02*
X112414819Y-81979999D01*
X112414819Y-81979999D02*
X112414819Y-82218094D01*
X112414819Y-80694285D02*
X112414819Y-81265713D01*
X112414819Y-80979999D02*
X111414819Y-80979999D01*
X111414819Y-80979999D02*
X111557676Y-81075237D01*
X111557676Y-81075237D02*
X111652914Y-81170475D01*
X111652914Y-81170475D02*
X111700533Y-81265713D01*
X162866666Y-64254819D02*
X162866666Y-64969104D01*
X162866666Y-64969104D02*
X162819047Y-65111961D01*
X162819047Y-65111961D02*
X162723809Y-65207200D01*
X162723809Y-65207200D02*
X162580952Y-65254819D01*
X162580952Y-65254819D02*
X162485714Y-65254819D01*
X163819047Y-64254819D02*
X163342857Y-64254819D01*
X163342857Y-64254819D02*
X163295238Y-64731009D01*
X163295238Y-64731009D02*
X163342857Y-64683390D01*
X163342857Y-64683390D02*
X163438095Y-64635771D01*
X163438095Y-64635771D02*
X163676190Y-64635771D01*
X163676190Y-64635771D02*
X163771428Y-64683390D01*
X163771428Y-64683390D02*
X163819047Y-64731009D01*
X163819047Y-64731009D02*
X163866666Y-64826247D01*
X163866666Y-64826247D02*
X163866666Y-65064342D01*
X163866666Y-65064342D02*
X163819047Y-65159580D01*
X163819047Y-65159580D02*
X163771428Y-65207200D01*
X163771428Y-65207200D02*
X163676190Y-65254819D01*
X163676190Y-65254819D02*
X163438095Y-65254819D01*
X163438095Y-65254819D02*
X163342857Y-65207200D01*
X163342857Y-65207200D02*
X163295238Y-65159580D01*
X148066666Y-105054819D02*
X148066666Y-105769104D01*
X148066666Y-105769104D02*
X148019047Y-105911961D01*
X148019047Y-105911961D02*
X147923809Y-106007200D01*
X147923809Y-106007200D02*
X147780952Y-106054819D01*
X147780952Y-106054819D02*
X147685714Y-106054819D01*
X148495238Y-105150057D02*
X148542857Y-105102438D01*
X148542857Y-105102438D02*
X148638095Y-105054819D01*
X148638095Y-105054819D02*
X148876190Y-105054819D01*
X148876190Y-105054819D02*
X148971428Y-105102438D01*
X148971428Y-105102438D02*
X149019047Y-105150057D01*
X149019047Y-105150057D02*
X149066666Y-105245295D01*
X149066666Y-105245295D02*
X149066666Y-105340533D01*
X149066666Y-105340533D02*
X149019047Y-105483390D01*
X149019047Y-105483390D02*
X148447619Y-106054819D01*
X148447619Y-106054819D02*
X149066666Y-106054819D01*
X117333333Y-117054819D02*
X117000000Y-116578628D01*
X116761905Y-117054819D02*
X116761905Y-116054819D01*
X116761905Y-116054819D02*
X117142857Y-116054819D01*
X117142857Y-116054819D02*
X117238095Y-116102438D01*
X117238095Y-116102438D02*
X117285714Y-116150057D01*
X117285714Y-116150057D02*
X117333333Y-116245295D01*
X117333333Y-116245295D02*
X117333333Y-116388152D01*
X117333333Y-116388152D02*
X117285714Y-116483390D01*
X117285714Y-116483390D02*
X117238095Y-116531009D01*
X117238095Y-116531009D02*
X117142857Y-116578628D01*
X117142857Y-116578628D02*
X116761905Y-116578628D01*
X118190476Y-116388152D02*
X118190476Y-117054819D01*
X117952381Y-116007200D02*
X117714286Y-116721485D01*
X117714286Y-116721485D02*
X118333333Y-116721485D01*
X161700595Y-75804819D02*
X161700595Y-76614342D01*
X161700595Y-76614342D02*
X161748214Y-76709580D01*
X161748214Y-76709580D02*
X161795833Y-76757200D01*
X161795833Y-76757200D02*
X161891071Y-76804819D01*
X161891071Y-76804819D02*
X162081547Y-76804819D01*
X162081547Y-76804819D02*
X162176785Y-76757200D01*
X162176785Y-76757200D02*
X162224404Y-76709580D01*
X162224404Y-76709580D02*
X162272023Y-76614342D01*
X162272023Y-76614342D02*
X162272023Y-75804819D01*
X163272023Y-76804819D02*
X162700595Y-76804819D01*
X162986309Y-76804819D02*
X162986309Y-75804819D01*
X162986309Y-75804819D02*
X162891071Y-75947676D01*
X162891071Y-75947676D02*
X162795833Y-76042914D01*
X162795833Y-76042914D02*
X162700595Y-76090533D01*
X166838095Y-136079819D02*
X166838095Y-136889342D01*
X166838095Y-136889342D02*
X166885714Y-136984580D01*
X166885714Y-136984580D02*
X166933333Y-137032200D01*
X166933333Y-137032200D02*
X167028571Y-137079819D01*
X167028571Y-137079819D02*
X167219047Y-137079819D01*
X167219047Y-137079819D02*
X167314285Y-137032200D01*
X167314285Y-137032200D02*
X167361904Y-136984580D01*
X167361904Y-136984580D02*
X167409523Y-136889342D01*
X167409523Y-136889342D02*
X167409523Y-136079819D01*
X167790476Y-136079819D02*
X168409523Y-136079819D01*
X168409523Y-136079819D02*
X168076190Y-136460771D01*
X168076190Y-136460771D02*
X168219047Y-136460771D01*
X168219047Y-136460771D02*
X168314285Y-136508390D01*
X168314285Y-136508390D02*
X168361904Y-136556009D01*
X168361904Y-136556009D02*
X168409523Y-136651247D01*
X168409523Y-136651247D02*
X168409523Y-136889342D01*
X168409523Y-136889342D02*
X168361904Y-136984580D01*
X168361904Y-136984580D02*
X168314285Y-137032200D01*
X168314285Y-137032200D02*
X168219047Y-137079819D01*
X168219047Y-137079819D02*
X167933333Y-137079819D01*
X167933333Y-137079819D02*
X167838095Y-137032200D01*
X167838095Y-137032200D02*
X167790476Y-136984580D01*
X129200595Y-81354819D02*
X129200595Y-82164342D01*
X129200595Y-82164342D02*
X129248214Y-82259580D01*
X129248214Y-82259580D02*
X129295833Y-82307200D01*
X129295833Y-82307200D02*
X129391071Y-82354819D01*
X129391071Y-82354819D02*
X129581547Y-82354819D01*
X129581547Y-82354819D02*
X129676785Y-82307200D01*
X129676785Y-82307200D02*
X129724404Y-82259580D01*
X129724404Y-82259580D02*
X129772023Y-82164342D01*
X129772023Y-82164342D02*
X129772023Y-81354819D01*
X130200595Y-81450057D02*
X130248214Y-81402438D01*
X130248214Y-81402438D02*
X130343452Y-81354819D01*
X130343452Y-81354819D02*
X130581547Y-81354819D01*
X130581547Y-81354819D02*
X130676785Y-81402438D01*
X130676785Y-81402438D02*
X130724404Y-81450057D01*
X130724404Y-81450057D02*
X130772023Y-81545295D01*
X130772023Y-81545295D02*
X130772023Y-81640533D01*
X130772023Y-81640533D02*
X130724404Y-81783390D01*
X130724404Y-81783390D02*
X130152976Y-82354819D01*
X130152976Y-82354819D02*
X130772023Y-82354819D01*
X117333333Y-79054819D02*
X117000000Y-78578628D01*
X116761905Y-79054819D02*
X116761905Y-78054819D01*
X116761905Y-78054819D02*
X117142857Y-78054819D01*
X117142857Y-78054819D02*
X117238095Y-78102438D01*
X117238095Y-78102438D02*
X117285714Y-78150057D01*
X117285714Y-78150057D02*
X117333333Y-78245295D01*
X117333333Y-78245295D02*
X117333333Y-78388152D01*
X117333333Y-78388152D02*
X117285714Y-78483390D01*
X117285714Y-78483390D02*
X117238095Y-78531009D01*
X117238095Y-78531009D02*
X117142857Y-78578628D01*
X117142857Y-78578628D02*
X116761905Y-78578628D01*
X117666667Y-78054819D02*
X118285714Y-78054819D01*
X118285714Y-78054819D02*
X117952381Y-78435771D01*
X117952381Y-78435771D02*
X118095238Y-78435771D01*
X118095238Y-78435771D02*
X118190476Y-78483390D01*
X118190476Y-78483390D02*
X118238095Y-78531009D01*
X118238095Y-78531009D02*
X118285714Y-78626247D01*
X118285714Y-78626247D02*
X118285714Y-78864342D01*
X118285714Y-78864342D02*
X118238095Y-78959580D01*
X118238095Y-78959580D02*
X118190476Y-79007200D01*
X118190476Y-79007200D02*
X118095238Y-79054819D01*
X118095238Y-79054819D02*
X117809524Y-79054819D01*
X117809524Y-79054819D02*
X117714286Y-79007200D01*
X117714286Y-79007200D02*
X117666667Y-78959580D01*
X112414819Y-112758094D02*
X111414819Y-112758094D01*
X111414819Y-112758094D02*
X111414819Y-112519999D01*
X111414819Y-112519999D02*
X111462438Y-112377142D01*
X111462438Y-112377142D02*
X111557676Y-112281904D01*
X111557676Y-112281904D02*
X111652914Y-112234285D01*
X111652914Y-112234285D02*
X111843390Y-112186666D01*
X111843390Y-112186666D02*
X111986247Y-112186666D01*
X111986247Y-112186666D02*
X112176723Y-112234285D01*
X112176723Y-112234285D02*
X112271961Y-112281904D01*
X112271961Y-112281904D02*
X112367200Y-112377142D01*
X112367200Y-112377142D02*
X112414819Y-112519999D01*
X112414819Y-112519999D02*
X112414819Y-112758094D01*
X111414819Y-111329523D02*
X111414819Y-111519999D01*
X111414819Y-111519999D02*
X111462438Y-111615237D01*
X111462438Y-111615237D02*
X111510057Y-111662856D01*
X111510057Y-111662856D02*
X111652914Y-111758094D01*
X111652914Y-111758094D02*
X111843390Y-111805713D01*
X111843390Y-111805713D02*
X112224342Y-111805713D01*
X112224342Y-111805713D02*
X112319580Y-111758094D01*
X112319580Y-111758094D02*
X112367200Y-111710475D01*
X112367200Y-111710475D02*
X112414819Y-111615237D01*
X112414819Y-111615237D02*
X112414819Y-111424761D01*
X112414819Y-111424761D02*
X112367200Y-111329523D01*
X112367200Y-111329523D02*
X112319580Y-111281904D01*
X112319580Y-111281904D02*
X112224342Y-111234285D01*
X112224342Y-111234285D02*
X111986247Y-111234285D01*
X111986247Y-111234285D02*
X111891009Y-111281904D01*
X111891009Y-111281904D02*
X111843390Y-111329523D01*
X111843390Y-111329523D02*
X111795771Y-111424761D01*
X111795771Y-111424761D02*
X111795771Y-111615237D01*
X111795771Y-111615237D02*
X111843390Y-111710475D01*
X111843390Y-111710475D02*
X111891009Y-111758094D01*
X111891009Y-111758094D02*
X111986247Y-111805713D01*
X172604819Y-116842857D02*
X172128628Y-117176190D01*
X172604819Y-117414285D02*
X171604819Y-117414285D01*
X171604819Y-117414285D02*
X171604819Y-117033333D01*
X171604819Y-117033333D02*
X171652438Y-116938095D01*
X171652438Y-116938095D02*
X171700057Y-116890476D01*
X171700057Y-116890476D02*
X171795295Y-116842857D01*
X171795295Y-116842857D02*
X171938152Y-116842857D01*
X171938152Y-116842857D02*
X172033390Y-116890476D01*
X172033390Y-116890476D02*
X172081009Y-116938095D01*
X172081009Y-116938095D02*
X172128628Y-117033333D01*
X172128628Y-117033333D02*
X172128628Y-117414285D01*
X172604819Y-115890476D02*
X172604819Y-116461904D01*
X172604819Y-116176190D02*
X171604819Y-116176190D01*
X171604819Y-116176190D02*
X171747676Y-116271428D01*
X171747676Y-116271428D02*
X171842914Y-116366666D01*
X171842914Y-116366666D02*
X171890533Y-116461904D01*
X171604819Y-115557142D02*
X171604819Y-114890476D01*
X171604819Y-114890476D02*
X172604819Y-115319047D01*
D14*
X172165181Y-63259920D02*
X173253752Y-63259920D01*
X173253752Y-63259920D02*
X173471467Y-63332491D01*
X173471467Y-63332491D02*
X173616610Y-63477634D01*
X173616610Y-63477634D02*
X173689181Y-63695348D01*
X173689181Y-63695348D02*
X173689181Y-63840491D01*
X172673181Y-61881063D02*
X173689181Y-61881063D01*
X172092610Y-62243920D02*
X173181181Y-62606777D01*
X173181181Y-62606777D02*
X173181181Y-61663348D01*
D13*
X157879580Y-74166666D02*
X157927200Y-74214285D01*
X157927200Y-74214285D02*
X157974819Y-74357142D01*
X157974819Y-74357142D02*
X157974819Y-74452380D01*
X157974819Y-74452380D02*
X157927200Y-74595237D01*
X157927200Y-74595237D02*
X157831961Y-74690475D01*
X157831961Y-74690475D02*
X157736723Y-74738094D01*
X157736723Y-74738094D02*
X157546247Y-74785713D01*
X157546247Y-74785713D02*
X157403390Y-74785713D01*
X157403390Y-74785713D02*
X157212914Y-74738094D01*
X157212914Y-74738094D02*
X157117676Y-74690475D01*
X157117676Y-74690475D02*
X157022438Y-74595237D01*
X157022438Y-74595237D02*
X156974819Y-74452380D01*
X156974819Y-74452380D02*
X156974819Y-74357142D01*
X156974819Y-74357142D02*
X157022438Y-74214285D01*
X157022438Y-74214285D02*
X157070057Y-74166666D01*
X157974819Y-73214285D02*
X157974819Y-73785713D01*
X157974819Y-73499999D02*
X156974819Y-73499999D01*
X156974819Y-73499999D02*
X157117676Y-73595237D01*
X157117676Y-73595237D02*
X157212914Y-73690475D01*
X157212914Y-73690475D02*
X157260533Y-73785713D01*
X114504819Y-60166666D02*
X114028628Y-60499999D01*
X114504819Y-60738094D02*
X113504819Y-60738094D01*
X113504819Y-60738094D02*
X113504819Y-60357142D01*
X113504819Y-60357142D02*
X113552438Y-60261904D01*
X113552438Y-60261904D02*
X113600057Y-60214285D01*
X113600057Y-60214285D02*
X113695295Y-60166666D01*
X113695295Y-60166666D02*
X113838152Y-60166666D01*
X113838152Y-60166666D02*
X113933390Y-60214285D01*
X113933390Y-60214285D02*
X113981009Y-60261904D01*
X113981009Y-60261904D02*
X114028628Y-60357142D01*
X114028628Y-60357142D02*
X114028628Y-60738094D01*
X113504819Y-59309523D02*
X113504819Y-59499999D01*
X113504819Y-59499999D02*
X113552438Y-59595237D01*
X113552438Y-59595237D02*
X113600057Y-59642856D01*
X113600057Y-59642856D02*
X113742914Y-59738094D01*
X113742914Y-59738094D02*
X113933390Y-59785713D01*
X113933390Y-59785713D02*
X114314342Y-59785713D01*
X114314342Y-59785713D02*
X114409580Y-59738094D01*
X114409580Y-59738094D02*
X114457200Y-59690475D01*
X114457200Y-59690475D02*
X114504819Y-59595237D01*
X114504819Y-59595237D02*
X114504819Y-59404761D01*
X114504819Y-59404761D02*
X114457200Y-59309523D01*
X114457200Y-59309523D02*
X114409580Y-59261904D01*
X114409580Y-59261904D02*
X114314342Y-59214285D01*
X114314342Y-59214285D02*
X114076247Y-59214285D01*
X114076247Y-59214285D02*
X113981009Y-59261904D01*
X113981009Y-59261904D02*
X113933390Y-59309523D01*
X113933390Y-59309523D02*
X113885771Y-59404761D01*
X113885771Y-59404761D02*
X113885771Y-59595237D01*
X113885771Y-59595237D02*
X113933390Y-59690475D01*
X113933390Y-59690475D02*
X113981009Y-59738094D01*
X113981009Y-59738094D02*
X114076247Y-59785713D01*
X172604819Y-113092857D02*
X172128628Y-113426190D01*
X172604819Y-113664285D02*
X171604819Y-113664285D01*
X171604819Y-113664285D02*
X171604819Y-113283333D01*
X171604819Y-113283333D02*
X171652438Y-113188095D01*
X171652438Y-113188095D02*
X171700057Y-113140476D01*
X171700057Y-113140476D02*
X171795295Y-113092857D01*
X171795295Y-113092857D02*
X171938152Y-113092857D01*
X171938152Y-113092857D02*
X172033390Y-113140476D01*
X172033390Y-113140476D02*
X172081009Y-113188095D01*
X172081009Y-113188095D02*
X172128628Y-113283333D01*
X172128628Y-113283333D02*
X172128628Y-113664285D01*
X172604819Y-112140476D02*
X172604819Y-112711904D01*
X172604819Y-112426190D02*
X171604819Y-112426190D01*
X171604819Y-112426190D02*
X171747676Y-112521428D01*
X171747676Y-112521428D02*
X171842914Y-112616666D01*
X171842914Y-112616666D02*
X171890533Y-112711904D01*
X172033390Y-111569047D02*
X171985771Y-111664285D01*
X171985771Y-111664285D02*
X171938152Y-111711904D01*
X171938152Y-111711904D02*
X171842914Y-111759523D01*
X171842914Y-111759523D02*
X171795295Y-111759523D01*
X171795295Y-111759523D02*
X171700057Y-111711904D01*
X171700057Y-111711904D02*
X171652438Y-111664285D01*
X171652438Y-111664285D02*
X171604819Y-111569047D01*
X171604819Y-111569047D02*
X171604819Y-111378571D01*
X171604819Y-111378571D02*
X171652438Y-111283333D01*
X171652438Y-111283333D02*
X171700057Y-111235714D01*
X171700057Y-111235714D02*
X171795295Y-111188095D01*
X171795295Y-111188095D02*
X171842914Y-111188095D01*
X171842914Y-111188095D02*
X171938152Y-111235714D01*
X171938152Y-111235714D02*
X171985771Y-111283333D01*
X171985771Y-111283333D02*
X172033390Y-111378571D01*
X172033390Y-111378571D02*
X172033390Y-111569047D01*
X172033390Y-111569047D02*
X172081009Y-111664285D01*
X172081009Y-111664285D02*
X172128628Y-111711904D01*
X172128628Y-111711904D02*
X172223866Y-111759523D01*
X172223866Y-111759523D02*
X172414342Y-111759523D01*
X172414342Y-111759523D02*
X172509580Y-111711904D01*
X172509580Y-111711904D02*
X172557200Y-111664285D01*
X172557200Y-111664285D02*
X172604819Y-111569047D01*
X172604819Y-111569047D02*
X172604819Y-111378571D01*
X172604819Y-111378571D02*
X172557200Y-111283333D01*
X172557200Y-111283333D02*
X172509580Y-111235714D01*
X172509580Y-111235714D02*
X172414342Y-111188095D01*
X172414342Y-111188095D02*
X172223866Y-111188095D01*
X172223866Y-111188095D02*
X172128628Y-111235714D01*
X172128628Y-111235714D02*
X172081009Y-111283333D01*
X172081009Y-111283333D02*
X172033390Y-111378571D01*
X172604819Y-120592857D02*
X172128628Y-120926190D01*
X172604819Y-121164285D02*
X171604819Y-121164285D01*
X171604819Y-121164285D02*
X171604819Y-120783333D01*
X171604819Y-120783333D02*
X171652438Y-120688095D01*
X171652438Y-120688095D02*
X171700057Y-120640476D01*
X171700057Y-120640476D02*
X171795295Y-120592857D01*
X171795295Y-120592857D02*
X171938152Y-120592857D01*
X171938152Y-120592857D02*
X172033390Y-120640476D01*
X172033390Y-120640476D02*
X172081009Y-120688095D01*
X172081009Y-120688095D02*
X172128628Y-120783333D01*
X172128628Y-120783333D02*
X172128628Y-121164285D01*
X172604819Y-119640476D02*
X172604819Y-120211904D01*
X172604819Y-119926190D02*
X171604819Y-119926190D01*
X171604819Y-119926190D02*
X171747676Y-120021428D01*
X171747676Y-120021428D02*
X171842914Y-120116666D01*
X171842914Y-120116666D02*
X171890533Y-120211904D01*
X171604819Y-118783333D02*
X171604819Y-118973809D01*
X171604819Y-118973809D02*
X171652438Y-119069047D01*
X171652438Y-119069047D02*
X171700057Y-119116666D01*
X171700057Y-119116666D02*
X171842914Y-119211904D01*
X171842914Y-119211904D02*
X172033390Y-119259523D01*
X172033390Y-119259523D02*
X172414342Y-119259523D01*
X172414342Y-119259523D02*
X172509580Y-119211904D01*
X172509580Y-119211904D02*
X172557200Y-119164285D01*
X172557200Y-119164285D02*
X172604819Y-119069047D01*
X172604819Y-119069047D02*
X172604819Y-118878571D01*
X172604819Y-118878571D02*
X172557200Y-118783333D01*
X172557200Y-118783333D02*
X172509580Y-118735714D01*
X172509580Y-118735714D02*
X172414342Y-118688095D01*
X172414342Y-118688095D02*
X172176247Y-118688095D01*
X172176247Y-118688095D02*
X172081009Y-118735714D01*
X172081009Y-118735714D02*
X172033390Y-118783333D01*
X172033390Y-118783333D02*
X171985771Y-118878571D01*
X171985771Y-118878571D02*
X171985771Y-119069047D01*
X171985771Y-119069047D02*
X172033390Y-119164285D01*
X172033390Y-119164285D02*
X172081009Y-119211904D01*
X172081009Y-119211904D02*
X172176247Y-119259523D01*
X117467261Y-84950057D02*
X117372023Y-84902438D01*
X117372023Y-84902438D02*
X117276785Y-84807200D01*
X117276785Y-84807200D02*
X117133928Y-84664342D01*
X117133928Y-84664342D02*
X117038690Y-84616723D01*
X117038690Y-84616723D02*
X116943452Y-84616723D01*
X116991071Y-84854819D02*
X116895833Y-84807200D01*
X116895833Y-84807200D02*
X116800595Y-84711961D01*
X116800595Y-84711961D02*
X116752976Y-84521485D01*
X116752976Y-84521485D02*
X116752976Y-84188152D01*
X116752976Y-84188152D02*
X116800595Y-83997676D01*
X116800595Y-83997676D02*
X116895833Y-83902438D01*
X116895833Y-83902438D02*
X116991071Y-83854819D01*
X116991071Y-83854819D02*
X117181547Y-83854819D01*
X117181547Y-83854819D02*
X117276785Y-83902438D01*
X117276785Y-83902438D02*
X117372023Y-83997676D01*
X117372023Y-83997676D02*
X117419642Y-84188152D01*
X117419642Y-84188152D02*
X117419642Y-84521485D01*
X117419642Y-84521485D02*
X117372023Y-84711961D01*
X117372023Y-84711961D02*
X117276785Y-84807200D01*
X117276785Y-84807200D02*
X117181547Y-84854819D01*
X117181547Y-84854819D02*
X116991071Y-84854819D01*
X118372023Y-84854819D02*
X117800595Y-84854819D01*
X118086309Y-84854819D02*
X118086309Y-83854819D01*
X118086309Y-83854819D02*
X117991071Y-83997676D01*
X117991071Y-83997676D02*
X117895833Y-84092914D01*
X117895833Y-84092914D02*
X117800595Y-84140533D01*
X121454819Y-84566666D02*
X120978628Y-84899999D01*
X121454819Y-85138094D02*
X120454819Y-85138094D01*
X120454819Y-85138094D02*
X120454819Y-84757142D01*
X120454819Y-84757142D02*
X120502438Y-84661904D01*
X120502438Y-84661904D02*
X120550057Y-84614285D01*
X120550057Y-84614285D02*
X120645295Y-84566666D01*
X120645295Y-84566666D02*
X120788152Y-84566666D01*
X120788152Y-84566666D02*
X120883390Y-84614285D01*
X120883390Y-84614285D02*
X120931009Y-84661904D01*
X120931009Y-84661904D02*
X120978628Y-84757142D01*
X120978628Y-84757142D02*
X120978628Y-85138094D01*
X120883390Y-83995237D02*
X120835771Y-84090475D01*
X120835771Y-84090475D02*
X120788152Y-84138094D01*
X120788152Y-84138094D02*
X120692914Y-84185713D01*
X120692914Y-84185713D02*
X120645295Y-84185713D01*
X120645295Y-84185713D02*
X120550057Y-84138094D01*
X120550057Y-84138094D02*
X120502438Y-84090475D01*
X120502438Y-84090475D02*
X120454819Y-83995237D01*
X120454819Y-83995237D02*
X120454819Y-83804761D01*
X120454819Y-83804761D02*
X120502438Y-83709523D01*
X120502438Y-83709523D02*
X120550057Y-83661904D01*
X120550057Y-83661904D02*
X120645295Y-83614285D01*
X120645295Y-83614285D02*
X120692914Y-83614285D01*
X120692914Y-83614285D02*
X120788152Y-83661904D01*
X120788152Y-83661904D02*
X120835771Y-83709523D01*
X120835771Y-83709523D02*
X120883390Y-83804761D01*
X120883390Y-83804761D02*
X120883390Y-83995237D01*
X120883390Y-83995237D02*
X120931009Y-84090475D01*
X120931009Y-84090475D02*
X120978628Y-84138094D01*
X120978628Y-84138094D02*
X121073866Y-84185713D01*
X121073866Y-84185713D02*
X121264342Y-84185713D01*
X121264342Y-84185713D02*
X121359580Y-84138094D01*
X121359580Y-84138094D02*
X121407200Y-84090475D01*
X121407200Y-84090475D02*
X121454819Y-83995237D01*
X121454819Y-83995237D02*
X121454819Y-83804761D01*
X121454819Y-83804761D02*
X121407200Y-83709523D01*
X121407200Y-83709523D02*
X121359580Y-83661904D01*
X121359580Y-83661904D02*
X121264342Y-83614285D01*
X121264342Y-83614285D02*
X121073866Y-83614285D01*
X121073866Y-83614285D02*
X120978628Y-83661904D01*
X120978628Y-83661904D02*
X120931009Y-83709523D01*
X120931009Y-83709523D02*
X120883390Y-83804761D01*
X120833333Y-91054819D02*
X120500000Y-90578628D01*
X120261905Y-91054819D02*
X120261905Y-90054819D01*
X120261905Y-90054819D02*
X120642857Y-90054819D01*
X120642857Y-90054819D02*
X120738095Y-90102438D01*
X120738095Y-90102438D02*
X120785714Y-90150057D01*
X120785714Y-90150057D02*
X120833333Y-90245295D01*
X120833333Y-90245295D02*
X120833333Y-90388152D01*
X120833333Y-90388152D02*
X120785714Y-90483390D01*
X120785714Y-90483390D02*
X120738095Y-90531009D01*
X120738095Y-90531009D02*
X120642857Y-90578628D01*
X120642857Y-90578628D02*
X120261905Y-90578628D01*
X121309524Y-91054819D02*
X121500000Y-91054819D01*
X121500000Y-91054819D02*
X121595238Y-91007200D01*
X121595238Y-91007200D02*
X121642857Y-90959580D01*
X121642857Y-90959580D02*
X121738095Y-90816723D01*
X121738095Y-90816723D02*
X121785714Y-90626247D01*
X121785714Y-90626247D02*
X121785714Y-90245295D01*
X121785714Y-90245295D02*
X121738095Y-90150057D01*
X121738095Y-90150057D02*
X121690476Y-90102438D01*
X121690476Y-90102438D02*
X121595238Y-90054819D01*
X121595238Y-90054819D02*
X121404762Y-90054819D01*
X121404762Y-90054819D02*
X121309524Y-90102438D01*
X121309524Y-90102438D02*
X121261905Y-90150057D01*
X121261905Y-90150057D02*
X121214286Y-90245295D01*
X121214286Y-90245295D02*
X121214286Y-90483390D01*
X121214286Y-90483390D02*
X121261905Y-90578628D01*
X121261905Y-90578628D02*
X121309524Y-90626247D01*
X121309524Y-90626247D02*
X121404762Y-90673866D01*
X121404762Y-90673866D02*
X121595238Y-90673866D01*
X121595238Y-90673866D02*
X121690476Y-90626247D01*
X121690476Y-90626247D02*
X121738095Y-90578628D01*
X121738095Y-90578628D02*
X121785714Y-90483390D01*
X169550057Y-114895238D02*
X169502438Y-114990476D01*
X169502438Y-114990476D02*
X169407200Y-115085714D01*
X169407200Y-115085714D02*
X169264342Y-115228571D01*
X169264342Y-115228571D02*
X169216723Y-115323809D01*
X169216723Y-115323809D02*
X169216723Y-115419047D01*
X169454819Y-115371428D02*
X169407200Y-115466666D01*
X169407200Y-115466666D02*
X169311961Y-115561904D01*
X169311961Y-115561904D02*
X169121485Y-115609523D01*
X169121485Y-115609523D02*
X168788152Y-115609523D01*
X168788152Y-115609523D02*
X168597676Y-115561904D01*
X168597676Y-115561904D02*
X168502438Y-115466666D01*
X168502438Y-115466666D02*
X168454819Y-115371428D01*
X168454819Y-115371428D02*
X168454819Y-115180952D01*
X168454819Y-115180952D02*
X168502438Y-115085714D01*
X168502438Y-115085714D02*
X168597676Y-114990476D01*
X168597676Y-114990476D02*
X168788152Y-114942857D01*
X168788152Y-114942857D02*
X169121485Y-114942857D01*
X169121485Y-114942857D02*
X169311961Y-114990476D01*
X169311961Y-114990476D02*
X169407200Y-115085714D01*
X169407200Y-115085714D02*
X169454819Y-115180952D01*
X169454819Y-115180952D02*
X169454819Y-115371428D01*
X168454819Y-114609523D02*
X168454819Y-113990476D01*
X168454819Y-113990476D02*
X168835771Y-114323809D01*
X168835771Y-114323809D02*
X168835771Y-114180952D01*
X168835771Y-114180952D02*
X168883390Y-114085714D01*
X168883390Y-114085714D02*
X168931009Y-114038095D01*
X168931009Y-114038095D02*
X169026247Y-113990476D01*
X169026247Y-113990476D02*
X169264342Y-113990476D01*
X169264342Y-113990476D02*
X169359580Y-114038095D01*
X169359580Y-114038095D02*
X169407200Y-114085714D01*
X169407200Y-114085714D02*
X169454819Y-114180952D01*
X169454819Y-114180952D02*
X169454819Y-114466666D01*
X169454819Y-114466666D02*
X169407200Y-114561904D01*
X169407200Y-114561904D02*
X169359580Y-114609523D01*
X162654819Y-113242857D02*
X162178628Y-113576190D01*
X162654819Y-113814285D02*
X161654819Y-113814285D01*
X161654819Y-113814285D02*
X161654819Y-113433333D01*
X161654819Y-113433333D02*
X161702438Y-113338095D01*
X161702438Y-113338095D02*
X161750057Y-113290476D01*
X161750057Y-113290476D02*
X161845295Y-113242857D01*
X161845295Y-113242857D02*
X161988152Y-113242857D01*
X161988152Y-113242857D02*
X162083390Y-113290476D01*
X162083390Y-113290476D02*
X162131009Y-113338095D01*
X162131009Y-113338095D02*
X162178628Y-113433333D01*
X162178628Y-113433333D02*
X162178628Y-113814285D01*
X162654819Y-112290476D02*
X162654819Y-112861904D01*
X162654819Y-112576190D02*
X161654819Y-112576190D01*
X161654819Y-112576190D02*
X161797676Y-112671428D01*
X161797676Y-112671428D02*
X161892914Y-112766666D01*
X161892914Y-112766666D02*
X161940533Y-112861904D01*
X161654819Y-111385714D02*
X161654819Y-111861904D01*
X161654819Y-111861904D02*
X162131009Y-111909523D01*
X162131009Y-111909523D02*
X162083390Y-111861904D01*
X162083390Y-111861904D02*
X162035771Y-111766666D01*
X162035771Y-111766666D02*
X162035771Y-111528571D01*
X162035771Y-111528571D02*
X162083390Y-111433333D01*
X162083390Y-111433333D02*
X162131009Y-111385714D01*
X162131009Y-111385714D02*
X162226247Y-111338095D01*
X162226247Y-111338095D02*
X162464342Y-111338095D01*
X162464342Y-111338095D02*
X162559580Y-111385714D01*
X162559580Y-111385714D02*
X162607200Y-111433333D01*
X162607200Y-111433333D02*
X162654819Y-111528571D01*
X162654819Y-111528571D02*
X162654819Y-111766666D01*
X162654819Y-111766666D02*
X162607200Y-111861904D01*
X162607200Y-111861904D02*
X162559580Y-111909523D01*
X112414819Y-89758094D02*
X111414819Y-89758094D01*
X111414819Y-89758094D02*
X111414819Y-89519999D01*
X111414819Y-89519999D02*
X111462438Y-89377142D01*
X111462438Y-89377142D02*
X111557676Y-89281904D01*
X111557676Y-89281904D02*
X111652914Y-89234285D01*
X111652914Y-89234285D02*
X111843390Y-89186666D01*
X111843390Y-89186666D02*
X111986247Y-89186666D01*
X111986247Y-89186666D02*
X112176723Y-89234285D01*
X112176723Y-89234285D02*
X112271961Y-89281904D01*
X112271961Y-89281904D02*
X112367200Y-89377142D01*
X112367200Y-89377142D02*
X112414819Y-89519999D01*
X112414819Y-89519999D02*
X112414819Y-89758094D01*
X111414819Y-88853332D02*
X111414819Y-88234285D01*
X111414819Y-88234285D02*
X111795771Y-88567618D01*
X111795771Y-88567618D02*
X111795771Y-88424761D01*
X111795771Y-88424761D02*
X111843390Y-88329523D01*
X111843390Y-88329523D02*
X111891009Y-88281904D01*
X111891009Y-88281904D02*
X111986247Y-88234285D01*
X111986247Y-88234285D02*
X112224342Y-88234285D01*
X112224342Y-88234285D02*
X112319580Y-88281904D01*
X112319580Y-88281904D02*
X112367200Y-88329523D01*
X112367200Y-88329523D02*
X112414819Y-88424761D01*
X112414819Y-88424761D02*
X112414819Y-88710475D01*
X112414819Y-88710475D02*
X112367200Y-88805713D01*
X112367200Y-88805713D02*
X112319580Y-88853332D01*
X139033333Y-78759580D02*
X138985714Y-78807200D01*
X138985714Y-78807200D02*
X138842857Y-78854819D01*
X138842857Y-78854819D02*
X138747619Y-78854819D01*
X138747619Y-78854819D02*
X138604762Y-78807200D01*
X138604762Y-78807200D02*
X138509524Y-78711961D01*
X138509524Y-78711961D02*
X138461905Y-78616723D01*
X138461905Y-78616723D02*
X138414286Y-78426247D01*
X138414286Y-78426247D02*
X138414286Y-78283390D01*
X138414286Y-78283390D02*
X138461905Y-78092914D01*
X138461905Y-78092914D02*
X138509524Y-77997676D01*
X138509524Y-77997676D02*
X138604762Y-77902438D01*
X138604762Y-77902438D02*
X138747619Y-77854819D01*
X138747619Y-77854819D02*
X138842857Y-77854819D01*
X138842857Y-77854819D02*
X138985714Y-77902438D01*
X138985714Y-77902438D02*
X139033333Y-77950057D01*
X139366667Y-77854819D02*
X139985714Y-77854819D01*
X139985714Y-77854819D02*
X139652381Y-78235771D01*
X139652381Y-78235771D02*
X139795238Y-78235771D01*
X139795238Y-78235771D02*
X139890476Y-78283390D01*
X139890476Y-78283390D02*
X139938095Y-78331009D01*
X139938095Y-78331009D02*
X139985714Y-78426247D01*
X139985714Y-78426247D02*
X139985714Y-78664342D01*
X139985714Y-78664342D02*
X139938095Y-78759580D01*
X139938095Y-78759580D02*
X139890476Y-78807200D01*
X139890476Y-78807200D02*
X139795238Y-78854819D01*
X139795238Y-78854819D02*
X139509524Y-78854819D01*
X139509524Y-78854819D02*
X139414286Y-78807200D01*
X139414286Y-78807200D02*
X139366667Y-78759580D01*
X122666666Y-55054819D02*
X122666666Y-55769104D01*
X122666666Y-55769104D02*
X122619047Y-55911961D01*
X122619047Y-55911961D02*
X122523809Y-56007200D01*
X122523809Y-56007200D02*
X122380952Y-56054819D01*
X122380952Y-56054819D02*
X122285714Y-56054819D01*
X123047619Y-55054819D02*
X123666666Y-55054819D01*
X123666666Y-55054819D02*
X123333333Y-55435771D01*
X123333333Y-55435771D02*
X123476190Y-55435771D01*
X123476190Y-55435771D02*
X123571428Y-55483390D01*
X123571428Y-55483390D02*
X123619047Y-55531009D01*
X123619047Y-55531009D02*
X123666666Y-55626247D01*
X123666666Y-55626247D02*
X123666666Y-55864342D01*
X123666666Y-55864342D02*
X123619047Y-55959580D01*
X123619047Y-55959580D02*
X123571428Y-56007200D01*
X123571428Y-56007200D02*
X123476190Y-56054819D01*
X123476190Y-56054819D02*
X123190476Y-56054819D01*
X123190476Y-56054819D02*
X123095238Y-56007200D01*
X123095238Y-56007200D02*
X123047619Y-55959580D01*
X120757142Y-96054819D02*
X120423809Y-95578628D01*
X120185714Y-96054819D02*
X120185714Y-95054819D01*
X120185714Y-95054819D02*
X120566666Y-95054819D01*
X120566666Y-95054819D02*
X120661904Y-95102438D01*
X120661904Y-95102438D02*
X120709523Y-95150057D01*
X120709523Y-95150057D02*
X120757142Y-95245295D01*
X120757142Y-95245295D02*
X120757142Y-95388152D01*
X120757142Y-95388152D02*
X120709523Y-95483390D01*
X120709523Y-95483390D02*
X120661904Y-95531009D01*
X120661904Y-95531009D02*
X120566666Y-95578628D01*
X120566666Y-95578628D02*
X120185714Y-95578628D01*
X121709523Y-96054819D02*
X121138095Y-96054819D01*
X121423809Y-96054819D02*
X121423809Y-95054819D01*
X121423809Y-95054819D02*
X121328571Y-95197676D01*
X121328571Y-95197676D02*
X121233333Y-95292914D01*
X121233333Y-95292914D02*
X121138095Y-95340533D01*
X122661904Y-96054819D02*
X122090476Y-96054819D01*
X122376190Y-96054819D02*
X122376190Y-95054819D01*
X122376190Y-95054819D02*
X122280952Y-95197676D01*
X122280952Y-95197676D02*
X122185714Y-95292914D01*
X122185714Y-95292914D02*
X122090476Y-95340533D01*
X139033333Y-76559580D02*
X138985714Y-76607200D01*
X138985714Y-76607200D02*
X138842857Y-76654819D01*
X138842857Y-76654819D02*
X138747619Y-76654819D01*
X138747619Y-76654819D02*
X138604762Y-76607200D01*
X138604762Y-76607200D02*
X138509524Y-76511961D01*
X138509524Y-76511961D02*
X138461905Y-76416723D01*
X138461905Y-76416723D02*
X138414286Y-76226247D01*
X138414286Y-76226247D02*
X138414286Y-76083390D01*
X138414286Y-76083390D02*
X138461905Y-75892914D01*
X138461905Y-75892914D02*
X138509524Y-75797676D01*
X138509524Y-75797676D02*
X138604762Y-75702438D01*
X138604762Y-75702438D02*
X138747619Y-75654819D01*
X138747619Y-75654819D02*
X138842857Y-75654819D01*
X138842857Y-75654819D02*
X138985714Y-75702438D01*
X138985714Y-75702438D02*
X139033333Y-75750057D01*
X139366667Y-75654819D02*
X140033333Y-75654819D01*
X140033333Y-75654819D02*
X139604762Y-76654819D01*
X177314819Y-126933333D02*
X178029104Y-126933333D01*
X178029104Y-126933333D02*
X178171961Y-126980952D01*
X178171961Y-126980952D02*
X178267200Y-127076190D01*
X178267200Y-127076190D02*
X178314819Y-127219047D01*
X178314819Y-127219047D02*
X178314819Y-127314285D01*
X177314819Y-126028571D02*
X177314819Y-126219047D01*
X177314819Y-126219047D02*
X177362438Y-126314285D01*
X177362438Y-126314285D02*
X177410057Y-126361904D01*
X177410057Y-126361904D02*
X177552914Y-126457142D01*
X177552914Y-126457142D02*
X177743390Y-126504761D01*
X177743390Y-126504761D02*
X178124342Y-126504761D01*
X178124342Y-126504761D02*
X178219580Y-126457142D01*
X178219580Y-126457142D02*
X178267200Y-126409523D01*
X178267200Y-126409523D02*
X178314819Y-126314285D01*
X178314819Y-126314285D02*
X178314819Y-126123809D01*
X178314819Y-126123809D02*
X178267200Y-126028571D01*
X178267200Y-126028571D02*
X178219580Y-125980952D01*
X178219580Y-125980952D02*
X178124342Y-125933333D01*
X178124342Y-125933333D02*
X177886247Y-125933333D01*
X177886247Y-125933333D02*
X177791009Y-125980952D01*
X177791009Y-125980952D02*
X177743390Y-126028571D01*
X177743390Y-126028571D02*
X177695771Y-126123809D01*
X177695771Y-126123809D02*
X177695771Y-126314285D01*
X177695771Y-126314285D02*
X177743390Y-126409523D01*
X177743390Y-126409523D02*
X177791009Y-126457142D01*
X177791009Y-126457142D02*
X177886247Y-126504761D01*
X136033333Y-72759580D02*
X135985714Y-72807200D01*
X135985714Y-72807200D02*
X135842857Y-72854819D01*
X135842857Y-72854819D02*
X135747619Y-72854819D01*
X135747619Y-72854819D02*
X135604762Y-72807200D01*
X135604762Y-72807200D02*
X135509524Y-72711961D01*
X135509524Y-72711961D02*
X135461905Y-72616723D01*
X135461905Y-72616723D02*
X135414286Y-72426247D01*
X135414286Y-72426247D02*
X135414286Y-72283390D01*
X135414286Y-72283390D02*
X135461905Y-72092914D01*
X135461905Y-72092914D02*
X135509524Y-71997676D01*
X135509524Y-71997676D02*
X135604762Y-71902438D01*
X135604762Y-71902438D02*
X135747619Y-71854819D01*
X135747619Y-71854819D02*
X135842857Y-71854819D01*
X135842857Y-71854819D02*
X135985714Y-71902438D01*
X135985714Y-71902438D02*
X136033333Y-71950057D01*
X136890476Y-71854819D02*
X136700000Y-71854819D01*
X136700000Y-71854819D02*
X136604762Y-71902438D01*
X136604762Y-71902438D02*
X136557143Y-71950057D01*
X136557143Y-71950057D02*
X136461905Y-72092914D01*
X136461905Y-72092914D02*
X136414286Y-72283390D01*
X136414286Y-72283390D02*
X136414286Y-72664342D01*
X136414286Y-72664342D02*
X136461905Y-72759580D01*
X136461905Y-72759580D02*
X136509524Y-72807200D01*
X136509524Y-72807200D02*
X136604762Y-72854819D01*
X136604762Y-72854819D02*
X136795238Y-72854819D01*
X136795238Y-72854819D02*
X136890476Y-72807200D01*
X136890476Y-72807200D02*
X136938095Y-72759580D01*
X136938095Y-72759580D02*
X136985714Y-72664342D01*
X136985714Y-72664342D02*
X136985714Y-72426247D01*
X136985714Y-72426247D02*
X136938095Y-72331009D01*
X136938095Y-72331009D02*
X136890476Y-72283390D01*
X136890476Y-72283390D02*
X136795238Y-72235771D01*
X136795238Y-72235771D02*
X136604762Y-72235771D01*
X136604762Y-72235771D02*
X136509524Y-72283390D01*
X136509524Y-72283390D02*
X136461905Y-72331009D01*
X136461905Y-72331009D02*
X136414286Y-72426247D01*
X139889160Y-99169104D02*
X140365350Y-99169104D01*
X139793922Y-99454819D02*
X140127255Y-98454819D01*
X140127255Y-98454819D02*
X140460588Y-99454819D01*
X141317731Y-99454819D02*
X140746303Y-99454819D01*
X141032017Y-99454819D02*
X141032017Y-98454819D01*
X141032017Y-98454819D02*
X140936779Y-98597676D01*
X140936779Y-98597676D02*
X140841541Y-98692914D01*
X140841541Y-98692914D02*
X140746303Y-98740533D01*
X124833333Y-77959580D02*
X124785714Y-78007200D01*
X124785714Y-78007200D02*
X124642857Y-78054819D01*
X124642857Y-78054819D02*
X124547619Y-78054819D01*
X124547619Y-78054819D02*
X124404762Y-78007200D01*
X124404762Y-78007200D02*
X124309524Y-77911961D01*
X124309524Y-77911961D02*
X124261905Y-77816723D01*
X124261905Y-77816723D02*
X124214286Y-77626247D01*
X124214286Y-77626247D02*
X124214286Y-77483390D01*
X124214286Y-77483390D02*
X124261905Y-77292914D01*
X124261905Y-77292914D02*
X124309524Y-77197676D01*
X124309524Y-77197676D02*
X124404762Y-77102438D01*
X124404762Y-77102438D02*
X124547619Y-77054819D01*
X124547619Y-77054819D02*
X124642857Y-77054819D01*
X124642857Y-77054819D02*
X124785714Y-77102438D01*
X124785714Y-77102438D02*
X124833333Y-77150057D01*
X125690476Y-77388152D02*
X125690476Y-78054819D01*
X125452381Y-77007200D02*
X125214286Y-77721485D01*
X125214286Y-77721485D02*
X125833333Y-77721485D01*
X112414819Y-97508094D02*
X111414819Y-97508094D01*
X111414819Y-97508094D02*
X111414819Y-97269999D01*
X111414819Y-97269999D02*
X111462438Y-97127142D01*
X111462438Y-97127142D02*
X111557676Y-97031904D01*
X111557676Y-97031904D02*
X111652914Y-96984285D01*
X111652914Y-96984285D02*
X111843390Y-96936666D01*
X111843390Y-96936666D02*
X111986247Y-96936666D01*
X111986247Y-96936666D02*
X112176723Y-96984285D01*
X112176723Y-96984285D02*
X112271961Y-97031904D01*
X112271961Y-97031904D02*
X112367200Y-97127142D01*
X112367200Y-97127142D02*
X112414819Y-97269999D01*
X112414819Y-97269999D02*
X112414819Y-97508094D01*
X111748152Y-96079523D02*
X112414819Y-96079523D01*
X111367200Y-96317618D02*
X112081485Y-96555713D01*
X112081485Y-96555713D02*
X112081485Y-95936666D01*
X167154761Y-110650057D02*
X167059523Y-110602438D01*
X167059523Y-110602438D02*
X166964285Y-110507200D01*
X166964285Y-110507200D02*
X166821428Y-110364342D01*
X166821428Y-110364342D02*
X166726190Y-110316723D01*
X166726190Y-110316723D02*
X166630952Y-110316723D01*
X166678571Y-110554819D02*
X166583333Y-110507200D01*
X166583333Y-110507200D02*
X166488095Y-110411961D01*
X166488095Y-110411961D02*
X166440476Y-110221485D01*
X166440476Y-110221485D02*
X166440476Y-109888152D01*
X166440476Y-109888152D02*
X166488095Y-109697676D01*
X166488095Y-109697676D02*
X166583333Y-109602438D01*
X166583333Y-109602438D02*
X166678571Y-109554819D01*
X166678571Y-109554819D02*
X166869047Y-109554819D01*
X166869047Y-109554819D02*
X166964285Y-109602438D01*
X166964285Y-109602438D02*
X167059523Y-109697676D01*
X167059523Y-109697676D02*
X167107142Y-109888152D01*
X167107142Y-109888152D02*
X167107142Y-110221485D01*
X167107142Y-110221485D02*
X167059523Y-110411961D01*
X167059523Y-110411961D02*
X166964285Y-110507200D01*
X166964285Y-110507200D02*
X166869047Y-110554819D01*
X166869047Y-110554819D02*
X166678571Y-110554819D01*
X167964285Y-109888152D02*
X167964285Y-110554819D01*
X167726190Y-109507200D02*
X167488095Y-110221485D01*
X167488095Y-110221485D02*
X168107142Y-110221485D01*
X162854819Y-120592857D02*
X162378628Y-120926190D01*
X162854819Y-121164285D02*
X161854819Y-121164285D01*
X161854819Y-121164285D02*
X161854819Y-120783333D01*
X161854819Y-120783333D02*
X161902438Y-120688095D01*
X161902438Y-120688095D02*
X161950057Y-120640476D01*
X161950057Y-120640476D02*
X162045295Y-120592857D01*
X162045295Y-120592857D02*
X162188152Y-120592857D01*
X162188152Y-120592857D02*
X162283390Y-120640476D01*
X162283390Y-120640476D02*
X162331009Y-120688095D01*
X162331009Y-120688095D02*
X162378628Y-120783333D01*
X162378628Y-120783333D02*
X162378628Y-121164285D01*
X162854819Y-119640476D02*
X162854819Y-120211904D01*
X162854819Y-119926190D02*
X161854819Y-119926190D01*
X161854819Y-119926190D02*
X161997676Y-120021428D01*
X161997676Y-120021428D02*
X162092914Y-120116666D01*
X162092914Y-120116666D02*
X162140533Y-120211904D01*
X161854819Y-119307142D02*
X161854819Y-118688095D01*
X161854819Y-118688095D02*
X162235771Y-119021428D01*
X162235771Y-119021428D02*
X162235771Y-118878571D01*
X162235771Y-118878571D02*
X162283390Y-118783333D01*
X162283390Y-118783333D02*
X162331009Y-118735714D01*
X162331009Y-118735714D02*
X162426247Y-118688095D01*
X162426247Y-118688095D02*
X162664342Y-118688095D01*
X162664342Y-118688095D02*
X162759580Y-118735714D01*
X162759580Y-118735714D02*
X162807200Y-118783333D01*
X162807200Y-118783333D02*
X162854819Y-118878571D01*
X162854819Y-118878571D02*
X162854819Y-119164285D01*
X162854819Y-119164285D02*
X162807200Y-119259523D01*
X162807200Y-119259523D02*
X162759580Y-119307142D01*
X167104761Y-122950057D02*
X167009523Y-122902438D01*
X167009523Y-122902438D02*
X166914285Y-122807200D01*
X166914285Y-122807200D02*
X166771428Y-122664342D01*
X166771428Y-122664342D02*
X166676190Y-122616723D01*
X166676190Y-122616723D02*
X166580952Y-122616723D01*
X166628571Y-122854819D02*
X166533333Y-122807200D01*
X166533333Y-122807200D02*
X166438095Y-122711961D01*
X166438095Y-122711961D02*
X166390476Y-122521485D01*
X166390476Y-122521485D02*
X166390476Y-122188152D01*
X166390476Y-122188152D02*
X166438095Y-121997676D01*
X166438095Y-121997676D02*
X166533333Y-121902438D01*
X166533333Y-121902438D02*
X166628571Y-121854819D01*
X166628571Y-121854819D02*
X166819047Y-121854819D01*
X166819047Y-121854819D02*
X166914285Y-121902438D01*
X166914285Y-121902438D02*
X167009523Y-121997676D01*
X167009523Y-121997676D02*
X167057142Y-122188152D01*
X167057142Y-122188152D02*
X167057142Y-122521485D01*
X167057142Y-122521485D02*
X167009523Y-122711961D01*
X167009523Y-122711961D02*
X166914285Y-122807200D01*
X166914285Y-122807200D02*
X166819047Y-122854819D01*
X166819047Y-122854819D02*
X166628571Y-122854819D01*
X167438095Y-121950057D02*
X167485714Y-121902438D01*
X167485714Y-121902438D02*
X167580952Y-121854819D01*
X167580952Y-121854819D02*
X167819047Y-121854819D01*
X167819047Y-121854819D02*
X167914285Y-121902438D01*
X167914285Y-121902438D02*
X167961904Y-121950057D01*
X167961904Y-121950057D02*
X168009523Y-122045295D01*
X168009523Y-122045295D02*
X168009523Y-122140533D01*
X168009523Y-122140533D02*
X167961904Y-122283390D01*
X167961904Y-122283390D02*
X167390476Y-122854819D01*
X167390476Y-122854819D02*
X168009523Y-122854819D01*
X139033333Y-80959580D02*
X138985714Y-81007200D01*
X138985714Y-81007200D02*
X138842857Y-81054819D01*
X138842857Y-81054819D02*
X138747619Y-81054819D01*
X138747619Y-81054819D02*
X138604762Y-81007200D01*
X138604762Y-81007200D02*
X138509524Y-80911961D01*
X138509524Y-80911961D02*
X138461905Y-80816723D01*
X138461905Y-80816723D02*
X138414286Y-80626247D01*
X138414286Y-80626247D02*
X138414286Y-80483390D01*
X138414286Y-80483390D02*
X138461905Y-80292914D01*
X138461905Y-80292914D02*
X138509524Y-80197676D01*
X138509524Y-80197676D02*
X138604762Y-80102438D01*
X138604762Y-80102438D02*
X138747619Y-80054819D01*
X138747619Y-80054819D02*
X138842857Y-80054819D01*
X138842857Y-80054819D02*
X138985714Y-80102438D01*
X138985714Y-80102438D02*
X139033333Y-80150057D01*
X139938095Y-80054819D02*
X139461905Y-80054819D01*
X139461905Y-80054819D02*
X139414286Y-80531009D01*
X139414286Y-80531009D02*
X139461905Y-80483390D01*
X139461905Y-80483390D02*
X139557143Y-80435771D01*
X139557143Y-80435771D02*
X139795238Y-80435771D01*
X139795238Y-80435771D02*
X139890476Y-80483390D01*
X139890476Y-80483390D02*
X139938095Y-80531009D01*
X139938095Y-80531009D02*
X139985714Y-80626247D01*
X139985714Y-80626247D02*
X139985714Y-80864342D01*
X139985714Y-80864342D02*
X139938095Y-80959580D01*
X139938095Y-80959580D02*
X139890476Y-81007200D01*
X139890476Y-81007200D02*
X139795238Y-81054819D01*
X139795238Y-81054819D02*
X139557143Y-81054819D01*
X139557143Y-81054819D02*
X139461905Y-81007200D01*
X139461905Y-81007200D02*
X139414286Y-80959580D01*
X112414819Y-105258094D02*
X111414819Y-105258094D01*
X111414819Y-105258094D02*
X111414819Y-105019999D01*
X111414819Y-105019999D02*
X111462438Y-104877142D01*
X111462438Y-104877142D02*
X111557676Y-104781904D01*
X111557676Y-104781904D02*
X111652914Y-104734285D01*
X111652914Y-104734285D02*
X111843390Y-104686666D01*
X111843390Y-104686666D02*
X111986247Y-104686666D01*
X111986247Y-104686666D02*
X112176723Y-104734285D01*
X112176723Y-104734285D02*
X112271961Y-104781904D01*
X112271961Y-104781904D02*
X112367200Y-104877142D01*
X112367200Y-104877142D02*
X112414819Y-105019999D01*
X112414819Y-105019999D02*
X112414819Y-105258094D01*
X111414819Y-103781904D02*
X111414819Y-104258094D01*
X111414819Y-104258094D02*
X111891009Y-104305713D01*
X111891009Y-104305713D02*
X111843390Y-104258094D01*
X111843390Y-104258094D02*
X111795771Y-104162856D01*
X111795771Y-104162856D02*
X111795771Y-103924761D01*
X111795771Y-103924761D02*
X111843390Y-103829523D01*
X111843390Y-103829523D02*
X111891009Y-103781904D01*
X111891009Y-103781904D02*
X111986247Y-103734285D01*
X111986247Y-103734285D02*
X112224342Y-103734285D01*
X112224342Y-103734285D02*
X112319580Y-103781904D01*
X112319580Y-103781904D02*
X112367200Y-103829523D01*
X112367200Y-103829523D02*
X112414819Y-103924761D01*
X112414819Y-103924761D02*
X112414819Y-104162856D01*
X112414819Y-104162856D02*
X112367200Y-104258094D01*
X112367200Y-104258094D02*
X112319580Y-104305713D01*
X182266666Y-75454819D02*
X182266666Y-76169104D01*
X182266666Y-76169104D02*
X182219047Y-76311961D01*
X182219047Y-76311961D02*
X182123809Y-76407200D01*
X182123809Y-76407200D02*
X181980952Y-76454819D01*
X181980952Y-76454819D02*
X181885714Y-76454819D01*
X183266666Y-76454819D02*
X182695238Y-76454819D01*
X182980952Y-76454819D02*
X182980952Y-75454819D01*
X182980952Y-75454819D02*
X182885714Y-75597676D01*
X182885714Y-75597676D02*
X182790476Y-75692914D01*
X182790476Y-75692914D02*
X182695238Y-75740533D01*
X118254819Y-62766666D02*
X117778628Y-63099999D01*
X118254819Y-63338094D02*
X117254819Y-63338094D01*
X117254819Y-63338094D02*
X117254819Y-62957142D01*
X117254819Y-62957142D02*
X117302438Y-62861904D01*
X117302438Y-62861904D02*
X117350057Y-62814285D01*
X117350057Y-62814285D02*
X117445295Y-62766666D01*
X117445295Y-62766666D02*
X117588152Y-62766666D01*
X117588152Y-62766666D02*
X117683390Y-62814285D01*
X117683390Y-62814285D02*
X117731009Y-62861904D01*
X117731009Y-62861904D02*
X117778628Y-62957142D01*
X117778628Y-62957142D02*
X117778628Y-63338094D01*
X117254819Y-61861904D02*
X117254819Y-62338094D01*
X117254819Y-62338094D02*
X117731009Y-62385713D01*
X117731009Y-62385713D02*
X117683390Y-62338094D01*
X117683390Y-62338094D02*
X117635771Y-62242856D01*
X117635771Y-62242856D02*
X117635771Y-62004761D01*
X117635771Y-62004761D02*
X117683390Y-61909523D01*
X117683390Y-61909523D02*
X117731009Y-61861904D01*
X117731009Y-61861904D02*
X117826247Y-61814285D01*
X117826247Y-61814285D02*
X118064342Y-61814285D01*
X118064342Y-61814285D02*
X118159580Y-61861904D01*
X118159580Y-61861904D02*
X118207200Y-61909523D01*
X118207200Y-61909523D02*
X118254819Y-62004761D01*
X118254819Y-62004761D02*
X118254819Y-62242856D01*
X118254819Y-62242856D02*
X118207200Y-62338094D01*
X118207200Y-62338094D02*
X118159580Y-62385713D01*
X162854819Y-116842857D02*
X162378628Y-117176190D01*
X162854819Y-117414285D02*
X161854819Y-117414285D01*
X161854819Y-117414285D02*
X161854819Y-117033333D01*
X161854819Y-117033333D02*
X161902438Y-116938095D01*
X161902438Y-116938095D02*
X161950057Y-116890476D01*
X161950057Y-116890476D02*
X162045295Y-116842857D01*
X162045295Y-116842857D02*
X162188152Y-116842857D01*
X162188152Y-116842857D02*
X162283390Y-116890476D01*
X162283390Y-116890476D02*
X162331009Y-116938095D01*
X162331009Y-116938095D02*
X162378628Y-117033333D01*
X162378628Y-117033333D02*
X162378628Y-117414285D01*
X162854819Y-115890476D02*
X162854819Y-116461904D01*
X162854819Y-116176190D02*
X161854819Y-116176190D01*
X161854819Y-116176190D02*
X161997676Y-116271428D01*
X161997676Y-116271428D02*
X162092914Y-116366666D01*
X162092914Y-116366666D02*
X162140533Y-116461904D01*
X162188152Y-115033333D02*
X162854819Y-115033333D01*
X161807200Y-115271428D02*
X162521485Y-115509523D01*
X162521485Y-115509523D02*
X162521485Y-114890476D01*
X120757142Y-98454819D02*
X120423809Y-97978628D01*
X120185714Y-98454819D02*
X120185714Y-97454819D01*
X120185714Y-97454819D02*
X120566666Y-97454819D01*
X120566666Y-97454819D02*
X120661904Y-97502438D01*
X120661904Y-97502438D02*
X120709523Y-97550057D01*
X120709523Y-97550057D02*
X120757142Y-97645295D01*
X120757142Y-97645295D02*
X120757142Y-97788152D01*
X120757142Y-97788152D02*
X120709523Y-97883390D01*
X120709523Y-97883390D02*
X120661904Y-97931009D01*
X120661904Y-97931009D02*
X120566666Y-97978628D01*
X120566666Y-97978628D02*
X120185714Y-97978628D01*
X121709523Y-98454819D02*
X121138095Y-98454819D01*
X121423809Y-98454819D02*
X121423809Y-97454819D01*
X121423809Y-97454819D02*
X121328571Y-97597676D01*
X121328571Y-97597676D02*
X121233333Y-97692914D01*
X121233333Y-97692914D02*
X121138095Y-97740533D01*
X122090476Y-97550057D02*
X122138095Y-97502438D01*
X122138095Y-97502438D02*
X122233333Y-97454819D01*
X122233333Y-97454819D02*
X122471428Y-97454819D01*
X122471428Y-97454819D02*
X122566666Y-97502438D01*
X122566666Y-97502438D02*
X122614285Y-97550057D01*
X122614285Y-97550057D02*
X122661904Y-97645295D01*
X122661904Y-97645295D02*
X122661904Y-97740533D01*
X122661904Y-97740533D02*
X122614285Y-97883390D01*
X122614285Y-97883390D02*
X122042857Y-98454819D01*
X122042857Y-98454819D02*
X122661904Y-98454819D01*
X122839580Y-59766666D02*
X122887200Y-59814285D01*
X122887200Y-59814285D02*
X122934819Y-59957142D01*
X122934819Y-59957142D02*
X122934819Y-60052380D01*
X122934819Y-60052380D02*
X122887200Y-60195237D01*
X122887200Y-60195237D02*
X122791961Y-60290475D01*
X122791961Y-60290475D02*
X122696723Y-60338094D01*
X122696723Y-60338094D02*
X122506247Y-60385713D01*
X122506247Y-60385713D02*
X122363390Y-60385713D01*
X122363390Y-60385713D02*
X122172914Y-60338094D01*
X122172914Y-60338094D02*
X122077676Y-60290475D01*
X122077676Y-60290475D02*
X121982438Y-60195237D01*
X121982438Y-60195237D02*
X121934819Y-60052380D01*
X121934819Y-60052380D02*
X121934819Y-59957142D01*
X121934819Y-59957142D02*
X121982438Y-59814285D01*
X121982438Y-59814285D02*
X122030057Y-59766666D01*
X122030057Y-59385713D02*
X121982438Y-59338094D01*
X121982438Y-59338094D02*
X121934819Y-59242856D01*
X121934819Y-59242856D02*
X121934819Y-59004761D01*
X121934819Y-59004761D02*
X121982438Y-58909523D01*
X121982438Y-58909523D02*
X122030057Y-58861904D01*
X122030057Y-58861904D02*
X122125295Y-58814285D01*
X122125295Y-58814285D02*
X122220533Y-58814285D01*
X122220533Y-58814285D02*
X122363390Y-58861904D01*
X122363390Y-58861904D02*
X122934819Y-59433332D01*
X122934819Y-59433332D02*
X122934819Y-58814285D01*
X160179580Y-127366666D02*
X160227200Y-127414285D01*
X160227200Y-127414285D02*
X160274819Y-127557142D01*
X160274819Y-127557142D02*
X160274819Y-127652380D01*
X160274819Y-127652380D02*
X160227200Y-127795237D01*
X160227200Y-127795237D02*
X160131961Y-127890475D01*
X160131961Y-127890475D02*
X160036723Y-127938094D01*
X160036723Y-127938094D02*
X159846247Y-127985713D01*
X159846247Y-127985713D02*
X159703390Y-127985713D01*
X159703390Y-127985713D02*
X159512914Y-127938094D01*
X159512914Y-127938094D02*
X159417676Y-127890475D01*
X159417676Y-127890475D02*
X159322438Y-127795237D01*
X159322438Y-127795237D02*
X159274819Y-127652380D01*
X159274819Y-127652380D02*
X159274819Y-127557142D01*
X159274819Y-127557142D02*
X159322438Y-127414285D01*
X159322438Y-127414285D02*
X159370057Y-127366666D01*
X159703390Y-126795237D02*
X159655771Y-126890475D01*
X159655771Y-126890475D02*
X159608152Y-126938094D01*
X159608152Y-126938094D02*
X159512914Y-126985713D01*
X159512914Y-126985713D02*
X159465295Y-126985713D01*
X159465295Y-126985713D02*
X159370057Y-126938094D01*
X159370057Y-126938094D02*
X159322438Y-126890475D01*
X159322438Y-126890475D02*
X159274819Y-126795237D01*
X159274819Y-126795237D02*
X159274819Y-126604761D01*
X159274819Y-126604761D02*
X159322438Y-126509523D01*
X159322438Y-126509523D02*
X159370057Y-126461904D01*
X159370057Y-126461904D02*
X159465295Y-126414285D01*
X159465295Y-126414285D02*
X159512914Y-126414285D01*
X159512914Y-126414285D02*
X159608152Y-126461904D01*
X159608152Y-126461904D02*
X159655771Y-126509523D01*
X159655771Y-126509523D02*
X159703390Y-126604761D01*
X159703390Y-126604761D02*
X159703390Y-126795237D01*
X159703390Y-126795237D02*
X159751009Y-126890475D01*
X159751009Y-126890475D02*
X159798628Y-126938094D01*
X159798628Y-126938094D02*
X159893866Y-126985713D01*
X159893866Y-126985713D02*
X160084342Y-126985713D01*
X160084342Y-126985713D02*
X160179580Y-126938094D01*
X160179580Y-126938094D02*
X160227200Y-126890475D01*
X160227200Y-126890475D02*
X160274819Y-126795237D01*
X160274819Y-126795237D02*
X160274819Y-126604761D01*
X160274819Y-126604761D02*
X160227200Y-126509523D01*
X160227200Y-126509523D02*
X160179580Y-126461904D01*
X160179580Y-126461904D02*
X160084342Y-126414285D01*
X160084342Y-126414285D02*
X159893866Y-126414285D01*
X159893866Y-126414285D02*
X159798628Y-126461904D01*
X159798628Y-126461904D02*
X159751009Y-126509523D01*
X159751009Y-126509523D02*
X159703390Y-126604761D01*
X166633333Y-77304819D02*
X166300000Y-76828628D01*
X166061905Y-77304819D02*
X166061905Y-76304819D01*
X166061905Y-76304819D02*
X166442857Y-76304819D01*
X166442857Y-76304819D02*
X166538095Y-76352438D01*
X166538095Y-76352438D02*
X166585714Y-76400057D01*
X166585714Y-76400057D02*
X166633333Y-76495295D01*
X166633333Y-76495295D02*
X166633333Y-76638152D01*
X166633333Y-76638152D02*
X166585714Y-76733390D01*
X166585714Y-76733390D02*
X166538095Y-76781009D01*
X166538095Y-76781009D02*
X166442857Y-76828628D01*
X166442857Y-76828628D02*
X166061905Y-76828628D01*
X167014286Y-76400057D02*
X167061905Y-76352438D01*
X167061905Y-76352438D02*
X167157143Y-76304819D01*
X167157143Y-76304819D02*
X167395238Y-76304819D01*
X167395238Y-76304819D02*
X167490476Y-76352438D01*
X167490476Y-76352438D02*
X167538095Y-76400057D01*
X167538095Y-76400057D02*
X167585714Y-76495295D01*
X167585714Y-76495295D02*
X167585714Y-76590533D01*
X167585714Y-76590533D02*
X167538095Y-76733390D01*
X167538095Y-76733390D02*
X166966667Y-77304819D01*
X166966667Y-77304819D02*
X167585714Y-77304819D01*
X120757142Y-93454819D02*
X120423809Y-92978628D01*
X120185714Y-93454819D02*
X120185714Y-92454819D01*
X120185714Y-92454819D02*
X120566666Y-92454819D01*
X120566666Y-92454819D02*
X120661904Y-92502438D01*
X120661904Y-92502438D02*
X120709523Y-92550057D01*
X120709523Y-92550057D02*
X120757142Y-92645295D01*
X120757142Y-92645295D02*
X120757142Y-92788152D01*
X120757142Y-92788152D02*
X120709523Y-92883390D01*
X120709523Y-92883390D02*
X120661904Y-92931009D01*
X120661904Y-92931009D02*
X120566666Y-92978628D01*
X120566666Y-92978628D02*
X120185714Y-92978628D01*
X121709523Y-93454819D02*
X121138095Y-93454819D01*
X121423809Y-93454819D02*
X121423809Y-92454819D01*
X121423809Y-92454819D02*
X121328571Y-92597676D01*
X121328571Y-92597676D02*
X121233333Y-92692914D01*
X121233333Y-92692914D02*
X121138095Y-92740533D01*
X122328571Y-92454819D02*
X122423809Y-92454819D01*
X122423809Y-92454819D02*
X122519047Y-92502438D01*
X122519047Y-92502438D02*
X122566666Y-92550057D01*
X122566666Y-92550057D02*
X122614285Y-92645295D01*
X122614285Y-92645295D02*
X122661904Y-92835771D01*
X122661904Y-92835771D02*
X122661904Y-93073866D01*
X122661904Y-93073866D02*
X122614285Y-93264342D01*
X122614285Y-93264342D02*
X122566666Y-93359580D01*
X122566666Y-93359580D02*
X122519047Y-93407200D01*
X122519047Y-93407200D02*
X122423809Y-93454819D01*
X122423809Y-93454819D02*
X122328571Y-93454819D01*
X122328571Y-93454819D02*
X122233333Y-93407200D01*
X122233333Y-93407200D02*
X122185714Y-93359580D01*
X122185714Y-93359580D02*
X122138095Y-93264342D01*
X122138095Y-93264342D02*
X122090476Y-93073866D01*
X122090476Y-93073866D02*
X122090476Y-92835771D01*
X122090476Y-92835771D02*
X122138095Y-92645295D01*
X122138095Y-92645295D02*
X122185714Y-92550057D01*
X122185714Y-92550057D02*
X122233333Y-92502438D01*
X122233333Y-92502438D02*
X122328571Y-92454819D01*
X112414819Y-120258094D02*
X111414819Y-120258094D01*
X111414819Y-120258094D02*
X111414819Y-120019999D01*
X111414819Y-120019999D02*
X111462438Y-119877142D01*
X111462438Y-119877142D02*
X111557676Y-119781904D01*
X111557676Y-119781904D02*
X111652914Y-119734285D01*
X111652914Y-119734285D02*
X111843390Y-119686666D01*
X111843390Y-119686666D02*
X111986247Y-119686666D01*
X111986247Y-119686666D02*
X112176723Y-119734285D01*
X112176723Y-119734285D02*
X112271961Y-119781904D01*
X112271961Y-119781904D02*
X112367200Y-119877142D01*
X112367200Y-119877142D02*
X112414819Y-120019999D01*
X112414819Y-120019999D02*
X112414819Y-120258094D01*
X111510057Y-119305713D02*
X111462438Y-119258094D01*
X111462438Y-119258094D02*
X111414819Y-119162856D01*
X111414819Y-119162856D02*
X111414819Y-118924761D01*
X111414819Y-118924761D02*
X111462438Y-118829523D01*
X111462438Y-118829523D02*
X111510057Y-118781904D01*
X111510057Y-118781904D02*
X111605295Y-118734285D01*
X111605295Y-118734285D02*
X111700533Y-118734285D01*
X111700533Y-118734285D02*
X111843390Y-118781904D01*
X111843390Y-118781904D02*
X112414819Y-119353332D01*
X112414819Y-119353332D02*
X112414819Y-118734285D01*
D15*
X122465000Y-87427064D02*
X122465000Y-86972936D01*
X123935000Y-87427064D02*
X123935000Y-86972936D01*
X167027064Y-72015000D02*
X166572936Y-72015000D01*
X167027064Y-73485000D02*
X166572936Y-73485000D01*
X107670000Y-84040000D02*
X108790000Y-84040000D01*
X107670000Y-84440000D02*
X107670000Y-84040000D01*
X108790000Y-78920000D02*
X102630000Y-78920000D01*
X108790000Y-78920000D02*
X108790000Y-84040000D01*
X108790000Y-80210000D02*
X108790000Y-80210000D01*
X108790000Y-80210000D02*
X108920000Y-80210000D01*
X108790000Y-82750000D02*
X108790000Y-82750000D01*
X108790000Y-82750000D02*
X108920000Y-82750000D01*
X108790000Y-84040000D02*
X102630000Y-84040000D01*
X108790000Y-84040000D02*
X108790000Y-84440000D01*
X108790000Y-84440000D02*
X107670000Y-84440000D01*
X108920000Y-80210000D02*
X108790000Y-80210000D01*
X108920000Y-80210000D02*
X108920000Y-80210000D01*
X108920000Y-82750000D02*
X108790000Y-82750000D01*
X108920000Y-82750000D02*
X108920000Y-82750000D01*
X102630000Y-84040000D02*
G75*
G02*
X102630000Y-78920000I0J2560000D01*
G01*
X131105000Y-65390331D02*
X131105000Y-50850331D01*
X140800000Y-66284669D02*
X141050000Y-65851656D01*
X141050000Y-65851656D02*
X141300000Y-66284669D01*
X141300000Y-66284669D02*
X140800000Y-66284669D01*
X162075000Y-50850331D02*
X162075000Y-65390331D01*
X162075000Y-65390331D02*
X131105000Y-65390331D01*
X149600000Y-103420000D02*
X149600000Y-106080000D01*
X157280000Y-103420000D02*
X149600000Y-103420000D01*
X157280000Y-103420000D02*
X157280000Y-106080000D01*
X157280000Y-106080000D02*
X149600000Y-106080000D01*
X158550000Y-103420000D02*
X159880000Y-103420000D01*
X159880000Y-103420000D02*
X159880000Y-104750000D01*
X117272936Y-117515000D02*
X117727064Y-117515000D01*
X117272936Y-118985000D02*
X117727064Y-118985000D01*
X162462500Y-72390000D02*
X161662500Y-72390000D01*
X162462500Y-72390000D02*
X163262500Y-72390000D01*
X162462500Y-75510000D02*
X161662500Y-75510000D01*
X162462500Y-75510000D02*
X163262500Y-75510000D01*
X164002500Y-75790000D02*
X163522500Y-75790000D01*
X163762500Y-75460000D01*
X164002500Y-75790000D01*
G36*
X164002500Y-75790000D02*
G01*
X163522500Y-75790000D01*
X163762500Y-75460000D01*
X164002500Y-75790000D01*
G37*
D13*
X164725000Y-125625000D02*
X164725000Y-125050000D01*
X164725000Y-135700000D02*
X164725000Y-135125000D01*
X170475000Y-125050000D02*
X164725000Y-125050000D01*
X170475000Y-125625000D02*
X170475000Y-125050000D01*
X170475000Y-135700000D02*
X164725000Y-135700000D01*
X170475000Y-135700000D02*
X170475000Y-135125000D01*
D15*
X171215000Y-135455000D02*
X170735000Y-135455000D01*
X170975000Y-135125000D01*
X171215000Y-135455000D01*
G36*
X171215000Y-135455000D02*
G01*
X170735000Y-135455000D01*
X170975000Y-135125000D01*
X171215000Y-135455000D01*
G37*
X129962500Y-70940000D02*
X128012500Y-70940000D01*
X129962500Y-70940000D02*
X131912500Y-70940000D01*
X129962500Y-81060000D02*
X128012500Y-81060000D01*
X129962500Y-81060000D02*
X131912500Y-81060000D01*
X132902500Y-81335000D02*
X132422500Y-81335000D01*
X132662500Y-81005000D01*
X132902500Y-81335000D01*
G36*
X132902500Y-81335000D02*
G01*
X132422500Y-81335000D01*
X132662500Y-81005000D01*
X132902500Y-81335000D01*
G37*
X117272936Y-79515000D02*
X117727064Y-79515000D01*
X117272936Y-80985000D02*
X117727064Y-80985000D01*
X107670000Y-114580000D02*
X108790000Y-114580000D01*
X107670000Y-114980000D02*
X107670000Y-114580000D01*
X108790000Y-109460000D02*
X102630000Y-109460000D01*
X108790000Y-109460000D02*
X108790000Y-114580000D01*
X108790000Y-110750000D02*
X108790000Y-110750000D01*
X108790000Y-110750000D02*
X108920000Y-110750000D01*
X108790000Y-113290000D02*
X108790000Y-113290000D01*
X108790000Y-113290000D02*
X108920000Y-113290000D01*
X108790000Y-114580000D02*
X102630000Y-114580000D01*
X108790000Y-114580000D02*
X108790000Y-114980000D01*
X108790000Y-114980000D02*
X107670000Y-114980000D01*
X108920000Y-110750000D02*
X108790000Y-110750000D01*
X108920000Y-110750000D02*
X108920000Y-110750000D01*
X108920000Y-113290000D02*
X108790000Y-113290000D01*
X108920000Y-113290000D02*
X108920000Y-113290000D01*
X102630000Y-114580000D02*
G75*
G02*
X102630000Y-109460000I0J2560000D01*
G01*
X169765000Y-115972936D02*
X169765000Y-116427064D01*
X171235000Y-115972936D02*
X171235000Y-116427064D01*
D14*
X174747600Y-54253080D02*
X174747600Y-56252060D01*
X174747600Y-56252060D02*
X174747600Y-56752440D01*
X174747600Y-56752440D02*
X175247980Y-57252820D01*
X174747600Y-61250780D02*
X175247980Y-60752940D01*
X174747600Y-64253060D02*
X174747600Y-61250780D01*
X174747600Y-64253060D02*
X175247980Y-64750900D01*
X174747600Y-68751400D02*
X175247980Y-68251020D01*
X174747600Y-71250760D02*
X174747600Y-68751400D01*
X175247980Y-53752700D02*
X174747600Y-54253080D01*
X175247980Y-53752700D02*
X192248200Y-53752700D01*
X175247980Y-57252820D02*
X177246960Y-57252820D01*
X175247980Y-60752940D02*
X177246960Y-60752940D01*
X175247980Y-64750900D02*
X177246960Y-64750900D01*
X175247980Y-68251020D02*
X177246960Y-68251020D01*
X175247980Y-71751140D02*
X174747600Y-71250760D01*
X175247980Y-71751140D02*
X192248200Y-71751140D01*
X177246960Y-57252820D02*
X177246960Y-60752940D01*
X177246960Y-68251020D02*
X177246960Y-64750900D01*
X192248200Y-53752700D02*
X192248200Y-54253080D01*
X192248200Y-71250760D02*
X192746040Y-71250760D01*
X192248200Y-71751140D02*
X192248200Y-71250760D01*
X192746040Y-52251560D02*
X193246420Y-52251560D01*
X192746040Y-54253080D02*
X192248200Y-54253080D01*
X192746040Y-71751140D02*
X192746040Y-52251560D01*
X192997500Y-71751140D02*
X192997500Y-52251560D01*
X193246420Y-52251560D02*
X193246420Y-53752700D01*
X193246420Y-53752700D02*
X193246420Y-71751140D01*
X193246420Y-53752700D02*
X193746800Y-53752700D01*
X193246420Y-71751140D02*
X192746040Y-71751140D01*
X193246420Y-73252280D02*
X193246420Y-71751140D01*
X193497880Y-73252280D02*
X193497880Y-53752700D01*
X193746800Y-53752700D02*
X193746800Y-73252280D01*
X193746800Y-73252280D02*
X193246420Y-73252280D01*
D15*
X158465000Y-74261252D02*
X158465000Y-73738748D01*
X159935000Y-74261252D02*
X159935000Y-73738748D01*
X114965000Y-60227064D02*
X114965000Y-59772936D01*
X116435000Y-60227064D02*
X116435000Y-59772936D01*
X169765000Y-112222936D02*
X169765000Y-112677064D01*
X171235000Y-112222936D02*
X171235000Y-112677064D01*
X169765000Y-119722936D02*
X169765000Y-120177064D01*
X171235000Y-119722936D02*
X171235000Y-120177064D01*
X117562500Y-85640000D02*
X116912500Y-85640000D01*
X117562500Y-85640000D02*
X118212500Y-85640000D01*
X117562500Y-88760000D02*
X116912500Y-88760000D01*
X117562500Y-88760000D02*
X118212500Y-88760000D01*
X118965000Y-89040000D02*
X118485000Y-89040000D01*
X118725000Y-88710000D01*
X118965000Y-89040000D01*
G36*
X118965000Y-89040000D02*
G01*
X118485000Y-89040000D01*
X118725000Y-88710000D01*
X118965000Y-89040000D01*
G37*
X120265000Y-86972936D02*
X120265000Y-87427064D01*
X121735000Y-86972936D02*
X121735000Y-87427064D01*
X117727064Y-89765000D02*
X117272936Y-89765000D01*
X117727064Y-91235000D02*
X117272936Y-91235000D01*
X167250000Y-114640000D02*
X166600000Y-114640000D01*
X167250000Y-114640000D02*
X167900000Y-114640000D01*
X167250000Y-117760000D02*
X166600000Y-117760000D01*
X167250000Y-117760000D02*
X167900000Y-117760000D01*
X166087500Y-114690000D02*
X165847500Y-114360000D01*
X166327500Y-114360000D01*
X166087500Y-114690000D01*
G36*
X166087500Y-114690000D02*
G01*
X165847500Y-114360000D01*
X166327500Y-114360000D01*
X166087500Y-114690000D01*
G37*
X163265000Y-112222936D02*
X163265000Y-112677064D01*
X164735000Y-112222936D02*
X164735000Y-112677064D01*
X107670000Y-91580000D02*
X108790000Y-91580000D01*
X107670000Y-91980000D02*
X107670000Y-91580000D01*
X108790000Y-86460000D02*
X102630000Y-86460000D01*
X108790000Y-86460000D02*
X108790000Y-91580000D01*
X108790000Y-87750000D02*
X108790000Y-87750000D01*
X108790000Y-87750000D02*
X108920000Y-87750000D01*
X108790000Y-90290000D02*
X108790000Y-90290000D01*
X108790000Y-90290000D02*
X108920000Y-90290000D01*
X108790000Y-91580000D02*
X102630000Y-91580000D01*
X108790000Y-91580000D02*
X108790000Y-91980000D01*
X108790000Y-91980000D02*
X107670000Y-91980000D01*
X108920000Y-87750000D02*
X108790000Y-87750000D01*
X108920000Y-87750000D02*
X108920000Y-87750000D01*
X108920000Y-90290000D02*
X108790000Y-90290000D01*
X108920000Y-90290000D02*
X108920000Y-90290000D01*
X102630000Y-91580000D02*
G75*
G02*
X102630000Y-86460000I0J2560000D01*
G01*
X136423752Y-77665000D02*
X135901248Y-77665000D01*
X136423752Y-79135000D02*
X135901248Y-79135000D01*
X115490000Y-53560000D02*
X115490000Y-56060000D01*
X115490000Y-56060000D02*
X116540000Y-56060000D01*
X120540000Y-51590000D02*
X116660000Y-51590000D01*
X120660000Y-56060000D02*
X120660000Y-57050000D01*
X121710000Y-53560000D02*
X121710000Y-56060000D01*
X121710000Y-56060000D02*
X120660000Y-56060000D01*
X117727064Y-94765000D02*
X117272936Y-94765000D01*
X117727064Y-96235000D02*
X117272936Y-96235000D01*
X135901248Y-75465000D02*
X136423752Y-75465000D01*
X135901248Y-76935000D02*
X136423752Y-76935000D01*
X177905662Y-136045000D02*
X178338675Y-136295000D01*
X177905662Y-136545000D02*
X177905662Y-136045000D01*
X178338675Y-136295000D02*
X177905662Y-136545000D01*
X178800000Y-106940000D02*
X193340000Y-106940000D01*
X178800000Y-146260000D02*
X178800000Y-106940000D01*
X193340000Y-146260000D02*
X178800000Y-146260000D01*
X135901248Y-73265000D02*
X136423752Y-73265000D01*
X135901248Y-74735000D02*
X136423752Y-74735000D01*
X141760000Y-79860000D02*
X141760000Y-86260000D01*
X141760000Y-93460000D02*
X141760000Y-86260000D01*
X141760000Y-93460000D02*
X141760000Y-99860000D01*
X142180063Y-79590000D02*
X141823000Y-79590000D01*
X142180063Y-100130000D02*
X141823000Y-100130000D01*
X142673520Y-82350000D02*
X141760000Y-82350000D01*
X142673520Y-97370000D02*
X141760000Y-97370000D01*
X144720000Y-79250000D02*
X144300000Y-79250000D01*
X144720000Y-79590000D02*
X144300000Y-79590000D01*
X144720000Y-100130000D02*
X144300000Y-100130000D01*
X144720000Y-100470000D02*
X144300000Y-100470000D01*
X145066480Y-82350000D02*
X142673520Y-82350000D01*
X145066480Y-97370000D02*
X142673520Y-97370000D01*
X147260000Y-79250000D02*
X146840000Y-79250000D01*
X147260000Y-79590000D02*
X146840000Y-79590000D01*
X147260000Y-100130000D02*
X146840000Y-100130000D01*
X147260000Y-100470000D02*
X146840000Y-100470000D01*
X149800000Y-79250000D02*
X149380000Y-79250000D01*
X149800000Y-79590000D02*
X149380000Y-79590000D01*
X149800000Y-100130000D02*
X149380000Y-100130000D01*
X149800000Y-100470000D02*
X149380000Y-100470000D01*
X152340000Y-79250000D02*
X151920000Y-79250000D01*
X152340000Y-79590000D02*
X151920000Y-79590000D01*
X152340000Y-100130000D02*
X151920000Y-100130000D01*
X152340000Y-100470000D02*
X151920000Y-100470000D01*
X154880000Y-79250000D02*
X154460000Y-79250000D01*
X154880000Y-79590000D02*
X154460000Y-79590000D01*
X154880000Y-100130000D02*
X154460000Y-100130000D01*
X154880000Y-100470000D02*
X154460000Y-100470000D01*
X157420000Y-79250000D02*
X157000000Y-79250000D01*
X157420000Y-79590000D02*
X157000000Y-79590000D01*
X157420000Y-100130000D02*
X157000000Y-100130000D01*
X157420000Y-100470000D02*
X157000000Y-100470000D01*
X159960000Y-79250000D02*
X159540000Y-79250000D01*
X159960000Y-79590000D02*
X159540000Y-79590000D01*
X159960000Y-100130000D02*
X159540000Y-100130000D01*
X159960000Y-100470000D02*
X159540000Y-100470000D01*
X162500000Y-79250000D02*
X162080000Y-79250000D01*
X162500000Y-79590000D02*
X162080000Y-79590000D01*
X162500000Y-100130000D02*
X162080000Y-100130000D01*
X162500000Y-100470000D02*
X162080000Y-100470000D01*
X165040000Y-79250000D02*
X164620000Y-79250000D01*
X165040000Y-79590000D02*
X164620000Y-79590000D01*
X165040000Y-100130000D02*
X164620000Y-100130000D01*
X165040000Y-100470000D02*
X164620000Y-100470000D01*
X167580000Y-79250000D02*
X167160000Y-79250000D01*
X167580000Y-79590000D02*
X167160000Y-79590000D01*
X167580000Y-100130000D02*
X167160000Y-100130000D01*
X167580000Y-100470000D02*
X167160000Y-100470000D01*
X170120000Y-79250000D02*
X169700000Y-79250000D01*
X170120000Y-79590000D02*
X169700000Y-79590000D01*
X170120000Y-100130000D02*
X169700000Y-100130000D01*
X170120000Y-100470000D02*
X169700000Y-100470000D01*
X172660000Y-79250000D02*
X172240000Y-79250000D01*
X172660000Y-79590000D02*
X172240000Y-79590000D01*
X172660000Y-100130000D02*
X172240000Y-100130000D01*
X172660000Y-100470000D02*
X172240000Y-100470000D01*
X175200000Y-79250000D02*
X174780000Y-79250000D01*
X175200000Y-79590000D02*
X174780000Y-79590000D01*
X175200000Y-100130000D02*
X174780000Y-100130000D01*
X175200000Y-100470000D02*
X174780000Y-100470000D01*
X177740000Y-79250000D02*
X177320000Y-79250000D01*
X177740000Y-79590000D02*
X177320000Y-79590000D01*
X177740000Y-100130000D02*
X177320000Y-100130000D01*
X177740000Y-100470000D02*
X177320000Y-100470000D01*
X180280000Y-79250000D02*
X179860000Y-79250000D01*
X180280000Y-79590000D02*
X179860000Y-79590000D01*
X180280000Y-100130000D02*
X179860000Y-100130000D01*
X180280000Y-100470000D02*
X179860000Y-100470000D01*
X182820000Y-79250000D02*
X182400000Y-79250000D01*
X182820000Y-79590000D02*
X182400000Y-79590000D01*
X182820000Y-100130000D02*
X182400000Y-100130000D01*
X182820000Y-100470000D02*
X182400000Y-100470000D01*
X185360000Y-79250000D02*
X184940000Y-79250000D01*
X185360000Y-79590000D02*
X184940000Y-79590000D01*
X185360000Y-100130000D02*
X184940000Y-100130000D01*
X185360000Y-100470000D02*
X184940000Y-100470000D01*
X187900000Y-79250000D02*
X187480000Y-79250000D01*
X187900000Y-79590000D02*
X187480000Y-79590000D01*
X187900000Y-100130000D02*
X187480000Y-100130000D01*
X187900000Y-100470000D02*
X187480000Y-100470000D01*
X188460000Y-85960000D02*
X188460000Y-86256090D01*
X188460000Y-88613910D02*
X188460000Y-91106090D01*
X188460000Y-93463910D02*
X188460000Y-93760000D01*
X189673520Y-82350000D02*
X145066480Y-82350000D01*
X189673520Y-97370000D02*
X145066480Y-97370000D01*
X190440000Y-79250000D02*
X190020000Y-79250000D01*
X190440000Y-79250000D02*
X190440000Y-78770000D01*
X190440000Y-79590000D02*
X190020000Y-79590000D01*
X190440000Y-100130000D02*
X190020000Y-100130000D01*
X190440000Y-100470000D02*
X190020000Y-100470000D01*
X190685200Y-85960000D02*
X188460000Y-85960000D01*
X190685200Y-93760000D02*
X188460000Y-93760000D01*
X192066480Y-82350000D02*
X189673520Y-82350000D01*
X192066480Y-97370000D02*
X189673520Y-97370000D01*
X192559937Y-79590000D02*
X192917000Y-79590000D01*
X192559937Y-100130000D02*
X192917000Y-100130000D01*
X192560000Y-79280324D02*
X192560000Y-78770000D01*
X192980000Y-79860000D02*
X192980000Y-82350000D01*
X192980000Y-82350000D02*
X192066480Y-82350000D01*
X192980000Y-82350000D02*
X192980000Y-85625000D01*
X192980000Y-85625000D02*
X192980000Y-94095000D01*
X192980000Y-85960000D02*
X192064000Y-85960000D01*
X192980000Y-93760000D02*
X192064000Y-93760000D01*
X192980000Y-94095000D02*
X192980000Y-97370000D01*
X192980000Y-97370000D02*
X192066480Y-97370000D01*
X192980000Y-99860000D02*
X192980000Y-97370000D01*
X141760000Y-79860000D02*
G75*
G02*
X142180063Y-79280324I610002J-1D01*
G01*
X142180063Y-100439676D02*
G75*
G02*
X141760026Y-99860000I189837J579576D01*
G01*
X192560000Y-79280324D02*
G75*
G02*
X192980000Y-79860000I-190051J-579692D01*
G01*
X192980000Y-99860000D02*
G75*
G02*
X192559937Y-100439676I-610000J0D01*
G01*
X144810000Y-84160000D02*
G75*
G02*
X142930000Y-84160000I-940000J0D01*
G01*
X142930000Y-84160000D02*
G75*
G02*
X144810000Y-84160000I940000J0D01*
G01*
X144810000Y-95560000D02*
G75*
G02*
X142930000Y-95560000I-940000J0D01*
G01*
X142930000Y-95560000D02*
G75*
G02*
X144810000Y-95560000I940000J0D01*
G01*
X191810000Y-84160000D02*
G75*
G02*
X189930000Y-84160000I-940000J0D01*
G01*
X189930000Y-84160000D02*
G75*
G02*
X191810000Y-84160000I940000J0D01*
G01*
X191810000Y-95560000D02*
G75*
G02*
X189930000Y-95560000I-940000J0D01*
G01*
X189930000Y-95560000D02*
G75*
G02*
X191810000Y-95560000I940000J0D01*
G01*
X124265000Y-80461252D02*
X124265000Y-79938748D01*
X125735000Y-80461252D02*
X125735000Y-79938748D01*
X107670000Y-99330000D02*
X108790000Y-99330000D01*
X107670000Y-99730000D02*
X107670000Y-99330000D01*
X108790000Y-94210000D02*
X102630000Y-94210000D01*
X108790000Y-94210000D02*
X108790000Y-99330000D01*
X108790000Y-95500000D02*
X108790000Y-95500000D01*
X108790000Y-95500000D02*
X108920000Y-95500000D01*
X108790000Y-98040000D02*
X108790000Y-98040000D01*
X108790000Y-98040000D02*
X108920000Y-98040000D01*
X108790000Y-99330000D02*
X102630000Y-99330000D01*
X108790000Y-99330000D02*
X108790000Y-99730000D01*
X108790000Y-99730000D02*
X107670000Y-99730000D01*
X108920000Y-95500000D02*
X108790000Y-95500000D01*
X108920000Y-95500000D02*
X108920000Y-95500000D01*
X108920000Y-98040000D02*
X108790000Y-98040000D01*
X108920000Y-98040000D02*
X108920000Y-98040000D01*
X102630000Y-99330000D02*
G75*
G02*
X102630000Y-94210000I0J2560000D01*
G01*
X167250000Y-110940000D02*
X166600000Y-110940000D01*
X167250000Y-110940000D02*
X167900000Y-110940000D01*
X167250000Y-114060000D02*
X166600000Y-114060000D01*
X167250000Y-114060000D02*
X167900000Y-114060000D01*
X166087500Y-110990000D02*
X165847500Y-110660000D01*
X166327500Y-110660000D01*
X166087500Y-110990000D01*
G36*
X166087500Y-110990000D02*
G01*
X165847500Y-110660000D01*
X166327500Y-110660000D01*
X166087500Y-110990000D01*
G37*
X163265000Y-119722936D02*
X163265000Y-120177064D01*
X164735000Y-119722936D02*
X164735000Y-120177064D01*
X167250000Y-118390000D02*
X166600000Y-118390000D01*
X167250000Y-118390000D02*
X167900000Y-118390000D01*
X167250000Y-121510000D02*
X166600000Y-121510000D01*
X167250000Y-121510000D02*
X167900000Y-121510000D01*
X166087500Y-118440000D02*
X165847500Y-118110000D01*
X166327500Y-118110000D01*
X166087500Y-118440000D01*
G36*
X166087500Y-118440000D02*
G01*
X165847500Y-118110000D01*
X166327500Y-118110000D01*
X166087500Y-118440000D01*
G37*
X135901248Y-79865000D02*
X136423752Y-79865000D01*
X135901248Y-81335000D02*
X136423752Y-81335000D01*
X107670000Y-107080000D02*
X108790000Y-107080000D01*
X107670000Y-107480000D02*
X107670000Y-107080000D01*
X108790000Y-101960000D02*
X102630000Y-101960000D01*
X108790000Y-101960000D02*
X108790000Y-107080000D01*
X108790000Y-103250000D02*
X108790000Y-103250000D01*
X108790000Y-103250000D02*
X108920000Y-103250000D01*
X108790000Y-105790000D02*
X108790000Y-105790000D01*
X108790000Y-105790000D02*
X108920000Y-105790000D01*
X108790000Y-107080000D02*
X102630000Y-107080000D01*
X108790000Y-107080000D02*
X108790000Y-107480000D01*
X108790000Y-107480000D02*
X107670000Y-107480000D01*
X108920000Y-103250000D02*
X108790000Y-103250000D01*
X108920000Y-103250000D02*
X108920000Y-103250000D01*
X108920000Y-105790000D02*
X108790000Y-105790000D01*
X108920000Y-105790000D02*
X108920000Y-105790000D01*
X102630000Y-107080000D02*
G75*
G02*
X102630000Y-101960000I0J2560000D01*
G01*
X183670000Y-73920000D02*
X183670000Y-76580000D01*
X188810000Y-73920000D02*
X183670000Y-73920000D01*
X188810000Y-73920000D02*
X188810000Y-76580000D01*
X188810000Y-76580000D02*
X183670000Y-76580000D01*
X190080000Y-73920000D02*
X191410000Y-73920000D01*
X191410000Y-73920000D02*
X191410000Y-75250000D01*
X117065000Y-60227064D02*
X117065000Y-59772936D01*
X118535000Y-60227064D02*
X118535000Y-59772936D01*
X163265000Y-115972936D02*
X163265000Y-116427064D01*
X164735000Y-115972936D02*
X164735000Y-116427064D01*
X117727064Y-97265000D02*
X117272936Y-97265000D01*
X117727064Y-98735000D02*
X117272936Y-98735000D01*
X120065000Y-59738748D02*
X120065000Y-60261252D01*
X121535000Y-59738748D02*
X121535000Y-60261252D01*
X160765000Y-127461252D02*
X160765000Y-126938748D01*
X162235000Y-127461252D02*
X162235000Y-126938748D01*
X167027064Y-74465000D02*
X166572936Y-74465000D01*
X167027064Y-75935000D02*
X166572936Y-75935000D01*
X117727064Y-92265000D02*
X117272936Y-92265000D01*
X117727064Y-93735000D02*
X117272936Y-93735000D01*
X107670000Y-122080000D02*
X108790000Y-122080000D01*
X107670000Y-122480000D02*
X107670000Y-122080000D01*
X108790000Y-116960000D02*
X102630000Y-116960000D01*
X108790000Y-116960000D02*
X108790000Y-122080000D01*
X108790000Y-118250000D02*
X108790000Y-118250000D01*
X108790000Y-118250000D02*
X108920000Y-118250000D01*
X108790000Y-120790000D02*
X108790000Y-120790000D01*
X108790000Y-120790000D02*
X108920000Y-120790000D01*
X108790000Y-122080000D02*
X102630000Y-122080000D01*
X108790000Y-122080000D02*
X108790000Y-122480000D01*
X108790000Y-122480000D02*
X107670000Y-122480000D01*
X108920000Y-118250000D02*
X108790000Y-118250000D01*
X108920000Y-118250000D02*
X108920000Y-118250000D01*
X108920000Y-120790000D02*
X108790000Y-120790000D01*
X108920000Y-120790000D02*
X108920000Y-120790000D01*
X102630000Y-122080000D02*
G75*
G02*
X102630000Y-116960000I0J2560000D01*
G01*
D16*
X191244900Y-67753180D03*
X191244900Y-57750660D03*
X181250000Y-55253840D03*
X181247460Y-62751920D03*
X181250000Y-70250000D03*
X178748100Y-57755740D03*
X178748100Y-67748100D03*
%LPC*%
D17*
X123200000Y-88200000D03*
X123200000Y-86200000D03*
D18*
X167800000Y-72750000D03*
X165800000Y-72750000D03*
D19*
X110000000Y-80210000D03*
D20*
X110000000Y-82750000D03*
D21*
X159090000Y-62110331D03*
X134090000Y-62110331D03*
D22*
X141050000Y-63530331D03*
D23*
X143820000Y-63530331D03*
X146590000Y-63530331D03*
X149360000Y-63530331D03*
X152130000Y-63530331D03*
X142435000Y-60690331D03*
X145205000Y-60690331D03*
X147975000Y-60690331D03*
X150745000Y-60690331D03*
D24*
X169500000Y-145500000D03*
D25*
X158550000Y-104750000D03*
D26*
X156010000Y-104750000D03*
X153470000Y-104750000D03*
X150930000Y-104750000D03*
D27*
X116500000Y-118250000D03*
X118500000Y-118250000D03*
D24*
X169500000Y-55500000D03*
D28*
X163600000Y-74900000D03*
X163600000Y-73950000D03*
X163600000Y-73000000D03*
X161325000Y-73000000D03*
X161325000Y-74900000D03*
D29*
X171200000Y-134600000D03*
X171200000Y-133950000D03*
X171200000Y-133300000D03*
X171200000Y-132650000D03*
X171200000Y-132000000D03*
X171200000Y-131350000D03*
X171200000Y-130700000D03*
X171200000Y-130050000D03*
X171200000Y-129400000D03*
X171200000Y-128750000D03*
X171200000Y-128100000D03*
X171200000Y-127450000D03*
X171200000Y-126800000D03*
X171200000Y-126150000D03*
X164000000Y-126150000D03*
X164000000Y-126800000D03*
X164000000Y-127450000D03*
X164000000Y-128100000D03*
X164000000Y-128750000D03*
X164000000Y-129400000D03*
X164000000Y-130050000D03*
X164000000Y-130700000D03*
X164000000Y-131350000D03*
X164000000Y-132000000D03*
X164000000Y-132650000D03*
X164000000Y-133300000D03*
X164000000Y-133950000D03*
X164000000Y-134600000D03*
D30*
X132437500Y-80445000D03*
X132437500Y-79175000D03*
X132437500Y-77905000D03*
X132437500Y-76635000D03*
X132437500Y-75365000D03*
X132437500Y-74095000D03*
X132437500Y-72825000D03*
X132437500Y-71555000D03*
X127487500Y-71555000D03*
X127487500Y-72825000D03*
X127487500Y-74095000D03*
X127487500Y-75365000D03*
X127487500Y-76635000D03*
X127487500Y-77905000D03*
X127487500Y-79175000D03*
X127487500Y-80445000D03*
D27*
X116500000Y-80250000D03*
X118500000Y-80250000D03*
D19*
X110000000Y-110750000D03*
D20*
X110000000Y-113290000D03*
D31*
X170500000Y-115200000D03*
X170500000Y-117200000D03*
D16*
X191244900Y-67753180D03*
X191244900Y-57750660D03*
X181250000Y-55253840D03*
X181247460Y-62751920D03*
X181250000Y-70250000D03*
X178748100Y-57755740D03*
X178748100Y-67748100D03*
D32*
X159200000Y-75037500D03*
X159200000Y-72962500D03*
D17*
X115700000Y-61000000D03*
X115700000Y-59000000D03*
D31*
X170500000Y-111450000D03*
X170500000Y-113450000D03*
X170500000Y-118950000D03*
X170500000Y-120950000D03*
D33*
X118500000Y-88150000D03*
X118500000Y-86250000D03*
X116625000Y-87200000D03*
D31*
X121000000Y-86200000D03*
X121000000Y-88200000D03*
D18*
X118500000Y-90500000D03*
X116500000Y-90500000D03*
D34*
X166312500Y-115250000D03*
X166312500Y-117150000D03*
X168187500Y-116200000D03*
D31*
X164000000Y-111450000D03*
X164000000Y-113450000D03*
D19*
X110000000Y-87750000D03*
D20*
X110000000Y-90290000D03*
D35*
X137200000Y-78400000D03*
X135125000Y-78400000D03*
D36*
X120100000Y-56275000D03*
X119100000Y-56275000D03*
X118100000Y-56275000D03*
X117100000Y-56275000D03*
D37*
X121400000Y-52400000D03*
X115800000Y-52400000D03*
D18*
X118500000Y-95500000D03*
X116500000Y-95500000D03*
D38*
X135125000Y-76200000D03*
X137200000Y-76200000D03*
D21*
X182080000Y-143250000D03*
X182080000Y-109950000D03*
D22*
X180660000Y-136295000D03*
D23*
X180660000Y-133525000D03*
X180660000Y-130755000D03*
X180660000Y-127985000D03*
X180660000Y-125215000D03*
X180660000Y-122445000D03*
X180660000Y-119675000D03*
X180660000Y-116905000D03*
X183500000Y-134910000D03*
X183500000Y-132140000D03*
X183500000Y-129370000D03*
X183500000Y-126600000D03*
X183500000Y-123830000D03*
X183500000Y-121060000D03*
X183500000Y-118290000D03*
D38*
X135125000Y-74000000D03*
X137200000Y-74000000D03*
D39*
X191370000Y-87135000D03*
D40*
X188340000Y-87435000D03*
X188340000Y-92285000D03*
D39*
X191370000Y-92585000D03*
D41*
X191500000Y-80970000D03*
D42*
X191500000Y-80970000D03*
D23*
X188960000Y-80970000D03*
D43*
X188960000Y-80170000D03*
D44*
X186420000Y-80970000D03*
D45*
X186420000Y-80970000D03*
D23*
X183880000Y-80970000D03*
D43*
X183880000Y-80170000D03*
D23*
X181340000Y-80970000D03*
D43*
X181340000Y-80170000D03*
D23*
X178800000Y-80970000D03*
D43*
X178800000Y-80170000D03*
D23*
X176260000Y-80970000D03*
D43*
X176260000Y-80170000D03*
D44*
X173720000Y-80970000D03*
D45*
X173720000Y-80970000D03*
D23*
X171180000Y-80970000D03*
D43*
X171180000Y-80170000D03*
D23*
X168640000Y-80970000D03*
D43*
X168640000Y-80170000D03*
D23*
X166100000Y-80970000D03*
D43*
X166100000Y-80170000D03*
D23*
X163560000Y-80970000D03*
D43*
X163560000Y-80170000D03*
D44*
X161020000Y-80970000D03*
D45*
X161020000Y-80970000D03*
D23*
X158480000Y-80970000D03*
D43*
X158480000Y-80170000D03*
D23*
X155940000Y-80970000D03*
D43*
X155940000Y-80170000D03*
D23*
X153400000Y-80970000D03*
D43*
X153400000Y-80170000D03*
D23*
X150860000Y-80970000D03*
D43*
X150860000Y-80170000D03*
D44*
X148320000Y-80970000D03*
D45*
X148320000Y-80970000D03*
D23*
X145780000Y-80970000D03*
D43*
X145780000Y-80170000D03*
D23*
X143240000Y-80970000D03*
D43*
X143240000Y-80170000D03*
D23*
X143240000Y-98750000D03*
D43*
X143240000Y-99550000D03*
D23*
X145780000Y-98750000D03*
D43*
X145780000Y-99550000D03*
D46*
X148320000Y-98750000D03*
D47*
X148320000Y-98750000D03*
D23*
X150860000Y-98750000D03*
D43*
X150860000Y-99550000D03*
D23*
X153400000Y-98750000D03*
D43*
X153400000Y-99550000D03*
D23*
X155940000Y-98750000D03*
D43*
X155940000Y-99550000D03*
D23*
X158480000Y-98750000D03*
D43*
X158480000Y-99550000D03*
D46*
X161020000Y-98750000D03*
D47*
X161020000Y-98750000D03*
D23*
X163560000Y-98750000D03*
D43*
X163560000Y-99550000D03*
D23*
X166100000Y-98750000D03*
D43*
X166100000Y-99550000D03*
D23*
X168640000Y-98750000D03*
D43*
X168640000Y-99550000D03*
D23*
X171180000Y-98750000D03*
D43*
X171180000Y-99550000D03*
D46*
X173720000Y-98750000D03*
D47*
X173720000Y-98750000D03*
D23*
X176260000Y-98750000D03*
D43*
X176260000Y-99550000D03*
D23*
X178800000Y-98750000D03*
D43*
X178800000Y-99550000D03*
D23*
X181340000Y-98750000D03*
D43*
X181340000Y-99550000D03*
D23*
X183880000Y-98750000D03*
D43*
X183880000Y-99550000D03*
D46*
X186420000Y-98750000D03*
D47*
X186420000Y-98750000D03*
D23*
X188960000Y-98750000D03*
D43*
X188960000Y-99550000D03*
D23*
X191500000Y-98750000D03*
D43*
X191500000Y-99550000D03*
D32*
X125000000Y-81237500D03*
X125000000Y-79162500D03*
D19*
X110000000Y-95500000D03*
D20*
X110000000Y-98040000D03*
D34*
X166312500Y-111550000D03*
X166312500Y-113450000D03*
X168187500Y-112500000D03*
D31*
X164000000Y-118950000D03*
X164000000Y-120950000D03*
D34*
X166312500Y-119000000D03*
X166312500Y-120900000D03*
X168187500Y-119950000D03*
D38*
X135125000Y-80600000D03*
X137200000Y-80600000D03*
D19*
X110000000Y-103250000D03*
D20*
X110000000Y-105790000D03*
D24*
X103500000Y-55500000D03*
D25*
X190080000Y-75250000D03*
D26*
X187540000Y-75250000D03*
X185000000Y-75250000D03*
D17*
X117800000Y-61000000D03*
X117800000Y-59000000D03*
D31*
X164000000Y-115200000D03*
X164000000Y-117200000D03*
D18*
X118500000Y-98000000D03*
X116500000Y-98000000D03*
D48*
X120800000Y-58962500D03*
X120800000Y-61037500D03*
D32*
X161500000Y-128237500D03*
X161500000Y-126162500D03*
D24*
X103500000Y-145500000D03*
D18*
X167800000Y-75200000D03*
X165800000Y-75200000D03*
X118500000Y-93000000D03*
X116500000Y-93000000D03*
D19*
X110000000Y-118250000D03*
D20*
X110000000Y-120790000D03*
%LPD*%
M02*
