G04 #@! TF.GenerationSoftware,KiCad,Pcbnew,8.0.5*
G04 #@! TF.CreationDate,2024-10-24T17:49:52+02:00*
G04 #@! TF.ProjectId,vt2_communicator,7674325f-636f-46d6-9d75-6e696361746f,rev?*
G04 #@! TF.SameCoordinates,Original*
G04 #@! TF.FileFunction,Copper,L4,Bot*
G04 #@! TF.FilePolarity,Positive*
%FSLAX46Y46*%
G04 Gerber Fmt 4.6, Leading zero omitted, Abs format (unit mm)*
G04 Created by KiCad (PCBNEW 8.0.5) date 2024-10-24 17:49:52*
%MOMM*%
%LPD*%
G01*
G04 APERTURE LIST*
G04 Aperture macros list*
%AMRoundRect*
0 Rectangle with rounded corners*
0 $1 Rounding radius*
0 $2 $3 $4 $5 $6 $7 $8 $9 X,Y pos of 4 corners*
0 Add a 4 corners polygon primitive as box body*
4,1,4,$2,$3,$4,$5,$6,$7,$8,$9,$2,$3,0*
0 Add four circle primitives for the rounded corners*
1,1,$1+$1,$2,$3*
1,1,$1+$1,$4,$5*
1,1,$1+$1,$6,$7*
1,1,$1+$1,$8,$9*
0 Add four rect primitives between the rounded corners*
20,1,$1+$1,$2,$3,$4,$5,0*
20,1,$1+$1,$4,$5,$6,$7,0*
20,1,$1+$1,$6,$7,$8,$9,0*
20,1,$1+$1,$8,$9,$2,$3,0*%
%AMFreePoly0*
4,1,28,0.605014,0.794986,0.644504,0.794986,0.724698,0.756366,0.780194,0.686777,0.800000,0.600000,0.800000,-0.600000,0.780194,-0.686777,0.724698,-0.756366,0.644504,-0.794986,0.605014,-0.794986,0.600000,-0.800000,0.000000,-0.800000,-0.178017,-0.779942,-0.347107,-0.720775,-0.498792,-0.625465,-0.625465,-0.498792,-0.720775,-0.347107,-0.779942,-0.178017,-0.800000,0.000000,-0.779942,0.178017,
-0.720775,0.347107,-0.625465,0.498792,-0.498792,0.625465,-0.347107,0.720775,-0.178017,0.779942,0.000000,0.800000,0.600000,0.800000,0.605014,0.794986,0.605014,0.794986,$1*%
%AMFreePoly1*
4,1,28,0.178017,0.779942,0.347107,0.720775,0.498792,0.625465,0.625465,0.498792,0.720775,0.347107,0.779942,0.178017,0.800000,0.000000,0.779942,-0.178017,0.720775,-0.347107,0.625465,-0.498792,0.498792,-0.625465,0.347107,-0.720775,0.178017,-0.779942,0.000000,-0.800000,-0.600000,-0.800000,-0.605014,-0.794986,-0.644504,-0.794986,-0.724698,-0.756366,-0.780194,-0.686777,-0.800000,-0.600000,
-0.800000,0.600000,-0.780194,0.686777,-0.724698,0.756366,-0.644504,0.794986,-0.605014,0.794986,-0.600000,0.800000,0.000000,0.800000,0.178017,0.779942,0.178017,0.779942,$1*%
G04 Aperture macros list end*
G04 #@! TA.AperFunction,ComponentPad*
%ADD10R,1.800000X1.800000*%
G04 #@! TD*
G04 #@! TA.AperFunction,ComponentPad*
%ADD11C,1.800000*%
G04 #@! TD*
G04 #@! TA.AperFunction,ComponentPad*
%ADD12C,4.000000*%
G04 #@! TD*
G04 #@! TA.AperFunction,ComponentPad*
%ADD13R,1.600000X1.600000*%
G04 #@! TD*
G04 #@! TA.AperFunction,ComponentPad*
%ADD14C,1.600000*%
G04 #@! TD*
G04 #@! TA.AperFunction,ComponentPad*
%ADD15R,1.700000X1.700000*%
G04 #@! TD*
G04 #@! TA.AperFunction,ComponentPad*
%ADD16O,1.700000X1.700000*%
G04 #@! TD*
G04 #@! TA.AperFunction,WasherPad*
%ADD17C,2.499360*%
G04 #@! TD*
G04 #@! TA.AperFunction,ComponentPad*
%ADD18C,2.499360*%
G04 #@! TD*
G04 #@! TA.AperFunction,ComponentPad*
%ADD19RoundRect,0.200000X-0.600000X0.600000X-0.600000X-0.600000X0.600000X-0.600000X0.600000X0.600000X0*%
G04 #@! TD*
G04 #@! TA.AperFunction,ComponentPad*
%ADD20FreePoly0,270.000000*%
G04 #@! TD*
G04 #@! TA.AperFunction,ComponentPad*
%ADD21FreePoly1,270.000000*%
G04 #@! TD*
G04 #@! TA.AperFunction,ViaPad*
%ADD22C,0.600000*%
G04 #@! TD*
G04 #@! TA.AperFunction,ViaPad*
%ADD23C,0.800000*%
G04 #@! TD*
G04 #@! TA.AperFunction,Conductor*
%ADD24C,0.200000*%
G04 #@! TD*
G04 APERTURE END LIST*
D10*
X110000000Y-80210000D03*
D11*
X110000000Y-82750000D03*
D12*
X159090000Y-62110331D03*
X134090000Y-62110331D03*
D13*
X141050000Y-63530331D03*
D14*
X143820000Y-63530331D03*
X146590000Y-63530331D03*
X149360000Y-63530331D03*
X152130000Y-63530331D03*
X142435000Y-60690331D03*
X145205000Y-60690331D03*
X147975000Y-60690331D03*
X150745000Y-60690331D03*
D15*
X158550000Y-104750000D03*
D16*
X156010000Y-104750000D03*
X153470000Y-104750000D03*
X150930000Y-104750000D03*
D10*
X110000000Y-110750000D03*
D11*
X110000000Y-113290000D03*
D17*
X191244900Y-67753180D03*
X191244900Y-57750660D03*
D18*
X181250000Y-55253840D03*
X181247460Y-62751920D03*
X181250000Y-70250000D03*
X178748100Y-57755740D03*
X178748100Y-67748100D03*
D10*
X110000000Y-87750000D03*
D11*
X110000000Y-90290000D03*
D12*
X182080000Y-143250000D03*
X182080000Y-109950000D03*
D13*
X180660000Y-136295000D03*
D14*
X180660000Y-133525000D03*
X180660000Y-130755000D03*
X180660000Y-127985000D03*
X180660000Y-125215000D03*
X180660000Y-122445000D03*
X180660000Y-119675000D03*
X180660000Y-116905000D03*
X183500000Y-134910000D03*
X183500000Y-132140000D03*
X183500000Y-129370000D03*
X183500000Y-126600000D03*
X183500000Y-123830000D03*
X183500000Y-121060000D03*
X183500000Y-118290000D03*
D19*
X191500000Y-80970000D03*
D14*
X188960000Y-80970000D03*
D20*
X186420000Y-80970000D03*
D14*
X183880000Y-80970000D03*
X181340000Y-80970000D03*
X178800000Y-80970000D03*
X176260000Y-80970000D03*
D20*
X173720000Y-80970000D03*
D14*
X171180000Y-80970000D03*
X168640000Y-80970000D03*
X166100000Y-80970000D03*
X163560000Y-80970000D03*
D20*
X161020000Y-80970000D03*
D14*
X158480000Y-80970000D03*
X155940000Y-80970000D03*
X153400000Y-80970000D03*
X150860000Y-80970000D03*
D20*
X148320000Y-80970000D03*
D14*
X145780000Y-80970000D03*
X143240000Y-80970000D03*
X143240000Y-98750000D03*
X145780000Y-98750000D03*
D21*
X148320000Y-98750000D03*
D14*
X150860000Y-98750000D03*
X153400000Y-98750000D03*
X155940000Y-98750000D03*
X158480000Y-98750000D03*
D21*
X161020000Y-98750000D03*
D14*
X163560000Y-98750000D03*
X166100000Y-98750000D03*
X168640000Y-98750000D03*
X171180000Y-98750000D03*
D21*
X173720000Y-98750000D03*
D14*
X176260000Y-98750000D03*
X178800000Y-98750000D03*
X181340000Y-98750000D03*
X183880000Y-98750000D03*
D21*
X186420000Y-98750000D03*
D14*
X188960000Y-98750000D03*
X191500000Y-98750000D03*
D10*
X110000000Y-95500000D03*
D11*
X110000000Y-98040000D03*
D10*
X110000000Y-103250000D03*
D11*
X110000000Y-105790000D03*
D15*
X190080000Y-75250000D03*
D16*
X187540000Y-75250000D03*
X185000000Y-75250000D03*
D10*
X110000000Y-118250000D03*
D11*
X110000000Y-120790000D03*
D22*
X165200000Y-116200000D03*
X123575735Y-89424265D03*
X118600000Y-81600000D03*
X160200000Y-70200000D03*
X125800000Y-74000000D03*
X129000000Y-72800000D03*
X161335051Y-71999999D03*
D23*
X171700000Y-119444975D03*
X171800000Y-115200000D03*
X119800000Y-98000000D03*
X160000000Y-128200000D03*
X170400000Y-109600000D03*
X161400000Y-124800000D03*
X123200000Y-84600000D03*
X123400000Y-79200000D03*
X138800000Y-74000000D03*
X157600000Y-75000000D03*
X157600000Y-73000000D03*
X123400000Y-81200000D03*
X169000000Y-75200000D03*
X122400000Y-61000000D03*
X164000000Y-109000000D03*
D22*
X165200000Y-112400000D03*
X129000000Y-71400000D03*
X161000000Y-70800000D03*
X130200000Y-75800000D03*
X117800000Y-57800000D03*
X117800000Y-62400000D03*
X146400000Y-74000000D03*
X130600000Y-76600000D03*
X146400000Y-67000000D03*
X133800000Y-67417157D03*
X132400000Y-66817157D03*
X145600000Y-75800000D03*
X130600000Y-77400000D03*
X145400000Y-67000000D03*
X169000000Y-130200000D03*
X168800000Y-131400000D03*
X168200000Y-132000000D03*
X168200000Y-130650000D03*
X168800000Y-132600000D03*
X165580025Y-129419975D03*
X168200000Y-113800000D03*
D24*
X164660000Y-98294365D02*
X163765635Y-97400000D01*
X163560000Y-82170031D02*
X163560000Y-80970000D01*
X164660000Y-100800000D02*
X164660000Y-98294365D01*
X162600000Y-101800000D02*
X163000000Y-101400000D01*
X164060000Y-101400000D02*
X164660000Y-100800000D01*
X165800000Y-112151471D02*
X164624265Y-110975735D01*
X162530031Y-96730031D02*
X162530031Y-83200000D01*
X163765635Y-97400000D02*
X163200000Y-97400000D01*
X165800000Y-115600000D02*
X165800000Y-112151471D01*
X164624265Y-110975735D02*
X162600000Y-108951470D01*
X163000000Y-101400000D02*
X164060000Y-101400000D01*
X162530031Y-83200000D02*
X163560000Y-82170031D01*
X162600000Y-108951470D02*
X162600000Y-101800000D01*
X163200000Y-97400000D02*
X162530031Y-96730031D01*
X165200000Y-116200000D02*
X165800000Y-115600000D01*
X123200000Y-89048530D02*
X123200000Y-86200000D01*
X123200000Y-86200000D02*
X118600000Y-81600000D01*
X123575735Y-89424265D02*
X123200000Y-89048530D01*
X127600000Y-74000000D02*
X128000000Y-73600000D01*
X128000000Y-73600000D02*
X128000000Y-70985784D01*
X160200000Y-70200000D02*
X128785785Y-70200000D01*
X128785785Y-70200000D02*
X128292892Y-70692892D01*
X128000000Y-70985784D02*
X128292892Y-70692892D01*
X125800000Y-74000000D02*
X127600000Y-74000000D01*
X154800000Y-71800000D02*
X161135052Y-71800000D01*
X161135052Y-71800000D02*
X161335051Y-71999999D01*
X130000000Y-71800000D02*
X154800000Y-71800000D01*
X129000000Y-72800000D02*
X130000000Y-71800000D01*
X165200000Y-112117156D02*
X162130031Y-109047187D01*
X165200000Y-112400000D02*
X165200000Y-112117156D01*
X161200000Y-82400000D02*
X154830000Y-82400000D01*
X154830000Y-82400000D02*
X153400000Y-80970000D01*
X162130031Y-83330031D02*
X161200000Y-82400000D01*
X162130031Y-109047187D02*
X162130031Y-83330031D01*
X166600000Y-71400000D02*
X129000000Y-71400000D01*
X168640000Y-80970000D02*
X168000000Y-80330000D01*
X168000000Y-72800000D02*
X166600000Y-71400000D01*
X168000000Y-80330000D02*
X168000000Y-72800000D01*
X161000000Y-70800000D02*
X128751471Y-70800000D01*
X128751471Y-70800000D02*
X128400000Y-71151471D01*
X128400000Y-71151471D02*
X128400000Y-74000000D01*
X128400000Y-74000000D02*
X130200000Y-75800000D01*
X117800000Y-62400000D02*
X117800000Y-57800000D01*
X181250000Y-55253840D02*
X181250000Y-57445419D01*
X144900000Y-75900000D02*
X144900000Y-75500000D01*
X144900000Y-75500000D02*
X146400000Y-74000000D01*
X146400000Y-67000000D02*
X146590000Y-66810000D01*
X130800000Y-76600000D02*
X131200000Y-77000000D01*
X174065088Y-64630331D02*
X147690000Y-64630331D01*
X146590000Y-66810000D02*
X146590000Y-63530331D01*
X143800000Y-77000000D02*
X144900000Y-75900000D01*
X131200000Y-77000000D02*
X143800000Y-77000000D01*
X130600000Y-76600000D02*
X130800000Y-76600000D01*
X147690000Y-64630331D02*
X146590000Y-63530331D01*
X181250000Y-57445419D02*
X174065088Y-64630331D01*
X138348529Y-67217157D02*
X140565686Y-65000000D01*
X134000000Y-67217157D02*
X138348529Y-67217157D01*
X141780330Y-65000000D02*
X142400000Y-64380330D01*
X142800000Y-62200000D02*
X146465331Y-62200000D01*
X142400000Y-64380330D02*
X142400000Y-62600000D01*
X140565686Y-65000000D02*
X141780330Y-65000000D01*
X133800000Y-67417157D02*
X134000000Y-67217157D01*
X142400000Y-62600000D02*
X142800000Y-62200000D01*
X146465331Y-62200000D02*
X147975000Y-60690331D01*
X138182843Y-66817157D02*
X139590165Y-65409835D01*
X144105000Y-61790331D02*
X145205000Y-60690331D01*
X139590165Y-62790165D02*
X140590000Y-61790331D01*
X139590165Y-65409835D02*
X139590165Y-62790165D01*
X132400000Y-66817157D02*
X138182843Y-66817157D01*
X140590000Y-61790331D02*
X144105000Y-61790331D01*
X144000000Y-77400000D02*
X145600000Y-75800000D01*
X145400000Y-67000000D02*
X145400000Y-64600000D01*
X144330331Y-63530331D02*
X143820000Y-63530331D01*
X145400000Y-64600000D02*
X144330331Y-63530331D01*
X130600000Y-77400000D02*
X144000000Y-77400000D01*
X169830000Y-129370000D02*
X183500000Y-129370000D01*
X169000000Y-130200000D02*
X169830000Y-129370000D01*
X183955635Y-130470000D02*
X184800000Y-129625635D01*
X179400000Y-130200000D02*
X179400000Y-131200000D01*
X179400000Y-131200000D02*
X180200000Y-132000000D01*
X178970000Y-129770000D02*
X179400000Y-130200000D01*
X170430000Y-129770000D02*
X178970000Y-129770000D01*
X182800000Y-130470000D02*
X183955635Y-130470000D01*
X184800000Y-125130000D02*
X183500000Y-123830000D01*
X184800000Y-129625635D02*
X184800000Y-125130000D01*
X180200000Y-132000000D02*
X181270000Y-132000000D01*
X181270000Y-132000000D02*
X182800000Y-130470000D01*
X168800000Y-131400000D02*
X170430000Y-129770000D01*
X168200000Y-132000000D02*
X167600000Y-131400000D01*
X181576370Y-124115000D02*
X183500000Y-122191370D01*
X179000000Y-128200000D02*
X179000000Y-125200000D01*
X179000000Y-125200000D02*
X180085000Y-124115000D01*
X169257821Y-128527964D02*
X169310050Y-128475735D01*
X180085000Y-124115000D02*
X181576370Y-124115000D01*
X169310050Y-128475735D02*
X178724265Y-128475735D01*
X169192893Y-128592893D02*
X169257821Y-128527964D01*
X167600000Y-131400000D02*
X167600000Y-130185785D01*
X167600000Y-130185785D02*
X169192893Y-128592893D01*
X178724265Y-128475735D02*
X179000000Y-128200000D01*
X183500000Y-122191370D02*
X183500000Y-121060000D01*
X179400000Y-128600000D02*
X179400000Y-127400000D01*
X180200000Y-126600000D02*
X183500000Y-126600000D01*
X169475735Y-128875735D02*
X179124265Y-128875735D01*
X169375735Y-128975735D02*
X169475735Y-128875735D01*
X179400000Y-127400000D02*
X180200000Y-126600000D01*
X168200000Y-130650000D02*
X168200000Y-130151471D01*
X179124265Y-128875735D02*
X179400000Y-128600000D01*
X168200000Y-130151471D02*
X169375735Y-128975735D01*
X179400000Y-122149365D02*
X180349365Y-121200000D01*
X178600000Y-124800000D02*
X179400000Y-124000000D01*
X167200000Y-130020099D02*
X168810050Y-128410050D01*
X179400000Y-124000000D02*
X179400000Y-122149365D01*
X167200000Y-131848529D02*
X167200000Y-130020099D01*
X183500000Y-119421370D02*
X183500000Y-118290000D01*
X168810050Y-128410049D02*
X169144364Y-128075735D01*
X169144364Y-128075735D02*
X178000000Y-128075735D01*
X168800000Y-132600000D02*
X167951471Y-132600000D01*
X180349365Y-121200000D02*
X181721370Y-121200000D01*
X167951471Y-132600000D02*
X167200000Y-131848529D01*
X178600000Y-127475735D02*
X178600000Y-124800000D01*
X181721370Y-121200000D02*
X183500000Y-119421370D01*
X168810050Y-128410050D02*
X168810050Y-128410049D01*
X178000000Y-128075735D02*
X178600000Y-127475735D01*
X168200000Y-128454413D02*
X168200000Y-113800000D01*
X165580025Y-129419975D02*
X167234438Y-129419975D01*
X167234438Y-129419975D02*
X168200000Y-128454413D01*
G04 #@! TA.AperFunction,Conductor*
G36*
X192442539Y-51520185D02*
G01*
X192488294Y-51572989D01*
X192499500Y-51624500D01*
X192499500Y-56253162D01*
X192479815Y-56320201D01*
X192427011Y-56365956D01*
X192357853Y-56375900D01*
X192305648Y-56355616D01*
X192122444Y-56230709D01*
X192122440Y-56230707D01*
X192122437Y-56230705D01*
X192122436Y-56230704D01*
X191886108Y-56116896D01*
X191886110Y-56116896D01*
X191635445Y-56039576D01*
X191635439Y-56039574D01*
X191376065Y-56000480D01*
X191376058Y-56000480D01*
X191113742Y-56000480D01*
X191113734Y-56000480D01*
X190854360Y-56039574D01*
X190854354Y-56039576D01*
X190603690Y-56116896D01*
X190367363Y-56230704D01*
X190367362Y-56230705D01*
X190367356Y-56230708D01*
X190367356Y-56230709D01*
X190359261Y-56236228D01*
X190150620Y-56378477D01*
X189958331Y-56556895D01*
X189958329Y-56556897D01*
X189794778Y-56761984D01*
X189663620Y-56989155D01*
X189567785Y-57233336D01*
X189509414Y-57489082D01*
X189509413Y-57489087D01*
X189489812Y-57750655D01*
X189489812Y-57750664D01*
X189509413Y-58012232D01*
X189509414Y-58012237D01*
X189567785Y-58267983D01*
X189663620Y-58512164D01*
X189663619Y-58512164D01*
X189746770Y-58656184D01*
X189794778Y-58739336D01*
X189958329Y-58944423D01*
X190150621Y-59122843D01*
X190367356Y-59270611D01*
X190367361Y-59270613D01*
X190367362Y-59270614D01*
X190367363Y-59270615D01*
X190492881Y-59331060D01*
X190603690Y-59384423D01*
X190603691Y-59384423D01*
X190603694Y-59384425D01*
X190854356Y-59461744D01*
X190854357Y-59461744D01*
X190854360Y-59461745D01*
X191113734Y-59500839D01*
X191113739Y-59500839D01*
X191113742Y-59500840D01*
X191113743Y-59500840D01*
X191376057Y-59500840D01*
X191376058Y-59500840D01*
X191376065Y-59500839D01*
X191635439Y-59461745D01*
X191635440Y-59461744D01*
X191635444Y-59461744D01*
X191886106Y-59384425D01*
X192122444Y-59270611D01*
X192305648Y-59145703D01*
X192372127Y-59124203D01*
X192439677Y-59142057D01*
X192486852Y-59193597D01*
X192499500Y-59248157D01*
X192499500Y-66255682D01*
X192479815Y-66322721D01*
X192427011Y-66368476D01*
X192357853Y-66378420D01*
X192305648Y-66358136D01*
X192253704Y-66322721D01*
X192122444Y-66233229D01*
X192122440Y-66233227D01*
X192122437Y-66233225D01*
X192122436Y-66233224D01*
X191886108Y-66119416D01*
X191886110Y-66119416D01*
X191635445Y-66042096D01*
X191635439Y-66042094D01*
X191376065Y-66003000D01*
X191376058Y-66003000D01*
X191113742Y-66003000D01*
X191113734Y-66003000D01*
X190854360Y-66042094D01*
X190854354Y-66042096D01*
X190603690Y-66119416D01*
X190367363Y-66233224D01*
X190367362Y-66233225D01*
X190150620Y-66380997D01*
X189958331Y-66559415D01*
X189958329Y-66559417D01*
X189794778Y-66764504D01*
X189663620Y-66991675D01*
X189567785Y-67235856D01*
X189509414Y-67491602D01*
X189509413Y-67491607D01*
X189489812Y-67753175D01*
X189489812Y-67753184D01*
X189509413Y-68014752D01*
X189509414Y-68014757D01*
X189567785Y-68270503D01*
X189663620Y-68514684D01*
X189663619Y-68514684D01*
X189722251Y-68616236D01*
X189794778Y-68741856D01*
X189958329Y-68946943D01*
X190150621Y-69125363D01*
X190367356Y-69273131D01*
X190367361Y-69273133D01*
X190367362Y-69273134D01*
X190367363Y-69273135D01*
X190458094Y-69316828D01*
X190603690Y-69386943D01*
X190603691Y-69386943D01*
X190603694Y-69386945D01*
X190854356Y-69464264D01*
X190854357Y-69464264D01*
X190854360Y-69464265D01*
X191113734Y-69503359D01*
X191113739Y-69503359D01*
X191113742Y-69503360D01*
X191113743Y-69503360D01*
X191376057Y-69503360D01*
X191376058Y-69503360D01*
X191409762Y-69498280D01*
X191635439Y-69464265D01*
X191635440Y-69464264D01*
X191635444Y-69464264D01*
X191886106Y-69386945D01*
X192122444Y-69273131D01*
X192305648Y-69148223D01*
X192372127Y-69126723D01*
X192439677Y-69144577D01*
X192486852Y-69196117D01*
X192499500Y-69250677D01*
X192499500Y-79592246D01*
X192479815Y-79659285D01*
X192427011Y-79705040D01*
X192357853Y-79714984D01*
X192338617Y-79710633D01*
X192227196Y-79675914D01*
X192227194Y-79675913D01*
X192227192Y-79675913D01*
X192177778Y-79671423D01*
X192156616Y-79669500D01*
X190843384Y-79669500D01*
X190827109Y-79670979D01*
X190772807Y-79675913D01*
X190610393Y-79726522D01*
X190464811Y-79814530D01*
X190344530Y-79934811D01*
X190256521Y-80080396D01*
X190229456Y-80167251D01*
X190190719Y-80225398D01*
X190126693Y-80253372D01*
X190057708Y-80242290D01*
X190009497Y-80201483D01*
X189960047Y-80130861D01*
X189960046Y-80130860D01*
X189960044Y-80130857D01*
X189799141Y-79969954D01*
X189612734Y-79839432D01*
X189612732Y-79839431D01*
X189406497Y-79743261D01*
X189406488Y-79743258D01*
X189186697Y-79684366D01*
X189186693Y-79684365D01*
X189186692Y-79684365D01*
X189186691Y-79684364D01*
X189186686Y-79684364D01*
X188960002Y-79664532D01*
X188959998Y-79664532D01*
X188733313Y-79684364D01*
X188733302Y-79684366D01*
X188513511Y-79743258D01*
X188513502Y-79743261D01*
X188307267Y-79839431D01*
X188307265Y-79839432D01*
X188120858Y-79969954D01*
X187959954Y-80130858D01*
X187829432Y-80317265D01*
X187829430Y-80317269D01*
X187805589Y-80368395D01*
X187759416Y-80420833D01*
X187692222Y-80439984D01*
X187625341Y-80419767D01*
X187581487Y-80369788D01*
X187572928Y-80352015D01*
X187572926Y-80352012D01*
X187502932Y-80240619D01*
X186902962Y-80840589D01*
X186885925Y-80777007D01*
X186820099Y-80662993D01*
X186727007Y-80569901D01*
X186612993Y-80504075D01*
X186549409Y-80487037D01*
X187149380Y-79887065D01*
X187149379Y-79887064D01*
X187037981Y-79817069D01*
X187037980Y-79817068D01*
X186936094Y-79768002D01*
X186765933Y-79708461D01*
X186765927Y-79708459D01*
X186655689Y-79683298D01*
X186655673Y-79683296D01*
X186476547Y-79663113D01*
X186363453Y-79663113D01*
X186184326Y-79683296D01*
X186184310Y-79683298D01*
X186074072Y-79708459D01*
X186074066Y-79708461D01*
X185903905Y-79768002D01*
X185802029Y-79817063D01*
X185690618Y-79887065D01*
X186290591Y-80487037D01*
X186227007Y-80504075D01*
X186112993Y-80569901D01*
X186019901Y-80662993D01*
X185954075Y-80777007D01*
X185937037Y-80840589D01*
X185337066Y-80240618D01*
X185267065Y-80352024D01*
X185258508Y-80369793D01*
X185211683Y-80421651D01*
X185144255Y-80439961D01*
X185077632Y-80418910D01*
X185034408Y-80368391D01*
X185020636Y-80338857D01*
X185010568Y-80317266D01*
X184880047Y-80130861D01*
X184880045Y-80130858D01*
X184719141Y-79969954D01*
X184532734Y-79839432D01*
X184532732Y-79839431D01*
X184326497Y-79743261D01*
X184326488Y-79743258D01*
X184106697Y-79684366D01*
X184106693Y-79684365D01*
X184106692Y-79684365D01*
X184106691Y-79684364D01*
X184106686Y-79684364D01*
X183880002Y-79664532D01*
X183879998Y-79664532D01*
X183653313Y-79684364D01*
X183653302Y-79684366D01*
X183433511Y-79743258D01*
X183433502Y-79743261D01*
X183227267Y-79839431D01*
X183227265Y-79839432D01*
X183040858Y-79969954D01*
X182879954Y-80130858D01*
X182749432Y-80317265D01*
X182749431Y-80317267D01*
X182733228Y-80352015D01*
X182724941Y-80369788D01*
X182722382Y-80375275D01*
X182676209Y-80427714D01*
X182609016Y-80446866D01*
X182542135Y-80426650D01*
X182497618Y-80375275D01*
X182495062Y-80369793D01*
X182470568Y-80317266D01*
X182340047Y-80130861D01*
X182340045Y-80130858D01*
X182179141Y-79969954D01*
X181992734Y-79839432D01*
X181992732Y-79839431D01*
X181786497Y-79743261D01*
X181786488Y-79743258D01*
X181566697Y-79684366D01*
X181566693Y-79684365D01*
X181566692Y-79684365D01*
X181566691Y-79684364D01*
X181566686Y-79684364D01*
X181340002Y-79664532D01*
X181339998Y-79664532D01*
X181113313Y-79684364D01*
X181113302Y-79684366D01*
X180893511Y-79743258D01*
X180893502Y-79743261D01*
X180687267Y-79839431D01*
X180687265Y-79839432D01*
X180500858Y-79969954D01*
X180339954Y-80130858D01*
X180209432Y-80317265D01*
X180209431Y-80317267D01*
X180193228Y-80352015D01*
X180184941Y-80369788D01*
X180182382Y-80375275D01*
X180136209Y-80427714D01*
X180069016Y-80446866D01*
X180002135Y-80426650D01*
X179957618Y-80375275D01*
X179955062Y-80369793D01*
X179930568Y-80317266D01*
X179800047Y-80130861D01*
X179800045Y-80130858D01*
X179639141Y-79969954D01*
X179452734Y-79839432D01*
X179452732Y-79839431D01*
X179246497Y-79743261D01*
X179246488Y-79743258D01*
X179026697Y-79684366D01*
X179026693Y-79684365D01*
X179026692Y-79684365D01*
X179026691Y-79684364D01*
X179026686Y-79684364D01*
X178800002Y-79664532D01*
X178799998Y-79664532D01*
X178573313Y-79684364D01*
X178573302Y-79684366D01*
X178353511Y-79743258D01*
X178353502Y-79743261D01*
X178147267Y-79839431D01*
X178147265Y-79839432D01*
X177960858Y-79969954D01*
X177799954Y-80130858D01*
X177669432Y-80317265D01*
X177669431Y-80317267D01*
X177653228Y-80352015D01*
X177644941Y-80369788D01*
X177642382Y-80375275D01*
X177596209Y-80427714D01*
X177529016Y-80446866D01*
X177462135Y-80426650D01*
X177417618Y-80375275D01*
X177415062Y-80369793D01*
X177390568Y-80317266D01*
X177260047Y-80130861D01*
X177260045Y-80130858D01*
X177099141Y-79969954D01*
X176912734Y-79839432D01*
X176912732Y-79839431D01*
X176706497Y-79743261D01*
X176706488Y-79743258D01*
X176486697Y-79684366D01*
X176486693Y-79684365D01*
X176486692Y-79684365D01*
X176486691Y-79684364D01*
X176486686Y-79684364D01*
X176260002Y-79664532D01*
X176259998Y-79664532D01*
X176033313Y-79684364D01*
X176033302Y-79684366D01*
X175813511Y-79743258D01*
X175813502Y-79743261D01*
X175607267Y-79839431D01*
X175607265Y-79839432D01*
X175420858Y-79969954D01*
X175259954Y-80130858D01*
X175129432Y-80317265D01*
X175129430Y-80317269D01*
X175105589Y-80368395D01*
X175059416Y-80420833D01*
X174992222Y-80439984D01*
X174925341Y-80419767D01*
X174881487Y-80369788D01*
X174872928Y-80352015D01*
X174872926Y-80352012D01*
X174802932Y-80240619D01*
X174202962Y-80840589D01*
X174185925Y-80777007D01*
X174120099Y-80662993D01*
X174027007Y-80569901D01*
X173912993Y-80504075D01*
X173849409Y-80487037D01*
X174449380Y-79887065D01*
X174449379Y-79887064D01*
X174337981Y-79817069D01*
X174337980Y-79817068D01*
X174236094Y-79768002D01*
X174065933Y-79708461D01*
X174065927Y-79708459D01*
X173955689Y-79683298D01*
X173955673Y-79683296D01*
X173776547Y-79663113D01*
X173663453Y-79663113D01*
X173484326Y-79683296D01*
X173484310Y-79683298D01*
X173374072Y-79708459D01*
X173374066Y-79708461D01*
X173203905Y-79768002D01*
X173102029Y-79817063D01*
X172990618Y-79887065D01*
X173590591Y-80487037D01*
X173527007Y-80504075D01*
X173412993Y-80569901D01*
X173319901Y-80662993D01*
X173254075Y-80777007D01*
X173237037Y-80840590D01*
X172637066Y-80240619D01*
X172567065Y-80352024D01*
X172558508Y-80369793D01*
X172511683Y-80421651D01*
X172444255Y-80439961D01*
X172377632Y-80418910D01*
X172334408Y-80368391D01*
X172320636Y-80338857D01*
X172310568Y-80317266D01*
X172180047Y-80130861D01*
X172180045Y-80130858D01*
X172019141Y-79969954D01*
X171832734Y-79839432D01*
X171832732Y-79839431D01*
X171626497Y-79743261D01*
X171626488Y-79743258D01*
X171406697Y-79684366D01*
X171406693Y-79684365D01*
X171406692Y-79684365D01*
X171406691Y-79684364D01*
X171406686Y-79684364D01*
X171180002Y-79664532D01*
X171179998Y-79664532D01*
X170953313Y-79684364D01*
X170953302Y-79684366D01*
X170733511Y-79743258D01*
X170733502Y-79743261D01*
X170527267Y-79839431D01*
X170527265Y-79839432D01*
X170340858Y-79969954D01*
X170179954Y-80130858D01*
X170049432Y-80317265D01*
X170049431Y-80317267D01*
X170033228Y-80352015D01*
X170024941Y-80369788D01*
X170022382Y-80375275D01*
X169976209Y-80427714D01*
X169909016Y-80446866D01*
X169842135Y-80426650D01*
X169797618Y-80375275D01*
X169795062Y-80369793D01*
X169770568Y-80317266D01*
X169640047Y-80130861D01*
X169640045Y-80130858D01*
X169479141Y-79969954D01*
X169292734Y-79839432D01*
X169292732Y-79839431D01*
X169086497Y-79743261D01*
X169086488Y-79743258D01*
X168866697Y-79684366D01*
X168866687Y-79684364D01*
X168713692Y-79670979D01*
X168648624Y-79645526D01*
X168607645Y-79588935D01*
X168600500Y-79547451D01*
X168600500Y-76188828D01*
X168620185Y-76121789D01*
X168672989Y-76076034D01*
X168742147Y-76066090D01*
X168750266Y-76067535D01*
X168905354Y-76100500D01*
X168905355Y-76100500D01*
X169094644Y-76100500D01*
X169094646Y-76100500D01*
X169279803Y-76061144D01*
X169452730Y-75984151D01*
X169605871Y-75872888D01*
X169732533Y-75732216D01*
X169827179Y-75568284D01*
X169885674Y-75388256D01*
X169905460Y-75200000D01*
X169885674Y-75011744D01*
X169881858Y-74999999D01*
X183669364Y-74999999D01*
X183669364Y-75000000D01*
X184566988Y-75000000D01*
X184534075Y-75057007D01*
X184500000Y-75184174D01*
X184500000Y-75315826D01*
X184534075Y-75442993D01*
X184566988Y-75500000D01*
X183669364Y-75500000D01*
X183726567Y-75713486D01*
X183726570Y-75713492D01*
X183826399Y-75927578D01*
X183961894Y-76121082D01*
X184128917Y-76288105D01*
X184322421Y-76423600D01*
X184536507Y-76523429D01*
X184536516Y-76523433D01*
X184750000Y-76580634D01*
X184750000Y-75683012D01*
X184807007Y-75715925D01*
X184934174Y-75750000D01*
X185065826Y-75750000D01*
X185192993Y-75715925D01*
X185250000Y-75683012D01*
X185250000Y-76580633D01*
X185463483Y-76523433D01*
X185463492Y-76523429D01*
X185677578Y-76423600D01*
X185871082Y-76288105D01*
X186038105Y-76121082D01*
X186168119Y-75935405D01*
X186222696Y-75891781D01*
X186292195Y-75884588D01*
X186354549Y-75916110D01*
X186371269Y-75935405D01*
X186501505Y-76121401D01*
X186668599Y-76288495D01*
X186765384Y-76356265D01*
X186862165Y-76424032D01*
X186862167Y-76424033D01*
X186862170Y-76424035D01*
X187076337Y-76523903D01*
X187076343Y-76523904D01*
X187076344Y-76523905D01*
X187131285Y-76538626D01*
X187304592Y-76585063D01*
X187481034Y-76600500D01*
X187539999Y-76605659D01*
X187540000Y-76605659D01*
X187540001Y-76605659D01*
X187598966Y-76600500D01*
X187775408Y-76585063D01*
X188003663Y-76523903D01*
X188217830Y-76424035D01*
X188411401Y-76288495D01*
X188533329Y-76166566D01*
X188594648Y-76133084D01*
X188664340Y-76138068D01*
X188720274Y-76179939D01*
X188737189Y-76210917D01*
X188786202Y-76342328D01*
X188786206Y-76342335D01*
X188872452Y-76457544D01*
X188872455Y-76457547D01*
X188987664Y-76543793D01*
X188987671Y-76543797D01*
X189122517Y-76594091D01*
X189122516Y-76594091D01*
X189129444Y-76594835D01*
X189182127Y-76600500D01*
X190977872Y-76600499D01*
X191037483Y-76594091D01*
X191172331Y-76543796D01*
X191287546Y-76457546D01*
X191373796Y-76342331D01*
X191424091Y-76207483D01*
X191430500Y-76147873D01*
X191430499Y-74352128D01*
X191424091Y-74292517D01*
X191422810Y-74289083D01*
X191373797Y-74157671D01*
X191373793Y-74157664D01*
X191287547Y-74042455D01*
X191287544Y-74042452D01*
X191172335Y-73956206D01*
X191172328Y-73956202D01*
X191037482Y-73905908D01*
X191037483Y-73905908D01*
X190977883Y-73899501D01*
X190977881Y-73899500D01*
X190977873Y-73899500D01*
X190977864Y-73899500D01*
X189182129Y-73899500D01*
X189182123Y-73899501D01*
X189122516Y-73905908D01*
X188987671Y-73956202D01*
X188987664Y-73956206D01*
X188872455Y-74042452D01*
X188872452Y-74042455D01*
X188786206Y-74157664D01*
X188786203Y-74157669D01*
X188737189Y-74289083D01*
X188695317Y-74345016D01*
X188629853Y-74369433D01*
X188561580Y-74354581D01*
X188533326Y-74333430D01*
X188411402Y-74211506D01*
X188411395Y-74211501D01*
X188217834Y-74075967D01*
X188217830Y-74075965D01*
X188217828Y-74075964D01*
X188003663Y-73976097D01*
X188003659Y-73976096D01*
X188003655Y-73976094D01*
X187775413Y-73914938D01*
X187775403Y-73914936D01*
X187540001Y-73894341D01*
X187539999Y-73894341D01*
X187304596Y-73914936D01*
X187304586Y-73914938D01*
X187076344Y-73976094D01*
X187076335Y-73976098D01*
X186862171Y-74075964D01*
X186862169Y-74075965D01*
X186668597Y-74211505D01*
X186501508Y-74378594D01*
X186371269Y-74564595D01*
X186316692Y-74608219D01*
X186247193Y-74615412D01*
X186184839Y-74583890D01*
X186168119Y-74564594D01*
X186038113Y-74378926D01*
X186038108Y-74378920D01*
X185871082Y-74211894D01*
X185677578Y-74076399D01*
X185463492Y-73976570D01*
X185463486Y-73976567D01*
X185250000Y-73919364D01*
X185250000Y-74816988D01*
X185192993Y-74784075D01*
X185065826Y-74750000D01*
X184934174Y-74750000D01*
X184807007Y-74784075D01*
X184750000Y-74816988D01*
X184750000Y-73919364D01*
X184749999Y-73919364D01*
X184536513Y-73976567D01*
X184536507Y-73976570D01*
X184322422Y-74076399D01*
X184322420Y-74076400D01*
X184128926Y-74211886D01*
X184128920Y-74211891D01*
X183961891Y-74378920D01*
X183961886Y-74378926D01*
X183826400Y-74572420D01*
X183826399Y-74572422D01*
X183726570Y-74786507D01*
X183726567Y-74786513D01*
X183669364Y-74999999D01*
X169881858Y-74999999D01*
X169827179Y-74831716D01*
X169732533Y-74667784D01*
X169605871Y-74527112D01*
X169605870Y-74527111D01*
X169452734Y-74415851D01*
X169452729Y-74415848D01*
X169279807Y-74338857D01*
X169279802Y-74338855D01*
X169134001Y-74307865D01*
X169094646Y-74299500D01*
X168905354Y-74299500D01*
X168905352Y-74299500D01*
X168750280Y-74332461D01*
X168680613Y-74327145D01*
X168624880Y-74285007D01*
X168600775Y-74219427D01*
X168600500Y-74211171D01*
X168600500Y-72889059D01*
X168600501Y-72889046D01*
X168600501Y-72720945D01*
X168600501Y-72720943D01*
X168559577Y-72568215D01*
X168521498Y-72502261D01*
X168521498Y-72502260D01*
X168480522Y-72431287D01*
X168480521Y-72431286D01*
X168480520Y-72431284D01*
X168368716Y-72319480D01*
X168368715Y-72319479D01*
X168364385Y-72315149D01*
X168364374Y-72315139D01*
X167087590Y-71038355D01*
X167087588Y-71038352D01*
X166968717Y-70919481D01*
X166968709Y-70919475D01*
X166866936Y-70860717D01*
X166866934Y-70860716D01*
X166831790Y-70840425D01*
X166831789Y-70840424D01*
X166819263Y-70837067D01*
X166679057Y-70799499D01*
X166520943Y-70799499D01*
X166513347Y-70799499D01*
X166513331Y-70799500D01*
X161916322Y-70799500D01*
X161849283Y-70779815D01*
X161803528Y-70727011D01*
X161793102Y-70689383D01*
X161785369Y-70620750D01*
X161785368Y-70620748D01*
X161785368Y-70620745D01*
X161725789Y-70450478D01*
X161629816Y-70297738D01*
X161502262Y-70170184D01*
X161349523Y-70074211D01*
X161179254Y-70014631D01*
X161179250Y-70014630D01*
X161052607Y-70000361D01*
X160988193Y-69973294D01*
X160949449Y-69918095D01*
X160925788Y-69850476D01*
X160829815Y-69697737D01*
X160702262Y-69570184D01*
X160549523Y-69474211D01*
X160379254Y-69414631D01*
X160379249Y-69414630D01*
X160200004Y-69394435D01*
X160199996Y-69394435D01*
X160020750Y-69414630D01*
X160020745Y-69414631D01*
X159850476Y-69474211D01*
X159697736Y-69570185D01*
X159694903Y-69572445D01*
X159692724Y-69573334D01*
X159691842Y-69573889D01*
X159691744Y-69573734D01*
X159630217Y-69598855D01*
X159617588Y-69599500D01*
X128706728Y-69599500D01*
X128554001Y-69640423D01*
X128553994Y-69640426D01*
X128417075Y-69719475D01*
X128417067Y-69719481D01*
X127924176Y-70212373D01*
X127631286Y-70505262D01*
X127519481Y-70617066D01*
X127519475Y-70617074D01*
X127470294Y-70702260D01*
X127470294Y-70702261D01*
X127440423Y-70753998D01*
X127440423Y-70753999D01*
X127399499Y-70906727D01*
X127399499Y-70906729D01*
X127399499Y-71074830D01*
X127399500Y-71074843D01*
X127399500Y-73275500D01*
X127379815Y-73342539D01*
X127327011Y-73388294D01*
X127275500Y-73399500D01*
X126382412Y-73399500D01*
X126315373Y-73379815D01*
X126305097Y-73372445D01*
X126302263Y-73370185D01*
X126302262Y-73370184D01*
X126194165Y-73302262D01*
X126149523Y-73274211D01*
X125979254Y-73214631D01*
X125979249Y-73214630D01*
X125800004Y-73194435D01*
X125799996Y-73194435D01*
X125620750Y-73214630D01*
X125620745Y-73214631D01*
X125450476Y-73274211D01*
X125297737Y-73370184D01*
X125170184Y-73497737D01*
X125074211Y-73650476D01*
X125014631Y-73820745D01*
X125014630Y-73820750D01*
X124994435Y-73999996D01*
X124994435Y-74000003D01*
X125014630Y-74179249D01*
X125014631Y-74179254D01*
X125074211Y-74349523D01*
X125156523Y-74480521D01*
X125170184Y-74502262D01*
X125297738Y-74629816D01*
X125450478Y-74725789D01*
X125617050Y-74784075D01*
X125620745Y-74785368D01*
X125620750Y-74785369D01*
X125799996Y-74805565D01*
X125800000Y-74805565D01*
X125800004Y-74805565D01*
X125979249Y-74785369D01*
X125979252Y-74785368D01*
X125979255Y-74785368D01*
X126149522Y-74725789D01*
X126302262Y-74629816D01*
X126302267Y-74629810D01*
X126305097Y-74627555D01*
X126307275Y-74626665D01*
X126308158Y-74626111D01*
X126308255Y-74626265D01*
X126369783Y-74601145D01*
X126382412Y-74600500D01*
X127513331Y-74600500D01*
X127513347Y-74600501D01*
X127520943Y-74600501D01*
X127679054Y-74600501D01*
X127679057Y-74600501D01*
X127831785Y-74559577D01*
X127881904Y-74530639D01*
X127925984Y-74505190D01*
X127993881Y-74488718D01*
X128059908Y-74511571D01*
X128075662Y-74524897D01*
X129369298Y-75818533D01*
X129402783Y-75879856D01*
X129404837Y-75892330D01*
X129414630Y-75979249D01*
X129474210Y-76149521D01*
X129546061Y-76263871D01*
X129570184Y-76302262D01*
X129697738Y-76429816D01*
X129739978Y-76456357D01*
X129786268Y-76508690D01*
X129797225Y-76575233D01*
X129794435Y-76599996D01*
X129794435Y-76600003D01*
X129814630Y-76779249D01*
X129814633Y-76779262D01*
X129876510Y-76956094D01*
X129874364Y-76956844D01*
X129883962Y-77015144D01*
X129875609Y-77043590D01*
X129876510Y-77043906D01*
X129814633Y-77220737D01*
X129814630Y-77220750D01*
X129794435Y-77399996D01*
X129794435Y-77400003D01*
X129814630Y-77579249D01*
X129814631Y-77579254D01*
X129874211Y-77749523D01*
X129970184Y-77902262D01*
X130097738Y-78029816D01*
X130250478Y-78125789D01*
X130420745Y-78185368D01*
X130420750Y-78185369D01*
X130599996Y-78205565D01*
X130600000Y-78205565D01*
X130600004Y-78205565D01*
X130779249Y-78185369D01*
X130779252Y-78185368D01*
X130779255Y-78185368D01*
X130949522Y-78125789D01*
X131102262Y-78029816D01*
X131102267Y-78029810D01*
X131105097Y-78027555D01*
X131107275Y-78026665D01*
X131108158Y-78026111D01*
X131108255Y-78026265D01*
X131169783Y-78001145D01*
X131182412Y-78000500D01*
X143913331Y-78000500D01*
X143913347Y-78000501D01*
X143920943Y-78000501D01*
X144079054Y-78000501D01*
X144079057Y-78000501D01*
X144231785Y-77959577D01*
X144281904Y-77930639D01*
X144368716Y-77880520D01*
X144480520Y-77768716D01*
X144480520Y-77768714D01*
X144490728Y-77758507D01*
X144490729Y-77758504D01*
X145618536Y-76630698D01*
X145679857Y-76597215D01*
X145692310Y-76595163D01*
X145779255Y-76585368D01*
X145949522Y-76525789D01*
X146102262Y-76429816D01*
X146229816Y-76302262D01*
X146325789Y-76149522D01*
X146385368Y-75979255D01*
X146386390Y-75970184D01*
X146405565Y-75800003D01*
X146405565Y-75799996D01*
X146385369Y-75620750D01*
X146385368Y-75620745D01*
X146343117Y-75500000D01*
X146325789Y-75450478D01*
X146229816Y-75297738D01*
X146178337Y-75246259D01*
X146144852Y-75184936D01*
X146149836Y-75115244D01*
X146178337Y-75070897D01*
X146279936Y-74969298D01*
X146418535Y-74830698D01*
X146479856Y-74797215D01*
X146492311Y-74795163D01*
X146579255Y-74785368D01*
X146749522Y-74725789D01*
X146902262Y-74629816D01*
X147029816Y-74502262D01*
X147125789Y-74349522D01*
X147185368Y-74179255D01*
X147205565Y-74000000D01*
X147202925Y-73976570D01*
X147185369Y-73820750D01*
X147185368Y-73820745D01*
X147157470Y-73741017D01*
X147125789Y-73650478D01*
X147097532Y-73605508D01*
X147051480Y-73532216D01*
X147029816Y-73497738D01*
X146902262Y-73370184D01*
X146872153Y-73351265D01*
X146749523Y-73274211D01*
X146579254Y-73214631D01*
X146579249Y-73214630D01*
X146400004Y-73194435D01*
X146399996Y-73194435D01*
X146220750Y-73214630D01*
X146220745Y-73214631D01*
X146050476Y-73274211D01*
X145897737Y-73370184D01*
X145770184Y-73497737D01*
X145674210Y-73650478D01*
X145614630Y-73820750D01*
X145604837Y-73907668D01*
X145577770Y-73972082D01*
X145569298Y-73981465D01*
X144531286Y-75019478D01*
X144419481Y-75131282D01*
X144419480Y-75131284D01*
X144379807Y-75200000D01*
X144340423Y-75268215D01*
X144299499Y-75420943D01*
X144299499Y-75420945D01*
X144299499Y-75589046D01*
X144299500Y-75589059D01*
X144299500Y-75599903D01*
X144279815Y-75666942D01*
X144263181Y-75687584D01*
X143587584Y-76363181D01*
X143526261Y-76396666D01*
X143499903Y-76399500D01*
X131500097Y-76399500D01*
X131433058Y-76379815D01*
X131412416Y-76363181D01*
X131359837Y-76310602D01*
X131330475Y-76263871D01*
X131325789Y-76250479D01*
X131325789Y-76250478D01*
X131229816Y-76097738D01*
X131102262Y-75970184D01*
X131102260Y-75970182D01*
X131102258Y-75970181D01*
X131060021Y-75943641D01*
X131013731Y-75891306D01*
X131002774Y-75824764D01*
X131005565Y-75800000D01*
X130999931Y-75750000D01*
X130985369Y-75620750D01*
X130985368Y-75620745D01*
X130943117Y-75500000D01*
X130925789Y-75450478D01*
X130829816Y-75297738D01*
X130702262Y-75170184D01*
X130614826Y-75115244D01*
X130549521Y-75074210D01*
X130379249Y-75014630D01*
X130292330Y-75004837D01*
X130227916Y-74977770D01*
X130218533Y-74969298D01*
X129051575Y-73802340D01*
X129018090Y-73741017D01*
X129023074Y-73671325D01*
X129064946Y-73615392D01*
X129125374Y-73591439D01*
X129179249Y-73585369D01*
X129179252Y-73585368D01*
X129179255Y-73585368D01*
X129349522Y-73525789D01*
X129502262Y-73429816D01*
X129629816Y-73302262D01*
X129725789Y-73149522D01*
X129785368Y-72979255D01*
X129795161Y-72892329D01*
X129822226Y-72827918D01*
X129830680Y-72818553D01*
X130212418Y-72436816D01*
X130273740Y-72403334D01*
X130300098Y-72400500D01*
X154720943Y-72400500D01*
X156691540Y-72400500D01*
X156758579Y-72420185D01*
X156804334Y-72472989D01*
X156814278Y-72542147D01*
X156798927Y-72586497D01*
X156785832Y-72609180D01*
X156772821Y-72631715D01*
X156772818Y-72631722D01*
X156722896Y-72785367D01*
X156714326Y-72811744D01*
X156694540Y-73000000D01*
X156714326Y-73188256D01*
X156714327Y-73188259D01*
X156772818Y-73368277D01*
X156772821Y-73368284D01*
X156867467Y-73532216D01*
X156973949Y-73650476D01*
X156994129Y-73672888D01*
X157147265Y-73784148D01*
X157147270Y-73784151D01*
X157320192Y-73861142D01*
X157320197Y-73861144D01*
X157505354Y-73900500D01*
X157505355Y-73900500D01*
X157694644Y-73900500D01*
X157694646Y-73900500D01*
X157879803Y-73861144D01*
X158052730Y-73784151D01*
X158205871Y-73672888D01*
X158332533Y-73532216D01*
X158427179Y-73368284D01*
X158485674Y-73188256D01*
X158505460Y-73000000D01*
X158485674Y-72811744D01*
X158427179Y-72631716D01*
X158401072Y-72586498D01*
X158384600Y-72518600D01*
X158407452Y-72452573D01*
X158462374Y-72409383D01*
X158508460Y-72400500D01*
X160572762Y-72400500D01*
X160639801Y-72420185D01*
X160677754Y-72458526D01*
X160705235Y-72502261D01*
X160832789Y-72629815D01*
X160985529Y-72725788D01*
X161155796Y-72785367D01*
X161155801Y-72785368D01*
X161335047Y-72805564D01*
X161335051Y-72805564D01*
X161335055Y-72805564D01*
X161514300Y-72785368D01*
X161514303Y-72785367D01*
X161514306Y-72785367D01*
X161684573Y-72725788D01*
X161837313Y-72629815D01*
X161964867Y-72502261D01*
X162060840Y-72349521D01*
X162120419Y-72179254D01*
X162128153Y-72110617D01*
X162155219Y-72046203D01*
X162212814Y-72006648D01*
X162251373Y-72000500D01*
X166299903Y-72000500D01*
X166366942Y-72020185D01*
X166387584Y-72036819D01*
X167363181Y-73012416D01*
X167396666Y-73073739D01*
X167399500Y-73100097D01*
X167399500Y-80165247D01*
X167379815Y-80232286D01*
X167327011Y-80278041D01*
X167257853Y-80287985D01*
X167194297Y-80258960D01*
X167173925Y-80236370D01*
X167100045Y-80130858D01*
X166939141Y-79969954D01*
X166752734Y-79839432D01*
X166752732Y-79839431D01*
X166546497Y-79743261D01*
X166546488Y-79743258D01*
X166326697Y-79684366D01*
X166326693Y-79684365D01*
X166326692Y-79684365D01*
X166326691Y-79684364D01*
X166326686Y-79684364D01*
X166100002Y-79664532D01*
X166099998Y-79664532D01*
X165873313Y-79684364D01*
X165873302Y-79684366D01*
X165653511Y-79743258D01*
X165653502Y-79743261D01*
X165447267Y-79839431D01*
X165447265Y-79839432D01*
X165260858Y-79969954D01*
X165099954Y-80130858D01*
X164969432Y-80317265D01*
X164969431Y-80317267D01*
X164953228Y-80352015D01*
X164944941Y-80369788D01*
X164942382Y-80375275D01*
X164896209Y-80427714D01*
X164829016Y-80446866D01*
X164762135Y-80426650D01*
X164717618Y-80375275D01*
X164715062Y-80369793D01*
X164690568Y-80317266D01*
X164560047Y-80130861D01*
X164560045Y-80130858D01*
X164399141Y-79969954D01*
X164212734Y-79839432D01*
X164212732Y-79839431D01*
X164006497Y-79743261D01*
X164006488Y-79743258D01*
X163786697Y-79684366D01*
X163786693Y-79684365D01*
X163786692Y-79684365D01*
X163786691Y-79684364D01*
X163786686Y-79684364D01*
X163560002Y-79664532D01*
X163559998Y-79664532D01*
X163333313Y-79684364D01*
X163333302Y-79684366D01*
X163113511Y-79743258D01*
X163113502Y-79743261D01*
X162907267Y-79839431D01*
X162907265Y-79839432D01*
X162720858Y-79969954D01*
X162559954Y-80130858D01*
X162429432Y-80317265D01*
X162429430Y-80317269D01*
X162405589Y-80368395D01*
X162359416Y-80420833D01*
X162292222Y-80439984D01*
X162225341Y-80419767D01*
X162181487Y-80369788D01*
X162172928Y-80352015D01*
X162172926Y-80352012D01*
X162102932Y-80240619D01*
X161502962Y-80840589D01*
X161485925Y-80777007D01*
X161420099Y-80662993D01*
X161327007Y-80569901D01*
X161212993Y-80504075D01*
X161149409Y-80487037D01*
X161749380Y-79887065D01*
X161749379Y-79887064D01*
X161637981Y-79817069D01*
X161637980Y-79817068D01*
X161536094Y-79768002D01*
X161365933Y-79708461D01*
X161365927Y-79708459D01*
X161255689Y-79683298D01*
X161255673Y-79683296D01*
X161076547Y-79663113D01*
X160963453Y-79663113D01*
X160784326Y-79683296D01*
X160784310Y-79683298D01*
X160674072Y-79708459D01*
X160674066Y-79708461D01*
X160503905Y-79768002D01*
X160402029Y-79817063D01*
X160290618Y-79887065D01*
X160890591Y-80487037D01*
X160827007Y-80504075D01*
X160712993Y-80569901D01*
X160619901Y-80662993D01*
X160554075Y-80777007D01*
X160537037Y-80840590D01*
X159937066Y-80240619D01*
X159867065Y-80352024D01*
X159858508Y-80369793D01*
X159811683Y-80421651D01*
X159744255Y-80439961D01*
X159677632Y-80418910D01*
X159634408Y-80368391D01*
X159620636Y-80338857D01*
X159610568Y-80317266D01*
X159480047Y-80130861D01*
X159480045Y-80130858D01*
X159319141Y-79969954D01*
X159132734Y-79839432D01*
X159132732Y-79839431D01*
X158926497Y-79743261D01*
X158926488Y-79743258D01*
X158706697Y-79684366D01*
X158706693Y-79684365D01*
X158706692Y-79684365D01*
X158706691Y-79684364D01*
X158706686Y-79684364D01*
X158480002Y-79664532D01*
X158479998Y-79664532D01*
X158253313Y-79684364D01*
X158253302Y-79684366D01*
X158033511Y-79743258D01*
X158033502Y-79743261D01*
X157827267Y-79839431D01*
X157827265Y-79839432D01*
X157640858Y-79969954D01*
X157479954Y-80130858D01*
X157349432Y-80317265D01*
X157349431Y-80317267D01*
X157333228Y-80352015D01*
X157324941Y-80369788D01*
X157322382Y-80375275D01*
X157276209Y-80427714D01*
X157209016Y-80446866D01*
X157142135Y-80426650D01*
X157097618Y-80375275D01*
X157095062Y-80369793D01*
X157070568Y-80317266D01*
X156940047Y-80130861D01*
X156940045Y-80130858D01*
X156779141Y-79969954D01*
X156592734Y-79839432D01*
X156592732Y-79839431D01*
X156386497Y-79743261D01*
X156386488Y-79743258D01*
X156166697Y-79684366D01*
X156166693Y-79684365D01*
X156166692Y-79684365D01*
X156166691Y-79684364D01*
X156166686Y-79684364D01*
X155940002Y-79664532D01*
X155939998Y-79664532D01*
X155713313Y-79684364D01*
X155713302Y-79684366D01*
X155493511Y-79743258D01*
X155493502Y-79743261D01*
X155287267Y-79839431D01*
X155287265Y-79839432D01*
X155100858Y-79969954D01*
X154939954Y-80130858D01*
X154809432Y-80317265D01*
X154809431Y-80317267D01*
X154793228Y-80352015D01*
X154784941Y-80369788D01*
X154782382Y-80375275D01*
X154736209Y-80427714D01*
X154669016Y-80446866D01*
X154602135Y-80426650D01*
X154557618Y-80375275D01*
X154555062Y-80369793D01*
X154530568Y-80317266D01*
X154400047Y-80130861D01*
X154400045Y-80130858D01*
X154239141Y-79969954D01*
X154052734Y-79839432D01*
X154052732Y-79839431D01*
X153846497Y-79743261D01*
X153846488Y-79743258D01*
X153626697Y-79684366D01*
X153626693Y-79684365D01*
X153626692Y-79684365D01*
X153626691Y-79684364D01*
X153626686Y-79684364D01*
X153400002Y-79664532D01*
X153399998Y-79664532D01*
X153173313Y-79684364D01*
X153173302Y-79684366D01*
X152953511Y-79743258D01*
X152953502Y-79743261D01*
X152747267Y-79839431D01*
X152747265Y-79839432D01*
X152560858Y-79969954D01*
X152399954Y-80130858D01*
X152269432Y-80317265D01*
X152269431Y-80317267D01*
X152253228Y-80352015D01*
X152244941Y-80369788D01*
X152242382Y-80375275D01*
X152196209Y-80427714D01*
X152129016Y-80446866D01*
X152062135Y-80426650D01*
X152017618Y-80375275D01*
X152015062Y-80369793D01*
X151990568Y-80317266D01*
X151860047Y-80130861D01*
X151860045Y-80130858D01*
X151699141Y-79969954D01*
X151512734Y-79839432D01*
X151512732Y-79839431D01*
X151306497Y-79743261D01*
X151306488Y-79743258D01*
X151086697Y-79684366D01*
X151086693Y-79684365D01*
X151086692Y-79684365D01*
X151086691Y-79684364D01*
X151086686Y-79684364D01*
X150860002Y-79664532D01*
X150859998Y-79664532D01*
X150633313Y-79684364D01*
X150633302Y-79684366D01*
X150413511Y-79743258D01*
X150413502Y-79743261D01*
X150207267Y-79839431D01*
X150207265Y-79839432D01*
X150020858Y-79969954D01*
X149859954Y-80130858D01*
X149729432Y-80317265D01*
X149729430Y-80317269D01*
X149705589Y-80368395D01*
X149659416Y-80420833D01*
X149592222Y-80439984D01*
X149525341Y-80419767D01*
X149481487Y-80369788D01*
X149472928Y-80352015D01*
X149472926Y-80352012D01*
X149402932Y-80240619D01*
X148802962Y-80840589D01*
X148785925Y-80777007D01*
X148720099Y-80662993D01*
X148627007Y-80569901D01*
X148512993Y-80504075D01*
X148449409Y-80487037D01*
X149049380Y-79887065D01*
X149049379Y-79887064D01*
X148937981Y-79817069D01*
X148937980Y-79817068D01*
X148836094Y-79768002D01*
X148665933Y-79708461D01*
X148665927Y-79708459D01*
X148555689Y-79683298D01*
X148555673Y-79683296D01*
X148376547Y-79663113D01*
X148263453Y-79663113D01*
X148084326Y-79683296D01*
X148084310Y-79683298D01*
X147974072Y-79708459D01*
X147974066Y-79708461D01*
X147803905Y-79768002D01*
X147702029Y-79817063D01*
X147590618Y-79887065D01*
X148190591Y-80487037D01*
X148127007Y-80504075D01*
X148012993Y-80569901D01*
X147919901Y-80662993D01*
X147854075Y-80777007D01*
X147837037Y-80840590D01*
X147237066Y-80240619D01*
X147167065Y-80352024D01*
X147158508Y-80369793D01*
X147111683Y-80421651D01*
X147044255Y-80439961D01*
X146977632Y-80418910D01*
X146934408Y-80368391D01*
X146920636Y-80338857D01*
X146910568Y-80317266D01*
X146780047Y-80130861D01*
X146780045Y-80130858D01*
X146619141Y-79969954D01*
X146432734Y-79839432D01*
X146432732Y-79839431D01*
X146226497Y-79743261D01*
X146226488Y-79743258D01*
X146006697Y-79684366D01*
X146006693Y-79684365D01*
X146006692Y-79684365D01*
X146006691Y-79684364D01*
X146006686Y-79684364D01*
X145780002Y-79664532D01*
X145779998Y-79664532D01*
X145553313Y-79684364D01*
X145553302Y-79684366D01*
X145333511Y-79743258D01*
X145333502Y-79743261D01*
X145127267Y-79839431D01*
X145127265Y-79839432D01*
X144940858Y-79969954D01*
X144779954Y-80130858D01*
X144649432Y-80317265D01*
X144649431Y-80317267D01*
X144633228Y-80352015D01*
X144624941Y-80369788D01*
X144622382Y-80375275D01*
X144576209Y-80427714D01*
X144509016Y-80446866D01*
X144442135Y-80426650D01*
X144397618Y-80375275D01*
X144395062Y-80369793D01*
X144370568Y-80317266D01*
X144240047Y-80130861D01*
X144240045Y-80130858D01*
X144079141Y-79969954D01*
X143892734Y-79839432D01*
X143892732Y-79839431D01*
X143686497Y-79743261D01*
X143686488Y-79743258D01*
X143466697Y-79684366D01*
X143466693Y-79684365D01*
X143466692Y-79684365D01*
X143466691Y-79684364D01*
X143466686Y-79684364D01*
X143240002Y-79664532D01*
X143239998Y-79664532D01*
X143013313Y-79684364D01*
X143013302Y-79684366D01*
X142793511Y-79743258D01*
X142793502Y-79743261D01*
X142587267Y-79839431D01*
X142587265Y-79839432D01*
X142400858Y-79969954D01*
X142239954Y-80130858D01*
X142109432Y-80317265D01*
X142109431Y-80317267D01*
X142013261Y-80523502D01*
X142013258Y-80523511D01*
X141954366Y-80743302D01*
X141954364Y-80743313D01*
X141934532Y-80969998D01*
X141934532Y-80970001D01*
X141954364Y-81196686D01*
X141954366Y-81196697D01*
X142013258Y-81416488D01*
X142013261Y-81416497D01*
X142109431Y-81622732D01*
X142109432Y-81622734D01*
X142239954Y-81809141D01*
X142400858Y-81970045D01*
X142400861Y-81970047D01*
X142587266Y-82100568D01*
X142793504Y-82196739D01*
X143013308Y-82255635D01*
X143175230Y-82269801D01*
X143239998Y-82275468D01*
X143240000Y-82275468D01*
X143240002Y-82275468D01*
X143296784Y-82270500D01*
X143466692Y-82255635D01*
X143686496Y-82196739D01*
X143892734Y-82100568D01*
X144079139Y-81970047D01*
X144240047Y-81809139D01*
X144370568Y-81622734D01*
X144397618Y-81564724D01*
X144443790Y-81512285D01*
X144510983Y-81493133D01*
X144577865Y-81513348D01*
X144622381Y-81564724D01*
X144630188Y-81581465D01*
X144649429Y-81622728D01*
X144649432Y-81622734D01*
X144779954Y-81809141D01*
X144940858Y-81970045D01*
X144940861Y-81970047D01*
X145127266Y-82100568D01*
X145333504Y-82196739D01*
X145553308Y-82255635D01*
X145715230Y-82269801D01*
X145779998Y-82275468D01*
X145780000Y-82275468D01*
X145780002Y-82275468D01*
X145836784Y-82270500D01*
X146006692Y-82255635D01*
X146226496Y-82196739D01*
X146432734Y-82100568D01*
X146619139Y-81970047D01*
X146780047Y-81809139D01*
X146826715Y-81742489D01*
X146881289Y-81698865D01*
X146950788Y-81691671D01*
X147013143Y-81723193D01*
X147046528Y-81776257D01*
X147065012Y-81834763D01*
X147076932Y-81859514D01*
X147837037Y-81099409D01*
X147854075Y-81162993D01*
X147919901Y-81277007D01*
X148012993Y-81370099D01*
X148127007Y-81435925D01*
X148190590Y-81452962D01*
X147430342Y-82213209D01*
X147518611Y-82247163D01*
X147518614Y-82247164D01*
X147607625Y-82267481D01*
X147689114Y-82279198D01*
X147689115Y-82279198D01*
X147735393Y-82275413D01*
X147745501Y-82275000D01*
X148239755Y-82275000D01*
X148253642Y-82275780D01*
X148263456Y-82276886D01*
X148376544Y-82276886D01*
X148386358Y-82275780D01*
X148400245Y-82275000D01*
X148851049Y-82275000D01*
X148868695Y-82276262D01*
X148889117Y-82279198D01*
X149032373Y-82267481D01*
X149121375Y-82247166D01*
X149121390Y-82247163D01*
X149199874Y-82222368D01*
X149211813Y-82215366D01*
X148449410Y-81452962D01*
X148512993Y-81435925D01*
X148627007Y-81370099D01*
X148720099Y-81277007D01*
X148785925Y-81162993D01*
X148802962Y-81099409D01*
X149563066Y-81859513D01*
X149563068Y-81859513D01*
X149574981Y-81834778D01*
X149574986Y-81834766D01*
X149598732Y-81773033D01*
X149641172Y-81717529D01*
X149706882Y-81693781D01*
X149775000Y-81709329D01*
X149816041Y-81746426D01*
X149859954Y-81809141D01*
X150020858Y-81970045D01*
X150020861Y-81970047D01*
X150207266Y-82100568D01*
X150413504Y-82196739D01*
X150633308Y-82255635D01*
X150795230Y-82269801D01*
X150859998Y-82275468D01*
X150860000Y-82275468D01*
X150860002Y-82275468D01*
X150916784Y-82270500D01*
X151086692Y-82255635D01*
X151306496Y-82196739D01*
X151512734Y-82100568D01*
X151699139Y-81970047D01*
X151860047Y-81809139D01*
X151990568Y-81622734D01*
X152017618Y-81564724D01*
X152063790Y-81512285D01*
X152130983Y-81493133D01*
X152197865Y-81513348D01*
X152242381Y-81564724D01*
X152250188Y-81581465D01*
X152269429Y-81622728D01*
X152269432Y-81622734D01*
X152399954Y-81809141D01*
X152560858Y-81970045D01*
X152560861Y-81970047D01*
X152747266Y-82100568D01*
X152953504Y-82196739D01*
X153173308Y-82255635D01*
X153335230Y-82269801D01*
X153399998Y-82275468D01*
X153400000Y-82275468D01*
X153400002Y-82275468D01*
X153456784Y-82270500D01*
X153626692Y-82255635D01*
X153722932Y-82229847D01*
X153792781Y-82231510D01*
X153842706Y-82261941D01*
X154345139Y-82764374D01*
X154345149Y-82764385D01*
X154349479Y-82768715D01*
X154349480Y-82768716D01*
X154461284Y-82880520D01*
X154461286Y-82880521D01*
X154461290Y-82880524D01*
X154598209Y-82959573D01*
X154598216Y-82959577D01*
X154710019Y-82989534D01*
X154750942Y-83000500D01*
X154750943Y-83000500D01*
X160899903Y-83000500D01*
X160966942Y-83020185D01*
X160987584Y-83036819D01*
X161493212Y-83542447D01*
X161526697Y-83603770D01*
X161529531Y-83630128D01*
X161529531Y-97321000D01*
X161509846Y-97388039D01*
X161457042Y-97433794D01*
X161405531Y-97445000D01*
X161100245Y-97445000D01*
X161086358Y-97444220D01*
X161076544Y-97443114D01*
X160963456Y-97443114D01*
X160953642Y-97444220D01*
X160939755Y-97445000D01*
X160488951Y-97445000D01*
X160471305Y-97443738D01*
X160450882Y-97440801D01*
X160307626Y-97452518D01*
X160218624Y-97472833D01*
X160218617Y-97472834D01*
X160140119Y-97497634D01*
X160128185Y-97504632D01*
X160890590Y-98267037D01*
X160827007Y-98284075D01*
X160712993Y-98349901D01*
X160619901Y-98442993D01*
X160554075Y-98557007D01*
X160537037Y-98620590D01*
X159776932Y-97860485D01*
X159765014Y-97885231D01*
X159741266Y-97946969D01*
X159698825Y-98002472D01*
X159633114Y-98026218D01*
X159564997Y-98010669D01*
X159523958Y-97973573D01*
X159480045Y-97910858D01*
X159319141Y-97749954D01*
X159132734Y-97619432D01*
X159132732Y-97619431D01*
X158926497Y-97523261D01*
X158926488Y-97523258D01*
X158706697Y-97464366D01*
X158706693Y-97464365D01*
X158706692Y-97464365D01*
X158706691Y-97464364D01*
X158706686Y-97464364D01*
X158480002Y-97444532D01*
X158479998Y-97444532D01*
X158253313Y-97464364D01*
X158253302Y-97464366D01*
X158033511Y-97523258D01*
X158033502Y-97523261D01*
X157827267Y-97619431D01*
X157827265Y-97619432D01*
X157640858Y-97749954D01*
X157479954Y-97910858D01*
X157349432Y-98097265D01*
X157349431Y-98097267D01*
X157322382Y-98155275D01*
X157276209Y-98207714D01*
X157209016Y-98226866D01*
X157142135Y-98206650D01*
X157097618Y-98155275D01*
X157070568Y-98097266D01*
X156940047Y-97910861D01*
X156940045Y-97910858D01*
X156779141Y-97749954D01*
X156592734Y-97619432D01*
X156592732Y-97619431D01*
X156386497Y-97523261D01*
X156386488Y-97523258D01*
X156166697Y-97464366D01*
X156166693Y-97464365D01*
X156166692Y-97464365D01*
X156166691Y-97464364D01*
X156166686Y-97464364D01*
X155940002Y-97444532D01*
X155939998Y-97444532D01*
X155713313Y-97464364D01*
X155713302Y-97464366D01*
X155493511Y-97523258D01*
X155493502Y-97523261D01*
X155287267Y-97619431D01*
X155287265Y-97619432D01*
X155100858Y-97749954D01*
X154939954Y-97910858D01*
X154809432Y-98097265D01*
X154809431Y-98097267D01*
X154782382Y-98155275D01*
X154736209Y-98207714D01*
X154669016Y-98226866D01*
X154602135Y-98206650D01*
X154557618Y-98155275D01*
X154530568Y-98097266D01*
X154400047Y-97910861D01*
X154400045Y-97910858D01*
X154239141Y-97749954D01*
X154052734Y-97619432D01*
X154052732Y-97619431D01*
X153846497Y-97523261D01*
X153846488Y-97523258D01*
X153626697Y-97464366D01*
X153626693Y-97464365D01*
X153626692Y-97464365D01*
X153626691Y-97464364D01*
X153626686Y-97464364D01*
X153400002Y-97444532D01*
X153399998Y-97444532D01*
X153173313Y-97464364D01*
X153173302Y-97464366D01*
X152953511Y-97523258D01*
X152953502Y-97523261D01*
X152747267Y-97619431D01*
X152747265Y-97619432D01*
X152560858Y-97749954D01*
X152399954Y-97910858D01*
X152269432Y-98097265D01*
X152269431Y-98097267D01*
X152242382Y-98155275D01*
X152196209Y-98207714D01*
X152129016Y-98226866D01*
X152062135Y-98206650D01*
X152017618Y-98155275D01*
X151990568Y-98097266D01*
X151860047Y-97910861D01*
X151860045Y-97910858D01*
X151699141Y-97749954D01*
X151512734Y-97619432D01*
X151512732Y-97619431D01*
X151306497Y-97523261D01*
X151306488Y-97523258D01*
X151086697Y-97464366D01*
X151086693Y-97464365D01*
X151086692Y-97464365D01*
X151086691Y-97464364D01*
X151086686Y-97464364D01*
X150860002Y-97444532D01*
X150859998Y-97444532D01*
X150633313Y-97464364D01*
X150633302Y-97464366D01*
X150413511Y-97523258D01*
X150413502Y-97523261D01*
X150207267Y-97619431D01*
X150207265Y-97619432D01*
X150020858Y-97749954D01*
X149859956Y-97910856D01*
X149813285Y-97977510D01*
X149758708Y-98021134D01*
X149689209Y-98028327D01*
X149626855Y-97996805D01*
X149593470Y-97943740D01*
X149574987Y-97885236D01*
X149563066Y-97860485D01*
X148802962Y-98620589D01*
X148785925Y-98557007D01*
X148720099Y-98442993D01*
X148627007Y-98349901D01*
X148512993Y-98284075D01*
X148449409Y-98267037D01*
X149209656Y-97506789D01*
X149121383Y-97472835D01*
X149032374Y-97452518D01*
X148950887Y-97440802D01*
X148904584Y-97444588D01*
X148894480Y-97445000D01*
X148400245Y-97445000D01*
X148386358Y-97444220D01*
X148376544Y-97443114D01*
X148263456Y-97443114D01*
X148253642Y-97444220D01*
X148239755Y-97445000D01*
X147788951Y-97445000D01*
X147771305Y-97443738D01*
X147750882Y-97440801D01*
X147607626Y-97452518D01*
X147518624Y-97472833D01*
X147518617Y-97472834D01*
X147440118Y-97497635D01*
X147428185Y-97504631D01*
X148190591Y-98267037D01*
X148127007Y-98284075D01*
X148012993Y-98349901D01*
X147919901Y-98442993D01*
X147854075Y-98557007D01*
X147837037Y-98620590D01*
X147076932Y-97860485D01*
X147065014Y-97885231D01*
X147041266Y-97946969D01*
X146998825Y-98002472D01*
X146933114Y-98026218D01*
X146864997Y-98010669D01*
X146823958Y-97973573D01*
X146780045Y-97910858D01*
X146619141Y-97749954D01*
X146432734Y-97619432D01*
X146432732Y-97619431D01*
X146226497Y-97523261D01*
X146226488Y-97523258D01*
X146006697Y-97464366D01*
X146006693Y-97464365D01*
X146006692Y-97464365D01*
X146006691Y-97464364D01*
X146006686Y-97464364D01*
X145780002Y-97444532D01*
X145779998Y-97444532D01*
X145553313Y-97464364D01*
X145553302Y-97464366D01*
X145333511Y-97523258D01*
X145333502Y-97523261D01*
X145127267Y-97619431D01*
X145127265Y-97619432D01*
X144940858Y-97749954D01*
X144779954Y-97910858D01*
X144649432Y-98097265D01*
X144649431Y-98097267D01*
X144622382Y-98155275D01*
X144576209Y-98207714D01*
X144509016Y-98226866D01*
X144442135Y-98206650D01*
X144397618Y-98155275D01*
X144370568Y-98097266D01*
X144240047Y-97910861D01*
X144240045Y-97910858D01*
X144079141Y-97749954D01*
X143892734Y-97619432D01*
X143892732Y-97619431D01*
X143686497Y-97523261D01*
X143686488Y-97523258D01*
X143466697Y-97464366D01*
X143466693Y-97464365D01*
X143466692Y-97464365D01*
X143466691Y-97464364D01*
X143466686Y-97464364D01*
X143240002Y-97444532D01*
X143239998Y-97444532D01*
X143013313Y-97464364D01*
X143013302Y-97464366D01*
X142793511Y-97523258D01*
X142793502Y-97523261D01*
X142587267Y-97619431D01*
X142587265Y-97619432D01*
X142400858Y-97749954D01*
X142239954Y-97910858D01*
X142109432Y-98097265D01*
X142109431Y-98097267D01*
X142013261Y-98303502D01*
X142013258Y-98303511D01*
X141954366Y-98523302D01*
X141954364Y-98523313D01*
X141934532Y-98749998D01*
X141934532Y-98750001D01*
X141954364Y-98976686D01*
X141954366Y-98976697D01*
X142013258Y-99196488D01*
X142013261Y-99196497D01*
X142109431Y-99402732D01*
X142109432Y-99402734D01*
X142239954Y-99589141D01*
X142400858Y-99750045D01*
X142400861Y-99750047D01*
X142587266Y-99880568D01*
X142793504Y-99976739D01*
X142793509Y-99976740D01*
X142793511Y-99976741D01*
X142846415Y-99990916D01*
X143013308Y-100035635D01*
X143175230Y-100049801D01*
X143239998Y-100055468D01*
X143240000Y-100055468D01*
X143240002Y-100055468D01*
X143296673Y-100050509D01*
X143466692Y-100035635D01*
X143686496Y-99976739D01*
X143892734Y-99880568D01*
X144079139Y-99750047D01*
X144240047Y-99589139D01*
X144370568Y-99402734D01*
X144397618Y-99344724D01*
X144443790Y-99292285D01*
X144510983Y-99273133D01*
X144577865Y-99293348D01*
X144622381Y-99344724D01*
X144625862Y-99352188D01*
X144649429Y-99402728D01*
X144649432Y-99402734D01*
X144779954Y-99589141D01*
X144940858Y-99750045D01*
X144940861Y-99750047D01*
X145127266Y-99880568D01*
X145333504Y-99976739D01*
X145333509Y-99976740D01*
X145333511Y-99976741D01*
X145386415Y-99990916D01*
X145553308Y-100035635D01*
X145715230Y-100049801D01*
X145779998Y-100055468D01*
X145780000Y-100055468D01*
X145780002Y-100055468D01*
X145836673Y-100050509D01*
X146006692Y-100035635D01*
X146226496Y-99976739D01*
X146432734Y-99880568D01*
X146619139Y-99750047D01*
X146780047Y-99589139D01*
X146910568Y-99402734D01*
X146934410Y-99351604D01*
X146980579Y-99299169D01*
X147047773Y-99280016D01*
X147114654Y-99300231D01*
X147158509Y-99350208D01*
X147167065Y-99367975D01*
X147237066Y-99479379D01*
X147837037Y-98879409D01*
X147854075Y-98942993D01*
X147919901Y-99057007D01*
X148012993Y-99150099D01*
X148127007Y-99215925D01*
X148190590Y-99232962D01*
X147590619Y-99832933D01*
X147702023Y-99902933D01*
X147803905Y-99951997D01*
X147974066Y-100011538D01*
X147974072Y-100011540D01*
X148084310Y-100036701D01*
X148084326Y-100036703D01*
X148263452Y-100056886D01*
X148263453Y-100056887D01*
X148376547Y-100056887D01*
X148376547Y-100056886D01*
X148555673Y-100036703D01*
X148555689Y-100036701D01*
X148665927Y-100011540D01*
X148665933Y-100011538D01*
X148836094Y-99951997D01*
X148937976Y-99902933D01*
X149049379Y-99832933D01*
X148449410Y-99232962D01*
X148512993Y-99215925D01*
X148627007Y-99150099D01*
X148720099Y-99057007D01*
X148785925Y-98942993D01*
X148802962Y-98879409D01*
X149402933Y-99479380D01*
X149472932Y-99367978D01*
X149481488Y-99350211D01*
X149528310Y-99298351D01*
X149595737Y-99280037D01*
X149662361Y-99301084D01*
X149705589Y-99351604D01*
X149726772Y-99397031D01*
X149729431Y-99402732D01*
X149729432Y-99402734D01*
X149859954Y-99589141D01*
X150020858Y-99750045D01*
X150020861Y-99750047D01*
X150207266Y-99880568D01*
X150413504Y-99976739D01*
X150413509Y-99976740D01*
X150413511Y-99976741D01*
X150466415Y-99990916D01*
X150633308Y-100035635D01*
X150795230Y-100049801D01*
X150859998Y-100055468D01*
X150860000Y-100055468D01*
X150860002Y-100055468D01*
X150916673Y-100050509D01*
X151086692Y-100035635D01*
X151306496Y-99976739D01*
X151512734Y-99880568D01*
X151699139Y-99750047D01*
X151860047Y-99589139D01*
X151990568Y-99402734D01*
X152017618Y-99344724D01*
X152063790Y-99292285D01*
X152130983Y-99273133D01*
X152197865Y-99293348D01*
X152242381Y-99344724D01*
X152245862Y-99352188D01*
X152269429Y-99402728D01*
X152269432Y-99402734D01*
X152399954Y-99589141D01*
X152560858Y-99750045D01*
X152560861Y-99750047D01*
X152747266Y-99880568D01*
X152953504Y-99976739D01*
X152953509Y-99976740D01*
X152953511Y-99976741D01*
X153006415Y-99990916D01*
X153173308Y-100035635D01*
X153335230Y-100049801D01*
X153399998Y-100055468D01*
X153400000Y-100055468D01*
X153400002Y-100055468D01*
X153456673Y-100050509D01*
X153626692Y-100035635D01*
X153846496Y-99976739D01*
X154052734Y-99880568D01*
X154239139Y-99750047D01*
X154400047Y-99589139D01*
X154530568Y-99402734D01*
X154557618Y-99344724D01*
X154603790Y-99292285D01*
X154670983Y-99273133D01*
X154737865Y-99293348D01*
X154782381Y-99344724D01*
X154785862Y-99352188D01*
X154809429Y-99402728D01*
X154809432Y-99402734D01*
X154939954Y-99589141D01*
X155100858Y-99750045D01*
X155100861Y-99750047D01*
X155287266Y-99880568D01*
X155493504Y-99976739D01*
X155493509Y-99976740D01*
X155493511Y-99976741D01*
X155546415Y-99990916D01*
X155713308Y-100035635D01*
X155875230Y-100049801D01*
X155939998Y-100055468D01*
X155940000Y-100055468D01*
X155940002Y-100055468D01*
X155996673Y-100050509D01*
X156166692Y-100035635D01*
X156386496Y-99976739D01*
X156592734Y-99880568D01*
X156779139Y-99750047D01*
X156940047Y-99589139D01*
X157070568Y-99402734D01*
X157097618Y-99344724D01*
X157143790Y-99292285D01*
X157210983Y-99273133D01*
X157277865Y-99293348D01*
X157322381Y-99344724D01*
X157325862Y-99352188D01*
X157349429Y-99402728D01*
X157349432Y-99402734D01*
X157479954Y-99589141D01*
X157640858Y-99750045D01*
X157640861Y-99750047D01*
X157827266Y-99880568D01*
X158033504Y-99976739D01*
X158033509Y-99976740D01*
X158033511Y-99976741D01*
X158086415Y-99990916D01*
X158253308Y-100035635D01*
X158415230Y-100049801D01*
X158479998Y-100055468D01*
X158480000Y-100055468D01*
X158480002Y-100055468D01*
X158536673Y-100050509D01*
X158706692Y-100035635D01*
X158926496Y-99976739D01*
X159132734Y-99880568D01*
X159319139Y-99750047D01*
X159480047Y-99589139D01*
X159610568Y-99402734D01*
X159634410Y-99351604D01*
X159680579Y-99299169D01*
X159747773Y-99280016D01*
X159814654Y-99300231D01*
X159858509Y-99350208D01*
X159867065Y-99367975D01*
X159937066Y-99479379D01*
X160537037Y-98879409D01*
X160554075Y-98942993D01*
X160619901Y-99057007D01*
X160712993Y-99150099D01*
X160827007Y-99215925D01*
X160890590Y-99232962D01*
X160290619Y-99832933D01*
X160402023Y-99902933D01*
X160503905Y-99951997D01*
X160674066Y-100011538D01*
X160674072Y-100011540D01*
X160784310Y-100036701D01*
X160784326Y-100036703D01*
X160963452Y-100056886D01*
X160963453Y-100056887D01*
X161076547Y-100056887D01*
X161076547Y-100056886D01*
X161255673Y-100036703D01*
X161255689Y-100036701D01*
X161365927Y-100011540D01*
X161369279Y-100010575D01*
X161369620Y-100011760D01*
X161434335Y-100008447D01*
X161494968Y-100043166D01*
X161527206Y-100105154D01*
X161529531Y-100129055D01*
X161529531Y-108960517D01*
X161529530Y-108960535D01*
X161529530Y-109126241D01*
X161529529Y-109126241D01*
X161570455Y-109278976D01*
X161570456Y-109278977D01*
X161594248Y-109320185D01*
X161594249Y-109320186D01*
X161649508Y-109415899D01*
X161649512Y-109415904D01*
X161768380Y-109534772D01*
X161768386Y-109534777D01*
X164376428Y-112142820D01*
X164409913Y-112204143D01*
X164411967Y-112244384D01*
X164394435Y-112399995D01*
X164394435Y-112400003D01*
X164414630Y-112579249D01*
X164414631Y-112579254D01*
X164474211Y-112749523D01*
X164570184Y-112902262D01*
X164697738Y-113029816D01*
X164850478Y-113125789D01*
X165020745Y-113185368D01*
X165089384Y-113193101D01*
X165153796Y-113220166D01*
X165193352Y-113277760D01*
X165199500Y-113316321D01*
X165199500Y-115283677D01*
X165179815Y-115350716D01*
X165127011Y-115396471D01*
X165089384Y-115406897D01*
X165020750Y-115414630D01*
X164850478Y-115474210D01*
X164697737Y-115570184D01*
X164570184Y-115697737D01*
X164474211Y-115850476D01*
X164414631Y-116020745D01*
X164414630Y-116020750D01*
X164394435Y-116199996D01*
X164394435Y-116200003D01*
X164414630Y-116379249D01*
X164414631Y-116379254D01*
X164474211Y-116549523D01*
X164555129Y-116678302D01*
X164570184Y-116702262D01*
X164697738Y-116829816D01*
X164739263Y-116855908D01*
X164819308Y-116906204D01*
X164850478Y-116925789D01*
X165018356Y-116984532D01*
X165020745Y-116985368D01*
X165020750Y-116985369D01*
X165199996Y-117005565D01*
X165200000Y-117005565D01*
X165200004Y-117005565D01*
X165379249Y-116985369D01*
X165379252Y-116985368D01*
X165379255Y-116985368D01*
X165549522Y-116925789D01*
X165702262Y-116829816D01*
X165829816Y-116702262D01*
X165925789Y-116549522D01*
X165985368Y-116379255D01*
X165995161Y-116292329D01*
X166022226Y-116227918D01*
X166030690Y-116218543D01*
X166158506Y-116090728D01*
X166158511Y-116090724D01*
X166168714Y-116080520D01*
X166168716Y-116080520D01*
X166280520Y-115968716D01*
X166348784Y-115850478D01*
X166359577Y-115831785D01*
X166400500Y-115679057D01*
X166400500Y-115520943D01*
X166400500Y-112196214D01*
X166400501Y-112072414D01*
X166359577Y-111919687D01*
X166359576Y-111919686D01*
X166359576Y-111919684D01*
X166359574Y-111919681D01*
X166343785Y-111892334D01*
X166343784Y-111892333D01*
X166343783Y-111892331D01*
X166280520Y-111782755D01*
X166168716Y-111670951D01*
X166168715Y-111670950D01*
X166164385Y-111666620D01*
X166164374Y-111666610D01*
X164992981Y-110495216D01*
X164456457Y-109958692D01*
X164422972Y-109897369D01*
X164427956Y-109827677D01*
X164469828Y-109771744D01*
X164471253Y-109770693D01*
X164605871Y-109672888D01*
X164671500Y-109600000D01*
X169494540Y-109600000D01*
X169514326Y-109788256D01*
X169514327Y-109788259D01*
X169572818Y-109968277D01*
X169572821Y-109968284D01*
X169667467Y-110132216D01*
X169786074Y-110263942D01*
X169794129Y-110272888D01*
X169947265Y-110384148D01*
X169947270Y-110384151D01*
X170120192Y-110461142D01*
X170120197Y-110461144D01*
X170305354Y-110500500D01*
X170305355Y-110500500D01*
X170494644Y-110500500D01*
X170494646Y-110500500D01*
X170679803Y-110461144D01*
X170852730Y-110384151D01*
X171005871Y-110272888D01*
X171132533Y-110132216D01*
X171227179Y-109968284D01*
X171233122Y-109949994D01*
X179575057Y-109949994D01*
X179575057Y-109950005D01*
X179594807Y-110263942D01*
X179594808Y-110263949D01*
X179653755Y-110572958D01*
X179750963Y-110872132D01*
X179750965Y-110872137D01*
X179884900Y-111156761D01*
X179884903Y-111156767D01*
X180053457Y-111422367D01*
X180053460Y-111422371D01*
X180144286Y-111532160D01*
X180785748Y-110890698D01*
X180859588Y-110992330D01*
X181037670Y-111170412D01*
X181139300Y-111244250D01*
X180494971Y-111888579D01*
X180494972Y-111888581D01*
X180737772Y-112064985D01*
X180737790Y-112064996D01*
X181013447Y-112216540D01*
X181013455Y-112216544D01*
X181305926Y-112332340D01*
X181610620Y-112410573D01*
X181610629Y-112410575D01*
X181922701Y-112449999D01*
X181922715Y-112450000D01*
X182237285Y-112450000D01*
X182237298Y-112449999D01*
X182549370Y-112410575D01*
X182549379Y-112410573D01*
X182854073Y-112332340D01*
X183146544Y-112216544D01*
X183146552Y-112216540D01*
X183422209Y-112064996D01*
X183422219Y-112064990D01*
X183665026Y-111888579D01*
X183665027Y-111888579D01*
X183020698Y-111244251D01*
X183122330Y-111170412D01*
X183300412Y-110992330D01*
X183374251Y-110890699D01*
X184015712Y-111532160D01*
X184106544Y-111422364D01*
X184275096Y-111156767D01*
X184275099Y-111156761D01*
X184409034Y-110872137D01*
X184409036Y-110872132D01*
X184506244Y-110572958D01*
X184565191Y-110263949D01*
X184565192Y-110263942D01*
X184584943Y-109950005D01*
X184584943Y-109949994D01*
X184565192Y-109636057D01*
X184565191Y-109636050D01*
X184506244Y-109327041D01*
X184409036Y-109027867D01*
X184409034Y-109027862D01*
X184275099Y-108743238D01*
X184275096Y-108743232D01*
X184106542Y-108477632D01*
X184106539Y-108477628D01*
X184015712Y-108367838D01*
X183374250Y-109009300D01*
X183300412Y-108907670D01*
X183122330Y-108729588D01*
X183020698Y-108655748D01*
X183665027Y-108011419D01*
X183665026Y-108011417D01*
X183422227Y-107835014D01*
X183422209Y-107835003D01*
X183146552Y-107683459D01*
X183146544Y-107683455D01*
X182854073Y-107567659D01*
X182549379Y-107489426D01*
X182549370Y-107489424D01*
X182237298Y-107450000D01*
X181922701Y-107450000D01*
X181610629Y-107489424D01*
X181610620Y-107489426D01*
X181305926Y-107567659D01*
X181013455Y-107683455D01*
X181013447Y-107683459D01*
X180737787Y-107835004D01*
X180737782Y-107835007D01*
X180494972Y-108011418D01*
X180494971Y-108011419D01*
X181139301Y-108655748D01*
X181037670Y-108729588D01*
X180859588Y-108907670D01*
X180785748Y-109009300D01*
X180144286Y-108367838D01*
X180144285Y-108367838D01*
X180053459Y-108477629D01*
X180053457Y-108477632D01*
X179884903Y-108743232D01*
X179884900Y-108743238D01*
X179750965Y-109027862D01*
X179750963Y-109027867D01*
X179653755Y-109327041D01*
X179594808Y-109636050D01*
X179594807Y-109636057D01*
X179575057Y-109949994D01*
X171233122Y-109949994D01*
X171285674Y-109788256D01*
X171305460Y-109600000D01*
X171285674Y-109411744D01*
X171227179Y-109231716D01*
X171132533Y-109067784D01*
X171005871Y-108927112D01*
X171005870Y-108927111D01*
X170852734Y-108815851D01*
X170852729Y-108815848D01*
X170679807Y-108738857D01*
X170679802Y-108738855D01*
X170534001Y-108707865D01*
X170494646Y-108699500D01*
X170305354Y-108699500D01*
X170272897Y-108706398D01*
X170120197Y-108738855D01*
X170120192Y-108738857D01*
X169947270Y-108815848D01*
X169947265Y-108815851D01*
X169794129Y-108927111D01*
X169667466Y-109067785D01*
X169572821Y-109231715D01*
X169572818Y-109231722D01*
X169516126Y-109406204D01*
X169514326Y-109411744D01*
X169494540Y-109600000D01*
X164671500Y-109600000D01*
X164732533Y-109532216D01*
X164827179Y-109368284D01*
X164885674Y-109188256D01*
X164905460Y-109000000D01*
X164885674Y-108811744D01*
X164827179Y-108631716D01*
X164732533Y-108467784D01*
X164605871Y-108327112D01*
X164605870Y-108327111D01*
X164452734Y-108215851D01*
X164452729Y-108215848D01*
X164279807Y-108138857D01*
X164279802Y-108138855D01*
X164134001Y-108107865D01*
X164094646Y-108099500D01*
X163905354Y-108099500D01*
X163872897Y-108106398D01*
X163720197Y-108138855D01*
X163720192Y-108138857D01*
X163547270Y-108215848D01*
X163547265Y-108215851D01*
X163397385Y-108324746D01*
X163331579Y-108348226D01*
X163263525Y-108332400D01*
X163214830Y-108282295D01*
X163200500Y-108224428D01*
X163200500Y-102124500D01*
X163220185Y-102057461D01*
X163272989Y-102011706D01*
X163324500Y-102000500D01*
X163973331Y-102000500D01*
X163973347Y-102000501D01*
X163980943Y-102000501D01*
X164139054Y-102000501D01*
X164139057Y-102000501D01*
X164291785Y-101959577D01*
X164341904Y-101930639D01*
X164428716Y-101880520D01*
X164540520Y-101768716D01*
X164540520Y-101768714D01*
X164550728Y-101758507D01*
X164550730Y-101758504D01*
X165028713Y-101280521D01*
X165028716Y-101280520D01*
X165140520Y-101168716D01*
X165190639Y-101081904D01*
X165219577Y-101031785D01*
X165260500Y-100879057D01*
X165260500Y-100720943D01*
X165260500Y-99987512D01*
X165280185Y-99920473D01*
X165332989Y-99874718D01*
X165402147Y-99864774D01*
X165442193Y-99878636D01*
X165442360Y-99878280D01*
X165445806Y-99879887D01*
X165446508Y-99880130D01*
X165447257Y-99880562D01*
X165447266Y-99880568D01*
X165653504Y-99976739D01*
X165653509Y-99976740D01*
X165653511Y-99976741D01*
X165706415Y-99990916D01*
X165873308Y-100035635D01*
X166035230Y-100049801D01*
X166099998Y-100055468D01*
X166100000Y-100055468D01*
X166100002Y-100055468D01*
X166156673Y-100050509D01*
X166326692Y-100035635D01*
X166546496Y-99976739D01*
X166752734Y-99880568D01*
X166939139Y-99750047D01*
X167100047Y-99589139D01*
X167230568Y-99402734D01*
X167257618Y-99344724D01*
X167303790Y-99292285D01*
X167370983Y-99273133D01*
X167437865Y-99293348D01*
X167482381Y-99344724D01*
X167485862Y-99352188D01*
X167509429Y-99402728D01*
X167509432Y-99402734D01*
X167639954Y-99589141D01*
X167800858Y-99750045D01*
X167800861Y-99750047D01*
X167987266Y-99880568D01*
X168193504Y-99976739D01*
X168193509Y-99976740D01*
X168193511Y-99976741D01*
X168246415Y-99990916D01*
X168413308Y-100035635D01*
X168575230Y-100049801D01*
X168639998Y-100055468D01*
X168640000Y-100055468D01*
X168640002Y-100055468D01*
X168696673Y-100050509D01*
X168866692Y-100035635D01*
X169086496Y-99976739D01*
X169292734Y-99880568D01*
X169479139Y-99750047D01*
X169640047Y-99589139D01*
X169770568Y-99402734D01*
X169797618Y-99344724D01*
X169843790Y-99292285D01*
X169910983Y-99273133D01*
X169977865Y-99293348D01*
X170022381Y-99344724D01*
X170025862Y-99352188D01*
X170049429Y-99402728D01*
X170049432Y-99402734D01*
X170179954Y-99589141D01*
X170340858Y-99750045D01*
X170340861Y-99750047D01*
X170527266Y-99880568D01*
X170733504Y-99976739D01*
X170733509Y-99976740D01*
X170733511Y-99976741D01*
X170786415Y-99990916D01*
X170953308Y-100035635D01*
X171115230Y-100049801D01*
X171179998Y-100055468D01*
X171180000Y-100055468D01*
X171180002Y-100055468D01*
X171236673Y-100050509D01*
X171406692Y-100035635D01*
X171626496Y-99976739D01*
X171832734Y-99880568D01*
X172019139Y-99750047D01*
X172180047Y-99589139D01*
X172310568Y-99402734D01*
X172334139Y-99352184D01*
X172380308Y-99299750D01*
X172447501Y-99280597D01*
X172514383Y-99300812D01*
X172558237Y-99350788D01*
X172566641Y-99368238D01*
X172566644Y-99368244D01*
X172588316Y-99402734D01*
X172662558Y-99520890D01*
X172733135Y-99609390D01*
X172860610Y-99736865D01*
X172949110Y-99807442D01*
X173101755Y-99903355D01*
X173148273Y-99925757D01*
X173203744Y-99952471D01*
X173257494Y-99971278D01*
X173373902Y-100012011D01*
X173373908Y-100012012D01*
X173373910Y-100012013D01*
X173404381Y-100018967D01*
X173484258Y-100037198D01*
X173484261Y-100037198D01*
X173484263Y-100037199D01*
X173573829Y-100047290D01*
X173663396Y-100057382D01*
X173663397Y-100057383D01*
X173663401Y-100057383D01*
X173776603Y-100057383D01*
X173776603Y-100057382D01*
X173902776Y-100043166D01*
X173955736Y-100037199D01*
X173955737Y-100037198D01*
X173955742Y-100037198D01*
X174066098Y-100012011D01*
X174236258Y-99952470D01*
X174338245Y-99903355D01*
X174490890Y-99807442D01*
X174579390Y-99736865D01*
X174706865Y-99609390D01*
X174777442Y-99520890D01*
X174873355Y-99368245D01*
X174881760Y-99350791D01*
X174928582Y-99298932D01*
X174996009Y-99280619D01*
X175062633Y-99301666D01*
X175105862Y-99352188D01*
X175129431Y-99402732D01*
X175129432Y-99402734D01*
X175259954Y-99589141D01*
X175420858Y-99750045D01*
X175420861Y-99750047D01*
X175607266Y-99880568D01*
X175813504Y-99976739D01*
X175813509Y-99976740D01*
X175813511Y-99976741D01*
X175866415Y-99990916D01*
X176033308Y-100035635D01*
X176195230Y-100049801D01*
X176259998Y-100055468D01*
X176260000Y-100055468D01*
X176260002Y-100055468D01*
X176316673Y-100050509D01*
X176486692Y-100035635D01*
X176706496Y-99976739D01*
X176912734Y-99880568D01*
X177099139Y-99750047D01*
X177260047Y-99589139D01*
X177390568Y-99402734D01*
X177417618Y-99344724D01*
X177463790Y-99292285D01*
X177530983Y-99273133D01*
X177597865Y-99293348D01*
X177642381Y-99344724D01*
X177645862Y-99352188D01*
X177669429Y-99402728D01*
X177669432Y-99402734D01*
X177799954Y-99589141D01*
X177960858Y-99750045D01*
X177960861Y-99750047D01*
X178147266Y-99880568D01*
X178353504Y-99976739D01*
X178353509Y-99976740D01*
X178353511Y-99976741D01*
X178406415Y-99990916D01*
X178573308Y-100035635D01*
X178735230Y-100049801D01*
X178799998Y-100055468D01*
X178800000Y-100055468D01*
X178800002Y-100055468D01*
X178856673Y-100050509D01*
X179026692Y-100035635D01*
X179246496Y-99976739D01*
X179452734Y-99880568D01*
X179639139Y-99750047D01*
X179800047Y-99589139D01*
X179930568Y-99402734D01*
X179957618Y-99344724D01*
X180003790Y-99292285D01*
X180070983Y-99273133D01*
X180137865Y-99293348D01*
X180182381Y-99344724D01*
X180185862Y-99352188D01*
X180209429Y-99402728D01*
X180209432Y-99402734D01*
X180339954Y-99589141D01*
X180500858Y-99750045D01*
X180500861Y-99750047D01*
X180687266Y-99880568D01*
X180893504Y-99976739D01*
X180893509Y-99976740D01*
X180893511Y-99976741D01*
X180946415Y-99990916D01*
X181113308Y-100035635D01*
X181275230Y-100049801D01*
X181339998Y-100055468D01*
X181340000Y-100055468D01*
X181340002Y-100055468D01*
X181396673Y-100050509D01*
X181566692Y-100035635D01*
X181786496Y-99976739D01*
X181992734Y-99880568D01*
X182179139Y-99750047D01*
X182340047Y-99589139D01*
X182470568Y-99402734D01*
X182497618Y-99344724D01*
X182543790Y-99292285D01*
X182610983Y-99273133D01*
X182677865Y-99293348D01*
X182722381Y-99344724D01*
X182725862Y-99352188D01*
X182749429Y-99402728D01*
X182749432Y-99402734D01*
X182879954Y-99589141D01*
X183040858Y-99750045D01*
X183040861Y-99750047D01*
X183227266Y-99880568D01*
X183433504Y-99976739D01*
X183433509Y-99976740D01*
X183433511Y-99976741D01*
X183486415Y-99990916D01*
X183653308Y-100035635D01*
X183815230Y-100049801D01*
X183879998Y-100055468D01*
X183880000Y-100055468D01*
X183880002Y-100055468D01*
X183936673Y-100050509D01*
X184106692Y-100035635D01*
X184326496Y-99976739D01*
X184532734Y-99880568D01*
X184719139Y-99750047D01*
X184880047Y-99589139D01*
X185010568Y-99402734D01*
X185034410Y-99351604D01*
X185080579Y-99299169D01*
X185147773Y-99280016D01*
X185214654Y-99300231D01*
X185258509Y-99350208D01*
X185267065Y-99367975D01*
X185337066Y-99479379D01*
X185937037Y-98879409D01*
X185954075Y-98942993D01*
X186019901Y-99057007D01*
X186112993Y-99150099D01*
X186227007Y-99215925D01*
X186290590Y-99232962D01*
X185690619Y-99832933D01*
X185802023Y-99902933D01*
X185903905Y-99951997D01*
X186074066Y-100011538D01*
X186074072Y-100011540D01*
X186184310Y-100036701D01*
X186184326Y-100036703D01*
X186363452Y-100056886D01*
X186363453Y-100056887D01*
X186476547Y-100056887D01*
X186476547Y-100056886D01*
X186655673Y-100036703D01*
X186655689Y-100036701D01*
X186765927Y-100011540D01*
X186765933Y-100011538D01*
X186936094Y-99951997D01*
X187037976Y-99902933D01*
X187149379Y-99832933D01*
X186549410Y-99232962D01*
X186612993Y-99215925D01*
X186727007Y-99150099D01*
X186820099Y-99057007D01*
X186885925Y-98942993D01*
X186902962Y-98879409D01*
X187502933Y-99479380D01*
X187572932Y-99367978D01*
X187581488Y-99350211D01*
X187628310Y-99298351D01*
X187695737Y-99280037D01*
X187762361Y-99301084D01*
X187805589Y-99351604D01*
X187826772Y-99397031D01*
X187829431Y-99402732D01*
X187829432Y-99402734D01*
X187959954Y-99589141D01*
X188120858Y-99750045D01*
X188120861Y-99750047D01*
X188307266Y-99880568D01*
X188513504Y-99976739D01*
X188513509Y-99976740D01*
X188513511Y-99976741D01*
X188566415Y-99990916D01*
X188733308Y-100035635D01*
X188895230Y-100049801D01*
X188959998Y-100055468D01*
X188960000Y-100055468D01*
X188960002Y-100055468D01*
X189016673Y-100050509D01*
X189186692Y-100035635D01*
X189406496Y-99976739D01*
X189612734Y-99880568D01*
X189799139Y-99750047D01*
X189960047Y-99589139D01*
X190090568Y-99402734D01*
X190117618Y-99344724D01*
X190163790Y-99292285D01*
X190230983Y-99273133D01*
X190297865Y-99293348D01*
X190342381Y-99344724D01*
X190345862Y-99352188D01*
X190369429Y-99402728D01*
X190369432Y-99402734D01*
X190499954Y-99589141D01*
X190660858Y-99750045D01*
X190660861Y-99750047D01*
X190847266Y-99880568D01*
X191053504Y-99976739D01*
X191053509Y-99976740D01*
X191053511Y-99976741D01*
X191106415Y-99990916D01*
X191273308Y-100035635D01*
X191435230Y-100049801D01*
X191499998Y-100055468D01*
X191500000Y-100055468D01*
X191500002Y-100055468D01*
X191556673Y-100050509D01*
X191726692Y-100035635D01*
X191946496Y-99976739D01*
X192152734Y-99880568D01*
X192304378Y-99774386D01*
X192370583Y-99752060D01*
X192438350Y-99769070D01*
X192486163Y-99820019D01*
X192499500Y-99875962D01*
X192499500Y-149375500D01*
X192479815Y-149442539D01*
X192427011Y-149488294D01*
X192375500Y-149499500D01*
X100624500Y-149499500D01*
X100557461Y-149479815D01*
X100511706Y-149427011D01*
X100500500Y-149375500D01*
X100500500Y-145378711D01*
X101649500Y-145378711D01*
X101649500Y-145621288D01*
X101681161Y-145861785D01*
X101743947Y-146096104D01*
X101836773Y-146320205D01*
X101836776Y-146320212D01*
X101958064Y-146530289D01*
X101958066Y-146530292D01*
X101958067Y-146530293D01*
X102105733Y-146722736D01*
X102105739Y-146722743D01*
X102277256Y-146894260D01*
X102277262Y-146894265D01*
X102469711Y-147041936D01*
X102679788Y-147163224D01*
X102903900Y-147256054D01*
X103138211Y-147318838D01*
X103318586Y-147342584D01*
X103378711Y-147350500D01*
X103378712Y-147350500D01*
X103621289Y-147350500D01*
X103669388Y-147344167D01*
X103861789Y-147318838D01*
X104096100Y-147256054D01*
X104320212Y-147163224D01*
X104530289Y-147041936D01*
X104722738Y-146894265D01*
X104894265Y-146722738D01*
X105041936Y-146530289D01*
X105163224Y-146320212D01*
X105256054Y-146096100D01*
X105318838Y-145861789D01*
X105350500Y-145621288D01*
X105350500Y-145378712D01*
X105350500Y-145378711D01*
X167649500Y-145378711D01*
X167649500Y-145621288D01*
X167681161Y-145861785D01*
X167743947Y-146096104D01*
X167836773Y-146320205D01*
X167836776Y-146320212D01*
X167958064Y-146530289D01*
X167958066Y-146530292D01*
X167958067Y-146530293D01*
X168105733Y-146722736D01*
X168105739Y-146722743D01*
X168277256Y-146894260D01*
X168277262Y-146894265D01*
X168469711Y-147041936D01*
X168679788Y-147163224D01*
X168903900Y-147256054D01*
X169138211Y-147318838D01*
X169318586Y-147342584D01*
X169378711Y-147350500D01*
X169378712Y-147350500D01*
X169621289Y-147350500D01*
X169669388Y-147344167D01*
X169861789Y-147318838D01*
X170096100Y-147256054D01*
X170320212Y-147163224D01*
X170530289Y-147041936D01*
X170722738Y-146894265D01*
X170894265Y-146722738D01*
X171041936Y-146530289D01*
X171163224Y-146320212D01*
X171256054Y-146096100D01*
X171318838Y-145861789D01*
X171350500Y-145621288D01*
X171350500Y-145378712D01*
X171348693Y-145364990D01*
X171318838Y-145138214D01*
X171318838Y-145138211D01*
X171256054Y-144903900D01*
X171163224Y-144679788D01*
X171041936Y-144469711D01*
X170894265Y-144277262D01*
X170894260Y-144277256D01*
X170722743Y-144105739D01*
X170722736Y-144105733D01*
X170530293Y-143958067D01*
X170530292Y-143958066D01*
X170530289Y-143958064D01*
X170320212Y-143836776D01*
X170320205Y-143836773D01*
X170096104Y-143743947D01*
X169861785Y-143681161D01*
X169621289Y-143649500D01*
X169621288Y-143649500D01*
X169378712Y-143649500D01*
X169378711Y-143649500D01*
X169138214Y-143681161D01*
X168903895Y-143743947D01*
X168679794Y-143836773D01*
X168679785Y-143836777D01*
X168469706Y-143958067D01*
X168277263Y-144105733D01*
X168277256Y-144105739D01*
X168105739Y-144277256D01*
X168105733Y-144277263D01*
X167958067Y-144469706D01*
X167836777Y-144679785D01*
X167836773Y-144679794D01*
X167743947Y-144903895D01*
X167681161Y-145138214D01*
X167649500Y-145378711D01*
X105350500Y-145378711D01*
X105348693Y-145364990D01*
X105318838Y-145138214D01*
X105318838Y-145138211D01*
X105256054Y-144903900D01*
X105163224Y-144679788D01*
X105041936Y-144469711D01*
X104894265Y-144277262D01*
X104894260Y-144277256D01*
X104722743Y-144105739D01*
X104722736Y-144105733D01*
X104530293Y-143958067D01*
X104530292Y-143958066D01*
X104530289Y-143958064D01*
X104320212Y-143836776D01*
X104320205Y-143836773D01*
X104096104Y-143743947D01*
X103861785Y-143681161D01*
X103621289Y-143649500D01*
X103621288Y-143649500D01*
X103378712Y-143649500D01*
X103378711Y-143649500D01*
X103138214Y-143681161D01*
X102903895Y-143743947D01*
X102679794Y-143836773D01*
X102679785Y-143836777D01*
X102469706Y-143958067D01*
X102277263Y-144105733D01*
X102277256Y-144105739D01*
X102105739Y-144277256D01*
X102105733Y-144277263D01*
X101958067Y-144469706D01*
X101836777Y-144679785D01*
X101836773Y-144679794D01*
X101743947Y-144903895D01*
X101681161Y-145138214D01*
X101649500Y-145378711D01*
X100500500Y-145378711D01*
X100500500Y-143249994D01*
X179575057Y-143249994D01*
X179575057Y-143250005D01*
X179594807Y-143563942D01*
X179594808Y-143563949D01*
X179653755Y-143872958D01*
X179750963Y-144172132D01*
X179750965Y-144172137D01*
X179884900Y-144456761D01*
X179884903Y-144456767D01*
X180053457Y-144722367D01*
X180053460Y-144722371D01*
X180144286Y-144832160D01*
X180785748Y-144190698D01*
X180859588Y-144292330D01*
X181037670Y-144470412D01*
X181139300Y-144544250D01*
X180494971Y-145188579D01*
X180494972Y-145188581D01*
X180737772Y-145364985D01*
X180737790Y-145364996D01*
X181013447Y-145516540D01*
X181013455Y-145516544D01*
X181305926Y-145632340D01*
X181610620Y-145710573D01*
X181610629Y-145710575D01*
X181922701Y-145749999D01*
X181922715Y-145750000D01*
X182237285Y-145750000D01*
X182237298Y-145749999D01*
X182549370Y-145710575D01*
X182549379Y-145710573D01*
X182854073Y-145632340D01*
X183146544Y-145516544D01*
X183146552Y-145516540D01*
X183422209Y-145364996D01*
X183422219Y-145364990D01*
X183665026Y-145188579D01*
X183665027Y-145188579D01*
X183020698Y-144544251D01*
X183122330Y-144470412D01*
X183300412Y-144292330D01*
X183374251Y-144190699D01*
X184015712Y-144832160D01*
X184106544Y-144722364D01*
X184275096Y-144456767D01*
X184275099Y-144456761D01*
X184409034Y-144172137D01*
X184409036Y-144172132D01*
X184506244Y-143872958D01*
X184565191Y-143563949D01*
X184565192Y-143563942D01*
X184584943Y-143250005D01*
X184584943Y-143249994D01*
X184565192Y-142936057D01*
X184565191Y-142936050D01*
X184506244Y-142627041D01*
X184409036Y-142327867D01*
X184409034Y-142327862D01*
X184275099Y-142043238D01*
X184275096Y-142043232D01*
X184106542Y-141777632D01*
X184106539Y-141777628D01*
X184015712Y-141667838D01*
X183374250Y-142309300D01*
X183300412Y-142207670D01*
X183122330Y-142029588D01*
X183020698Y-141955748D01*
X183665027Y-141311419D01*
X183665026Y-141311417D01*
X183422227Y-141135014D01*
X183422209Y-141135003D01*
X183146552Y-140983459D01*
X183146544Y-140983455D01*
X182854073Y-140867659D01*
X182549379Y-140789426D01*
X182549370Y-140789424D01*
X182237298Y-140750000D01*
X181922701Y-140750000D01*
X181610629Y-140789424D01*
X181610620Y-140789426D01*
X181305926Y-140867659D01*
X181013455Y-140983455D01*
X181013447Y-140983459D01*
X180737787Y-141135004D01*
X180737782Y-141135007D01*
X180494972Y-141311418D01*
X180494971Y-141311419D01*
X181139301Y-141955748D01*
X181037670Y-142029588D01*
X180859588Y-142207670D01*
X180785748Y-142309300D01*
X180144286Y-141667838D01*
X180144285Y-141667838D01*
X180053459Y-141777629D01*
X180053457Y-141777632D01*
X179884903Y-142043232D01*
X179884900Y-142043238D01*
X179750965Y-142327862D01*
X179750963Y-142327867D01*
X179653755Y-142627041D01*
X179594808Y-142936050D01*
X179594807Y-142936057D01*
X179575057Y-143249994D01*
X100500500Y-143249994D01*
X100500500Y-129419971D01*
X164774460Y-129419971D01*
X164774460Y-129419978D01*
X164794655Y-129599224D01*
X164794656Y-129599229D01*
X164854236Y-129769498D01*
X164909485Y-129857425D01*
X164950209Y-129922237D01*
X165077763Y-130049791D01*
X165156327Y-130099156D01*
X165228451Y-130144475D01*
X165230503Y-130145764D01*
X165400770Y-130205343D01*
X165400775Y-130205344D01*
X165580021Y-130225540D01*
X165580025Y-130225540D01*
X165580029Y-130225540D01*
X165759274Y-130205344D01*
X165759277Y-130205343D01*
X165759280Y-130205343D01*
X165929547Y-130145764D01*
X166082287Y-130049791D01*
X166082292Y-130049785D01*
X166085122Y-130047530D01*
X166087300Y-130046640D01*
X166088183Y-130046086D01*
X166088280Y-130046240D01*
X166149808Y-130021120D01*
X166162437Y-130020475D01*
X166475500Y-130020475D01*
X166542539Y-130040160D01*
X166588294Y-130092964D01*
X166599500Y-130144475D01*
X166599500Y-131761859D01*
X166599499Y-131761877D01*
X166599499Y-131927583D01*
X166599498Y-131927583D01*
X166599499Y-131927586D01*
X166640423Y-132080314D01*
X166650482Y-132097736D01*
X166650483Y-132097739D01*
X166719475Y-132217238D01*
X166719481Y-132217246D01*
X166838349Y-132336114D01*
X166838355Y-132336119D01*
X167466610Y-132964374D01*
X167466620Y-132964385D01*
X167470950Y-132968715D01*
X167470951Y-132968716D01*
X167582755Y-133080520D01*
X167582757Y-133080521D01*
X167582761Y-133080524D01*
X167719680Y-133159573D01*
X167719687Y-133159577D01*
X167831490Y-133189534D01*
X167872413Y-133200500D01*
X167872414Y-133200500D01*
X168217588Y-133200500D01*
X168284627Y-133220185D01*
X168294903Y-133227555D01*
X168297736Y-133229814D01*
X168297738Y-133229816D01*
X168450478Y-133325789D01*
X168566163Y-133366269D01*
X168620745Y-133385368D01*
X168620750Y-133385369D01*
X168799996Y-133405565D01*
X168800000Y-133405565D01*
X168800004Y-133405565D01*
X168979249Y-133385369D01*
X168979252Y-133385368D01*
X168979255Y-133385368D01*
X169149522Y-133325789D01*
X169302262Y-133229816D01*
X169429816Y-133102262D01*
X169525789Y-132949522D01*
X169585368Y-132779255D01*
X169595891Y-132685861D01*
X169605565Y-132600003D01*
X169605565Y-132599996D01*
X169585369Y-132420750D01*
X169585368Y-132420745D01*
X169554662Y-132332993D01*
X169525789Y-132250478D01*
X169429816Y-132097738D01*
X169419759Y-132087681D01*
X169386274Y-132026358D01*
X169391258Y-131956666D01*
X169419759Y-131912319D01*
X169429816Y-131902262D01*
X169525789Y-131749522D01*
X169585368Y-131579255D01*
X169595161Y-131492329D01*
X169622226Y-131427918D01*
X169630690Y-131418543D01*
X170642416Y-130406819D01*
X170703739Y-130373334D01*
X170730097Y-130370500D01*
X178669903Y-130370500D01*
X178736942Y-130390185D01*
X178757584Y-130406819D01*
X178763181Y-130412416D01*
X178796666Y-130473739D01*
X178799500Y-130500097D01*
X178799500Y-131113330D01*
X178799499Y-131113348D01*
X178799499Y-131279054D01*
X178799498Y-131279054D01*
X178799499Y-131279057D01*
X178840423Y-131431785D01*
X178854153Y-131455565D01*
X178872598Y-131487513D01*
X178919479Y-131568715D01*
X179038349Y-131687585D01*
X179038355Y-131687590D01*
X179715139Y-132364374D01*
X179715160Y-132364397D01*
X179760607Y-132409844D01*
X179794092Y-132471167D01*
X179789108Y-132540859D01*
X179760607Y-132585206D01*
X179659954Y-132685858D01*
X179529432Y-132872265D01*
X179529431Y-132872267D01*
X179433261Y-133078502D01*
X179433258Y-133078511D01*
X179374366Y-133298302D01*
X179374364Y-133298313D01*
X179354532Y-133524998D01*
X179354532Y-133525001D01*
X179374364Y-133751686D01*
X179374366Y-133751697D01*
X179433258Y-133971488D01*
X179433261Y-133971497D01*
X179529431Y-134177732D01*
X179529432Y-134177734D01*
X179659954Y-134364141D01*
X179820858Y-134525045D01*
X179820861Y-134525047D01*
X180007266Y-134655568D01*
X180213504Y-134751739D01*
X180213506Y-134751739D01*
X180218598Y-134753593D01*
X180217836Y-134755684D01*
X180269343Y-134787047D01*
X180299902Y-134849880D01*
X180291639Y-134919260D01*
X180247179Y-134973158D01*
X180180637Y-134994463D01*
X180177628Y-134994500D01*
X179812130Y-134994500D01*
X179812123Y-134994501D01*
X179752516Y-135000908D01*
X179617671Y-135051202D01*
X179617664Y-135051206D01*
X179502455Y-135137452D01*
X179502452Y-135137455D01*
X179416206Y-135252664D01*
X179416202Y-135252671D01*
X179365908Y-135387517D01*
X179359501Y-135447116D01*
X179359501Y-135447123D01*
X179359500Y-135447135D01*
X179359500Y-137142870D01*
X179359501Y-137142876D01*
X179365908Y-137202483D01*
X179416202Y-137337328D01*
X179416206Y-137337335D01*
X179502452Y-137452544D01*
X179502455Y-137452547D01*
X179617664Y-137538793D01*
X179617671Y-137538797D01*
X179752517Y-137589091D01*
X179752516Y-137589091D01*
X179759444Y-137589835D01*
X179812127Y-137595500D01*
X181507872Y-137595499D01*
X181567483Y-137589091D01*
X181702331Y-137538796D01*
X181817546Y-137452546D01*
X181903796Y-137337331D01*
X181954091Y-137202483D01*
X181960500Y-137142873D01*
X181960499Y-135447128D01*
X181954091Y-135387517D01*
X181949767Y-135375925D01*
X181903797Y-135252671D01*
X181903793Y-135252664D01*
X181817547Y-135137455D01*
X181817544Y-135137452D01*
X181702335Y-135051206D01*
X181702328Y-135051202D01*
X181567482Y-135000908D01*
X181567483Y-135000908D01*
X181507883Y-134994501D01*
X181507881Y-134994500D01*
X181507873Y-134994500D01*
X181507865Y-134994500D01*
X181142373Y-134994500D01*
X181075334Y-134974815D01*
X181029579Y-134922011D01*
X181019635Y-134852853D01*
X181048660Y-134789297D01*
X181101935Y-134755059D01*
X181101402Y-134753593D01*
X181106489Y-134751740D01*
X181106496Y-134751739D01*
X181312734Y-134655568D01*
X181499139Y-134525047D01*
X181660047Y-134364139D01*
X181790568Y-134177734D01*
X181886739Y-133971496D01*
X181945635Y-133751692D01*
X181965468Y-133525000D01*
X181961197Y-133476188D01*
X181951581Y-133366269D01*
X181945635Y-133298308D01*
X181887280Y-133080524D01*
X181886741Y-133078511D01*
X181886738Y-133078502D01*
X181790568Y-132872266D01*
X181660047Y-132685861D01*
X181660045Y-132685858D01*
X181634392Y-132660205D01*
X181600907Y-132598882D01*
X181605891Y-132529190D01*
X181634392Y-132484842D01*
X181638711Y-132480522D01*
X181638716Y-132480520D01*
X181750520Y-132368716D01*
X181750521Y-132368713D01*
X181989642Y-132129592D01*
X182050962Y-132096109D01*
X182120654Y-132101093D01*
X182176587Y-132142965D01*
X182200848Y-132206467D01*
X182214858Y-132366600D01*
X182214860Y-132366610D01*
X182273730Y-132586317D01*
X182273735Y-132586331D01*
X182369863Y-132792478D01*
X182420974Y-132865472D01*
X183017037Y-132269408D01*
X183034075Y-132332993D01*
X183099901Y-132447007D01*
X183192993Y-132540099D01*
X183307007Y-132605925D01*
X183370590Y-132622962D01*
X182774526Y-133219025D01*
X182847513Y-133270132D01*
X182847521Y-133270136D01*
X183053668Y-133366264D01*
X183053679Y-133366268D01*
X183199068Y-133405225D01*
X183258728Y-133441590D01*
X183289257Y-133504437D01*
X183280962Y-133573813D01*
X183236477Y-133627690D01*
X183199068Y-133644775D01*
X183053679Y-133683731D01*
X183053673Y-133683734D01*
X182847516Y-133779866D01*
X182847512Y-133779868D01*
X182774526Y-133830973D01*
X182774526Y-133830974D01*
X183370590Y-134427037D01*
X183307007Y-134444075D01*
X183192993Y-134509901D01*
X183099901Y-134602993D01*
X183034075Y-134717007D01*
X183017037Y-134780589D01*
X182420974Y-134184526D01*
X182420973Y-134184526D01*
X182369868Y-134257512D01*
X182369866Y-134257516D01*
X182273734Y-134463673D01*
X182273730Y-134463682D01*
X182214860Y-134683389D01*
X182214858Y-134683400D01*
X182195034Y-134909997D01*
X182195034Y-134910002D01*
X182214858Y-135136599D01*
X182214860Y-135136610D01*
X182273730Y-135356317D01*
X182273735Y-135356331D01*
X182369863Y-135562478D01*
X182420974Y-135635472D01*
X183017037Y-135039409D01*
X183034075Y-135102993D01*
X183099901Y-135217007D01*
X183192993Y-135310099D01*
X183307007Y-135375925D01*
X183370590Y-135392962D01*
X182774526Y-135989025D01*
X182847513Y-136040132D01*
X182847521Y-136040136D01*
X183053668Y-136136264D01*
X183053682Y-136136269D01*
X183273389Y-136195139D01*
X183273400Y-136195141D01*
X183499998Y-136214966D01*
X183500002Y-136214966D01*
X183726599Y-136195141D01*
X183726610Y-136195139D01*
X183946317Y-136136269D01*
X183946331Y-136136264D01*
X184152478Y-136040136D01*
X184225471Y-135989024D01*
X183629409Y-135392962D01*
X183692993Y-135375925D01*
X183807007Y-135310099D01*
X183900099Y-135217007D01*
X183965925Y-135102993D01*
X183982962Y-135039409D01*
X184579024Y-135635471D01*
X184630136Y-135562478D01*
X184726264Y-135356331D01*
X184726269Y-135356317D01*
X184785139Y-135136610D01*
X184785141Y-135136599D01*
X184804966Y-134910002D01*
X184804966Y-134909997D01*
X184785141Y-134683400D01*
X184785139Y-134683389D01*
X184726269Y-134463682D01*
X184726264Y-134463668D01*
X184630136Y-134257521D01*
X184630132Y-134257513D01*
X184579025Y-134184526D01*
X183982962Y-134780589D01*
X183965925Y-134717007D01*
X183900099Y-134602993D01*
X183807007Y-134509901D01*
X183692993Y-134444075D01*
X183629410Y-134427037D01*
X184225472Y-133830974D01*
X184152478Y-133779863D01*
X183946331Y-133683735D01*
X183946317Y-133683730D01*
X183800932Y-133644775D01*
X183741271Y-133608410D01*
X183710742Y-133545563D01*
X183719037Y-133476188D01*
X183763522Y-133422310D01*
X183800932Y-133405225D01*
X183946317Y-133366269D01*
X183946331Y-133366264D01*
X184152478Y-133270136D01*
X184225471Y-133219024D01*
X183629409Y-132622962D01*
X183692993Y-132605925D01*
X183807007Y-132540099D01*
X183900099Y-132447007D01*
X183965925Y-132332993D01*
X183982962Y-132269409D01*
X184579024Y-132865471D01*
X184630136Y-132792478D01*
X184726264Y-132586331D01*
X184726269Y-132586317D01*
X184785139Y-132366610D01*
X184785141Y-132366599D01*
X184804966Y-132140002D01*
X184804966Y-132139997D01*
X184785141Y-131913400D01*
X184785139Y-131913389D01*
X184726269Y-131693682D01*
X184726264Y-131693668D01*
X184630136Y-131487521D01*
X184630132Y-131487513D01*
X184579025Y-131414526D01*
X183982962Y-132010589D01*
X183965925Y-131947007D01*
X183900099Y-131832993D01*
X183807007Y-131739901D01*
X183692993Y-131674075D01*
X183629408Y-131657037D01*
X184235541Y-131050905D01*
X184241677Y-131020372D01*
X184289438Y-130970676D01*
X184324351Y-130950520D01*
X184436155Y-130838716D01*
X184436155Y-130838714D01*
X184446359Y-130828511D01*
X184446363Y-130828506D01*
X185158506Y-130116363D01*
X185158511Y-130116359D01*
X185168714Y-130106155D01*
X185168716Y-130106155D01*
X185280520Y-129994351D01*
X185359577Y-129857419D01*
X185396538Y-129719480D01*
X185400500Y-129704693D01*
X185400500Y-129546578D01*
X185400500Y-125219060D01*
X185400501Y-125219047D01*
X185400501Y-125050944D01*
X185383719Y-124988313D01*
X185359577Y-124898216D01*
X185320219Y-124830045D01*
X185280524Y-124761290D01*
X185280518Y-124761282D01*
X184791941Y-124272706D01*
X184758456Y-124211383D01*
X184759847Y-124152931D01*
X184785635Y-124056692D01*
X184805468Y-123830000D01*
X184785635Y-123603308D01*
X184726739Y-123383504D01*
X184630568Y-123177266D01*
X184500047Y-122990861D01*
X184500045Y-122990858D01*
X184339141Y-122829954D01*
X184232546Y-122755317D01*
X184152734Y-122699432D01*
X184076303Y-122663791D01*
X184023865Y-122617619D01*
X184004714Y-122550425D01*
X184021323Y-122489412D01*
X184059577Y-122423154D01*
X184100501Y-122270427D01*
X184100501Y-122270425D01*
X184102604Y-122262577D01*
X184105616Y-122263384D01*
X184127895Y-122212976D01*
X184151472Y-122191451D01*
X184152731Y-122190569D01*
X184152734Y-122190568D01*
X184339139Y-122060047D01*
X184500047Y-121899139D01*
X184630568Y-121712734D01*
X184726739Y-121506496D01*
X184785635Y-121286692D01*
X184805468Y-121060000D01*
X184785635Y-120833308D01*
X184726739Y-120613504D01*
X184630568Y-120407266D01*
X184500047Y-120220861D01*
X184500045Y-120220858D01*
X184339141Y-120059954D01*
X184232546Y-119985317D01*
X184152734Y-119929432D01*
X184076303Y-119893791D01*
X184023865Y-119847619D01*
X184004714Y-119780425D01*
X184021323Y-119719412D01*
X184059577Y-119653154D01*
X184100501Y-119500427D01*
X184100501Y-119500425D01*
X184102604Y-119492577D01*
X184105616Y-119493384D01*
X184127895Y-119442976D01*
X184151472Y-119421451D01*
X184152731Y-119420569D01*
X184152734Y-119420568D01*
X184339139Y-119290047D01*
X184500047Y-119129139D01*
X184630568Y-118942734D01*
X184726739Y-118736496D01*
X184785635Y-118516692D01*
X184805468Y-118290000D01*
X184801197Y-118241188D01*
X184785635Y-118063313D01*
X184785635Y-118063308D01*
X184726739Y-117843504D01*
X184630568Y-117637266D01*
X184500047Y-117450861D01*
X184500045Y-117450858D01*
X184339141Y-117289954D01*
X184152734Y-117159432D01*
X184152732Y-117159431D01*
X183946497Y-117063261D01*
X183946488Y-117063258D01*
X183726697Y-117004366D01*
X183726693Y-117004365D01*
X183726692Y-117004365D01*
X183726691Y-117004364D01*
X183726686Y-117004364D01*
X183500002Y-116984532D01*
X183499998Y-116984532D01*
X183273313Y-117004364D01*
X183273302Y-117004366D01*
X183053511Y-117063258D01*
X183053502Y-117063261D01*
X182847267Y-117159431D01*
X182847265Y-117159432D01*
X182660858Y-117289954D01*
X182499954Y-117450858D01*
X182369432Y-117637265D01*
X182369431Y-117637267D01*
X182273261Y-117843502D01*
X182273258Y-117843511D01*
X182214366Y-118063302D01*
X182214364Y-118063313D01*
X182194532Y-118289998D01*
X182194532Y-118290001D01*
X182214364Y-118516686D01*
X182214366Y-118516697D01*
X182273258Y-118736488D01*
X182273261Y-118736497D01*
X182369431Y-118942732D01*
X182369432Y-118942734D01*
X182499954Y-119129141D01*
X182633792Y-119262979D01*
X182667277Y-119324302D01*
X182662293Y-119393994D01*
X182633792Y-119438341D01*
X182164983Y-119907150D01*
X182103660Y-119940635D01*
X182033968Y-119935651D01*
X181978035Y-119893779D01*
X181953618Y-119828315D01*
X181953774Y-119808661D01*
X181954591Y-119799330D01*
X181965468Y-119675000D01*
X181963324Y-119650499D01*
X181958363Y-119593793D01*
X181945635Y-119448308D01*
X181886739Y-119228504D01*
X181790568Y-119022266D01*
X181660047Y-118835861D01*
X181660045Y-118835858D01*
X181499141Y-118674954D01*
X181312734Y-118544432D01*
X181312732Y-118544431D01*
X181106497Y-118448261D01*
X181106488Y-118448258D01*
X180983966Y-118415429D01*
X180962862Y-118409774D01*
X180903202Y-118373410D01*
X180872673Y-118310563D01*
X180880968Y-118241188D01*
X180925453Y-118187310D01*
X180962862Y-118170225D01*
X181106496Y-118131739D01*
X181312734Y-118035568D01*
X181499139Y-117905047D01*
X181660047Y-117744139D01*
X181790568Y-117557734D01*
X181886739Y-117351496D01*
X181945635Y-117131692D01*
X181963649Y-116925788D01*
X181965468Y-116905001D01*
X181965468Y-116904998D01*
X181958890Y-116829815D01*
X181945635Y-116678308D01*
X181886739Y-116458504D01*
X181790568Y-116252266D01*
X181660047Y-116065861D01*
X181660045Y-116065858D01*
X181499141Y-115904954D01*
X181312734Y-115774432D01*
X181312732Y-115774431D01*
X181106497Y-115678261D01*
X181106488Y-115678258D01*
X180886697Y-115619366D01*
X180886693Y-115619365D01*
X180886692Y-115619365D01*
X180886691Y-115619364D01*
X180886686Y-115619364D01*
X180660002Y-115599532D01*
X180659998Y-115599532D01*
X180433313Y-115619364D01*
X180433302Y-115619366D01*
X180213511Y-115678258D01*
X180213502Y-115678261D01*
X180007267Y-115774431D01*
X180007265Y-115774432D01*
X179820858Y-115904954D01*
X179659954Y-116065858D01*
X179529432Y-116252265D01*
X179529431Y-116252267D01*
X179433261Y-116458502D01*
X179433258Y-116458511D01*
X179374366Y-116678302D01*
X179374364Y-116678313D01*
X179354532Y-116904998D01*
X179354532Y-116905001D01*
X179374364Y-117131686D01*
X179374366Y-117131697D01*
X179433258Y-117351488D01*
X179433261Y-117351497D01*
X179529431Y-117557732D01*
X179529432Y-117557734D01*
X179659954Y-117744141D01*
X179820858Y-117905045D01*
X179820861Y-117905047D01*
X180007266Y-118035568D01*
X180213504Y-118131739D01*
X180213509Y-118131740D01*
X180213511Y-118131741D01*
X180357136Y-118170225D01*
X180416797Y-118206590D01*
X180447326Y-118269437D01*
X180439031Y-118338812D01*
X180394546Y-118392690D01*
X180357136Y-118409775D01*
X180213511Y-118448258D01*
X180213502Y-118448261D01*
X180007267Y-118544431D01*
X180007265Y-118544432D01*
X179820858Y-118674954D01*
X179659954Y-118835858D01*
X179529432Y-119022265D01*
X179529431Y-119022267D01*
X179433261Y-119228502D01*
X179433258Y-119228511D01*
X179374366Y-119448302D01*
X179374364Y-119448313D01*
X179354532Y-119674998D01*
X179354532Y-119675001D01*
X179374364Y-119901686D01*
X179374366Y-119901697D01*
X179433258Y-120121488D01*
X179433261Y-120121497D01*
X179529431Y-120327732D01*
X179529432Y-120327734D01*
X179659954Y-120514141D01*
X179820861Y-120675048D01*
X179825006Y-120678526D01*
X179824097Y-120679609D01*
X179863552Y-120728976D01*
X179870740Y-120798475D01*
X179839213Y-120860828D01*
X179836481Y-120863647D01*
X179413443Y-121286686D01*
X179031286Y-121668843D01*
X179031284Y-121668845D01*
X178989279Y-121710850D01*
X178919480Y-121780648D01*
X178914263Y-121789685D01*
X178908019Y-121800501D01*
X178840423Y-121917580D01*
X178799499Y-122070308D01*
X178799499Y-122070310D01*
X178799499Y-122238411D01*
X178799500Y-122238424D01*
X178799500Y-123699902D01*
X178779815Y-123766941D01*
X178763181Y-123787583D01*
X178119481Y-124431282D01*
X178119479Y-124431284D01*
X178099499Y-124465891D01*
X178091054Y-124480520D01*
X178040423Y-124568215D01*
X177999499Y-124720943D01*
X177999499Y-124720945D01*
X177999499Y-124889046D01*
X177999500Y-124889059D01*
X177999500Y-127175638D01*
X177979815Y-127242677D01*
X177963181Y-127263319D01*
X177787584Y-127438916D01*
X177726261Y-127472401D01*
X177699903Y-127475235D01*
X169065304Y-127475235D01*
X169024382Y-127486199D01*
X169024383Y-127486200D01*
X168956593Y-127504364D01*
X168886743Y-127502701D01*
X168828881Y-127463538D01*
X168801377Y-127399310D01*
X168800500Y-127384589D01*
X168800500Y-119444975D01*
X170794540Y-119444975D01*
X170814326Y-119633231D01*
X170814327Y-119633234D01*
X170872818Y-119813252D01*
X170872821Y-119813259D01*
X170967467Y-119977191D01*
X171094129Y-120117863D01*
X171247265Y-120229123D01*
X171247270Y-120229126D01*
X171420192Y-120306117D01*
X171420197Y-120306119D01*
X171605354Y-120345475D01*
X171605355Y-120345475D01*
X171794644Y-120345475D01*
X171794646Y-120345475D01*
X171979803Y-120306119D01*
X172152730Y-120229126D01*
X172305871Y-120117863D01*
X172432533Y-119977191D01*
X172527179Y-119813259D01*
X172585674Y-119633231D01*
X172605460Y-119444975D01*
X172585674Y-119256719D01*
X172527179Y-119076691D01*
X172432533Y-118912759D01*
X172305871Y-118772087D01*
X172305870Y-118772086D01*
X172152734Y-118660826D01*
X172152729Y-118660823D01*
X171979807Y-118583832D01*
X171979802Y-118583830D01*
X171834001Y-118552840D01*
X171794646Y-118544475D01*
X171605354Y-118544475D01*
X171572897Y-118551373D01*
X171420197Y-118583830D01*
X171420192Y-118583832D01*
X171247270Y-118660823D01*
X171247265Y-118660826D01*
X171094129Y-118772086D01*
X170967466Y-118912760D01*
X170872821Y-119076690D01*
X170872818Y-119076697D01*
X170823491Y-119228511D01*
X170814326Y-119256719D01*
X170794540Y-119444975D01*
X168800500Y-119444975D01*
X168800500Y-115200000D01*
X170894540Y-115200000D01*
X170914326Y-115388256D01*
X170914327Y-115388259D01*
X170972818Y-115568277D01*
X170972821Y-115568284D01*
X171067467Y-115732216D01*
X171105478Y-115774431D01*
X171194129Y-115872888D01*
X171347265Y-115984148D01*
X171347270Y-115984151D01*
X171520192Y-116061142D01*
X171520197Y-116061144D01*
X171705354Y-116100500D01*
X171705355Y-116100500D01*
X171894644Y-116100500D01*
X171894646Y-116100500D01*
X172079803Y-116061144D01*
X172252730Y-115984151D01*
X172405871Y-115872888D01*
X172532533Y-115732216D01*
X172627179Y-115568284D01*
X172685674Y-115388256D01*
X172705460Y-115200000D01*
X172685674Y-115011744D01*
X172627179Y-114831716D01*
X172532533Y-114667784D01*
X172405871Y-114527112D01*
X172405870Y-114527111D01*
X172252734Y-114415851D01*
X172252729Y-114415848D01*
X172079807Y-114338857D01*
X172079802Y-114338855D01*
X171920978Y-114305097D01*
X171894646Y-114299500D01*
X171705354Y-114299500D01*
X171679022Y-114305097D01*
X171520197Y-114338855D01*
X171520192Y-114338857D01*
X171347270Y-114415848D01*
X171347265Y-114415851D01*
X171194129Y-114527111D01*
X171067466Y-114667785D01*
X170972821Y-114831715D01*
X170972818Y-114831722D01*
X170914327Y-115011740D01*
X170914326Y-115011744D01*
X170894540Y-115200000D01*
X168800500Y-115200000D01*
X168800500Y-114382412D01*
X168820185Y-114315373D01*
X168827555Y-114305097D01*
X168829810Y-114302267D01*
X168829816Y-114302262D01*
X168925789Y-114149522D01*
X168985368Y-113979255D01*
X168985369Y-113979249D01*
X169005565Y-113800003D01*
X169005565Y-113799996D01*
X168985369Y-113620750D01*
X168985368Y-113620745D01*
X168950572Y-113521305D01*
X168925789Y-113450478D01*
X168829816Y-113297738D01*
X168702262Y-113170184D01*
X168631608Y-113125789D01*
X168549523Y-113074211D01*
X168379254Y-113014631D01*
X168379249Y-113014630D01*
X168200004Y-112994435D01*
X168199996Y-112994435D01*
X168020750Y-113014630D01*
X168020745Y-113014631D01*
X167850476Y-113074211D01*
X167697737Y-113170184D01*
X167570184Y-113297737D01*
X167474211Y-113450476D01*
X167414631Y-113620745D01*
X167414630Y-113620750D01*
X167394435Y-113799996D01*
X167394435Y-113800003D01*
X167414630Y-113979249D01*
X167414631Y-113979254D01*
X167474211Y-114149523D01*
X167570185Y-114302263D01*
X167572445Y-114305097D01*
X167573334Y-114307275D01*
X167573889Y-114308158D01*
X167573734Y-114308255D01*
X167598855Y-114369783D01*
X167599500Y-114382412D01*
X167599500Y-128154316D01*
X167579815Y-128221355D01*
X167563181Y-128241997D01*
X167022022Y-128783156D01*
X166960699Y-128816641D01*
X166934341Y-128819475D01*
X166162437Y-128819475D01*
X166095398Y-128799790D01*
X166085122Y-128792420D01*
X166082288Y-128790160D01*
X166082287Y-128790159D01*
X166018080Y-128749815D01*
X165929548Y-128694186D01*
X165759279Y-128634606D01*
X165759274Y-128634605D01*
X165580029Y-128614410D01*
X165580021Y-128614410D01*
X165400775Y-128634605D01*
X165400770Y-128634606D01*
X165230501Y-128694186D01*
X165077762Y-128790159D01*
X164950209Y-128917712D01*
X164854236Y-129070451D01*
X164794656Y-129240720D01*
X164794655Y-129240725D01*
X164774460Y-129419971D01*
X100500500Y-129419971D01*
X100500500Y-128200000D01*
X159094540Y-128200000D01*
X159114326Y-128388256D01*
X159114327Y-128388259D01*
X159172818Y-128568277D01*
X159172821Y-128568284D01*
X159267467Y-128732216D01*
X159328311Y-128799790D01*
X159394129Y-128872888D01*
X159547265Y-128984148D01*
X159547270Y-128984151D01*
X159720192Y-129061142D01*
X159720197Y-129061144D01*
X159905354Y-129100500D01*
X159905355Y-129100500D01*
X160094644Y-129100500D01*
X160094646Y-129100500D01*
X160279803Y-129061144D01*
X160452730Y-128984151D01*
X160605871Y-128872888D01*
X160732533Y-128732216D01*
X160827179Y-128568284D01*
X160885674Y-128388256D01*
X160905460Y-128200000D01*
X160885674Y-128011744D01*
X160827179Y-127831716D01*
X160732533Y-127667784D01*
X160605871Y-127527112D01*
X160605870Y-127527111D01*
X160452734Y-127415851D01*
X160452729Y-127415848D01*
X160279807Y-127338857D01*
X160279802Y-127338855D01*
X160133822Y-127307827D01*
X160094646Y-127299500D01*
X159905354Y-127299500D01*
X159872897Y-127306398D01*
X159720197Y-127338855D01*
X159720192Y-127338857D01*
X159547270Y-127415848D01*
X159547265Y-127415851D01*
X159394129Y-127527111D01*
X159267466Y-127667785D01*
X159172821Y-127831715D01*
X159172818Y-127831722D01*
X159123015Y-127985001D01*
X159114326Y-128011744D01*
X159094540Y-128200000D01*
X100500500Y-128200000D01*
X100500500Y-120789993D01*
X108594700Y-120789993D01*
X108594700Y-120790006D01*
X108613864Y-121021297D01*
X108613866Y-121021308D01*
X108670842Y-121246300D01*
X108764075Y-121458848D01*
X108891016Y-121653147D01*
X108891019Y-121653151D01*
X108891021Y-121653153D01*
X109048216Y-121823913D01*
X109048219Y-121823915D01*
X109048222Y-121823918D01*
X109231365Y-121966464D01*
X109231371Y-121966468D01*
X109231374Y-121966470D01*
X109354272Y-122032979D01*
X109423249Y-122070308D01*
X109435497Y-122076936D01*
X109531728Y-122109972D01*
X109655015Y-122152297D01*
X109655017Y-122152297D01*
X109655019Y-122152298D01*
X109883951Y-122190500D01*
X109883952Y-122190500D01*
X110116048Y-122190500D01*
X110116049Y-122190500D01*
X110344981Y-122152298D01*
X110564503Y-122076936D01*
X110768626Y-121966470D01*
X110951784Y-121823913D01*
X111108979Y-121653153D01*
X111235924Y-121458849D01*
X111329157Y-121246300D01*
X111386134Y-121021305D01*
X111399198Y-120863647D01*
X111405300Y-120790006D01*
X111405300Y-120789993D01*
X111386135Y-120558702D01*
X111386133Y-120558691D01*
X111329157Y-120333699D01*
X111235924Y-120121151D01*
X111108983Y-119926852D01*
X111108980Y-119926849D01*
X111108979Y-119926847D01*
X111014195Y-119823884D01*
X110983275Y-119761232D01*
X110991135Y-119691806D01*
X111035283Y-119637651D01*
X111062095Y-119623722D01*
X111142326Y-119593798D01*
X111142326Y-119593797D01*
X111142331Y-119593796D01*
X111257546Y-119507546D01*
X111343796Y-119392331D01*
X111394091Y-119257483D01*
X111400500Y-119197873D01*
X111400499Y-117302128D01*
X111394091Y-117242517D01*
X111363102Y-117159432D01*
X111343797Y-117107671D01*
X111343793Y-117107664D01*
X111257547Y-116992455D01*
X111257544Y-116992452D01*
X111142335Y-116906206D01*
X111142328Y-116906202D01*
X111007482Y-116855908D01*
X111007483Y-116855908D01*
X110947883Y-116849501D01*
X110947881Y-116849500D01*
X110947873Y-116849500D01*
X110947864Y-116849500D01*
X109052129Y-116849500D01*
X109052123Y-116849501D01*
X108992516Y-116855908D01*
X108857671Y-116906202D01*
X108857664Y-116906206D01*
X108742455Y-116992452D01*
X108742452Y-116992455D01*
X108656206Y-117107664D01*
X108656202Y-117107671D01*
X108605908Y-117242517D01*
X108599501Y-117302116D01*
X108599501Y-117302123D01*
X108599500Y-117302135D01*
X108599500Y-119197870D01*
X108599501Y-119197876D01*
X108605908Y-119257483D01*
X108656202Y-119392328D01*
X108656206Y-119392335D01*
X108742452Y-119507544D01*
X108742455Y-119507547D01*
X108857664Y-119593793D01*
X108857673Y-119593798D01*
X108937904Y-119623722D01*
X108993838Y-119665593D01*
X109018256Y-119731057D01*
X109003405Y-119799330D01*
X108985802Y-119823886D01*
X108891019Y-119926849D01*
X108764075Y-120121151D01*
X108670842Y-120333699D01*
X108613866Y-120558691D01*
X108613864Y-120558702D01*
X108594700Y-120789993D01*
X100500500Y-120789993D01*
X100500500Y-113289993D01*
X108594700Y-113289993D01*
X108594700Y-113290006D01*
X108613864Y-113521297D01*
X108613866Y-113521308D01*
X108670842Y-113746300D01*
X108764075Y-113958848D01*
X108891016Y-114153147D01*
X108891019Y-114153151D01*
X108891021Y-114153153D01*
X109048216Y-114323913D01*
X109048219Y-114323915D01*
X109048222Y-114323918D01*
X109231365Y-114466464D01*
X109231371Y-114466468D01*
X109231374Y-114466470D01*
X109435497Y-114576936D01*
X109549487Y-114616068D01*
X109655015Y-114652297D01*
X109655017Y-114652297D01*
X109655019Y-114652298D01*
X109883951Y-114690500D01*
X109883952Y-114690500D01*
X110116048Y-114690500D01*
X110116049Y-114690500D01*
X110344981Y-114652298D01*
X110564503Y-114576936D01*
X110768626Y-114466470D01*
X110951784Y-114323913D01*
X111108979Y-114153153D01*
X111235924Y-113958849D01*
X111329157Y-113746300D01*
X111386134Y-113521305D01*
X111392003Y-113450476D01*
X111405300Y-113290006D01*
X111405300Y-113289993D01*
X111386135Y-113058702D01*
X111386133Y-113058691D01*
X111329157Y-112833699D01*
X111235924Y-112621151D01*
X111108983Y-112426852D01*
X111108980Y-112426849D01*
X111108979Y-112426847D01*
X111014195Y-112323884D01*
X110983275Y-112261232D01*
X110991135Y-112191806D01*
X111035283Y-112137651D01*
X111062095Y-112123722D01*
X111142326Y-112093798D01*
X111142326Y-112093797D01*
X111142331Y-112093796D01*
X111257546Y-112007546D01*
X111343796Y-111892331D01*
X111394091Y-111757483D01*
X111400500Y-111697873D01*
X111400499Y-109802128D01*
X111394091Y-109742517D01*
X111354381Y-109636050D01*
X111343797Y-109607671D01*
X111343793Y-109607664D01*
X111257547Y-109492455D01*
X111257544Y-109492452D01*
X111142335Y-109406206D01*
X111142328Y-109406202D01*
X111007482Y-109355908D01*
X111007483Y-109355908D01*
X110947883Y-109349501D01*
X110947881Y-109349500D01*
X110947873Y-109349500D01*
X110947864Y-109349500D01*
X109052129Y-109349500D01*
X109052123Y-109349501D01*
X108992516Y-109355908D01*
X108857671Y-109406202D01*
X108857664Y-109406206D01*
X108742455Y-109492452D01*
X108742452Y-109492455D01*
X108656206Y-109607664D01*
X108656202Y-109607671D01*
X108605908Y-109742517D01*
X108600991Y-109788256D01*
X108599501Y-109802123D01*
X108599500Y-109802135D01*
X108599500Y-111697870D01*
X108599501Y-111697876D01*
X108605908Y-111757483D01*
X108656202Y-111892328D01*
X108656206Y-111892335D01*
X108742452Y-112007544D01*
X108742455Y-112007547D01*
X108857664Y-112093793D01*
X108857673Y-112093798D01*
X108937904Y-112123722D01*
X108993838Y-112165593D01*
X109018256Y-112231057D01*
X109003405Y-112299330D01*
X108985802Y-112323886D01*
X108891019Y-112426849D01*
X108764075Y-112621151D01*
X108670842Y-112833699D01*
X108613866Y-113058691D01*
X108613864Y-113058702D01*
X108594700Y-113289993D01*
X100500500Y-113289993D01*
X100500500Y-105789993D01*
X108594700Y-105789993D01*
X108594700Y-105790006D01*
X108613864Y-106021297D01*
X108613866Y-106021308D01*
X108670842Y-106246300D01*
X108764075Y-106458848D01*
X108891016Y-106653147D01*
X108891019Y-106653151D01*
X108891021Y-106653153D01*
X109048216Y-106823913D01*
X109048219Y-106823915D01*
X109048222Y-106823918D01*
X109231365Y-106966464D01*
X109231371Y-106966468D01*
X109231374Y-106966470D01*
X109435497Y-107076936D01*
X109549487Y-107116068D01*
X109655015Y-107152297D01*
X109655017Y-107152297D01*
X109655019Y-107152298D01*
X109883951Y-107190500D01*
X109883952Y-107190500D01*
X110116048Y-107190500D01*
X110116049Y-107190500D01*
X110344981Y-107152298D01*
X110564503Y-107076936D01*
X110768626Y-106966470D01*
X110951784Y-106823913D01*
X111108979Y-106653153D01*
X111235924Y-106458849D01*
X111329157Y-106246300D01*
X111386134Y-106021305D01*
X111391417Y-105957546D01*
X111405300Y-105790006D01*
X111405300Y-105789993D01*
X111386135Y-105558702D01*
X111386133Y-105558691D01*
X111329157Y-105333699D01*
X111235924Y-105121151D01*
X111108983Y-104926852D01*
X111108980Y-104926849D01*
X111108979Y-104926847D01*
X111014195Y-104823884D01*
X110983275Y-104761232D01*
X110991135Y-104691806D01*
X111035283Y-104637651D01*
X111062095Y-104623722D01*
X111142326Y-104593798D01*
X111142326Y-104593797D01*
X111142331Y-104593796D01*
X111257546Y-104507546D01*
X111263196Y-104499999D01*
X149599364Y-104499999D01*
X149599364Y-104500000D01*
X150496988Y-104500000D01*
X150464075Y-104557007D01*
X150430000Y-104684174D01*
X150430000Y-104815826D01*
X150464075Y-104942993D01*
X150496988Y-105000000D01*
X149599364Y-105000000D01*
X149656567Y-105213486D01*
X149656570Y-105213492D01*
X149756399Y-105427578D01*
X149891894Y-105621082D01*
X150058917Y-105788105D01*
X150252421Y-105923600D01*
X150466507Y-106023429D01*
X150466516Y-106023433D01*
X150680000Y-106080634D01*
X150680000Y-105183012D01*
X150737007Y-105215925D01*
X150864174Y-105250000D01*
X150995826Y-105250000D01*
X151122993Y-105215925D01*
X151180000Y-105183012D01*
X151180000Y-106080633D01*
X151393483Y-106023433D01*
X151393492Y-106023429D01*
X151607578Y-105923600D01*
X151801082Y-105788105D01*
X151968105Y-105621082D01*
X152098119Y-105435405D01*
X152152696Y-105391781D01*
X152222195Y-105384588D01*
X152284549Y-105416110D01*
X152301269Y-105435405D01*
X152431505Y-105621401D01*
X152598599Y-105788495D01*
X152695384Y-105856265D01*
X152792165Y-105924032D01*
X152792167Y-105924033D01*
X152792170Y-105924035D01*
X153006337Y-106023903D01*
X153234592Y-106085063D01*
X153411034Y-106100500D01*
X153469999Y-106105659D01*
X153470000Y-106105659D01*
X153470001Y-106105659D01*
X153528966Y-106100500D01*
X153705408Y-106085063D01*
X153933663Y-106023903D01*
X154147830Y-105924035D01*
X154341401Y-105788495D01*
X154508495Y-105621401D01*
X154638425Y-105435842D01*
X154693002Y-105392217D01*
X154762500Y-105385023D01*
X154824855Y-105416546D01*
X154841575Y-105435842D01*
X154971281Y-105621082D01*
X154971505Y-105621401D01*
X155138599Y-105788495D01*
X155235384Y-105856265D01*
X155332165Y-105924032D01*
X155332167Y-105924033D01*
X155332170Y-105924035D01*
X155546337Y-106023903D01*
X155774592Y-106085063D01*
X155951034Y-106100500D01*
X156009999Y-106105659D01*
X156010000Y-106105659D01*
X156010001Y-106105659D01*
X156068966Y-106100500D01*
X156245408Y-106085063D01*
X156473663Y-106023903D01*
X156687830Y-105924035D01*
X156881401Y-105788495D01*
X157003329Y-105666566D01*
X157064648Y-105633084D01*
X157134340Y-105638068D01*
X157190274Y-105679939D01*
X157207189Y-105710917D01*
X157256202Y-105842328D01*
X157256206Y-105842335D01*
X157342452Y-105957544D01*
X157342455Y-105957547D01*
X157457664Y-106043793D01*
X157457671Y-106043797D01*
X157592517Y-106094091D01*
X157592516Y-106094091D01*
X157599444Y-106094835D01*
X157652127Y-106100500D01*
X159447872Y-106100499D01*
X159507483Y-106094091D01*
X159642331Y-106043796D01*
X159757546Y-105957546D01*
X159843796Y-105842331D01*
X159894091Y-105707483D01*
X159900500Y-105647873D01*
X159900499Y-103852128D01*
X159894091Y-103792517D01*
X159892810Y-103789083D01*
X159843797Y-103657671D01*
X159843793Y-103657664D01*
X159757547Y-103542455D01*
X159757544Y-103542452D01*
X159642335Y-103456206D01*
X159642328Y-103456202D01*
X159507482Y-103405908D01*
X159507483Y-103405908D01*
X159447883Y-103399501D01*
X159447881Y-103399500D01*
X159447873Y-103399500D01*
X159447864Y-103399500D01*
X157652129Y-103399500D01*
X157652123Y-103399501D01*
X157592516Y-103405908D01*
X157457671Y-103456202D01*
X157457664Y-103456206D01*
X157342455Y-103542452D01*
X157342452Y-103542455D01*
X157256206Y-103657664D01*
X157256203Y-103657669D01*
X157207189Y-103789083D01*
X157165317Y-103845016D01*
X157099853Y-103869433D01*
X157031580Y-103854581D01*
X157003326Y-103833430D01*
X156881402Y-103711506D01*
X156881395Y-103711501D01*
X156687834Y-103575967D01*
X156687830Y-103575965D01*
X156687828Y-103575964D01*
X156473663Y-103476097D01*
X156473659Y-103476096D01*
X156473655Y-103476094D01*
X156245413Y-103414938D01*
X156245403Y-103414936D01*
X156010001Y-103394341D01*
X156009999Y-103394341D01*
X155774596Y-103414936D01*
X155774586Y-103414938D01*
X155546344Y-103476094D01*
X155546335Y-103476098D01*
X155332171Y-103575964D01*
X155332169Y-103575965D01*
X155138597Y-103711505D01*
X154971505Y-103878597D01*
X154841575Y-104064158D01*
X154786998Y-104107783D01*
X154717500Y-104114977D01*
X154655145Y-104083454D01*
X154638425Y-104064158D01*
X154508494Y-103878597D01*
X154341402Y-103711506D01*
X154341395Y-103711501D01*
X154147834Y-103575967D01*
X154147830Y-103575965D01*
X154147828Y-103575964D01*
X153933663Y-103476097D01*
X153933659Y-103476096D01*
X153933655Y-103476094D01*
X153705413Y-103414938D01*
X153705403Y-103414936D01*
X153470001Y-103394341D01*
X153469999Y-103394341D01*
X153234596Y-103414936D01*
X153234586Y-103414938D01*
X153006344Y-103476094D01*
X153006335Y-103476098D01*
X152792171Y-103575964D01*
X152792169Y-103575965D01*
X152598597Y-103711505D01*
X152431508Y-103878594D01*
X152301269Y-104064595D01*
X152246692Y-104108219D01*
X152177193Y-104115412D01*
X152114839Y-104083890D01*
X152098119Y-104064594D01*
X151968113Y-103878926D01*
X151968108Y-103878920D01*
X151801082Y-103711894D01*
X151607578Y-103576399D01*
X151393492Y-103476570D01*
X151393486Y-103476567D01*
X151180000Y-103419364D01*
X151180000Y-104316988D01*
X151122993Y-104284075D01*
X150995826Y-104250000D01*
X150864174Y-104250000D01*
X150737007Y-104284075D01*
X150680000Y-104316988D01*
X150680000Y-103419364D01*
X150679999Y-103419364D01*
X150466513Y-103476567D01*
X150466507Y-103476570D01*
X150252422Y-103576399D01*
X150252420Y-103576400D01*
X150058926Y-103711886D01*
X150058920Y-103711891D01*
X149891891Y-103878920D01*
X149891886Y-103878926D01*
X149756400Y-104072420D01*
X149756399Y-104072422D01*
X149656570Y-104286507D01*
X149656567Y-104286513D01*
X149599364Y-104499999D01*
X111263196Y-104499999D01*
X111343796Y-104392331D01*
X111394091Y-104257483D01*
X111400500Y-104197873D01*
X111400499Y-102302128D01*
X111394091Y-102242517D01*
X111343796Y-102107669D01*
X111343795Y-102107668D01*
X111343793Y-102107664D01*
X111257547Y-101992455D01*
X111257544Y-101992452D01*
X111142335Y-101906206D01*
X111142328Y-101906202D01*
X111007482Y-101855908D01*
X111007483Y-101855908D01*
X110947883Y-101849501D01*
X110947881Y-101849500D01*
X110947873Y-101849500D01*
X110947864Y-101849500D01*
X109052129Y-101849500D01*
X109052123Y-101849501D01*
X108992516Y-101855908D01*
X108857671Y-101906202D01*
X108857664Y-101906206D01*
X108742455Y-101992452D01*
X108742452Y-101992455D01*
X108656206Y-102107664D01*
X108656202Y-102107671D01*
X108605908Y-102242517D01*
X108599501Y-102302116D01*
X108599501Y-102302123D01*
X108599500Y-102302135D01*
X108599500Y-104197870D01*
X108599501Y-104197876D01*
X108605908Y-104257483D01*
X108656202Y-104392328D01*
X108656206Y-104392335D01*
X108742452Y-104507544D01*
X108742455Y-104507547D01*
X108857664Y-104593793D01*
X108857673Y-104593798D01*
X108937904Y-104623722D01*
X108993838Y-104665593D01*
X109018256Y-104731057D01*
X109003405Y-104799330D01*
X108985802Y-104823886D01*
X108891019Y-104926849D01*
X108764075Y-105121151D01*
X108670842Y-105333699D01*
X108613866Y-105558691D01*
X108613864Y-105558702D01*
X108594700Y-105789993D01*
X100500500Y-105789993D01*
X100500500Y-98039993D01*
X108594700Y-98039993D01*
X108594700Y-98040006D01*
X108613864Y-98271297D01*
X108613866Y-98271308D01*
X108670842Y-98496300D01*
X108764075Y-98708848D01*
X108891016Y-98903147D01*
X108891019Y-98903151D01*
X108891021Y-98903153D01*
X109048216Y-99073913D01*
X109048219Y-99073915D01*
X109048222Y-99073918D01*
X109231365Y-99216464D01*
X109231371Y-99216468D01*
X109231374Y-99216470D01*
X109435497Y-99326936D01*
X109549487Y-99366068D01*
X109655015Y-99402297D01*
X109655017Y-99402297D01*
X109655019Y-99402298D01*
X109883951Y-99440500D01*
X109883952Y-99440500D01*
X110116048Y-99440500D01*
X110116049Y-99440500D01*
X110344981Y-99402298D01*
X110564503Y-99326936D01*
X110768626Y-99216470D01*
X110769327Y-99215925D01*
X110913702Y-99103553D01*
X110951784Y-99073913D01*
X111108979Y-98903153D01*
X111235924Y-98708849D01*
X111329157Y-98496300D01*
X111386134Y-98271305D01*
X111386135Y-98271297D01*
X111405300Y-98040006D01*
X111405300Y-98039993D01*
X111401986Y-98000000D01*
X118894540Y-98000000D01*
X118914326Y-98188256D01*
X118914327Y-98188259D01*
X118972818Y-98368277D01*
X118972821Y-98368284D01*
X119067467Y-98532216D01*
X119184613Y-98662319D01*
X119194129Y-98672888D01*
X119347265Y-98784148D01*
X119347270Y-98784151D01*
X119520192Y-98861142D01*
X119520197Y-98861144D01*
X119705354Y-98900500D01*
X119705355Y-98900500D01*
X119894644Y-98900500D01*
X119894646Y-98900500D01*
X120079803Y-98861144D01*
X120252730Y-98784151D01*
X120405871Y-98672888D01*
X120532533Y-98532216D01*
X120627179Y-98368284D01*
X120685674Y-98188256D01*
X120705460Y-98000000D01*
X120685674Y-97811744D01*
X120627179Y-97631716D01*
X120532533Y-97467784D01*
X120405871Y-97327112D01*
X120397459Y-97321000D01*
X120252734Y-97215851D01*
X120252729Y-97215848D01*
X120079807Y-97138857D01*
X120079802Y-97138855D01*
X119934001Y-97107865D01*
X119894646Y-97099500D01*
X119705354Y-97099500D01*
X119672897Y-97106398D01*
X119520197Y-97138855D01*
X119520192Y-97138857D01*
X119347270Y-97215848D01*
X119347265Y-97215851D01*
X119194129Y-97327111D01*
X119067466Y-97467785D01*
X118972821Y-97631715D01*
X118972818Y-97631722D01*
X118914327Y-97811740D01*
X118914326Y-97811744D01*
X118894540Y-98000000D01*
X111401986Y-98000000D01*
X111386135Y-97808702D01*
X111386133Y-97808691D01*
X111329157Y-97583699D01*
X111235924Y-97371151D01*
X111108983Y-97176852D01*
X111108980Y-97176849D01*
X111108979Y-97176847D01*
X111014195Y-97073884D01*
X110983275Y-97011232D01*
X110991135Y-96941806D01*
X111035283Y-96887651D01*
X111062095Y-96873722D01*
X111142326Y-96843798D01*
X111142326Y-96843797D01*
X111142331Y-96843796D01*
X111257546Y-96757546D01*
X111343796Y-96642331D01*
X111394091Y-96507483D01*
X111400500Y-96447873D01*
X111400499Y-94552128D01*
X111394091Y-94492517D01*
X111343796Y-94357669D01*
X111343795Y-94357668D01*
X111343793Y-94357664D01*
X111257547Y-94242455D01*
X111257544Y-94242452D01*
X111142335Y-94156206D01*
X111142328Y-94156202D01*
X111007482Y-94105908D01*
X111007483Y-94105908D01*
X110947883Y-94099501D01*
X110947881Y-94099500D01*
X110947873Y-94099500D01*
X110947864Y-94099500D01*
X109052129Y-94099500D01*
X109052123Y-94099501D01*
X108992516Y-94105908D01*
X108857671Y-94156202D01*
X108857664Y-94156206D01*
X108742455Y-94242452D01*
X108742452Y-94242455D01*
X108656206Y-94357664D01*
X108656202Y-94357671D01*
X108605908Y-94492517D01*
X108599501Y-94552116D01*
X108599501Y-94552123D01*
X108599500Y-94552135D01*
X108599500Y-96447870D01*
X108599501Y-96447876D01*
X108605908Y-96507483D01*
X108656202Y-96642328D01*
X108656206Y-96642335D01*
X108742452Y-96757544D01*
X108742455Y-96757547D01*
X108857664Y-96843793D01*
X108857673Y-96843798D01*
X108937904Y-96873722D01*
X108993838Y-96915593D01*
X109018256Y-96981057D01*
X109003405Y-97049330D01*
X108985802Y-97073886D01*
X108891019Y-97176849D01*
X108764075Y-97371151D01*
X108670842Y-97583699D01*
X108613866Y-97808691D01*
X108613864Y-97808702D01*
X108594700Y-98039993D01*
X100500500Y-98039993D01*
X100500500Y-90289993D01*
X108594700Y-90289993D01*
X108594700Y-90290006D01*
X108613864Y-90521297D01*
X108613866Y-90521308D01*
X108670842Y-90746300D01*
X108764075Y-90958848D01*
X108891016Y-91153147D01*
X108891019Y-91153151D01*
X108891021Y-91153153D01*
X109048216Y-91323913D01*
X109048219Y-91323915D01*
X109048222Y-91323918D01*
X109231365Y-91466464D01*
X109231371Y-91466468D01*
X109231374Y-91466470D01*
X109435497Y-91576936D01*
X109549487Y-91616068D01*
X109655015Y-91652297D01*
X109655017Y-91652297D01*
X109655019Y-91652298D01*
X109883951Y-91690500D01*
X109883952Y-91690500D01*
X110116048Y-91690500D01*
X110116049Y-91690500D01*
X110344981Y-91652298D01*
X110564503Y-91576936D01*
X110768626Y-91466470D01*
X110951784Y-91323913D01*
X111108979Y-91153153D01*
X111235924Y-90958849D01*
X111329157Y-90746300D01*
X111386134Y-90521305D01*
X111405300Y-90290000D01*
X111405300Y-90289993D01*
X111386135Y-90058702D01*
X111386133Y-90058691D01*
X111329157Y-89833699D01*
X111235924Y-89621151D01*
X111108983Y-89426852D01*
X111108980Y-89426849D01*
X111108979Y-89426847D01*
X111014195Y-89323884D01*
X110983275Y-89261232D01*
X110991135Y-89191806D01*
X111035283Y-89137651D01*
X111062095Y-89123722D01*
X111142326Y-89093798D01*
X111142326Y-89093797D01*
X111142331Y-89093796D01*
X111257546Y-89007546D01*
X111343796Y-88892331D01*
X111394091Y-88757483D01*
X111400500Y-88697873D01*
X111400499Y-86802128D01*
X111394091Y-86742517D01*
X111366750Y-86669213D01*
X111343797Y-86607671D01*
X111343793Y-86607664D01*
X111257547Y-86492455D01*
X111257544Y-86492452D01*
X111142335Y-86406206D01*
X111142328Y-86406202D01*
X111007482Y-86355908D01*
X111007483Y-86355908D01*
X110947883Y-86349501D01*
X110947881Y-86349500D01*
X110947873Y-86349500D01*
X110947864Y-86349500D01*
X109052129Y-86349500D01*
X109052123Y-86349501D01*
X108992516Y-86355908D01*
X108857671Y-86406202D01*
X108857664Y-86406206D01*
X108742455Y-86492452D01*
X108742452Y-86492455D01*
X108656206Y-86607664D01*
X108656202Y-86607671D01*
X108605908Y-86742517D01*
X108599501Y-86802116D01*
X108599501Y-86802123D01*
X108599500Y-86802135D01*
X108599500Y-88697870D01*
X108599501Y-88697876D01*
X108605908Y-88757483D01*
X108656202Y-88892328D01*
X108656206Y-88892335D01*
X108742452Y-89007544D01*
X108742455Y-89007547D01*
X108857664Y-89093793D01*
X108857673Y-89093798D01*
X108937904Y-89123722D01*
X108993838Y-89165593D01*
X109018256Y-89231057D01*
X109003405Y-89299330D01*
X108985802Y-89323886D01*
X108891019Y-89426849D01*
X108764075Y-89621151D01*
X108670842Y-89833699D01*
X108613866Y-90058691D01*
X108613864Y-90058702D01*
X108594700Y-90289993D01*
X100500500Y-90289993D01*
X100500500Y-82749993D01*
X108594700Y-82749993D01*
X108594700Y-82750006D01*
X108613864Y-82981297D01*
X108613866Y-82981308D01*
X108670842Y-83206300D01*
X108764075Y-83418848D01*
X108891016Y-83613147D01*
X108891019Y-83613151D01*
X108891021Y-83613153D01*
X109048216Y-83783913D01*
X109048219Y-83783915D01*
X109048222Y-83783918D01*
X109231365Y-83926464D01*
X109231371Y-83926468D01*
X109231374Y-83926470D01*
X109435497Y-84036936D01*
X109549487Y-84076068D01*
X109655015Y-84112297D01*
X109655017Y-84112297D01*
X109655019Y-84112298D01*
X109883951Y-84150500D01*
X109883952Y-84150500D01*
X110116048Y-84150500D01*
X110116049Y-84150500D01*
X110344981Y-84112298D01*
X110564503Y-84036936D01*
X110768626Y-83926470D01*
X110951784Y-83783913D01*
X111108979Y-83613153D01*
X111235924Y-83418849D01*
X111329157Y-83206300D01*
X111386134Y-82981305D01*
X111386135Y-82981297D01*
X111405300Y-82750006D01*
X111405300Y-82749993D01*
X111386135Y-82518702D01*
X111386133Y-82518691D01*
X111329157Y-82293699D01*
X111235924Y-82081151D01*
X111108983Y-81886852D01*
X111108980Y-81886849D01*
X111108979Y-81886847D01*
X111014195Y-81783884D01*
X110983275Y-81721232D01*
X110991135Y-81651806D01*
X111033371Y-81599996D01*
X117794435Y-81599996D01*
X117794435Y-81600003D01*
X117814630Y-81779249D01*
X117814631Y-81779254D01*
X117874211Y-81949523D01*
X117944348Y-82061144D01*
X117970184Y-82102262D01*
X118097738Y-82229816D01*
X118250478Y-82325789D01*
X118420745Y-82385368D01*
X118507669Y-82395161D01*
X118572080Y-82422226D01*
X118581465Y-82430700D01*
X122563181Y-86412416D01*
X122596666Y-86473739D01*
X122599500Y-86500097D01*
X122599500Y-88961860D01*
X122599499Y-88961878D01*
X122599499Y-89127584D01*
X122599498Y-89127584D01*
X122609683Y-89165593D01*
X122640423Y-89280315D01*
X122665579Y-89323886D01*
X122669358Y-89330430D01*
X122669359Y-89330434D01*
X122669360Y-89330434D01*
X122719479Y-89417244D01*
X122719481Y-89417247D01*
X122745033Y-89442799D01*
X122778518Y-89504122D01*
X122780572Y-89516596D01*
X122790365Y-89603514D01*
X122849945Y-89773786D01*
X122887591Y-89833699D01*
X122945919Y-89926527D01*
X123073473Y-90054081D01*
X123226213Y-90150054D01*
X123396480Y-90209633D01*
X123396485Y-90209634D01*
X123575731Y-90229830D01*
X123575735Y-90229830D01*
X123575739Y-90229830D01*
X123754984Y-90209634D01*
X123754987Y-90209633D01*
X123754990Y-90209633D01*
X123925257Y-90150054D01*
X124077997Y-90054081D01*
X124205551Y-89926527D01*
X124301524Y-89773787D01*
X124361103Y-89603520D01*
X124370897Y-89516596D01*
X124381300Y-89424268D01*
X124381300Y-89424261D01*
X124361104Y-89245015D01*
X124361103Y-89245010D01*
X124333314Y-89165593D01*
X124301524Y-89074743D01*
X124205551Y-88922003D01*
X124077997Y-88794449D01*
X124019166Y-88757483D01*
X123925259Y-88698477D01*
X123925255Y-88698475D01*
X123883545Y-88683880D01*
X123826769Y-88643158D01*
X123801022Y-88578205D01*
X123800500Y-88566839D01*
X123800500Y-87460000D01*
X141370000Y-87460000D01*
X141370000Y-92260000D01*
X142319402Y-92260000D01*
X142386441Y-92279685D01*
X142417338Y-92307944D01*
X146015975Y-96941806D01*
X146030105Y-96960000D01*
X150370000Y-96960000D01*
X150370000Y-82760000D01*
X146030105Y-82760000D01*
X146030104Y-82760000D01*
X142417338Y-87412056D01*
X142360672Y-87452931D01*
X142319402Y-87460000D01*
X141370000Y-87460000D01*
X123800500Y-87460000D01*
X123800500Y-86120945D01*
X123800500Y-86120943D01*
X123759577Y-85968216D01*
X123759573Y-85968209D01*
X123680524Y-85831290D01*
X123680521Y-85831286D01*
X123680520Y-85831284D01*
X123568716Y-85719480D01*
X123568715Y-85719479D01*
X123564385Y-85715149D01*
X123564374Y-85715139D01*
X119430700Y-81581465D01*
X119397215Y-81520142D01*
X119395163Y-81507686D01*
X119385368Y-81420745D01*
X119325789Y-81250478D01*
X119294072Y-81200000D01*
X122494540Y-81200000D01*
X122514326Y-81388256D01*
X122514327Y-81388259D01*
X122572818Y-81568277D01*
X122572821Y-81568284D01*
X122667467Y-81732216D01*
X122794129Y-81872888D01*
X122947265Y-81984148D01*
X122947270Y-81984151D01*
X123120192Y-82061142D01*
X123120197Y-82061144D01*
X123305354Y-82100500D01*
X123305355Y-82100500D01*
X123494644Y-82100500D01*
X123494646Y-82100500D01*
X123679803Y-82061144D01*
X123852730Y-81984151D01*
X124005871Y-81872888D01*
X124132533Y-81732216D01*
X124227179Y-81568284D01*
X124285674Y-81388256D01*
X124305460Y-81200000D01*
X124285674Y-81011744D01*
X124227179Y-80831716D01*
X124132533Y-80667784D01*
X124005871Y-80527112D01*
X124000905Y-80523504D01*
X123852734Y-80415851D01*
X123852729Y-80415848D01*
X123679807Y-80338857D01*
X123679802Y-80338855D01*
X123534001Y-80307865D01*
X123494646Y-80299500D01*
X123305354Y-80299500D01*
X123272897Y-80306398D01*
X123120197Y-80338855D01*
X123120192Y-80338857D01*
X122947270Y-80415848D01*
X122947265Y-80415851D01*
X122794129Y-80527111D01*
X122667466Y-80667785D01*
X122572821Y-80831715D01*
X122572818Y-80831722D01*
X122514327Y-81011740D01*
X122514326Y-81011744D01*
X122494540Y-81200000D01*
X119294072Y-81200000D01*
X119229816Y-81097738D01*
X119102262Y-80970184D01*
X118997208Y-80904174D01*
X118949523Y-80874211D01*
X118779254Y-80814631D01*
X118779249Y-80814630D01*
X118600004Y-80794435D01*
X118599996Y-80794435D01*
X118420750Y-80814630D01*
X118420745Y-80814631D01*
X118250476Y-80874211D01*
X118097737Y-80970184D01*
X117970184Y-81097737D01*
X117874211Y-81250476D01*
X117814631Y-81420745D01*
X117814630Y-81420750D01*
X117794435Y-81599996D01*
X111033371Y-81599996D01*
X111035283Y-81597651D01*
X111062095Y-81583722D01*
X111068147Y-81581465D01*
X111142331Y-81553796D01*
X111257546Y-81467546D01*
X111343796Y-81352331D01*
X111394091Y-81217483D01*
X111400500Y-81157873D01*
X111400499Y-79262128D01*
X111394091Y-79202517D01*
X111343796Y-79067669D01*
X111343795Y-79067668D01*
X111343793Y-79067664D01*
X111257547Y-78952455D01*
X111257544Y-78952452D01*
X111142335Y-78866206D01*
X111142328Y-78866202D01*
X111007482Y-78815908D01*
X111007483Y-78815908D01*
X110947883Y-78809501D01*
X110947881Y-78809500D01*
X110947873Y-78809500D01*
X110947864Y-78809500D01*
X109052129Y-78809500D01*
X109052123Y-78809501D01*
X108992516Y-78815908D01*
X108857671Y-78866202D01*
X108857664Y-78866206D01*
X108742455Y-78952452D01*
X108742452Y-78952455D01*
X108656206Y-79067664D01*
X108656202Y-79067671D01*
X108605908Y-79202517D01*
X108599501Y-79262116D01*
X108599501Y-79262123D01*
X108599500Y-79262135D01*
X108599500Y-81157870D01*
X108599501Y-81157876D01*
X108605908Y-81217483D01*
X108656202Y-81352328D01*
X108656206Y-81352335D01*
X108742452Y-81467544D01*
X108742455Y-81467547D01*
X108857664Y-81553793D01*
X108857673Y-81553798D01*
X108937904Y-81583722D01*
X108993838Y-81625593D01*
X109018256Y-81691057D01*
X109003405Y-81759330D01*
X108985802Y-81783886D01*
X108891019Y-81886849D01*
X108764075Y-82081151D01*
X108670842Y-82293699D01*
X108613866Y-82518691D01*
X108613864Y-82518702D01*
X108594700Y-82749993D01*
X100500500Y-82749993D01*
X100500500Y-66817153D01*
X131594435Y-66817153D01*
X131594435Y-66817160D01*
X131614630Y-66996406D01*
X131614631Y-66996411D01*
X131674211Y-67166680D01*
X131770184Y-67319419D01*
X131897738Y-67446973D01*
X132050478Y-67542946D01*
X132203258Y-67596406D01*
X132220745Y-67602525D01*
X132220750Y-67602526D01*
X132399996Y-67622722D01*
X132400000Y-67622722D01*
X132400004Y-67622722D01*
X132579249Y-67602526D01*
X132579252Y-67602525D01*
X132579255Y-67602525D01*
X132749522Y-67542946D01*
X132824381Y-67495908D01*
X132891616Y-67476908D01*
X132958452Y-67497275D01*
X133003666Y-67550542D01*
X133013573Y-67587019D01*
X133014630Y-67596406D01*
X133074210Y-67766678D01*
X133106243Y-67817658D01*
X133170184Y-67919419D01*
X133297738Y-68046973D01*
X133450478Y-68142946D01*
X133620745Y-68202525D01*
X133620750Y-68202526D01*
X133799996Y-68222722D01*
X133800000Y-68222722D01*
X133800004Y-68222722D01*
X133979249Y-68202526D01*
X133979252Y-68202525D01*
X133979255Y-68202525D01*
X134149522Y-68142946D01*
X134302262Y-68046973D01*
X134429816Y-67919419D01*
X134437972Y-67906437D01*
X134457297Y-67875684D01*
X134509631Y-67829394D01*
X134562290Y-67817657D01*
X138261860Y-67817657D01*
X138261876Y-67817658D01*
X138269472Y-67817658D01*
X138427583Y-67817658D01*
X138427586Y-67817658D01*
X138580314Y-67776734D01*
X138630433Y-67747796D01*
X138717245Y-67697677D01*
X138829049Y-67585873D01*
X138829049Y-67585871D01*
X138839257Y-67575664D01*
X138839258Y-67575661D01*
X140778102Y-65636819D01*
X140839425Y-65603334D01*
X140865783Y-65600500D01*
X141693661Y-65600500D01*
X141693677Y-65600501D01*
X141701273Y-65600501D01*
X141859384Y-65600501D01*
X141859387Y-65600501D01*
X142012115Y-65559577D01*
X142062234Y-65530639D01*
X142149046Y-65480520D01*
X142260850Y-65368716D01*
X142260850Y-65368714D01*
X142271058Y-65358507D01*
X142271059Y-65358504D01*
X142880520Y-64749046D01*
X142931649Y-64660486D01*
X142982215Y-64612272D01*
X143050822Y-64599048D01*
X143110157Y-64620911D01*
X143167266Y-64660899D01*
X143373504Y-64757070D01*
X143593308Y-64815966D01*
X143755230Y-64830132D01*
X143819998Y-64835799D01*
X143820000Y-64835799D01*
X143820002Y-64835799D01*
X143876673Y-64830840D01*
X144046692Y-64815966D01*
X144266496Y-64757070D01*
X144472734Y-64660899D01*
X144472738Y-64660895D01*
X144477421Y-64658193D01*
X144478596Y-64660228D01*
X144535276Y-64641039D01*
X144603063Y-64657970D01*
X144628020Y-64677255D01*
X144763181Y-64812416D01*
X144796666Y-64873739D01*
X144799500Y-64900097D01*
X144799500Y-66417587D01*
X144779815Y-66484626D01*
X144772450Y-66494896D01*
X144770186Y-66497734D01*
X144674211Y-66650476D01*
X144614631Y-66820745D01*
X144614630Y-66820750D01*
X144594435Y-66999996D01*
X144594435Y-67000003D01*
X144614630Y-67179249D01*
X144614631Y-67179254D01*
X144674211Y-67349523D01*
X144754253Y-67476908D01*
X144770184Y-67502262D01*
X144897738Y-67629816D01*
X145050478Y-67725789D01*
X145220745Y-67785368D01*
X145220750Y-67785369D01*
X145399996Y-67805565D01*
X145400000Y-67805565D01*
X145400004Y-67805565D01*
X145579249Y-67785369D01*
X145579252Y-67785368D01*
X145579255Y-67785368D01*
X145749522Y-67725789D01*
X145794264Y-67697676D01*
X145834027Y-67672691D01*
X145901264Y-67653690D01*
X145965973Y-67672691D01*
X146050475Y-67725788D01*
X146220745Y-67785368D01*
X146220750Y-67785369D01*
X146399996Y-67805565D01*
X146400000Y-67805565D01*
X146400004Y-67805565D01*
X146579249Y-67785369D01*
X146579252Y-67785368D01*
X146579255Y-67785368D01*
X146685775Y-67748095D01*
X176993012Y-67748095D01*
X176993012Y-67748104D01*
X177012613Y-68009672D01*
X177012614Y-68009677D01*
X177012614Y-68009681D01*
X177012615Y-68009682D01*
X177017773Y-68032282D01*
X177070985Y-68265423D01*
X177166820Y-68509604D01*
X177166819Y-68509604D01*
X177228384Y-68616236D01*
X177297978Y-68736776D01*
X177461529Y-68941863D01*
X177653821Y-69120283D01*
X177870556Y-69268051D01*
X177870561Y-69268053D01*
X177870562Y-69268054D01*
X177870563Y-69268055D01*
X177971843Y-69316828D01*
X178106890Y-69381863D01*
X178106891Y-69381863D01*
X178106894Y-69381865D01*
X178357556Y-69459184D01*
X178357557Y-69459184D01*
X178357560Y-69459185D01*
X178616934Y-69498279D01*
X178616939Y-69498279D01*
X178616942Y-69498280D01*
X178616943Y-69498280D01*
X178879257Y-69498280D01*
X178879258Y-69498280D01*
X178879265Y-69498279D01*
X179138639Y-69459185D01*
X179138640Y-69459184D01*
X179138644Y-69459184D01*
X179389306Y-69381865D01*
X179500785Y-69328179D01*
X179569723Y-69316828D01*
X179633858Y-69344550D01*
X179672824Y-69402545D01*
X179674249Y-69472400D01*
X179670012Y-69485202D01*
X179572885Y-69732676D01*
X179514514Y-69988422D01*
X179514513Y-69988427D01*
X179494912Y-70249995D01*
X179494912Y-70250004D01*
X179514513Y-70511572D01*
X179514514Y-70511577D01*
X179572885Y-70767323D01*
X179668720Y-71011504D01*
X179668719Y-71011504D01*
X179751870Y-71155524D01*
X179799878Y-71238676D01*
X179963429Y-71443763D01*
X180155721Y-71622183D01*
X180372456Y-71769951D01*
X180372461Y-71769953D01*
X180372462Y-71769954D01*
X180372463Y-71769955D01*
X180497981Y-71830400D01*
X180608790Y-71883763D01*
X180608791Y-71883763D01*
X180608794Y-71883765D01*
X180859456Y-71961084D01*
X180859457Y-71961084D01*
X180859460Y-71961085D01*
X181118834Y-72000179D01*
X181118839Y-72000179D01*
X181118842Y-72000180D01*
X181118843Y-72000180D01*
X181381157Y-72000180D01*
X181381158Y-72000180D01*
X181381165Y-72000179D01*
X181640539Y-71961085D01*
X181640540Y-71961084D01*
X181640544Y-71961084D01*
X181891206Y-71883765D01*
X182127544Y-71769951D01*
X182344279Y-71622183D01*
X182536571Y-71443763D01*
X182700122Y-71238676D01*
X182831280Y-71011504D01*
X182890459Y-70860717D01*
X182927114Y-70767323D01*
X182961408Y-70617068D01*
X182985485Y-70511582D01*
X182985486Y-70511572D01*
X183005088Y-70250004D01*
X183005088Y-70249995D01*
X182985486Y-69988427D01*
X182985485Y-69988422D01*
X182985485Y-69988418D01*
X182952130Y-69842281D01*
X182927114Y-69732676D01*
X182863340Y-69570184D01*
X182831280Y-69488496D01*
X182831279Y-69488495D01*
X182831280Y-69488495D01*
X182769715Y-69381863D01*
X182700122Y-69261324D01*
X182536571Y-69056237D01*
X182344279Y-68877817D01*
X182127544Y-68730049D01*
X182127540Y-68730047D01*
X182127537Y-68730045D01*
X182127536Y-68730044D01*
X181891208Y-68616236D01*
X181891210Y-68616236D01*
X181640545Y-68538916D01*
X181640539Y-68538914D01*
X181381165Y-68499820D01*
X181381158Y-68499820D01*
X181118842Y-68499820D01*
X181118834Y-68499820D01*
X180859460Y-68538914D01*
X180859454Y-68538916D01*
X180608796Y-68616234D01*
X180608794Y-68616235D01*
X180531313Y-68653548D01*
X180497316Y-68669920D01*
X180428374Y-68681271D01*
X180364240Y-68653548D01*
X180325275Y-68595553D01*
X180323850Y-68525698D01*
X180328087Y-68512896D01*
X180329376Y-68509609D01*
X180329380Y-68509604D01*
X180425214Y-68265421D01*
X180483585Y-68009682D01*
X180483586Y-68009672D01*
X180503188Y-67748104D01*
X180503188Y-67748095D01*
X180483586Y-67486527D01*
X180483585Y-67486522D01*
X180483585Y-67486518D01*
X180445446Y-67319419D01*
X180425214Y-67230776D01*
X180361998Y-67069705D01*
X180329380Y-66986596D01*
X180329379Y-66986595D01*
X180329380Y-66986595D01*
X180255909Y-66859341D01*
X180198222Y-66759424D01*
X180034671Y-66554337D01*
X179842379Y-66375917D01*
X179625644Y-66228149D01*
X179625640Y-66228147D01*
X179625637Y-66228145D01*
X179625636Y-66228144D01*
X179389308Y-66114336D01*
X179389310Y-66114336D01*
X179138645Y-66037016D01*
X179138639Y-66037014D01*
X178879265Y-65997920D01*
X178879258Y-65997920D01*
X178616942Y-65997920D01*
X178616934Y-65997920D01*
X178357560Y-66037014D01*
X178357554Y-66037016D01*
X178106890Y-66114336D01*
X177870563Y-66228144D01*
X177870562Y-66228145D01*
X177653820Y-66375917D01*
X177461531Y-66554335D01*
X177461529Y-66554337D01*
X177297978Y-66759424D01*
X177166820Y-66986595D01*
X177070985Y-67230776D01*
X177012614Y-67486522D01*
X177012613Y-67486527D01*
X176993012Y-67748095D01*
X146685775Y-67748095D01*
X146749522Y-67725789D01*
X146902262Y-67629816D01*
X147029816Y-67502262D01*
X147125789Y-67349522D01*
X147185368Y-67179255D01*
X147205565Y-67000000D01*
X147191280Y-66873224D01*
X147190501Y-66859341D01*
X147190501Y-66723347D01*
X147190500Y-66723329D01*
X147190500Y-65250116D01*
X147210185Y-65183077D01*
X147262989Y-65137322D01*
X147332147Y-65127378D01*
X147376497Y-65142728D01*
X147405679Y-65159576D01*
X147405680Y-65159577D01*
X147458211Y-65189906D01*
X147458212Y-65189907D01*
X147458214Y-65189907D01*
X147458215Y-65189908D01*
X147610943Y-65230832D01*
X147610946Y-65230832D01*
X147776653Y-65230832D01*
X147776669Y-65230831D01*
X173978419Y-65230831D01*
X173978435Y-65230832D01*
X173986031Y-65230832D01*
X174144142Y-65230832D01*
X174144145Y-65230832D01*
X174296873Y-65189908D01*
X174349409Y-65159576D01*
X174433804Y-65110851D01*
X174545608Y-64999047D01*
X174545608Y-64999045D01*
X174555812Y-64988842D01*
X174555816Y-64988837D01*
X176792738Y-62751915D01*
X179492372Y-62751915D01*
X179492372Y-62751924D01*
X179511973Y-63013492D01*
X179511974Y-63013497D01*
X179570345Y-63269243D01*
X179666180Y-63513424D01*
X179666179Y-63513424D01*
X179713946Y-63596157D01*
X179797338Y-63740596D01*
X179960889Y-63945683D01*
X180153181Y-64124103D01*
X180369916Y-64271871D01*
X180369921Y-64271873D01*
X180369922Y-64271874D01*
X180369923Y-64271875D01*
X180495441Y-64332320D01*
X180606250Y-64385683D01*
X180606251Y-64385683D01*
X180606254Y-64385685D01*
X180856916Y-64463004D01*
X180856917Y-64463004D01*
X180856920Y-64463005D01*
X181116294Y-64502099D01*
X181116299Y-64502099D01*
X181116302Y-64502100D01*
X181116303Y-64502100D01*
X181378617Y-64502100D01*
X181378618Y-64502100D01*
X181441176Y-64492671D01*
X181637999Y-64463005D01*
X181638000Y-64463004D01*
X181638004Y-64463004D01*
X181888666Y-64385685D01*
X182125004Y-64271871D01*
X182341739Y-64124103D01*
X182534031Y-63945683D01*
X182697582Y-63740596D01*
X182828740Y-63513424D01*
X182897848Y-63337338D01*
X182924574Y-63269243D01*
X182943717Y-63185369D01*
X182982945Y-63013502D01*
X182987785Y-62948914D01*
X183002548Y-62751924D01*
X183002548Y-62751915D01*
X182982946Y-62490347D01*
X182982945Y-62490342D01*
X182982945Y-62490338D01*
X182941703Y-62309645D01*
X182924574Y-62234596D01*
X182852312Y-62050478D01*
X182828740Y-61990416D01*
X182828739Y-61990415D01*
X182828740Y-61990415D01*
X182767662Y-61884626D01*
X182697582Y-61763244D01*
X182534031Y-61558157D01*
X182341739Y-61379737D01*
X182125004Y-61231969D01*
X182125000Y-61231967D01*
X182124997Y-61231965D01*
X182124996Y-61231964D01*
X181888668Y-61118156D01*
X181888670Y-61118156D01*
X181638005Y-61040836D01*
X181637999Y-61040834D01*
X181378625Y-61001740D01*
X181378618Y-61001740D01*
X181116302Y-61001740D01*
X181116294Y-61001740D01*
X180856920Y-61040834D01*
X180856914Y-61040836D01*
X180606250Y-61118156D01*
X180369923Y-61231964D01*
X180369922Y-61231965D01*
X180153180Y-61379737D01*
X179960891Y-61558155D01*
X179960889Y-61558157D01*
X179797338Y-61763244D01*
X179666180Y-61990415D01*
X179570345Y-62234596D01*
X179511974Y-62490342D01*
X179511973Y-62490347D01*
X179492372Y-62751915D01*
X176792738Y-62751915D01*
X181608506Y-57936147D01*
X181608511Y-57936143D01*
X181618714Y-57925939D01*
X181618716Y-57925939D01*
X181730520Y-57814135D01*
X181784324Y-57720943D01*
X181809577Y-57677204D01*
X181850501Y-57524476D01*
X181850501Y-57366362D01*
X181850501Y-57358767D01*
X181850500Y-57358749D01*
X181850500Y-56985122D01*
X181870185Y-56918083D01*
X181920699Y-56873402D01*
X182127536Y-56773795D01*
X182127536Y-56773794D01*
X182127544Y-56773791D01*
X182344279Y-56626023D01*
X182536571Y-56447603D01*
X182700122Y-56242516D01*
X182831280Y-56015344D01*
X182884970Y-55878543D01*
X182927114Y-55771163D01*
X182943791Y-55698092D01*
X182985485Y-55515422D01*
X183005088Y-55253840D01*
X182985485Y-54992258D01*
X182952130Y-54846121D01*
X182927114Y-54736516D01*
X182863898Y-54575445D01*
X182831280Y-54492336D01*
X182831279Y-54492335D01*
X182831280Y-54492335D01*
X182783272Y-54409184D01*
X182700122Y-54265164D01*
X182536571Y-54060077D01*
X182344279Y-53881657D01*
X182127544Y-53733889D01*
X182127540Y-53733887D01*
X182127537Y-53733885D01*
X182127536Y-53733884D01*
X181891208Y-53620076D01*
X181891210Y-53620076D01*
X181640545Y-53542756D01*
X181640539Y-53542754D01*
X181381165Y-53503660D01*
X181381158Y-53503660D01*
X181118842Y-53503660D01*
X181118834Y-53503660D01*
X180859460Y-53542754D01*
X180859454Y-53542756D01*
X180608790Y-53620076D01*
X180372463Y-53733884D01*
X180372462Y-53733885D01*
X180155720Y-53881657D01*
X179963431Y-54060075D01*
X179963429Y-54060077D01*
X179799878Y-54265164D01*
X179668720Y-54492335D01*
X179572885Y-54736516D01*
X179514514Y-54992262D01*
X179514513Y-54992267D01*
X179494912Y-55253835D01*
X179494912Y-55253844D01*
X179514513Y-55515412D01*
X179514514Y-55515417D01*
X179572885Y-55771163D01*
X179670281Y-56019322D01*
X179676450Y-56088919D01*
X179644012Y-56150802D01*
X179583267Y-56185325D01*
X179513501Y-56181526D01*
X179501052Y-56176344D01*
X179389124Y-56122443D01*
X179389126Y-56122443D01*
X179138540Y-56045147D01*
X179138534Y-56045146D01*
X178879225Y-56006060D01*
X178616974Y-56006060D01*
X178357665Y-56045146D01*
X178357659Y-56045147D01*
X178107074Y-56122443D01*
X177870812Y-56236221D01*
X177870799Y-56236228D01*
X177699161Y-56353247D01*
X178463490Y-57117577D01*
X178417236Y-57136737D01*
X178302832Y-57213179D01*
X178205539Y-57310472D01*
X178129097Y-57424876D01*
X178109937Y-57471130D01*
X177346202Y-56707395D01*
X177298393Y-56767346D01*
X177167274Y-56994451D01*
X177071465Y-57238566D01*
X177071462Y-57238578D01*
X177013110Y-57494235D01*
X176993514Y-57755735D01*
X176993514Y-57755744D01*
X177013110Y-58017244D01*
X177071462Y-58272901D01*
X177071465Y-58272913D01*
X177167274Y-58517028D01*
X177298395Y-58744136D01*
X177346201Y-58804084D01*
X178109937Y-58040348D01*
X178129097Y-58086604D01*
X178205539Y-58201008D01*
X178302832Y-58298301D01*
X178417236Y-58374743D01*
X178463489Y-58393901D01*
X177699161Y-59158230D01*
X177870806Y-59275255D01*
X177870814Y-59275260D01*
X178107075Y-59389036D01*
X178107073Y-59389036D01*
X178177973Y-59410906D01*
X178236232Y-59449477D01*
X178264390Y-59513421D01*
X178253506Y-59582438D01*
X178229104Y-59617078D01*
X173852672Y-63993512D01*
X173791349Y-64026997D01*
X173764991Y-64029831D01*
X160707309Y-64029831D01*
X160640270Y-64010146D01*
X160619628Y-63993512D01*
X160030698Y-63404582D01*
X160132330Y-63330743D01*
X160310412Y-63152661D01*
X160384251Y-63051030D01*
X161025712Y-63692491D01*
X161116544Y-63582695D01*
X161285096Y-63317098D01*
X161285099Y-63317092D01*
X161419034Y-63032468D01*
X161419036Y-63032463D01*
X161516244Y-62733289D01*
X161575191Y-62424280D01*
X161575192Y-62424273D01*
X161594943Y-62110336D01*
X161594943Y-62110325D01*
X161575192Y-61796388D01*
X161575191Y-61796381D01*
X161516244Y-61487372D01*
X161419036Y-61188198D01*
X161419034Y-61188193D01*
X161285099Y-60903569D01*
X161285096Y-60903563D01*
X161116542Y-60637963D01*
X161116539Y-60637959D01*
X161025712Y-60528169D01*
X160384250Y-61169630D01*
X160310412Y-61068001D01*
X160132330Y-60889919D01*
X160030698Y-60816079D01*
X160675027Y-60171750D01*
X160675026Y-60171748D01*
X160432227Y-59995345D01*
X160432209Y-59995334D01*
X160156552Y-59843790D01*
X160156544Y-59843786D01*
X159864073Y-59727990D01*
X159559379Y-59649757D01*
X159559370Y-59649755D01*
X159247298Y-59610331D01*
X158932701Y-59610331D01*
X158620629Y-59649755D01*
X158620620Y-59649757D01*
X158315926Y-59727990D01*
X158023455Y-59843786D01*
X158023447Y-59843790D01*
X157747787Y-59995335D01*
X157747782Y-59995338D01*
X157504972Y-60171749D01*
X157504971Y-60171750D01*
X158149301Y-60816079D01*
X158047670Y-60889919D01*
X157869588Y-61068001D01*
X157795748Y-61169631D01*
X157154286Y-60528169D01*
X157154285Y-60528169D01*
X157063459Y-60637960D01*
X157063457Y-60637963D01*
X156894903Y-60903563D01*
X156894900Y-60903569D01*
X156760965Y-61188193D01*
X156760963Y-61188198D01*
X156663755Y-61487372D01*
X156604808Y-61796381D01*
X156604807Y-61796388D01*
X156585057Y-62110325D01*
X156585057Y-62110336D01*
X156604807Y-62424273D01*
X156604808Y-62424280D01*
X156663755Y-62733289D01*
X156760963Y-63032463D01*
X156760965Y-63032468D01*
X156894900Y-63317092D01*
X156894903Y-63317098D01*
X157063457Y-63582698D01*
X157063460Y-63582702D01*
X157154286Y-63692491D01*
X157795748Y-63051029D01*
X157869588Y-63152661D01*
X158047670Y-63330743D01*
X158149301Y-63404582D01*
X157560372Y-63993512D01*
X157499049Y-64026997D01*
X157472691Y-64029831D01*
X153503619Y-64029831D01*
X153436580Y-64010146D01*
X153390825Y-63957342D01*
X153380881Y-63888184D01*
X153383844Y-63873738D01*
X153415139Y-63756940D01*
X153415141Y-63756930D01*
X153434966Y-63530333D01*
X153434966Y-63530328D01*
X153415141Y-63303731D01*
X153415139Y-63303720D01*
X153356269Y-63084013D01*
X153356264Y-63083999D01*
X153260136Y-62877852D01*
X153260132Y-62877844D01*
X153209025Y-62804857D01*
X152612962Y-63400919D01*
X152595925Y-63337338D01*
X152530099Y-63223324D01*
X152437007Y-63130232D01*
X152322993Y-63064406D01*
X152259410Y-63047368D01*
X152855472Y-62451305D01*
X152782478Y-62400194D01*
X152576331Y-62304066D01*
X152576317Y-62304061D01*
X152356610Y-62245191D01*
X152356599Y-62245189D01*
X152130002Y-62225365D01*
X152129998Y-62225365D01*
X151903400Y-62245189D01*
X151903389Y-62245191D01*
X151683682Y-62304061D01*
X151683673Y-62304065D01*
X151477516Y-62400197D01*
X151477512Y-62400199D01*
X151404526Y-62451304D01*
X151404526Y-62451305D01*
X152000590Y-63047368D01*
X151937007Y-63064406D01*
X151822993Y-63130232D01*
X151729901Y-63223324D01*
X151664075Y-63337338D01*
X151647037Y-63400921D01*
X151050974Y-62804857D01*
X151050973Y-62804857D01*
X150999868Y-62877843D01*
X150999866Y-62877847D01*
X150903734Y-63084004D01*
X150903731Y-63084011D01*
X150865033Y-63228433D01*
X150828667Y-63288093D01*
X150765820Y-63318622D01*
X150696445Y-63310327D01*
X150642567Y-63265841D01*
X150625484Y-63228434D01*
X150586739Y-63083835D01*
X150490568Y-62877597D01*
X150360047Y-62691192D01*
X150360045Y-62691189D01*
X150199141Y-62530285D01*
X150012734Y-62399763D01*
X150012732Y-62399762D01*
X149806497Y-62303592D01*
X149806488Y-62303589D01*
X149586697Y-62244697D01*
X149586693Y-62244696D01*
X149586692Y-62244696D01*
X149586691Y-62244695D01*
X149586686Y-62244695D01*
X149360002Y-62224863D01*
X149359998Y-62224863D01*
X149133313Y-62244695D01*
X149133302Y-62244697D01*
X148913511Y-62303589D01*
X148913502Y-62303592D01*
X148707267Y-62399762D01*
X148707265Y-62399763D01*
X148520858Y-62530285D01*
X148359954Y-62691189D01*
X148229432Y-62877596D01*
X148229431Y-62877598D01*
X148133261Y-63083833D01*
X148133258Y-63083842D01*
X148094775Y-63227467D01*
X148058410Y-63287128D01*
X147995563Y-63317657D01*
X147926188Y-63309362D01*
X147872310Y-63264877D01*
X147855225Y-63227467D01*
X147816741Y-63083842D01*
X147816738Y-63083833D01*
X147792784Y-63032463D01*
X147720568Y-62877597D01*
X147590047Y-62691192D01*
X147590045Y-62691189D01*
X147429141Y-62530285D01*
X147288541Y-62431837D01*
X147244916Y-62377261D01*
X147237722Y-62307762D01*
X147269244Y-62245407D01*
X147271951Y-62242613D01*
X147532294Y-61982270D01*
X147593615Y-61948787D01*
X147652066Y-61950178D01*
X147671604Y-61955413D01*
X147748308Y-61975966D01*
X147910230Y-61990132D01*
X147974998Y-61995799D01*
X147975000Y-61995799D01*
X147975002Y-61995799D01*
X148036539Y-61990415D01*
X148201692Y-61975966D01*
X148421496Y-61917070D01*
X148627734Y-61820899D01*
X148814139Y-61690378D01*
X148975047Y-61529470D01*
X149105568Y-61343065D01*
X149201739Y-61136827D01*
X149240225Y-60993193D01*
X149276590Y-60933533D01*
X149339437Y-60903004D01*
X149408812Y-60911299D01*
X149462690Y-60955784D01*
X149479775Y-60993194D01*
X149518258Y-61136819D01*
X149518261Y-61136828D01*
X149614431Y-61343063D01*
X149614432Y-61343065D01*
X149744954Y-61529472D01*
X149905858Y-61690376D01*
X149905861Y-61690378D01*
X150092266Y-61820899D01*
X150298504Y-61917070D01*
X150518308Y-61975966D01*
X150680230Y-61990132D01*
X150744998Y-61995799D01*
X150745000Y-61995799D01*
X150745002Y-61995799D01*
X150806539Y-61990415D01*
X150971692Y-61975966D01*
X151191496Y-61917070D01*
X151397734Y-61820899D01*
X151584139Y-61690378D01*
X151745047Y-61529470D01*
X151875568Y-61343065D01*
X151971739Y-61136827D01*
X152030635Y-60917023D01*
X152050468Y-60690331D01*
X152030635Y-60463639D01*
X151971739Y-60243835D01*
X151875568Y-60037597D01*
X151745047Y-59851192D01*
X151745045Y-59851189D01*
X151584141Y-59690285D01*
X151397734Y-59559763D01*
X151397732Y-59559762D01*
X151191497Y-59463592D01*
X151191488Y-59463589D01*
X150971697Y-59404697D01*
X150971693Y-59404696D01*
X150971692Y-59404696D01*
X150971691Y-59404695D01*
X150971686Y-59404695D01*
X150745002Y-59384863D01*
X150744998Y-59384863D01*
X150518313Y-59404695D01*
X150518302Y-59404697D01*
X150298511Y-59463589D01*
X150298502Y-59463592D01*
X150092267Y-59559762D01*
X150092265Y-59559763D01*
X149905858Y-59690285D01*
X149744954Y-59851189D01*
X149614432Y-60037596D01*
X149614431Y-60037598D01*
X149518261Y-60243833D01*
X149518258Y-60243842D01*
X149479775Y-60387467D01*
X149443410Y-60447128D01*
X149380563Y-60477657D01*
X149311188Y-60469362D01*
X149257310Y-60424877D01*
X149240225Y-60387467D01*
X149201741Y-60243842D01*
X149201738Y-60243833D01*
X149168125Y-60171750D01*
X149105568Y-60037597D01*
X148975047Y-59851192D01*
X148975045Y-59851189D01*
X148814141Y-59690285D01*
X148627734Y-59559763D01*
X148627732Y-59559762D01*
X148421497Y-59463592D01*
X148421488Y-59463589D01*
X148201697Y-59404697D01*
X148201693Y-59404696D01*
X148201692Y-59404696D01*
X148201691Y-59404695D01*
X148201686Y-59404695D01*
X147975002Y-59384863D01*
X147974998Y-59384863D01*
X147748313Y-59404695D01*
X147748302Y-59404697D01*
X147528511Y-59463589D01*
X147528502Y-59463592D01*
X147322267Y-59559762D01*
X147322265Y-59559763D01*
X147135858Y-59690285D01*
X146974954Y-59851189D01*
X146844432Y-60037596D01*
X146844431Y-60037598D01*
X146748261Y-60243833D01*
X146748258Y-60243842D01*
X146709775Y-60387467D01*
X146673410Y-60447128D01*
X146610563Y-60477657D01*
X146541188Y-60469362D01*
X146487310Y-60424877D01*
X146470225Y-60387467D01*
X146431741Y-60243842D01*
X146431738Y-60243833D01*
X146398125Y-60171750D01*
X146335568Y-60037597D01*
X146205047Y-59851192D01*
X146205045Y-59851189D01*
X146044141Y-59690285D01*
X145857734Y-59559763D01*
X145857732Y-59559762D01*
X145651497Y-59463592D01*
X145651488Y-59463589D01*
X145431697Y-59404697D01*
X145431693Y-59404696D01*
X145431692Y-59404696D01*
X145431691Y-59404695D01*
X145431686Y-59404695D01*
X145205002Y-59384863D01*
X145204998Y-59384863D01*
X144978313Y-59404695D01*
X144978302Y-59404697D01*
X144758511Y-59463589D01*
X144758502Y-59463592D01*
X144552267Y-59559762D01*
X144552265Y-59559763D01*
X144365858Y-59690285D01*
X144204954Y-59851189D01*
X144074432Y-60037596D01*
X144074431Y-60037598D01*
X143978261Y-60243833D01*
X143978258Y-60243842D01*
X143939775Y-60387467D01*
X143903410Y-60447128D01*
X143840563Y-60477657D01*
X143771188Y-60469362D01*
X143717310Y-60424877D01*
X143700225Y-60387467D01*
X143661741Y-60243842D01*
X143661738Y-60243833D01*
X143628125Y-60171750D01*
X143565568Y-60037597D01*
X143435047Y-59851192D01*
X143435045Y-59851189D01*
X143274141Y-59690285D01*
X143087734Y-59559763D01*
X143087732Y-59559762D01*
X142881497Y-59463592D01*
X142881488Y-59463589D01*
X142661697Y-59404697D01*
X142661693Y-59404696D01*
X142661692Y-59404696D01*
X142661691Y-59404695D01*
X142661686Y-59404695D01*
X142435002Y-59384863D01*
X142434998Y-59384863D01*
X142208313Y-59404695D01*
X142208302Y-59404697D01*
X141988511Y-59463589D01*
X141988502Y-59463592D01*
X141782267Y-59559762D01*
X141782265Y-59559763D01*
X141595858Y-59690285D01*
X141434954Y-59851189D01*
X141304432Y-60037596D01*
X141304431Y-60037598D01*
X141208261Y-60243833D01*
X141208258Y-60243842D01*
X141149366Y-60463633D01*
X141149364Y-60463644D01*
X141129532Y-60690329D01*
X141129532Y-60690332D01*
X141149364Y-60917017D01*
X141149366Y-60917028D01*
X141180638Y-61033738D01*
X141178975Y-61103588D01*
X141139812Y-61161450D01*
X141075583Y-61188954D01*
X141060863Y-61189831D01*
X140676670Y-61189831D01*
X140676654Y-61189830D01*
X140669058Y-61189830D01*
X140510943Y-61189830D01*
X140434579Y-61210292D01*
X140358214Y-61230754D01*
X140358209Y-61230757D01*
X140221290Y-61309806D01*
X140221282Y-61309812D01*
X140109478Y-61421617D01*
X139221451Y-62309643D01*
X139109646Y-62421447D01*
X139109644Y-62421450D01*
X139092408Y-62451304D01*
X139071222Y-62488000D01*
X139069870Y-62490342D01*
X139030588Y-62558379D01*
X138989665Y-62711107D01*
X138989664Y-62711109D01*
X138989664Y-62879210D01*
X138989665Y-62879223D01*
X138989665Y-65109738D01*
X138969980Y-65176777D01*
X138953346Y-65197419D01*
X137970427Y-66180338D01*
X137909104Y-66213823D01*
X137882746Y-66216657D01*
X132982412Y-66216657D01*
X132915373Y-66196972D01*
X132905097Y-66189602D01*
X132902263Y-66187342D01*
X132902262Y-66187341D01*
X132845496Y-66151672D01*
X132749523Y-66091368D01*
X132579254Y-66031788D01*
X132579249Y-66031787D01*
X132400004Y-66011592D01*
X132399996Y-66011592D01*
X132220750Y-66031787D01*
X132220745Y-66031788D01*
X132050476Y-66091368D01*
X131897737Y-66187341D01*
X131770184Y-66314894D01*
X131674211Y-66467633D01*
X131614631Y-66637902D01*
X131614630Y-66637907D01*
X131594435Y-66817153D01*
X100500500Y-66817153D01*
X100500500Y-57799996D01*
X116994435Y-57799996D01*
X116994435Y-57800003D01*
X117014630Y-57979249D01*
X117014631Y-57979254D01*
X117074211Y-58149523D01*
X117170185Y-58302263D01*
X117172445Y-58305097D01*
X117173334Y-58307275D01*
X117173889Y-58308158D01*
X117173734Y-58308255D01*
X117198855Y-58369783D01*
X117199500Y-58382412D01*
X117199500Y-61817587D01*
X117179815Y-61884626D01*
X117172450Y-61894896D01*
X117170186Y-61897734D01*
X117074211Y-62050476D01*
X117014631Y-62220745D01*
X117014630Y-62220750D01*
X116994435Y-62399996D01*
X116994435Y-62400003D01*
X117014630Y-62579249D01*
X117014631Y-62579254D01*
X117074211Y-62749523D01*
X117154841Y-62877844D01*
X117170184Y-62902262D01*
X117297738Y-63029816D01*
X117450478Y-63125789D01*
X117527274Y-63152661D01*
X117620745Y-63185368D01*
X117620750Y-63185369D01*
X117799996Y-63205565D01*
X117800000Y-63205565D01*
X117800004Y-63205565D01*
X117979249Y-63185369D01*
X117979252Y-63185368D01*
X117979255Y-63185368D01*
X118149522Y-63125789D01*
X118302262Y-63029816D01*
X118429816Y-62902262D01*
X118525789Y-62749522D01*
X118585368Y-62579255D01*
X118590886Y-62530284D01*
X118605565Y-62400003D01*
X118605565Y-62399996D01*
X118585369Y-62220750D01*
X118585368Y-62220745D01*
X118546730Y-62110325D01*
X131585057Y-62110325D01*
X131585057Y-62110336D01*
X131604807Y-62424273D01*
X131604808Y-62424280D01*
X131663755Y-62733289D01*
X131760963Y-63032463D01*
X131760965Y-63032468D01*
X131894900Y-63317092D01*
X131894903Y-63317098D01*
X132063457Y-63582698D01*
X132063460Y-63582702D01*
X132154286Y-63692491D01*
X132795748Y-63051029D01*
X132869588Y-63152661D01*
X133047670Y-63330743D01*
X133149300Y-63404581D01*
X132504971Y-64048910D01*
X132504972Y-64048912D01*
X132747772Y-64225316D01*
X132747790Y-64225327D01*
X133023447Y-64376871D01*
X133023455Y-64376875D01*
X133315926Y-64492671D01*
X133620620Y-64570904D01*
X133620629Y-64570906D01*
X133932701Y-64610330D01*
X133932715Y-64610331D01*
X134247285Y-64610331D01*
X134247298Y-64610330D01*
X134559370Y-64570906D01*
X134559379Y-64570904D01*
X134864073Y-64492671D01*
X135156544Y-64376875D01*
X135156552Y-64376871D01*
X135432209Y-64225327D01*
X135432219Y-64225321D01*
X135675026Y-64048910D01*
X135675027Y-64048910D01*
X135030698Y-63404582D01*
X135132330Y-63330743D01*
X135310412Y-63152661D01*
X135384251Y-63051029D01*
X136025712Y-63692491D01*
X136116544Y-63582695D01*
X136285096Y-63317098D01*
X136285099Y-63317092D01*
X136419034Y-63032468D01*
X136419036Y-63032463D01*
X136516244Y-62733289D01*
X136575191Y-62424280D01*
X136575192Y-62424273D01*
X136594943Y-62110336D01*
X136594943Y-62110325D01*
X136575192Y-61796388D01*
X136575191Y-61796381D01*
X136516244Y-61487372D01*
X136419036Y-61188198D01*
X136419034Y-61188193D01*
X136285099Y-60903569D01*
X136285096Y-60903563D01*
X136116542Y-60637963D01*
X136116539Y-60637959D01*
X136025712Y-60528169D01*
X135384250Y-61169631D01*
X135310412Y-61068001D01*
X135132330Y-60889919D01*
X135030698Y-60816079D01*
X135675027Y-60171750D01*
X135675026Y-60171748D01*
X135432227Y-59995345D01*
X135432209Y-59995334D01*
X135156552Y-59843790D01*
X135156544Y-59843786D01*
X134864073Y-59727990D01*
X134559379Y-59649757D01*
X134559370Y-59649755D01*
X134247298Y-59610331D01*
X133932701Y-59610331D01*
X133620629Y-59649755D01*
X133620620Y-59649757D01*
X133315926Y-59727990D01*
X133023455Y-59843786D01*
X133023447Y-59843790D01*
X132747787Y-59995335D01*
X132747782Y-59995338D01*
X132504972Y-60171749D01*
X132504971Y-60171750D01*
X133149301Y-60816079D01*
X133047670Y-60889919D01*
X132869588Y-61068001D01*
X132795748Y-61169631D01*
X132154286Y-60528169D01*
X132154285Y-60528169D01*
X132063459Y-60637960D01*
X132063457Y-60637963D01*
X131894903Y-60903563D01*
X131894900Y-60903569D01*
X131760965Y-61188193D01*
X131760963Y-61188198D01*
X131663755Y-61487372D01*
X131604808Y-61796381D01*
X131604807Y-61796388D01*
X131585057Y-62110325D01*
X118546730Y-62110325D01*
X118525788Y-62050476D01*
X118491432Y-61995799D01*
X118429816Y-61897738D01*
X118429814Y-61897736D01*
X118429813Y-61897734D01*
X118427550Y-61894896D01*
X118426659Y-61892715D01*
X118426111Y-61891842D01*
X118426264Y-61891745D01*
X118401144Y-61830209D01*
X118400500Y-61817587D01*
X118400500Y-61000000D01*
X121494540Y-61000000D01*
X121514326Y-61188256D01*
X121514327Y-61188259D01*
X121572818Y-61368277D01*
X121572821Y-61368284D01*
X121667467Y-61532216D01*
X121728050Y-61599500D01*
X121794129Y-61672888D01*
X121947265Y-61784148D01*
X121947270Y-61784151D01*
X122120192Y-61861142D01*
X122120197Y-61861144D01*
X122305354Y-61900500D01*
X122305355Y-61900500D01*
X122494644Y-61900500D01*
X122494646Y-61900500D01*
X122679803Y-61861144D01*
X122852730Y-61784151D01*
X123005871Y-61672888D01*
X123132533Y-61532216D01*
X123227179Y-61368284D01*
X123285674Y-61188256D01*
X123305460Y-61000000D01*
X123285674Y-60811744D01*
X123229208Y-60637960D01*
X123227181Y-60631722D01*
X123227180Y-60631721D01*
X123227179Y-60631716D01*
X123132533Y-60467784D01*
X123005871Y-60327112D01*
X123005870Y-60327111D01*
X122852734Y-60215851D01*
X122852729Y-60215848D01*
X122679807Y-60138857D01*
X122679802Y-60138855D01*
X122534001Y-60107865D01*
X122494646Y-60099500D01*
X122305354Y-60099500D01*
X122272897Y-60106398D01*
X122120197Y-60138855D01*
X122120192Y-60138857D01*
X121947270Y-60215848D01*
X121947265Y-60215851D01*
X121794129Y-60327111D01*
X121667466Y-60467785D01*
X121572821Y-60631715D01*
X121572818Y-60631722D01*
X121514327Y-60811740D01*
X121514326Y-60811744D01*
X121494540Y-61000000D01*
X118400500Y-61000000D01*
X118400500Y-58382412D01*
X118420185Y-58315373D01*
X118427555Y-58305097D01*
X118429810Y-58302267D01*
X118429816Y-58302262D01*
X118525789Y-58149522D01*
X118585368Y-57979255D01*
X118591375Y-57925940D01*
X118605565Y-57800003D01*
X118605565Y-57799996D01*
X118585369Y-57620750D01*
X118585368Y-57620745D01*
X118539297Y-57489082D01*
X118525789Y-57450478D01*
X118429816Y-57297738D01*
X118302262Y-57170184D01*
X118291182Y-57163222D01*
X118149523Y-57074211D01*
X117979254Y-57014631D01*
X117979249Y-57014630D01*
X117800004Y-56994435D01*
X117799996Y-56994435D01*
X117620750Y-57014630D01*
X117620745Y-57014631D01*
X117450476Y-57074211D01*
X117297737Y-57170184D01*
X117170184Y-57297737D01*
X117074211Y-57450476D01*
X117014631Y-57620745D01*
X117014630Y-57620750D01*
X116994435Y-57799996D01*
X100500500Y-57799996D01*
X100500500Y-55378711D01*
X101649500Y-55378711D01*
X101649500Y-55621288D01*
X101681161Y-55861785D01*
X101743947Y-56096104D01*
X101836771Y-56320201D01*
X101836777Y-56320214D01*
X101858974Y-56358661D01*
X101958064Y-56530289D01*
X101958066Y-56530292D01*
X101958067Y-56530293D01*
X102105733Y-56722736D01*
X102105739Y-56722743D01*
X102277256Y-56894260D01*
X102277262Y-56894265D01*
X102469711Y-57041936D01*
X102679788Y-57163224D01*
X102903900Y-57256054D01*
X103138211Y-57318838D01*
X103318586Y-57342584D01*
X103378711Y-57350500D01*
X103378712Y-57350500D01*
X103621289Y-57350500D01*
X103669388Y-57344167D01*
X103861789Y-57318838D01*
X104096100Y-57256054D01*
X104320212Y-57163224D01*
X104530289Y-57041936D01*
X104722738Y-56894265D01*
X104894265Y-56722738D01*
X105041936Y-56530289D01*
X105163224Y-56320212D01*
X105256054Y-56096100D01*
X105318838Y-55861789D01*
X105350500Y-55621288D01*
X105350500Y-55378712D01*
X105350500Y-55378711D01*
X167649500Y-55378711D01*
X167649500Y-55621288D01*
X167681161Y-55861785D01*
X167743947Y-56096104D01*
X167836771Y-56320201D01*
X167836777Y-56320214D01*
X167858974Y-56358661D01*
X167958064Y-56530289D01*
X167958066Y-56530292D01*
X167958067Y-56530293D01*
X168105733Y-56722736D01*
X168105739Y-56722743D01*
X168277256Y-56894260D01*
X168277262Y-56894265D01*
X168469711Y-57041936D01*
X168679788Y-57163224D01*
X168903900Y-57256054D01*
X169138211Y-57318838D01*
X169318586Y-57342584D01*
X169378711Y-57350500D01*
X169378712Y-57350500D01*
X169621289Y-57350500D01*
X169669388Y-57344167D01*
X169861789Y-57318838D01*
X170096100Y-57256054D01*
X170320212Y-57163224D01*
X170530289Y-57041936D01*
X170722738Y-56894265D01*
X170894265Y-56722738D01*
X171041936Y-56530289D01*
X171163224Y-56320212D01*
X171256054Y-56096100D01*
X171318838Y-55861789D01*
X171350500Y-55621288D01*
X171350500Y-55378712D01*
X171318838Y-55138211D01*
X171256054Y-54903900D01*
X171163224Y-54679788D01*
X171041936Y-54469711D01*
X170894265Y-54277262D01*
X170894260Y-54277256D01*
X170722743Y-54105739D01*
X170722736Y-54105733D01*
X170530293Y-53958067D01*
X170530292Y-53958066D01*
X170530289Y-53958064D01*
X170320212Y-53836776D01*
X170320205Y-53836773D01*
X170096104Y-53743947D01*
X169861785Y-53681161D01*
X169621289Y-53649500D01*
X169621288Y-53649500D01*
X169378712Y-53649500D01*
X169378711Y-53649500D01*
X169138214Y-53681161D01*
X168903895Y-53743947D01*
X168679794Y-53836773D01*
X168679785Y-53836777D01*
X168469706Y-53958067D01*
X168277263Y-54105733D01*
X168277256Y-54105739D01*
X168105739Y-54277256D01*
X168105733Y-54277263D01*
X167958067Y-54469706D01*
X167836777Y-54679785D01*
X167836773Y-54679794D01*
X167743947Y-54903895D01*
X167681161Y-55138214D01*
X167649500Y-55378711D01*
X105350500Y-55378711D01*
X105318838Y-55138211D01*
X105256054Y-54903900D01*
X105163224Y-54679788D01*
X105041936Y-54469711D01*
X104894265Y-54277262D01*
X104894260Y-54277256D01*
X104722743Y-54105739D01*
X104722736Y-54105733D01*
X104530293Y-53958067D01*
X104530292Y-53958066D01*
X104530289Y-53958064D01*
X104320212Y-53836776D01*
X104320205Y-53836773D01*
X104096104Y-53743947D01*
X103861785Y-53681161D01*
X103621289Y-53649500D01*
X103621288Y-53649500D01*
X103378712Y-53649500D01*
X103378711Y-53649500D01*
X103138214Y-53681161D01*
X102903895Y-53743947D01*
X102679794Y-53836773D01*
X102679785Y-53836777D01*
X102469706Y-53958067D01*
X102277263Y-54105733D01*
X102277256Y-54105739D01*
X102105739Y-54277256D01*
X102105733Y-54277263D01*
X101958067Y-54469706D01*
X101836777Y-54679785D01*
X101836773Y-54679794D01*
X101743947Y-54903895D01*
X101681161Y-55138214D01*
X101649500Y-55378711D01*
X100500500Y-55378711D01*
X100500500Y-51624500D01*
X100520185Y-51557461D01*
X100572989Y-51511706D01*
X100624500Y-51500500D01*
X192375500Y-51500500D01*
X192442539Y-51520185D01*
G37*
G04 #@! TD.AperFunction*
G04 #@! TA.AperFunction,Conductor*
G36*
X187663066Y-81859513D02*
G01*
X187663068Y-81859513D01*
X187674981Y-81834778D01*
X187674986Y-81834766D01*
X187698732Y-81773033D01*
X187741172Y-81717529D01*
X187806882Y-81693781D01*
X187875000Y-81709329D01*
X187916041Y-81746426D01*
X187959954Y-81809141D01*
X188120858Y-81970045D01*
X188120861Y-81970047D01*
X188307266Y-82100568D01*
X188513504Y-82196739D01*
X188733308Y-82255635D01*
X188895230Y-82269801D01*
X188959998Y-82275468D01*
X188960000Y-82275468D01*
X188960002Y-82275468D01*
X189016784Y-82270500D01*
X189186692Y-82255635D01*
X189406496Y-82196739D01*
X189612734Y-82100568D01*
X189799139Y-81970047D01*
X189960047Y-81809139D01*
X190009498Y-81738514D01*
X190064071Y-81694892D01*
X190133569Y-81687697D01*
X190195924Y-81719218D01*
X190229456Y-81772749D01*
X190256520Y-81859602D01*
X190256521Y-81859604D01*
X190256522Y-81859606D01*
X190344528Y-82005185D01*
X190344530Y-82005188D01*
X190464811Y-82125469D01*
X190464813Y-82125470D01*
X190464815Y-82125472D01*
X190610394Y-82213478D01*
X190772804Y-82264086D01*
X190843384Y-82270500D01*
X190843387Y-82270500D01*
X192156613Y-82270500D01*
X192156616Y-82270500D01*
X192227196Y-82264086D01*
X192338612Y-82229367D01*
X192408470Y-82228216D01*
X192467862Y-82265017D01*
X192497930Y-82328086D01*
X192499500Y-82347753D01*
X192499500Y-86055242D01*
X192479815Y-86122281D01*
X192427011Y-86168036D01*
X192357853Y-86177980D01*
X192294297Y-86148955D01*
X192287819Y-86142923D01*
X192249786Y-86104890D01*
X192077820Y-85979951D01*
X191888414Y-85883444D01*
X191888413Y-85883443D01*
X191888412Y-85883443D01*
X191686243Y-85817754D01*
X191686241Y-85817753D01*
X191686240Y-85817753D01*
X191524957Y-85792208D01*
X191476287Y-85784500D01*
X191263713Y-85784500D01*
X191215042Y-85792208D01*
X191053760Y-85817753D01*
X190851585Y-85883444D01*
X190662179Y-85979951D01*
X190490213Y-86104890D01*
X190339890Y-86255213D01*
X190214951Y-86427179D01*
X190118444Y-86616585D01*
X190052753Y-86818760D01*
X190026619Y-86983764D01*
X190019500Y-87028713D01*
X190019500Y-87241287D01*
X190052754Y-87451243D01*
X190055599Y-87460000D01*
X190118444Y-87653414D01*
X190214951Y-87842820D01*
X190339890Y-88014786D01*
X190490213Y-88165109D01*
X190662179Y-88290048D01*
X190662181Y-88290049D01*
X190662184Y-88290051D01*
X190851588Y-88386557D01*
X191053757Y-88452246D01*
X191263713Y-88485500D01*
X191263714Y-88485500D01*
X191476286Y-88485500D01*
X191476287Y-88485500D01*
X191686243Y-88452246D01*
X191888412Y-88386557D01*
X192077816Y-88290051D01*
X192181449Y-88214758D01*
X192249786Y-88165109D01*
X192249788Y-88165106D01*
X192249792Y-88165104D01*
X192287819Y-88127077D01*
X192349142Y-88093592D01*
X192418834Y-88098576D01*
X192474767Y-88140448D01*
X192499184Y-88205912D01*
X192499500Y-88214758D01*
X192499500Y-91505242D01*
X192479815Y-91572281D01*
X192427011Y-91618036D01*
X192357853Y-91627980D01*
X192294297Y-91598955D01*
X192287819Y-91592923D01*
X192249786Y-91554890D01*
X192077820Y-91429951D01*
X191888414Y-91333444D01*
X191888413Y-91333443D01*
X191888412Y-91333443D01*
X191686243Y-91267754D01*
X191686241Y-91267753D01*
X191686240Y-91267753D01*
X191524957Y-91242208D01*
X191476287Y-91234500D01*
X191263713Y-91234500D01*
X191215042Y-91242208D01*
X191053760Y-91267753D01*
X190851585Y-91333444D01*
X190662179Y-91429951D01*
X190490213Y-91554890D01*
X190339890Y-91705213D01*
X190214951Y-91877179D01*
X190118444Y-92066585D01*
X190052753Y-92268760D01*
X190019500Y-92478713D01*
X190019500Y-92691286D01*
X190052730Y-92901096D01*
X190052754Y-92901243D01*
X190101344Y-93050788D01*
X190118444Y-93103414D01*
X190214951Y-93292820D01*
X190339890Y-93464786D01*
X190490213Y-93615109D01*
X190662179Y-93740048D01*
X190662181Y-93740049D01*
X190662184Y-93740051D01*
X190851588Y-93836557D01*
X191053757Y-93902246D01*
X191263713Y-93935500D01*
X191263714Y-93935500D01*
X191476286Y-93935500D01*
X191476287Y-93935500D01*
X191686243Y-93902246D01*
X191888412Y-93836557D01*
X192077816Y-93740051D01*
X192181449Y-93664758D01*
X192249786Y-93615109D01*
X192249788Y-93615106D01*
X192249792Y-93615104D01*
X192287819Y-93577077D01*
X192349142Y-93543592D01*
X192418834Y-93548576D01*
X192474767Y-93590448D01*
X192499184Y-93655912D01*
X192499500Y-93664758D01*
X192499500Y-97624037D01*
X192479815Y-97691076D01*
X192427011Y-97736831D01*
X192357853Y-97746775D01*
X192304377Y-97725612D01*
X192152734Y-97619432D01*
X192152732Y-97619431D01*
X191946497Y-97523261D01*
X191946488Y-97523258D01*
X191726697Y-97464366D01*
X191726693Y-97464365D01*
X191726692Y-97464365D01*
X191726691Y-97464364D01*
X191726686Y-97464364D01*
X191500002Y-97444532D01*
X191499998Y-97444532D01*
X191273313Y-97464364D01*
X191273302Y-97464366D01*
X191053511Y-97523258D01*
X191053502Y-97523261D01*
X190847267Y-97619431D01*
X190847265Y-97619432D01*
X190660858Y-97749954D01*
X190499954Y-97910858D01*
X190369432Y-98097265D01*
X190369431Y-98097267D01*
X190342382Y-98155275D01*
X190296209Y-98207714D01*
X190229016Y-98226866D01*
X190162135Y-98206650D01*
X190117618Y-98155275D01*
X190090568Y-98097266D01*
X189960047Y-97910861D01*
X189960045Y-97910858D01*
X189799141Y-97749954D01*
X189612734Y-97619432D01*
X189612732Y-97619431D01*
X189406497Y-97523261D01*
X189406488Y-97523258D01*
X189186697Y-97464366D01*
X189186693Y-97464365D01*
X189186692Y-97464365D01*
X189186691Y-97464364D01*
X189186686Y-97464364D01*
X188960002Y-97444532D01*
X188959998Y-97444532D01*
X188733313Y-97464364D01*
X188733302Y-97464366D01*
X188513511Y-97523258D01*
X188513502Y-97523261D01*
X188307267Y-97619431D01*
X188307265Y-97619432D01*
X188120858Y-97749954D01*
X187959956Y-97910856D01*
X187913285Y-97977510D01*
X187858708Y-98021134D01*
X187789209Y-98028327D01*
X187726855Y-97996805D01*
X187693470Y-97943740D01*
X187674987Y-97885236D01*
X187663066Y-97860485D01*
X186902962Y-98620589D01*
X186885925Y-98557007D01*
X186820099Y-98442993D01*
X186727007Y-98349901D01*
X186612993Y-98284075D01*
X186549409Y-98267037D01*
X187309656Y-97506789D01*
X187221383Y-97472835D01*
X187132374Y-97452518D01*
X187050887Y-97440802D01*
X187004584Y-97444588D01*
X186994480Y-97445000D01*
X186500245Y-97445000D01*
X186486358Y-97444220D01*
X186476544Y-97443114D01*
X186363456Y-97443114D01*
X186353642Y-97444220D01*
X186339755Y-97445000D01*
X185888951Y-97445000D01*
X185871305Y-97443738D01*
X185850882Y-97440801D01*
X185707626Y-97452518D01*
X185618624Y-97472833D01*
X185618617Y-97472834D01*
X185540118Y-97497635D01*
X185528185Y-97504631D01*
X186290591Y-98267037D01*
X186227007Y-98284075D01*
X186112993Y-98349901D01*
X186019901Y-98442993D01*
X185954075Y-98557007D01*
X185937037Y-98620590D01*
X185176932Y-97860485D01*
X185165014Y-97885231D01*
X185141266Y-97946969D01*
X185098825Y-98002472D01*
X185033114Y-98026218D01*
X184964997Y-98010669D01*
X184923958Y-97973573D01*
X184880045Y-97910858D01*
X184719141Y-97749954D01*
X184532734Y-97619432D01*
X184532732Y-97619431D01*
X184326497Y-97523261D01*
X184326488Y-97523258D01*
X184106697Y-97464366D01*
X184106693Y-97464365D01*
X184106692Y-97464365D01*
X184106691Y-97464364D01*
X184106686Y-97464364D01*
X183880002Y-97444532D01*
X183879998Y-97444532D01*
X183653313Y-97464364D01*
X183653302Y-97464366D01*
X183433511Y-97523258D01*
X183433502Y-97523261D01*
X183227267Y-97619431D01*
X183227265Y-97619432D01*
X183040858Y-97749954D01*
X182879954Y-97910858D01*
X182749432Y-98097265D01*
X182749431Y-98097267D01*
X182722382Y-98155275D01*
X182676209Y-98207714D01*
X182609016Y-98226866D01*
X182542135Y-98206650D01*
X182497618Y-98155275D01*
X182470568Y-98097266D01*
X182340047Y-97910861D01*
X182340045Y-97910858D01*
X182179141Y-97749954D01*
X181992734Y-97619432D01*
X181992732Y-97619431D01*
X181786497Y-97523261D01*
X181786488Y-97523258D01*
X181566697Y-97464366D01*
X181566693Y-97464365D01*
X181566692Y-97464365D01*
X181566691Y-97464364D01*
X181566686Y-97464364D01*
X181340002Y-97444532D01*
X181339998Y-97444532D01*
X181113313Y-97464364D01*
X181113302Y-97464366D01*
X180893511Y-97523258D01*
X180893502Y-97523261D01*
X180687267Y-97619431D01*
X180687265Y-97619432D01*
X180500858Y-97749954D01*
X180339954Y-97910858D01*
X180209432Y-98097265D01*
X180209431Y-98097267D01*
X180182382Y-98155275D01*
X180136209Y-98207714D01*
X180069016Y-98226866D01*
X180002135Y-98206650D01*
X179957618Y-98155275D01*
X179930568Y-98097266D01*
X179800047Y-97910861D01*
X179800045Y-97910858D01*
X179639141Y-97749954D01*
X179452734Y-97619432D01*
X179452732Y-97619431D01*
X179246497Y-97523261D01*
X179246488Y-97523258D01*
X179026697Y-97464366D01*
X179026693Y-97464365D01*
X179026692Y-97464365D01*
X179026691Y-97464364D01*
X179026686Y-97464364D01*
X178800002Y-97444532D01*
X178799998Y-97444532D01*
X178573313Y-97464364D01*
X178573302Y-97464366D01*
X178353511Y-97523258D01*
X178353502Y-97523261D01*
X178147267Y-97619431D01*
X178147265Y-97619432D01*
X177960858Y-97749954D01*
X177799954Y-97910858D01*
X177669432Y-98097265D01*
X177669431Y-98097267D01*
X177642382Y-98155275D01*
X177596209Y-98207714D01*
X177529016Y-98226866D01*
X177462135Y-98206650D01*
X177417618Y-98155275D01*
X177390568Y-98097266D01*
X177260047Y-97910861D01*
X177260045Y-97910858D01*
X177099141Y-97749954D01*
X176912734Y-97619432D01*
X176912732Y-97619431D01*
X176706497Y-97523261D01*
X176706488Y-97523258D01*
X176486697Y-97464366D01*
X176486693Y-97464365D01*
X176486692Y-97464365D01*
X176486691Y-97464364D01*
X176486686Y-97464364D01*
X176260002Y-97444532D01*
X176259998Y-97444532D01*
X176033313Y-97464364D01*
X176033302Y-97464366D01*
X175813511Y-97523258D01*
X175813502Y-97523261D01*
X175607267Y-97619431D01*
X175607265Y-97619432D01*
X175420858Y-97749954D01*
X175259953Y-97910859D01*
X175213643Y-97976998D01*
X175159066Y-98020623D01*
X175089568Y-98027817D01*
X175027213Y-97996294D01*
X174993829Y-97943231D01*
X174975442Y-97885032D01*
X174975440Y-97885027D01*
X174975438Y-97885020D01*
X174935825Y-97802764D01*
X174935824Y-97802763D01*
X174935817Y-97802749D01*
X174894139Y-97731683D01*
X174894134Y-97731677D01*
X174795561Y-97626879D01*
X174741415Y-97583700D01*
X174724179Y-97569955D01*
X174655783Y-97524002D01*
X174655784Y-97524002D01*
X174655782Y-97524001D01*
X174573148Y-97492216D01*
X174521495Y-97472348D01*
X174457048Y-97457638D01*
X174432483Y-97452031D01*
X174350914Y-97440302D01*
X174304644Y-97444087D01*
X174294537Y-97444500D01*
X173800274Y-97444500D01*
X173786390Y-97443720D01*
X173780775Y-97443087D01*
X173776601Y-97442617D01*
X173776600Y-97442617D01*
X173663400Y-97442617D01*
X173663399Y-97442617D01*
X173659224Y-97443087D01*
X173653609Y-97443720D01*
X173639726Y-97444500D01*
X173188974Y-97444500D01*
X173171328Y-97443238D01*
X173169354Y-97442954D01*
X173150912Y-97440302D01*
X173007515Y-97452031D01*
X172918503Y-97472348D01*
X172839932Y-97497170D01*
X172839929Y-97497171D01*
X172715820Y-97569955D01*
X172644440Y-97626878D01*
X172644431Y-97626886D01*
X172584420Y-97683331D01*
X172584416Y-97683336D01*
X172504178Y-97802758D01*
X172504175Y-97802763D01*
X172464559Y-97885026D01*
X172464558Y-97885027D01*
X172440922Y-97946476D01*
X172398481Y-98001979D01*
X172332771Y-98025726D01*
X172264653Y-98010177D01*
X172223614Y-97973081D01*
X172180045Y-97910858D01*
X172019141Y-97749954D01*
X171832734Y-97619432D01*
X171832732Y-97619431D01*
X171626497Y-97523261D01*
X171626488Y-97523258D01*
X171406697Y-97464366D01*
X171406693Y-97464365D01*
X171406692Y-97464365D01*
X171406691Y-97464364D01*
X171406686Y-97464364D01*
X171180002Y-97444532D01*
X171179998Y-97444532D01*
X170953313Y-97464364D01*
X170953302Y-97464366D01*
X170733511Y-97523258D01*
X170733502Y-97523261D01*
X170527267Y-97619431D01*
X170527265Y-97619432D01*
X170340858Y-97749954D01*
X170179954Y-97910858D01*
X170049432Y-98097265D01*
X170049431Y-98097267D01*
X170022382Y-98155275D01*
X169976209Y-98207714D01*
X169909016Y-98226866D01*
X169842135Y-98206650D01*
X169797618Y-98155275D01*
X169770568Y-98097266D01*
X169640047Y-97910861D01*
X169640045Y-97910858D01*
X169479141Y-97749954D01*
X169292734Y-97619432D01*
X169292732Y-97619431D01*
X169086497Y-97523261D01*
X169086488Y-97523258D01*
X168866697Y-97464366D01*
X168866693Y-97464365D01*
X168866692Y-97464365D01*
X168866691Y-97464364D01*
X168866686Y-97464364D01*
X168640002Y-97444532D01*
X168639998Y-97444532D01*
X168413313Y-97464364D01*
X168413302Y-97464366D01*
X168193511Y-97523258D01*
X168193502Y-97523261D01*
X167987267Y-97619431D01*
X167987265Y-97619432D01*
X167800858Y-97749954D01*
X167639954Y-97910858D01*
X167509432Y-98097265D01*
X167509431Y-98097267D01*
X167482382Y-98155275D01*
X167436209Y-98207714D01*
X167369016Y-98226866D01*
X167302135Y-98206650D01*
X167257618Y-98155275D01*
X167230568Y-98097266D01*
X167100047Y-97910861D01*
X167100045Y-97910858D01*
X166939141Y-97749954D01*
X166752734Y-97619432D01*
X166752732Y-97619431D01*
X166546497Y-97523261D01*
X166546488Y-97523258D01*
X166326697Y-97464366D01*
X166326693Y-97464365D01*
X166326692Y-97464365D01*
X166326691Y-97464364D01*
X166326686Y-97464364D01*
X166100002Y-97444532D01*
X166099998Y-97444532D01*
X165873313Y-97464364D01*
X165873302Y-97464366D01*
X165653511Y-97523258D01*
X165653502Y-97523261D01*
X165447267Y-97619431D01*
X165447265Y-97619432D01*
X165260862Y-97749951D01*
X165200523Y-97810290D01*
X165139199Y-97843774D01*
X165069508Y-97838789D01*
X165033752Y-97815810D01*
X165032684Y-97817092D01*
X165032672Y-97817082D01*
X165025405Y-97810446D01*
X165025161Y-97810289D01*
X165024397Y-97809525D01*
X165024374Y-97809504D01*
X164253225Y-97038355D01*
X164253223Y-97038352D01*
X164134352Y-96919481D01*
X164134351Y-96919480D01*
X164037442Y-96863530D01*
X163997420Y-96840423D01*
X163844692Y-96799499D01*
X163686578Y-96799499D01*
X163678982Y-96799499D01*
X163678966Y-96799500D01*
X163500097Y-96799500D01*
X163433058Y-96779815D01*
X163412416Y-96763181D01*
X163166850Y-96517615D01*
X163133365Y-96456292D01*
X163130531Y-96429934D01*
X163130531Y-92192486D01*
X187164500Y-92192486D01*
X187164500Y-92377513D01*
X187193445Y-92560265D01*
X187250619Y-92736232D01*
X187250620Y-92736235D01*
X187334622Y-92901096D01*
X187443379Y-93050787D01*
X187574213Y-93181621D01*
X187723904Y-93290378D01*
X187797710Y-93327984D01*
X187888764Y-93374379D01*
X187888767Y-93374380D01*
X187976750Y-93402967D01*
X188064736Y-93431555D01*
X188247486Y-93460500D01*
X188247487Y-93460500D01*
X188432513Y-93460500D01*
X188432514Y-93460500D01*
X188615264Y-93431555D01*
X188791235Y-93374379D01*
X188956096Y-93290378D01*
X189105787Y-93181621D01*
X189236621Y-93050787D01*
X189345378Y-92901096D01*
X189429379Y-92736235D01*
X189486555Y-92560264D01*
X189515500Y-92377514D01*
X189515500Y-92192486D01*
X189486555Y-92009736D01*
X189429379Y-91833765D01*
X189429379Y-91833764D01*
X189363876Y-91705208D01*
X189345378Y-91668904D01*
X189236621Y-91519213D01*
X189105787Y-91388379D01*
X188956096Y-91279622D01*
X188932802Y-91267753D01*
X188791235Y-91195620D01*
X188791232Y-91195619D01*
X188615265Y-91138445D01*
X188523889Y-91123972D01*
X188432514Y-91109500D01*
X188247486Y-91109500D01*
X188186569Y-91119148D01*
X188064734Y-91138445D01*
X187888767Y-91195619D01*
X187888764Y-91195620D01*
X187723903Y-91279622D01*
X187662940Y-91323915D01*
X187574213Y-91388379D01*
X187574211Y-91388381D01*
X187574210Y-91388381D01*
X187443381Y-91519210D01*
X187443381Y-91519211D01*
X187443379Y-91519213D01*
X187401441Y-91576936D01*
X187334622Y-91668903D01*
X187250620Y-91833764D01*
X187250619Y-91833767D01*
X187193445Y-92009734D01*
X187164500Y-92192486D01*
X163130531Y-92192486D01*
X163130531Y-87342486D01*
X187164500Y-87342486D01*
X187164500Y-87527513D01*
X187193445Y-87710265D01*
X187250619Y-87886232D01*
X187250620Y-87886235D01*
X187316121Y-88014786D01*
X187334622Y-88051096D01*
X187443379Y-88200787D01*
X187574213Y-88331621D01*
X187723904Y-88440378D01*
X187804763Y-88481577D01*
X187888764Y-88524379D01*
X187888767Y-88524380D01*
X187976750Y-88552967D01*
X188064736Y-88581555D01*
X188247486Y-88610500D01*
X188247487Y-88610500D01*
X188432513Y-88610500D01*
X188432514Y-88610500D01*
X188615264Y-88581555D01*
X188791235Y-88524379D01*
X188956096Y-88440378D01*
X189105787Y-88331621D01*
X189236621Y-88200787D01*
X189345378Y-88051096D01*
X189429379Y-87886235D01*
X189486555Y-87710264D01*
X189515500Y-87527514D01*
X189515500Y-87342486D01*
X189486555Y-87159736D01*
X189457967Y-87071750D01*
X189429380Y-86983767D01*
X189429379Y-86983764D01*
X189345377Y-86818903D01*
X189345271Y-86818757D01*
X189236621Y-86669213D01*
X189105787Y-86538379D01*
X188956096Y-86429622D01*
X188951301Y-86427179D01*
X188791235Y-86345620D01*
X188791232Y-86345619D01*
X188615265Y-86288445D01*
X188523889Y-86273972D01*
X188432514Y-86259500D01*
X188247486Y-86259500D01*
X188186569Y-86269148D01*
X188064734Y-86288445D01*
X187888767Y-86345619D01*
X187888764Y-86345620D01*
X187723903Y-86429622D01*
X187697597Y-86448735D01*
X187574213Y-86538379D01*
X187574211Y-86538381D01*
X187574210Y-86538381D01*
X187443381Y-86669210D01*
X187443381Y-86669211D01*
X187443379Y-86669213D01*
X187396672Y-86733499D01*
X187334622Y-86818903D01*
X187250620Y-86983764D01*
X187250619Y-86983767D01*
X187193445Y-87159734D01*
X187164500Y-87342486D01*
X163130531Y-87342486D01*
X163130531Y-83500096D01*
X163150216Y-83433057D01*
X163166846Y-83412419D01*
X163918506Y-82660758D01*
X163918511Y-82660755D01*
X163928714Y-82650551D01*
X163928716Y-82650551D01*
X164040520Y-82538747D01*
X164076552Y-82476336D01*
X164117406Y-82405576D01*
X164117412Y-82405566D01*
X164119575Y-82401819D01*
X164119577Y-82401816D01*
X164160500Y-82249088D01*
X164160500Y-82201692D01*
X164180185Y-82134653D01*
X164213374Y-82100119D01*
X164399139Y-81970047D01*
X164560047Y-81809139D01*
X164690568Y-81622734D01*
X164717618Y-81564724D01*
X164763790Y-81512285D01*
X164830983Y-81493133D01*
X164897865Y-81513348D01*
X164942381Y-81564724D01*
X164950188Y-81581465D01*
X164969429Y-81622728D01*
X164969432Y-81622734D01*
X165099954Y-81809141D01*
X165260858Y-81970045D01*
X165260861Y-81970047D01*
X165447266Y-82100568D01*
X165653504Y-82196739D01*
X165873308Y-82255635D01*
X166035230Y-82269801D01*
X166099998Y-82275468D01*
X166100000Y-82275468D01*
X166100002Y-82275468D01*
X166156784Y-82270500D01*
X166326692Y-82255635D01*
X166546496Y-82196739D01*
X166752734Y-82100568D01*
X166939139Y-81970047D01*
X167100047Y-81809139D01*
X167230568Y-81622734D01*
X167257618Y-81564724D01*
X167303790Y-81512285D01*
X167370983Y-81493133D01*
X167437865Y-81513348D01*
X167482381Y-81564724D01*
X167490188Y-81581465D01*
X167509429Y-81622728D01*
X167509432Y-81622734D01*
X167639954Y-81809141D01*
X167800858Y-81970045D01*
X167800861Y-81970047D01*
X167987266Y-82100568D01*
X168193504Y-82196739D01*
X168413308Y-82255635D01*
X168575230Y-82269801D01*
X168639998Y-82275468D01*
X168640000Y-82275468D01*
X168640002Y-82275468D01*
X168696784Y-82270500D01*
X168866692Y-82255635D01*
X169086496Y-82196739D01*
X169292734Y-82100568D01*
X169479139Y-81970047D01*
X169640047Y-81809139D01*
X169770568Y-81622734D01*
X169797618Y-81564724D01*
X169843790Y-81512285D01*
X169910983Y-81493133D01*
X169977865Y-81513348D01*
X170022381Y-81564724D01*
X170030188Y-81581465D01*
X170049429Y-81622728D01*
X170049432Y-81622734D01*
X170179954Y-81809141D01*
X170340858Y-81970045D01*
X170340861Y-81970047D01*
X170527266Y-82100568D01*
X170733504Y-82196739D01*
X170953308Y-82255635D01*
X171115230Y-82269801D01*
X171179998Y-82275468D01*
X171180000Y-82275468D01*
X171180002Y-82275468D01*
X171236784Y-82270500D01*
X171406692Y-82255635D01*
X171626496Y-82196739D01*
X171832734Y-82100568D01*
X172019139Y-81970047D01*
X172180047Y-81809139D01*
X172226715Y-81742489D01*
X172281289Y-81698865D01*
X172350788Y-81691671D01*
X172413143Y-81723193D01*
X172446528Y-81776257D01*
X172465012Y-81834763D01*
X172476932Y-81859514D01*
X173237037Y-81099409D01*
X173254075Y-81162993D01*
X173319901Y-81277007D01*
X173412993Y-81370099D01*
X173527007Y-81435925D01*
X173590590Y-81452962D01*
X172830342Y-82213209D01*
X172918611Y-82247163D01*
X172918614Y-82247164D01*
X173007625Y-82267481D01*
X173089114Y-82279198D01*
X173089115Y-82279198D01*
X173135393Y-82275413D01*
X173145501Y-82275000D01*
X173639755Y-82275000D01*
X173653642Y-82275780D01*
X173663456Y-82276886D01*
X173776544Y-82276886D01*
X173786358Y-82275780D01*
X173800245Y-82275000D01*
X174251049Y-82275000D01*
X174268695Y-82276262D01*
X174289117Y-82279198D01*
X174432373Y-82267481D01*
X174521375Y-82247166D01*
X174521390Y-82247163D01*
X174599874Y-82222368D01*
X174611813Y-82215366D01*
X173849410Y-81452962D01*
X173912993Y-81435925D01*
X174027007Y-81370099D01*
X174120099Y-81277007D01*
X174185925Y-81162993D01*
X174202962Y-81099409D01*
X174963066Y-81859513D01*
X174963068Y-81859513D01*
X174974981Y-81834778D01*
X174974986Y-81834766D01*
X174998732Y-81773033D01*
X175041172Y-81717529D01*
X175106882Y-81693781D01*
X175175000Y-81709329D01*
X175216041Y-81746426D01*
X175259954Y-81809141D01*
X175420858Y-81970045D01*
X175420861Y-81970047D01*
X175607266Y-82100568D01*
X175813504Y-82196739D01*
X176033308Y-82255635D01*
X176195230Y-82269801D01*
X176259998Y-82275468D01*
X176260000Y-82275468D01*
X176260002Y-82275468D01*
X176316784Y-82270500D01*
X176486692Y-82255635D01*
X176706496Y-82196739D01*
X176912734Y-82100568D01*
X177099139Y-81970047D01*
X177260047Y-81809139D01*
X177390568Y-81622734D01*
X177417618Y-81564724D01*
X177463790Y-81512285D01*
X177530983Y-81493133D01*
X177597865Y-81513348D01*
X177642381Y-81564724D01*
X177650188Y-81581465D01*
X177669429Y-81622728D01*
X177669432Y-81622734D01*
X177799954Y-81809141D01*
X177960858Y-81970045D01*
X177960861Y-81970047D01*
X178147266Y-82100568D01*
X178353504Y-82196739D01*
X178573308Y-82255635D01*
X178735230Y-82269801D01*
X178799998Y-82275468D01*
X178800000Y-82275468D01*
X178800002Y-82275468D01*
X178856784Y-82270500D01*
X179026692Y-82255635D01*
X179246496Y-82196739D01*
X179452734Y-82100568D01*
X179639139Y-81970047D01*
X179800047Y-81809139D01*
X179930568Y-81622734D01*
X179957618Y-81564724D01*
X180003790Y-81512285D01*
X180070983Y-81493133D01*
X180137865Y-81513348D01*
X180182381Y-81564724D01*
X180190188Y-81581465D01*
X180209429Y-81622728D01*
X180209432Y-81622734D01*
X180339954Y-81809141D01*
X180500858Y-81970045D01*
X180500861Y-81970047D01*
X180687266Y-82100568D01*
X180893504Y-82196739D01*
X181113308Y-82255635D01*
X181275230Y-82269801D01*
X181339998Y-82275468D01*
X181340000Y-82275468D01*
X181340002Y-82275468D01*
X181396784Y-82270500D01*
X181566692Y-82255635D01*
X181786496Y-82196739D01*
X181992734Y-82100568D01*
X182179139Y-81970047D01*
X182340047Y-81809139D01*
X182470568Y-81622734D01*
X182497618Y-81564724D01*
X182543790Y-81512285D01*
X182610983Y-81493133D01*
X182677865Y-81513348D01*
X182722381Y-81564724D01*
X182730188Y-81581465D01*
X182749429Y-81622728D01*
X182749432Y-81622734D01*
X182879954Y-81809141D01*
X183040858Y-81970045D01*
X183040861Y-81970047D01*
X183227266Y-82100568D01*
X183433504Y-82196739D01*
X183653308Y-82255635D01*
X183815230Y-82269801D01*
X183879998Y-82275468D01*
X183880000Y-82275468D01*
X183880002Y-82275468D01*
X183936784Y-82270500D01*
X184106692Y-82255635D01*
X184326496Y-82196739D01*
X184532734Y-82100568D01*
X184719139Y-81970047D01*
X184880047Y-81809139D01*
X184926715Y-81742489D01*
X184981289Y-81698865D01*
X185050788Y-81691671D01*
X185113143Y-81723193D01*
X185146528Y-81776257D01*
X185165012Y-81834763D01*
X185176932Y-81859514D01*
X185937037Y-81099409D01*
X185954075Y-81162993D01*
X186019901Y-81277007D01*
X186112993Y-81370099D01*
X186227007Y-81435925D01*
X186290590Y-81452962D01*
X185530342Y-82213209D01*
X185618611Y-82247163D01*
X185618614Y-82247164D01*
X185707625Y-82267481D01*
X185789114Y-82279198D01*
X185789115Y-82279198D01*
X185835393Y-82275413D01*
X185845501Y-82275000D01*
X186339755Y-82275000D01*
X186353642Y-82275780D01*
X186363456Y-82276886D01*
X186476544Y-82276886D01*
X186486358Y-82275780D01*
X186500245Y-82275000D01*
X186951049Y-82275000D01*
X186968695Y-82276262D01*
X186989117Y-82279198D01*
X187132373Y-82267481D01*
X187221375Y-82247166D01*
X187221390Y-82247163D01*
X187299874Y-82222368D01*
X187311813Y-82215366D01*
X186549410Y-81452962D01*
X186612993Y-81435925D01*
X186727007Y-81370099D01*
X186820099Y-81277007D01*
X186885925Y-81162993D01*
X186902962Y-81099409D01*
X187663066Y-81859513D01*
G37*
G04 #@! TD.AperFunction*
G04 #@! TA.AperFunction,Conductor*
G36*
X162263066Y-81859513D02*
G01*
X162263068Y-81859513D01*
X162274981Y-81834778D01*
X162274986Y-81834766D01*
X162298732Y-81773033D01*
X162341172Y-81717529D01*
X162406882Y-81693781D01*
X162475000Y-81709329D01*
X162516041Y-81746426D01*
X162559954Y-81809141D01*
X162724689Y-81973876D01*
X162723809Y-81974755D01*
X162759149Y-82027868D01*
X162760259Y-82097729D01*
X162728423Y-82152371D01*
X162352696Y-82528099D01*
X162291373Y-82561584D01*
X162221682Y-82556600D01*
X162177334Y-82528099D01*
X161949503Y-82300268D01*
X161916018Y-82238945D01*
X161915139Y-82218692D01*
X161149409Y-81452962D01*
X161212993Y-81435925D01*
X161327007Y-81370099D01*
X161420099Y-81277007D01*
X161485925Y-81162993D01*
X161502962Y-81099409D01*
X162263066Y-81859513D01*
G37*
G04 #@! TD.AperFunction*
M02*
