solid OpenSCAD_Model
  facet normal 0 0 -1
    outer loop
      vertex 10.5 -30 0
      vertex 9 -23.0314 0
      vertex 10.5 30 0
    endloop
  endfacet
  facet normal 0 0 -1
    outer loop
      vertex 10.5 -30 0
      vertex 8.99605 -23.0942 0
      vertex 9 -23.0314 0
    endloop
  endfacet
  facet normal 0 0 -1
    outer loop
      vertex 10.5 -30 0
      vertex 8.98818 -23.1565 0
      vertex 8.99605 -23.0942 0
    endloop
  endfacet
  facet normal 0 0 -1
    outer loop
      vertex 10.5 -30 0
      vertex 8.9764 -23.2183 0
      vertex 8.98818 -23.1565 0
    endloop
  endfacet
  facet normal 0 0 -1
    outer loop
      vertex 10.5 -30 0
      vertex 8.96077 -23.2791 0
      vertex 8.9764 -23.2183 0
    endloop
  endfacet
  facet normal 0 0 -1
    outer loop
      vertex 10.5 -30 0
      vertex 8.94135 -23.3389 0
      vertex 8.96077 -23.2791 0
    endloop
  endfacet
  facet normal 0 0 -1
    outer loop
      vertex 10.5 -30 0
      vertex 8.91821 -23.3973 0
      vertex 8.94135 -23.3389 0
    endloop
  endfacet
  facet normal 0 0 -1
    outer loop
      vertex 10.5 -30 0
      vertex 8.89145 -23.4542 0
      vertex 8.91821 -23.3973 0
    endloop
  endfacet
  facet normal 0 0 -1
    outer loop
      vertex 10.5 -30 0
      vertex 8.86117 -23.5093 0
      vertex 8.89145 -23.4542 0
    endloop
  endfacet
  facet normal 0 0 -1
    outer loop
      vertex 10.5 -30 0
      vertex 8.82749 -23.5624 0
      vertex 8.86117 -23.5093 0
    endloop
  endfacet
  facet normal 0 0 -1
    outer loop
      vertex 10.5 -30 0
      vertex 8.79054 -23.6132 0
      vertex 8.82749 -23.5624 0
    endloop
  endfacet
  facet normal 0 0 -1
    outer loop
      vertex 10.5 -30 0
      vertex 8.75048 -23.6616 0
      vertex 8.79054 -23.6132 0
    endloop
  endfacet
  facet normal 0 0 -1
    outer loop
      vertex 10.5 -30 0
      vertex 8.70746 -23.7075 0
      vertex 8.75048 -23.6616 0
    endloop
  endfacet
  facet normal 0 0 -1
    outer loop
      vertex 10.5 -30 0
      vertex 8.66164 -23.7505 0
      vertex 8.70746 -23.7075 0
    endloop
  endfacet
  facet normal 0 0 -1
    outer loop
      vertex 10.5 -30 0
      vertex 8.61321 -23.7905 0
      vertex 8.66164 -23.7505 0
    endloop
  endfacet
  facet normal 0 0 -1
    outer loop
      vertex 10.5 -30 0
      vertex 8.56236 -23.8275 0
      vertex 8.61321 -23.7905 0
    endloop
  endfacet
  facet normal 0 0 -1
    outer loop
      vertex 10.5 -30 0
      vertex 8.50929 -23.8612 0
      vertex 8.56236 -23.8275 0
    endloop
  endfacet
  facet normal 0 0 -1
    outer loop
      vertex 10.5 -30 0
      vertex 8.45421 -23.8914 0
      vertex 8.50929 -23.8612 0
    endloop
  endfacet
  facet normal 0 0 -1
    outer loop
      vertex 10.5 -30 0
      vertex 8.39734 -23.9182 0
      vertex 8.45421 -23.8914 0
    endloop
  endfacet
  facet normal 0 0 -1
    outer loop
      vertex 10.5 -30 0
      vertex 8.3389 -23.9413 0
      vertex 8.39734 -23.9182 0
    endloop
  endfacet
  facet normal 0 0 -1
    outer loop
      vertex 10.5 -30 0
      vertex 8.27913 -23.9608 0
      vertex 8.3389 -23.9413 0
    endloop
  endfacet
  facet normal 0 0 -1
    outer loop
      vertex 10.5 -30 0
      vertex 8.21825 -23.9764 0
      vertex 8.27913 -23.9608 0
    endloop
  endfacet
  facet normal 0 0 -1
    outer loop
      vertex 10.5 -30 0
      vertex 8.15651 -23.9882 0
      vertex 8.21825 -23.9764 0
    endloop
  endfacet
  facet normal 0 0 -1
    outer loop
      vertex 10.5 -30 0
      vertex 8.09415 -23.9961 0
      vertex 8.15651 -23.9882 0
    endloop
  endfacet
  facet normal 0 0 -1
    outer loop
      vertex 10.5 -30 0
      vertex 8.03143 -24 0
      vertex 8.09415 -23.9961 0
    endloop
  endfacet
  facet normal 0 0 -1
    outer loop
      vertex 10.5 -30 0
      vertex -8.03143 -24 0
      vertex 8.03143 -24 0
    endloop
  endfacet
  facet normal 0 0 -1
    outer loop
      vertex -10.5 -30 0
      vertex -8.03143 -24 0
      vertex 10.5 -30 0
    endloop
  endfacet
  facet normal -0 0 -1
    outer loop
      vertex -8.03143 -24 0
      vertex -10.5 -30 0
      vertex -8.09415 -23.9961 0
    endloop
  endfacet
  facet normal -0 0 -1
    outer loop
      vertex -8.09415 -23.9961 0
      vertex -10.5 -30 0
      vertex -8.15651 -23.9882 0
    endloop
  endfacet
  facet normal -0 0 -1
    outer loop
      vertex -8.15651 -23.9882 0
      vertex -10.5 -30 0
      vertex -8.21825 -23.9764 0
    endloop
  endfacet
  facet normal -0 0 -1
    outer loop
      vertex -9 -23.0314 0
      vertex -10.5 -30 0
      vertex -9 23.0314 0
    endloop
  endfacet
  facet normal -0 0 -1
    outer loop
      vertex -8.99605 -23.0942 0
      vertex -10.5 -30 0
      vertex -9 -23.0314 0
    endloop
  endfacet
  facet normal -0 0 -1
    outer loop
      vertex -8.98818 -23.1565 0
      vertex -10.5 -30 0
      vertex -8.99605 -23.0942 0
    endloop
  endfacet
  facet normal -0 0 -1
    outer loop
      vertex -8.9764 -23.2183 0
      vertex -10.5 -30 0
      vertex -8.98818 -23.1565 0
    endloop
  endfacet
  facet normal -0 0 -1
    outer loop
      vertex -8.96077 -23.2791 0
      vertex -10.5 -30 0
      vertex -8.9764 -23.2183 0
    endloop
  endfacet
  facet normal -0 0 -1
    outer loop
      vertex -8.94135 -23.3389 0
      vertex -10.5 -30 0
      vertex -8.96077 -23.2791 0
    endloop
  endfacet
  facet normal -0 0 -1
    outer loop
      vertex -8.91821 -23.3973 0
      vertex -10.5 -30 0
      vertex -8.94135 -23.3389 0
    endloop
  endfacet
  facet normal -0 0 -1
    outer loop
      vertex -8.89145 -23.4542 0
      vertex -10.5 -30 0
      vertex -8.91821 -23.3973 0
    endloop
  endfacet
  facet normal -0 0 -1
    outer loop
      vertex -8.86117 -23.5093 0
      vertex -10.5 -30 0
      vertex -8.89145 -23.4542 0
    endloop
  endfacet
  facet normal -0 0 -1
    outer loop
      vertex -8.82749 -23.5624 0
      vertex -10.5 -30 0
      vertex -8.86117 -23.5093 0
    endloop
  endfacet
  facet normal -0 0 -1
    outer loop
      vertex -8.79054 -23.6132 0
      vertex -10.5 -30 0
      vertex -8.82749 -23.5624 0
    endloop
  endfacet
  facet normal -0 0 -1
    outer loop
      vertex -8.75048 -23.6616 0
      vertex -10.5 -30 0
      vertex -8.79054 -23.6132 0
    endloop
  endfacet
  facet normal -0 0 -1
    outer loop
      vertex -8.70746 -23.7075 0
      vertex -10.5 -30 0
      vertex -8.75048 -23.6616 0
    endloop
  endfacet
  facet normal -0 0 -1
    outer loop
      vertex -8.66164 -23.7505 0
      vertex -10.5 -30 0
      vertex -8.70746 -23.7075 0
    endloop
  endfacet
  facet normal -0 0 -1
    outer loop
      vertex -8.61321 -23.7905 0
      vertex -10.5 -30 0
      vertex -8.66164 -23.7505 0
    endloop
  endfacet
  facet normal -0 0 -1
    outer loop
      vertex -8.56236 -23.8275 0
      vertex -10.5 -30 0
      vertex -8.61321 -23.7905 0
    endloop
  endfacet
  facet normal -0 0 -1
    outer loop
      vertex -8.50929 -23.8612 0
      vertex -10.5 -30 0
      vertex -8.56236 -23.8275 0
    endloop
  endfacet
  facet normal -0 0 -1
    outer loop
      vertex -8.45421 -23.8914 0
      vertex -10.5 -30 0
      vertex -8.50929 -23.8612 0
    endloop
  endfacet
  facet normal -0 0 -1
    outer loop
      vertex -8.39734 -23.9182 0
      vertex -10.5 -30 0
      vertex -8.45421 -23.8914 0
    endloop
  endfacet
  facet normal -0 0 -1
    outer loop
      vertex -8.3389 -23.9413 0
      vertex -10.5 -30 0
      vertex -8.39734 -23.9182 0
    endloop
  endfacet
  facet normal -0 0 -1
    outer loop
      vertex -8.27913 -23.9608 0
      vertex -10.5 -30 0
      vertex -8.3389 -23.9413 0
    endloop
  endfacet
  facet normal -0 0 -1
    outer loop
      vertex -8.21825 -23.9764 0
      vertex -10.5 -30 0
      vertex -8.27913 -23.9608 0
    endloop
  endfacet
  facet normal 0 0 -1
    outer loop
      vertex 9 23.0314 0
      vertex 10.5 30 0
      vertex 9 -23.0314 0
    endloop
  endfacet
  facet normal 0 0 -1
    outer loop
      vertex 8.99605 23.0942 0
      vertex 10.5 30 0
      vertex 9 23.0314 0
    endloop
  endfacet
  facet normal 0 0 -1
    outer loop
      vertex 8.98818 23.1565 0
      vertex 10.5 30 0
      vertex 8.99605 23.0942 0
    endloop
  endfacet
  facet normal 0 0 -1
    outer loop
      vertex 8.9764 23.2183 0
      vertex 10.5 30 0
      vertex 8.98818 23.1565 0
    endloop
  endfacet
  facet normal 0 0 -1
    outer loop
      vertex 8.96077 23.2791 0
      vertex 10.5 30 0
      vertex 8.9764 23.2183 0
    endloop
  endfacet
  facet normal 0 0 -1
    outer loop
      vertex 8.94135 23.3389 0
      vertex 10.5 30 0
      vertex 8.96077 23.2791 0
    endloop
  endfacet
  facet normal 0 0 -1
    outer loop
      vertex 8.91821 23.3973 0
      vertex 10.5 30 0
      vertex 8.94135 23.3389 0
    endloop
  endfacet
  facet normal 0 0 -1
    outer loop
      vertex 8.89145 23.4542 0
      vertex 10.5 30 0
      vertex 8.91821 23.3973 0
    endloop
  endfacet
  facet normal 0 0 -1
    outer loop
      vertex 8.86117 23.5093 0
      vertex 10.5 30 0
      vertex 8.89145 23.4542 0
    endloop
  endfacet
  facet normal 0 0 -1
    outer loop
      vertex 8.82749 23.5624 0
      vertex 10.5 30 0
      vertex 8.86117 23.5093 0
    endloop
  endfacet
  facet normal 0 0 -1
    outer loop
      vertex 8.79054 23.6132 0
      vertex 10.5 30 0
      vertex 8.82749 23.5624 0
    endloop
  endfacet
  facet normal 0 0 -1
    outer loop
      vertex 8.75048 23.6616 0
      vertex 10.5 30 0
      vertex 8.79054 23.6132 0
    endloop
  endfacet
  facet normal 0 0 -1
    outer loop
      vertex 8.70746 23.7075 0
      vertex 10.5 30 0
      vertex 8.75048 23.6616 0
    endloop
  endfacet
  facet normal 0 0 -1
    outer loop
      vertex 8.66164 23.7505 0
      vertex 10.5 30 0
      vertex 8.70746 23.7075 0
    endloop
  endfacet
  facet normal 0 0 -1
    outer loop
      vertex 8.61321 23.7905 0
      vertex 10.5 30 0
      vertex 8.66164 23.7505 0
    endloop
  endfacet
  facet normal 0 0 -1
    outer loop
      vertex 8.56236 23.8275 0
      vertex 10.5 30 0
      vertex 8.61321 23.7905 0
    endloop
  endfacet
  facet normal 0 0 -1
    outer loop
      vertex 8.50929 23.8612 0
      vertex 10.5 30 0
      vertex 8.56236 23.8275 0
    endloop
  endfacet
  facet normal 0 0 -1
    outer loop
      vertex 8.45421 23.8914 0
      vertex 10.5 30 0
      vertex 8.50929 23.8612 0
    endloop
  endfacet
  facet normal 0 0 -1
    outer loop
      vertex 8.39734 23.9182 0
      vertex 10.5 30 0
      vertex 8.45421 23.8914 0
    endloop
  endfacet
  facet normal 0 0 -1
    outer loop
      vertex 8.3389 23.9413 0
      vertex 10.5 30 0
      vertex 8.39734 23.9182 0
    endloop
  endfacet
  facet normal 0 0 -1
    outer loop
      vertex 8.27913 23.9608 0
      vertex 10.5 30 0
      vertex 8.3389 23.9413 0
    endloop
  endfacet
  facet normal 0 0 -1
    outer loop
      vertex 8.21825 23.9764 0
      vertex 10.5 30 0
      vertex 8.27913 23.9608 0
    endloop
  endfacet
  facet normal 0 0 -1
    outer loop
      vertex 8.15651 23.9882 0
      vertex 10.5 30 0
      vertex 8.21825 23.9764 0
    endloop
  endfacet
  facet normal 0 0 -1
    outer loop
      vertex 8.09415 23.9961 0
      vertex 10.5 30 0
      vertex 8.15651 23.9882 0
    endloop
  endfacet
  facet normal 0 0 -1
    outer loop
      vertex 8.03143 24 0
      vertex 10.5 30 0
      vertex 8.09415 23.9961 0
    endloop
  endfacet
  facet normal 0 0 -1
    outer loop
      vertex -8.03143 24 0
      vertex 10.5 30 0
      vertex 8.03143 24 0
    endloop
  endfacet
  facet normal 0 0 -1
    outer loop
      vertex -10.5 30 0
      vertex -8.03143 24 0
      vertex -8.09415 23.9961 0
    endloop
  endfacet
  facet normal 0 0 -1
    outer loop
      vertex -10.5 30 0
      vertex -8.09415 23.9961 0
      vertex -8.15651 23.9882 0
    endloop
  endfacet
  facet normal 0 0 -1
    outer loop
      vertex -10.5 30 0
      vertex -8.15651 23.9882 0
      vertex -8.21825 23.9764 0
    endloop
  endfacet
  facet normal 0 0 -1
    outer loop
      vertex -10.5 30 0
      vertex -8.21825 23.9764 0
      vertex -8.27913 23.9608 0
    endloop
  endfacet
  facet normal 0 0 -1
    outer loop
      vertex -8.03143 24 0
      vertex -10.5 30 0
      vertex 10.5 30 0
    endloop
  endfacet
  facet normal 0 0 -1
    outer loop
      vertex -8.3389 23.9413 0
      vertex -10.5 30 0
      vertex -8.27913 23.9608 0
    endloop
  endfacet
  facet normal 0 0 -1
    outer loop
      vertex -8.39734 23.9182 0
      vertex -10.5 30 0
      vertex -8.3389 23.9413 0
    endloop
  endfacet
  facet normal 0 0 -1
    outer loop
      vertex -8.45421 23.8914 0
      vertex -10.5 30 0
      vertex -8.39734 23.9182 0
    endloop
  endfacet
  facet normal 0 0 -1
    outer loop
      vertex -8.50929 23.8612 0
      vertex -10.5 30 0
      vertex -8.45421 23.8914 0
    endloop
  endfacet
  facet normal 0 0 -1
    outer loop
      vertex -8.56236 23.8275 0
      vertex -10.5 30 0
      vertex -8.50929 23.8612 0
    endloop
  endfacet
  facet normal 0 0 -1
    outer loop
      vertex -8.61321 23.7905 0
      vertex -10.5 30 0
      vertex -8.56236 23.8275 0
    endloop
  endfacet
  facet normal 0 0 -1
    outer loop
      vertex -8.66164 23.7505 0
      vertex -10.5 30 0
      vertex -8.61321 23.7905 0
    endloop
  endfacet
  facet normal 0 0 -1
    outer loop
      vertex -8.70746 23.7075 0
      vertex -10.5 30 0
      vertex -8.66164 23.7505 0
    endloop
  endfacet
  facet normal 0 0 -1
    outer loop
      vertex -8.75048 23.6616 0
      vertex -10.5 30 0
      vertex -8.70746 23.7075 0
    endloop
  endfacet
  facet normal 0 0 -1
    outer loop
      vertex -8.79054 23.6132 0
      vertex -10.5 30 0
      vertex -8.75048 23.6616 0
    endloop
  endfacet
  facet normal 0 0 -1
    outer loop
      vertex -8.82749 23.5624 0
      vertex -10.5 30 0
      vertex -8.79054 23.6132 0
    endloop
  endfacet
  facet normal 0 0 -1
    outer loop
      vertex -8.86117 23.5093 0
      vertex -10.5 30 0
      vertex -8.82749 23.5624 0
    endloop
  endfacet
  facet normal 0 0 -1
    outer loop
      vertex -8.89145 23.4542 0
      vertex -10.5 30 0
      vertex -8.86117 23.5093 0
    endloop
  endfacet
  facet normal 0 0 -1
    outer loop
      vertex -8.91821 23.3973 0
      vertex -10.5 30 0
      vertex -8.89145 23.4542 0
    endloop
  endfacet
  facet normal 0 0 -1
    outer loop
      vertex -8.94135 23.3389 0
      vertex -10.5 30 0
      vertex -8.91821 23.3973 0
    endloop
  endfacet
  facet normal 0 0 -1
    outer loop
      vertex -8.96077 23.2791 0
      vertex -10.5 30 0
      vertex -8.94135 23.3389 0
    endloop
  endfacet
  facet normal 0 0 -1
    outer loop
      vertex -8.9764 23.2183 0
      vertex -10.5 30 0
      vertex -8.96077 23.2791 0
    endloop
  endfacet
  facet normal 0 0 -1
    outer loop
      vertex -8.98818 23.1565 0
      vertex -10.5 30 0
      vertex -8.9764 23.2183 0
    endloop
  endfacet
  facet normal 0 0 -1
    outer loop
      vertex -8.99605 23.0942 0
      vertex -10.5 30 0
      vertex -8.98818 23.1565 0
    endloop
  endfacet
  facet normal 0 0 -1
    outer loop
      vertex -9 23.0314 0
      vertex -10.5 30 0
      vertex -8.99605 23.0942 0
    endloop
  endfacet
  facet normal 0 0 -1
    outer loop
      vertex -10.5 30 0
      vertex -9 23.0314 0
      vertex -10.5 -30 0
    endloop
  endfacet
  facet normal 1 0 0
    outer loop
      vertex 10.5 25.5 1.5
      vertex 10.5 -25.5 1.5
      vertex 10.5 25.5 1
    endloop
  endfacet
  facet normal 1 -0 0
    outer loop
      vertex 10.5 25.5 1
      vertex 10.5 30 0
      vertex 10.5 30 1
    endloop
  endfacet
  facet normal 1 0 0
    outer loop
      vertex 10.5 -25.5 1
      vertex 10.5 25.5 1
      vertex 10.5 -25.5 1.5
    endloop
  endfacet
  facet normal 1 0 0
    outer loop
      vertex 10.5 25.5 1
      vertex 10.5 -25.5 1
      vertex 10.5 30 0
    endloop
  endfacet
  facet normal 1 0 0
    outer loop
      vertex 10.5 -30 0
      vertex 10.5 -25.5 1
      vertex 10.5 -30 1
    endloop
  endfacet
  facet normal 1 0 0
    outer loop
      vertex 10.5 -25.5 1
      vertex 10.5 -30 0
      vertex 10.5 30 0
    endloop
  endfacet
  facet normal -1 0 0
    outer loop
      vertex -10.5 30 0
      vertex -10.5 25.5 1
      vertex -10.5 30 1
    endloop
  endfacet
  facet normal -1 0 0
    outer loop
      vertex -10.5 25.5 1
      vertex -10.5 -25.5 1
      vertex -10.5 25.5 1.5
    endloop
  endfacet
  facet normal -1 0 0
    outer loop
      vertex -10.5 30 0
      vertex -10.5 -25.5 1
      vertex -10.5 25.5 1
    endloop
  endfacet
  facet normal -1 0 0
    outer loop
      vertex -10.5 -30 0
      vertex -10.5 -25.5 1
      vertex -10.5 30 0
    endloop
  endfacet
  facet normal -1 -0 0
    outer loop
      vertex -10.5 -25.5 1
      vertex -10.5 -30 0
      vertex -10.5 -30 1
    endloop
  endfacet
  facet normal -1 -0 0
    outer loop
      vertex -10.5 25.5 1.5
      vertex -10.5 -25.5 1
      vertex -10.5 -25.5 1.5
    endloop
  endfacet
  facet normal 0 0 1
    outer loop
      vertex 10.5 25.5 1.5
      vertex 9 23.0314 1.5
      vertex 10.5 -25.5 1.5
    endloop
  endfacet
  facet normal 0 0 1
    outer loop
      vertex 10.5 25.5 1.5
      vertex 8.99605 23.0942 1.5
      vertex 9 23.0314 1.5
    endloop
  endfacet
  facet normal 0 0 1
    outer loop
      vertex 10.5 25.5 1.5
      vertex 8.98818 23.1565 1.5
      vertex 8.99605 23.0942 1.5
    endloop
  endfacet
  facet normal 0 0 1
    outer loop
      vertex 10.5 25.5 1.5
      vertex 8.9764 23.2183 1.5
      vertex 8.98818 23.1565 1.5
    endloop
  endfacet
  facet normal 0 0 1
    outer loop
      vertex 10.5 25.5 1.5
      vertex 8.96077 23.2791 1.5
      vertex 8.9764 23.2183 1.5
    endloop
  endfacet
  facet normal 0 0 1
    outer loop
      vertex 10.5 25.5 1.5
      vertex 8.94135 23.3389 1.5
      vertex 8.96077 23.2791 1.5
    endloop
  endfacet
  facet normal 0 0 1
    outer loop
      vertex 10.5 25.5 1.5
      vertex 8.91821 23.3973 1.5
      vertex 8.94135 23.3389 1.5
    endloop
  endfacet
  facet normal 0 0 1
    outer loop
      vertex 10.5 25.5 1.5
      vertex 8.89145 23.4542 1.5
      vertex 8.91821 23.3973 1.5
    endloop
  endfacet
  facet normal 0 0 1
    outer loop
      vertex 10.5 25.5 1.5
      vertex 8.86117 23.5093 1.5
      vertex 8.89145 23.4542 1.5
    endloop
  endfacet
  facet normal 0 0 1
    outer loop
      vertex 10.5 25.5 1.5
      vertex 8.82749 23.5624 1.5
      vertex 8.86117 23.5093 1.5
    endloop
  endfacet
  facet normal 0 0 1
    outer loop
      vertex 10.5 25.5 1.5
      vertex 8.79054 23.6132 1.5
      vertex 8.82749 23.5624 1.5
    endloop
  endfacet
  facet normal 0 0 1
    outer loop
      vertex 10.5 25.5 1.5
      vertex 8.75048 23.6616 1.5
      vertex 8.79054 23.6132 1.5
    endloop
  endfacet
  facet normal 0 0 1
    outer loop
      vertex 10.5 25.5 1.5
      vertex 8.70746 23.7075 1.5
      vertex 8.75048 23.6616 1.5
    endloop
  endfacet
  facet normal 0 0 1
    outer loop
      vertex 10.5 25.5 1.5
      vertex 8.66164 23.7505 1.5
      vertex 8.70746 23.7075 1.5
    endloop
  endfacet
  facet normal 0 0 1
    outer loop
      vertex 10.5 25.5 1.5
      vertex 8.61321 23.7905 1.5
      vertex 8.66164 23.7505 1.5
    endloop
  endfacet
  facet normal 0 0 1
    outer loop
      vertex 10.5 25.5 1.5
      vertex 8.56236 23.8275 1.5
      vertex 8.61321 23.7905 1.5
    endloop
  endfacet
  facet normal 0 0 1
    outer loop
      vertex 10.5 25.5 1.5
      vertex 8.50929 23.8612 1.5
      vertex 8.56236 23.8275 1.5
    endloop
  endfacet
  facet normal 0 0 1
    outer loop
      vertex 10.5 25.5 1.5
      vertex 8.45421 23.8914 1.5
      vertex 8.50929 23.8612 1.5
    endloop
  endfacet
  facet normal 0 0 1
    outer loop
      vertex 10.5 25.5 1.5
      vertex 8.39734 23.9182 1.5
      vertex 8.45421 23.8914 1.5
    endloop
  endfacet
  facet normal 0 0 1
    outer loop
      vertex 10.5 25.5 1.5
      vertex 8.3389 23.9413 1.5
      vertex 8.39734 23.9182 1.5
    endloop
  endfacet
  facet normal 0 0 1
    outer loop
      vertex 10.5 25.5 1.5
      vertex 8.27913 23.9608 1.5
      vertex 8.3389 23.9413 1.5
    endloop
  endfacet
  facet normal 0 0 1
    outer loop
      vertex 10.5 25.5 1.5
      vertex 8.21825 23.9764 1.5
      vertex 8.27913 23.9608 1.5
    endloop
  endfacet
  facet normal 0 0 1
    outer loop
      vertex 10.5 25.5 1.5
      vertex 8.15651 23.9882 1.5
      vertex 8.21825 23.9764 1.5
    endloop
  endfacet
  facet normal 0 0 1
    outer loop
      vertex 10.5 25.5 1.5
      vertex 8.09415 23.9961 1.5
      vertex 8.15651 23.9882 1.5
    endloop
  endfacet
  facet normal 0 0 1
    outer loop
      vertex 10.5 25.5 1.5
      vertex 8.03143 24 1.5
      vertex 8.09415 23.9961 1.5
    endloop
  endfacet
  facet normal 0 0 1
    outer loop
      vertex 10.5 25.5 1.5
      vertex -8.03143 24 1.5
      vertex 8.03143 24 1.5
    endloop
  endfacet
  facet normal -0 0 1
    outer loop
      vertex -10.5 25.5 1.5
      vertex -8.03143 24 1.5
      vertex 10.5 25.5 1.5
    endloop
  endfacet
  facet normal 0 0 1
    outer loop
      vertex -9 23.0314 1.5
      vertex -10.5 25.5 1.5
      vertex -9 -23.0314 1.5
    endloop
  endfacet
  facet normal 0 0 1
    outer loop
      vertex -8.99605 23.0942 1.5
      vertex -10.5 25.5 1.5
      vertex -9 23.0314 1.5
    endloop
  endfacet
  facet normal 0 0 1
    outer loop
      vertex -8.98818 23.1565 1.5
      vertex -10.5 25.5 1.5
      vertex -8.99605 23.0942 1.5
    endloop
  endfacet
  facet normal 0 0 1
    outer loop
      vertex -8.9764 23.2183 1.5
      vertex -10.5 25.5 1.5
      vertex -8.98818 23.1565 1.5
    endloop
  endfacet
  facet normal 0 0 1
    outer loop
      vertex -8.96077 23.2791 1.5
      vertex -10.5 25.5 1.5
      vertex -8.9764 23.2183 1.5
    endloop
  endfacet
  facet normal 0 0 1
    outer loop
      vertex -8.94135 23.3389 1.5
      vertex -10.5 25.5 1.5
      vertex -8.96077 23.2791 1.5
    endloop
  endfacet
  facet normal 0 0 1
    outer loop
      vertex -8.91821 23.3973 1.5
      vertex -10.5 25.5 1.5
      vertex -8.94135 23.3389 1.5
    endloop
  endfacet
  facet normal 0 0 1
    outer loop
      vertex -8.89145 23.4542 1.5
      vertex -10.5 25.5 1.5
      vertex -8.91821 23.3973 1.5
    endloop
  endfacet
  facet normal 0 0 1
    outer loop
      vertex -8.86117 23.5093 1.5
      vertex -10.5 25.5 1.5
      vertex -8.89145 23.4542 1.5
    endloop
  endfacet
  facet normal 0 0 1
    outer loop
      vertex -8.82749 23.5624 1.5
      vertex -10.5 25.5 1.5
      vertex -8.86117 23.5093 1.5
    endloop
  endfacet
  facet normal 0 0 1
    outer loop
      vertex -8.79054 23.6132 1.5
      vertex -10.5 25.5 1.5
      vertex -8.82749 23.5624 1.5
    endloop
  endfacet
  facet normal 0 0 1
    outer loop
      vertex -8.75048 23.6616 1.5
      vertex -10.5 25.5 1.5
      vertex -8.79054 23.6132 1.5
    endloop
  endfacet
  facet normal 0 0 1
    outer loop
      vertex -8.70746 23.7075 1.5
      vertex -10.5 25.5 1.5
      vertex -8.75048 23.6616 1.5
    endloop
  endfacet
  facet normal 0 0 1
    outer loop
      vertex -8.66164 23.7505 1.5
      vertex -10.5 25.5 1.5
      vertex -8.70746 23.7075 1.5
    endloop
  endfacet
  facet normal 0 0 1
    outer loop
      vertex -8.61321 23.7905 1.5
      vertex -10.5 25.5 1.5
      vertex -8.66164 23.7505 1.5
    endloop
  endfacet
  facet normal 0 0 1
    outer loop
      vertex -8.56236 23.8275 1.5
      vertex -10.5 25.5 1.5
      vertex -8.61321 23.7905 1.5
    endloop
  endfacet
  facet normal 0 0 1
    outer loop
      vertex -8.50929 23.8612 1.5
      vertex -10.5 25.5 1.5
      vertex -8.56236 23.8275 1.5
    endloop
  endfacet
  facet normal 0 0 1
    outer loop
      vertex -8.45421 23.8914 1.5
      vertex -10.5 25.5 1.5
      vertex -8.50929 23.8612 1.5
    endloop
  endfacet
  facet normal 0 0 1
    outer loop
      vertex -8.39734 23.9182 1.5
      vertex -10.5 25.5 1.5
      vertex -8.45421 23.8914 1.5
    endloop
  endfacet
  facet normal 0 0 1
    outer loop
      vertex -8.3389 23.9413 1.5
      vertex -10.5 25.5 1.5
      vertex -8.39734 23.9182 1.5
    endloop
  endfacet
  facet normal 0 0 1
    outer loop
      vertex -8.27913 23.9608 1.5
      vertex -10.5 25.5 1.5
      vertex -8.3389 23.9413 1.5
    endloop
  endfacet
  facet normal 0 0 1
    outer loop
      vertex -8.21825 23.9764 1.5
      vertex -10.5 25.5 1.5
      vertex -8.27913 23.9608 1.5
    endloop
  endfacet
  facet normal 0 0 1
    outer loop
      vertex -8.15651 23.9882 1.5
      vertex -10.5 25.5 1.5
      vertex -8.21825 23.9764 1.5
    endloop
  endfacet
  facet normal 0 0 1
    outer loop
      vertex -8.09415 23.9961 1.5
      vertex -10.5 25.5 1.5
      vertex -8.15651 23.9882 1.5
    endloop
  endfacet
  facet normal 0 0 1
    outer loop
      vertex -8.03143 24 1.5
      vertex -10.5 25.5 1.5
      vertex -8.09415 23.9961 1.5
    endloop
  endfacet
  facet normal -0 0 1
    outer loop
      vertex 9 -23.0314 1.5
      vertex 10.5 -25.5 1.5
      vertex 9 23.0314 1.5
    endloop
  endfacet
  facet normal -0 0 1
    outer loop
      vertex 8.99605 -23.0942 1.5
      vertex 10.5 -25.5 1.5
      vertex 9 -23.0314 1.5
    endloop
  endfacet
  facet normal -0 0 1
    outer loop
      vertex 8.98818 -23.1565 1.5
      vertex 10.5 -25.5 1.5
      vertex 8.99605 -23.0942 1.5
    endloop
  endfacet
  facet normal -0 0 1
    outer loop
      vertex 8.9764 -23.2183 1.5
      vertex 10.5 -25.5 1.5
      vertex 8.98818 -23.1565 1.5
    endloop
  endfacet
  facet normal -0 0 1
    outer loop
      vertex 8.96077 -23.2791 1.5
      vertex 10.5 -25.5 1.5
      vertex 8.9764 -23.2183 1.5
    endloop
  endfacet
  facet normal -0 0 1
    outer loop
      vertex 8.94135 -23.3389 1.5
      vertex 10.5 -25.5 1.5
      vertex 8.96077 -23.2791 1.5
    endloop
  endfacet
  facet normal -0 0 1
    outer loop
      vertex 8.91821 -23.3973 1.5
      vertex 10.5 -25.5 1.5
      vertex 8.94135 -23.3389 1.5
    endloop
  endfacet
  facet normal -0 0 1
    outer loop
      vertex 8.89145 -23.4542 1.5
      vertex 10.5 -25.5 1.5
      vertex 8.91821 -23.3973 1.5
    endloop
  endfacet
  facet normal -0 0 1
    outer loop
      vertex 8.86117 -23.5093 1.5
      vertex 10.5 -25.5 1.5
      vertex 8.89145 -23.4542 1.5
    endloop
  endfacet
  facet normal -0 0 1
    outer loop
      vertex 8.82749 -23.5624 1.5
      vertex 10.5 -25.5 1.5
      vertex 8.86117 -23.5093 1.5
    endloop
  endfacet
  facet normal -0 0 1
    outer loop
      vertex 8.79054 -23.6132 1.5
      vertex 10.5 -25.5 1.5
      vertex 8.82749 -23.5624 1.5
    endloop
  endfacet
  facet normal -0 0 1
    outer loop
      vertex 8.75048 -23.6616 1.5
      vertex 10.5 -25.5 1.5
      vertex 8.79054 -23.6132 1.5
    endloop
  endfacet
  facet normal -0 0 1
    outer loop
      vertex 8.70746 -23.7075 1.5
      vertex 10.5 -25.5 1.5
      vertex 8.75048 -23.6616 1.5
    endloop
  endfacet
  facet normal -0 0 1
    outer loop
      vertex 8.66164 -23.7505 1.5
      vertex 10.5 -25.5 1.5
      vertex 8.70746 -23.7075 1.5
    endloop
  endfacet
  facet normal -0 0 1
    outer loop
      vertex 8.61321 -23.7905 1.5
      vertex 10.5 -25.5 1.5
      vertex 8.66164 -23.7505 1.5
    endloop
  endfacet
  facet normal -0 0 1
    outer loop
      vertex 8.56236 -23.8275 1.5
      vertex 10.5 -25.5 1.5
      vertex 8.61321 -23.7905 1.5
    endloop
  endfacet
  facet normal -0 0 1
    outer loop
      vertex 8.50929 -23.8612 1.5
      vertex 10.5 -25.5 1.5
      vertex 8.56236 -23.8275 1.5
    endloop
  endfacet
  facet normal -0 0 1
    outer loop
      vertex 8.45421 -23.8914 1.5
      vertex 10.5 -25.5 1.5
      vertex 8.50929 -23.8612 1.5
    endloop
  endfacet
  facet normal -0 0 1
    outer loop
      vertex 8.39734 -23.9182 1.5
      vertex 10.5 -25.5 1.5
      vertex 8.45421 -23.8914 1.5
    endloop
  endfacet
  facet normal -0 0 1
    outer loop
      vertex 8.3389 -23.9413 1.5
      vertex 10.5 -25.5 1.5
      vertex 8.39734 -23.9182 1.5
    endloop
  endfacet
  facet normal -0 0 1
    outer loop
      vertex 8.27913 -23.9608 1.5
      vertex 10.5 -25.5 1.5
      vertex 8.3389 -23.9413 1.5
    endloop
  endfacet
  facet normal -0 0 1
    outer loop
      vertex 8.21825 -23.9764 1.5
      vertex 10.5 -25.5 1.5
      vertex 8.27913 -23.9608 1.5
    endloop
  endfacet
  facet normal -0 0 1
    outer loop
      vertex 8.15651 -23.9882 1.5
      vertex 10.5 -25.5 1.5
      vertex 8.21825 -23.9764 1.5
    endloop
  endfacet
  facet normal -0 0 1
    outer loop
      vertex 8.09415 -23.9961 1.5
      vertex 10.5 -25.5 1.5
      vertex 8.15651 -23.9882 1.5
    endloop
  endfacet
  facet normal -0 0 1
    outer loop
      vertex 8.03143 -24 1.5
      vertex 10.5 -25.5 1.5
      vertex 8.09415 -23.9961 1.5
    endloop
  endfacet
  facet normal -0 0 1
    outer loop
      vertex -8.03143 -24 1.5
      vertex 10.5 -25.5 1.5
      vertex 8.03143 -24 1.5
    endloop
  endfacet
  facet normal 0 0 1
    outer loop
      vertex -10.5 -25.5 1.5
      vertex -8.03143 -24 1.5
      vertex -8.09415 -23.9961 1.5
    endloop
  endfacet
  facet normal 0 0 1
    outer loop
      vertex -8.03143 -24 1.5
      vertex -10.5 -25.5 1.5
      vertex 10.5 -25.5 1.5
    endloop
  endfacet
  facet normal 0 0 1
    outer loop
      vertex -8.15651 -23.9882 1.5
      vertex -10.5 -25.5 1.5
      vertex -8.09415 -23.9961 1.5
    endloop
  endfacet
  facet normal 0 0 1
    outer loop
      vertex -8.21825 -23.9764 1.5
      vertex -10.5 -25.5 1.5
      vertex -8.15651 -23.9882 1.5
    endloop
  endfacet
  facet normal 0 0 1
    outer loop
      vertex -8.27913 -23.9608 1.5
      vertex -10.5 -25.5 1.5
      vertex -8.21825 -23.9764 1.5
    endloop
  endfacet
  facet normal 0 0 1
    outer loop
      vertex -8.3389 -23.9413 1.5
      vertex -10.5 -25.5 1.5
      vertex -8.27913 -23.9608 1.5
    endloop
  endfacet
  facet normal 0 0 1
    outer loop
      vertex -8.39734 -23.9182 1.5
      vertex -10.5 -25.5 1.5
      vertex -8.3389 -23.9413 1.5
    endloop
  endfacet
  facet normal 0 0 1
    outer loop
      vertex -8.45421 -23.8914 1.5
      vertex -10.5 -25.5 1.5
      vertex -8.39734 -23.9182 1.5
    endloop
  endfacet
  facet normal 0 0 1
    outer loop
      vertex -8.50929 -23.8612 1.5
      vertex -10.5 -25.5 1.5
      vertex -8.45421 -23.8914 1.5
    endloop
  endfacet
  facet normal 0 0 1
    outer loop
      vertex -8.56236 -23.8275 1.5
      vertex -10.5 -25.5 1.5
      vertex -8.50929 -23.8612 1.5
    endloop
  endfacet
  facet normal 0 0 1
    outer loop
      vertex -8.61321 -23.7905 1.5
      vertex -10.5 -25.5 1.5
      vertex -8.56236 -23.8275 1.5
    endloop
  endfacet
  facet normal 0 0 1
    outer loop
      vertex -8.66164 -23.7505 1.5
      vertex -10.5 -25.5 1.5
      vertex -8.61321 -23.7905 1.5
    endloop
  endfacet
  facet normal 0 0 1
    outer loop
      vertex -8.70746 -23.7075 1.5
      vertex -10.5 -25.5 1.5
      vertex -8.66164 -23.7505 1.5
    endloop
  endfacet
  facet normal 0 0 1
    outer loop
      vertex -8.75048 -23.6616 1.5
      vertex -10.5 -25.5 1.5
      vertex -8.70746 -23.7075 1.5
    endloop
  endfacet
  facet normal 0 0 1
    outer loop
      vertex -8.79054 -23.6132 1.5
      vertex -10.5 -25.5 1.5
      vertex -8.75048 -23.6616 1.5
    endloop
  endfacet
  facet normal 0 0 1
    outer loop
      vertex -8.82749 -23.5624 1.5
      vertex -10.5 -25.5 1.5
      vertex -8.79054 -23.6132 1.5
    endloop
  endfacet
  facet normal 0 0 1
    outer loop
      vertex -8.86117 -23.5093 1.5
      vertex -10.5 -25.5 1.5
      vertex -8.82749 -23.5624 1.5
    endloop
  endfacet
  facet normal 0 0 1
    outer loop
      vertex -8.89145 -23.4542 1.5
      vertex -10.5 -25.5 1.5
      vertex -8.86117 -23.5093 1.5
    endloop
  endfacet
  facet normal 0 0 1
    outer loop
      vertex -8.91821 -23.3973 1.5
      vertex -10.5 -25.5 1.5
      vertex -8.89145 -23.4542 1.5
    endloop
  endfacet
  facet normal 0 0 1
    outer loop
      vertex -8.94135 -23.3389 1.5
      vertex -10.5 -25.5 1.5
      vertex -8.91821 -23.3973 1.5
    endloop
  endfacet
  facet normal 0 0 1
    outer loop
      vertex -8.96077 -23.2791 1.5
      vertex -10.5 -25.5 1.5
      vertex -8.94135 -23.3389 1.5
    endloop
  endfacet
  facet normal 0 0 1
    outer loop
      vertex -8.9764 -23.2183 1.5
      vertex -10.5 -25.5 1.5
      vertex -8.96077 -23.2791 1.5
    endloop
  endfacet
  facet normal 0 0 1
    outer loop
      vertex -8.98818 -23.1565 1.5
      vertex -10.5 -25.5 1.5
      vertex -8.9764 -23.2183 1.5
    endloop
  endfacet
  facet normal 0 0 1
    outer loop
      vertex -8.99605 -23.0942 1.5
      vertex -10.5 -25.5 1.5
      vertex -8.98818 -23.1565 1.5
    endloop
  endfacet
  facet normal 0 0 1
    outer loop
      vertex -9 -23.0314 1.5
      vertex -10.5 -25.5 1.5
      vertex -8.99605 -23.0942 1.5
    endloop
  endfacet
  facet normal 0 0 1
    outer loop
      vertex -10.5 -25.5 1.5
      vertex -9 -23.0314 1.5
      vertex -10.5 25.5 1.5
    endloop
  endfacet
  facet normal 0 1 -0
    outer loop
      vertex 10.5 25.5 1
      vertex -10.5 25.5 1.5
      vertex 10.5 25.5 1.5
    endloop
  endfacet
  facet normal 0 1 0
    outer loop
      vertex -10.5 25.5 1.5
      vertex 10.5 25.5 1
      vertex -10.5 25.5 1
    endloop
  endfacet
  facet normal 0 -1 0
    outer loop
      vertex -10.5 -25.5 1
      vertex 10.5 -25.5 1.5
      vertex -10.5 -25.5 1.5
    endloop
  endfacet
  facet normal 0 -1 -0
    outer loop
      vertex 10.5 -25.5 1.5
      vertex -10.5 -25.5 1
      vertex 10.5 -25.5 1
    endloop
  endfacet
  facet normal -0 0 1
    outer loop
      vertex -10.5 30 1
      vertex 10.5 25.5 1
      vertex 10.5 30 1
    endloop
  endfacet
  facet normal 0 0 1
    outer loop
      vertex 10.5 25.5 1
      vertex -10.5 30 1
      vertex -10.5 25.5 1
    endloop
  endfacet
  facet normal -0 0 1
    outer loop
      vertex -10.5 -25.5 1
      vertex 10.5 -30 1
      vertex 10.5 -25.5 1
    endloop
  endfacet
  facet normal 0 0 1
    outer loop
      vertex 10.5 -30 1
      vertex -10.5 -25.5 1
      vertex -10.5 -30 1
    endloop
  endfacet
  facet normal 0 1 -0
    outer loop
      vertex 10.5 30 0
      vertex -10.5 30 1
      vertex 10.5 30 1
    endloop
  endfacet
  facet normal 0 1 0
    outer loop
      vertex -10.5 30 1
      vertex 10.5 30 0
      vertex -10.5 30 0
    endloop
  endfacet
  facet normal 0 -1 0
    outer loop
      vertex -10.5 -30 0
      vertex 10.5 -30 1
      vertex -10.5 -30 1
    endloop
  endfacet
  facet normal 0 -1 -0
    outer loop
      vertex 10.5 -30 1
      vertex -10.5 -30 0
      vertex 10.5 -30 0
    endloop
  endfacet
  facet normal -0.0620613 -0.998072 0
    outer loop
      vertex 8.03143 24 0
      vertex 8.09415 23.9961 1.5
      vertex 8.03143 24 1.5
    endloop
  endfacet
  facet normal -0.0620613 -0.998072 -0
    outer loop
      vertex 8.09415 23.9961 1.5
      vertex 8.03143 24 0
      vertex 8.09415 23.9961 0
    endloop
  endfacet
  facet normal -0.125679 -0.992071 0
    outer loop
      vertex 8.09415 23.9961 0
      vertex 8.15651 23.9882 1.5
      vertex 8.09415 23.9961 1.5
    endloop
  endfacet
  facet normal -0.125679 -0.992071 -0
    outer loop
      vertex 8.15651 23.9882 1.5
      vertex 8.09415 23.9961 0
      vertex 8.15651 23.9882 0
    endloop
  endfacet
  facet normal -0.480769 -0.876847 0
    outer loop
      vertex 8.45421 23.8914 0
      vertex 8.50929 23.8612 1.5
      vertex 8.45421 23.8914 1.5
    endloop
  endfacet
  facet normal -0.480769 -0.876847 -0
    outer loop
      vertex 8.50929 23.8612 1.5
      vertex 8.45421 23.8914 0
      vertex 8.50929 23.8612 0
    endloop
  endfacet
  facet normal -0.684312 -0.72919 0
    outer loop
      vertex 8.66164 23.7505 0
      vertex 8.70746 23.7075 1.5
      vertex 8.66164 23.7505 1.5
    endloop
  endfacet
  facet normal -0.684312 -0.72919 -0
    outer loop
      vertex 8.70746 23.7075 1.5
      vertex 8.66164 23.7505 0
      vertex 8.70746 23.7075 0
    endloop
  endfacet
  facet normal -0.367601 -0.929983 0
    outer loop
      vertex 8.3389 23.9413 0
      vertex 8.39734 23.9182 1.5
      vertex 8.3389 23.9413 1.5
    endloop
  endfacet
  facet normal -0.367601 -0.929983 -0
    outer loop
      vertex 8.39734 23.9182 1.5
      vertex 8.3389 23.9413 0
      vertex 8.39734 23.9182 0
    endloop
  endfacet
  facet normal -0.90492 -0.425583 0
    outer loop
      vertex 8.91821 23.3973 0
      vertex 8.89145 23.4542 1.5
      vertex 8.89145 23.4542 0
    endloop
  endfacet
  facet normal -0.90492 -0.425583 0
    outer loop
      vertex 8.89145 23.4542 1.5
      vertex 8.91821 23.3973 0
      vertex 8.91821 23.3973 1.5
    endloop
  endfacet
  facet normal -0.992115 -0.125328 0
    outer loop
      vertex 8.99605 23.0942 0
      vertex 8.98818 23.1565 1.5
      vertex 8.98818 23.1565 0
    endloop
  endfacet
  facet normal -0.992115 -0.125328 0
    outer loop
      vertex 8.98818 23.1565 1.5
      vertex 8.99605 23.0942 0
      vertex 8.99605 23.0942 1.5
    endloop
  endfacet
  facet normal -0.982314 -0.187244 0
    outer loop
      vertex 8.98818 23.1565 0
      vertex 8.9764 23.2183 1.5
      vertex 8.9764 23.2183 0
    endloop
  endfacet
  facet normal -0.982314 -0.187244 0
    outer loop
      vertex 8.9764 23.2183 1.5
      vertex 8.98818 23.1565 0
      vertex 8.98818 23.1565 1.5
    endloop
  endfacet
  facet normal -0.876384 -0.481613 0
    outer loop
      vertex 8.89145 23.4542 0
      vertex 8.86117 23.5093 1.5
      vertex 8.86117 23.5093 0
    endloop
  endfacet
  facet normal -0.876384 -0.481613 0
    outer loop
      vertex 8.86117 23.5093 1.5
      vertex 8.89145 23.4542 0
      vertex 8.89145 23.4542 1.5
    endloop
  endfacet
  facet normal -0.187726 -0.982221 0
    outer loop
      vertex 8.15651 23.9882 0
      vertex 8.21825 23.9764 1.5
      vertex 8.15651 23.9882 1.5
    endloop
  endfacet
  facet normal -0.187726 -0.982221 -0
    outer loop
      vertex 8.21825 23.9764 1.5
      vertex 8.15651 23.9882 0
      vertex 8.21825 23.9764 0
    endloop
  endfacet
  facet normal -0.808702 -0.588219 0
    outer loop
      vertex 8.82749 23.5624 0
      vertex 8.79054 23.6132 1.5
      vertex 8.79054 23.6132 0
    endloop
  endfacet
  facet normal -0.808702 -0.588219 0
    outer loop
      vertex 8.79054 23.6132 1.5
      vertex 8.82749 23.5624 0
      vertex 8.82749 23.5624 1.5
    endloop
  endfacet
  facet normal -0.998028 -0.062774 0
    outer loop
      vertex 9 23.0314 0
      vertex 8.99605 23.0942 1.5
      vertex 8.99605 23.0942 0
    endloop
  endfacet
  facet normal -0.998028 -0.062774 0
    outer loop
      vertex 8.99605 23.0942 1.5
      vertex 9 23.0314 0
      vertex 9 23.0314 1.5
    endloop
  endfacet
  facet normal 0 -1 0
    outer loop
      vertex -8.03143 24 0
      vertex 8.03143 24 1.5
      vertex -8.03143 24 1.5
    endloop
  endfacet
  facet normal 0 -1 -0
    outer loop
      vertex 8.03143 24 1.5
      vertex -8.03143 24 0
      vertex 8.03143 24 0
    endloop
  endfacet
  facet normal -0.588361 -0.808599 0
    outer loop
      vertex 8.56236 23.8275 0
      vertex 8.61321 23.7905 1.5
      vertex 8.56236 23.8275 1.5
    endloop
  endfacet
  facet normal -0.588361 -0.808599 -0
    outer loop
      vertex 8.61321 23.7905 1.5
      vertex 8.56236 23.8275 0
      vertex 8.61321 23.7905 0
    endloop
  endfacet
  facet normal -1 0 0
    outer loop
      vertex 9 -23.0314 0
      vertex 9 23.0314 1.5
      vertex 9 23.0314 0
    endloop
  endfacet
  facet normal -1 -0 0
    outer loop
      vertex 9 23.0314 1.5
      vertex 9 -23.0314 0
      vertex 9 -23.0314 1.5
    endloop
  endfacet
  facet normal -0.636812 -0.77102 0
    outer loop
      vertex 8.61321 23.7905 0
      vertex 8.66164 23.7505 1.5
      vertex 8.61321 23.7905 1.5
    endloop
  endfacet
  facet normal -0.636812 -0.77102 -0
    outer loop
      vertex 8.66164 23.7505 1.5
      vertex 8.61321 23.7905 0
      vertex 8.66164 23.7505 0
    endloop
  endfacet
  facet normal -0.536062 -0.844179 0
    outer loop
      vertex 8.50929 23.8612 0
      vertex 8.56236 23.8275 1.5
      vertex 8.50929 23.8612 1.5
    endloop
  endfacet
  facet normal -0.536062 -0.844179 -0
    outer loop
      vertex 8.56236 23.8275 1.5
      vertex 8.50929 23.8612 0
      vertex 8.56236 23.8275 0
    endloop
  endfacet
  facet normal -0.951104 -0.30887 0
    outer loop
      vertex 8.96077 23.2791 0
      vertex 8.94135 23.3389 1.5
      vertex 8.94135 23.3389 0
    endloop
  endfacet
  facet normal -0.951104 -0.30887 0
    outer loop
      vertex 8.94135 23.3389 1.5
      vertex 8.96077 23.2791 0
      vertex 8.96077 23.2791 1.5
    endloop
  endfacet
  facet normal -0.770357 -0.637613 0
    outer loop
      vertex 8.79054 23.6132 0
      vertex 8.75048 23.6616 1.5
      vertex 8.75048 23.6616 0
    endloop
  endfacet
  facet normal -0.770357 -0.637613 0
    outer loop
      vertex 8.75048 23.6616 1.5
      vertex 8.79054 23.6132 0
      vertex 8.79054 23.6132 1.5
    endloop
  endfacet
  facet normal -0.426287 -0.904588 0
    outer loop
      vertex 8.39734 23.9182 0
      vertex 8.45421 23.8914 1.5
      vertex 8.39734 23.9182 1.5
    endloop
  endfacet
  facet normal -0.426287 -0.904588 -0
    outer loop
      vertex 8.45421 23.8914 1.5
      vertex 8.39734 23.9182 0
      vertex 8.45421 23.8914 0
    endloop
  endfacet
  facet normal -0.844459 -0.535619 0
    outer loop
      vertex 8.86117 23.5093 0
      vertex 8.82749 23.5624 1.5
      vertex 8.82749 23.5624 0
    endloop
  endfacet
  facet normal -0.844459 -0.535619 0
    outer loop
      vertex 8.82749 23.5624 1.5
      vertex 8.86117 23.5093 0
      vertex 8.86117 23.5093 1.5
    endloop
  endfacet
  facet normal -0.968509 -0.248977 0
    outer loop
      vertex 8.9764 23.2183 0
      vertex 8.96077 23.2791 1.5
      vertex 8.96077 23.2791 0
    endloop
  endfacet
  facet normal -0.968509 -0.248977 0
    outer loop
      vertex 8.96077 23.2791 1.5
      vertex 8.9764 23.2183 0
      vertex 8.9764 23.2183 1.5
    endloop
  endfacet
  facet normal -0.248222 -0.968703 0
    outer loop
      vertex 8.21825 23.9764 0
      vertex 8.27913 23.9608 1.5
      vertex 8.21825 23.9764 1.5
    endloop
  endfacet
  facet normal -0.248222 -0.968703 -0
    outer loop
      vertex 8.27913 23.9608 1.5
      vertex 8.21825 23.9764 0
      vertex 8.27913 23.9608 0
    endloop
  endfacet
  facet normal -0.310161 -0.950684 0
    outer loop
      vertex 8.27913 23.9608 0
      vertex 8.3389 23.9413 1.5
      vertex 8.27913 23.9608 1.5
    endloop
  endfacet
  facet normal -0.310161 -0.950684 -0
    outer loop
      vertex 8.3389 23.9413 1.5
      vertex 8.27913 23.9608 0
      vertex 8.3389 23.9413 0
    endloop
  endfacet
  facet normal -0.729626 -0.683846 0
    outer loop
      vertex 8.75048 23.6616 0
      vertex 8.70746 23.7075 1.5
      vertex 8.70746 23.7075 0
    endloop
  endfacet
  facet normal -0.729626 -0.683846 0
    outer loop
      vertex 8.70746 23.7075 1.5
      vertex 8.75048 23.6616 0
      vertex 8.75048 23.6616 1.5
    endloop
  endfacet
  facet normal -0.929679 -0.36837 0
    outer loop
      vertex 8.94135 23.3389 0
      vertex 8.91821 23.3973 1.5
      vertex 8.91821 23.3973 0
    endloop
  endfacet
  facet normal -0.929679 -0.36837 0
    outer loop
      vertex 8.91821 23.3973 1.5
      vertex 8.94135 23.3389 0
      vertex 8.94135 23.3389 1.5
    endloop
  endfacet
  facet normal -0.998028 0.062774 0
    outer loop
      vertex 8.99605 -23.0942 0
      vertex 9 -23.0314 1.5
      vertex 9 -23.0314 0
    endloop
  endfacet
  facet normal -0.998028 0.062774 0
    outer loop
      vertex 9 -23.0314 1.5
      vertex 8.99605 -23.0942 0
      vertex 8.99605 -23.0942 1.5
    endloop
  endfacet
  facet normal -0.929679 0.36837 0
    outer loop
      vertex 8.91821 -23.3973 0
      vertex 8.94135 -23.3389 1.5
      vertex 8.94135 -23.3389 0
    endloop
  endfacet
  facet normal -0.929679 0.36837 0
    outer loop
      vertex 8.94135 -23.3389 1.5
      vertex 8.91821 -23.3973 0
      vertex 8.91821 -23.3973 1.5
    endloop
  endfacet
  facet normal -0.951104 0.30887 0
    outer loop
      vertex 8.94135 -23.3389 0
      vertex 8.96077 -23.2791 1.5
      vertex 8.96077 -23.2791 0
    endloop
  endfacet
  facet normal -0.951104 0.30887 0
    outer loop
      vertex 8.96077 -23.2791 1.5
      vertex 8.94135 -23.3389 0
      vertex 8.94135 -23.3389 1.5
    endloop
  endfacet
  facet normal -0.982314 0.187244 0
    outer loop
      vertex 8.9764 -23.2183 0
      vertex 8.98818 -23.1565 1.5
      vertex 8.98818 -23.1565 0
    endloop
  endfacet
  facet normal -0.982314 0.187244 0
    outer loop
      vertex 8.98818 -23.1565 1.5
      vertex 8.9764 -23.2183 0
      vertex 8.9764 -23.2183 1.5
    endloop
  endfacet
  facet normal -0.770357 0.637613 0
    outer loop
      vertex 8.75048 -23.6616 0
      vertex 8.79054 -23.6132 1.5
      vertex 8.79054 -23.6132 0
    endloop
  endfacet
  facet normal -0.770357 0.637613 0
    outer loop
      vertex 8.79054 -23.6132 1.5
      vertex 8.75048 -23.6616 0
      vertex 8.75048 -23.6616 1.5
    endloop
  endfacet
  facet normal -0.90492 0.425583 0
    outer loop
      vertex 8.89145 -23.4542 0
      vertex 8.91821 -23.3973 1.5
      vertex 8.91821 -23.3973 0
    endloop
  endfacet
  facet normal -0.90492 0.425583 0
    outer loop
      vertex 8.91821 -23.3973 1.5
      vertex 8.89145 -23.4542 0
      vertex 8.89145 -23.4542 1.5
    endloop
  endfacet
  facet normal -0.844459 0.535619 0
    outer loop
      vertex 8.82749 -23.5624 0
      vertex 8.86117 -23.5093 1.5
      vertex 8.86117 -23.5093 0
    endloop
  endfacet
  facet normal -0.844459 0.535619 0
    outer loop
      vertex 8.86117 -23.5093 1.5
      vertex 8.82749 -23.5624 0
      vertex 8.82749 -23.5624 1.5
    endloop
  endfacet
  facet normal -0.808702 0.588219 0
    outer loop
      vertex 8.79054 -23.6132 0
      vertex 8.82749 -23.5624 1.5
      vertex 8.82749 -23.5624 0
    endloop
  endfacet
  facet normal -0.808702 0.588219 0
    outer loop
      vertex 8.82749 -23.5624 1.5
      vertex 8.79054 -23.6132 0
      vertex 8.79054 -23.6132 1.5
    endloop
  endfacet
  facet normal -0.248222 0.968703 0
    outer loop
      vertex 8.27913 -23.9608 0
      vertex 8.21825 -23.9764 1.5
      vertex 8.27913 -23.9608 1.5
    endloop
  endfacet
  facet normal -0.248222 0.968703 0
    outer loop
      vertex 8.21825 -23.9764 1.5
      vertex 8.27913 -23.9608 0
      vertex 8.21825 -23.9764 0
    endloop
  endfacet
  facet normal -0.480769 0.876847 0
    outer loop
      vertex 8.50929 -23.8612 0
      vertex 8.45421 -23.8914 1.5
      vertex 8.50929 -23.8612 1.5
    endloop
  endfacet
  facet normal -0.480769 0.876847 0
    outer loop
      vertex 8.45421 -23.8914 1.5
      vertex 8.50929 -23.8612 0
      vertex 8.45421 -23.8914 0
    endloop
  endfacet
  facet normal -0.536062 0.844179 0
    outer loop
      vertex 8.56236 -23.8275 0
      vertex 8.50929 -23.8612 1.5
      vertex 8.56236 -23.8275 1.5
    endloop
  endfacet
  facet normal -0.536062 0.844179 0
    outer loop
      vertex 8.50929 -23.8612 1.5
      vertex 8.56236 -23.8275 0
      vertex 8.50929 -23.8612 0
    endloop
  endfacet
  facet normal -0.729626 0.683846 0
    outer loop
      vertex 8.70746 -23.7075 0
      vertex 8.75048 -23.6616 1.5
      vertex 8.75048 -23.6616 0
    endloop
  endfacet
  facet normal -0.729626 0.683846 0
    outer loop
      vertex 8.75048 -23.6616 1.5
      vertex 8.70746 -23.7075 0
      vertex 8.70746 -23.7075 1.5
    endloop
  endfacet
  facet normal -0.684312 0.72919 0
    outer loop
      vertex 8.70746 -23.7075 0
      vertex 8.66164 -23.7505 1.5
      vertex 8.70746 -23.7075 1.5
    endloop
  endfacet
  facet normal -0.684312 0.72919 0
    outer loop
      vertex 8.66164 -23.7505 1.5
      vertex 8.70746 -23.7075 0
      vertex 8.66164 -23.7505 0
    endloop
  endfacet
  facet normal -0.992115 0.125328 0
    outer loop
      vertex 8.98818 -23.1565 0
      vertex 8.99605 -23.0942 1.5
      vertex 8.99605 -23.0942 0
    endloop
  endfacet
  facet normal -0.992115 0.125328 0
    outer loop
      vertex 8.99605 -23.0942 1.5
      vertex 8.98818 -23.1565 0
      vertex 8.98818 -23.1565 1.5
    endloop
  endfacet
  facet normal -0.426287 0.904588 0
    outer loop
      vertex 8.45421 -23.8914 0
      vertex 8.39734 -23.9182 1.5
      vertex 8.45421 -23.8914 1.5
    endloop
  endfacet
  facet normal -0.426287 0.904588 0
    outer loop
      vertex 8.39734 -23.9182 1.5
      vertex 8.45421 -23.8914 0
      vertex 8.39734 -23.9182 0
    endloop
  endfacet
  facet normal -0.0620613 0.998072 0
    outer loop
      vertex 8.09415 -23.9961 0
      vertex 8.03143 -24 1.5
      vertex 8.09415 -23.9961 1.5
    endloop
  endfacet
  facet normal -0.0620613 0.998072 0
    outer loop
      vertex 8.03143 -24 1.5
      vertex 8.09415 -23.9961 0
      vertex 8.03143 -24 0
    endloop
  endfacet
  facet normal -0.187726 0.982221 0
    outer loop
      vertex 8.21825 -23.9764 0
      vertex 8.15651 -23.9882 1.5
      vertex 8.21825 -23.9764 1.5
    endloop
  endfacet
  facet normal -0.187726 0.982221 0
    outer loop
      vertex 8.15651 -23.9882 1.5
      vertex 8.21825 -23.9764 0
      vertex 8.15651 -23.9882 0
    endloop
  endfacet
  facet normal -0.636812 0.77102 0
    outer loop
      vertex 8.66164 -23.7505 0
      vertex 8.61321 -23.7905 1.5
      vertex 8.66164 -23.7505 1.5
    endloop
  endfacet
  facet normal -0.636812 0.77102 0
    outer loop
      vertex 8.61321 -23.7905 1.5
      vertex 8.66164 -23.7505 0
      vertex 8.61321 -23.7905 0
    endloop
  endfacet
  facet normal 0 1 -0
    outer loop
      vertex 8.03143 -24 0
      vertex -8.03143 -24 1.5
      vertex 8.03143 -24 1.5
    endloop
  endfacet
  facet normal 0 1 0
    outer loop
      vertex -8.03143 -24 1.5
      vertex 8.03143 -24 0
      vertex -8.03143 -24 0
    endloop
  endfacet
  facet normal -0.876384 0.481613 0
    outer loop
      vertex 8.86117 -23.5093 0
      vertex 8.89145 -23.4542 1.5
      vertex 8.89145 -23.4542 0
    endloop
  endfacet
  facet normal -0.876384 0.481613 0
    outer loop
      vertex 8.89145 -23.4542 1.5
      vertex 8.86117 -23.5093 0
      vertex 8.86117 -23.5093 1.5
    endloop
  endfacet
  facet normal -0.588361 0.808599 0
    outer loop
      vertex 8.61321 -23.7905 0
      vertex 8.56236 -23.8275 1.5
      vertex 8.61321 -23.7905 1.5
    endloop
  endfacet
  facet normal -0.588361 0.808599 0
    outer loop
      vertex 8.56236 -23.8275 1.5
      vertex 8.61321 -23.7905 0
      vertex 8.56236 -23.8275 0
    endloop
  endfacet
  facet normal -0.968509 0.248977 0
    outer loop
      vertex 8.96077 -23.2791 0
      vertex 8.9764 -23.2183 1.5
      vertex 8.9764 -23.2183 0
    endloop
  endfacet
  facet normal -0.968509 0.248977 0
    outer loop
      vertex 8.9764 -23.2183 1.5
      vertex 8.96077 -23.2791 0
      vertex 8.96077 -23.2791 1.5
    endloop
  endfacet
  facet normal -0.125679 0.992071 0
    outer loop
      vertex 8.15651 -23.9882 0
      vertex 8.09415 -23.9961 1.5
      vertex 8.15651 -23.9882 1.5
    endloop
  endfacet
  facet normal -0.125679 0.992071 0
    outer loop
      vertex 8.09415 -23.9961 1.5
      vertex 8.15651 -23.9882 0
      vertex 8.09415 -23.9961 0
    endloop
  endfacet
  facet normal -0.310161 0.950684 0
    outer loop
      vertex 8.3389 -23.9413 0
      vertex 8.27913 -23.9608 1.5
      vertex 8.3389 -23.9413 1.5
    endloop
  endfacet
  facet normal -0.310161 0.950684 0
    outer loop
      vertex 8.27913 -23.9608 1.5
      vertex 8.3389 -23.9413 0
      vertex 8.27913 -23.9608 0
    endloop
  endfacet
  facet normal -0.367601 0.929983 0
    outer loop
      vertex 8.39734 -23.9182 0
      vertex 8.3389 -23.9413 1.5
      vertex 8.39734 -23.9182 1.5
    endloop
  endfacet
  facet normal -0.367601 0.929983 0
    outer loop
      vertex 8.3389 -23.9413 1.5
      vertex 8.39734 -23.9182 0
      vertex 8.3389 -23.9413 0
    endloop
  endfacet
  facet normal 0.929679 0.36837 0
    outer loop
      vertex -8.91821 -23.3973 1.5
      vertex -8.94135 -23.3389 0
      vertex -8.94135 -23.3389 1.5
    endloop
  endfacet
  facet normal 0.929679 0.36837 0
    outer loop
      vertex -8.94135 -23.3389 0
      vertex -8.91821 -23.3973 1.5
      vertex -8.91821 -23.3973 0
    endloop
  endfacet
  facet normal 0.684312 0.72919 -0
    outer loop
      vertex -8.66164 -23.7505 0
      vertex -8.70746 -23.7075 1.5
      vertex -8.66164 -23.7505 1.5
    endloop
  endfacet
  facet normal 0.684312 0.72919 0
    outer loop
      vertex -8.70746 -23.7075 1.5
      vertex -8.66164 -23.7505 0
      vertex -8.70746 -23.7075 0
    endloop
  endfacet
  facet normal 0.187726 0.982221 -0
    outer loop
      vertex -8.15651 -23.9882 0
      vertex -8.21825 -23.9764 1.5
      vertex -8.15651 -23.9882 1.5
    endloop
  endfacet
  facet normal 0.187726 0.982221 0
    outer loop
      vertex -8.21825 -23.9764 1.5
      vertex -8.15651 -23.9882 0
      vertex -8.21825 -23.9764 0
    endloop
  endfacet
  facet normal 0.636812 0.77102 -0
    outer loop
      vertex -8.61321 -23.7905 0
      vertex -8.66164 -23.7505 1.5
      vertex -8.61321 -23.7905 1.5
    endloop
  endfacet
  facet normal 0.636812 0.77102 0
    outer loop
      vertex -8.66164 -23.7505 1.5
      vertex -8.61321 -23.7905 0
      vertex -8.66164 -23.7505 0
    endloop
  endfacet
  facet normal 0.770357 0.637613 0
    outer loop
      vertex -8.75048 -23.6616 1.5
      vertex -8.79054 -23.6132 0
      vertex -8.79054 -23.6132 1.5
    endloop
  endfacet
  facet normal 0.770357 0.637613 0
    outer loop
      vertex -8.79054 -23.6132 0
      vertex -8.75048 -23.6616 1.5
      vertex -8.75048 -23.6616 0
    endloop
  endfacet
  facet normal 0.310161 0.950684 -0
    outer loop
      vertex -8.27913 -23.9608 0
      vertex -8.3389 -23.9413 1.5
      vertex -8.27913 -23.9608 1.5
    endloop
  endfacet
  facet normal 0.310161 0.950684 0
    outer loop
      vertex -8.3389 -23.9413 1.5
      vertex -8.27913 -23.9608 0
      vertex -8.3389 -23.9413 0
    endloop
  endfacet
  facet normal 0.876384 0.481613 0
    outer loop
      vertex -8.86117 -23.5093 1.5
      vertex -8.89145 -23.4542 0
      vertex -8.89145 -23.4542 1.5
    endloop
  endfacet
  facet normal 0.876384 0.481613 0
    outer loop
      vertex -8.89145 -23.4542 0
      vertex -8.86117 -23.5093 1.5
      vertex -8.86117 -23.5093 0
    endloop
  endfacet
  facet normal 0.125679 0.992071 -0
    outer loop
      vertex -8.09415 -23.9961 0
      vertex -8.15651 -23.9882 1.5
      vertex -8.09415 -23.9961 1.5
    endloop
  endfacet
  facet normal 0.125679 0.992071 0
    outer loop
      vertex -8.15651 -23.9882 1.5
      vertex -8.09415 -23.9961 0
      vertex -8.15651 -23.9882 0
    endloop
  endfacet
  facet normal 0.248222 0.968703 -0
    outer loop
      vertex -8.21825 -23.9764 0
      vertex -8.27913 -23.9608 1.5
      vertex -8.21825 -23.9764 1.5
    endloop
  endfacet
  facet normal 0.248222 0.968703 0
    outer loop
      vertex -8.27913 -23.9608 1.5
      vertex -8.21825 -23.9764 0
      vertex -8.27913 -23.9608 0
    endloop
  endfacet
  facet normal 1 -0 0
    outer loop
      vertex -9 -23.0314 1.5
      vertex -9 23.0314 0
      vertex -9 23.0314 1.5
    endloop
  endfacet
  facet normal 1 0 0
    outer loop
      vertex -9 23.0314 0
      vertex -9 -23.0314 1.5
      vertex -9 -23.0314 0
    endloop
  endfacet
  facet normal 0.426287 0.904588 -0
    outer loop
      vertex -8.39734 -23.9182 0
      vertex -8.45421 -23.8914 1.5
      vertex -8.39734 -23.9182 1.5
    endloop
  endfacet
  facet normal 0.426287 0.904588 0
    outer loop
      vertex -8.45421 -23.8914 1.5
      vertex -8.39734 -23.9182 0
      vertex -8.45421 -23.8914 0
    endloop
  endfacet
  facet normal 0.982314 0.187244 0
    outer loop
      vertex -8.9764 -23.2183 1.5
      vertex -8.98818 -23.1565 0
      vertex -8.98818 -23.1565 1.5
    endloop
  endfacet
  facet normal 0.982314 0.187244 0
    outer loop
      vertex -8.98818 -23.1565 0
      vertex -8.9764 -23.2183 1.5
      vertex -8.9764 -23.2183 0
    endloop
  endfacet
  facet normal 0.0620613 0.998072 -0
    outer loop
      vertex -8.03143 -24 0
      vertex -8.09415 -23.9961 1.5
      vertex -8.03143 -24 1.5
    endloop
  endfacet
  facet normal 0.0620613 0.998072 0
    outer loop
      vertex -8.09415 -23.9961 1.5
      vertex -8.03143 -24 0
      vertex -8.09415 -23.9961 0
    endloop
  endfacet
  facet normal 0.480769 0.876847 -0
    outer loop
      vertex -8.45421 -23.8914 0
      vertex -8.50929 -23.8612 1.5
      vertex -8.45421 -23.8914 1.5
    endloop
  endfacet
  facet normal 0.480769 0.876847 0
    outer loop
      vertex -8.50929 -23.8612 1.5
      vertex -8.45421 -23.8914 0
      vertex -8.50929 -23.8612 0
    endloop
  endfacet
  facet normal 0.367601 0.929983 -0
    outer loop
      vertex -8.3389 -23.9413 0
      vertex -8.39734 -23.9182 1.5
      vertex -8.3389 -23.9413 1.5
    endloop
  endfacet
  facet normal 0.367601 0.929983 0
    outer loop
      vertex -8.39734 -23.9182 1.5
      vertex -8.3389 -23.9413 0
      vertex -8.39734 -23.9182 0
    endloop
  endfacet
  facet normal 0.968509 0.248977 0
    outer loop
      vertex -8.96077 -23.2791 1.5
      vertex -8.9764 -23.2183 0
      vertex -8.9764 -23.2183 1.5
    endloop
  endfacet
  facet normal 0.968509 0.248977 0
    outer loop
      vertex -8.9764 -23.2183 0
      vertex -8.96077 -23.2791 1.5
      vertex -8.96077 -23.2791 0
    endloop
  endfacet
  facet normal 0.844459 0.535619 0
    outer loop
      vertex -8.82749 -23.5624 1.5
      vertex -8.86117 -23.5093 0
      vertex -8.86117 -23.5093 1.5
    endloop
  endfacet
  facet normal 0.844459 0.535619 0
    outer loop
      vertex -8.86117 -23.5093 0
      vertex -8.82749 -23.5624 1.5
      vertex -8.82749 -23.5624 0
    endloop
  endfacet
  facet normal 0.992115 0.125328 0
    outer loop
      vertex -8.98818 -23.1565 1.5
      vertex -8.99605 -23.0942 0
      vertex -8.99605 -23.0942 1.5
    endloop
  endfacet
  facet normal 0.992115 0.125328 0
    outer loop
      vertex -8.99605 -23.0942 0
      vertex -8.98818 -23.1565 1.5
      vertex -8.98818 -23.1565 0
    endloop
  endfacet
  facet normal 0.951104 0.30887 0
    outer loop
      vertex -8.94135 -23.3389 1.5
      vertex -8.96077 -23.2791 0
      vertex -8.96077 -23.2791 1.5
    endloop
  endfacet
  facet normal 0.951104 0.30887 0
    outer loop
      vertex -8.96077 -23.2791 0
      vertex -8.94135 -23.3389 1.5
      vertex -8.94135 -23.3389 0
    endloop
  endfacet
  facet normal 0.808702 0.588219 0
    outer loop
      vertex -8.79054 -23.6132 1.5
      vertex -8.82749 -23.5624 0
      vertex -8.82749 -23.5624 1.5
    endloop
  endfacet
  facet normal 0.808702 0.588219 0
    outer loop
      vertex -8.82749 -23.5624 0
      vertex -8.79054 -23.6132 1.5
      vertex -8.79054 -23.6132 0
    endloop
  endfacet
  facet normal 0.998028 0.062774 0
    outer loop
      vertex -8.99605 -23.0942 1.5
      vertex -9 -23.0314 0
      vertex -9 -23.0314 1.5
    endloop
  endfacet
  facet normal 0.998028 0.062774 0
    outer loop
      vertex -9 -23.0314 0
      vertex -8.99605 -23.0942 1.5
      vertex -8.99605 -23.0942 0
    endloop
  endfacet
  facet normal 0.588361 0.808599 -0
    outer loop
      vertex -8.56236 -23.8275 0
      vertex -8.61321 -23.7905 1.5
      vertex -8.56236 -23.8275 1.5
    endloop
  endfacet
  facet normal 0.588361 0.808599 0
    outer loop
      vertex -8.61321 -23.7905 1.5
      vertex -8.56236 -23.8275 0
      vertex -8.61321 -23.7905 0
    endloop
  endfacet
  facet normal 0.729626 0.683846 0
    outer loop
      vertex -8.70746 -23.7075 1.5
      vertex -8.75048 -23.6616 0
      vertex -8.75048 -23.6616 1.5
    endloop
  endfacet
  facet normal 0.729626 0.683846 0
    outer loop
      vertex -8.75048 -23.6616 0
      vertex -8.70746 -23.7075 1.5
      vertex -8.70746 -23.7075 0
    endloop
  endfacet
  facet normal 0.536062 0.844179 -0
    outer loop
      vertex -8.50929 -23.8612 0
      vertex -8.56236 -23.8275 1.5
      vertex -8.50929 -23.8612 1.5
    endloop
  endfacet
  facet normal 0.536062 0.844179 0
    outer loop
      vertex -8.56236 -23.8275 1.5
      vertex -8.50929 -23.8612 0
      vertex -8.56236 -23.8275 0
    endloop
  endfacet
  facet normal 0.90492 0.425583 0
    outer loop
      vertex -8.89145 -23.4542 1.5
      vertex -8.91821 -23.3973 0
      vertex -8.91821 -23.3973 1.5
    endloop
  endfacet
  facet normal 0.90492 0.425583 0
    outer loop
      vertex -8.91821 -23.3973 0
      vertex -8.89145 -23.4542 1.5
      vertex -8.89145 -23.4542 0
    endloop
  endfacet
  facet normal 0.982314 -0.187244 0
    outer loop
      vertex -8.98818 23.1565 1.5
      vertex -8.9764 23.2183 0
      vertex -8.9764 23.2183 1.5
    endloop
  endfacet
  facet normal 0.982314 -0.187244 0
    outer loop
      vertex -8.9764 23.2183 0
      vertex -8.98818 23.1565 1.5
      vertex -8.98818 23.1565 0
    endloop
  endfacet
  facet normal 0.968509 -0.248977 0
    outer loop
      vertex -8.9764 23.2183 1.5
      vertex -8.96077 23.2791 0
      vertex -8.96077 23.2791 1.5
    endloop
  endfacet
  facet normal 0.968509 -0.248977 0
    outer loop
      vertex -8.96077 23.2791 0
      vertex -8.9764 23.2183 1.5
      vertex -8.9764 23.2183 0
    endloop
  endfacet
  facet normal 0.998028 -0.062774 0
    outer loop
      vertex -9 23.0314 1.5
      vertex -8.99605 23.0942 0
      vertex -8.99605 23.0942 1.5
    endloop
  endfacet
  facet normal 0.998028 -0.062774 0
    outer loop
      vertex -8.99605 23.0942 0
      vertex -9 23.0314 1.5
      vertex -9 23.0314 0
    endloop
  endfacet
  facet normal 0.808702 -0.588219 0
    outer loop
      vertex -8.82749 23.5624 1.5
      vertex -8.79054 23.6132 0
      vertex -8.79054 23.6132 1.5
    endloop
  endfacet
  facet normal 0.808702 -0.588219 0
    outer loop
      vertex -8.79054 23.6132 0
      vertex -8.82749 23.5624 1.5
      vertex -8.82749 23.5624 0
    endloop
  endfacet
  facet normal 0.0620613 -0.998072 0
    outer loop
      vertex -8.09415 23.9961 0
      vertex -8.03143 24 1.5
      vertex -8.09415 23.9961 1.5
    endloop
  endfacet
  facet normal 0.0620613 -0.998072 0
    outer loop
      vertex -8.03143 24 1.5
      vertex -8.09415 23.9961 0
      vertex -8.03143 24 0
    endloop
  endfacet
  facet normal 0.125679 -0.992071 0
    outer loop
      vertex -8.15651 23.9882 0
      vertex -8.09415 23.9961 1.5
      vertex -8.15651 23.9882 1.5
    endloop
  endfacet
  facet normal 0.125679 -0.992071 0
    outer loop
      vertex -8.09415 23.9961 1.5
      vertex -8.15651 23.9882 0
      vertex -8.09415 23.9961 0
    endloop
  endfacet
  facet normal 0.636812 -0.77102 0
    outer loop
      vertex -8.66164 23.7505 0
      vertex -8.61321 23.7905 1.5
      vertex -8.66164 23.7505 1.5
    endloop
  endfacet
  facet normal 0.636812 -0.77102 0
    outer loop
      vertex -8.61321 23.7905 1.5
      vertex -8.66164 23.7505 0
      vertex -8.61321 23.7905 0
    endloop
  endfacet
  facet normal 0.684312 -0.72919 0
    outer loop
      vertex -8.70746 23.7075 0
      vertex -8.66164 23.7505 1.5
      vertex -8.70746 23.7075 1.5
    endloop
  endfacet
  facet normal 0.684312 -0.72919 0
    outer loop
      vertex -8.66164 23.7505 1.5
      vertex -8.70746 23.7075 0
      vertex -8.66164 23.7505 0
    endloop
  endfacet
  facet normal 0.951104 -0.30887 0
    outer loop
      vertex -8.96077 23.2791 1.5
      vertex -8.94135 23.3389 0
      vertex -8.94135 23.3389 1.5
    endloop
  endfacet
  facet normal 0.951104 -0.30887 0
    outer loop
      vertex -8.94135 23.3389 0
      vertex -8.96077 23.2791 1.5
      vertex -8.96077 23.2791 0
    endloop
  endfacet
  facet normal 0.929679 -0.36837 0
    outer loop
      vertex -8.94135 23.3389 1.5
      vertex -8.91821 23.3973 0
      vertex -8.91821 23.3973 1.5
    endloop
  endfacet
  facet normal 0.929679 -0.36837 0
    outer loop
      vertex -8.91821 23.3973 0
      vertex -8.94135 23.3389 1.5
      vertex -8.94135 23.3389 0
    endloop
  endfacet
  facet normal 0.367601 -0.929983 0
    outer loop
      vertex -8.39734 23.9182 0
      vertex -8.3389 23.9413 1.5
      vertex -8.39734 23.9182 1.5
    endloop
  endfacet
  facet normal 0.367601 -0.929983 0
    outer loop
      vertex -8.3389 23.9413 1.5
      vertex -8.39734 23.9182 0
      vertex -8.3389 23.9413 0
    endloop
  endfacet
  facet normal 0.876384 -0.481613 0
    outer loop
      vertex -8.89145 23.4542 1.5
      vertex -8.86117 23.5093 0
      vertex -8.86117 23.5093 1.5
    endloop
  endfacet
  facet normal 0.876384 -0.481613 0
    outer loop
      vertex -8.86117 23.5093 0
      vertex -8.89145 23.4542 1.5
      vertex -8.89145 23.4542 0
    endloop
  endfacet
  facet normal 0.536062 -0.844179 0
    outer loop
      vertex -8.56236 23.8275 0
      vertex -8.50929 23.8612 1.5
      vertex -8.56236 23.8275 1.5
    endloop
  endfacet
  facet normal 0.536062 -0.844179 0
    outer loop
      vertex -8.50929 23.8612 1.5
      vertex -8.56236 23.8275 0
      vertex -8.50929 23.8612 0
    endloop
  endfacet
  facet normal 0.844459 -0.535619 0
    outer loop
      vertex -8.86117 23.5093 1.5
      vertex -8.82749 23.5624 0
      vertex -8.82749 23.5624 1.5
    endloop
  endfacet
  facet normal 0.844459 -0.535619 0
    outer loop
      vertex -8.82749 23.5624 0
      vertex -8.86117 23.5093 1.5
      vertex -8.86117 23.5093 0
    endloop
  endfacet
  facet normal 0.90492 -0.425583 0
    outer loop
      vertex -8.91821 23.3973 1.5
      vertex -8.89145 23.4542 0
      vertex -8.89145 23.4542 1.5
    endloop
  endfacet
  facet normal 0.90492 -0.425583 0
    outer loop
      vertex -8.89145 23.4542 0
      vertex -8.91821 23.3973 1.5
      vertex -8.91821 23.3973 0
    endloop
  endfacet
  facet normal 0.992115 -0.125328 0
    outer loop
      vertex -8.99605 23.0942 1.5
      vertex -8.98818 23.1565 0
      vertex -8.98818 23.1565 1.5
    endloop
  endfacet
  facet normal 0.992115 -0.125328 0
    outer loop
      vertex -8.98818 23.1565 0
      vertex -8.99605 23.0942 1.5
      vertex -8.99605 23.0942 0
    endloop
  endfacet
  facet normal 0.426287 -0.904588 0
    outer loop
      vertex -8.45421 23.8914 0
      vertex -8.39734 23.9182 1.5
      vertex -8.45421 23.8914 1.5
    endloop
  endfacet
  facet normal 0.426287 -0.904588 0
    outer loop
      vertex -8.39734 23.9182 1.5
      vertex -8.45421 23.8914 0
      vertex -8.39734 23.9182 0
    endloop
  endfacet
  facet normal 0.588361 -0.808599 0
    outer loop
      vertex -8.61321 23.7905 0
      vertex -8.56236 23.8275 1.5
      vertex -8.61321 23.7905 1.5
    endloop
  endfacet
  facet normal 0.588361 -0.808599 0
    outer loop
      vertex -8.56236 23.8275 1.5
      vertex -8.61321 23.7905 0
      vertex -8.56236 23.8275 0
    endloop
  endfacet
  facet normal 0.310161 -0.950684 0
    outer loop
      vertex -8.3389 23.9413 0
      vertex -8.27913 23.9608 1.5
      vertex -8.3389 23.9413 1.5
    endloop
  endfacet
  facet normal 0.310161 -0.950684 0
    outer loop
      vertex -8.27913 23.9608 1.5
      vertex -8.3389 23.9413 0
      vertex -8.27913 23.9608 0
    endloop
  endfacet
  facet normal 0.480769 -0.876847 0
    outer loop
      vertex -8.50929 23.8612 0
      vertex -8.45421 23.8914 1.5
      vertex -8.50929 23.8612 1.5
    endloop
  endfacet
  facet normal 0.480769 -0.876847 0
    outer loop
      vertex -8.45421 23.8914 1.5
      vertex -8.50929 23.8612 0
      vertex -8.45421 23.8914 0
    endloop
  endfacet
  facet normal 0.729626 -0.683846 0
    outer loop
      vertex -8.75048 23.6616 1.5
      vertex -8.70746 23.7075 0
      vertex -8.70746 23.7075 1.5
    endloop
  endfacet
  facet normal 0.729626 -0.683846 0
    outer loop
      vertex -8.70746 23.7075 0
      vertex -8.75048 23.6616 1.5
      vertex -8.75048 23.6616 0
    endloop
  endfacet
  facet normal 0.770357 -0.637613 0
    outer loop
      vertex -8.79054 23.6132 1.5
      vertex -8.75048 23.6616 0
      vertex -8.75048 23.6616 1.5
    endloop
  endfacet
  facet normal 0.770357 -0.637613 0
    outer loop
      vertex -8.75048 23.6616 0
      vertex -8.79054 23.6132 1.5
      vertex -8.79054 23.6132 0
    endloop
  endfacet
  facet normal 0.248222 -0.968703 0
    outer loop
      vertex -8.27913 23.9608 0
      vertex -8.21825 23.9764 1.5
      vertex -8.27913 23.9608 1.5
    endloop
  endfacet
  facet normal 0.248222 -0.968703 0
    outer loop
      vertex -8.21825 23.9764 1.5
      vertex -8.27913 23.9608 0
      vertex -8.21825 23.9764 0
    endloop
  endfacet
  facet normal 0.187726 -0.982221 0
    outer loop
      vertex -8.21825 23.9764 0
      vertex -8.15651 23.9882 1.5
      vertex -8.21825 23.9764 1.5
    endloop
  endfacet
  facet normal 0.187726 -0.982221 0
    outer loop
      vertex -8.15651 23.9882 1.5
      vertex -8.21825 23.9764 0
      vertex -8.15651 23.9882 0
    endloop
  endfacet
endsolid OpenSCAD_Model
