solid OpenSCAD_Model
  facet normal 0.992056 0.125798 0
    outer loop
      vertex 18.4961 24.0942 1
      vertex 18.4882 24.1565 0
      vertex 18.4882 24.1565 1
    endloop
  endfacet
  facet normal 0.992056 0.125798 0
    outer loop
      vertex 18.4882 24.1565 0
      vertex 18.4961 24.0942 1
      vertex 18.4961 24.0942 0
    endloop
  endfacet
  facet normal 0.998077 0.0619825 0
    outer loop
      vertex 18.5 24.0314 1
      vertex 18.4961 24.0942 0
      vertex 18.4961 24.0942 1
    endloop
  endfacet
  facet normal 0.998077 0.0619825 0
    outer loop
      vertex 18.4961 24.0942 0
      vertex 18.5 24.0314 1
      vertex 18.5 24.0314 0
    endloop
  endfacet
  facet normal 0.982255 0.18755 0
    outer loop
      vertex 18.4882 24.1565 1
      vertex 18.4764 24.2183 0
      vertex 18.4764 24.2183 1
    endloop
  endfacet
  facet normal 0.982255 0.18755 0
    outer loop
      vertex 18.4764 24.2183 0
      vertex 18.4882 24.1565 1
      vertex 18.4882 24.1565 0
    endloop
  endfacet
  facet normal 0.968625 0.248529 0
    outer loop
      vertex 18.4764 24.2183 1
      vertex 18.4608 24.2791 0
      vertex 18.4608 24.2791 1
    endloop
  endfacet
  facet normal 0.968625 0.248529 0
    outer loop
      vertex 18.4608 24.2791 0
      vertex 18.4764 24.2183 1
      vertex 18.4764 24.2183 0
    endloop
  endfacet
  facet normal 0.808323 0.588739 0
    outer loop
      vertex 18.3275 24.5624 1
      vertex 18.2905 24.6132 0
      vertex 18.2905 24.6132 1
    endloop
  endfacet
  facet normal 0.808323 0.588739 0
    outer loop
      vertex 18.2905 24.6132 0
      vertex 18.3275 24.5624 1
      vertex 18.3275 24.5624 0
    endloop
  endfacet
  facet normal 0.0619825 0.998077 -0
    outer loop
      vertex 17.5942 24.9961 0
      vertex 17.5314 25 1
      vertex 17.5942 24.9961 1
    endloop
  endfacet
  facet normal 0.0619825 0.998077 0
    outer loop
      vertex 17.5314 25 1
      vertex 17.5942 24.9961 0
      vertex 17.5314 25 0
    endloop
  endfacet
  facet normal 0.929897 0.367819 0
    outer loop
      vertex 18.4413 24.3389 1
      vertex 18.4182 24.3973 0
      vertex 18.4182 24.3973 1
    endloop
  endfacet
  facet normal 0.929897 0.367819 0
    outer loop
      vertex 18.4182 24.3973 0
      vertex 18.4413 24.3389 1
      vertex 18.4413 24.3389 0
    endloop
  endfacet
  facet normal 0.125798 0.992056 -0
    outer loop
      vertex 17.6565 24.9882 0
      vertex 17.5942 24.9961 1
      vertex 17.6565 24.9882 1
    endloop
  endfacet
  facet normal 0.125798 0.992056 0
    outer loop
      vertex 17.5942 24.9961 1
      vertex 17.6565 24.9882 0
      vertex 17.5942 24.9961 0
    endloop
  endfacet
  facet normal 1 -0 0
    outer loop
      vertex 18.5 -24.0314 1
      vertex 18.5 24.0314 0
      vertex 18.5 24.0314 1
    endloop
  endfacet
  facet normal 1 0 0
    outer loop
      vertex 18.5 24.0314 0
      vertex 18.5 -24.0314 1
      vertex 18.5 -24.0314 0
    endloop
  endfacet
  facet normal 0.770826 0.637046 0
    outer loop
      vertex 18.2905 24.6132 1
      vertex 18.2505 24.6616 0
      vertex 18.2505 24.6616 1
    endloop
  endfacet
  facet normal 0.770826 0.637046 0
    outer loop
      vertex 18.2505 24.6616 0
      vertex 18.2905 24.6132 1
      vertex 18.2905 24.6132 0
    endloop
  endfacet
  facet normal 0.729785 0.683677 0
    outer loop
      vertex 18.2505 24.6616 1
      vertex 18.2075 24.7075 0
      vertex 18.2075 24.7075 1
    endloop
  endfacet
  facet normal 0.729785 0.683677 0
    outer loop
      vertex 18.2075 24.7075 0
      vertex 18.2505 24.6616 1
      vertex 18.2505 24.6616 0
    endloop
  endfacet
  facet normal 0.535846 0.844316 -0
    outer loop
      vertex 18.0624 24.8275 0
      vertex 18.0093 24.8612 1
      vertex 18.0624 24.8275 1
    endloop
  endfacet
  facet normal 0.535846 0.844316 0
    outer loop
      vertex 18.0093 24.8612 1
      vertex 18.0624 24.8275 0
      vertex 18.0093 24.8612 0
    endloop
  endfacet
  facet normal 0.637046 0.770826 -0
    outer loop
      vertex 18.1616 24.7505 0
      vertex 18.1132 24.7905 1
      vertex 18.1616 24.7505 1
    endloop
  endfacet
  facet normal 0.637046 0.770826 0
    outer loop
      vertex 18.1132 24.7905 1
      vertex 18.1616 24.7505 0
      vertex 18.1132 24.7905 0
    endloop
  endfacet
  facet normal 0.248529 0.968625 -0
    outer loop
      vertex 17.7791 24.9608 0
      vertex 17.7183 24.9764 1
      vertex 17.7791 24.9608 1
    endloop
  endfacet
  facet normal 0.248529 0.968625 0
    outer loop
      vertex 17.7183 24.9764 1
      vertex 17.7791 24.9608 0
      vertex 17.7183 24.9764 0
    endloop
  endfacet
  facet normal 0.310021 0.95073 -0
    outer loop
      vertex 17.8389 24.9413 0
      vertex 17.7791 24.9608 1
      vertex 17.8389 24.9413 1
    endloop
  endfacet
  facet normal 0.310021 0.95073 0
    outer loop
      vertex 17.7791 24.9608 1
      vertex 17.8389 24.9413 0
      vertex 17.7791 24.9608 0
    endloop
  endfacet
  facet normal 0.683677 0.729785 -0
    outer loop
      vertex 18.2075 24.7075 0
      vertex 18.1616 24.7505 1
      vertex 18.2075 24.7075 1
    endloop
  endfacet
  facet normal 0.683677 0.729785 0
    outer loop
      vertex 18.1616 24.7505 1
      vertex 18.2075 24.7075 0
      vertex 18.1616 24.7505 0
    endloop
  endfacet
  facet normal 0.95073 0.310021 0
    outer loop
      vertex 18.4608 24.2791 1
      vertex 18.4413 24.3389 0
      vertex 18.4413 24.3389 1
    endloop
  endfacet
  facet normal 0.95073 0.310021 0
    outer loop
      vertex 18.4413 24.3389 0
      vertex 18.4608 24.2791 1
      vertex 18.4608 24.2791 0
    endloop
  endfacet
  facet normal 0.367819 0.929897 -0
    outer loop
      vertex 17.8973 24.9182 0
      vertex 17.8389 24.9413 1
      vertex 17.8973 24.9182 1
    endloop
  endfacet
  facet normal 0.367819 0.929897 0
    outer loop
      vertex 17.8389 24.9413 1
      vertex 17.8973 24.9182 0
      vertex 17.8389 24.9413 0
    endloop
  endfacet
  facet normal 0.876921 0.480635 0
    outer loop
      vertex 18.3914 24.4542 1
      vertex 18.3612 24.5093 0
      vertex 18.3612 24.5093 1
    endloop
  endfacet
  facet normal 0.876921 0.480635 0
    outer loop
      vertex 18.3612 24.5093 0
      vertex 18.3914 24.4542 1
      vertex 18.3914 24.4542 0
    endloop
  endfacet
  facet normal 0.844316 0.535846 0
    outer loop
      vertex 18.3612 24.5093 1
      vertex 18.3275 24.5624 0
      vertex 18.3275 24.5624 1
    endloop
  endfacet
  facet normal 0.844316 0.535846 0
    outer loop
      vertex 18.3275 24.5624 0
      vertex 18.3612 24.5093 1
      vertex 18.3612 24.5093 0
    endloop
  endfacet
  facet normal 0.904675 0.426103 0
    outer loop
      vertex 18.4182 24.3973 1
      vertex 18.3914 24.4542 0
      vertex 18.3914 24.4542 1
    endloop
  endfacet
  facet normal 0.904675 0.426103 0
    outer loop
      vertex 18.3914 24.4542 0
      vertex 18.4182 24.3973 1
      vertex 18.4182 24.3973 0
    endloop
  endfacet
  facet normal 0.426103 0.904675 -0
    outer loop
      vertex 17.9542 24.8914 0
      vertex 17.8973 24.9182 1
      vertex 17.9542 24.8914 1
    endloop
  endfacet
  facet normal 0.426103 0.904675 0
    outer loop
      vertex 17.8973 24.9182 1
      vertex 17.9542 24.8914 0
      vertex 17.8973 24.9182 0
    endloop
  endfacet
  facet normal 0.588739 0.808323 -0
    outer loop
      vertex 18.1132 24.7905 0
      vertex 18.0624 24.8275 1
      vertex 18.1132 24.7905 1
    endloop
  endfacet
  facet normal 0.588739 0.808323 0
    outer loop
      vertex 18.0624 24.8275 1
      vertex 18.1132 24.7905 0
      vertex 18.0624 24.8275 0
    endloop
  endfacet
  facet normal 0.18755 0.982255 -0
    outer loop
      vertex 17.7183 24.9764 0
      vertex 17.6565 24.9882 1
      vertex 17.7183 24.9764 1
    endloop
  endfacet
  facet normal 0.18755 0.982255 0
    outer loop
      vertex 17.6565 24.9882 1
      vertex 17.7183 24.9764 0
      vertex 17.6565 24.9882 0
    endloop
  endfacet
  facet normal 0.480635 0.876921 -0
    outer loop
      vertex 18.0093 24.8612 0
      vertex 17.9542 24.8914 1
      vertex 18.0093 24.8612 1
    endloop
  endfacet
  facet normal 0.480635 0.876921 0
    outer loop
      vertex 17.9542 24.8914 1
      vertex 18.0093 24.8612 0
      vertex 17.9542 24.8914 0
    endloop
  endfacet
  facet normal 0 1 -0
    outer loop
      vertex 17.5314 25 0
      vertex -17.5314 25 1
      vertex 17.5314 25 1
    endloop
  endfacet
  facet normal 0 1 0
    outer loop
      vertex -17.5314 25 1
      vertex 17.5314 25 0
      vertex -17.5314 25 0
    endloop
  endfacet
  facet normal -0.0619825 0.998077 0
    outer loop
      vertex -17.5314 25 0
      vertex -17.5942 24.9961 1
      vertex -17.5314 25 1
    endloop
  endfacet
  facet normal -0.0619825 0.998077 0
    outer loop
      vertex -17.5942 24.9961 1
      vertex -17.5314 25 0
      vertex -17.5942 24.9961 0
    endloop
  endfacet
  facet normal -0.125798 0.992056 0
    outer loop
      vertex -17.5942 24.9961 0
      vertex -17.6565 24.9882 1
      vertex -17.5942 24.9961 1
    endloop
  endfacet
  facet normal -0.125798 0.992056 0
    outer loop
      vertex -17.6565 24.9882 1
      vertex -17.5942 24.9961 0
      vertex -17.6565 24.9882 0
    endloop
  endfacet
  facet normal -0.480635 0.876921 0
    outer loop
      vertex -17.9542 24.8914 0
      vertex -18.0093 24.8612 1
      vertex -17.9542 24.8914 1
    endloop
  endfacet
  facet normal -0.480635 0.876921 0
    outer loop
      vertex -18.0093 24.8612 1
      vertex -17.9542 24.8914 0
      vertex -18.0093 24.8612 0
    endloop
  endfacet
  facet normal -0.683677 0.729785 0
    outer loop
      vertex -18.1616 24.7505 0
      vertex -18.2075 24.7075 1
      vertex -18.1616 24.7505 1
    endloop
  endfacet
  facet normal -0.683677 0.729785 0
    outer loop
      vertex -18.2075 24.7075 1
      vertex -18.1616 24.7505 0
      vertex -18.2075 24.7075 0
    endloop
  endfacet
  facet normal -0.367819 0.929897 0
    outer loop
      vertex -17.8389 24.9413 0
      vertex -17.8973 24.9182 1
      vertex -17.8389 24.9413 1
    endloop
  endfacet
  facet normal -0.367819 0.929897 0
    outer loop
      vertex -17.8973 24.9182 1
      vertex -17.8389 24.9413 0
      vertex -17.8973 24.9182 0
    endloop
  endfacet
  facet normal -0.904675 0.426103 0
    outer loop
      vertex -18.4182 24.3973 0
      vertex -18.3914 24.4542 1
      vertex -18.3914 24.4542 0
    endloop
  endfacet
  facet normal -0.904675 0.426103 0
    outer loop
      vertex -18.3914 24.4542 1
      vertex -18.4182 24.3973 0
      vertex -18.4182 24.3973 1
    endloop
  endfacet
  facet normal -0.992056 0.125798 0
    outer loop
      vertex -18.4961 24.0942 0
      vertex -18.4882 24.1565 1
      vertex -18.4882 24.1565 0
    endloop
  endfacet
  facet normal -0.992056 0.125798 0
    outer loop
      vertex -18.4882 24.1565 1
      vertex -18.4961 24.0942 0
      vertex -18.4961 24.0942 1
    endloop
  endfacet
  facet normal -0.982255 0.18755 0
    outer loop
      vertex -18.4882 24.1565 0
      vertex -18.4764 24.2183 1
      vertex -18.4764 24.2183 0
    endloop
  endfacet
  facet normal -0.982255 0.18755 0
    outer loop
      vertex -18.4764 24.2183 1
      vertex -18.4882 24.1565 0
      vertex -18.4882 24.1565 1
    endloop
  endfacet
  facet normal -0.876921 0.480635 0
    outer loop
      vertex -18.3914 24.4542 0
      vertex -18.3612 24.5093 1
      vertex -18.3612 24.5093 0
    endloop
  endfacet
  facet normal -0.876921 0.480635 0
    outer loop
      vertex -18.3612 24.5093 1
      vertex -18.3914 24.4542 0
      vertex -18.3914 24.4542 1
    endloop
  endfacet
  facet normal -0.18755 0.982255 0
    outer loop
      vertex -17.6565 24.9882 0
      vertex -17.7183 24.9764 1
      vertex -17.6565 24.9882 1
    endloop
  endfacet
  facet normal -0.18755 0.982255 0
    outer loop
      vertex -17.7183 24.9764 1
      vertex -17.6565 24.9882 0
      vertex -17.7183 24.9764 0
    endloop
  endfacet
  facet normal -0.998077 0.0619825 0
    outer loop
      vertex -18.5 24.0314 0
      vertex -18.4961 24.0942 1
      vertex -18.4961 24.0942 0
    endloop
  endfacet
  facet normal -0.998077 0.0619825 0
    outer loop
      vertex -18.4961 24.0942 1
      vertex -18.5 24.0314 0
      vertex -18.5 24.0314 1
    endloop
  endfacet
  facet normal -0.588739 0.808323 0
    outer loop
      vertex -18.0624 24.8275 0
      vertex -18.1132 24.7905 1
      vertex -18.0624 24.8275 1
    endloop
  endfacet
  facet normal -0.588739 0.808323 0
    outer loop
      vertex -18.1132 24.7905 1
      vertex -18.0624 24.8275 0
      vertex -18.1132 24.7905 0
    endloop
  endfacet
  facet normal -1 0 0
    outer loop
      vertex -18.5 -24.0314 0
      vertex -18.5 24.0314 1
      vertex -18.5 24.0314 0
    endloop
  endfacet
  facet normal -1 -0 0
    outer loop
      vertex -18.5 24.0314 1
      vertex -18.5 -24.0314 0
      vertex -18.5 -24.0314 1
    endloop
  endfacet
  facet normal -0.637046 0.770826 0
    outer loop
      vertex -18.1132 24.7905 0
      vertex -18.1616 24.7505 1
      vertex -18.1132 24.7905 1
    endloop
  endfacet
  facet normal -0.637046 0.770826 0
    outer loop
      vertex -18.1616 24.7505 1
      vertex -18.1132 24.7905 0
      vertex -18.1616 24.7505 0
    endloop
  endfacet
  facet normal -0.535846 0.844316 0
    outer loop
      vertex -18.0093 24.8612 0
      vertex -18.0624 24.8275 1
      vertex -18.0093 24.8612 1
    endloop
  endfacet
  facet normal -0.535846 0.844316 0
    outer loop
      vertex -18.0624 24.8275 1
      vertex -18.0093 24.8612 0
      vertex -18.0624 24.8275 0
    endloop
  endfacet
  facet normal -0.95073 0.310021 0
    outer loop
      vertex -18.4608 24.2791 0
      vertex -18.4413 24.3389 1
      vertex -18.4413 24.3389 0
    endloop
  endfacet
  facet normal -0.95073 0.310021 0
    outer loop
      vertex -18.4413 24.3389 1
      vertex -18.4608 24.2791 0
      vertex -18.4608 24.2791 1
    endloop
  endfacet
  facet normal -0.770826 0.637046 0
    outer loop
      vertex -18.2905 24.6132 0
      vertex -18.2505 24.6616 1
      vertex -18.2505 24.6616 0
    endloop
  endfacet
  facet normal -0.770826 0.637046 0
    outer loop
      vertex -18.2505 24.6616 1
      vertex -18.2905 24.6132 0
      vertex -18.2905 24.6132 1
    endloop
  endfacet
  facet normal -0.426103 0.904675 0
    outer loop
      vertex -17.8973 24.9182 0
      vertex -17.9542 24.8914 1
      vertex -17.8973 24.9182 1
    endloop
  endfacet
  facet normal -0.426103 0.904675 0
    outer loop
      vertex -17.9542 24.8914 1
      vertex -17.8973 24.9182 0
      vertex -17.9542 24.8914 0
    endloop
  endfacet
  facet normal -0.844316 0.535846 0
    outer loop
      vertex -18.3612 24.5093 0
      vertex -18.3275 24.5624 1
      vertex -18.3275 24.5624 0
    endloop
  endfacet
  facet normal -0.844316 0.535846 0
    outer loop
      vertex -18.3275 24.5624 1
      vertex -18.3612 24.5093 0
      vertex -18.3612 24.5093 1
    endloop
  endfacet
  facet normal -0.968625 0.248529 0
    outer loop
      vertex -18.4764 24.2183 0
      vertex -18.4608 24.2791 1
      vertex -18.4608 24.2791 0
    endloop
  endfacet
  facet normal -0.968625 0.248529 0
    outer loop
      vertex -18.4608 24.2791 1
      vertex -18.4764 24.2183 0
      vertex -18.4764 24.2183 1
    endloop
  endfacet
  facet normal -0.248529 0.968625 0
    outer loop
      vertex -17.7183 24.9764 0
      vertex -17.7791 24.9608 1
      vertex -17.7183 24.9764 1
    endloop
  endfacet
  facet normal -0.248529 0.968625 0
    outer loop
      vertex -17.7791 24.9608 1
      vertex -17.7183 24.9764 0
      vertex -17.7791 24.9608 0
    endloop
  endfacet
  facet normal -0.310021 0.95073 0
    outer loop
      vertex -17.7791 24.9608 0
      vertex -17.8389 24.9413 1
      vertex -17.7791 24.9608 1
    endloop
  endfacet
  facet normal -0.310021 0.95073 0
    outer loop
      vertex -17.8389 24.9413 1
      vertex -17.7791 24.9608 0
      vertex -17.8389 24.9413 0
    endloop
  endfacet
  facet normal -0.808323 0.588739 0
    outer loop
      vertex -18.3275 24.5624 0
      vertex -18.2905 24.6132 1
      vertex -18.2905 24.6132 0
    endloop
  endfacet
  facet normal -0.808323 0.588739 0
    outer loop
      vertex -18.2905 24.6132 1
      vertex -18.3275 24.5624 0
      vertex -18.3275 24.5624 1
    endloop
  endfacet
  facet normal -0.729785 0.683677 0
    outer loop
      vertex -18.2505 24.6616 0
      vertex -18.2075 24.7075 1
      vertex -18.2075 24.7075 0
    endloop
  endfacet
  facet normal -0.729785 0.683677 0
    outer loop
      vertex -18.2075 24.7075 1
      vertex -18.2505 24.6616 0
      vertex -18.2505 24.6616 1
    endloop
  endfacet
  facet normal -0.929897 0.367819 0
    outer loop
      vertex -18.4413 24.3389 0
      vertex -18.4182 24.3973 1
      vertex -18.4182 24.3973 0
    endloop
  endfacet
  facet normal -0.929897 0.367819 0
    outer loop
      vertex -18.4182 24.3973 1
      vertex -18.4413 24.3389 0
      vertex -18.4413 24.3389 1
    endloop
  endfacet
  facet normal -0.998077 -0.0619825 0
    outer loop
      vertex -18.4961 -24.0942 0
      vertex -18.5 -24.0314 1
      vertex -18.5 -24.0314 0
    endloop
  endfacet
  facet normal -0.998077 -0.0619825 0
    outer loop
      vertex -18.5 -24.0314 1
      vertex -18.4961 -24.0942 0
      vertex -18.4961 -24.0942 1
    endloop
  endfacet
  facet normal -0.808323 -0.588739 0
    outer loop
      vertex -18.2905 -24.6132 0
      vertex -18.3275 -24.5624 1
      vertex -18.3275 -24.5624 0
    endloop
  endfacet
  facet normal -0.808323 -0.588739 0
    outer loop
      vertex -18.3275 -24.5624 1
      vertex -18.2905 -24.6132 0
      vertex -18.2905 -24.6132 1
    endloop
  endfacet
  facet normal -0.95073 -0.310021 0
    outer loop
      vertex -18.4413 -24.3389 0
      vertex -18.4608 -24.2791 1
      vertex -18.4608 -24.2791 0
    endloop
  endfacet
  facet normal -0.95073 -0.310021 0
    outer loop
      vertex -18.4608 -24.2791 1
      vertex -18.4413 -24.3389 0
      vertex -18.4413 -24.3389 1
    endloop
  endfacet
  facet normal -0.535846 -0.844316 0
    outer loop
      vertex -18.0624 -24.8275 0
      vertex -18.0093 -24.8612 1
      vertex -18.0624 -24.8275 1
    endloop
  endfacet
  facet normal -0.535846 -0.844316 -0
    outer loop
      vertex -18.0093 -24.8612 1
      vertex -18.0624 -24.8275 0
      vertex -18.0093 -24.8612 0
    endloop
  endfacet
  facet normal -0.426103 -0.904675 0
    outer loop
      vertex -17.9542 -24.8914 0
      vertex -17.8973 -24.9182 1
      vertex -17.9542 -24.8914 1
    endloop
  endfacet
  facet normal -0.426103 -0.904675 -0
    outer loop
      vertex -17.8973 -24.9182 1
      vertex -17.9542 -24.8914 0
      vertex -17.8973 -24.9182 0
    endloop
  endfacet
  facet normal -0.770826 -0.637046 0
    outer loop
      vertex -18.2505 -24.6616 0
      vertex -18.2905 -24.6132 1
      vertex -18.2905 -24.6132 0
    endloop
  endfacet
  facet normal -0.770826 -0.637046 0
    outer loop
      vertex -18.2905 -24.6132 1
      vertex -18.2505 -24.6616 0
      vertex -18.2505 -24.6616 1
    endloop
  endfacet
  facet normal -0.904675 -0.426103 0
    outer loop
      vertex -18.3914 -24.4542 0
      vertex -18.4182 -24.3973 1
      vertex -18.4182 -24.3973 0
    endloop
  endfacet
  facet normal -0.904675 -0.426103 0
    outer loop
      vertex -18.4182 -24.3973 1
      vertex -18.3914 -24.4542 0
      vertex -18.3914 -24.4542 1
    endloop
  endfacet
  facet normal -0.929897 -0.367819 0
    outer loop
      vertex -18.4182 -24.3973 0
      vertex -18.4413 -24.3389 1
      vertex -18.4413 -24.3389 0
    endloop
  endfacet
  facet normal -0.929897 -0.367819 0
    outer loop
      vertex -18.4413 -24.3389 1
      vertex -18.4182 -24.3973 0
      vertex -18.4182 -24.3973 1
    endloop
  endfacet
  facet normal -0.844316 -0.535846 0
    outer loop
      vertex -18.3275 -24.5624 0
      vertex -18.3612 -24.5093 1
      vertex -18.3612 -24.5093 0
    endloop
  endfacet
  facet normal -0.844316 -0.535846 0
    outer loop
      vertex -18.3612 -24.5093 1
      vertex -18.3275 -24.5624 0
      vertex -18.3275 -24.5624 1
    endloop
  endfacet
  facet normal 0 -1 0
    outer loop
      vertex -17.5314 -25 0
      vertex 17.5314 -25 1
      vertex -17.5314 -25 1
    endloop
  endfacet
  facet normal 0 -1 -0
    outer loop
      vertex 17.5314 -25 1
      vertex -17.5314 -25 0
      vertex 17.5314 -25 0
    endloop
  endfacet
  facet normal -0.248529 -0.968625 0
    outer loop
      vertex -17.7791 -24.9608 0
      vertex -17.7183 -24.9764 1
      vertex -17.7791 -24.9608 1
    endloop
  endfacet
  facet normal -0.248529 -0.968625 -0
    outer loop
      vertex -17.7183 -24.9764 1
      vertex -17.7791 -24.9608 0
      vertex -17.7183 -24.9764 0
    endloop
  endfacet
  facet normal -0.729785 -0.683677 0
    outer loop
      vertex -18.2075 -24.7075 0
      vertex -18.2505 -24.6616 1
      vertex -18.2505 -24.6616 0
    endloop
  endfacet
  facet normal -0.729785 -0.683677 0
    outer loop
      vertex -18.2505 -24.6616 1
      vertex -18.2075 -24.7075 0
      vertex -18.2075 -24.7075 1
    endloop
  endfacet
  facet normal -0.982255 -0.18755 0
    outer loop
      vertex -18.4764 -24.2183 0
      vertex -18.4882 -24.1565 1
      vertex -18.4882 -24.1565 0
    endloop
  endfacet
  facet normal -0.982255 -0.18755 0
    outer loop
      vertex -18.4882 -24.1565 1
      vertex -18.4764 -24.2183 0
      vertex -18.4764 -24.2183 1
    endloop
  endfacet
  facet normal -0.683677 -0.729785 0
    outer loop
      vertex -18.2075 -24.7075 0
      vertex -18.1616 -24.7505 1
      vertex -18.2075 -24.7075 1
    endloop
  endfacet
  facet normal -0.683677 -0.729785 -0
    outer loop
      vertex -18.1616 -24.7505 1
      vertex -18.2075 -24.7075 0
      vertex -18.1616 -24.7505 0
    endloop
  endfacet
  facet normal -0.876921 -0.480635 0
    outer loop
      vertex -18.3612 -24.5093 0
      vertex -18.3914 -24.4542 1
      vertex -18.3914 -24.4542 0
    endloop
  endfacet
  facet normal -0.876921 -0.480635 0
    outer loop
      vertex -18.3914 -24.4542 1
      vertex -18.3612 -24.5093 0
      vertex -18.3612 -24.5093 1
    endloop
  endfacet
  facet normal -0.0619825 -0.998077 0
    outer loop
      vertex -17.5942 -24.9961 0
      vertex -17.5314 -25 1
      vertex -17.5942 -24.9961 1
    endloop
  endfacet
  facet normal -0.0619825 -0.998077 -0
    outer loop
      vertex -17.5314 -25 1
      vertex -17.5942 -24.9961 0
      vertex -17.5314 -25 0
    endloop
  endfacet
  facet normal -0.992056 -0.125798 0
    outer loop
      vertex -18.4882 -24.1565 0
      vertex -18.4961 -24.0942 1
      vertex -18.4961 -24.0942 0
    endloop
  endfacet
  facet normal -0.992056 -0.125798 0
    outer loop
      vertex -18.4961 -24.0942 1
      vertex -18.4882 -24.1565 0
      vertex -18.4882 -24.1565 1
    endloop
  endfacet
  facet normal -0.18755 -0.982255 0
    outer loop
      vertex -17.7183 -24.9764 0
      vertex -17.6565 -24.9882 1
      vertex -17.7183 -24.9764 1
    endloop
  endfacet
  facet normal -0.18755 -0.982255 -0
    outer loop
      vertex -17.6565 -24.9882 1
      vertex -17.7183 -24.9764 0
      vertex -17.6565 -24.9882 0
    endloop
  endfacet
  facet normal -0.968625 -0.248529 0
    outer loop
      vertex -18.4608 -24.2791 0
      vertex -18.4764 -24.2183 1
      vertex -18.4764 -24.2183 0
    endloop
  endfacet
  facet normal -0.968625 -0.248529 0
    outer loop
      vertex -18.4764 -24.2183 1
      vertex -18.4608 -24.2791 0
      vertex -18.4608 -24.2791 1
    endloop
  endfacet
  facet normal -0.637046 -0.770826 0
    outer loop
      vertex -18.1616 -24.7505 0
      vertex -18.1132 -24.7905 1
      vertex -18.1616 -24.7505 1
    endloop
  endfacet
  facet normal -0.637046 -0.770826 -0
    outer loop
      vertex -18.1132 -24.7905 1
      vertex -18.1616 -24.7505 0
      vertex -18.1132 -24.7905 0
    endloop
  endfacet
  facet normal -0.125798 -0.992056 0
    outer loop
      vertex -17.6565 -24.9882 0
      vertex -17.5942 -24.9961 1
      vertex -17.6565 -24.9882 1
    endloop
  endfacet
  facet normal -0.125798 -0.992056 -0
    outer loop
      vertex -17.5942 -24.9961 1
      vertex -17.6565 -24.9882 0
      vertex -17.5942 -24.9961 0
    endloop
  endfacet
  facet normal -0.480635 -0.876921 0
    outer loop
      vertex -18.0093 -24.8612 0
      vertex -17.9542 -24.8914 1
      vertex -18.0093 -24.8612 1
    endloop
  endfacet
  facet normal -0.480635 -0.876921 -0
    outer loop
      vertex -17.9542 -24.8914 1
      vertex -18.0093 -24.8612 0
      vertex -17.9542 -24.8914 0
    endloop
  endfacet
  facet normal -0.310021 -0.95073 0
    outer loop
      vertex -17.8389 -24.9413 0
      vertex -17.7791 -24.9608 1
      vertex -17.8389 -24.9413 1
    endloop
  endfacet
  facet normal -0.310021 -0.95073 -0
    outer loop
      vertex -17.7791 -24.9608 1
      vertex -17.8389 -24.9413 0
      vertex -17.7791 -24.9608 0
    endloop
  endfacet
  facet normal -0.588739 -0.808323 0
    outer loop
      vertex -18.1132 -24.7905 0
      vertex -18.0624 -24.8275 1
      vertex -18.1132 -24.7905 1
    endloop
  endfacet
  facet normal -0.588739 -0.808323 -0
    outer loop
      vertex -18.0624 -24.8275 1
      vertex -18.1132 -24.7905 0
      vertex -18.0624 -24.8275 0
    endloop
  endfacet
  facet normal -0.367819 -0.929897 0
    outer loop
      vertex -17.8973 -24.9182 0
      vertex -17.8389 -24.9413 1
      vertex -17.8973 -24.9182 1
    endloop
  endfacet
  facet normal -0.367819 -0.929897 -0
    outer loop
      vertex -17.8389 -24.9413 1
      vertex -17.8973 -24.9182 0
      vertex -17.8389 -24.9413 0
    endloop
  endfacet
  facet normal 0.929897 -0.367819 0
    outer loop
      vertex 18.4182 -24.3973 1
      vertex 18.4413 -24.3389 0
      vertex 18.4413 -24.3389 1
    endloop
  endfacet
  facet normal 0.929897 -0.367819 0
    outer loop
      vertex 18.4413 -24.3389 0
      vertex 18.4182 -24.3973 1
      vertex 18.4182 -24.3973 0
    endloop
  endfacet
  facet normal 0.683677 -0.729785 0
    outer loop
      vertex 18.1616 -24.7505 0
      vertex 18.2075 -24.7075 1
      vertex 18.1616 -24.7505 1
    endloop
  endfacet
  facet normal 0.683677 -0.729785 0
    outer loop
      vertex 18.2075 -24.7075 1
      vertex 18.1616 -24.7505 0
      vertex 18.2075 -24.7075 0
    endloop
  endfacet
  facet normal 0.18755 -0.982255 0
    outer loop
      vertex 17.6565 -24.9882 0
      vertex 17.7183 -24.9764 1
      vertex 17.6565 -24.9882 1
    endloop
  endfacet
  facet normal 0.18755 -0.982255 0
    outer loop
      vertex 17.7183 -24.9764 1
      vertex 17.6565 -24.9882 0
      vertex 17.7183 -24.9764 0
    endloop
  endfacet
  facet normal 0.637046 -0.770826 0
    outer loop
      vertex 18.1132 -24.7905 0
      vertex 18.1616 -24.7505 1
      vertex 18.1132 -24.7905 1
    endloop
  endfacet
  facet normal 0.637046 -0.770826 0
    outer loop
      vertex 18.1616 -24.7505 1
      vertex 18.1132 -24.7905 0
      vertex 18.1616 -24.7505 0
    endloop
  endfacet
  facet normal 0.770826 -0.637046 0
    outer loop
      vertex 18.2505 -24.6616 1
      vertex 18.2905 -24.6132 0
      vertex 18.2905 -24.6132 1
    endloop
  endfacet
  facet normal 0.770826 -0.637046 0
    outer loop
      vertex 18.2905 -24.6132 0
      vertex 18.2505 -24.6616 1
      vertex 18.2505 -24.6616 0
    endloop
  endfacet
  facet normal 0.310021 -0.95073 0
    outer loop
      vertex 17.7791 -24.9608 0
      vertex 17.8389 -24.9413 1
      vertex 17.7791 -24.9608 1
    endloop
  endfacet
  facet normal 0.310021 -0.95073 0
    outer loop
      vertex 17.8389 -24.9413 1
      vertex 17.7791 -24.9608 0
      vertex 17.8389 -24.9413 0
    endloop
  endfacet
  facet normal 0.876921 -0.480635 0
    outer loop
      vertex 18.3612 -24.5093 1
      vertex 18.3914 -24.4542 0
      vertex 18.3914 -24.4542 1
    endloop
  endfacet
  facet normal 0.876921 -0.480635 0
    outer loop
      vertex 18.3914 -24.4542 0
      vertex 18.3612 -24.5093 1
      vertex 18.3612 -24.5093 0
    endloop
  endfacet
  facet normal 0.125798 -0.992056 0
    outer loop
      vertex 17.5942 -24.9961 0
      vertex 17.6565 -24.9882 1
      vertex 17.5942 -24.9961 1
    endloop
  endfacet
  facet normal 0.125798 -0.992056 0
    outer loop
      vertex 17.6565 -24.9882 1
      vertex 17.5942 -24.9961 0
      vertex 17.6565 -24.9882 0
    endloop
  endfacet
  facet normal 0.248529 -0.968625 0
    outer loop
      vertex 17.7183 -24.9764 0
      vertex 17.7791 -24.9608 1
      vertex 17.7183 -24.9764 1
    endloop
  endfacet
  facet normal 0.248529 -0.968625 0
    outer loop
      vertex 17.7791 -24.9608 1
      vertex 17.7183 -24.9764 0
      vertex 17.7791 -24.9608 0
    endloop
  endfacet
  facet normal 0.426103 -0.904675 0
    outer loop
      vertex 17.8973 -24.9182 0
      vertex 17.9542 -24.8914 1
      vertex 17.8973 -24.9182 1
    endloop
  endfacet
  facet normal 0.426103 -0.904675 0
    outer loop
      vertex 17.9542 -24.8914 1
      vertex 17.8973 -24.9182 0
      vertex 17.9542 -24.8914 0
    endloop
  endfacet
  facet normal 0.982255 -0.18755 0
    outer loop
      vertex 18.4764 -24.2183 1
      vertex 18.4882 -24.1565 0
      vertex 18.4882 -24.1565 1
    endloop
  endfacet
  facet normal 0.982255 -0.18755 0
    outer loop
      vertex 18.4882 -24.1565 0
      vertex 18.4764 -24.2183 1
      vertex 18.4764 -24.2183 0
    endloop
  endfacet
  facet normal 0.0619825 -0.998077 0
    outer loop
      vertex 17.5314 -25 0
      vertex 17.5942 -24.9961 1
      vertex 17.5314 -25 1
    endloop
  endfacet
  facet normal 0.0619825 -0.998077 0
    outer loop
      vertex 17.5942 -24.9961 1
      vertex 17.5314 -25 0
      vertex 17.5942 -24.9961 0
    endloop
  endfacet
  facet normal 0.480635 -0.876921 0
    outer loop
      vertex 17.9542 -24.8914 0
      vertex 18.0093 -24.8612 1
      vertex 17.9542 -24.8914 1
    endloop
  endfacet
  facet normal 0.480635 -0.876921 0
    outer loop
      vertex 18.0093 -24.8612 1
      vertex 17.9542 -24.8914 0
      vertex 18.0093 -24.8612 0
    endloop
  endfacet
  facet normal 0.367819 -0.929897 0
    outer loop
      vertex 17.8389 -24.9413 0
      vertex 17.8973 -24.9182 1
      vertex 17.8389 -24.9413 1
    endloop
  endfacet
  facet normal 0.367819 -0.929897 0
    outer loop
      vertex 17.8973 -24.9182 1
      vertex 17.8389 -24.9413 0
      vertex 17.8973 -24.9182 0
    endloop
  endfacet
  facet normal 0.968625 -0.248529 0
    outer loop
      vertex 18.4608 -24.2791 1
      vertex 18.4764 -24.2183 0
      vertex 18.4764 -24.2183 1
    endloop
  endfacet
  facet normal 0.968625 -0.248529 0
    outer loop
      vertex 18.4764 -24.2183 0
      vertex 18.4608 -24.2791 1
      vertex 18.4608 -24.2791 0
    endloop
  endfacet
  facet normal 0.844316 -0.535846 0
    outer loop
      vertex 18.3275 -24.5624 1
      vertex 18.3612 -24.5093 0
      vertex 18.3612 -24.5093 1
    endloop
  endfacet
  facet normal 0.844316 -0.535846 0
    outer loop
      vertex 18.3612 -24.5093 0
      vertex 18.3275 -24.5624 1
      vertex 18.3275 -24.5624 0
    endloop
  endfacet
  facet normal 0.992056 -0.125798 0
    outer loop
      vertex 18.4882 -24.1565 1
      vertex 18.4961 -24.0942 0
      vertex 18.4961 -24.0942 1
    endloop
  endfacet
  facet normal 0.992056 -0.125798 0
    outer loop
      vertex 18.4961 -24.0942 0
      vertex 18.4882 -24.1565 1
      vertex 18.4882 -24.1565 0
    endloop
  endfacet
  facet normal 0.95073 -0.310021 0
    outer loop
      vertex 18.4413 -24.3389 1
      vertex 18.4608 -24.2791 0
      vertex 18.4608 -24.2791 1
    endloop
  endfacet
  facet normal 0.95073 -0.310021 0
    outer loop
      vertex 18.4608 -24.2791 0
      vertex 18.4413 -24.3389 1
      vertex 18.4413 -24.3389 0
    endloop
  endfacet
  facet normal 0.808323 -0.588739 0
    outer loop
      vertex 18.2905 -24.6132 1
      vertex 18.3275 -24.5624 0
      vertex 18.3275 -24.5624 1
    endloop
  endfacet
  facet normal 0.808323 -0.588739 0
    outer loop
      vertex 18.3275 -24.5624 0
      vertex 18.2905 -24.6132 1
      vertex 18.2905 -24.6132 0
    endloop
  endfacet
  facet normal 0.998077 -0.0619825 0
    outer loop
      vertex 18.4961 -24.0942 1
      vertex 18.5 -24.0314 0
      vertex 18.5 -24.0314 1
    endloop
  endfacet
  facet normal 0.998077 -0.0619825 0
    outer loop
      vertex 18.5 -24.0314 0
      vertex 18.4961 -24.0942 1
      vertex 18.4961 -24.0942 0
    endloop
  endfacet
  facet normal 0.588739 -0.808323 0
    outer loop
      vertex 18.0624 -24.8275 0
      vertex 18.1132 -24.7905 1
      vertex 18.0624 -24.8275 1
    endloop
  endfacet
  facet normal 0.588739 -0.808323 0
    outer loop
      vertex 18.1132 -24.7905 1
      vertex 18.0624 -24.8275 0
      vertex 18.1132 -24.7905 0
    endloop
  endfacet
  facet normal 0.729785 -0.683677 0
    outer loop
      vertex 18.2075 -24.7075 1
      vertex 18.2505 -24.6616 0
      vertex 18.2505 -24.6616 1
    endloop
  endfacet
  facet normal 0.729785 -0.683677 0
    outer loop
      vertex 18.2505 -24.6616 0
      vertex 18.2075 -24.7075 1
      vertex 18.2075 -24.7075 0
    endloop
  endfacet
  facet normal 0.535846 -0.844316 0
    outer loop
      vertex 18.0093 -24.8612 0
      vertex 18.0624 -24.8275 1
      vertex 18.0093 -24.8612 1
    endloop
  endfacet
  facet normal 0.535846 -0.844316 0
    outer loop
      vertex 18.0624 -24.8275 1
      vertex 18.0093 -24.8612 0
      vertex 18.0624 -24.8275 0
    endloop
  endfacet
  facet normal 0.904675 -0.426103 0
    outer loop
      vertex 18.3914 -24.4542 1
      vertex 18.4182 -24.3973 0
      vertex 18.4182 -24.3973 1
    endloop
  endfacet
  facet normal 0.904675 -0.426103 0
    outer loop
      vertex 18.4182 -24.3973 0
      vertex 18.3914 -24.4542 1
      vertex 18.3914 -24.4542 0
    endloop
  endfacet
  facet normal -0 0 1
    outer loop
      vertex -11 18.5 1
      vertex 11 -18.5 1
      vertex 11 18.5 1
    endloop
  endfacet
  facet normal 0 0 1
    outer loop
      vertex 11 -18.5 1
      vertex -11 18.5 1
      vertex -11 -18.5 1
    endloop
  endfacet
  facet normal 0 0 1
    outer loop
      vertex 17.5314 25 1
      vertex 18.5 24.0314 1
      vertex 18.4961 24.0942 1
    endloop
  endfacet
  facet normal 0 0 1
    outer loop
      vertex 18.5 24.0314 1
      vertex 11 18.5 1
      vertex 18.5 -24.0314 1
    endloop
  endfacet
  facet normal 0 0 1
    outer loop
      vertex 17.5314 25 1
      vertex 18.4961 24.0942 1
      vertex 18.4882 24.1565 1
    endloop
  endfacet
  facet normal -0 0 1
    outer loop
      vertex 11 -18.5 1
      vertex 18.5 -24.0314 1
      vertex 11 18.5 1
    endloop
  endfacet
  facet normal 0 0 1
    outer loop
      vertex 17.5314 25 1
      vertex 18.4882 24.1565 1
      vertex 18.4764 24.2183 1
    endloop
  endfacet
  facet normal -0 0 1
    outer loop
      vertex 11 -20.5 1
      vertex 18.5 -24.0314 1
      vertex 11 -18.5 1
    endloop
  endfacet
  facet normal 0 0 1
    outer loop
      vertex 17.5314 25 1
      vertex 18.4764 24.2183 1
      vertex 18.4608 24.2791 1
    endloop
  endfacet
  facet normal 0 -0 1
    outer loop
      vertex 17.5314 -25 1
      vertex 18.5 -24.0314 1
      vertex 11 -20.5 1
    endloop
  endfacet
  facet normal 0 0 1
    outer loop
      vertex 17.5314 25 1
      vertex 18.4608 24.2791 1
      vertex 18.4413 24.3389 1
    endloop
  endfacet
  facet normal 0 0 1
    outer loop
      vertex 18.5 -24.0314 1
      vertex 17.5314 -25 1
      vertex 18.4961 -24.0942 1
    endloop
  endfacet
  facet normal 0 0 1
    outer loop
      vertex 17.5314 25 1
      vertex 18.4413 24.3389 1
      vertex 18.4182 24.3973 1
    endloop
  endfacet
  facet normal 0 0 1
    outer loop
      vertex 18.4961 -24.0942 1
      vertex 17.5314 -25 1
      vertex 18.4882 -24.1565 1
    endloop
  endfacet
  facet normal 0 0 1
    outer loop
      vertex 17.5314 25 1
      vertex 18.4182 24.3973 1
      vertex 18.3914 24.4542 1
    endloop
  endfacet
  facet normal 0 0 1
    outer loop
      vertex 18.4882 -24.1565 1
      vertex 17.5314 -25 1
      vertex 18.4764 -24.2183 1
    endloop
  endfacet
  facet normal 0 0 1
    outer loop
      vertex 17.5314 25 1
      vertex 18.3914 24.4542 1
      vertex 18.3612 24.5093 1
    endloop
  endfacet
  facet normal 0 0 1
    outer loop
      vertex 18.4764 -24.2183 1
      vertex 17.5314 -25 1
      vertex 18.4608 -24.2791 1
    endloop
  endfacet
  facet normal 0 0 1
    outer loop
      vertex 17.5314 25 1
      vertex 18.3612 24.5093 1
      vertex 18.3275 24.5624 1
    endloop
  endfacet
  facet normal 0 0 1
    outer loop
      vertex 18.4608 -24.2791 1
      vertex 17.5314 -25 1
      vertex 18.4413 -24.3389 1
    endloop
  endfacet
  facet normal 0 0 1
    outer loop
      vertex 17.5314 25 1
      vertex 18.3275 24.5624 1
      vertex 18.2905 24.6132 1
    endloop
  endfacet
  facet normal 0 0 1
    outer loop
      vertex 18.4413 -24.3389 1
      vertex 17.5314 -25 1
      vertex 18.4182 -24.3973 1
    endloop
  endfacet
  facet normal 0 0 1
    outer loop
      vertex 17.5314 25 1
      vertex 18.2905 24.6132 1
      vertex 18.2505 24.6616 1
    endloop
  endfacet
  facet normal 0 0 1
    outer loop
      vertex 18.4182 -24.3973 1
      vertex 17.5314 -25 1
      vertex 18.3914 -24.4542 1
    endloop
  endfacet
  facet normal 0 0 1
    outer loop
      vertex 17.5314 25 1
      vertex 18.2505 24.6616 1
      vertex 18.2075 24.7075 1
    endloop
  endfacet
  facet normal 0 0 1
    outer loop
      vertex 18.3914 -24.4542 1
      vertex 17.5314 -25 1
      vertex 18.3612 -24.5093 1
    endloop
  endfacet
  facet normal 0 0 1
    outer loop
      vertex 17.5314 25 1
      vertex 18.2075 24.7075 1
      vertex 18.1616 24.7505 1
    endloop
  endfacet
  facet normal 0 0 1
    outer loop
      vertex 18.3612 -24.5093 1
      vertex 17.5314 -25 1
      vertex 18.3275 -24.5624 1
    endloop
  endfacet
  facet normal 0 0 1
    outer loop
      vertex 17.5314 25 1
      vertex 18.1616 24.7505 1
      vertex 18.1132 24.7905 1
    endloop
  endfacet
  facet normal 0 0 1
    outer loop
      vertex 18.3275 -24.5624 1
      vertex 17.5314 -25 1
      vertex 18.2905 -24.6132 1
    endloop
  endfacet
  facet normal 0 0 1
    outer loop
      vertex 17.5314 25 1
      vertex 18.1132 24.7905 1
      vertex 18.0624 24.8275 1
    endloop
  endfacet
  facet normal 0 0 1
    outer loop
      vertex 18.2905 -24.6132 1
      vertex 17.5314 -25 1
      vertex 18.2505 -24.6616 1
    endloop
  endfacet
  facet normal 0 0 1
    outer loop
      vertex 17.5314 25 1
      vertex 18.0624 24.8275 1
      vertex 18.0093 24.8612 1
    endloop
  endfacet
  facet normal 0 0 1
    outer loop
      vertex 18.2505 -24.6616 1
      vertex 17.5314 -25 1
      vertex 18.2075 -24.7075 1
    endloop
  endfacet
  facet normal 0 0 1
    outer loop
      vertex 17.5314 25 1
      vertex 18.0093 24.8612 1
      vertex 17.9542 24.8914 1
    endloop
  endfacet
  facet normal 0 0 1
    outer loop
      vertex 18.2075 -24.7075 1
      vertex 17.5314 -25 1
      vertex 18.1616 -24.7505 1
    endloop
  endfacet
  facet normal 0 0 1
    outer loop
      vertex 17.5314 25 1
      vertex 17.9542 24.8914 1
      vertex 17.8973 24.9182 1
    endloop
  endfacet
  facet normal 0 0 1
    outer loop
      vertex 18.1616 -24.7505 1
      vertex 17.5314 -25 1
      vertex 18.1132 -24.7905 1
    endloop
  endfacet
  facet normal 0 0 1
    outer loop
      vertex 17.5314 25 1
      vertex 17.8973 24.9182 1
      vertex 17.8389 24.9413 1
    endloop
  endfacet
  facet normal 0 0 1
    outer loop
      vertex 18.1132 -24.7905 1
      vertex 17.5314 -25 1
      vertex 18.0624 -24.8275 1
    endloop
  endfacet
  facet normal 0 0 1
    outer loop
      vertex 17.5314 25 1
      vertex 17.8389 24.9413 1
      vertex 17.7791 24.9608 1
    endloop
  endfacet
  facet normal 0 0 1
    outer loop
      vertex 18.0624 -24.8275 1
      vertex 17.5314 -25 1
      vertex 18.0093 -24.8612 1
    endloop
  endfacet
  facet normal 0 0 1
    outer loop
      vertex 17.5314 25 1
      vertex 17.7791 24.9608 1
      vertex 17.7183 24.9764 1
    endloop
  endfacet
  facet normal 0 0 1
    outer loop
      vertex 17.9542 -24.8914 1
      vertex 17.5314 -25 1
      vertex 17.8973 -24.9182 1
    endloop
  endfacet
  facet normal 0 0 1
    outer loop
      vertex 17.5314 25 1
      vertex 17.7183 24.9764 1
      vertex 17.6565 24.9882 1
    endloop
  endfacet
  facet normal 0 0 1
    outer loop
      vertex 17.8973 -24.9182 1
      vertex 17.5314 -25 1
      vertex 17.8389 -24.9413 1
    endloop
  endfacet
  facet normal 0 0 1
    outer loop
      vertex 17.5314 25 1
      vertex 17.6565 24.9882 1
      vertex 17.5942 24.9961 1
    endloop
  endfacet
  facet normal 0 0 1
    outer loop
      vertex 17.8389 -24.9413 1
      vertex 17.5314 -25 1
      vertex 17.7791 -24.9608 1
    endloop
  endfacet
  facet normal 0 0 1
    outer loop
      vertex 18.5 24.0314 1
      vertex 17.5314 25 1
      vertex 11 20.5 1
    endloop
  endfacet
  facet normal 0 0 1
    outer loop
      vertex 17.7791 -24.9608 1
      vertex 17.5314 -25 1
      vertex 17.7183 -24.9764 1
    endloop
  endfacet
  facet normal 0 0 1
    outer loop
      vertex 18.5 24.0314 1
      vertex 11 20.5 1
      vertex 11 18.5 1
    endloop
  endfacet
  facet normal 0 0 1
    outer loop
      vertex 17.5314 25 1
      vertex -11 20.5 1
      vertex 11 20.5 1
    endloop
  endfacet
  facet normal 0 0 1
    outer loop
      vertex -18.5 24.0314 1
      vertex -11 18.5 1
      vertex -11 20.5 1
    endloop
  endfacet
  facet normal 0 0 1
    outer loop
      vertex -11 18.5 1
      vertex -18.5 24.0314 1
      vertex -11 -18.5 1
    endloop
  endfacet
  facet normal -0 0 1
    outer loop
      vertex -18.5 24.0314 1
      vertex -11 20.5 1
      vertex -17.5314 25 1
    endloop
  endfacet
  facet normal -0 0 1
    outer loop
      vertex -17.5314 25 1
      vertex -11 20.5 1
      vertex 17.5314 25 1
    endloop
  endfacet
  facet normal 0 0 1
    outer loop
      vertex 17.7183 -24.9764 1
      vertex 17.5314 -25 1
      vertex 17.6565 -24.9882 1
    endloop
  endfacet
  facet normal 0 0 1
    outer loop
      vertex 17.6565 -24.9882 1
      vertex 17.5314 -25 1
      vertex 17.5942 -24.9961 1
    endloop
  endfacet
  facet normal 0 0 1
    outer loop
      vertex 18.0093 -24.8612 1
      vertex 17.5314 -25 1
      vertex 17.9542 -24.8914 1
    endloop
  endfacet
  facet normal -0 0 1
    outer loop
      vertex -11 -20.5 1
      vertex 17.5314 -25 1
      vertex 11 -20.5 1
    endloop
  endfacet
  facet normal 0 0 1
    outer loop
      vertex -11 -20.5 1
      vertex -17.5314 -25 1
      vertex 17.5314 -25 1
    endloop
  endfacet
  facet normal 0 0 1
    outer loop
      vertex -18.5 -24.0314 1
      vertex -11 -18.5 1
      vertex -18.5 24.0314 1
    endloop
  endfacet
  facet normal 0 0 1
    outer loop
      vertex -18.5 24.0314 1
      vertex -17.5314 25 1
      vertex -17.5942 24.9961 1
    endloop
  endfacet
  facet normal 0 0 1
    outer loop
      vertex -11 -18.5 1
      vertex -18.5 -24.0314 1
      vertex -11 -20.5 1
    endloop
  endfacet
  facet normal 0 0 1
    outer loop
      vertex -18.5 24.0314 1
      vertex -17.5942 24.9961 1
      vertex -17.6565 24.9882 1
    endloop
  endfacet
  facet normal 0 0 1
    outer loop
      vertex -11 -20.5 1
      vertex -18.5 -24.0314 1
      vertex -17.5314 -25 1
    endloop
  endfacet
  facet normal 0 0 1
    outer loop
      vertex -18.5 24.0314 1
      vertex -17.6565 24.9882 1
      vertex -17.7183 24.9764 1
    endloop
  endfacet
  facet normal 0 0 1
    outer loop
      vertex -17.5314 -25 1
      vertex -18.5 -24.0314 1
      vertex -17.5942 -24.9961 1
    endloop
  endfacet
  facet normal 0 0 1
    outer loop
      vertex -18.5 24.0314 1
      vertex -17.7183 24.9764 1
      vertex -17.7791 24.9608 1
    endloop
  endfacet
  facet normal 0 0 1
    outer loop
      vertex -17.5942 -24.9961 1
      vertex -18.5 -24.0314 1
      vertex -17.6565 -24.9882 1
    endloop
  endfacet
  facet normal 0 0 1
    outer loop
      vertex -18.5 24.0314 1
      vertex -17.7791 24.9608 1
      vertex -17.8389 24.9413 1
    endloop
  endfacet
  facet normal 0 0 1
    outer loop
      vertex -17.6565 -24.9882 1
      vertex -18.5 -24.0314 1
      vertex -17.7183 -24.9764 1
    endloop
  endfacet
  facet normal 0 0 1
    outer loop
      vertex -18.5 24.0314 1
      vertex -17.8389 24.9413 1
      vertex -17.8973 24.9182 1
    endloop
  endfacet
  facet normal 0 0 1
    outer loop
      vertex -17.7183 -24.9764 1
      vertex -18.5 -24.0314 1
      vertex -17.7791 -24.9608 1
    endloop
  endfacet
  facet normal 0 0 1
    outer loop
      vertex -18.5 24.0314 1
      vertex -17.8973 24.9182 1
      vertex -17.9542 24.8914 1
    endloop
  endfacet
  facet normal 0 0 1
    outer loop
      vertex -17.7791 -24.9608 1
      vertex -18.5 -24.0314 1
      vertex -17.8389 -24.9413 1
    endloop
  endfacet
  facet normal 0 0 1
    outer loop
      vertex -18.5 24.0314 1
      vertex -17.9542 24.8914 1
      vertex -18.0093 24.8612 1
    endloop
  endfacet
  facet normal 0 0 1
    outer loop
      vertex -17.8389 -24.9413 1
      vertex -18.5 -24.0314 1
      vertex -17.8973 -24.9182 1
    endloop
  endfacet
  facet normal 0 0 1
    outer loop
      vertex -18.5 24.0314 1
      vertex -18.0093 24.8612 1
      vertex -18.0624 24.8275 1
    endloop
  endfacet
  facet normal 0 0 1
    outer loop
      vertex -17.8973 -24.9182 1
      vertex -18.5 -24.0314 1
      vertex -17.9542 -24.8914 1
    endloop
  endfacet
  facet normal 0 0 1
    outer loop
      vertex -18.5 24.0314 1
      vertex -18.0624 24.8275 1
      vertex -18.1132 24.7905 1
    endloop
  endfacet
  facet normal 0 0 1
    outer loop
      vertex -17.9542 -24.8914 1
      vertex -18.5 -24.0314 1
      vertex -18.0093 -24.8612 1
    endloop
  endfacet
  facet normal 0 0 1
    outer loop
      vertex -18.5 24.0314 1
      vertex -18.1132 24.7905 1
      vertex -18.1616 24.7505 1
    endloop
  endfacet
  facet normal 0 0 1
    outer loop
      vertex -18.0093 -24.8612 1
      vertex -18.5 -24.0314 1
      vertex -18.0624 -24.8275 1
    endloop
  endfacet
  facet normal 0 0 1
    outer loop
      vertex -18.5 24.0314 1
      vertex -18.1616 24.7505 1
      vertex -18.2075 24.7075 1
    endloop
  endfacet
  facet normal 0 0 1
    outer loop
      vertex -18.0624 -24.8275 1
      vertex -18.5 -24.0314 1
      vertex -18.1132 -24.7905 1
    endloop
  endfacet
  facet normal 0 0 1
    outer loop
      vertex -18.5 24.0314 1
      vertex -18.2075 24.7075 1
      vertex -18.2505 24.6616 1
    endloop
  endfacet
  facet normal 0 0 1
    outer loop
      vertex -18.1132 -24.7905 1
      vertex -18.5 -24.0314 1
      vertex -18.1616 -24.7505 1
    endloop
  endfacet
  facet normal 0 0 1
    outer loop
      vertex -18.5 24.0314 1
      vertex -18.2505 24.6616 1
      vertex -18.2905 24.6132 1
    endloop
  endfacet
  facet normal 0 0 1
    outer loop
      vertex -18.1616 -24.7505 1
      vertex -18.5 -24.0314 1
      vertex -18.2075 -24.7075 1
    endloop
  endfacet
  facet normal 0 0 1
    outer loop
      vertex -18.5 24.0314 1
      vertex -18.2905 24.6132 1
      vertex -18.3275 24.5624 1
    endloop
  endfacet
  facet normal 0 0 1
    outer loop
      vertex -18.2075 -24.7075 1
      vertex -18.5 -24.0314 1
      vertex -18.2505 -24.6616 1
    endloop
  endfacet
  facet normal 0 0 1
    outer loop
      vertex -18.5 24.0314 1
      vertex -18.3275 24.5624 1
      vertex -18.3612 24.5093 1
    endloop
  endfacet
  facet normal 0 0 1
    outer loop
      vertex -18.2505 -24.6616 1
      vertex -18.5 -24.0314 1
      vertex -18.2905 -24.6132 1
    endloop
  endfacet
  facet normal 0 0 1
    outer loop
      vertex -18.5 24.0314 1
      vertex -18.3612 24.5093 1
      vertex -18.3914 24.4542 1
    endloop
  endfacet
  facet normal 0 0 1
    outer loop
      vertex -18.2905 -24.6132 1
      vertex -18.5 -24.0314 1
      vertex -18.3275 -24.5624 1
    endloop
  endfacet
  facet normal 0 0 1
    outer loop
      vertex -18.5 24.0314 1
      vertex -18.3914 24.4542 1
      vertex -18.4182 24.3973 1
    endloop
  endfacet
  facet normal 0 0 1
    outer loop
      vertex -18.3275 -24.5624 1
      vertex -18.5 -24.0314 1
      vertex -18.3612 -24.5093 1
    endloop
  endfacet
  facet normal 0 0 1
    outer loop
      vertex -18.5 24.0314 1
      vertex -18.4182 24.3973 1
      vertex -18.4413 24.3389 1
    endloop
  endfacet
  facet normal 0 0 1
    outer loop
      vertex -18.3612 -24.5093 1
      vertex -18.5 -24.0314 1
      vertex -18.3914 -24.4542 1
    endloop
  endfacet
  facet normal 0 0 1
    outer loop
      vertex -18.5 24.0314 1
      vertex -18.4413 24.3389 1
      vertex -18.4608 24.2791 1
    endloop
  endfacet
  facet normal 0 0 1
    outer loop
      vertex -18.3914 -24.4542 1
      vertex -18.5 -24.0314 1
      vertex -18.4182 -24.3973 1
    endloop
  endfacet
  facet normal 0 0 1
    outer loop
      vertex -18.5 24.0314 1
      vertex -18.4608 24.2791 1
      vertex -18.4764 24.2183 1
    endloop
  endfacet
  facet normal 0 0 1
    outer loop
      vertex -18.4182 -24.3973 1
      vertex -18.5 -24.0314 1
      vertex -18.4413 -24.3389 1
    endloop
  endfacet
  facet normal 0 0 1
    outer loop
      vertex -18.5 24.0314 1
      vertex -18.4764 24.2183 1
      vertex -18.4882 24.1565 1
    endloop
  endfacet
  facet normal 0 0 1
    outer loop
      vertex -18.4413 -24.3389 1
      vertex -18.5 -24.0314 1
      vertex -18.4608 -24.2791 1
    endloop
  endfacet
  facet normal 0 0 1
    outer loop
      vertex -18.5 24.0314 1
      vertex -18.4882 24.1565 1
      vertex -18.4961 24.0942 1
    endloop
  endfacet
  facet normal 0 0 1
    outer loop
      vertex -18.4608 -24.2791 1
      vertex -18.5 -24.0314 1
      vertex -18.4764 -24.2183 1
    endloop
  endfacet
  facet normal 0 0 1
    outer loop
      vertex -18.4764 -24.2183 1
      vertex -18.5 -24.0314 1
      vertex -18.4882 -24.1565 1
    endloop
  endfacet
  facet normal 0 0 1
    outer loop
      vertex -18.4882 -24.1565 1
      vertex -18.5 -24.0314 1
      vertex -18.4961 -24.0942 1
    endloop
  endfacet
  facet normal 0 0 -1
    outer loop
      vertex 17.5314 -25 0
      vertex 18.5 -24.0314 0
      vertex 18.4961 -24.0942 0
    endloop
  endfacet
  facet normal 0 0 -1
    outer loop
      vertex 18.5 -24.0314 0
      vertex -18.5 -24.0314 0
      vertex 18.5 24.0314 0
    endloop
  endfacet
  facet normal 0 0 -1
    outer loop
      vertex 17.5314 -25 0
      vertex 18.4961 -24.0942 0
      vertex 18.4882 -24.1565 0
    endloop
  endfacet
  facet normal 0 0 -1
    outer loop
      vertex -18.5 24.0314 0
      vertex 18.5 24.0314 0
      vertex -18.5 -24.0314 0
    endloop
  endfacet
  facet normal 0 0 -1
    outer loop
      vertex 17.5314 -25 0
      vertex 18.4882 -24.1565 0
      vertex 18.4764 -24.2183 0
    endloop
  endfacet
  facet normal 0 -0 -1
    outer loop
      vertex 17.5314 25 0
      vertex 18.5 24.0314 0
      vertex -18.5 24.0314 0
    endloop
  endfacet
  facet normal 0 0 -1
    outer loop
      vertex 17.5314 -25 0
      vertex 18.4764 -24.2183 0
      vertex 18.4608 -24.2791 0
    endloop
  endfacet
  facet normal 0 0 -1
    outer loop
      vertex 18.5 24.0314 0
      vertex 17.5314 25 0
      vertex 18.4961 24.0942 0
    endloop
  endfacet
  facet normal 0 0 -1
    outer loop
      vertex 17.5314 -25 0
      vertex 18.4608 -24.2791 0
      vertex 18.4413 -24.3389 0
    endloop
  endfacet
  facet normal -0 0 -1
    outer loop
      vertex 18.5 -24.0314 0
      vertex 17.5314 -25 0
      vertex -18.5 -24.0314 0
    endloop
  endfacet
  facet normal 0 0 -1
    outer loop
      vertex 17.5314 -25 0
      vertex 18.4413 -24.3389 0
      vertex 18.4182 -24.3973 0
    endloop
  endfacet
  facet normal 0 0 -1
    outer loop
      vertex 18.4961 24.0942 0
      vertex 17.5314 25 0
      vertex 18.4882 24.1565 0
    endloop
  endfacet
  facet normal 0 0 -1
    outer loop
      vertex 17.5314 -25 0
      vertex 18.4182 -24.3973 0
      vertex 18.3914 -24.4542 0
    endloop
  endfacet
  facet normal 0 0 -1
    outer loop
      vertex 18.4608 24.2791 0
      vertex 17.5314 25 0
      vertex 18.4413 24.3389 0
    endloop
  endfacet
  facet normal 0 0 -1
    outer loop
      vertex 17.5314 -25 0
      vertex 18.3914 -24.4542 0
      vertex 18.3612 -24.5093 0
    endloop
  endfacet
  facet normal 0 0 -1
    outer loop
      vertex 18.4413 24.3389 0
      vertex 17.5314 25 0
      vertex 18.4182 24.3973 0
    endloop
  endfacet
  facet normal 0 0 -1
    outer loop
      vertex 17.5314 -25 0
      vertex 18.3612 -24.5093 0
      vertex 18.3275 -24.5624 0
    endloop
  endfacet
  facet normal 0 0 -1
    outer loop
      vertex 18.4182 24.3973 0
      vertex 17.5314 25 0
      vertex 18.3914 24.4542 0
    endloop
  endfacet
  facet normal 0 0 -1
    outer loop
      vertex 17.5314 -25 0
      vertex 18.3275 -24.5624 0
      vertex 18.2905 -24.6132 0
    endloop
  endfacet
  facet normal 0 0 -1
    outer loop
      vertex 18.3914 24.4542 0
      vertex 17.5314 25 0
      vertex 18.3612 24.5093 0
    endloop
  endfacet
  facet normal 0 0 -1
    outer loop
      vertex 17.5314 -25 0
      vertex 18.2905 -24.6132 0
      vertex 18.2505 -24.6616 0
    endloop
  endfacet
  facet normal 0 0 -1
    outer loop
      vertex 18.3612 24.5093 0
      vertex 17.5314 25 0
      vertex 18.3275 24.5624 0
    endloop
  endfacet
  facet normal 0 0 -1
    outer loop
      vertex 17.5314 -25 0
      vertex 18.2505 -24.6616 0
      vertex 18.2075 -24.7075 0
    endloop
  endfacet
  facet normal 0 0 -1
    outer loop
      vertex 18.3275 24.5624 0
      vertex 17.5314 25 0
      vertex 18.2905 24.6132 0
    endloop
  endfacet
  facet normal 0 0 -1
    outer loop
      vertex 17.5314 -25 0
      vertex 18.2075 -24.7075 0
      vertex 18.1616 -24.7505 0
    endloop
  endfacet
  facet normal 0 0 -1
    outer loop
      vertex 18.2905 24.6132 0
      vertex 17.5314 25 0
      vertex 18.2505 24.6616 0
    endloop
  endfacet
  facet normal 0 0 -1
    outer loop
      vertex 17.5314 -25 0
      vertex 18.1616 -24.7505 0
      vertex 18.1132 -24.7905 0
    endloop
  endfacet
  facet normal 0 0 -1
    outer loop
      vertex 18.2505 24.6616 0
      vertex 17.5314 25 0
      vertex 18.2075 24.7075 0
    endloop
  endfacet
  facet normal 0 0 -1
    outer loop
      vertex 17.5314 -25 0
      vertex 18.1132 -24.7905 0
      vertex 18.0624 -24.8275 0
    endloop
  endfacet
  facet normal 0 0 -1
    outer loop
      vertex 18.2075 24.7075 0
      vertex 17.5314 25 0
      vertex 18.1616 24.7505 0
    endloop
  endfacet
  facet normal 0 0 -1
    outer loop
      vertex 17.5314 -25 0
      vertex 18.0624 -24.8275 0
      vertex 18.0093 -24.8612 0
    endloop
  endfacet
  facet normal 0 0 -1
    outer loop
      vertex 18.1616 24.7505 0
      vertex 17.5314 25 0
      vertex 18.1132 24.7905 0
    endloop
  endfacet
  facet normal 0 0 -1
    outer loop
      vertex 17.5314 -25 0
      vertex 18.0093 -24.8612 0
      vertex 17.9542 -24.8914 0
    endloop
  endfacet
  facet normal 0 0 -1
    outer loop
      vertex 18.1132 24.7905 0
      vertex 17.5314 25 0
      vertex 18.0624 24.8275 0
    endloop
  endfacet
  facet normal 0 0 -1
    outer loop
      vertex 17.5314 -25 0
      vertex 17.9542 -24.8914 0
      vertex 17.8973 -24.9182 0
    endloop
  endfacet
  facet normal 0 0 -1
    outer loop
      vertex 18.0624 24.8275 0
      vertex 17.5314 25 0
      vertex 18.0093 24.8612 0
    endloop
  endfacet
  facet normal 0 0 -1
    outer loop
      vertex 17.5314 -25 0
      vertex 17.8973 -24.9182 0
      vertex 17.8389 -24.9413 0
    endloop
  endfacet
  facet normal 0 0 -1
    outer loop
      vertex 18.0093 24.8612 0
      vertex 17.5314 25 0
      vertex 17.9542 24.8914 0
    endloop
  endfacet
  facet normal 0 0 -1
    outer loop
      vertex 17.5314 -25 0
      vertex 17.8389 -24.9413 0
      vertex 17.7791 -24.9608 0
    endloop
  endfacet
  facet normal 0 0 -1
    outer loop
      vertex 17.9542 24.8914 0
      vertex 17.5314 25 0
      vertex 17.8973 24.9182 0
    endloop
  endfacet
  facet normal 0 0 -1
    outer loop
      vertex 17.5314 -25 0
      vertex 17.7791 -24.9608 0
      vertex 17.7183 -24.9764 0
    endloop
  endfacet
  facet normal 0 0 -1
    outer loop
      vertex 17.8973 24.9182 0
      vertex 17.5314 25 0
      vertex 17.8389 24.9413 0
    endloop
  endfacet
  facet normal 0 0 -1
    outer loop
      vertex 17.5314 -25 0
      vertex 17.7183 -24.9764 0
      vertex 17.6565 -24.9882 0
    endloop
  endfacet
  facet normal 0 0 -1
    outer loop
      vertex 17.8389 24.9413 0
      vertex 17.5314 25 0
      vertex 17.7791 24.9608 0
    endloop
  endfacet
  facet normal 0 0 -1
    outer loop
      vertex 17.5314 -25 0
      vertex 17.6565 -24.9882 0
      vertex 17.5942 -24.9961 0
    endloop
  endfacet
  facet normal 0 0 -1
    outer loop
      vertex 17.7791 24.9608 0
      vertex 17.5314 25 0
      vertex 17.7183 24.9764 0
    endloop
  endfacet
  facet normal 0 0 -1
    outer loop
      vertex 17.7183 24.9764 0
      vertex 17.5314 25 0
      vertex 17.6565 24.9882 0
    endloop
  endfacet
  facet normal 0 0 -1
    outer loop
      vertex 17.6565 24.9882 0
      vertex 17.5314 25 0
      vertex 17.5942 24.9961 0
    endloop
  endfacet
  facet normal 0 0 -1
    outer loop
      vertex -18.5 -24.0314 0
      vertex 17.5314 -25 0
      vertex -17.5314 -25 0
    endloop
  endfacet
  facet normal 0 0 -1
    outer loop
      vertex 18.4882 24.1565 0
      vertex 17.5314 25 0
      vertex 18.4764 24.2183 0
    endloop
  endfacet
  facet normal 0 0 -1
    outer loop
      vertex -18.5 -24.0314 0
      vertex -17.5314 -25 0
      vertex -17.5942 -24.9961 0
    endloop
  endfacet
  facet normal 0 0 -1
    outer loop
      vertex 18.4764 24.2183 0
      vertex 17.5314 25 0
      vertex 18.4608 24.2791 0
    endloop
  endfacet
  facet normal 0 0 -1
    outer loop
      vertex -18.5 -24.0314 0
      vertex -17.5942 -24.9961 0
      vertex -17.6565 -24.9882 0
    endloop
  endfacet
  facet normal -0 0 -1
    outer loop
      vertex 17.5314 25 0
      vertex -18.5 24.0314 0
      vertex -17.5314 25 0
    endloop
  endfacet
  facet normal 0 0 -1
    outer loop
      vertex -18.5 -24.0314 0
      vertex -17.6565 -24.9882 0
      vertex -17.7183 -24.9764 0
    endloop
  endfacet
  facet normal 0 0 -1
    outer loop
      vertex -17.5314 25 0
      vertex -18.5 24.0314 0
      vertex -17.5942 24.9961 0
    endloop
  endfacet
  facet normal 0 0 -1
    outer loop
      vertex -18.5 -24.0314 0
      vertex -17.7183 -24.9764 0
      vertex -17.7791 -24.9608 0
    endloop
  endfacet
  facet normal 0 0 -1
    outer loop
      vertex -17.5942 24.9961 0
      vertex -18.5 24.0314 0
      vertex -17.6565 24.9882 0
    endloop
  endfacet
  facet normal 0 0 -1
    outer loop
      vertex -18.5 -24.0314 0
      vertex -17.7791 -24.9608 0
      vertex -17.8389 -24.9413 0
    endloop
  endfacet
  facet normal 0 0 -1
    outer loop
      vertex -17.6565 24.9882 0
      vertex -18.5 24.0314 0
      vertex -17.7183 24.9764 0
    endloop
  endfacet
  facet normal 0 0 -1
    outer loop
      vertex -18.5 -24.0314 0
      vertex -17.8389 -24.9413 0
      vertex -17.8973 -24.9182 0
    endloop
  endfacet
  facet normal 0 0 -1
    outer loop
      vertex -17.7183 24.9764 0
      vertex -18.5 24.0314 0
      vertex -17.7791 24.9608 0
    endloop
  endfacet
  facet normal 0 0 -1
    outer loop
      vertex -18.5 -24.0314 0
      vertex -17.8973 -24.9182 0
      vertex -17.9542 -24.8914 0
    endloop
  endfacet
  facet normal 0 0 -1
    outer loop
      vertex -17.7791 24.9608 0
      vertex -18.5 24.0314 0
      vertex -17.8389 24.9413 0
    endloop
  endfacet
  facet normal 0 0 -1
    outer loop
      vertex -18.5 -24.0314 0
      vertex -17.9542 -24.8914 0
      vertex -18.0093 -24.8612 0
    endloop
  endfacet
  facet normal 0 0 -1
    outer loop
      vertex -17.8389 24.9413 0
      vertex -18.5 24.0314 0
      vertex -17.8973 24.9182 0
    endloop
  endfacet
  facet normal 0 0 -1
    outer loop
      vertex -18.5 -24.0314 0
      vertex -18.0093 -24.8612 0
      vertex -18.0624 -24.8275 0
    endloop
  endfacet
  facet normal 0 0 -1
    outer loop
      vertex -17.8973 24.9182 0
      vertex -18.5 24.0314 0
      vertex -17.9542 24.8914 0
    endloop
  endfacet
  facet normal 0 0 -1
    outer loop
      vertex -18.5 -24.0314 0
      vertex -18.0624 -24.8275 0
      vertex -18.1132 -24.7905 0
    endloop
  endfacet
  facet normal 0 0 -1
    outer loop
      vertex -17.9542 24.8914 0
      vertex -18.5 24.0314 0
      vertex -18.0093 24.8612 0
    endloop
  endfacet
  facet normal 0 0 -1
    outer loop
      vertex -18.5 -24.0314 0
      vertex -18.1132 -24.7905 0
      vertex -18.1616 -24.7505 0
    endloop
  endfacet
  facet normal 0 0 -1
    outer loop
      vertex -18.0093 24.8612 0
      vertex -18.5 24.0314 0
      vertex -18.0624 24.8275 0
    endloop
  endfacet
  facet normal 0 0 -1
    outer loop
      vertex -18.5 -24.0314 0
      vertex -18.1616 -24.7505 0
      vertex -18.2075 -24.7075 0
    endloop
  endfacet
  facet normal 0 0 -1
    outer loop
      vertex -18.0624 24.8275 0
      vertex -18.5 24.0314 0
      vertex -18.1132 24.7905 0
    endloop
  endfacet
  facet normal 0 0 -1
    outer loop
      vertex -18.5 -24.0314 0
      vertex -18.2075 -24.7075 0
      vertex -18.2505 -24.6616 0
    endloop
  endfacet
  facet normal 0 0 -1
    outer loop
      vertex -18.1132 24.7905 0
      vertex -18.5 24.0314 0
      vertex -18.1616 24.7505 0
    endloop
  endfacet
  facet normal 0 0 -1
    outer loop
      vertex -18.5 -24.0314 0
      vertex -18.2505 -24.6616 0
      vertex -18.2905 -24.6132 0
    endloop
  endfacet
  facet normal 0 0 -1
    outer loop
      vertex -18.1616 24.7505 0
      vertex -18.5 24.0314 0
      vertex -18.2075 24.7075 0
    endloop
  endfacet
  facet normal 0 0 -1
    outer loop
      vertex -18.5 -24.0314 0
      vertex -18.2905 -24.6132 0
      vertex -18.3275 -24.5624 0
    endloop
  endfacet
  facet normal 0 0 -1
    outer loop
      vertex -18.2075 24.7075 0
      vertex -18.5 24.0314 0
      vertex -18.2505 24.6616 0
    endloop
  endfacet
  facet normal 0 0 -1
    outer loop
      vertex -18.5 -24.0314 0
      vertex -18.3275 -24.5624 0
      vertex -18.3612 -24.5093 0
    endloop
  endfacet
  facet normal 0 0 -1
    outer loop
      vertex -18.2505 24.6616 0
      vertex -18.5 24.0314 0
      vertex -18.2905 24.6132 0
    endloop
  endfacet
  facet normal 0 0 -1
    outer loop
      vertex -18.5 -24.0314 0
      vertex -18.3612 -24.5093 0
      vertex -18.3914 -24.4542 0
    endloop
  endfacet
  facet normal 0 0 -1
    outer loop
      vertex -18.2905 24.6132 0
      vertex -18.5 24.0314 0
      vertex -18.3275 24.5624 0
    endloop
  endfacet
  facet normal 0 0 -1
    outer loop
      vertex -18.5 -24.0314 0
      vertex -18.3914 -24.4542 0
      vertex -18.4182 -24.3973 0
    endloop
  endfacet
  facet normal 0 0 -1
    outer loop
      vertex -18.3275 24.5624 0
      vertex -18.5 24.0314 0
      vertex -18.3612 24.5093 0
    endloop
  endfacet
  facet normal 0 0 -1
    outer loop
      vertex -18.5 -24.0314 0
      vertex -18.4182 -24.3973 0
      vertex -18.4413 -24.3389 0
    endloop
  endfacet
  facet normal 0 0 -1
    outer loop
      vertex -18.3612 24.5093 0
      vertex -18.5 24.0314 0
      vertex -18.3914 24.4542 0
    endloop
  endfacet
  facet normal 0 0 -1
    outer loop
      vertex -18.5 -24.0314 0
      vertex -18.4413 -24.3389 0
      vertex -18.4608 -24.2791 0
    endloop
  endfacet
  facet normal 0 0 -1
    outer loop
      vertex -18.3914 24.4542 0
      vertex -18.5 24.0314 0
      vertex -18.4182 24.3973 0
    endloop
  endfacet
  facet normal 0 0 -1
    outer loop
      vertex -18.5 -24.0314 0
      vertex -18.4608 -24.2791 0
      vertex -18.4764 -24.2183 0
    endloop
  endfacet
  facet normal 0 0 -1
    outer loop
      vertex -18.4182 24.3973 0
      vertex -18.5 24.0314 0
      vertex -18.4413 24.3389 0
    endloop
  endfacet
  facet normal 0 0 -1
    outer loop
      vertex -18.5 -24.0314 0
      vertex -18.4764 -24.2183 0
      vertex -18.4882 -24.1565 0
    endloop
  endfacet
  facet normal 0 0 -1
    outer loop
      vertex -18.4413 24.3389 0
      vertex -18.5 24.0314 0
      vertex -18.4608 24.2791 0
    endloop
  endfacet
  facet normal 0 0 -1
    outer loop
      vertex -18.5 -24.0314 0
      vertex -18.4882 -24.1565 0
      vertex -18.4961 -24.0942 0
    endloop
  endfacet
  facet normal 0 0 -1
    outer loop
      vertex -18.4608 24.2791 0
      vertex -18.5 24.0314 0
      vertex -18.4764 24.2183 0
    endloop
  endfacet
  facet normal 0 0 -1
    outer loop
      vertex -18.4764 24.2183 0
      vertex -18.5 24.0314 0
      vertex -18.4882 24.1565 0
    endloop
  endfacet
  facet normal 0 0 -1
    outer loop
      vertex -18.4882 24.1565 0
      vertex -18.5 24.0314 0
      vertex -18.4961 24.0942 0
    endloop
  endfacet
  facet normal 1 -0 0
    outer loop
      vertex 11 18.067 2.75
      vertex 11 18.5 2
      vertex 11 18.5 3
    endloop
  endfacet
  facet normal 1 0 0
    outer loop
      vertex 11 18.5 2
      vertex 11 18.067 2.75
      vertex 11 18.067 2.25
    endloop
  endfacet
  facet normal 1 0 0
    outer loop
      vertex 11 18.5 2
      vertex 11 20.5 3
      vertex 11 18.5 3
    endloop
  endfacet
  facet normal 1 0 0
    outer loop
      vertex 11 20.5 3
      vertex 11 18.5 2
      vertex 11 20.5 1
    endloop
  endfacet
  facet normal 1 0 0
    outer loop
      vertex 11 20.5 1
      vertex 11 18.5 2
      vertex 11 18.5 1
    endloop
  endfacet
  facet normal -0 0 1
    outer loop
      vertex -11 20.5 3
      vertex 11 18.5 3
      vertex 11 20.5 3
    endloop
  endfacet
  facet normal 0 0 1
    outer loop
      vertex 11 18.5 3
      vertex -11 20.5 3
      vertex -11 18.5 3
    endloop
  endfacet
  facet normal -1 0 0
    outer loop
      vertex -11 18.5 2
      vertex -11 20.5 1
      vertex -11 18.5 1
    endloop
  endfacet
  facet normal -1 0 0
    outer loop
      vertex -11 20.5 1
      vertex -11 18.5 2
      vertex -11 20.5 3
    endloop
  endfacet
  facet normal -1 0 0
    outer loop
      vertex -11 18.5 2
      vertex -11 18.5 3
      vertex -11 20.5 3
    endloop
  endfacet
  facet normal -1 0 0
    outer loop
      vertex -11 18.067 2.25
      vertex -11 18.5 3
      vertex -11 18.5 2
    endloop
  endfacet
  facet normal -1 0 0
    outer loop
      vertex -11 18.5 3
      vertex -11 18.067 2.25
      vertex -11 18.067 2.75
    endloop
  endfacet
  facet normal 0 1 -0
    outer loop
      vertex 11 20.5 1
      vertex -11 20.5 3
      vertex 11 20.5 3
    endloop
  endfacet
  facet normal 0 1 0
    outer loop
      vertex -11 20.5 3
      vertex 11 20.5 1
      vertex -11 20.5 1
    endloop
  endfacet
  facet normal 0 -1 0
    outer loop
      vertex -11 18.5 1
      vertex 11 18.5 2
      vertex -11 18.5 2
    endloop
  endfacet
  facet normal 0 -1 -0
    outer loop
      vertex 11 18.5 2
      vertex -11 18.5 1
      vertex 11 18.5 1
    endloop
  endfacet
  facet normal 0 -0.500011 0.866019
    outer loop
      vertex -11 18.5 3
      vertex 11 18.067 2.75
      vertex 11 18.5 3
    endloop
  endfacet
  facet normal 0 -0.500011 0.866019
    outer loop
      vertex 11 18.067 2.75
      vertex -11 18.5 3
      vertex -11 18.067 2.75
    endloop
  endfacet
  facet normal 0 -1 0
    outer loop
      vertex -11 18.067 2.25
      vertex 11 18.067 2.75
      vertex -11 18.067 2.75
    endloop
  endfacet
  facet normal 0 -1 -0
    outer loop
      vertex 11 18.067 2.75
      vertex -11 18.067 2.25
      vertex 11 18.067 2.25
    endloop
  endfacet
  facet normal 0 -0.500011 -0.866019
    outer loop
      vertex -11 18.067 2.25
      vertex 11 18.5 2
      vertex 11 18.067 2.25
    endloop
  endfacet
  facet normal -0 -0.500011 -0.866019
    outer loop
      vertex 11 18.5 2
      vertex -11 18.067 2.25
      vertex -11 18.5 2
    endloop
  endfacet
  facet normal 1 0 0
    outer loop
      vertex 11 -18.5 3
      vertex 11 -18.067 2.25
      vertex 11 -18.067 2.75
    endloop
  endfacet
  facet normal 1 0 0
    outer loop
      vertex 11 -18.5 3
      vertex 11 -18.5 2
      vertex 11 -18.067 2.25
    endloop
  endfacet
  facet normal 1 -0 0
    outer loop
      vertex 11 -20.5 3
      vertex 11 -18.5 2
      vertex 11 -18.5 3
    endloop
  endfacet
  facet normal 1 0 0
    outer loop
      vertex 11 -20.5 1
      vertex 11 -18.5 2
      vertex 11 -20.5 3
    endloop
  endfacet
  facet normal 1 0 0
    outer loop
      vertex 11 -18.5 2
      vertex 11 -20.5 1
      vertex 11 -18.5 1
    endloop
  endfacet
  facet normal -0 0 1
    outer loop
      vertex -11 -18.5 3
      vertex 11 -20.5 3
      vertex 11 -18.5 3
    endloop
  endfacet
  facet normal 0 0 1
    outer loop
      vertex 11 -20.5 3
      vertex -11 -18.5 3
      vertex -11 -20.5 3
    endloop
  endfacet
  facet normal -1 0 0
    outer loop
      vertex -11 -20.5 1
      vertex -11 -18.5 2
      vertex -11 -18.5 1
    endloop
  endfacet
  facet normal -1 0 0
    outer loop
      vertex -11 -20.5 3
      vertex -11 -18.5 2
      vertex -11 -20.5 1
    endloop
  endfacet
  facet normal -1 0 0
    outer loop
      vertex -11 -18.5 2
      vertex -11 -20.5 3
      vertex -11 -18.5 3
    endloop
  endfacet
  facet normal -1 0 0
    outer loop
      vertex -11 -18.5 2
      vertex -11 -18.067 2.75
      vertex -11 -18.067 2.25
    endloop
  endfacet
  facet normal -1 -0 0
    outer loop
      vertex -11 -18.067 2.75
      vertex -11 -18.5 2
      vertex -11 -18.5 3
    endloop
  endfacet
  facet normal 0 1 -0
    outer loop
      vertex 11 -18.5 1
      vertex -11 -18.5 2
      vertex 11 -18.5 2
    endloop
  endfacet
  facet normal 0 1 0
    outer loop
      vertex -11 -18.5 2
      vertex 11 -18.5 1
      vertex -11 -18.5 1
    endloop
  endfacet
  facet normal 0 -1 0
    outer loop
      vertex -11 -20.5 1
      vertex 11 -20.5 3
      vertex -11 -20.5 3
    endloop
  endfacet
  facet normal 0 -1 -0
    outer loop
      vertex 11 -20.5 3
      vertex -11 -20.5 1
      vertex 11 -20.5 1
    endloop
  endfacet
  facet normal -0 0.500011 0.866019
    outer loop
      vertex -11 -18.067 2.75
      vertex 11 -18.5 3
      vertex 11 -18.067 2.75
    endloop
  endfacet
  facet normal 0 0.500011 0.866019
    outer loop
      vertex 11 -18.5 3
      vertex -11 -18.067 2.75
      vertex -11 -18.5 3
    endloop
  endfacet
  facet normal 0 1 -0
    outer loop
      vertex 11 -18.067 2.25
      vertex -11 -18.067 2.75
      vertex 11 -18.067 2.75
    endloop
  endfacet
  facet normal 0 1 0
    outer loop
      vertex -11 -18.067 2.75
      vertex 11 -18.067 2.25
      vertex -11 -18.067 2.25
    endloop
  endfacet
  facet normal 0 0.500011 -0.866019
    outer loop
      vertex -11 -18.5 2
      vertex 11 -18.067 2.25
      vertex 11 -18.5 2
    endloop
  endfacet
  facet normal 0 0.500011 -0.866019
    outer loop
      vertex 11 -18.067 2.25
      vertex -11 -18.5 2
      vertex -11 -18.067 2.25
    endloop
  endfacet
endsolid OpenSCAD_Model
