%TF.GenerationSoftware,KiCad,Pcbnew,8.0.5*%
%TF.CreationDate,2024-10-24T17:50:15+02:00*%
%TF.ProjectId,vt2_communicator,7674325f-636f-46d6-9d75-6e696361746f,rev?*%
%TF.SameCoordinates,Original*%
%TF.FileFunction,Drillmap*%
%TF.FilePolarity,Positive*%
%FSLAX45Y45*%
G04 Gerber Fmt 4.5, Leading zero omitted, Abs format (unit mm)*
G04 Created by KiCad (PCBNEW 8.0.5) date 2024-10-24 17:50:15*
%MOMM*%
%LPD*%
G01*
G04 APERTURE LIST*
%ADD10C,0.200000*%
%ADD11C,0.100000*%
%ADD12C,0.139700*%
%ADD13C,0.320000*%
G04 APERTURE END LIST*
D10*
X19300000Y-5100000D02*
X10000000Y-5100000D01*
X19300000Y-15000000D02*
X19300000Y-5100000D01*
X10000000Y-5100000D02*
X10000000Y-15000000D01*
X10000000Y-15000000D02*
X19300000Y-15000000D01*
D11*
X11765000Y-5765000D02*
X11795000Y-5795000D01*
X11795000Y-5765000D02*
X11765000Y-5795000D01*
X11765000Y-6225000D02*
X11795000Y-6255000D01*
X11795000Y-6225000D02*
X11765000Y-6255000D01*
X11845000Y-8145000D02*
X11875000Y-8175000D01*
X11875000Y-8145000D02*
X11845000Y-8175000D01*
X12342573Y-8927427D02*
X12372573Y-8957427D01*
X12372573Y-8927427D02*
X12342573Y-8957427D01*
X12565000Y-7385000D02*
X12595000Y-7415000D01*
X12595000Y-7385000D02*
X12565000Y-7415000D01*
X12885000Y-7125000D02*
X12915000Y-7155000D01*
X12915000Y-7125000D02*
X12885000Y-7155000D01*
X12885000Y-7265000D02*
X12915000Y-7295000D01*
X12915000Y-7265000D02*
X12885000Y-7295000D01*
X13005000Y-7565000D02*
X13035000Y-7595000D01*
X13035000Y-7565000D02*
X13005000Y-7595000D01*
X13045000Y-7645000D02*
X13075000Y-7675000D01*
X13075000Y-7645000D02*
X13045000Y-7675000D01*
X13045000Y-7725000D02*
X13075000Y-7755000D01*
X13075000Y-7725000D02*
X13045000Y-7755000D01*
X13225000Y-6666716D02*
X13255000Y-6696716D01*
X13255000Y-6666716D02*
X13225000Y-6696716D01*
X13365000Y-6726716D02*
X13395000Y-6756716D01*
X13395000Y-6726716D02*
X13365000Y-6756716D01*
X14525000Y-6685000D02*
X14555000Y-6715000D01*
X14555000Y-6685000D02*
X14525000Y-6715000D01*
X14545000Y-7565000D02*
X14575000Y-7595000D01*
X14575000Y-7565000D02*
X14545000Y-7595000D01*
X14625000Y-6685000D02*
X14655000Y-6715000D01*
X14655000Y-6685000D02*
X14625000Y-6715000D01*
X14625000Y-7385000D02*
X14655000Y-7415000D01*
X14655000Y-7385000D02*
X14625000Y-7415000D01*
X16005000Y-7005000D02*
X16035000Y-7035000D01*
X16035000Y-7005000D02*
X16005000Y-7035000D01*
X16085000Y-7065000D02*
X16115000Y-7095000D01*
X16115000Y-7065000D02*
X16085000Y-7095000D01*
X16118505Y-7185000D02*
X16148505Y-7215000D01*
X16148505Y-7185000D02*
X16118505Y-7215000D01*
X16505000Y-11225000D02*
X16535000Y-11255000D01*
X16535000Y-11225000D02*
X16505000Y-11255000D01*
X16505000Y-11605000D02*
X16535000Y-11635000D01*
X16535000Y-11605000D02*
X16505000Y-11635000D01*
X16543002Y-12926997D02*
X16573002Y-12956997D01*
X16573002Y-12926997D02*
X16543002Y-12956997D01*
X16805000Y-11365000D02*
X16835000Y-11395000D01*
X16835000Y-11365000D02*
X16805000Y-11395000D01*
X16805000Y-13050000D02*
X16835000Y-13080000D01*
X16835000Y-13050000D02*
X16805000Y-13080000D01*
X16805000Y-13185000D02*
X16835000Y-13215000D01*
X16835000Y-13185000D02*
X16805000Y-13215000D01*
X16865000Y-13125000D02*
X16895000Y-13155000D01*
X16895000Y-13125000D02*
X16865000Y-13155000D01*
X16865000Y-13245000D02*
X16895000Y-13275000D01*
X16895000Y-13245000D02*
X16865000Y-13275000D01*
X16885000Y-13005000D02*
X16915000Y-13035000D01*
X16915000Y-13005000D02*
X16885000Y-13035000D01*
X12000000Y-9800000D02*
G75*
G02*
X11960000Y-9800000I-20000J0D01*
G01*
X11960000Y-9800000D02*
G75*
G02*
X12000000Y-9800000I20000J0D01*
G01*
X12260000Y-6100000D02*
G75*
G02*
X12220000Y-6100000I-20000J0D01*
G01*
X12220000Y-6100000D02*
G75*
G02*
X12260000Y-6100000I20000J0D01*
G01*
X12340000Y-8460000D02*
G75*
G02*
X12300000Y-8460000I-20000J0D01*
G01*
X12300000Y-8460000D02*
G75*
G02*
X12340000Y-8460000I20000J0D01*
G01*
X12360000Y-7920000D02*
G75*
G02*
X12320000Y-7920000I-20000J0D01*
G01*
X12320000Y-7920000D02*
G75*
G02*
X12360000Y-7920000I20000J0D01*
G01*
X12360000Y-8120000D02*
G75*
G02*
X12320000Y-8120000I-20000J0D01*
G01*
X12320000Y-8120000D02*
G75*
G02*
X12360000Y-8120000I20000J0D01*
G01*
X13900000Y-7400000D02*
G75*
G02*
X13860000Y-7400000I-20000J0D01*
G01*
X13860000Y-7400000D02*
G75*
G02*
X13900000Y-7400000I20000J0D01*
G01*
X15780000Y-7300000D02*
G75*
G02*
X15740000Y-7300000I-20000J0D01*
G01*
X15740000Y-7300000D02*
G75*
G02*
X15780000Y-7300000I20000J0D01*
G01*
X15780000Y-7500000D02*
G75*
G02*
X15740000Y-7500000I-20000J0D01*
G01*
X15740000Y-7500000D02*
G75*
G02*
X15780000Y-7500000I20000J0D01*
G01*
X16020000Y-12820000D02*
G75*
G02*
X15980000Y-12820000I-20000J0D01*
G01*
X15980000Y-12820000D02*
G75*
G02*
X16020000Y-12820000I20000J0D01*
G01*
X16160000Y-12480000D02*
G75*
G02*
X16120000Y-12480000I-20000J0D01*
G01*
X16120000Y-12480000D02*
G75*
G02*
X16160000Y-12480000I20000J0D01*
G01*
X16420000Y-10900000D02*
G75*
G02*
X16380000Y-10900000I-20000J0D01*
G01*
X16380000Y-10900000D02*
G75*
G02*
X16420000Y-10900000I20000J0D01*
G01*
X16920000Y-7520000D02*
G75*
G02*
X16880000Y-7520000I-20000J0D01*
G01*
X16880000Y-7520000D02*
G75*
G02*
X16920000Y-7520000I20000J0D01*
G01*
X17060000Y-10960000D02*
G75*
G02*
X17020000Y-10960000I-20000J0D01*
G01*
X17020000Y-10960000D02*
G75*
G02*
X17060000Y-10960000I20000J0D01*
G01*
X17190000Y-11944497D02*
G75*
G02*
X17150000Y-11944497I-20000J0D01*
G01*
X17150000Y-11944497D02*
G75*
G02*
X17190000Y-11944497I20000J0D01*
G01*
X17200000Y-11520000D02*
G75*
G02*
X17160000Y-11520000I-20000J0D01*
G01*
X17160000Y-11520000D02*
G75*
G02*
X17200000Y-11520000I20000J0D01*
G01*
X11000000Y-7976000D02*
X11000000Y-8066000D01*
X10955000Y-8021000D02*
X11045000Y-8021000D01*
X11000000Y-8230000D02*
X11000000Y-8320000D01*
X10955000Y-8275000D02*
X11045000Y-8275000D01*
X11000000Y-8730000D02*
X11000000Y-8820000D01*
X10955000Y-8775000D02*
X11045000Y-8775000D01*
X11000000Y-8984000D02*
X11000000Y-9074000D01*
X10955000Y-9029000D02*
X11045000Y-9029000D01*
X11000000Y-9505000D02*
X11000000Y-9595000D01*
X10955000Y-9550000D02*
X11045000Y-9550000D01*
X11000000Y-9759000D02*
X11000000Y-9849000D01*
X10955000Y-9804000D02*
X11045000Y-9804000D01*
X11000000Y-10280000D02*
X11000000Y-10370000D01*
X10955000Y-10325000D02*
X11045000Y-10325000D01*
X11000000Y-10534000D02*
X11000000Y-10624000D01*
X10955000Y-10579000D02*
X11045000Y-10579000D01*
X11000000Y-11030000D02*
X11000000Y-11120000D01*
X10955000Y-11075000D02*
X11045000Y-11075000D01*
X11000000Y-11284000D02*
X11000000Y-11374000D01*
X10955000Y-11329000D02*
X11045000Y-11329000D01*
X11000000Y-11780000D02*
X11000000Y-11870000D01*
X10955000Y-11825000D02*
X11045000Y-11825000D01*
X11000000Y-12034000D02*
X11000000Y-12124000D01*
X10955000Y-12079000D02*
X11045000Y-12079000D01*
X14140356Y-6388389D02*
X14140356Y-6317677D01*
X14069644Y-6317677D01*
X14069644Y-6388389D01*
X14140356Y-6388389D01*
X14278856Y-6104389D02*
X14278856Y-6033677D01*
X14208144Y-6033677D01*
X14208144Y-6104389D01*
X14278856Y-6104389D01*
X14359356Y-8132356D02*
X14359356Y-8061644D01*
X14288644Y-8061644D01*
X14288644Y-8132356D01*
X14359356Y-8132356D01*
X14359356Y-9910356D02*
X14359356Y-9839644D01*
X14288644Y-9839644D01*
X14288644Y-9910356D01*
X14359356Y-9910356D01*
X14417356Y-6388389D02*
X14417356Y-6317677D01*
X14346644Y-6317677D01*
X14346644Y-6388389D01*
X14417356Y-6388389D01*
X14555856Y-6104389D02*
X14555856Y-6033677D01*
X14485144Y-6033677D01*
X14485144Y-6104389D01*
X14555856Y-6104389D01*
X14613356Y-8132356D02*
X14613356Y-8061644D01*
X14542644Y-8061644D01*
X14542644Y-8132356D01*
X14613356Y-8132356D01*
X14613356Y-9910356D02*
X14613356Y-9839644D01*
X14542644Y-9839644D01*
X14542644Y-9910356D01*
X14613356Y-9910356D01*
X14694356Y-6388389D02*
X14694356Y-6317677D01*
X14623644Y-6317677D01*
X14623644Y-6388389D01*
X14694356Y-6388389D01*
X14832856Y-6104389D02*
X14832856Y-6033677D01*
X14762144Y-6033677D01*
X14762144Y-6104389D01*
X14832856Y-6104389D01*
X14867356Y-8132356D02*
X14867356Y-8061644D01*
X14796644Y-8061644D01*
X14796644Y-8132356D01*
X14867356Y-8132356D01*
X14867356Y-9910356D02*
X14867356Y-9839644D01*
X14796644Y-9839644D01*
X14796644Y-9910356D01*
X14867356Y-9910356D01*
X14971356Y-6388389D02*
X14971356Y-6317677D01*
X14900644Y-6317677D01*
X14900644Y-6388389D01*
X14971356Y-6388389D01*
X15109856Y-6104389D02*
X15109856Y-6033677D01*
X15039144Y-6033677D01*
X15039144Y-6104389D01*
X15109856Y-6104389D01*
X15121356Y-8132356D02*
X15121356Y-8061644D01*
X15050644Y-8061644D01*
X15050644Y-8132356D01*
X15121356Y-8132356D01*
X15121356Y-9910356D02*
X15121356Y-9839644D01*
X15050644Y-9839644D01*
X15050644Y-9910356D01*
X15121356Y-9910356D01*
X15128356Y-10510356D02*
X15128356Y-10439644D01*
X15057644Y-10439644D01*
X15057644Y-10510356D01*
X15128356Y-10510356D01*
X15248356Y-6388389D02*
X15248356Y-6317677D01*
X15177644Y-6317677D01*
X15177644Y-6388389D01*
X15248356Y-6388389D01*
X15375356Y-8132356D02*
X15375356Y-8061644D01*
X15304644Y-8061644D01*
X15304644Y-8132356D01*
X15375356Y-8132356D01*
X15375356Y-9910356D02*
X15375356Y-9839644D01*
X15304644Y-9839644D01*
X15304644Y-9910356D01*
X15375356Y-9910356D01*
X15382356Y-10510356D02*
X15382356Y-10439644D01*
X15311644Y-10439644D01*
X15311644Y-10510356D01*
X15382356Y-10510356D01*
X15629356Y-8132356D02*
X15629356Y-8061644D01*
X15558644Y-8061644D01*
X15558644Y-8132356D01*
X15629356Y-8132356D01*
X15629356Y-9910356D02*
X15629356Y-9839644D01*
X15558644Y-9839644D01*
X15558644Y-9910356D01*
X15629356Y-9910356D01*
X15636356Y-10510356D02*
X15636356Y-10439644D01*
X15565644Y-10439644D01*
X15565644Y-10510356D01*
X15636356Y-10510356D01*
X15883356Y-8132356D02*
X15883356Y-8061644D01*
X15812644Y-8061644D01*
X15812644Y-8132356D01*
X15883356Y-8132356D01*
X15883356Y-9910356D02*
X15883356Y-9839644D01*
X15812644Y-9839644D01*
X15812644Y-9910356D01*
X15883356Y-9910356D01*
X15890356Y-10510356D02*
X15890356Y-10439644D01*
X15819644Y-10439644D01*
X15819644Y-10510356D01*
X15890356Y-10510356D01*
X16137356Y-8132356D02*
X16137356Y-8061644D01*
X16066644Y-8061644D01*
X16066644Y-8132356D01*
X16137356Y-8132356D01*
X16137356Y-9910356D02*
X16137356Y-9839644D01*
X16066644Y-9839644D01*
X16066644Y-9910356D01*
X16137356Y-9910356D01*
X16391356Y-8132356D02*
X16391356Y-8061644D01*
X16320644Y-8061644D01*
X16320644Y-8132356D01*
X16391356Y-8132356D01*
X16391356Y-9910356D02*
X16391356Y-9839644D01*
X16320644Y-9839644D01*
X16320644Y-9910356D01*
X16391356Y-9910356D01*
X16645356Y-8132356D02*
X16645356Y-8061644D01*
X16574644Y-8061644D01*
X16574644Y-8132356D01*
X16645356Y-8132356D01*
X16645356Y-9910356D02*
X16645356Y-9839644D01*
X16574644Y-9839644D01*
X16574644Y-9910356D01*
X16645356Y-9910356D01*
X16899356Y-8132356D02*
X16899356Y-8061644D01*
X16828644Y-8061644D01*
X16828644Y-8132356D01*
X16899356Y-8132356D01*
X16899356Y-9910356D02*
X16899356Y-9839644D01*
X16828644Y-9839644D01*
X16828644Y-9910356D01*
X16899356Y-9910356D01*
X17153356Y-8132356D02*
X17153356Y-8061644D01*
X17082644Y-8061644D01*
X17082644Y-8132356D01*
X17153356Y-8132356D01*
X17153356Y-9910356D02*
X17153356Y-9839644D01*
X17082644Y-9839644D01*
X17082644Y-9910356D01*
X17153356Y-9910356D01*
X17407356Y-8132356D02*
X17407356Y-8061644D01*
X17336644Y-8061644D01*
X17336644Y-8132356D01*
X17407356Y-8132356D01*
X17407356Y-9910356D02*
X17407356Y-9839644D01*
X17336644Y-9839644D01*
X17336644Y-9910356D01*
X17407356Y-9910356D01*
X17661356Y-8132356D02*
X17661356Y-8061644D01*
X17590644Y-8061644D01*
X17590644Y-8132356D01*
X17661356Y-8132356D01*
X17661356Y-9910356D02*
X17661356Y-9839644D01*
X17590644Y-9839644D01*
X17590644Y-9910356D01*
X17661356Y-9910356D01*
X17915356Y-8132356D02*
X17915356Y-8061644D01*
X17844644Y-8061644D01*
X17844644Y-8132356D01*
X17915356Y-8132356D01*
X17915356Y-9910356D02*
X17915356Y-9839644D01*
X17844644Y-9839644D01*
X17844644Y-9910356D01*
X17915356Y-9910356D01*
X18101356Y-11725856D02*
X18101356Y-11655144D01*
X18030644Y-11655144D01*
X18030644Y-11725856D01*
X18101356Y-11725856D01*
X18101356Y-12002856D02*
X18101356Y-11932144D01*
X18030644Y-11932144D01*
X18030644Y-12002856D01*
X18101356Y-12002856D01*
X18101356Y-12279856D02*
X18101356Y-12209144D01*
X18030644Y-12209144D01*
X18030644Y-12279856D01*
X18101356Y-12279856D01*
X18101356Y-12556856D02*
X18101356Y-12486144D01*
X18030644Y-12486144D01*
X18030644Y-12556856D01*
X18101356Y-12556856D01*
X18101356Y-12833856D02*
X18101356Y-12763144D01*
X18030644Y-12763144D01*
X18030644Y-12833856D01*
X18101356Y-12833856D01*
X18101356Y-13110856D02*
X18101356Y-13040144D01*
X18030644Y-13040144D01*
X18030644Y-13110856D01*
X18101356Y-13110856D01*
X18101356Y-13387856D02*
X18101356Y-13317144D01*
X18030644Y-13317144D01*
X18030644Y-13387856D01*
X18101356Y-13387856D01*
X18101356Y-13664856D02*
X18101356Y-13594144D01*
X18030644Y-13594144D01*
X18030644Y-13664856D01*
X18101356Y-13664856D01*
X18169356Y-8132356D02*
X18169356Y-8061644D01*
X18098644Y-8061644D01*
X18098644Y-8132356D01*
X18169356Y-8132356D01*
X18169356Y-9910356D02*
X18169356Y-9839644D01*
X18098644Y-9839644D01*
X18098644Y-9910356D01*
X18169356Y-9910356D01*
X18385356Y-11864356D02*
X18385356Y-11793644D01*
X18314644Y-11793644D01*
X18314644Y-11864356D01*
X18385356Y-11864356D01*
X18385356Y-12141356D02*
X18385356Y-12070644D01*
X18314644Y-12070644D01*
X18314644Y-12141356D01*
X18385356Y-12141356D01*
X18385356Y-12418356D02*
X18385356Y-12347644D01*
X18314644Y-12347644D01*
X18314644Y-12418356D01*
X18385356Y-12418356D01*
X18385356Y-12695356D02*
X18385356Y-12624644D01*
X18314644Y-12624644D01*
X18314644Y-12695356D01*
X18385356Y-12695356D01*
X18385356Y-12972356D02*
X18385356Y-12901644D01*
X18314644Y-12901644D01*
X18314644Y-12972356D01*
X18385356Y-12972356D01*
X18385356Y-13249356D02*
X18385356Y-13178644D01*
X18314644Y-13178644D01*
X18314644Y-13249356D01*
X18385356Y-13249356D01*
X18385356Y-13526356D02*
X18385356Y-13455644D01*
X18314644Y-13455644D01*
X18314644Y-13526356D01*
X18385356Y-13526356D01*
X18423356Y-8132356D02*
X18423356Y-8061644D01*
X18352644Y-8061644D01*
X18352644Y-8132356D01*
X18423356Y-8132356D01*
X18423356Y-9910356D02*
X18423356Y-9839644D01*
X18352644Y-9839644D01*
X18352644Y-9910356D01*
X18423356Y-9910356D01*
X18535356Y-7560356D02*
X18535356Y-7489644D01*
X18464644Y-7489644D01*
X18464644Y-7560356D01*
X18535356Y-7560356D01*
X18677356Y-8132356D02*
X18677356Y-8061644D01*
X18606644Y-8061644D01*
X18606644Y-8132356D01*
X18677356Y-8132356D01*
X18677356Y-9910356D02*
X18677356Y-9839644D01*
X18606644Y-9839644D01*
X18606644Y-9910356D01*
X18677356Y-9910356D01*
X18789356Y-7560356D02*
X18789356Y-7489644D01*
X18718644Y-7489644D01*
X18718644Y-7560356D01*
X18789356Y-7560356D01*
X18931356Y-8132356D02*
X18931356Y-8061644D01*
X18860644Y-8061644D01*
X18860644Y-8132356D01*
X18931356Y-8132356D01*
X18931356Y-9910356D02*
X18931356Y-9839644D01*
X18860644Y-9839644D01*
X18860644Y-9910356D01*
X18931356Y-9910356D01*
X19043356Y-7560356D02*
X19043356Y-7489644D01*
X18972644Y-7489644D01*
X18972644Y-7560356D01*
X19043356Y-7560356D01*
X19185356Y-8132356D02*
X19185356Y-8061644D01*
X19114644Y-8061644D01*
X19114644Y-8132356D01*
X19185356Y-8132356D01*
X19185356Y-9910356D02*
X19185356Y-9839644D01*
X19114644Y-9839644D01*
X19114644Y-9910356D01*
X19185356Y-9910356D01*
D12*
X17874810Y-5845424D02*
X17944660Y-5775574D01*
X17874810Y-5705724D01*
X17804960Y-5775574D01*
X17874810Y-5845424D01*
X17874810Y-6844660D02*
X17944660Y-6774810D01*
X17874810Y-6704960D01*
X17804960Y-6774810D01*
X17874810Y-6844660D01*
X18124746Y-6345042D02*
X18194596Y-6275192D01*
X18124746Y-6205342D01*
X18054896Y-6275192D01*
X18124746Y-6345042D01*
X18125000Y-5595234D02*
X18194850Y-5525384D01*
X18125000Y-5455534D01*
X18055150Y-5525384D01*
X18125000Y-5595234D01*
X18125000Y-7094850D02*
X18194850Y-7025000D01*
X18125000Y-6955150D01*
X18055150Y-7025000D01*
X18125000Y-7094850D01*
D13*
X13249000Y-6051033D02*
X13569000Y-6371033D01*
X13569000Y-6051033D02*
X13249000Y-6371033D01*
X13569000Y-6211033D02*
G75*
G02*
X13249000Y-6211033I-160000J0D01*
G01*
X13249000Y-6211033D02*
G75*
G02*
X13569000Y-6211033I160000J0D01*
G01*
X15749000Y-6051033D02*
X16069000Y-6371033D01*
X16069000Y-6051033D02*
X15749000Y-6371033D01*
X16069000Y-6211033D02*
G75*
G02*
X15749000Y-6211033I-160000J0D01*
G01*
X15749000Y-6211033D02*
G75*
G02*
X16069000Y-6211033I160000J0D01*
G01*
X18048000Y-10835000D02*
X18368000Y-11155000D01*
X18368000Y-10835000D02*
X18048000Y-11155000D01*
X18368000Y-10995000D02*
G75*
G02*
X18048000Y-10995000I-160000J0D01*
G01*
X18048000Y-10995000D02*
G75*
G02*
X18368000Y-10995000I160000J0D01*
G01*
X18048000Y-14165000D02*
X18368000Y-14485000D01*
X18368000Y-14165000D02*
X18048000Y-14485000D01*
X18368000Y-14325000D02*
G75*
G02*
X18048000Y-14325000I-160000J0D01*
G01*
X18048000Y-14325000D02*
G75*
G02*
X18368000Y-14325000I160000J0D01*
G01*
D10*
X10250777Y-15321484D02*
X10250777Y-15121484D01*
X10250777Y-15121484D02*
X10298396Y-15121484D01*
X10298396Y-15121484D02*
X10326967Y-15131008D01*
X10326967Y-15131008D02*
X10346015Y-15150055D01*
X10346015Y-15150055D02*
X10355539Y-15169103D01*
X10355539Y-15169103D02*
X10365063Y-15207198D01*
X10365063Y-15207198D02*
X10365063Y-15235769D01*
X10365063Y-15235769D02*
X10355539Y-15273865D01*
X10355539Y-15273865D02*
X10346015Y-15292912D01*
X10346015Y-15292912D02*
X10326967Y-15311960D01*
X10326967Y-15311960D02*
X10298396Y-15321484D01*
X10298396Y-15321484D02*
X10250777Y-15321484D01*
X10450777Y-15321484D02*
X10450777Y-15188150D01*
X10450777Y-15226246D02*
X10460301Y-15207198D01*
X10460301Y-15207198D02*
X10469824Y-15197674D01*
X10469824Y-15197674D02*
X10488872Y-15188150D01*
X10488872Y-15188150D02*
X10507920Y-15188150D01*
X10574586Y-15321484D02*
X10574586Y-15188150D01*
X10574586Y-15121484D02*
X10565063Y-15131008D01*
X10565063Y-15131008D02*
X10574586Y-15140531D01*
X10574586Y-15140531D02*
X10584110Y-15131008D01*
X10584110Y-15131008D02*
X10574586Y-15121484D01*
X10574586Y-15121484D02*
X10574586Y-15140531D01*
X10698396Y-15321484D02*
X10679348Y-15311960D01*
X10679348Y-15311960D02*
X10669824Y-15292912D01*
X10669824Y-15292912D02*
X10669824Y-15121484D01*
X10803158Y-15321484D02*
X10784110Y-15311960D01*
X10784110Y-15311960D02*
X10774586Y-15292912D01*
X10774586Y-15292912D02*
X10774586Y-15121484D01*
X11031729Y-15321484D02*
X11031729Y-15121484D01*
X11031729Y-15121484D02*
X11098396Y-15264341D01*
X11098396Y-15264341D02*
X11165063Y-15121484D01*
X11165063Y-15121484D02*
X11165063Y-15321484D01*
X11346015Y-15321484D02*
X11346015Y-15216722D01*
X11346015Y-15216722D02*
X11336491Y-15197674D01*
X11336491Y-15197674D02*
X11317443Y-15188150D01*
X11317443Y-15188150D02*
X11279348Y-15188150D01*
X11279348Y-15188150D02*
X11260301Y-15197674D01*
X11346015Y-15311960D02*
X11326967Y-15321484D01*
X11326967Y-15321484D02*
X11279348Y-15321484D01*
X11279348Y-15321484D02*
X11260301Y-15311960D01*
X11260301Y-15311960D02*
X11250777Y-15292912D01*
X11250777Y-15292912D02*
X11250777Y-15273865D01*
X11250777Y-15273865D02*
X11260301Y-15254817D01*
X11260301Y-15254817D02*
X11279348Y-15245293D01*
X11279348Y-15245293D02*
X11326967Y-15245293D01*
X11326967Y-15245293D02*
X11346015Y-15235769D01*
X11441253Y-15188150D02*
X11441253Y-15388150D01*
X11441253Y-15197674D02*
X11460301Y-15188150D01*
X11460301Y-15188150D02*
X11498396Y-15188150D01*
X11498396Y-15188150D02*
X11517443Y-15197674D01*
X11517443Y-15197674D02*
X11526967Y-15207198D01*
X11526967Y-15207198D02*
X11536491Y-15226246D01*
X11536491Y-15226246D02*
X11536491Y-15283388D01*
X11536491Y-15283388D02*
X11526967Y-15302436D01*
X11526967Y-15302436D02*
X11517443Y-15311960D01*
X11517443Y-15311960D02*
X11498396Y-15321484D01*
X11498396Y-15321484D02*
X11460301Y-15321484D01*
X11460301Y-15321484D02*
X11441253Y-15311960D01*
X11622205Y-15302436D02*
X11631729Y-15311960D01*
X11631729Y-15311960D02*
X11622205Y-15321484D01*
X11622205Y-15321484D02*
X11612682Y-15311960D01*
X11612682Y-15311960D02*
X11622205Y-15302436D01*
X11622205Y-15302436D02*
X11622205Y-15321484D01*
X11622205Y-15197674D02*
X11631729Y-15207198D01*
X11631729Y-15207198D02*
X11622205Y-15216722D01*
X11622205Y-15216722D02*
X11612682Y-15207198D01*
X11612682Y-15207198D02*
X11622205Y-15197674D01*
X11622205Y-15197674D02*
X11622205Y-15216722D01*
D11*
X9960000Y-15635000D02*
X9990000Y-15665000D01*
X9990000Y-15635000D02*
X9960000Y-15665000D01*
D10*
X10288872Y-15541484D02*
X10307920Y-15541484D01*
X10307920Y-15541484D02*
X10326967Y-15551008D01*
X10326967Y-15551008D02*
X10336491Y-15560531D01*
X10336491Y-15560531D02*
X10346015Y-15579579D01*
X10346015Y-15579579D02*
X10355539Y-15617674D01*
X10355539Y-15617674D02*
X10355539Y-15665293D01*
X10355539Y-15665293D02*
X10346015Y-15703388D01*
X10346015Y-15703388D02*
X10336491Y-15722436D01*
X10336491Y-15722436D02*
X10326967Y-15731960D01*
X10326967Y-15731960D02*
X10307920Y-15741484D01*
X10307920Y-15741484D02*
X10288872Y-15741484D01*
X10288872Y-15741484D02*
X10269824Y-15731960D01*
X10269824Y-15731960D02*
X10260301Y-15722436D01*
X10260301Y-15722436D02*
X10250777Y-15703388D01*
X10250777Y-15703388D02*
X10241253Y-15665293D01*
X10241253Y-15665293D02*
X10241253Y-15617674D01*
X10241253Y-15617674D02*
X10250777Y-15579579D01*
X10250777Y-15579579D02*
X10260301Y-15560531D01*
X10260301Y-15560531D02*
X10269824Y-15551008D01*
X10269824Y-15551008D02*
X10288872Y-15541484D01*
X10441253Y-15722436D02*
X10450777Y-15731960D01*
X10450777Y-15731960D02*
X10441253Y-15741484D01*
X10441253Y-15741484D02*
X10431729Y-15731960D01*
X10431729Y-15731960D02*
X10441253Y-15722436D01*
X10441253Y-15722436D02*
X10441253Y-15741484D01*
X10517444Y-15541484D02*
X10641253Y-15541484D01*
X10641253Y-15541484D02*
X10574586Y-15617674D01*
X10574586Y-15617674D02*
X10603158Y-15617674D01*
X10603158Y-15617674D02*
X10622205Y-15627198D01*
X10622205Y-15627198D02*
X10631729Y-15636722D01*
X10631729Y-15636722D02*
X10641253Y-15655769D01*
X10641253Y-15655769D02*
X10641253Y-15703388D01*
X10641253Y-15703388D02*
X10631729Y-15722436D01*
X10631729Y-15722436D02*
X10622205Y-15731960D01*
X10622205Y-15731960D02*
X10603158Y-15741484D01*
X10603158Y-15741484D02*
X10546015Y-15741484D01*
X10546015Y-15741484D02*
X10526967Y-15731960D01*
X10526967Y-15731960D02*
X10517444Y-15722436D01*
X10765063Y-15541484D02*
X10784110Y-15541484D01*
X10784110Y-15541484D02*
X10803158Y-15551008D01*
X10803158Y-15551008D02*
X10812682Y-15560531D01*
X10812682Y-15560531D02*
X10822205Y-15579579D01*
X10822205Y-15579579D02*
X10831729Y-15617674D01*
X10831729Y-15617674D02*
X10831729Y-15665293D01*
X10831729Y-15665293D02*
X10822205Y-15703388D01*
X10822205Y-15703388D02*
X10812682Y-15722436D01*
X10812682Y-15722436D02*
X10803158Y-15731960D01*
X10803158Y-15731960D02*
X10784110Y-15741484D01*
X10784110Y-15741484D02*
X10765063Y-15741484D01*
X10765063Y-15741484D02*
X10746015Y-15731960D01*
X10746015Y-15731960D02*
X10736491Y-15722436D01*
X10736491Y-15722436D02*
X10726967Y-15703388D01*
X10726967Y-15703388D02*
X10717444Y-15665293D01*
X10717444Y-15665293D02*
X10717444Y-15617674D01*
X10717444Y-15617674D02*
X10726967Y-15579579D01*
X10726967Y-15579579D02*
X10736491Y-15560531D01*
X10736491Y-15560531D02*
X10746015Y-15551008D01*
X10746015Y-15551008D02*
X10765063Y-15541484D01*
X10955539Y-15541484D02*
X10974586Y-15541484D01*
X10974586Y-15541484D02*
X10993634Y-15551008D01*
X10993634Y-15551008D02*
X11003158Y-15560531D01*
X11003158Y-15560531D02*
X11012682Y-15579579D01*
X11012682Y-15579579D02*
X11022205Y-15617674D01*
X11022205Y-15617674D02*
X11022205Y-15665293D01*
X11022205Y-15665293D02*
X11012682Y-15703388D01*
X11012682Y-15703388D02*
X11003158Y-15722436D01*
X11003158Y-15722436D02*
X10993634Y-15731960D01*
X10993634Y-15731960D02*
X10974586Y-15741484D01*
X10974586Y-15741484D02*
X10955539Y-15741484D01*
X10955539Y-15741484D02*
X10936491Y-15731960D01*
X10936491Y-15731960D02*
X10926967Y-15722436D01*
X10926967Y-15722436D02*
X10917444Y-15703388D01*
X10917444Y-15703388D02*
X10907920Y-15665293D01*
X10907920Y-15665293D02*
X10907920Y-15617674D01*
X10907920Y-15617674D02*
X10917444Y-15579579D01*
X10917444Y-15579579D02*
X10926967Y-15560531D01*
X10926967Y-15560531D02*
X10936491Y-15551008D01*
X10936491Y-15551008D02*
X10955539Y-15541484D01*
X11107920Y-15741484D02*
X11107920Y-15608150D01*
X11107920Y-15627198D02*
X11117444Y-15617674D01*
X11117444Y-15617674D02*
X11136491Y-15608150D01*
X11136491Y-15608150D02*
X11165063Y-15608150D01*
X11165063Y-15608150D02*
X11184110Y-15617674D01*
X11184110Y-15617674D02*
X11193634Y-15636722D01*
X11193634Y-15636722D02*
X11193634Y-15741484D01*
X11193634Y-15636722D02*
X11203158Y-15617674D01*
X11203158Y-15617674D02*
X11222205Y-15608150D01*
X11222205Y-15608150D02*
X11250777Y-15608150D01*
X11250777Y-15608150D02*
X11269824Y-15617674D01*
X11269824Y-15617674D02*
X11279348Y-15636722D01*
X11279348Y-15636722D02*
X11279348Y-15741484D01*
X11374586Y-15741484D02*
X11374586Y-15608150D01*
X11374586Y-15627198D02*
X11384110Y-15617674D01*
X11384110Y-15617674D02*
X11403158Y-15608150D01*
X11403158Y-15608150D02*
X11431729Y-15608150D01*
X11431729Y-15608150D02*
X11450777Y-15617674D01*
X11450777Y-15617674D02*
X11460301Y-15636722D01*
X11460301Y-15636722D02*
X11460301Y-15741484D01*
X11460301Y-15636722D02*
X11469824Y-15617674D01*
X11469824Y-15617674D02*
X11488872Y-15608150D01*
X11488872Y-15608150D02*
X11517443Y-15608150D01*
X11517443Y-15608150D02*
X11536491Y-15617674D01*
X11536491Y-15617674D02*
X11546015Y-15636722D01*
X11546015Y-15636722D02*
X11546015Y-15741484D01*
X11936491Y-15531960D02*
X11765063Y-15789103D01*
X12193634Y-15541484D02*
X12212682Y-15541484D01*
X12212682Y-15541484D02*
X12231729Y-15551008D01*
X12231729Y-15551008D02*
X12241253Y-15560531D01*
X12241253Y-15560531D02*
X12250777Y-15579579D01*
X12250777Y-15579579D02*
X12260301Y-15617674D01*
X12260301Y-15617674D02*
X12260301Y-15665293D01*
X12260301Y-15665293D02*
X12250777Y-15703388D01*
X12250777Y-15703388D02*
X12241253Y-15722436D01*
X12241253Y-15722436D02*
X12231729Y-15731960D01*
X12231729Y-15731960D02*
X12212682Y-15741484D01*
X12212682Y-15741484D02*
X12193634Y-15741484D01*
X12193634Y-15741484D02*
X12174586Y-15731960D01*
X12174586Y-15731960D02*
X12165063Y-15722436D01*
X12165063Y-15722436D02*
X12155539Y-15703388D01*
X12155539Y-15703388D02*
X12146015Y-15665293D01*
X12146015Y-15665293D02*
X12146015Y-15617674D01*
X12146015Y-15617674D02*
X12155539Y-15579579D01*
X12155539Y-15579579D02*
X12165063Y-15560531D01*
X12165063Y-15560531D02*
X12174586Y-15551008D01*
X12174586Y-15551008D02*
X12193634Y-15541484D01*
X12346015Y-15722436D02*
X12355539Y-15731960D01*
X12355539Y-15731960D02*
X12346015Y-15741484D01*
X12346015Y-15741484D02*
X12336491Y-15731960D01*
X12336491Y-15731960D02*
X12346015Y-15722436D01*
X12346015Y-15722436D02*
X12346015Y-15741484D01*
X12479348Y-15541484D02*
X12498396Y-15541484D01*
X12498396Y-15541484D02*
X12517444Y-15551008D01*
X12517444Y-15551008D02*
X12526967Y-15560531D01*
X12526967Y-15560531D02*
X12536491Y-15579579D01*
X12536491Y-15579579D02*
X12546015Y-15617674D01*
X12546015Y-15617674D02*
X12546015Y-15665293D01*
X12546015Y-15665293D02*
X12536491Y-15703388D01*
X12536491Y-15703388D02*
X12526967Y-15722436D01*
X12526967Y-15722436D02*
X12517444Y-15731960D01*
X12517444Y-15731960D02*
X12498396Y-15741484D01*
X12498396Y-15741484D02*
X12479348Y-15741484D01*
X12479348Y-15741484D02*
X12460301Y-15731960D01*
X12460301Y-15731960D02*
X12450777Y-15722436D01*
X12450777Y-15722436D02*
X12441253Y-15703388D01*
X12441253Y-15703388D02*
X12431729Y-15665293D01*
X12431729Y-15665293D02*
X12431729Y-15617674D01*
X12431729Y-15617674D02*
X12441253Y-15579579D01*
X12441253Y-15579579D02*
X12450777Y-15560531D01*
X12450777Y-15560531D02*
X12460301Y-15551008D01*
X12460301Y-15551008D02*
X12479348Y-15541484D01*
X12736491Y-15741484D02*
X12622206Y-15741484D01*
X12679348Y-15741484D02*
X12679348Y-15541484D01*
X12679348Y-15541484D02*
X12660301Y-15570055D01*
X12660301Y-15570055D02*
X12641253Y-15589103D01*
X12641253Y-15589103D02*
X12622206Y-15598627D01*
X12926967Y-15741484D02*
X12812682Y-15741484D01*
X12869825Y-15741484D02*
X12869825Y-15541484D01*
X12869825Y-15541484D02*
X12850777Y-15570055D01*
X12850777Y-15570055D02*
X12831729Y-15589103D01*
X12831729Y-15589103D02*
X12812682Y-15598627D01*
X13041253Y-15627198D02*
X13022206Y-15617674D01*
X13022206Y-15617674D02*
X13012682Y-15608150D01*
X13012682Y-15608150D02*
X13003158Y-15589103D01*
X13003158Y-15589103D02*
X13003158Y-15579579D01*
X13003158Y-15579579D02*
X13012682Y-15560531D01*
X13012682Y-15560531D02*
X13022206Y-15551008D01*
X13022206Y-15551008D02*
X13041253Y-15541484D01*
X13041253Y-15541484D02*
X13079348Y-15541484D01*
X13079348Y-15541484D02*
X13098396Y-15551008D01*
X13098396Y-15551008D02*
X13107920Y-15560531D01*
X13107920Y-15560531D02*
X13117444Y-15579579D01*
X13117444Y-15579579D02*
X13117444Y-15589103D01*
X13117444Y-15589103D02*
X13107920Y-15608150D01*
X13107920Y-15608150D02*
X13098396Y-15617674D01*
X13098396Y-15617674D02*
X13079348Y-15627198D01*
X13079348Y-15627198D02*
X13041253Y-15627198D01*
X13041253Y-15627198D02*
X13022206Y-15636722D01*
X13022206Y-15636722D02*
X13012682Y-15646246D01*
X13012682Y-15646246D02*
X13003158Y-15665293D01*
X13003158Y-15665293D02*
X13003158Y-15703388D01*
X13003158Y-15703388D02*
X13012682Y-15722436D01*
X13012682Y-15722436D02*
X13022206Y-15731960D01*
X13022206Y-15731960D02*
X13041253Y-15741484D01*
X13041253Y-15741484D02*
X13079348Y-15741484D01*
X13079348Y-15741484D02*
X13098396Y-15731960D01*
X13098396Y-15731960D02*
X13107920Y-15722436D01*
X13107920Y-15722436D02*
X13117444Y-15703388D01*
X13117444Y-15703388D02*
X13117444Y-15665293D01*
X13117444Y-15665293D02*
X13107920Y-15646246D01*
X13107920Y-15646246D02*
X13098396Y-15636722D01*
X13098396Y-15636722D02*
X13079348Y-15627198D01*
X13193634Y-15541484D02*
X13193634Y-15579579D01*
X13269825Y-15541484D02*
X13269825Y-15579579D01*
X13565063Y-15817674D02*
X13555539Y-15808150D01*
X13555539Y-15808150D02*
X13536491Y-15779579D01*
X13536491Y-15779579D02*
X13526968Y-15760531D01*
X13526968Y-15760531D02*
X13517444Y-15731960D01*
X13517444Y-15731960D02*
X13507920Y-15684341D01*
X13507920Y-15684341D02*
X13507920Y-15646246D01*
X13507920Y-15646246D02*
X13517444Y-15598627D01*
X13517444Y-15598627D02*
X13526968Y-15570055D01*
X13526968Y-15570055D02*
X13536491Y-15551008D01*
X13536491Y-15551008D02*
X13555539Y-15522436D01*
X13555539Y-15522436D02*
X13565063Y-15512912D01*
X13631729Y-15560531D02*
X13641253Y-15551008D01*
X13641253Y-15551008D02*
X13660301Y-15541484D01*
X13660301Y-15541484D02*
X13707920Y-15541484D01*
X13707920Y-15541484D02*
X13726968Y-15551008D01*
X13726968Y-15551008D02*
X13736491Y-15560531D01*
X13736491Y-15560531D02*
X13746015Y-15579579D01*
X13746015Y-15579579D02*
X13746015Y-15598627D01*
X13746015Y-15598627D02*
X13736491Y-15627198D01*
X13736491Y-15627198D02*
X13622206Y-15741484D01*
X13622206Y-15741484D02*
X13746015Y-15741484D01*
X13860301Y-15627198D02*
X13841253Y-15617674D01*
X13841253Y-15617674D02*
X13831729Y-15608150D01*
X13831729Y-15608150D02*
X13822206Y-15589103D01*
X13822206Y-15589103D02*
X13822206Y-15579579D01*
X13822206Y-15579579D02*
X13831729Y-15560531D01*
X13831729Y-15560531D02*
X13841253Y-15551008D01*
X13841253Y-15551008D02*
X13860301Y-15541484D01*
X13860301Y-15541484D02*
X13898396Y-15541484D01*
X13898396Y-15541484D02*
X13917444Y-15551008D01*
X13917444Y-15551008D02*
X13926968Y-15560531D01*
X13926968Y-15560531D02*
X13936491Y-15579579D01*
X13936491Y-15579579D02*
X13936491Y-15589103D01*
X13936491Y-15589103D02*
X13926968Y-15608150D01*
X13926968Y-15608150D02*
X13917444Y-15617674D01*
X13917444Y-15617674D02*
X13898396Y-15627198D01*
X13898396Y-15627198D02*
X13860301Y-15627198D01*
X13860301Y-15627198D02*
X13841253Y-15636722D01*
X13841253Y-15636722D02*
X13831729Y-15646246D01*
X13831729Y-15646246D02*
X13822206Y-15665293D01*
X13822206Y-15665293D02*
X13822206Y-15703388D01*
X13822206Y-15703388D02*
X13831729Y-15722436D01*
X13831729Y-15722436D02*
X13841253Y-15731960D01*
X13841253Y-15731960D02*
X13860301Y-15741484D01*
X13860301Y-15741484D02*
X13898396Y-15741484D01*
X13898396Y-15741484D02*
X13917444Y-15731960D01*
X13917444Y-15731960D02*
X13926968Y-15722436D01*
X13926968Y-15722436D02*
X13936491Y-15703388D01*
X13936491Y-15703388D02*
X13936491Y-15665293D01*
X13936491Y-15665293D02*
X13926968Y-15646246D01*
X13926968Y-15646246D02*
X13917444Y-15636722D01*
X13917444Y-15636722D02*
X13898396Y-15627198D01*
X14174587Y-15741484D02*
X14174587Y-15541484D01*
X14260301Y-15741484D02*
X14260301Y-15636722D01*
X14260301Y-15636722D02*
X14250777Y-15617674D01*
X14250777Y-15617674D02*
X14231730Y-15608150D01*
X14231730Y-15608150D02*
X14203158Y-15608150D01*
X14203158Y-15608150D02*
X14184110Y-15617674D01*
X14184110Y-15617674D02*
X14174587Y-15627198D01*
X14384110Y-15741484D02*
X14365063Y-15731960D01*
X14365063Y-15731960D02*
X14355539Y-15722436D01*
X14355539Y-15722436D02*
X14346015Y-15703388D01*
X14346015Y-15703388D02*
X14346015Y-15646246D01*
X14346015Y-15646246D02*
X14355539Y-15627198D01*
X14355539Y-15627198D02*
X14365063Y-15617674D01*
X14365063Y-15617674D02*
X14384110Y-15608150D01*
X14384110Y-15608150D02*
X14412682Y-15608150D01*
X14412682Y-15608150D02*
X14431730Y-15617674D01*
X14431730Y-15617674D02*
X14441253Y-15627198D01*
X14441253Y-15627198D02*
X14450777Y-15646246D01*
X14450777Y-15646246D02*
X14450777Y-15703388D01*
X14450777Y-15703388D02*
X14441253Y-15722436D01*
X14441253Y-15722436D02*
X14431730Y-15731960D01*
X14431730Y-15731960D02*
X14412682Y-15741484D01*
X14412682Y-15741484D02*
X14384110Y-15741484D01*
X14565063Y-15741484D02*
X14546015Y-15731960D01*
X14546015Y-15731960D02*
X14536491Y-15712912D01*
X14536491Y-15712912D02*
X14536491Y-15541484D01*
X14717444Y-15731960D02*
X14698396Y-15741484D01*
X14698396Y-15741484D02*
X14660301Y-15741484D01*
X14660301Y-15741484D02*
X14641253Y-15731960D01*
X14641253Y-15731960D02*
X14631730Y-15712912D01*
X14631730Y-15712912D02*
X14631730Y-15636722D01*
X14631730Y-15636722D02*
X14641253Y-15617674D01*
X14641253Y-15617674D02*
X14660301Y-15608150D01*
X14660301Y-15608150D02*
X14698396Y-15608150D01*
X14698396Y-15608150D02*
X14717444Y-15617674D01*
X14717444Y-15617674D02*
X14726968Y-15636722D01*
X14726968Y-15636722D02*
X14726968Y-15655769D01*
X14726968Y-15655769D02*
X14631730Y-15674817D01*
X14803158Y-15731960D02*
X14822206Y-15741484D01*
X14822206Y-15741484D02*
X14860301Y-15741484D01*
X14860301Y-15741484D02*
X14879349Y-15731960D01*
X14879349Y-15731960D02*
X14888872Y-15712912D01*
X14888872Y-15712912D02*
X14888872Y-15703388D01*
X14888872Y-15703388D02*
X14879349Y-15684341D01*
X14879349Y-15684341D02*
X14860301Y-15674817D01*
X14860301Y-15674817D02*
X14831730Y-15674817D01*
X14831730Y-15674817D02*
X14812682Y-15665293D01*
X14812682Y-15665293D02*
X14803158Y-15646246D01*
X14803158Y-15646246D02*
X14803158Y-15636722D01*
X14803158Y-15636722D02*
X14812682Y-15617674D01*
X14812682Y-15617674D02*
X14831730Y-15608150D01*
X14831730Y-15608150D02*
X14860301Y-15608150D01*
X14860301Y-15608150D02*
X14879349Y-15617674D01*
X14955539Y-15817674D02*
X14965063Y-15808150D01*
X14965063Y-15808150D02*
X14984111Y-15779579D01*
X14984111Y-15779579D02*
X14993634Y-15760531D01*
X14993634Y-15760531D02*
X15003158Y-15731960D01*
X15003158Y-15731960D02*
X15012682Y-15684341D01*
X15012682Y-15684341D02*
X15012682Y-15646246D01*
X15012682Y-15646246D02*
X15003158Y-15598627D01*
X15003158Y-15598627D02*
X14993634Y-15570055D01*
X14993634Y-15570055D02*
X14984111Y-15551008D01*
X14984111Y-15551008D02*
X14965063Y-15522436D01*
X14965063Y-15522436D02*
X14955539Y-15512912D01*
D11*
X9990000Y-15914000D02*
G75*
G02*
X9950000Y-15914000I-20000J0D01*
G01*
X9950000Y-15914000D02*
G75*
G02*
X9990000Y-15914000I20000J0D01*
G01*
D10*
X10288872Y-15805484D02*
X10307920Y-15805484D01*
X10307920Y-15805484D02*
X10326967Y-15815008D01*
X10326967Y-15815008D02*
X10336491Y-15824531D01*
X10336491Y-15824531D02*
X10346015Y-15843579D01*
X10346015Y-15843579D02*
X10355539Y-15881674D01*
X10355539Y-15881674D02*
X10355539Y-15929293D01*
X10355539Y-15929293D02*
X10346015Y-15967388D01*
X10346015Y-15967388D02*
X10336491Y-15986436D01*
X10336491Y-15986436D02*
X10326967Y-15995960D01*
X10326967Y-15995960D02*
X10307920Y-16005484D01*
X10307920Y-16005484D02*
X10288872Y-16005484D01*
X10288872Y-16005484D02*
X10269824Y-15995960D01*
X10269824Y-15995960D02*
X10260301Y-15986436D01*
X10260301Y-15986436D02*
X10250777Y-15967388D01*
X10250777Y-15967388D02*
X10241253Y-15929293D01*
X10241253Y-15929293D02*
X10241253Y-15881674D01*
X10241253Y-15881674D02*
X10250777Y-15843579D01*
X10250777Y-15843579D02*
X10260301Y-15824531D01*
X10260301Y-15824531D02*
X10269824Y-15815008D01*
X10269824Y-15815008D02*
X10288872Y-15805484D01*
X10441253Y-15986436D02*
X10450777Y-15995960D01*
X10450777Y-15995960D02*
X10441253Y-16005484D01*
X10441253Y-16005484D02*
X10431729Y-15995960D01*
X10431729Y-15995960D02*
X10441253Y-15986436D01*
X10441253Y-15986436D02*
X10441253Y-16005484D01*
X10622205Y-15872150D02*
X10622205Y-16005484D01*
X10574586Y-15795960D02*
X10526967Y-15938817D01*
X10526967Y-15938817D02*
X10650777Y-15938817D01*
X10765063Y-15805484D02*
X10784110Y-15805484D01*
X10784110Y-15805484D02*
X10803158Y-15815008D01*
X10803158Y-15815008D02*
X10812682Y-15824531D01*
X10812682Y-15824531D02*
X10822205Y-15843579D01*
X10822205Y-15843579D02*
X10831729Y-15881674D01*
X10831729Y-15881674D02*
X10831729Y-15929293D01*
X10831729Y-15929293D02*
X10822205Y-15967388D01*
X10822205Y-15967388D02*
X10812682Y-15986436D01*
X10812682Y-15986436D02*
X10803158Y-15995960D01*
X10803158Y-15995960D02*
X10784110Y-16005484D01*
X10784110Y-16005484D02*
X10765063Y-16005484D01*
X10765063Y-16005484D02*
X10746015Y-15995960D01*
X10746015Y-15995960D02*
X10736491Y-15986436D01*
X10736491Y-15986436D02*
X10726967Y-15967388D01*
X10726967Y-15967388D02*
X10717444Y-15929293D01*
X10717444Y-15929293D02*
X10717444Y-15881674D01*
X10717444Y-15881674D02*
X10726967Y-15843579D01*
X10726967Y-15843579D02*
X10736491Y-15824531D01*
X10736491Y-15824531D02*
X10746015Y-15815008D01*
X10746015Y-15815008D02*
X10765063Y-15805484D01*
X10955539Y-15805484D02*
X10974586Y-15805484D01*
X10974586Y-15805484D02*
X10993634Y-15815008D01*
X10993634Y-15815008D02*
X11003158Y-15824531D01*
X11003158Y-15824531D02*
X11012682Y-15843579D01*
X11012682Y-15843579D02*
X11022205Y-15881674D01*
X11022205Y-15881674D02*
X11022205Y-15929293D01*
X11022205Y-15929293D02*
X11012682Y-15967388D01*
X11012682Y-15967388D02*
X11003158Y-15986436D01*
X11003158Y-15986436D02*
X10993634Y-15995960D01*
X10993634Y-15995960D02*
X10974586Y-16005484D01*
X10974586Y-16005484D02*
X10955539Y-16005484D01*
X10955539Y-16005484D02*
X10936491Y-15995960D01*
X10936491Y-15995960D02*
X10926967Y-15986436D01*
X10926967Y-15986436D02*
X10917444Y-15967388D01*
X10917444Y-15967388D02*
X10907920Y-15929293D01*
X10907920Y-15929293D02*
X10907920Y-15881674D01*
X10907920Y-15881674D02*
X10917444Y-15843579D01*
X10917444Y-15843579D02*
X10926967Y-15824531D01*
X10926967Y-15824531D02*
X10936491Y-15815008D01*
X10936491Y-15815008D02*
X10955539Y-15805484D01*
X11107920Y-16005484D02*
X11107920Y-15872150D01*
X11107920Y-15891198D02*
X11117444Y-15881674D01*
X11117444Y-15881674D02*
X11136491Y-15872150D01*
X11136491Y-15872150D02*
X11165063Y-15872150D01*
X11165063Y-15872150D02*
X11184110Y-15881674D01*
X11184110Y-15881674D02*
X11193634Y-15900722D01*
X11193634Y-15900722D02*
X11193634Y-16005484D01*
X11193634Y-15900722D02*
X11203158Y-15881674D01*
X11203158Y-15881674D02*
X11222205Y-15872150D01*
X11222205Y-15872150D02*
X11250777Y-15872150D01*
X11250777Y-15872150D02*
X11269824Y-15881674D01*
X11269824Y-15881674D02*
X11279348Y-15900722D01*
X11279348Y-15900722D02*
X11279348Y-16005484D01*
X11374586Y-16005484D02*
X11374586Y-15872150D01*
X11374586Y-15891198D02*
X11384110Y-15881674D01*
X11384110Y-15881674D02*
X11403158Y-15872150D01*
X11403158Y-15872150D02*
X11431729Y-15872150D01*
X11431729Y-15872150D02*
X11450777Y-15881674D01*
X11450777Y-15881674D02*
X11460301Y-15900722D01*
X11460301Y-15900722D02*
X11460301Y-16005484D01*
X11460301Y-15900722D02*
X11469824Y-15881674D01*
X11469824Y-15881674D02*
X11488872Y-15872150D01*
X11488872Y-15872150D02*
X11517443Y-15872150D01*
X11517443Y-15872150D02*
X11536491Y-15881674D01*
X11536491Y-15881674D02*
X11546015Y-15900722D01*
X11546015Y-15900722D02*
X11546015Y-16005484D01*
X11936491Y-15795960D02*
X11765063Y-16053103D01*
X12193634Y-15805484D02*
X12212682Y-15805484D01*
X12212682Y-15805484D02*
X12231729Y-15815008D01*
X12231729Y-15815008D02*
X12241253Y-15824531D01*
X12241253Y-15824531D02*
X12250777Y-15843579D01*
X12250777Y-15843579D02*
X12260301Y-15881674D01*
X12260301Y-15881674D02*
X12260301Y-15929293D01*
X12260301Y-15929293D02*
X12250777Y-15967388D01*
X12250777Y-15967388D02*
X12241253Y-15986436D01*
X12241253Y-15986436D02*
X12231729Y-15995960D01*
X12231729Y-15995960D02*
X12212682Y-16005484D01*
X12212682Y-16005484D02*
X12193634Y-16005484D01*
X12193634Y-16005484D02*
X12174586Y-15995960D01*
X12174586Y-15995960D02*
X12165063Y-15986436D01*
X12165063Y-15986436D02*
X12155539Y-15967388D01*
X12155539Y-15967388D02*
X12146015Y-15929293D01*
X12146015Y-15929293D02*
X12146015Y-15881674D01*
X12146015Y-15881674D02*
X12155539Y-15843579D01*
X12155539Y-15843579D02*
X12165063Y-15824531D01*
X12165063Y-15824531D02*
X12174586Y-15815008D01*
X12174586Y-15815008D02*
X12193634Y-15805484D01*
X12346015Y-15986436D02*
X12355539Y-15995960D01*
X12355539Y-15995960D02*
X12346015Y-16005484D01*
X12346015Y-16005484D02*
X12336491Y-15995960D01*
X12336491Y-15995960D02*
X12346015Y-15986436D01*
X12346015Y-15986436D02*
X12346015Y-16005484D01*
X12479348Y-15805484D02*
X12498396Y-15805484D01*
X12498396Y-15805484D02*
X12517444Y-15815008D01*
X12517444Y-15815008D02*
X12526967Y-15824531D01*
X12526967Y-15824531D02*
X12536491Y-15843579D01*
X12536491Y-15843579D02*
X12546015Y-15881674D01*
X12546015Y-15881674D02*
X12546015Y-15929293D01*
X12546015Y-15929293D02*
X12536491Y-15967388D01*
X12536491Y-15967388D02*
X12526967Y-15986436D01*
X12526967Y-15986436D02*
X12517444Y-15995960D01*
X12517444Y-15995960D02*
X12498396Y-16005484D01*
X12498396Y-16005484D02*
X12479348Y-16005484D01*
X12479348Y-16005484D02*
X12460301Y-15995960D01*
X12460301Y-15995960D02*
X12450777Y-15986436D01*
X12450777Y-15986436D02*
X12441253Y-15967388D01*
X12441253Y-15967388D02*
X12431729Y-15929293D01*
X12431729Y-15929293D02*
X12431729Y-15881674D01*
X12431729Y-15881674D02*
X12441253Y-15843579D01*
X12441253Y-15843579D02*
X12450777Y-15824531D01*
X12450777Y-15824531D02*
X12460301Y-15815008D01*
X12460301Y-15815008D02*
X12479348Y-15805484D01*
X12736491Y-16005484D02*
X12622206Y-16005484D01*
X12679348Y-16005484D02*
X12679348Y-15805484D01*
X12679348Y-15805484D02*
X12660301Y-15834055D01*
X12660301Y-15834055D02*
X12641253Y-15853103D01*
X12641253Y-15853103D02*
X12622206Y-15862627D01*
X12917444Y-15805484D02*
X12822206Y-15805484D01*
X12822206Y-15805484D02*
X12812682Y-15900722D01*
X12812682Y-15900722D02*
X12822206Y-15891198D01*
X12822206Y-15891198D02*
X12841253Y-15881674D01*
X12841253Y-15881674D02*
X12888872Y-15881674D01*
X12888872Y-15881674D02*
X12907920Y-15891198D01*
X12907920Y-15891198D02*
X12917444Y-15900722D01*
X12917444Y-15900722D02*
X12926967Y-15919769D01*
X12926967Y-15919769D02*
X12926967Y-15967388D01*
X12926967Y-15967388D02*
X12917444Y-15986436D01*
X12917444Y-15986436D02*
X12907920Y-15995960D01*
X12907920Y-15995960D02*
X12888872Y-16005484D01*
X12888872Y-16005484D02*
X12841253Y-16005484D01*
X12841253Y-16005484D02*
X12822206Y-15995960D01*
X12822206Y-15995960D02*
X12812682Y-15986436D01*
X12993634Y-15805484D02*
X13126967Y-15805484D01*
X13126967Y-15805484D02*
X13041253Y-16005484D01*
X13193634Y-15805484D02*
X13193634Y-15843579D01*
X13269825Y-15805484D02*
X13269825Y-15843579D01*
X13565063Y-16081674D02*
X13555539Y-16072150D01*
X13555539Y-16072150D02*
X13536491Y-16043579D01*
X13536491Y-16043579D02*
X13526968Y-16024531D01*
X13526968Y-16024531D02*
X13517444Y-15995960D01*
X13517444Y-15995960D02*
X13507920Y-15948341D01*
X13507920Y-15948341D02*
X13507920Y-15910246D01*
X13507920Y-15910246D02*
X13517444Y-15862627D01*
X13517444Y-15862627D02*
X13526968Y-15834055D01*
X13526968Y-15834055D02*
X13536491Y-15815008D01*
X13536491Y-15815008D02*
X13555539Y-15786436D01*
X13555539Y-15786436D02*
X13565063Y-15776912D01*
X13746015Y-16005484D02*
X13631729Y-16005484D01*
X13688872Y-16005484D02*
X13688872Y-15805484D01*
X13688872Y-15805484D02*
X13669825Y-15834055D01*
X13669825Y-15834055D02*
X13650777Y-15853103D01*
X13650777Y-15853103D02*
X13631729Y-15862627D01*
X13926968Y-15805484D02*
X13831729Y-15805484D01*
X13831729Y-15805484D02*
X13822206Y-15900722D01*
X13822206Y-15900722D02*
X13831729Y-15891198D01*
X13831729Y-15891198D02*
X13850777Y-15881674D01*
X13850777Y-15881674D02*
X13898396Y-15881674D01*
X13898396Y-15881674D02*
X13917444Y-15891198D01*
X13917444Y-15891198D02*
X13926968Y-15900722D01*
X13926968Y-15900722D02*
X13936491Y-15919769D01*
X13936491Y-15919769D02*
X13936491Y-15967388D01*
X13936491Y-15967388D02*
X13926968Y-15986436D01*
X13926968Y-15986436D02*
X13917444Y-15995960D01*
X13917444Y-15995960D02*
X13898396Y-16005484D01*
X13898396Y-16005484D02*
X13850777Y-16005484D01*
X13850777Y-16005484D02*
X13831729Y-15995960D01*
X13831729Y-15995960D02*
X13822206Y-15986436D01*
X14174587Y-16005484D02*
X14174587Y-15805484D01*
X14260301Y-16005484D02*
X14260301Y-15900722D01*
X14260301Y-15900722D02*
X14250777Y-15881674D01*
X14250777Y-15881674D02*
X14231730Y-15872150D01*
X14231730Y-15872150D02*
X14203158Y-15872150D01*
X14203158Y-15872150D02*
X14184110Y-15881674D01*
X14184110Y-15881674D02*
X14174587Y-15891198D01*
X14384110Y-16005484D02*
X14365063Y-15995960D01*
X14365063Y-15995960D02*
X14355539Y-15986436D01*
X14355539Y-15986436D02*
X14346015Y-15967388D01*
X14346015Y-15967388D02*
X14346015Y-15910246D01*
X14346015Y-15910246D02*
X14355539Y-15891198D01*
X14355539Y-15891198D02*
X14365063Y-15881674D01*
X14365063Y-15881674D02*
X14384110Y-15872150D01*
X14384110Y-15872150D02*
X14412682Y-15872150D01*
X14412682Y-15872150D02*
X14431730Y-15881674D01*
X14431730Y-15881674D02*
X14441253Y-15891198D01*
X14441253Y-15891198D02*
X14450777Y-15910246D01*
X14450777Y-15910246D02*
X14450777Y-15967388D01*
X14450777Y-15967388D02*
X14441253Y-15986436D01*
X14441253Y-15986436D02*
X14431730Y-15995960D01*
X14431730Y-15995960D02*
X14412682Y-16005484D01*
X14412682Y-16005484D02*
X14384110Y-16005484D01*
X14565063Y-16005484D02*
X14546015Y-15995960D01*
X14546015Y-15995960D02*
X14536491Y-15976912D01*
X14536491Y-15976912D02*
X14536491Y-15805484D01*
X14717444Y-15995960D02*
X14698396Y-16005484D01*
X14698396Y-16005484D02*
X14660301Y-16005484D01*
X14660301Y-16005484D02*
X14641253Y-15995960D01*
X14641253Y-15995960D02*
X14631730Y-15976912D01*
X14631730Y-15976912D02*
X14631730Y-15900722D01*
X14631730Y-15900722D02*
X14641253Y-15881674D01*
X14641253Y-15881674D02*
X14660301Y-15872150D01*
X14660301Y-15872150D02*
X14698396Y-15872150D01*
X14698396Y-15872150D02*
X14717444Y-15881674D01*
X14717444Y-15881674D02*
X14726968Y-15900722D01*
X14726968Y-15900722D02*
X14726968Y-15919769D01*
X14726968Y-15919769D02*
X14631730Y-15938817D01*
X14803158Y-15995960D02*
X14822206Y-16005484D01*
X14822206Y-16005484D02*
X14860301Y-16005484D01*
X14860301Y-16005484D02*
X14879349Y-15995960D01*
X14879349Y-15995960D02*
X14888872Y-15976912D01*
X14888872Y-15976912D02*
X14888872Y-15967388D01*
X14888872Y-15967388D02*
X14879349Y-15948341D01*
X14879349Y-15948341D02*
X14860301Y-15938817D01*
X14860301Y-15938817D02*
X14831730Y-15938817D01*
X14831730Y-15938817D02*
X14812682Y-15929293D01*
X14812682Y-15929293D02*
X14803158Y-15910246D01*
X14803158Y-15910246D02*
X14803158Y-15900722D01*
X14803158Y-15900722D02*
X14812682Y-15881674D01*
X14812682Y-15881674D02*
X14831730Y-15872150D01*
X14831730Y-15872150D02*
X14860301Y-15872150D01*
X14860301Y-15872150D02*
X14879349Y-15881674D01*
X14955539Y-16081674D02*
X14965063Y-16072150D01*
X14965063Y-16072150D02*
X14984111Y-16043579D01*
X14984111Y-16043579D02*
X14993634Y-16024531D01*
X14993634Y-16024531D02*
X15003158Y-15995960D01*
X15003158Y-15995960D02*
X15012682Y-15948341D01*
X15012682Y-15948341D02*
X15012682Y-15910246D01*
X15012682Y-15910246D02*
X15003158Y-15862627D01*
X15003158Y-15862627D02*
X14993634Y-15834055D01*
X14993634Y-15834055D02*
X14984111Y-15815008D01*
X14984111Y-15815008D02*
X14965063Y-15786436D01*
X14965063Y-15786436D02*
X14955539Y-15776912D01*
D11*
X9945000Y-16133000D02*
X9945000Y-16223000D01*
X9900000Y-16178000D02*
X9990000Y-16178000D01*
D10*
X10288872Y-16069484D02*
X10307920Y-16069484D01*
X10307920Y-16069484D02*
X10326967Y-16079008D01*
X10326967Y-16079008D02*
X10336491Y-16088531D01*
X10336491Y-16088531D02*
X10346015Y-16107579D01*
X10346015Y-16107579D02*
X10355539Y-16145674D01*
X10355539Y-16145674D02*
X10355539Y-16193293D01*
X10355539Y-16193293D02*
X10346015Y-16231388D01*
X10346015Y-16231388D02*
X10336491Y-16250436D01*
X10336491Y-16250436D02*
X10326967Y-16259960D01*
X10326967Y-16259960D02*
X10307920Y-16269484D01*
X10307920Y-16269484D02*
X10288872Y-16269484D01*
X10288872Y-16269484D02*
X10269824Y-16259960D01*
X10269824Y-16259960D02*
X10260301Y-16250436D01*
X10260301Y-16250436D02*
X10250777Y-16231388D01*
X10250777Y-16231388D02*
X10241253Y-16193293D01*
X10241253Y-16193293D02*
X10241253Y-16145674D01*
X10241253Y-16145674D02*
X10250777Y-16107579D01*
X10250777Y-16107579D02*
X10260301Y-16088531D01*
X10260301Y-16088531D02*
X10269824Y-16079008D01*
X10269824Y-16079008D02*
X10288872Y-16069484D01*
X10441253Y-16250436D02*
X10450777Y-16259960D01*
X10450777Y-16259960D02*
X10441253Y-16269484D01*
X10441253Y-16269484D02*
X10431729Y-16259960D01*
X10431729Y-16259960D02*
X10441253Y-16250436D01*
X10441253Y-16250436D02*
X10441253Y-16269484D01*
X10546015Y-16269484D02*
X10584110Y-16269484D01*
X10584110Y-16269484D02*
X10603158Y-16259960D01*
X10603158Y-16259960D02*
X10612682Y-16250436D01*
X10612682Y-16250436D02*
X10631729Y-16221865D01*
X10631729Y-16221865D02*
X10641253Y-16183769D01*
X10641253Y-16183769D02*
X10641253Y-16107579D01*
X10641253Y-16107579D02*
X10631729Y-16088531D01*
X10631729Y-16088531D02*
X10622205Y-16079008D01*
X10622205Y-16079008D02*
X10603158Y-16069484D01*
X10603158Y-16069484D02*
X10565063Y-16069484D01*
X10565063Y-16069484D02*
X10546015Y-16079008D01*
X10546015Y-16079008D02*
X10536491Y-16088531D01*
X10536491Y-16088531D02*
X10526967Y-16107579D01*
X10526967Y-16107579D02*
X10526967Y-16155198D01*
X10526967Y-16155198D02*
X10536491Y-16174246D01*
X10536491Y-16174246D02*
X10546015Y-16183769D01*
X10546015Y-16183769D02*
X10565063Y-16193293D01*
X10565063Y-16193293D02*
X10603158Y-16193293D01*
X10603158Y-16193293D02*
X10622205Y-16183769D01*
X10622205Y-16183769D02*
X10631729Y-16174246D01*
X10631729Y-16174246D02*
X10641253Y-16155198D01*
X10765063Y-16069484D02*
X10784110Y-16069484D01*
X10784110Y-16069484D02*
X10803158Y-16079008D01*
X10803158Y-16079008D02*
X10812682Y-16088531D01*
X10812682Y-16088531D02*
X10822205Y-16107579D01*
X10822205Y-16107579D02*
X10831729Y-16145674D01*
X10831729Y-16145674D02*
X10831729Y-16193293D01*
X10831729Y-16193293D02*
X10822205Y-16231388D01*
X10822205Y-16231388D02*
X10812682Y-16250436D01*
X10812682Y-16250436D02*
X10803158Y-16259960D01*
X10803158Y-16259960D02*
X10784110Y-16269484D01*
X10784110Y-16269484D02*
X10765063Y-16269484D01*
X10765063Y-16269484D02*
X10746015Y-16259960D01*
X10746015Y-16259960D02*
X10736491Y-16250436D01*
X10736491Y-16250436D02*
X10726967Y-16231388D01*
X10726967Y-16231388D02*
X10717444Y-16193293D01*
X10717444Y-16193293D02*
X10717444Y-16145674D01*
X10717444Y-16145674D02*
X10726967Y-16107579D01*
X10726967Y-16107579D02*
X10736491Y-16088531D01*
X10736491Y-16088531D02*
X10746015Y-16079008D01*
X10746015Y-16079008D02*
X10765063Y-16069484D01*
X10955539Y-16069484D02*
X10974586Y-16069484D01*
X10974586Y-16069484D02*
X10993634Y-16079008D01*
X10993634Y-16079008D02*
X11003158Y-16088531D01*
X11003158Y-16088531D02*
X11012682Y-16107579D01*
X11012682Y-16107579D02*
X11022205Y-16145674D01*
X11022205Y-16145674D02*
X11022205Y-16193293D01*
X11022205Y-16193293D02*
X11012682Y-16231388D01*
X11012682Y-16231388D02*
X11003158Y-16250436D01*
X11003158Y-16250436D02*
X10993634Y-16259960D01*
X10993634Y-16259960D02*
X10974586Y-16269484D01*
X10974586Y-16269484D02*
X10955539Y-16269484D01*
X10955539Y-16269484D02*
X10936491Y-16259960D01*
X10936491Y-16259960D02*
X10926967Y-16250436D01*
X10926967Y-16250436D02*
X10917444Y-16231388D01*
X10917444Y-16231388D02*
X10907920Y-16193293D01*
X10907920Y-16193293D02*
X10907920Y-16145674D01*
X10907920Y-16145674D02*
X10917444Y-16107579D01*
X10917444Y-16107579D02*
X10926967Y-16088531D01*
X10926967Y-16088531D02*
X10936491Y-16079008D01*
X10936491Y-16079008D02*
X10955539Y-16069484D01*
X11107920Y-16269484D02*
X11107920Y-16136150D01*
X11107920Y-16155198D02*
X11117444Y-16145674D01*
X11117444Y-16145674D02*
X11136491Y-16136150D01*
X11136491Y-16136150D02*
X11165063Y-16136150D01*
X11165063Y-16136150D02*
X11184110Y-16145674D01*
X11184110Y-16145674D02*
X11193634Y-16164722D01*
X11193634Y-16164722D02*
X11193634Y-16269484D01*
X11193634Y-16164722D02*
X11203158Y-16145674D01*
X11203158Y-16145674D02*
X11222205Y-16136150D01*
X11222205Y-16136150D02*
X11250777Y-16136150D01*
X11250777Y-16136150D02*
X11269824Y-16145674D01*
X11269824Y-16145674D02*
X11279348Y-16164722D01*
X11279348Y-16164722D02*
X11279348Y-16269484D01*
X11374586Y-16269484D02*
X11374586Y-16136150D01*
X11374586Y-16155198D02*
X11384110Y-16145674D01*
X11384110Y-16145674D02*
X11403158Y-16136150D01*
X11403158Y-16136150D02*
X11431729Y-16136150D01*
X11431729Y-16136150D02*
X11450777Y-16145674D01*
X11450777Y-16145674D02*
X11460301Y-16164722D01*
X11460301Y-16164722D02*
X11460301Y-16269484D01*
X11460301Y-16164722D02*
X11469824Y-16145674D01*
X11469824Y-16145674D02*
X11488872Y-16136150D01*
X11488872Y-16136150D02*
X11517443Y-16136150D01*
X11517443Y-16136150D02*
X11536491Y-16145674D01*
X11536491Y-16145674D02*
X11546015Y-16164722D01*
X11546015Y-16164722D02*
X11546015Y-16269484D01*
X11936491Y-16059960D02*
X11765063Y-16317103D01*
X12193634Y-16069484D02*
X12212682Y-16069484D01*
X12212682Y-16069484D02*
X12231729Y-16079008D01*
X12231729Y-16079008D02*
X12241253Y-16088531D01*
X12241253Y-16088531D02*
X12250777Y-16107579D01*
X12250777Y-16107579D02*
X12260301Y-16145674D01*
X12260301Y-16145674D02*
X12260301Y-16193293D01*
X12260301Y-16193293D02*
X12250777Y-16231388D01*
X12250777Y-16231388D02*
X12241253Y-16250436D01*
X12241253Y-16250436D02*
X12231729Y-16259960D01*
X12231729Y-16259960D02*
X12212682Y-16269484D01*
X12212682Y-16269484D02*
X12193634Y-16269484D01*
X12193634Y-16269484D02*
X12174586Y-16259960D01*
X12174586Y-16259960D02*
X12165063Y-16250436D01*
X12165063Y-16250436D02*
X12155539Y-16231388D01*
X12155539Y-16231388D02*
X12146015Y-16193293D01*
X12146015Y-16193293D02*
X12146015Y-16145674D01*
X12146015Y-16145674D02*
X12155539Y-16107579D01*
X12155539Y-16107579D02*
X12165063Y-16088531D01*
X12165063Y-16088531D02*
X12174586Y-16079008D01*
X12174586Y-16079008D02*
X12193634Y-16069484D01*
X12346015Y-16250436D02*
X12355539Y-16259960D01*
X12355539Y-16259960D02*
X12346015Y-16269484D01*
X12346015Y-16269484D02*
X12336491Y-16259960D01*
X12336491Y-16259960D02*
X12346015Y-16250436D01*
X12346015Y-16250436D02*
X12346015Y-16269484D01*
X12479348Y-16069484D02*
X12498396Y-16069484D01*
X12498396Y-16069484D02*
X12517444Y-16079008D01*
X12517444Y-16079008D02*
X12526967Y-16088531D01*
X12526967Y-16088531D02*
X12536491Y-16107579D01*
X12536491Y-16107579D02*
X12546015Y-16145674D01*
X12546015Y-16145674D02*
X12546015Y-16193293D01*
X12546015Y-16193293D02*
X12536491Y-16231388D01*
X12536491Y-16231388D02*
X12526967Y-16250436D01*
X12526967Y-16250436D02*
X12517444Y-16259960D01*
X12517444Y-16259960D02*
X12498396Y-16269484D01*
X12498396Y-16269484D02*
X12479348Y-16269484D01*
X12479348Y-16269484D02*
X12460301Y-16259960D01*
X12460301Y-16259960D02*
X12450777Y-16250436D01*
X12450777Y-16250436D02*
X12441253Y-16231388D01*
X12441253Y-16231388D02*
X12431729Y-16193293D01*
X12431729Y-16193293D02*
X12431729Y-16145674D01*
X12431729Y-16145674D02*
X12441253Y-16107579D01*
X12441253Y-16107579D02*
X12450777Y-16088531D01*
X12450777Y-16088531D02*
X12460301Y-16079008D01*
X12460301Y-16079008D02*
X12479348Y-16069484D01*
X12612682Y-16069484D02*
X12736491Y-16069484D01*
X12736491Y-16069484D02*
X12669825Y-16145674D01*
X12669825Y-16145674D02*
X12698396Y-16145674D01*
X12698396Y-16145674D02*
X12717444Y-16155198D01*
X12717444Y-16155198D02*
X12726967Y-16164722D01*
X12726967Y-16164722D02*
X12736491Y-16183769D01*
X12736491Y-16183769D02*
X12736491Y-16231388D01*
X12736491Y-16231388D02*
X12726967Y-16250436D01*
X12726967Y-16250436D02*
X12717444Y-16259960D01*
X12717444Y-16259960D02*
X12698396Y-16269484D01*
X12698396Y-16269484D02*
X12641253Y-16269484D01*
X12641253Y-16269484D02*
X12622206Y-16259960D01*
X12622206Y-16259960D02*
X12612682Y-16250436D01*
X12917444Y-16069484D02*
X12822206Y-16069484D01*
X12822206Y-16069484D02*
X12812682Y-16164722D01*
X12812682Y-16164722D02*
X12822206Y-16155198D01*
X12822206Y-16155198D02*
X12841253Y-16145674D01*
X12841253Y-16145674D02*
X12888872Y-16145674D01*
X12888872Y-16145674D02*
X12907920Y-16155198D01*
X12907920Y-16155198D02*
X12917444Y-16164722D01*
X12917444Y-16164722D02*
X12926967Y-16183769D01*
X12926967Y-16183769D02*
X12926967Y-16231388D01*
X12926967Y-16231388D02*
X12917444Y-16250436D01*
X12917444Y-16250436D02*
X12907920Y-16259960D01*
X12907920Y-16259960D02*
X12888872Y-16269484D01*
X12888872Y-16269484D02*
X12841253Y-16269484D01*
X12841253Y-16269484D02*
X12822206Y-16259960D01*
X12822206Y-16259960D02*
X12812682Y-16250436D01*
X13098396Y-16136150D02*
X13098396Y-16269484D01*
X13050777Y-16059960D02*
X13003158Y-16202817D01*
X13003158Y-16202817D02*
X13126967Y-16202817D01*
X13193634Y-16069484D02*
X13193634Y-16107579D01*
X13269825Y-16069484D02*
X13269825Y-16107579D01*
X13565063Y-16345674D02*
X13555539Y-16336150D01*
X13555539Y-16336150D02*
X13536491Y-16307579D01*
X13536491Y-16307579D02*
X13526968Y-16288531D01*
X13526968Y-16288531D02*
X13517444Y-16259960D01*
X13517444Y-16259960D02*
X13507920Y-16212341D01*
X13507920Y-16212341D02*
X13507920Y-16174246D01*
X13507920Y-16174246D02*
X13517444Y-16126627D01*
X13517444Y-16126627D02*
X13526968Y-16098055D01*
X13526968Y-16098055D02*
X13536491Y-16079008D01*
X13536491Y-16079008D02*
X13555539Y-16050436D01*
X13555539Y-16050436D02*
X13565063Y-16040912D01*
X13746015Y-16269484D02*
X13631729Y-16269484D01*
X13688872Y-16269484D02*
X13688872Y-16069484D01*
X13688872Y-16069484D02*
X13669825Y-16098055D01*
X13669825Y-16098055D02*
X13650777Y-16117103D01*
X13650777Y-16117103D02*
X13631729Y-16126627D01*
X13822206Y-16088531D02*
X13831729Y-16079008D01*
X13831729Y-16079008D02*
X13850777Y-16069484D01*
X13850777Y-16069484D02*
X13898396Y-16069484D01*
X13898396Y-16069484D02*
X13917444Y-16079008D01*
X13917444Y-16079008D02*
X13926968Y-16088531D01*
X13926968Y-16088531D02*
X13936491Y-16107579D01*
X13936491Y-16107579D02*
X13936491Y-16126627D01*
X13936491Y-16126627D02*
X13926968Y-16155198D01*
X13926968Y-16155198D02*
X13812682Y-16269484D01*
X13812682Y-16269484D02*
X13936491Y-16269484D01*
X14174587Y-16269484D02*
X14174587Y-16069484D01*
X14260301Y-16269484D02*
X14260301Y-16164722D01*
X14260301Y-16164722D02*
X14250777Y-16145674D01*
X14250777Y-16145674D02*
X14231730Y-16136150D01*
X14231730Y-16136150D02*
X14203158Y-16136150D01*
X14203158Y-16136150D02*
X14184110Y-16145674D01*
X14184110Y-16145674D02*
X14174587Y-16155198D01*
X14384110Y-16269484D02*
X14365063Y-16259960D01*
X14365063Y-16259960D02*
X14355539Y-16250436D01*
X14355539Y-16250436D02*
X14346015Y-16231388D01*
X14346015Y-16231388D02*
X14346015Y-16174246D01*
X14346015Y-16174246D02*
X14355539Y-16155198D01*
X14355539Y-16155198D02*
X14365063Y-16145674D01*
X14365063Y-16145674D02*
X14384110Y-16136150D01*
X14384110Y-16136150D02*
X14412682Y-16136150D01*
X14412682Y-16136150D02*
X14431730Y-16145674D01*
X14431730Y-16145674D02*
X14441253Y-16155198D01*
X14441253Y-16155198D02*
X14450777Y-16174246D01*
X14450777Y-16174246D02*
X14450777Y-16231388D01*
X14450777Y-16231388D02*
X14441253Y-16250436D01*
X14441253Y-16250436D02*
X14431730Y-16259960D01*
X14431730Y-16259960D02*
X14412682Y-16269484D01*
X14412682Y-16269484D02*
X14384110Y-16269484D01*
X14565063Y-16269484D02*
X14546015Y-16259960D01*
X14546015Y-16259960D02*
X14536491Y-16240912D01*
X14536491Y-16240912D02*
X14536491Y-16069484D01*
X14717444Y-16259960D02*
X14698396Y-16269484D01*
X14698396Y-16269484D02*
X14660301Y-16269484D01*
X14660301Y-16269484D02*
X14641253Y-16259960D01*
X14641253Y-16259960D02*
X14631730Y-16240912D01*
X14631730Y-16240912D02*
X14631730Y-16164722D01*
X14631730Y-16164722D02*
X14641253Y-16145674D01*
X14641253Y-16145674D02*
X14660301Y-16136150D01*
X14660301Y-16136150D02*
X14698396Y-16136150D01*
X14698396Y-16136150D02*
X14717444Y-16145674D01*
X14717444Y-16145674D02*
X14726968Y-16164722D01*
X14726968Y-16164722D02*
X14726968Y-16183769D01*
X14726968Y-16183769D02*
X14631730Y-16202817D01*
X14803158Y-16259960D02*
X14822206Y-16269484D01*
X14822206Y-16269484D02*
X14860301Y-16269484D01*
X14860301Y-16269484D02*
X14879349Y-16259960D01*
X14879349Y-16259960D02*
X14888872Y-16240912D01*
X14888872Y-16240912D02*
X14888872Y-16231388D01*
X14888872Y-16231388D02*
X14879349Y-16212341D01*
X14879349Y-16212341D02*
X14860301Y-16202817D01*
X14860301Y-16202817D02*
X14831730Y-16202817D01*
X14831730Y-16202817D02*
X14812682Y-16193293D01*
X14812682Y-16193293D02*
X14803158Y-16174246D01*
X14803158Y-16174246D02*
X14803158Y-16164722D01*
X14803158Y-16164722D02*
X14812682Y-16145674D01*
X14812682Y-16145674D02*
X14831730Y-16136150D01*
X14831730Y-16136150D02*
X14860301Y-16136150D01*
X14860301Y-16136150D02*
X14879349Y-16145674D01*
X14955539Y-16345674D02*
X14965063Y-16336150D01*
X14965063Y-16336150D02*
X14984111Y-16307579D01*
X14984111Y-16307579D02*
X14993634Y-16288531D01*
X14993634Y-16288531D02*
X15003158Y-16259960D01*
X15003158Y-16259960D02*
X15012682Y-16212341D01*
X15012682Y-16212341D02*
X15012682Y-16174246D01*
X15012682Y-16174246D02*
X15003158Y-16126627D01*
X15003158Y-16126627D02*
X14993634Y-16098055D01*
X14993634Y-16098055D02*
X14984111Y-16079008D01*
X14984111Y-16079008D02*
X14965063Y-16050436D01*
X14965063Y-16050436D02*
X14955539Y-16040912D01*
D11*
X9975356Y-16477356D02*
X9975356Y-16406644D01*
X9904644Y-16406644D01*
X9904644Y-16477356D01*
X9975356Y-16477356D01*
D10*
X10355539Y-16533484D02*
X10241253Y-16533484D01*
X10298396Y-16533484D02*
X10298396Y-16333484D01*
X10298396Y-16333484D02*
X10279348Y-16362055D01*
X10279348Y-16362055D02*
X10260301Y-16381103D01*
X10260301Y-16381103D02*
X10241253Y-16390627D01*
X10441253Y-16514436D02*
X10450777Y-16523960D01*
X10450777Y-16523960D02*
X10441253Y-16533484D01*
X10441253Y-16533484D02*
X10431729Y-16523960D01*
X10431729Y-16523960D02*
X10441253Y-16514436D01*
X10441253Y-16514436D02*
X10441253Y-16533484D01*
X10574586Y-16333484D02*
X10593634Y-16333484D01*
X10593634Y-16333484D02*
X10612682Y-16343008D01*
X10612682Y-16343008D02*
X10622205Y-16352531D01*
X10622205Y-16352531D02*
X10631729Y-16371579D01*
X10631729Y-16371579D02*
X10641253Y-16409674D01*
X10641253Y-16409674D02*
X10641253Y-16457293D01*
X10641253Y-16457293D02*
X10631729Y-16495388D01*
X10631729Y-16495388D02*
X10622205Y-16514436D01*
X10622205Y-16514436D02*
X10612682Y-16523960D01*
X10612682Y-16523960D02*
X10593634Y-16533484D01*
X10593634Y-16533484D02*
X10574586Y-16533484D01*
X10574586Y-16533484D02*
X10555539Y-16523960D01*
X10555539Y-16523960D02*
X10546015Y-16514436D01*
X10546015Y-16514436D02*
X10536491Y-16495388D01*
X10536491Y-16495388D02*
X10526967Y-16457293D01*
X10526967Y-16457293D02*
X10526967Y-16409674D01*
X10526967Y-16409674D02*
X10536491Y-16371579D01*
X10536491Y-16371579D02*
X10546015Y-16352531D01*
X10546015Y-16352531D02*
X10555539Y-16343008D01*
X10555539Y-16343008D02*
X10574586Y-16333484D01*
X10765063Y-16333484D02*
X10784110Y-16333484D01*
X10784110Y-16333484D02*
X10803158Y-16343008D01*
X10803158Y-16343008D02*
X10812682Y-16352531D01*
X10812682Y-16352531D02*
X10822205Y-16371579D01*
X10822205Y-16371579D02*
X10831729Y-16409674D01*
X10831729Y-16409674D02*
X10831729Y-16457293D01*
X10831729Y-16457293D02*
X10822205Y-16495388D01*
X10822205Y-16495388D02*
X10812682Y-16514436D01*
X10812682Y-16514436D02*
X10803158Y-16523960D01*
X10803158Y-16523960D02*
X10784110Y-16533484D01*
X10784110Y-16533484D02*
X10765063Y-16533484D01*
X10765063Y-16533484D02*
X10746015Y-16523960D01*
X10746015Y-16523960D02*
X10736491Y-16514436D01*
X10736491Y-16514436D02*
X10726967Y-16495388D01*
X10726967Y-16495388D02*
X10717444Y-16457293D01*
X10717444Y-16457293D02*
X10717444Y-16409674D01*
X10717444Y-16409674D02*
X10726967Y-16371579D01*
X10726967Y-16371579D02*
X10736491Y-16352531D01*
X10736491Y-16352531D02*
X10746015Y-16343008D01*
X10746015Y-16343008D02*
X10765063Y-16333484D01*
X10955539Y-16333484D02*
X10974586Y-16333484D01*
X10974586Y-16333484D02*
X10993634Y-16343008D01*
X10993634Y-16343008D02*
X11003158Y-16352531D01*
X11003158Y-16352531D02*
X11012682Y-16371579D01*
X11012682Y-16371579D02*
X11022205Y-16409674D01*
X11022205Y-16409674D02*
X11022205Y-16457293D01*
X11022205Y-16457293D02*
X11012682Y-16495388D01*
X11012682Y-16495388D02*
X11003158Y-16514436D01*
X11003158Y-16514436D02*
X10993634Y-16523960D01*
X10993634Y-16523960D02*
X10974586Y-16533484D01*
X10974586Y-16533484D02*
X10955539Y-16533484D01*
X10955539Y-16533484D02*
X10936491Y-16523960D01*
X10936491Y-16523960D02*
X10926967Y-16514436D01*
X10926967Y-16514436D02*
X10917444Y-16495388D01*
X10917444Y-16495388D02*
X10907920Y-16457293D01*
X10907920Y-16457293D02*
X10907920Y-16409674D01*
X10907920Y-16409674D02*
X10917444Y-16371579D01*
X10917444Y-16371579D02*
X10926967Y-16352531D01*
X10926967Y-16352531D02*
X10936491Y-16343008D01*
X10936491Y-16343008D02*
X10955539Y-16333484D01*
X11107920Y-16533484D02*
X11107920Y-16400150D01*
X11107920Y-16419198D02*
X11117444Y-16409674D01*
X11117444Y-16409674D02*
X11136491Y-16400150D01*
X11136491Y-16400150D02*
X11165063Y-16400150D01*
X11165063Y-16400150D02*
X11184110Y-16409674D01*
X11184110Y-16409674D02*
X11193634Y-16428722D01*
X11193634Y-16428722D02*
X11193634Y-16533484D01*
X11193634Y-16428722D02*
X11203158Y-16409674D01*
X11203158Y-16409674D02*
X11222205Y-16400150D01*
X11222205Y-16400150D02*
X11250777Y-16400150D01*
X11250777Y-16400150D02*
X11269824Y-16409674D01*
X11269824Y-16409674D02*
X11279348Y-16428722D01*
X11279348Y-16428722D02*
X11279348Y-16533484D01*
X11374586Y-16533484D02*
X11374586Y-16400150D01*
X11374586Y-16419198D02*
X11384110Y-16409674D01*
X11384110Y-16409674D02*
X11403158Y-16400150D01*
X11403158Y-16400150D02*
X11431729Y-16400150D01*
X11431729Y-16400150D02*
X11450777Y-16409674D01*
X11450777Y-16409674D02*
X11460301Y-16428722D01*
X11460301Y-16428722D02*
X11460301Y-16533484D01*
X11460301Y-16428722D02*
X11469824Y-16409674D01*
X11469824Y-16409674D02*
X11488872Y-16400150D01*
X11488872Y-16400150D02*
X11517443Y-16400150D01*
X11517443Y-16400150D02*
X11536491Y-16409674D01*
X11536491Y-16409674D02*
X11546015Y-16428722D01*
X11546015Y-16428722D02*
X11546015Y-16533484D01*
X11936491Y-16323960D02*
X11765063Y-16581103D01*
X12193634Y-16333484D02*
X12212682Y-16333484D01*
X12212682Y-16333484D02*
X12231729Y-16343008D01*
X12231729Y-16343008D02*
X12241253Y-16352531D01*
X12241253Y-16352531D02*
X12250777Y-16371579D01*
X12250777Y-16371579D02*
X12260301Y-16409674D01*
X12260301Y-16409674D02*
X12260301Y-16457293D01*
X12260301Y-16457293D02*
X12250777Y-16495388D01*
X12250777Y-16495388D02*
X12241253Y-16514436D01*
X12241253Y-16514436D02*
X12231729Y-16523960D01*
X12231729Y-16523960D02*
X12212682Y-16533484D01*
X12212682Y-16533484D02*
X12193634Y-16533484D01*
X12193634Y-16533484D02*
X12174586Y-16523960D01*
X12174586Y-16523960D02*
X12165063Y-16514436D01*
X12165063Y-16514436D02*
X12155539Y-16495388D01*
X12155539Y-16495388D02*
X12146015Y-16457293D01*
X12146015Y-16457293D02*
X12146015Y-16409674D01*
X12146015Y-16409674D02*
X12155539Y-16371579D01*
X12155539Y-16371579D02*
X12165063Y-16352531D01*
X12165063Y-16352531D02*
X12174586Y-16343008D01*
X12174586Y-16343008D02*
X12193634Y-16333484D01*
X12346015Y-16514436D02*
X12355539Y-16523960D01*
X12355539Y-16523960D02*
X12346015Y-16533484D01*
X12346015Y-16533484D02*
X12336491Y-16523960D01*
X12336491Y-16523960D02*
X12346015Y-16514436D01*
X12346015Y-16514436D02*
X12346015Y-16533484D01*
X12479348Y-16333484D02*
X12498396Y-16333484D01*
X12498396Y-16333484D02*
X12517444Y-16343008D01*
X12517444Y-16343008D02*
X12526967Y-16352531D01*
X12526967Y-16352531D02*
X12536491Y-16371579D01*
X12536491Y-16371579D02*
X12546015Y-16409674D01*
X12546015Y-16409674D02*
X12546015Y-16457293D01*
X12546015Y-16457293D02*
X12536491Y-16495388D01*
X12536491Y-16495388D02*
X12526967Y-16514436D01*
X12526967Y-16514436D02*
X12517444Y-16523960D01*
X12517444Y-16523960D02*
X12498396Y-16533484D01*
X12498396Y-16533484D02*
X12479348Y-16533484D01*
X12479348Y-16533484D02*
X12460301Y-16523960D01*
X12460301Y-16523960D02*
X12450777Y-16514436D01*
X12450777Y-16514436D02*
X12441253Y-16495388D01*
X12441253Y-16495388D02*
X12431729Y-16457293D01*
X12431729Y-16457293D02*
X12431729Y-16409674D01*
X12431729Y-16409674D02*
X12441253Y-16371579D01*
X12441253Y-16371579D02*
X12450777Y-16352531D01*
X12450777Y-16352531D02*
X12460301Y-16343008D01*
X12460301Y-16343008D02*
X12479348Y-16333484D01*
X12612682Y-16333484D02*
X12736491Y-16333484D01*
X12736491Y-16333484D02*
X12669825Y-16409674D01*
X12669825Y-16409674D02*
X12698396Y-16409674D01*
X12698396Y-16409674D02*
X12717444Y-16419198D01*
X12717444Y-16419198D02*
X12726967Y-16428722D01*
X12726967Y-16428722D02*
X12736491Y-16447769D01*
X12736491Y-16447769D02*
X12736491Y-16495388D01*
X12736491Y-16495388D02*
X12726967Y-16514436D01*
X12726967Y-16514436D02*
X12717444Y-16523960D01*
X12717444Y-16523960D02*
X12698396Y-16533484D01*
X12698396Y-16533484D02*
X12641253Y-16533484D01*
X12641253Y-16533484D02*
X12622206Y-16523960D01*
X12622206Y-16523960D02*
X12612682Y-16514436D01*
X12831729Y-16533484D02*
X12869825Y-16533484D01*
X12869825Y-16533484D02*
X12888872Y-16523960D01*
X12888872Y-16523960D02*
X12898396Y-16514436D01*
X12898396Y-16514436D02*
X12917444Y-16485865D01*
X12917444Y-16485865D02*
X12926967Y-16447769D01*
X12926967Y-16447769D02*
X12926967Y-16371579D01*
X12926967Y-16371579D02*
X12917444Y-16352531D01*
X12917444Y-16352531D02*
X12907920Y-16343008D01*
X12907920Y-16343008D02*
X12888872Y-16333484D01*
X12888872Y-16333484D02*
X12850777Y-16333484D01*
X12850777Y-16333484D02*
X12831729Y-16343008D01*
X12831729Y-16343008D02*
X12822206Y-16352531D01*
X12822206Y-16352531D02*
X12812682Y-16371579D01*
X12812682Y-16371579D02*
X12812682Y-16419198D01*
X12812682Y-16419198D02*
X12822206Y-16438246D01*
X12822206Y-16438246D02*
X12831729Y-16447769D01*
X12831729Y-16447769D02*
X12850777Y-16457293D01*
X12850777Y-16457293D02*
X12888872Y-16457293D01*
X12888872Y-16457293D02*
X12907920Y-16447769D01*
X12907920Y-16447769D02*
X12917444Y-16438246D01*
X12917444Y-16438246D02*
X12926967Y-16419198D01*
X13098396Y-16400150D02*
X13098396Y-16533484D01*
X13050777Y-16323960D02*
X13003158Y-16466817D01*
X13003158Y-16466817D02*
X13126967Y-16466817D01*
X13193634Y-16333484D02*
X13193634Y-16371579D01*
X13269825Y-16333484D02*
X13269825Y-16371579D01*
X13565063Y-16609674D02*
X13555539Y-16600150D01*
X13555539Y-16600150D02*
X13536491Y-16571579D01*
X13536491Y-16571579D02*
X13526968Y-16552531D01*
X13526968Y-16552531D02*
X13517444Y-16523960D01*
X13517444Y-16523960D02*
X13507920Y-16476341D01*
X13507920Y-16476341D02*
X13507920Y-16438246D01*
X13507920Y-16438246D02*
X13517444Y-16390627D01*
X13517444Y-16390627D02*
X13526968Y-16362055D01*
X13526968Y-16362055D02*
X13536491Y-16343008D01*
X13536491Y-16343008D02*
X13555539Y-16314436D01*
X13555539Y-16314436D02*
X13565063Y-16304912D01*
X13622206Y-16333484D02*
X13755539Y-16333484D01*
X13755539Y-16333484D02*
X13669825Y-16533484D01*
X13936491Y-16533484D02*
X13822206Y-16533484D01*
X13879348Y-16533484D02*
X13879348Y-16333484D01*
X13879348Y-16333484D02*
X13860301Y-16362055D01*
X13860301Y-16362055D02*
X13841253Y-16381103D01*
X13841253Y-16381103D02*
X13822206Y-16390627D01*
X14174587Y-16533484D02*
X14174587Y-16333484D01*
X14260301Y-16533484D02*
X14260301Y-16428722D01*
X14260301Y-16428722D02*
X14250777Y-16409674D01*
X14250777Y-16409674D02*
X14231730Y-16400150D01*
X14231730Y-16400150D02*
X14203158Y-16400150D01*
X14203158Y-16400150D02*
X14184110Y-16409674D01*
X14184110Y-16409674D02*
X14174587Y-16419198D01*
X14384110Y-16533484D02*
X14365063Y-16523960D01*
X14365063Y-16523960D02*
X14355539Y-16514436D01*
X14355539Y-16514436D02*
X14346015Y-16495388D01*
X14346015Y-16495388D02*
X14346015Y-16438246D01*
X14346015Y-16438246D02*
X14355539Y-16419198D01*
X14355539Y-16419198D02*
X14365063Y-16409674D01*
X14365063Y-16409674D02*
X14384110Y-16400150D01*
X14384110Y-16400150D02*
X14412682Y-16400150D01*
X14412682Y-16400150D02*
X14431730Y-16409674D01*
X14431730Y-16409674D02*
X14441253Y-16419198D01*
X14441253Y-16419198D02*
X14450777Y-16438246D01*
X14450777Y-16438246D02*
X14450777Y-16495388D01*
X14450777Y-16495388D02*
X14441253Y-16514436D01*
X14441253Y-16514436D02*
X14431730Y-16523960D01*
X14431730Y-16523960D02*
X14412682Y-16533484D01*
X14412682Y-16533484D02*
X14384110Y-16533484D01*
X14565063Y-16533484D02*
X14546015Y-16523960D01*
X14546015Y-16523960D02*
X14536491Y-16504912D01*
X14536491Y-16504912D02*
X14536491Y-16333484D01*
X14717444Y-16523960D02*
X14698396Y-16533484D01*
X14698396Y-16533484D02*
X14660301Y-16533484D01*
X14660301Y-16533484D02*
X14641253Y-16523960D01*
X14641253Y-16523960D02*
X14631730Y-16504912D01*
X14631730Y-16504912D02*
X14631730Y-16428722D01*
X14631730Y-16428722D02*
X14641253Y-16409674D01*
X14641253Y-16409674D02*
X14660301Y-16400150D01*
X14660301Y-16400150D02*
X14698396Y-16400150D01*
X14698396Y-16400150D02*
X14717444Y-16409674D01*
X14717444Y-16409674D02*
X14726968Y-16428722D01*
X14726968Y-16428722D02*
X14726968Y-16447769D01*
X14726968Y-16447769D02*
X14631730Y-16466817D01*
X14803158Y-16523960D02*
X14822206Y-16533484D01*
X14822206Y-16533484D02*
X14860301Y-16533484D01*
X14860301Y-16533484D02*
X14879349Y-16523960D01*
X14879349Y-16523960D02*
X14888872Y-16504912D01*
X14888872Y-16504912D02*
X14888872Y-16495388D01*
X14888872Y-16495388D02*
X14879349Y-16476341D01*
X14879349Y-16476341D02*
X14860301Y-16466817D01*
X14860301Y-16466817D02*
X14831730Y-16466817D01*
X14831730Y-16466817D02*
X14812682Y-16457293D01*
X14812682Y-16457293D02*
X14803158Y-16438246D01*
X14803158Y-16438246D02*
X14803158Y-16428722D01*
X14803158Y-16428722D02*
X14812682Y-16409674D01*
X14812682Y-16409674D02*
X14831730Y-16400150D01*
X14831730Y-16400150D02*
X14860301Y-16400150D01*
X14860301Y-16400150D02*
X14879349Y-16409674D01*
X14955539Y-16609674D02*
X14965063Y-16600150D01*
X14965063Y-16600150D02*
X14984111Y-16571579D01*
X14984111Y-16571579D02*
X14993634Y-16552531D01*
X14993634Y-16552531D02*
X15003158Y-16523960D01*
X15003158Y-16523960D02*
X15012682Y-16476341D01*
X15012682Y-16476341D02*
X15012682Y-16438246D01*
X15012682Y-16438246D02*
X15003158Y-16390627D01*
X15003158Y-16390627D02*
X14993634Y-16362055D01*
X14993634Y-16362055D02*
X14984111Y-16343008D01*
X14984111Y-16343008D02*
X14965063Y-16314436D01*
X14965063Y-16314436D02*
X14955539Y-16304912D01*
D12*
X9920150Y-16775850D02*
X9990000Y-16706000D01*
X9920150Y-16636150D01*
X9850300Y-16706000D01*
X9920150Y-16775850D01*
D10*
X10355539Y-16797484D02*
X10241253Y-16797484D01*
X10298396Y-16797484D02*
X10298396Y-16597484D01*
X10298396Y-16597484D02*
X10279348Y-16626055D01*
X10279348Y-16626055D02*
X10260301Y-16645103D01*
X10260301Y-16645103D02*
X10241253Y-16654627D01*
X10441253Y-16778436D02*
X10450777Y-16787960D01*
X10450777Y-16787960D02*
X10441253Y-16797484D01*
X10441253Y-16797484D02*
X10431729Y-16787960D01*
X10431729Y-16787960D02*
X10441253Y-16778436D01*
X10441253Y-16778436D02*
X10441253Y-16797484D01*
X10517444Y-16597484D02*
X10641253Y-16597484D01*
X10641253Y-16597484D02*
X10574586Y-16673674D01*
X10574586Y-16673674D02*
X10603158Y-16673674D01*
X10603158Y-16673674D02*
X10622205Y-16683198D01*
X10622205Y-16683198D02*
X10631729Y-16692722D01*
X10631729Y-16692722D02*
X10641253Y-16711769D01*
X10641253Y-16711769D02*
X10641253Y-16759388D01*
X10641253Y-16759388D02*
X10631729Y-16778436D01*
X10631729Y-16778436D02*
X10622205Y-16787960D01*
X10622205Y-16787960D02*
X10603158Y-16797484D01*
X10603158Y-16797484D02*
X10546015Y-16797484D01*
X10546015Y-16797484D02*
X10526967Y-16787960D01*
X10526967Y-16787960D02*
X10517444Y-16778436D01*
X10736491Y-16797484D02*
X10774586Y-16797484D01*
X10774586Y-16797484D02*
X10793634Y-16787960D01*
X10793634Y-16787960D02*
X10803158Y-16778436D01*
X10803158Y-16778436D02*
X10822205Y-16749865D01*
X10822205Y-16749865D02*
X10831729Y-16711769D01*
X10831729Y-16711769D02*
X10831729Y-16635579D01*
X10831729Y-16635579D02*
X10822205Y-16616531D01*
X10822205Y-16616531D02*
X10812682Y-16607008D01*
X10812682Y-16607008D02*
X10793634Y-16597484D01*
X10793634Y-16597484D02*
X10755539Y-16597484D01*
X10755539Y-16597484D02*
X10736491Y-16607008D01*
X10736491Y-16607008D02*
X10726967Y-16616531D01*
X10726967Y-16616531D02*
X10717444Y-16635579D01*
X10717444Y-16635579D02*
X10717444Y-16683198D01*
X10717444Y-16683198D02*
X10726967Y-16702246D01*
X10726967Y-16702246D02*
X10736491Y-16711769D01*
X10736491Y-16711769D02*
X10755539Y-16721293D01*
X10755539Y-16721293D02*
X10793634Y-16721293D01*
X10793634Y-16721293D02*
X10812682Y-16711769D01*
X10812682Y-16711769D02*
X10822205Y-16702246D01*
X10822205Y-16702246D02*
X10831729Y-16683198D01*
X10898396Y-16597484D02*
X11031729Y-16597484D01*
X11031729Y-16597484D02*
X10946015Y-16797484D01*
X11107920Y-16797484D02*
X11107920Y-16664150D01*
X11107920Y-16683198D02*
X11117444Y-16673674D01*
X11117444Y-16673674D02*
X11136491Y-16664150D01*
X11136491Y-16664150D02*
X11165063Y-16664150D01*
X11165063Y-16664150D02*
X11184110Y-16673674D01*
X11184110Y-16673674D02*
X11193634Y-16692722D01*
X11193634Y-16692722D02*
X11193634Y-16797484D01*
X11193634Y-16692722D02*
X11203158Y-16673674D01*
X11203158Y-16673674D02*
X11222205Y-16664150D01*
X11222205Y-16664150D02*
X11250777Y-16664150D01*
X11250777Y-16664150D02*
X11269824Y-16673674D01*
X11269824Y-16673674D02*
X11279348Y-16692722D01*
X11279348Y-16692722D02*
X11279348Y-16797484D01*
X11374586Y-16797484D02*
X11374586Y-16664150D01*
X11374586Y-16683198D02*
X11384110Y-16673674D01*
X11384110Y-16673674D02*
X11403158Y-16664150D01*
X11403158Y-16664150D02*
X11431729Y-16664150D01*
X11431729Y-16664150D02*
X11450777Y-16673674D01*
X11450777Y-16673674D02*
X11460301Y-16692722D01*
X11460301Y-16692722D02*
X11460301Y-16797484D01*
X11460301Y-16692722D02*
X11469824Y-16673674D01*
X11469824Y-16673674D02*
X11488872Y-16664150D01*
X11488872Y-16664150D02*
X11517443Y-16664150D01*
X11517443Y-16664150D02*
X11536491Y-16673674D01*
X11536491Y-16673674D02*
X11546015Y-16692722D01*
X11546015Y-16692722D02*
X11546015Y-16797484D01*
X11936491Y-16587960D02*
X11765063Y-16845103D01*
X12193634Y-16597484D02*
X12212682Y-16597484D01*
X12212682Y-16597484D02*
X12231729Y-16607008D01*
X12231729Y-16607008D02*
X12241253Y-16616531D01*
X12241253Y-16616531D02*
X12250777Y-16635579D01*
X12250777Y-16635579D02*
X12260301Y-16673674D01*
X12260301Y-16673674D02*
X12260301Y-16721293D01*
X12260301Y-16721293D02*
X12250777Y-16759388D01*
X12250777Y-16759388D02*
X12241253Y-16778436D01*
X12241253Y-16778436D02*
X12231729Y-16787960D01*
X12231729Y-16787960D02*
X12212682Y-16797484D01*
X12212682Y-16797484D02*
X12193634Y-16797484D01*
X12193634Y-16797484D02*
X12174586Y-16787960D01*
X12174586Y-16787960D02*
X12165063Y-16778436D01*
X12165063Y-16778436D02*
X12155539Y-16759388D01*
X12155539Y-16759388D02*
X12146015Y-16721293D01*
X12146015Y-16721293D02*
X12146015Y-16673674D01*
X12146015Y-16673674D02*
X12155539Y-16635579D01*
X12155539Y-16635579D02*
X12165063Y-16616531D01*
X12165063Y-16616531D02*
X12174586Y-16607008D01*
X12174586Y-16607008D02*
X12193634Y-16597484D01*
X12346015Y-16778436D02*
X12355539Y-16787960D01*
X12355539Y-16787960D02*
X12346015Y-16797484D01*
X12346015Y-16797484D02*
X12336491Y-16787960D01*
X12336491Y-16787960D02*
X12346015Y-16778436D01*
X12346015Y-16778436D02*
X12346015Y-16797484D01*
X12479348Y-16597484D02*
X12498396Y-16597484D01*
X12498396Y-16597484D02*
X12517444Y-16607008D01*
X12517444Y-16607008D02*
X12526967Y-16616531D01*
X12526967Y-16616531D02*
X12536491Y-16635579D01*
X12536491Y-16635579D02*
X12546015Y-16673674D01*
X12546015Y-16673674D02*
X12546015Y-16721293D01*
X12546015Y-16721293D02*
X12536491Y-16759388D01*
X12536491Y-16759388D02*
X12526967Y-16778436D01*
X12526967Y-16778436D02*
X12517444Y-16787960D01*
X12517444Y-16787960D02*
X12498396Y-16797484D01*
X12498396Y-16797484D02*
X12479348Y-16797484D01*
X12479348Y-16797484D02*
X12460301Y-16787960D01*
X12460301Y-16787960D02*
X12450777Y-16778436D01*
X12450777Y-16778436D02*
X12441253Y-16759388D01*
X12441253Y-16759388D02*
X12431729Y-16721293D01*
X12431729Y-16721293D02*
X12431729Y-16673674D01*
X12431729Y-16673674D02*
X12441253Y-16635579D01*
X12441253Y-16635579D02*
X12450777Y-16616531D01*
X12450777Y-16616531D02*
X12460301Y-16607008D01*
X12460301Y-16607008D02*
X12479348Y-16597484D01*
X12726967Y-16597484D02*
X12631729Y-16597484D01*
X12631729Y-16597484D02*
X12622206Y-16692722D01*
X12622206Y-16692722D02*
X12631729Y-16683198D01*
X12631729Y-16683198D02*
X12650777Y-16673674D01*
X12650777Y-16673674D02*
X12698396Y-16673674D01*
X12698396Y-16673674D02*
X12717444Y-16683198D01*
X12717444Y-16683198D02*
X12726967Y-16692722D01*
X12726967Y-16692722D02*
X12736491Y-16711769D01*
X12736491Y-16711769D02*
X12736491Y-16759388D01*
X12736491Y-16759388D02*
X12726967Y-16778436D01*
X12726967Y-16778436D02*
X12717444Y-16787960D01*
X12717444Y-16787960D02*
X12698396Y-16797484D01*
X12698396Y-16797484D02*
X12650777Y-16797484D01*
X12650777Y-16797484D02*
X12631729Y-16787960D01*
X12631729Y-16787960D02*
X12622206Y-16778436D01*
X12917444Y-16597484D02*
X12822206Y-16597484D01*
X12822206Y-16597484D02*
X12812682Y-16692722D01*
X12812682Y-16692722D02*
X12822206Y-16683198D01*
X12822206Y-16683198D02*
X12841253Y-16673674D01*
X12841253Y-16673674D02*
X12888872Y-16673674D01*
X12888872Y-16673674D02*
X12907920Y-16683198D01*
X12907920Y-16683198D02*
X12917444Y-16692722D01*
X12917444Y-16692722D02*
X12926967Y-16711769D01*
X12926967Y-16711769D02*
X12926967Y-16759388D01*
X12926967Y-16759388D02*
X12917444Y-16778436D01*
X12917444Y-16778436D02*
X12907920Y-16787960D01*
X12907920Y-16787960D02*
X12888872Y-16797484D01*
X12888872Y-16797484D02*
X12841253Y-16797484D01*
X12841253Y-16797484D02*
X12822206Y-16787960D01*
X12822206Y-16787960D02*
X12812682Y-16778436D01*
X13050777Y-16597484D02*
X13069825Y-16597484D01*
X13069825Y-16597484D02*
X13088872Y-16607008D01*
X13088872Y-16607008D02*
X13098396Y-16616531D01*
X13098396Y-16616531D02*
X13107920Y-16635579D01*
X13107920Y-16635579D02*
X13117444Y-16673674D01*
X13117444Y-16673674D02*
X13117444Y-16721293D01*
X13117444Y-16721293D02*
X13107920Y-16759388D01*
X13107920Y-16759388D02*
X13098396Y-16778436D01*
X13098396Y-16778436D02*
X13088872Y-16787960D01*
X13088872Y-16787960D02*
X13069825Y-16797484D01*
X13069825Y-16797484D02*
X13050777Y-16797484D01*
X13050777Y-16797484D02*
X13031729Y-16787960D01*
X13031729Y-16787960D02*
X13022206Y-16778436D01*
X13022206Y-16778436D02*
X13012682Y-16759388D01*
X13012682Y-16759388D02*
X13003158Y-16721293D01*
X13003158Y-16721293D02*
X13003158Y-16673674D01*
X13003158Y-16673674D02*
X13012682Y-16635579D01*
X13012682Y-16635579D02*
X13022206Y-16616531D01*
X13022206Y-16616531D02*
X13031729Y-16607008D01*
X13031729Y-16607008D02*
X13050777Y-16597484D01*
X13193634Y-16597484D02*
X13193634Y-16635579D01*
X13269825Y-16597484D02*
X13269825Y-16635579D01*
X13565063Y-16873674D02*
X13555539Y-16864150D01*
X13555539Y-16864150D02*
X13536491Y-16835579D01*
X13536491Y-16835579D02*
X13526968Y-16816531D01*
X13526968Y-16816531D02*
X13517444Y-16787960D01*
X13517444Y-16787960D02*
X13507920Y-16740341D01*
X13507920Y-16740341D02*
X13507920Y-16702246D01*
X13507920Y-16702246D02*
X13517444Y-16654627D01*
X13517444Y-16654627D02*
X13526968Y-16626055D01*
X13526968Y-16626055D02*
X13536491Y-16607008D01*
X13536491Y-16607008D02*
X13555539Y-16578436D01*
X13555539Y-16578436D02*
X13565063Y-16568912D01*
X13736491Y-16597484D02*
X13641253Y-16597484D01*
X13641253Y-16597484D02*
X13631729Y-16692722D01*
X13631729Y-16692722D02*
X13641253Y-16683198D01*
X13641253Y-16683198D02*
X13660301Y-16673674D01*
X13660301Y-16673674D02*
X13707920Y-16673674D01*
X13707920Y-16673674D02*
X13726968Y-16683198D01*
X13726968Y-16683198D02*
X13736491Y-16692722D01*
X13736491Y-16692722D02*
X13746015Y-16711769D01*
X13746015Y-16711769D02*
X13746015Y-16759388D01*
X13746015Y-16759388D02*
X13736491Y-16778436D01*
X13736491Y-16778436D02*
X13726968Y-16787960D01*
X13726968Y-16787960D02*
X13707920Y-16797484D01*
X13707920Y-16797484D02*
X13660301Y-16797484D01*
X13660301Y-16797484D02*
X13641253Y-16787960D01*
X13641253Y-16787960D02*
X13631729Y-16778436D01*
X13984110Y-16797484D02*
X13984110Y-16597484D01*
X14069825Y-16797484D02*
X14069825Y-16692722D01*
X14069825Y-16692722D02*
X14060301Y-16673674D01*
X14060301Y-16673674D02*
X14041253Y-16664150D01*
X14041253Y-16664150D02*
X14012682Y-16664150D01*
X14012682Y-16664150D02*
X13993634Y-16673674D01*
X13993634Y-16673674D02*
X13984110Y-16683198D01*
X14193634Y-16797484D02*
X14174587Y-16787960D01*
X14174587Y-16787960D02*
X14165063Y-16778436D01*
X14165063Y-16778436D02*
X14155539Y-16759388D01*
X14155539Y-16759388D02*
X14155539Y-16702246D01*
X14155539Y-16702246D02*
X14165063Y-16683198D01*
X14165063Y-16683198D02*
X14174587Y-16673674D01*
X14174587Y-16673674D02*
X14193634Y-16664150D01*
X14193634Y-16664150D02*
X14222206Y-16664150D01*
X14222206Y-16664150D02*
X14241253Y-16673674D01*
X14241253Y-16673674D02*
X14250777Y-16683198D01*
X14250777Y-16683198D02*
X14260301Y-16702246D01*
X14260301Y-16702246D02*
X14260301Y-16759388D01*
X14260301Y-16759388D02*
X14250777Y-16778436D01*
X14250777Y-16778436D02*
X14241253Y-16787960D01*
X14241253Y-16787960D02*
X14222206Y-16797484D01*
X14222206Y-16797484D02*
X14193634Y-16797484D01*
X14374587Y-16797484D02*
X14355539Y-16787960D01*
X14355539Y-16787960D02*
X14346015Y-16768912D01*
X14346015Y-16768912D02*
X14346015Y-16597484D01*
X14526968Y-16787960D02*
X14507920Y-16797484D01*
X14507920Y-16797484D02*
X14469825Y-16797484D01*
X14469825Y-16797484D02*
X14450777Y-16787960D01*
X14450777Y-16787960D02*
X14441253Y-16768912D01*
X14441253Y-16768912D02*
X14441253Y-16692722D01*
X14441253Y-16692722D02*
X14450777Y-16673674D01*
X14450777Y-16673674D02*
X14469825Y-16664150D01*
X14469825Y-16664150D02*
X14507920Y-16664150D01*
X14507920Y-16664150D02*
X14526968Y-16673674D01*
X14526968Y-16673674D02*
X14536491Y-16692722D01*
X14536491Y-16692722D02*
X14536491Y-16711769D01*
X14536491Y-16711769D02*
X14441253Y-16730817D01*
X14612682Y-16787960D02*
X14631730Y-16797484D01*
X14631730Y-16797484D02*
X14669825Y-16797484D01*
X14669825Y-16797484D02*
X14688872Y-16787960D01*
X14688872Y-16787960D02*
X14698396Y-16768912D01*
X14698396Y-16768912D02*
X14698396Y-16759388D01*
X14698396Y-16759388D02*
X14688872Y-16740341D01*
X14688872Y-16740341D02*
X14669825Y-16730817D01*
X14669825Y-16730817D02*
X14641253Y-16730817D01*
X14641253Y-16730817D02*
X14622206Y-16721293D01*
X14622206Y-16721293D02*
X14612682Y-16702246D01*
X14612682Y-16702246D02*
X14612682Y-16692722D01*
X14612682Y-16692722D02*
X14622206Y-16673674D01*
X14622206Y-16673674D02*
X14641253Y-16664150D01*
X14641253Y-16664150D02*
X14669825Y-16664150D01*
X14669825Y-16664150D02*
X14688872Y-16673674D01*
X14765063Y-16873674D02*
X14774587Y-16864150D01*
X14774587Y-16864150D02*
X14793634Y-16835579D01*
X14793634Y-16835579D02*
X14803158Y-16816531D01*
X14803158Y-16816531D02*
X14812682Y-16787960D01*
X14812682Y-16787960D02*
X14822206Y-16740341D01*
X14822206Y-16740341D02*
X14822206Y-16702246D01*
X14822206Y-16702246D02*
X14812682Y-16654627D01*
X14812682Y-16654627D02*
X14803158Y-16626055D01*
X14803158Y-16626055D02*
X14793634Y-16607008D01*
X14793634Y-16607008D02*
X14774587Y-16578436D01*
X14774587Y-16578436D02*
X14765063Y-16568912D01*
X9790000Y-16870000D02*
X9990000Y-17070000D01*
X9990000Y-16870000D02*
X9790000Y-17070000D01*
X9990000Y-16970000D02*
G75*
G02*
X9790000Y-16970000I-100000J0D01*
G01*
X9790000Y-16970000D02*
G75*
G02*
X9990000Y-16970000I100000J0D01*
G01*
X10231729Y-16861484D02*
X10355539Y-16861484D01*
X10355539Y-16861484D02*
X10288872Y-16937674D01*
X10288872Y-16937674D02*
X10317444Y-16937674D01*
X10317444Y-16937674D02*
X10336491Y-16947198D01*
X10336491Y-16947198D02*
X10346015Y-16956722D01*
X10346015Y-16956722D02*
X10355539Y-16975770D01*
X10355539Y-16975770D02*
X10355539Y-17023389D01*
X10355539Y-17023389D02*
X10346015Y-17042436D01*
X10346015Y-17042436D02*
X10336491Y-17051960D01*
X10336491Y-17051960D02*
X10317444Y-17061484D01*
X10317444Y-17061484D02*
X10260301Y-17061484D01*
X10260301Y-17061484D02*
X10241253Y-17051960D01*
X10241253Y-17051960D02*
X10231729Y-17042436D01*
X10441253Y-17042436D02*
X10450777Y-17051960D01*
X10450777Y-17051960D02*
X10441253Y-17061484D01*
X10441253Y-17061484D02*
X10431729Y-17051960D01*
X10431729Y-17051960D02*
X10441253Y-17042436D01*
X10441253Y-17042436D02*
X10441253Y-17061484D01*
X10526967Y-16880531D02*
X10536491Y-16871008D01*
X10536491Y-16871008D02*
X10555539Y-16861484D01*
X10555539Y-16861484D02*
X10603158Y-16861484D01*
X10603158Y-16861484D02*
X10622205Y-16871008D01*
X10622205Y-16871008D02*
X10631729Y-16880531D01*
X10631729Y-16880531D02*
X10641253Y-16899579D01*
X10641253Y-16899579D02*
X10641253Y-16918627D01*
X10641253Y-16918627D02*
X10631729Y-16947198D01*
X10631729Y-16947198D02*
X10517444Y-17061484D01*
X10517444Y-17061484D02*
X10641253Y-17061484D01*
X10765063Y-16861484D02*
X10784110Y-16861484D01*
X10784110Y-16861484D02*
X10803158Y-16871008D01*
X10803158Y-16871008D02*
X10812682Y-16880531D01*
X10812682Y-16880531D02*
X10822205Y-16899579D01*
X10822205Y-16899579D02*
X10831729Y-16937674D01*
X10831729Y-16937674D02*
X10831729Y-16985293D01*
X10831729Y-16985293D02*
X10822205Y-17023389D01*
X10822205Y-17023389D02*
X10812682Y-17042436D01*
X10812682Y-17042436D02*
X10803158Y-17051960D01*
X10803158Y-17051960D02*
X10784110Y-17061484D01*
X10784110Y-17061484D02*
X10765063Y-17061484D01*
X10765063Y-17061484D02*
X10746015Y-17051960D01*
X10746015Y-17051960D02*
X10736491Y-17042436D01*
X10736491Y-17042436D02*
X10726967Y-17023389D01*
X10726967Y-17023389D02*
X10717444Y-16985293D01*
X10717444Y-16985293D02*
X10717444Y-16937674D01*
X10717444Y-16937674D02*
X10726967Y-16899579D01*
X10726967Y-16899579D02*
X10736491Y-16880531D01*
X10736491Y-16880531D02*
X10746015Y-16871008D01*
X10746015Y-16871008D02*
X10765063Y-16861484D01*
X10955539Y-16861484D02*
X10974586Y-16861484D01*
X10974586Y-16861484D02*
X10993634Y-16871008D01*
X10993634Y-16871008D02*
X11003158Y-16880531D01*
X11003158Y-16880531D02*
X11012682Y-16899579D01*
X11012682Y-16899579D02*
X11022205Y-16937674D01*
X11022205Y-16937674D02*
X11022205Y-16985293D01*
X11022205Y-16985293D02*
X11012682Y-17023389D01*
X11012682Y-17023389D02*
X11003158Y-17042436D01*
X11003158Y-17042436D02*
X10993634Y-17051960D01*
X10993634Y-17051960D02*
X10974586Y-17061484D01*
X10974586Y-17061484D02*
X10955539Y-17061484D01*
X10955539Y-17061484D02*
X10936491Y-17051960D01*
X10936491Y-17051960D02*
X10926967Y-17042436D01*
X10926967Y-17042436D02*
X10917444Y-17023389D01*
X10917444Y-17023389D02*
X10907920Y-16985293D01*
X10907920Y-16985293D02*
X10907920Y-16937674D01*
X10907920Y-16937674D02*
X10917444Y-16899579D01*
X10917444Y-16899579D02*
X10926967Y-16880531D01*
X10926967Y-16880531D02*
X10936491Y-16871008D01*
X10936491Y-16871008D02*
X10955539Y-16861484D01*
X11107920Y-17061484D02*
X11107920Y-16928150D01*
X11107920Y-16947198D02*
X11117444Y-16937674D01*
X11117444Y-16937674D02*
X11136491Y-16928150D01*
X11136491Y-16928150D02*
X11165063Y-16928150D01*
X11165063Y-16928150D02*
X11184110Y-16937674D01*
X11184110Y-16937674D02*
X11193634Y-16956722D01*
X11193634Y-16956722D02*
X11193634Y-17061484D01*
X11193634Y-16956722D02*
X11203158Y-16937674D01*
X11203158Y-16937674D02*
X11222205Y-16928150D01*
X11222205Y-16928150D02*
X11250777Y-16928150D01*
X11250777Y-16928150D02*
X11269824Y-16937674D01*
X11269824Y-16937674D02*
X11279348Y-16956722D01*
X11279348Y-16956722D02*
X11279348Y-17061484D01*
X11374586Y-17061484D02*
X11374586Y-16928150D01*
X11374586Y-16947198D02*
X11384110Y-16937674D01*
X11384110Y-16937674D02*
X11403158Y-16928150D01*
X11403158Y-16928150D02*
X11431729Y-16928150D01*
X11431729Y-16928150D02*
X11450777Y-16937674D01*
X11450777Y-16937674D02*
X11460301Y-16956722D01*
X11460301Y-16956722D02*
X11460301Y-17061484D01*
X11460301Y-16956722D02*
X11469824Y-16937674D01*
X11469824Y-16937674D02*
X11488872Y-16928150D01*
X11488872Y-16928150D02*
X11517443Y-16928150D01*
X11517443Y-16928150D02*
X11536491Y-16937674D01*
X11536491Y-16937674D02*
X11546015Y-16956722D01*
X11546015Y-16956722D02*
X11546015Y-17061484D01*
X11936491Y-16851960D02*
X11765063Y-17109103D01*
X12193634Y-16861484D02*
X12212682Y-16861484D01*
X12212682Y-16861484D02*
X12231729Y-16871008D01*
X12231729Y-16871008D02*
X12241253Y-16880531D01*
X12241253Y-16880531D02*
X12250777Y-16899579D01*
X12250777Y-16899579D02*
X12260301Y-16937674D01*
X12260301Y-16937674D02*
X12260301Y-16985293D01*
X12260301Y-16985293D02*
X12250777Y-17023389D01*
X12250777Y-17023389D02*
X12241253Y-17042436D01*
X12241253Y-17042436D02*
X12231729Y-17051960D01*
X12231729Y-17051960D02*
X12212682Y-17061484D01*
X12212682Y-17061484D02*
X12193634Y-17061484D01*
X12193634Y-17061484D02*
X12174586Y-17051960D01*
X12174586Y-17051960D02*
X12165063Y-17042436D01*
X12165063Y-17042436D02*
X12155539Y-17023389D01*
X12155539Y-17023389D02*
X12146015Y-16985293D01*
X12146015Y-16985293D02*
X12146015Y-16937674D01*
X12146015Y-16937674D02*
X12155539Y-16899579D01*
X12155539Y-16899579D02*
X12165063Y-16880531D01*
X12165063Y-16880531D02*
X12174586Y-16871008D01*
X12174586Y-16871008D02*
X12193634Y-16861484D01*
X12346015Y-17042436D02*
X12355539Y-17051960D01*
X12355539Y-17051960D02*
X12346015Y-17061484D01*
X12346015Y-17061484D02*
X12336491Y-17051960D01*
X12336491Y-17051960D02*
X12346015Y-17042436D01*
X12346015Y-17042436D02*
X12346015Y-17061484D01*
X12546015Y-17061484D02*
X12431729Y-17061484D01*
X12488872Y-17061484D02*
X12488872Y-16861484D01*
X12488872Y-16861484D02*
X12469825Y-16890055D01*
X12469825Y-16890055D02*
X12450777Y-16909103D01*
X12450777Y-16909103D02*
X12431729Y-16918627D01*
X12622206Y-16880531D02*
X12631729Y-16871008D01*
X12631729Y-16871008D02*
X12650777Y-16861484D01*
X12650777Y-16861484D02*
X12698396Y-16861484D01*
X12698396Y-16861484D02*
X12717444Y-16871008D01*
X12717444Y-16871008D02*
X12726967Y-16880531D01*
X12726967Y-16880531D02*
X12736491Y-16899579D01*
X12736491Y-16899579D02*
X12736491Y-16918627D01*
X12736491Y-16918627D02*
X12726967Y-16947198D01*
X12726967Y-16947198D02*
X12612682Y-17061484D01*
X12612682Y-17061484D02*
X12736491Y-17061484D01*
X12907920Y-16861484D02*
X12869825Y-16861484D01*
X12869825Y-16861484D02*
X12850777Y-16871008D01*
X12850777Y-16871008D02*
X12841253Y-16880531D01*
X12841253Y-16880531D02*
X12822206Y-16909103D01*
X12822206Y-16909103D02*
X12812682Y-16947198D01*
X12812682Y-16947198D02*
X12812682Y-17023389D01*
X12812682Y-17023389D02*
X12822206Y-17042436D01*
X12822206Y-17042436D02*
X12831729Y-17051960D01*
X12831729Y-17051960D02*
X12850777Y-17061484D01*
X12850777Y-17061484D02*
X12888872Y-17061484D01*
X12888872Y-17061484D02*
X12907920Y-17051960D01*
X12907920Y-17051960D02*
X12917444Y-17042436D01*
X12917444Y-17042436D02*
X12926967Y-17023389D01*
X12926967Y-17023389D02*
X12926967Y-16975770D01*
X12926967Y-16975770D02*
X12917444Y-16956722D01*
X12917444Y-16956722D02*
X12907920Y-16947198D01*
X12907920Y-16947198D02*
X12888872Y-16937674D01*
X12888872Y-16937674D02*
X12850777Y-16937674D01*
X12850777Y-16937674D02*
X12831729Y-16947198D01*
X12831729Y-16947198D02*
X12822206Y-16956722D01*
X12822206Y-16956722D02*
X12812682Y-16975770D01*
X13050777Y-16861484D02*
X13069825Y-16861484D01*
X13069825Y-16861484D02*
X13088872Y-16871008D01*
X13088872Y-16871008D02*
X13098396Y-16880531D01*
X13098396Y-16880531D02*
X13107920Y-16899579D01*
X13107920Y-16899579D02*
X13117444Y-16937674D01*
X13117444Y-16937674D02*
X13117444Y-16985293D01*
X13117444Y-16985293D02*
X13107920Y-17023389D01*
X13107920Y-17023389D02*
X13098396Y-17042436D01*
X13098396Y-17042436D02*
X13088872Y-17051960D01*
X13088872Y-17051960D02*
X13069825Y-17061484D01*
X13069825Y-17061484D02*
X13050777Y-17061484D01*
X13050777Y-17061484D02*
X13031729Y-17051960D01*
X13031729Y-17051960D02*
X13022206Y-17042436D01*
X13022206Y-17042436D02*
X13012682Y-17023389D01*
X13012682Y-17023389D02*
X13003158Y-16985293D01*
X13003158Y-16985293D02*
X13003158Y-16937674D01*
X13003158Y-16937674D02*
X13012682Y-16899579D01*
X13012682Y-16899579D02*
X13022206Y-16880531D01*
X13022206Y-16880531D02*
X13031729Y-16871008D01*
X13031729Y-16871008D02*
X13050777Y-16861484D01*
X13193634Y-16861484D02*
X13193634Y-16899579D01*
X13269825Y-16861484D02*
X13269825Y-16899579D01*
X13565063Y-17137674D02*
X13555539Y-17128150D01*
X13555539Y-17128150D02*
X13536491Y-17099579D01*
X13536491Y-17099579D02*
X13526968Y-17080531D01*
X13526968Y-17080531D02*
X13517444Y-17051960D01*
X13517444Y-17051960D02*
X13507920Y-17004341D01*
X13507920Y-17004341D02*
X13507920Y-16966246D01*
X13507920Y-16966246D02*
X13517444Y-16918627D01*
X13517444Y-16918627D02*
X13526968Y-16890055D01*
X13526968Y-16890055D02*
X13536491Y-16871008D01*
X13536491Y-16871008D02*
X13555539Y-16842436D01*
X13555539Y-16842436D02*
X13565063Y-16832912D01*
X13726968Y-16928150D02*
X13726968Y-17061484D01*
X13679348Y-16851960D02*
X13631729Y-16994817D01*
X13631729Y-16994817D02*
X13755539Y-16994817D01*
X13984110Y-17061484D02*
X13984110Y-16861484D01*
X14069825Y-17061484D02*
X14069825Y-16956722D01*
X14069825Y-16956722D02*
X14060301Y-16937674D01*
X14060301Y-16937674D02*
X14041253Y-16928150D01*
X14041253Y-16928150D02*
X14012682Y-16928150D01*
X14012682Y-16928150D02*
X13993634Y-16937674D01*
X13993634Y-16937674D02*
X13984110Y-16947198D01*
X14193634Y-17061484D02*
X14174587Y-17051960D01*
X14174587Y-17051960D02*
X14165063Y-17042436D01*
X14165063Y-17042436D02*
X14155539Y-17023389D01*
X14155539Y-17023389D02*
X14155539Y-16966246D01*
X14155539Y-16966246D02*
X14165063Y-16947198D01*
X14165063Y-16947198D02*
X14174587Y-16937674D01*
X14174587Y-16937674D02*
X14193634Y-16928150D01*
X14193634Y-16928150D02*
X14222206Y-16928150D01*
X14222206Y-16928150D02*
X14241253Y-16937674D01*
X14241253Y-16937674D02*
X14250777Y-16947198D01*
X14250777Y-16947198D02*
X14260301Y-16966246D01*
X14260301Y-16966246D02*
X14260301Y-17023389D01*
X14260301Y-17023389D02*
X14250777Y-17042436D01*
X14250777Y-17042436D02*
X14241253Y-17051960D01*
X14241253Y-17051960D02*
X14222206Y-17061484D01*
X14222206Y-17061484D02*
X14193634Y-17061484D01*
X14374587Y-17061484D02*
X14355539Y-17051960D01*
X14355539Y-17051960D02*
X14346015Y-17032912D01*
X14346015Y-17032912D02*
X14346015Y-16861484D01*
X14526968Y-17051960D02*
X14507920Y-17061484D01*
X14507920Y-17061484D02*
X14469825Y-17061484D01*
X14469825Y-17061484D02*
X14450777Y-17051960D01*
X14450777Y-17051960D02*
X14441253Y-17032912D01*
X14441253Y-17032912D02*
X14441253Y-16956722D01*
X14441253Y-16956722D02*
X14450777Y-16937674D01*
X14450777Y-16937674D02*
X14469825Y-16928150D01*
X14469825Y-16928150D02*
X14507920Y-16928150D01*
X14507920Y-16928150D02*
X14526968Y-16937674D01*
X14526968Y-16937674D02*
X14536491Y-16956722D01*
X14536491Y-16956722D02*
X14536491Y-16975770D01*
X14536491Y-16975770D02*
X14441253Y-16994817D01*
X14612682Y-17051960D02*
X14631730Y-17061484D01*
X14631730Y-17061484D02*
X14669825Y-17061484D01*
X14669825Y-17061484D02*
X14688872Y-17051960D01*
X14688872Y-17051960D02*
X14698396Y-17032912D01*
X14698396Y-17032912D02*
X14698396Y-17023389D01*
X14698396Y-17023389D02*
X14688872Y-17004341D01*
X14688872Y-17004341D02*
X14669825Y-16994817D01*
X14669825Y-16994817D02*
X14641253Y-16994817D01*
X14641253Y-16994817D02*
X14622206Y-16985293D01*
X14622206Y-16985293D02*
X14612682Y-16966246D01*
X14612682Y-16966246D02*
X14612682Y-16956722D01*
X14612682Y-16956722D02*
X14622206Y-16937674D01*
X14622206Y-16937674D02*
X14641253Y-16928150D01*
X14641253Y-16928150D02*
X14669825Y-16928150D01*
X14669825Y-16928150D02*
X14688872Y-16937674D01*
X14765063Y-17137674D02*
X14774587Y-17128150D01*
X14774587Y-17128150D02*
X14793634Y-17099579D01*
X14793634Y-17099579D02*
X14803158Y-17080531D01*
X14803158Y-17080531D02*
X14812682Y-17051960D01*
X14812682Y-17051960D02*
X14822206Y-17004341D01*
X14822206Y-17004341D02*
X14822206Y-16966246D01*
X14822206Y-16966246D02*
X14812682Y-16918627D01*
X14812682Y-16918627D02*
X14803158Y-16890055D01*
X14803158Y-16890055D02*
X14793634Y-16871008D01*
X14793634Y-16871008D02*
X14774587Y-16842436D01*
X14774587Y-16842436D02*
X14765063Y-16832912D01*
M02*
