<?xml version="1.0" encoding="UTF-8" standalone="no"?>
<!-- Created with Inkscape (http://www.inkscape.org/) -->

<svg
   width="297mm"
   height="210mm"
   viewBox="0 0 1122.5197 793.70081"
   version="1.1"
   id="svg1"
   inkscape:version="1.4 (1:1.4+202410161351+e7c3feb100)"
   sodipodi:docname="Navigation_Guide.svg"
   xml:space="preserve"
   inkscape:export-filename="Navigation_Guide.pdf"
   inkscape:export-xdpi="96"
   inkscape:export-ydpi="96"
   xmlns:inkscape="http://www.inkscape.org/namespaces/inkscape"
   xmlns:sodipodi="http://sodipodi.sourceforge.net/DTD/sodipodi-0.dtd"
   xmlns="http://www.w3.org/2000/svg"
   xmlns:svg="http://www.w3.org/2000/svg"><sodipodi:namedview
     id="namedview1"
     pagecolor="#ffffff"
     bordercolor="#000000"
     borderopacity="0.25"
     inkscape:showpageshadow="2"
     inkscape:pageopacity="0.0"
     inkscape:pagecheckerboard="0"
     inkscape:deskcolor="#d1d1d1"
     inkscape:document-units="mm"
     showgrid="true"
     inkscape:zoom="1.254714"
     inkscape:cx="755.94916"
     inkscape:cy="333.94064"
     inkscape:window-width="3369"
     inkscape:window-height="1371"
     inkscape:window-x="0"
     inkscape:window-y="0"
     inkscape:window-maximized="1"
     inkscape:current-layer="layer3"><inkscape:grid
       id="grid1"
       units="mm"
       originx="0"
       originy="0"
       spacingx="3.7795277"
       spacingy="3.7795276"
       empcolor="#0099e5"
       empopacity="0.30196078"
       color="#0099e5"
       opacity="0.14901961"
       empspacing="5"
       dotted="false"
       gridanglex="30"
       gridanglez="30"
       visible="true" /></sodipodi:namedview><defs
     id="defs1" /><g
     inkscape:groupmode="layer"
     id="layer3"
     inkscape:label="Layer 3"
     style="display:inline"><path
       d="m 301.75333,286.75591 0.059,0.22984 0.0873,0.22065 0.11452,0.20795 0.13909,0.19207 0.16252,0.17295 0.18293,0.15126 15.11811,11.33858 0.1988,0.1262 -4.24214,5.83895 v 13.65251 l -10.65978,3.55311 -0.21468,0.10105 -0.20031,0.12716 -0.18293,0.15127 -0.16252,0.17296 -0.13909,0.19204 -0.11452,0.20796 -0.0873,0.22065 -0.059,0.22982 -0.0299,0.23547 v 45.5917 l 0.0299,0.23547 0.059,0.22979 0.0873,0.22073 0.11452,0.20787 0.13909,0.192 0.16252,0.1731 0.18293,0.15118 0.20031,0.127 0.21468,0.10129 0.22602,0.0733 0.23282,0.0442 15.11811,1.88976 0.23697,0.0151 0.23698,-0.0151 0.2332,-0.0442 0.22563,-0.0733 0.21468,-0.10129 0.20032,-0.12699 0.18292,-0.15118 12.34443,-12.3447 27.93665,9.07729 27.93664,-9.07729 12.34443,12.3447 0.18293,0.15118 0.20031,0.12699 0.21468,0.10129 0.22564,0.0733 0.23319,0.0442 0.23698,0.0151 0.23698,-0.0151 15.11811,-1.88976 0.23282,-0.0442 0.22601,-0.0733 0.21468,-0.10129 0.20031,-0.127 0.18293,-0.15118 0.16252,-0.1731 0.13909,-0.192 0.11452,-0.20787 0.0873,-0.22073 0.059,-0.22979 0.0299,-0.23547 v -45.5917 l -0.0299,-0.23547 -0.059,-0.22982 -0.0873,-0.22065 -0.11452,-0.20796 -0.13909,-0.19204 -0.16252,-0.17296 -0.18293,-0.15127 -0.20031,-0.12716 -0.21468,-0.10105 -10.65978,-3.55311 v -13.65251 l -4.24218,-5.83895 0.1988,-0.1262 15.11811,-11.33858 0.18293,-0.15126 0.16252,-0.17295 0.13909,-0.19207 0.11452,-0.20795 0.0873,-0.22065 0.059,-0.22984 0.0298,-0.23546 v -15.35547 l -0.0298,-0.23546 -0.059,-0.2298 -0.0873,-0.22072 -0.11452,-0.20787 -0.13909,-0.192 -0.16252,-0.17311 -0.18293,-0.15118 -0.20031,-0.12699 -0.21468,-0.10129 -0.22601,-0.0733 -0.23282,-0.0442 -22.67736,-3.77953 -0.23679,-0.0151 -0.23686,0.0151 -0.23316,0.0442 -0.22567,0.0733 -0.21476,0.10129 -0.20035,0.127 -0.18289,0.15118 -0.16244,0.1731 -9.44882,11.33858 -0.13943,0.192 -0.11437,0.20788 -0.0874,0.22072 -0.059,0.2298 -0.0212,0.16743 -9.53098,-3.09695 0.0364,-0.14173 0.0298,-0.23546 V 259.8264 l -0.0298,-0.23546 -0.059,-0.2298 -0.0873,-0.22072 -0.11437,-0.20788 -0.13947,-0.192 -0.16244,-0.1731 -11.33858,-11.33858 -0.18288,-0.15118 -0.20035,-0.127 -0.21476,-0.10129 -0.22567,-0.0733 -0.23317,-0.0442 -0.23679,-0.0151 -0.2368,0.0151 -0.23316,0.0442 -0.22567,0.0733 -0.21477,0.10129 -0.20035,0.127 -0.18287,0.15118 -11.33859,11.33858 -0.16244,0.1731 -0.13946,0.192 -0.11437,0.20788 -0.0873,0.22072 -0.059,0.2298 -0.0298,0.23546 v 15.35547 l 0.0298,0.23546 0.0364,0.14173 -9.53099,3.09695 -0.0212,-0.16743 -0.059,-0.2298 -0.0874,-0.22072 -0.11437,-0.20788 -0.13942,-0.192 -9.44882,-11.33858 -0.16245,-0.1731 -0.18289,-0.15118 -0.20035,-0.127 -0.21475,-0.10129 -0.22568,-0.0733 -0.23316,-0.0442 -0.23686,-0.0151 -0.23679,0.0151 -22.67735,3.77953 -0.23282,0.0442 -0.22602,0.0733 -0.21468,0.10129 -0.20031,0.12699 -0.18293,0.15118 -0.16252,0.17311 -0.13909,0.192 -0.11452,0.20787 -0.0873,0.22072 -0.059,0.2298 -0.0299,0.23546 v 15.35547 z m 93.32398,-17.21083 20.03199,3.33846 v 12.57086 l -14.34293,10.75714 -0.18142,0.15008 -11.40246,-15.69415 -2.65496,-0.86286 z m 11.954,66.0556 v -12.73601 l 8.07799,2.69259 v 42.32546 l -12.55068,1.56888 -11.65406,-11.65424 z m -18.90244,-50.26802 15.30811,21.06965 v 26.04341 l -15.10008,-4.90628 -9.54032,-29.36194 z m -25.93674,63.94806 24.97678,-18.14673 15.1002,4.90625 -15.30815,21.06966 -24.76883,8.04778 z M 344.75154,299.0136 h 31.10165 l 9.61097,29.57949 -25.16179,18.28113 -25.16179,-18.28113 z m 9.88153,32.7425 v -3.77952 h 11.33859 v 3.77952 h 3.77952 v -22.67716 h -3.77952 v 3.77953 h -11.33859 v -3.77953 h -3.77952 v 22.67716 z m 0,-15.11811 h 11.33859 v 7.55906 h -11.33859 z m 5.6693,-41.5748 24.76883,8.04794 -9.33234,12.84483 h -30.87299 l -9.33234,-12.84483 z m -9.45253,-14.3331 9.45253,-9.45222 9.45252,9.45222 v 13.62482 l -9.45252,-3.07125 -9.45253,3.07125 z m -17.41402,70.4039 24.97678,18.14673 v 15.87696 l -24.76883,-8.04778 -15.30814,-21.06966 z m -16.26807,-24.73168 15.30811,-21.06965 9.33229,12.84484 -9.54032,29.36194 -15.10008,4.90628 z m -11.67231,-33.51877 20.03198,-3.33846 8.54979,10.25953 -2.65497,0.86286 -11.40246,15.69415 -0.18141,-0.15008 -14.34293,-10.75714 z m 0,52.67372 8.07798,-2.69259 v 12.73601 l 16.12675,22.19668 -11.65406,11.65424 -12.55067,-1.56888 z"
       stroke="#000000"
       fill="#d3d3d3"
       stroke-width="0.5"
       id="path1" /><path
       d="m 716.71224,286.75591 0.059,0.22984 0.0873,0.22065 0.11452,0.20795 0.13909,0.19207 0.16252,0.17295 0.18293,0.15126 15.11811,11.33858 0.1988,0.1262 -4.24214,5.83895 v 13.65251 l -10.65978,3.55311 -0.21468,0.10105 -0.20031,0.12716 -0.18293,0.15127 -0.16252,0.17296 -0.13909,0.19204 -0.11452,0.20796 -0.0873,0.22065 -0.059,0.22982 -0.0299,0.23547 v 45.5917 l 0.0299,0.23547 0.059,0.22979 0.0873,0.22073 0.11452,0.20787 0.13909,0.192 0.16252,0.1731 0.18293,0.15118 0.20031,0.127 0.21468,0.10129 0.22602,0.0733 0.23282,0.0442 15.11811,1.88976 0.23697,0.0151 0.23698,-0.0151 0.2332,-0.0442 0.22563,-0.0733 0.21468,-0.10129 0.20032,-0.12699 0.18292,-0.15118 12.34443,-12.3447 27.93665,9.07729 27.93664,-9.07729 12.34443,12.3447 0.18293,0.15118 0.20031,0.12699 0.21468,0.10129 0.22564,0.0733 0.23319,0.0442 0.23698,0.0151 0.23698,-0.0151 15.11811,-1.88976 0.23282,-0.0442 0.22601,-0.0733 0.21468,-0.10129 0.20031,-0.127 0.18293,-0.15118 0.16252,-0.1731 0.13909,-0.192 0.11452,-0.20787 0.0873,-0.22073 0.059,-0.22979 0.0299,-0.23547 v -45.5917 l -0.0299,-0.23547 -0.059,-0.22982 -0.0873,-0.22065 -0.11452,-0.20796 -0.13909,-0.19204 -0.16252,-0.17296 -0.18293,-0.15127 -0.20031,-0.12716 -0.21468,-0.10105 -10.65978,-3.55311 v -13.65251 l -4.24218,-5.83895 0.1988,-0.1262 15.11811,-11.33858 0.18293,-0.15126 0.16252,-0.17295 0.13909,-0.19207 0.11452,-0.20795 0.0873,-0.22065 0.059,-0.22984 0.0298,-0.23546 v -15.35547 l -0.0298,-0.23546 -0.059,-0.2298 -0.0873,-0.22072 -0.11452,-0.20787 -0.13909,-0.192 -0.16252,-0.17311 -0.18293,-0.15118 -0.20031,-0.12699 -0.21468,-0.10129 -0.22601,-0.0733 -0.23282,-0.0442 -22.67736,-3.77953 -0.23679,-0.0151 -0.23686,0.0151 -0.23316,0.0442 -0.22567,0.0733 -0.21476,0.10129 -0.20035,0.127 -0.18289,0.15118 -0.16244,0.1731 -9.44882,11.33858 -0.13943,0.192 -0.11437,0.20788 -0.0874,0.22072 -0.059,0.2298 -0.0212,0.16743 -9.53098,-3.09695 0.0364,-0.14173 0.0298,-0.23546 V 259.8264 l -0.0298,-0.23546 -0.059,-0.2298 -0.0873,-0.22072 -0.11437,-0.20788 -0.13947,-0.192 -0.16244,-0.1731 -11.33858,-11.33858 -0.18288,-0.15118 -0.20035,-0.127 -0.21476,-0.10129 -0.22567,-0.0733 -0.23317,-0.0442 -0.23679,-0.0151 -0.2368,0.0151 -0.23316,0.0442 -0.22567,0.0733 -0.21477,0.10129 -0.20035,0.127 -0.18287,0.15118 -11.33859,11.33858 -0.16244,0.1731 -0.13946,0.192 -0.11437,0.20788 -0.0873,0.22072 -0.059,0.2298 -0.0298,0.23546 v 15.35547 l 0.0298,0.23546 0.0364,0.14173 -9.53099,3.09695 -0.0212,-0.16743 -0.059,-0.2298 -0.0874,-0.22072 -0.11437,-0.20788 -0.13942,-0.192 -9.44882,-11.33858 -0.16245,-0.1731 -0.18289,-0.15118 -0.20035,-0.127 -0.21475,-0.10129 -0.22568,-0.0733 -0.23316,-0.0442 -0.23686,-0.0151 -0.23679,0.0151 -22.67735,3.77953 -0.23282,0.0442 -0.22602,0.0733 -0.21468,0.10129 -0.20031,0.12699 -0.18293,0.15118 -0.16252,0.17311 -0.13909,0.192 -0.11452,0.20787 -0.0873,0.22072 -0.059,0.2298 -0.0299,0.23546 v 15.35547 z m 93.32398,-17.21083 20.03199,3.33846 v 12.57086 l -14.34293,10.75714 -0.18142,0.15008 -11.40246,-15.69415 -2.65496,-0.86286 z m 11.954,66.0556 v -12.73601 l 8.07799,2.69259 v 42.32546 l -12.55068,1.56888 -11.65406,-11.65424 z m -18.90244,-50.26802 15.30811,21.06965 v 26.04341 l -15.10008,-4.90628 -9.54032,-29.36194 z m -25.93674,63.94806 24.97678,-18.14673 15.1002,4.90625 -15.30815,21.06966 -24.76883,8.04778 z M 759.71045,299.0136 h 31.10165 l 9.61097,29.57949 -25.16179,18.28113 -25.16179,-18.28113 z m 9.88153,32.7425 v -3.77952 h 11.33859 v 3.77952 h 3.77952 v -22.67716 h -3.77952 v 3.77953 h -11.33859 v -3.77953 h -3.77952 v 22.67716 z m 0,-15.11811 h 11.33859 v 7.55906 h -11.33859 z m 5.6693,-41.5748 24.76883,8.04794 -9.33234,12.84483 h -30.87299 l -9.33234,-12.84483 z m -9.45253,-14.3331 9.45253,-9.45222 9.45252,9.45222 v 13.62482 l -9.45252,-3.07125 -9.45253,3.07125 z m -17.41402,70.4039 24.97678,18.14673 v 15.87696 l -24.76883,-8.04778 -15.30814,-21.06966 z m -16.26807,-24.73168 15.30811,-21.06965 9.33229,12.84484 -9.54032,29.36194 -15.10008,4.90628 z m -11.67231,-33.51877 20.03198,-3.33846 8.54979,10.25953 -2.65497,0.86286 -11.40246,15.69415 -0.18141,-0.15008 -14.34293,-10.75714 z m 0,52.67372 8.07798,-2.69259 v 12.73601 l 16.12675,22.19668 -11.65406,11.65424 -12.55067,-1.56888 z"
       stroke="#000000"
       fill="#d3d3d3"
       stroke-width="0.5"
       id="path1-5"
       style="display:inline" /><path
       d="m 502.71078,648.37558 0.059,0.22984 0.0873,0.22065 0.11452,0.20795 0.13909,0.19207 0.16252,0.17295 0.18293,0.15126 15.11811,11.33858 0.1988,0.1262 -4.24214,5.83895 v 13.65251 l -10.65978,3.55311 -0.21468,0.10105 -0.20031,0.12716 -0.18293,0.15127 -0.16252,0.17296 -0.13909,0.19204 -0.11452,0.20796 -0.0873,0.22065 -0.059,0.22982 -0.0299,0.23547 v 45.5917 l 0.0299,0.23547 0.059,0.22979 0.0873,0.22073 0.11452,0.20787 0.13909,0.192 0.16252,0.1731 0.18293,0.15118 0.20031,0.127 0.21468,0.10129 0.22602,0.0733 0.23282,0.0442 15.11811,1.88976 0.23697,0.0151 0.23698,-0.0151 0.2332,-0.0442 0.22563,-0.0733 0.21468,-0.10129 0.20032,-0.12699 0.18292,-0.15118 12.34443,-12.3447 27.93665,9.07729 27.93664,-9.07729 12.34443,12.3447 0.18293,0.15118 0.20031,0.12699 0.21468,0.10129 0.22564,0.0733 0.23319,0.0442 0.23698,0.0151 0.23698,-0.0151 15.11811,-1.88976 0.23282,-0.0442 0.22601,-0.0733 0.21468,-0.10129 0.20031,-0.127 0.18293,-0.15118 0.16252,-0.1731 0.13909,-0.192 0.11452,-0.20787 0.0873,-0.22073 0.059,-0.22979 0.0299,-0.23547 v -45.5917 l -0.0299,-0.23547 -0.059,-0.22982 -0.0873,-0.22065 -0.11452,-0.20796 -0.13909,-0.19204 -0.16252,-0.17296 -0.18293,-0.15127 -0.20031,-0.12716 -0.21468,-0.10105 -10.65978,-3.55311 v -13.65251 l -4.24218,-5.83895 0.1988,-0.1262 15.11811,-11.33858 0.18293,-0.15126 0.16252,-0.17295 0.13909,-0.19207 0.11452,-0.20795 0.0873,-0.22065 0.059,-0.22984 0.0298,-0.23546 v -15.35547 l -0.0298,-0.23546 -0.059,-0.2298 -0.0873,-0.22072 -0.11452,-0.20787 -0.13909,-0.192 -0.16252,-0.17311 -0.18293,-0.15118 -0.20031,-0.12699 -0.21468,-0.10129 -0.22601,-0.0733 -0.23282,-0.0442 -22.67736,-3.77953 -0.23679,-0.0151 -0.23686,0.0151 -0.23316,0.0442 -0.22567,0.0733 -0.21476,0.10129 -0.20035,0.127 -0.18289,0.15118 -0.16244,0.1731 -9.44882,11.33858 -0.13943,0.192 -0.11437,0.20788 -0.0874,0.22072 -0.059,0.2298 -0.0212,0.16743 -9.53098,-3.09695 0.0364,-0.14173 0.0298,-0.23546 v -15.35547 l -0.0298,-0.23546 -0.059,-0.2298 -0.0873,-0.22072 -0.11437,-0.20788 -0.13947,-0.192 -0.16244,-0.1731 -11.33858,-11.33858 -0.18288,-0.15118 -0.20035,-0.127 -0.21476,-0.10129 -0.22567,-0.0733 -0.23317,-0.0442 -0.23679,-0.0151 -0.2368,0.0151 -0.23316,0.0442 -0.22567,0.0733 -0.21477,0.10129 -0.20035,0.127 -0.18287,0.15118 -11.33859,11.33858 -0.16244,0.1731 -0.13946,0.192 -0.11437,0.20788 -0.0873,0.22072 -0.059,0.2298 -0.0298,0.23546 v 15.35547 l 0.0298,0.23546 0.0364,0.14173 -9.53099,3.09695 -0.0212,-0.16743 -0.059,-0.2298 -0.0874,-0.22072 -0.11437,-0.20788 -0.13942,-0.192 -9.44882,-11.33858 -0.16245,-0.1731 -0.18289,-0.15118 -0.20035,-0.127 -0.21475,-0.10129 -0.22568,-0.0733 -0.23316,-0.0442 -0.23686,-0.0151 -0.23679,0.0151 -22.67735,3.77953 -0.23282,0.0442 -0.22602,0.0733 -0.21468,0.10129 -0.20031,0.12699 -0.18293,0.15118 -0.16252,0.17311 -0.13909,0.192 -0.11452,0.20787 -0.0873,0.22072 -0.059,0.2298 -0.0299,0.23546 v 15.35547 z m 93.32398,-17.21083 20.03199,3.33846 v 12.57086 l -14.34293,10.75714 -0.18142,0.15008 -11.40246,-15.69415 -2.65496,-0.86286 z m 11.954,66.0556 v -12.73601 l 8.07799,2.69259 v 42.32546 l -12.55068,1.56888 -11.65406,-11.65424 z m -18.90244,-50.26802 15.30811,21.06965 v 26.04341 l -15.10008,-4.90628 -9.54032,-29.36194 z m -25.93674,63.94806 24.97678,-18.14673 15.1002,4.90625 -15.30815,21.06966 -24.76883,8.04778 z m -17.44059,-50.26712 h 31.10165 l 9.61097,29.57949 -25.16179,18.28113 -25.16179,-18.28113 z m 9.88153,32.7425 v -3.77952 h 11.33859 v 3.77952 h 3.77952 v -22.67716 h -3.77952 v 3.77953 h -11.33859 v -3.77953 H 551.811 v 22.67716 z m 0,-15.11811 h 11.33859 v 7.55906 h -11.33859 z m 5.6693,-41.5748 24.76883,8.04794 -9.33234,12.84483 h -30.87299 l -9.33234,-12.84483 z m -9.45253,-14.3331 9.45253,-9.45222 9.45252,9.45222 v 13.62482 l -9.45252,-3.07125 -9.45253,3.07125 z m -17.41402,70.4039 24.97678,18.14673 v 15.87696 l -24.76883,-8.04778 -15.30814,-21.06966 z m -16.26807,-24.73168 15.30811,-21.06965 9.33229,12.84484 -9.54032,29.36194 -15.10008,4.90628 z m -11.67231,-33.51877 20.03198,-3.33846 8.54979,10.25953 -2.65497,0.86286 -11.40246,15.69415 -0.18141,-0.15008 -14.34293,-10.75714 z m 0,52.67372 8.07798,-2.69259 v 12.73601 l 16.12675,22.19668 -11.65406,11.65424 -12.55067,-1.56888 z"
       stroke="#000000"
       fill="#d3d3d3"
       stroke-width="0.5"
       id="path1-43"
       style="display:inline" /><text
       xml:space="preserve"
       style="font-size:13.3333px;text-align:center;writing-mode:lr-tb;direction:ltr;text-anchor:middle;fill:none;stroke:#0007ff"
       x="649.37341"
       y="590.83075"
       id="text7"><tspan
         sodipodi:role="line"
         id="tspan7"
         x="649.37341"
         y="590.83075">Right</tspan><tspan
         sodipodi:role="line"
         x="649.37341"
         y="607.49738"
         id="tspan10">(Clockwise)</tspan></text><text
       xml:space="preserve"
       style="font-size:13.3333px;text-align:center;writing-mode:lr-tb;direction:ltr;text-anchor:middle;fill:none;stroke:#0007ff"
       x="461.60239"
       y="588.29932"
       id="text8"><tspan
         sodipodi:role="line"
         id="tspan8"
         x="461.60239"
         y="588.29932">Left</tspan><tspan
         sodipodi:role="line"
         x="461.60239"
         y="604.96594"
         id="tspan9">(Counter</tspan><tspan
         sodipodi:role="line"
         x="461.60239"
         y="621.63257"
         id="tspan11">Clockwise)</tspan></text></g><g
     inkscape:groupmode="layer"
     id="layer2"
     inkscape:label="Layer 2"
     style="display:inline" /><g
     inkscape:label="Layer 1"
     inkscape:groupmode="layer"
     id="layer1"
     style="display:inline"><text
       xml:space="preserve"
       style="font-size:26.6667px;fill:#000000;fill-opacity:1;stroke:#000000;stroke-opacity:1"
       x="18.897638"
       y="37.795277"
       id="text1"><tspan
         sodipodi:role="line"
         id="tspan1"
         x="18.897638"
         y="37.795277">Valiant Turtle 2</tspan><tspan
         sodipodi:role="line"
         x="18.897638"
         y="71.128654"
         id="tspan2">Navigation Guide</tspan></text><path
       d="m 1007.153,138.54407 0.2298,-0.059 0.2206,-0.0873 0.208,-0.11452 0.1921,-0.13908 0.1729,-0.16252 0.1513,-0.18293 11.3386,-15.11811 0.1262,-0.19881 5.8389,4.24215 h 13.6525 l 3.5531,10.65978 0.1011,0.21467 0.1271,0.20032 0.1513,0.18293 0.173,0.16252 0.192,0.13908 0.208,0.11452 0.2206,0.0873 0.2298,0.059 0.2355,0.0299 h 45.5917 l 0.2355,-0.0299 0.2298,-0.059 0.2207,-0.0873 0.2079,-0.11452 0.192,-0.13908 0.1731,-0.16252 0.1512,-0.18293 0.1269,-0.20032 0.1013,-0.21467 0.073,-0.22602 0.044,-0.23282 1.8898,-15.11811 0.015,-0.23698 -0.015,-0.23697 -0.044,-0.2332 -0.073,-0.22564 -0.1013,-0.21467 -0.127,-0.20032 -0.1512,-0.18293 -12.3447,-12.34443 9.0773,-27.936635 -9.0773,-27.936644 12.3447,-12.344428 0.1512,-0.18293 0.127,-0.200314 0.1013,-0.214678 0.073,-0.225637 0.044,-0.233197 0.015,-0.236977 -0.015,-0.236976 -1.8898,-15.118111 -0.044,-0.232819 -0.073,-0.226016 -0.1013,-0.214677 -0.1269,-0.200315 -0.1512,-0.182929 -0.1731,-0.16252 -0.192,-0.139086 -0.2079,-0.11452 -0.2207,-0.08731 -0.2298,-0.05896 -0.2355,-0.02986 h -45.5917 l -0.2355,0.02986 -0.2298,0.05896 -0.2206,0.08731 -0.208,0.11452 -0.192,0.139086 -0.173,0.16252 -0.1513,0.182929 -0.1271,0.200315 -0.1011,0.214677 -3.5531,10.65978 h -13.6525 l -5.8389,4.242142 -0.1262,-0.198803 -11.3386,-15.118111 -0.1513,-0.182929 -0.1729,-0.16252 -0.1921,-0.139086 -0.208,-0.11452 -0.2206,-0.08731 -0.2298,-0.05896 -0.2355,-0.02986 h -15.35546 l -0.23546,0.02986 -0.2298,0.05896 -0.22072,0.08731 -0.20788,0.11452 -0.192,0.139086 -0.1731,0.16252 -0.15118,0.182929 -0.12699,0.200315 -0.10129,0.214677 -0.0733,0.226016 -0.0442,0.232819 -3.77952,22.677355 -0.0151,0.236788 0.0151,0.236863 0.0442,0.233159 0.0733,0.225675 0.10129,0.214753 0.12699,0.200353 0.15118,0.182891 0.17311,0.162444 11.33858,9.44882 0.192,0.139426 0.20787,0.114369 0.22073,0.08738 0.22979,0.059 0.16744,0.02116 -3.09695,9.530987 -0.14173,-0.03636 -0.23547,-0.02978 h -15.35546 l -0.23546,0.02978 -0.2298,0.059 -0.22072,0.08734 -0.20788,0.114368 -0.192,0.139465 -0.1731,0.162444 -11.33858,11.338582 -0.15119,0.18288 -0.12699,0.20035 -0.10129,0.21476 -0.0733,0.22567 -0.0442,0.23316 -0.0151,0.2368 0.0151,0.2368 0.0442,0.23316 0.0733,0.22567 0.10129,0.21476 0.12699,0.20035 0.15119,0.18288 11.33858,11.33858 0.1731,0.16245 0.192,0.13946 0.20788,0.11437 0.22072,0.0873 0.2298,0.059 0.23546,0.0298 h 15.35546 l 0.23547,-0.0298 0.14173,-0.0364 3.09695,9.530985 -0.16744,0.0212 -0.22979,0.059 -0.22073,0.0874 -0.20787,0.11436 -0.192,0.13943 -11.33858,9.44882 -0.17311,0.16244 -0.15118,0.1829 -0.12699,0.20035 -0.10129,0.21475 -0.0733,0.22568 -0.0442,0.23316 -0.0151,0.23686 0.0151,0.23679 3.77952,22.67735 0.0442,0.23282 0.0733,0.22602 0.10129,0.21467 0.12699,0.20032 0.15118,0.18293 0.1731,0.16252 0.192,0.13908 0.20788,0.11452 0.22072,0.0873 0.2298,0.059 0.23546,0.0299 h 15.35546 z m -17.21086,-93.323978 3.33845,-20.031988 h 12.57081 l 10.7572,14.342929 0.1501,0.181418 -15.6942,11.402457 -0.8628,2.654967 z m 66.05556,-11.954004 h -12.736 l 2.6926,-8.077984 h 42.3255 l 1.5689,12.550677 -11.6543,11.654061 z m -50.268,18.902439 21.0697,-15.308108 h 26.0434 l -4.9063,15.100083 -29.362,9.540321 z m 63.9481,25.936748 -18.1468,-24.976786 4.9063,-15.100196 21.0696,15.308146 8.0478,24.768836 z m -50.2671,17.44059 V 64.444206 l 29.5794,-9.610961 18.2812,25.16179 -18.2812,25.161785 z m 32.7425,-9.88154 h -3.7796 v -11.33858 h 3.7796 v -3.779529 h -22.6772 v 3.779529 h 3.7795 v 11.33858 h -3.7795 v 3.77953 h 22.6772 z m -15.1182,0 v -11.33858 h 7.5591 v 11.33858 z m -41.57475,-5.66929 8.04795,-24.768832 12.8448,9.332334 v 30.872998 l -12.8448,9.332325 z m -14.33311,9.45252 -9.45222,-9.45252 9.45222,-9.452523 h 13.62482 l -3.07124,9.452523 3.07124,9.45252 z m 70.40386,17.414025 18.1468,-24.976785 h 15.8769 l -8.0478,24.768835 -21.0696,15.30814 z m -24.7316,16.26807 -21.0697,-15.30811 12.8448,-9.332295 29.362,9.540315 4.9063,15.10009 z m -33.51881,11.67231 -3.33845,-20.03199 10.25956,-8.54978 0.8628,2.65497 15.6942,11.40245 -0.1501,0.18142 -10.7572,14.34293 z m 52.67371,0 -2.6926,-8.07798 h 12.736 l 22.1967,-16.12676 11.6543,11.65406 -1.5689,12.55068 z"
       stroke="#000000"
       fill="#d3d3d3"
       stroke-width="1.88976"
       id="path1-4"
       style="display:inline;fill:#ff7300;fill-opacity:1;stroke:#ff5800;stroke-opacity:1" /><path
       style="fill:none;stroke:#0007ff;stroke-width:0.922834"
       d="M 473.45799,320.4287 H 248.14679"
       id="path2" /><path
       style="fill:none;stroke:#0007ff;stroke-width:0.928703"
       d="M 360.30239,320.4287 V 206.33573"
       id="path3" /><path
       style="fill:none;stroke:#0007ff;stroke-width:0.915619"
       d="M 360.30239,434.52163 V 320.4287"
       id="path4" /><path
       style="fill:none;stroke:#0007ff"
       d="M 416.99531,263.73577 303.60948,377.12161"
       id="path5" /><path
       style="fill:none;stroke:#0007ff"
       d="M 416.99531,377.12161 303.25593,263.38221"
       id="path6" /><text
       xml:space="preserve"
       style="font-size:13.3333px;text-align:start;writing-mode:lr-tb;direction:ltr;text-anchor:start;fill:none;stroke:#0007ff"
       x="346.24023"
       y="455.28638"
       id="text6"><tspan
         sodipodi:role="line"
         id="tspan6"
         x="346.24023"
         y="455.28638">180°</tspan></text><text
       xml:space="preserve"
       style="font-size:13.3333px;text-align:start;writing-mode:lr-tb;direction:ltr;text-anchor:start;display:inline;fill:none;stroke:#0007ff"
       x="484.12024"
       y="325.19302"
       id="text6-5"><tspan
         sodipodi:role="line"
         id="tspan6-3"
         x="484.12024"
         y="325.19302">90°</tspan></text><text
       xml:space="preserve"
       style="font-size:13.3333px;text-align:start;writing-mode:lr-tb;direction:ltr;text-anchor:start;display:inline;fill:none;stroke:#0007ff"
       x="355.69971"
       y="195.10429"
       id="text6-9"><tspan
         sodipodi:role="line"
         id="tspan6-1"
         x="355.69971"
         y="195.10429">0°</tspan></text><text
       xml:space="preserve"
       style="font-size:13.3333px;text-align:start;writing-mode:lr-tb;direction:ltr;text-anchor:start;display:inline;fill:none;stroke:#0007ff"
       x="208.96461"
       y="324.73395"
       id="text6-93"><tspan
         sodipodi:role="line"
         id="tspan6-6"
         x="208.96461"
         y="324.73395">270°</tspan></text><text
       xml:space="preserve"
       style="font-size:13.3333px;text-align:start;writing-mode:lr-tb;direction:ltr;text-anchor:start;display:inline;fill:none;stroke:#0007ff"
       x="421.28162"
       y="253.79437"
       id="text6-6"><tspan
         sodipodi:role="line"
         id="tspan6-18"
         x="421.28162"
         y="253.79437">45°</tspan></text><text
       xml:space="preserve"
       style="font-size:13.3333px;text-align:start;writing-mode:lr-tb;direction:ltr;text-anchor:start;display:inline;fill:none;stroke:#0007ff"
       x="421.28162"
       y="390.83612"
       id="text6-0"><tspan
         sodipodi:role="line"
         id="tspan6-2"
         x="421.28162"
         y="390.83612">135°</tspan></text><text
       xml:space="preserve"
       style="font-size:13.3333px;text-align:start;writing-mode:lr-tb;direction:ltr;text-anchor:start;display:inline;fill:none;stroke:#0007ff"
       x="270.28326"
       y="390.83612"
       id="text6-92"><tspan
         sodipodi:role="line"
         id="tspan6-28"
         x="270.28326"
         y="390.83612">225°</tspan></text><text
       xml:space="preserve"
       style="font-size:13.3333px;text-align:start;writing-mode:lr-tb;direction:ltr;text-anchor:start;display:inline;fill:none;stroke:#0007ff"
       x="271.18991"
       y="253.79437"
       id="text6-61"><tspan
         sodipodi:role="line"
         id="tspan6-29"
         x="271.18991"
         y="253.79437">315°</tspan></text><path
       style="display:inline;fill:none;stroke:#0007ff;stroke-width:0.922834"
       d="M 888.32036,320.89011 H 663.00912"
       id="path2-4" /><path
       style="display:inline;fill:none;stroke:#0007ff;stroke-width:0.928703"
       d="M 775.16472,320.89011 V 206.79714"
       id="path3-7" /><path
       style="display:inline;fill:none;stroke:#0007ff;stroke-width:0.915619"
       d="M 775.16472,434.98304 V 320.89011"
       id="path4-8" /><text
       xml:space="preserve"
       style="font-size:13.3333px;text-align:start;writing-mode:lr-tb;direction:ltr;text-anchor:start;display:inline;fill:none;stroke:#0007ff"
       x="769.8092"
       y="452.35587"
       id="text6-03"><tspan
         sodipodi:role="line"
         id="tspan6-61"
         x="769.8092"
         y="452.35587">-y</tspan></text><text
       xml:space="preserve"
       style="font-size:13.3333px;text-align:start;writing-mode:lr-tb;direction:ltr;text-anchor:start;display:inline;fill:none;stroke:#0007ff"
       x="898.98254"
       y="325.65445"
       id="text6-5-0"><tspan
         sodipodi:role="line"
         id="tspan6-3-6"
         x="898.98254"
         y="325.65445">+x</tspan></text><text
       xml:space="preserve"
       style="font-size:13.3333px;text-align:start;writing-mode:lr-tb;direction:ltr;text-anchor:start;display:inline;fill:none;stroke:#0007ff"
       x="768.0824"
       y="193.37097"
       id="text6-9-3"><tspan
         sodipodi:role="line"
         id="tspan6-1-2"
         x="768.0824"
         y="193.37097">+y</tspan></text><text
       xml:space="preserve"
       style="font-size:13.3333px;text-align:start;writing-mode:lr-tb;direction:ltr;text-anchor:start;display:inline;fill:none;stroke:#0007ff"
       x="639.76678"
       y="328.07535"
       id="text6-93-0"><tspan
         sodipodi:role="line"
         id="tspan6-6-6"
         x="639.76678"
         y="328.07535">-x</tspan></text></g><g
     inkscape:groupmode="layer"
     id="layer4"
     inkscape:label="Layer 4"
     style="display:inline" /></svg>
