M48
; DRILL file {KiCad 8.0.5} date 2024-10-05T13:15:58+0200
; FORMAT={-:-/ absolute / metric / decimal}
; #@! TF.CreationDate,2024-10-05T13:15:58+02:00
; #@! TF.GenerationSoftware,Kicad,Pcbnew,8.0.5
; #@! TF.FileFunction,Plated,1,2,PTH
FMAT,2
METRIC
; #@! TA.AperFunction,Plated,PTH,ViaDrill
T1C0.300
; #@! TA.AperFunction,Plated,PTH,ComponentDrill
T2C0.950
; #@! TA.AperFunction,Plated,PTH,ComponentDrill
T3C1.000
%
G90
G05
T1
X113.75Y-81.75
X113.75Y-87.25
X120.0Y-76.0
X120.0Y-81.75
X136.25Y-90.25
X139.0Y-90.25
X144.549Y-79.65
X145.018Y-83.35
X145.049Y-82.15
X145.7Y-76.0
X146.25Y-55.5
X146.5Y-76.0
X146.75Y-86.25
X146.75Y-92.5
X147.3Y-76.003
X148.5Y-79.0
X149.95Y-81.25
X150.0Y-67.5
X150.0Y-71.75
X150.049Y-85.299
X150.75Y-66.75
X150.75Y-81.25
X150.75Y-83.75
X150.784Y-70.784
X155.08Y-59.25
X157.86Y-59.25
T2
X104.0Y-54.0
X106.5Y-54.0
X109.0Y-54.0
X111.5Y-54.0
X114.0Y-54.0
X116.5Y-54.0
T3
X104.21Y-83.0
X104.21Y-85.54
X104.21Y-88.08
X104.21Y-90.62
X104.21Y-93.16
X106.75Y-83.0
X106.75Y-85.54
X106.75Y-88.08
X106.75Y-90.62
X106.75Y-93.16
X123.5Y-69.5
X123.5Y-72.04
X123.5Y-74.58
X123.5Y-77.12
X123.5Y-79.66
X123.5Y-82.2
X123.5Y-84.74
X123.5Y-87.28
X123.5Y-89.82
X123.5Y-92.36
X123.5Y-94.9
X123.5Y-97.44
X123.5Y-99.98
X123.5Y-102.52
X123.5Y-105.06
X123.5Y-107.6
X123.5Y-110.14
X123.5Y-112.68
X123.5Y-115.22
X123.5Y-117.76
X141.28Y-69.5
X141.28Y-72.04
X141.28Y-74.58
X141.28Y-77.12
X141.28Y-79.66
X141.28Y-82.2
X141.28Y-84.74
X141.28Y-87.28
X141.28Y-89.82
X141.28Y-92.36
X141.28Y-94.9
X141.28Y-97.44
X141.28Y-99.98
X141.28Y-102.52
X141.28Y-105.06
X141.28Y-107.6
X141.28Y-110.14
X141.28Y-112.68
X141.28Y-115.22
X141.28Y-117.76
X147.0Y-112.75
X147.0Y-115.29
X147.0Y-117.83
X148.25Y-54.75
X148.25Y-57.29
X150.79Y-54.75
X150.79Y-57.29
X153.33Y-54.75
X153.33Y-57.29
X155.87Y-54.75
X155.87Y-57.29
X158.0Y-83.0
X158.0Y-85.54
X158.0Y-88.08
X158.0Y-90.62
X158.0Y-93.16
X158.41Y-54.75
X158.41Y-57.29
X160.54Y-83.0
X160.54Y-85.54
X160.54Y-88.08
X160.54Y-90.62
X160.54Y-93.16
M30
