G04 #@! TF.GenerationSoftware,KiCad,Pcbnew,8.0.5*
G04 #@! TF.CreationDate,2024-10-05T13:15:26+02:00*
G04 #@! TF.ProjectId,auxboard,61757862-6f61-4726-942e-6b696361645f,rev?*
G04 #@! TF.SameCoordinates,Original*
G04 #@! TF.FileFunction,Soldermask,Bot*
G04 #@! TF.FilePolarity,Negative*
%FSLAX46Y46*%
G04 Gerber Fmt 4.6, Leading zero omitted, Abs format (unit mm)*
G04 Created by KiCad (PCBNEW 8.0.5) date 2024-10-05 13:15:26*
%MOMM*%
%LPD*%
G01*
G04 APERTURE LIST*
G04 Aperture macros list*
%AMRoundRect*
0 Rectangle with rounded corners*
0 $1 Rounding radius*
0 $2 $3 $4 $5 $6 $7 $8 $9 X,Y pos of 4 corners*
0 Add a 4 corners polygon primitive as box body*
4,1,4,$2,$3,$4,$5,$6,$7,$8,$9,$2,$3,0*
0 Add four circle primitives for the rounded corners*
1,1,$1+$1,$2,$3*
1,1,$1+$1,$4,$5*
1,1,$1+$1,$6,$7*
1,1,$1+$1,$8,$9*
0 Add four rect primitives between the rounded corners*
20,1,$1+$1,$2,$3,$4,$5,0*
20,1,$1+$1,$4,$5,$6,$7,0*
20,1,$1+$1,$6,$7,$8,$9,0*
20,1,$1+$1,$8,$9,$2,$3,0*%
%AMFreePoly0*
4,1,28,0.605014,0.794986,0.644504,0.794986,0.724698,0.756366,0.780194,0.686777,0.800000,0.600000,0.800000,-0.600000,0.780194,-0.686777,0.724698,-0.756366,0.644504,-0.794986,0.605014,-0.794986,0.600000,-0.800000,0.000000,-0.800000,-0.178017,-0.779942,-0.347107,-0.720775,-0.498792,-0.625465,-0.625465,-0.498792,-0.720775,-0.347107,-0.779942,-0.178017,-0.800000,0.000000,-0.779942,0.178017,
-0.720775,0.347107,-0.625465,0.498792,-0.498792,0.625465,-0.347107,0.720775,-0.178017,0.779942,0.000000,0.800000,0.600000,0.800000,0.605014,0.794986,0.605014,0.794986,$1*%
%AMFreePoly1*
4,1,28,0.178017,0.779942,0.347107,0.720775,0.498792,0.625465,0.625465,0.498792,0.720775,0.347107,0.779942,0.178017,0.800000,0.000000,0.779942,-0.178017,0.720775,-0.347107,0.625465,-0.498792,0.498792,-0.625465,0.347107,-0.720775,0.178017,-0.779942,0.000000,-0.800000,-0.600000,-0.800000,-0.605014,-0.794986,-0.644504,-0.794986,-0.724698,-0.756366,-0.780194,-0.686777,-0.800000,-0.600000,
-0.800000,0.600000,-0.780194,0.686777,-0.724698,0.756366,-0.644504,0.794986,-0.605014,0.794986,-0.600000,0.800000,0.000000,0.800000,0.178017,0.779942,0.178017,0.779942,$1*%
G04 Aperture macros list end*
%ADD10C,3.200000*%
%ADD11RoundRect,0.250000X-0.600000X0.600000X-0.600000X-0.600000X0.600000X-0.600000X0.600000X0.600000X0*%
%ADD12C,1.700000*%
%ADD13RoundRect,0.250000X-0.600000X-0.600000X0.600000X-0.600000X0.600000X0.600000X-0.600000X0.600000X0*%
%ADD14RoundRect,0.250000X-0.600000X-0.725000X0.600000X-0.725000X0.600000X0.725000X-0.600000X0.725000X0*%
%ADD15O,1.700000X1.950000*%
%ADD16RoundRect,0.250000X0.600000X0.600000X-0.600000X0.600000X-0.600000X-0.600000X0.600000X-0.600000X0*%
%ADD17C,2.200000*%
%ADD18C,1.850000*%
%ADD19RoundRect,0.200000X0.600000X0.600000X-0.600000X0.600000X-0.600000X-0.600000X0.600000X-0.600000X0*%
%ADD20C,1.600000*%
%ADD21FreePoly0,180.000000*%
%ADD22FreePoly1,180.000000*%
%ADD23R,1.700000X1.700000*%
%ADD24O,1.700000X1.700000*%
G04 APERTURE END LIST*
D10*
X157500000Y-67500000D03*
D11*
X158410000Y-54750000D03*
D12*
X158410000Y-57290000D03*
X155870000Y-54750000D03*
X155870000Y-57290000D03*
X153330000Y-54750000D03*
X153330000Y-57290000D03*
X150790000Y-54750000D03*
X150790000Y-57290000D03*
X148250000Y-54750000D03*
X148250000Y-57290000D03*
D10*
X107500000Y-67500000D03*
D13*
X104210000Y-83000000D03*
D12*
X106750000Y-83000000D03*
X104210000Y-85540000D03*
X106750000Y-85540000D03*
X104210000Y-88080000D03*
X106750000Y-88080000D03*
X104210000Y-90620000D03*
X106750000Y-90620000D03*
X104210000Y-93160000D03*
X106750000Y-93160000D03*
D10*
X107500000Y-112500000D03*
X157500000Y-112500000D03*
D14*
X104000000Y-54000000D03*
D15*
X106500000Y-54000000D03*
X109000000Y-54000000D03*
X111500000Y-54000000D03*
X114000000Y-54000000D03*
X116500000Y-54000000D03*
D16*
X160540000Y-93160000D03*
D12*
X158000000Y-93160000D03*
X160540000Y-90620000D03*
X158000000Y-90620000D03*
X160540000Y-88080000D03*
X158000000Y-88080000D03*
X160540000Y-85540000D03*
X158000000Y-85540000D03*
X160540000Y-83000000D03*
X158000000Y-83000000D03*
D17*
X135115000Y-117630000D03*
D18*
X134815000Y-114600000D03*
X129965000Y-114600000D03*
D17*
X129665000Y-117630000D03*
D19*
X141280000Y-117760000D03*
D20*
X141280000Y-115220000D03*
D21*
X141280000Y-112680000D03*
D20*
X141280000Y-110140000D03*
X141280000Y-107600000D03*
X141280000Y-105060000D03*
X141280000Y-102520000D03*
D21*
X141280000Y-99980000D03*
D20*
X141280000Y-97440000D03*
X141280000Y-94900000D03*
X141280000Y-92360000D03*
X141280000Y-89820000D03*
D21*
X141280000Y-87280000D03*
D20*
X141280000Y-84740000D03*
X141280000Y-82200000D03*
X141280000Y-79660000D03*
X141280000Y-77120000D03*
D21*
X141280000Y-74580000D03*
D20*
X141280000Y-72040000D03*
X141280000Y-69500000D03*
X123500000Y-69500000D03*
X123500000Y-72040000D03*
D22*
X123500000Y-74580000D03*
D20*
X123500000Y-77120000D03*
X123500000Y-79660000D03*
X123500000Y-82200000D03*
X123500000Y-84740000D03*
D22*
X123500000Y-87280000D03*
D20*
X123500000Y-89820000D03*
X123500000Y-92360000D03*
X123500000Y-94900000D03*
X123500000Y-97440000D03*
D22*
X123500000Y-99980000D03*
D20*
X123500000Y-102520000D03*
X123500000Y-105060000D03*
X123500000Y-107600000D03*
X123500000Y-110140000D03*
D22*
X123500000Y-112680000D03*
D20*
X123500000Y-115220000D03*
X123500000Y-117760000D03*
D23*
X147000000Y-117830000D03*
D24*
X147000000Y-115290000D03*
X147000000Y-112750000D03*
M02*
