%TF.GenerationSoftware,KiCad,Pcbnew,8.0.5*%
%TF.CreationDate,2024-10-24T17:48:36+02:00*%
%TF.ProjectId,parallel_adapter,70617261-6c6c-4656-9c5f-616461707465,rev?*%
%TF.SameCoordinates,Original*%
%TF.FileFunction,Drillmap*%
%TF.FilePolarity,Positive*%
%FSLAX45Y45*%
G04 Gerber Fmt 4.5, Leading zero omitted, Abs format (unit mm)*
G04 Created by KiCad (PCBNEW 8.0.5) date 2024-10-24 17:48:36*
%MOMM*%
%LPD*%
G01*
G04 APERTURE LIST*
%ADD10C,0.050000*%
%ADD11C,0.200000*%
%ADD12C,0.320000*%
G04 APERTURE END LIST*
D10*
X13060000Y-6920000D02*
X16980000Y-6920000D01*
X16980000Y-10120000D01*
X13060000Y-10120000D01*
X13060000Y-6920000D01*
D11*
D12*
X13200000Y-8060000D02*
X13520000Y-8380000D01*
X13520000Y-8060000D02*
X13200000Y-8380000D01*
X16520000Y-8060000D02*
X16840000Y-8380000D01*
X16840000Y-8060000D02*
X16520000Y-8380000D01*
D11*
X13318277Y-10433984D02*
X13318277Y-10233984D01*
X13318277Y-10233984D02*
X13365896Y-10233984D01*
X13365896Y-10233984D02*
X13394467Y-10243508D01*
X13394467Y-10243508D02*
X13413515Y-10262555D01*
X13413515Y-10262555D02*
X13423039Y-10281603D01*
X13423039Y-10281603D02*
X13432562Y-10319698D01*
X13432562Y-10319698D02*
X13432562Y-10348270D01*
X13432562Y-10348270D02*
X13423039Y-10386365D01*
X13423039Y-10386365D02*
X13413515Y-10405412D01*
X13413515Y-10405412D02*
X13394467Y-10424460D01*
X13394467Y-10424460D02*
X13365896Y-10433984D01*
X13365896Y-10433984D02*
X13318277Y-10433984D01*
X13518277Y-10433984D02*
X13518277Y-10300650D01*
X13518277Y-10338746D02*
X13527801Y-10319698D01*
X13527801Y-10319698D02*
X13537324Y-10310174D01*
X13537324Y-10310174D02*
X13556372Y-10300650D01*
X13556372Y-10300650D02*
X13575420Y-10300650D01*
X13642086Y-10433984D02*
X13642086Y-10300650D01*
X13642086Y-10233984D02*
X13632562Y-10243508D01*
X13632562Y-10243508D02*
X13642086Y-10253031D01*
X13642086Y-10253031D02*
X13651610Y-10243508D01*
X13651610Y-10243508D02*
X13642086Y-10233984D01*
X13642086Y-10233984D02*
X13642086Y-10253031D01*
X13765896Y-10433984D02*
X13746848Y-10424460D01*
X13746848Y-10424460D02*
X13737324Y-10405412D01*
X13737324Y-10405412D02*
X13737324Y-10233984D01*
X13870658Y-10433984D02*
X13851610Y-10424460D01*
X13851610Y-10424460D02*
X13842086Y-10405412D01*
X13842086Y-10405412D02*
X13842086Y-10233984D01*
X14099229Y-10433984D02*
X14099229Y-10233984D01*
X14099229Y-10233984D02*
X14165896Y-10376841D01*
X14165896Y-10376841D02*
X14232562Y-10233984D01*
X14232562Y-10233984D02*
X14232562Y-10433984D01*
X14413515Y-10433984D02*
X14413515Y-10329222D01*
X14413515Y-10329222D02*
X14403991Y-10310174D01*
X14403991Y-10310174D02*
X14384943Y-10300650D01*
X14384943Y-10300650D02*
X14346848Y-10300650D01*
X14346848Y-10300650D02*
X14327801Y-10310174D01*
X14413515Y-10424460D02*
X14394467Y-10433984D01*
X14394467Y-10433984D02*
X14346848Y-10433984D01*
X14346848Y-10433984D02*
X14327801Y-10424460D01*
X14327801Y-10424460D02*
X14318277Y-10405412D01*
X14318277Y-10405412D02*
X14318277Y-10386365D01*
X14318277Y-10386365D02*
X14327801Y-10367317D01*
X14327801Y-10367317D02*
X14346848Y-10357793D01*
X14346848Y-10357793D02*
X14394467Y-10357793D01*
X14394467Y-10357793D02*
X14413515Y-10348270D01*
X14508753Y-10300650D02*
X14508753Y-10500650D01*
X14508753Y-10310174D02*
X14527801Y-10300650D01*
X14527801Y-10300650D02*
X14565896Y-10300650D01*
X14565896Y-10300650D02*
X14584943Y-10310174D01*
X14584943Y-10310174D02*
X14594467Y-10319698D01*
X14594467Y-10319698D02*
X14603991Y-10338746D01*
X14603991Y-10338746D02*
X14603991Y-10395889D01*
X14603991Y-10395889D02*
X14594467Y-10414936D01*
X14594467Y-10414936D02*
X14584943Y-10424460D01*
X14584943Y-10424460D02*
X14565896Y-10433984D01*
X14565896Y-10433984D02*
X14527801Y-10433984D01*
X14527801Y-10433984D02*
X14508753Y-10424460D01*
X14689705Y-10414936D02*
X14699229Y-10424460D01*
X14699229Y-10424460D02*
X14689705Y-10433984D01*
X14689705Y-10433984D02*
X14680182Y-10424460D01*
X14680182Y-10424460D02*
X14689705Y-10414936D01*
X14689705Y-10414936D02*
X14689705Y-10433984D01*
X14689705Y-10310174D02*
X14699229Y-10319698D01*
X14699229Y-10319698D02*
X14689705Y-10329222D01*
X14689705Y-10329222D02*
X14680182Y-10319698D01*
X14680182Y-10319698D02*
X14689705Y-10310174D01*
X14689705Y-10310174D02*
X14689705Y-10329222D01*
X12857500Y-10662500D02*
X13057500Y-10862500D01*
X13057500Y-10662500D02*
X12857500Y-10862500D01*
X13299229Y-10653984D02*
X13423039Y-10653984D01*
X13423039Y-10653984D02*
X13356372Y-10730174D01*
X13356372Y-10730174D02*
X13384943Y-10730174D01*
X13384943Y-10730174D02*
X13403991Y-10739698D01*
X13403991Y-10739698D02*
X13413515Y-10749222D01*
X13413515Y-10749222D02*
X13423039Y-10768270D01*
X13423039Y-10768270D02*
X13423039Y-10815889D01*
X13423039Y-10815889D02*
X13413515Y-10834936D01*
X13413515Y-10834936D02*
X13403991Y-10844460D01*
X13403991Y-10844460D02*
X13384943Y-10853984D01*
X13384943Y-10853984D02*
X13327801Y-10853984D01*
X13327801Y-10853984D02*
X13308753Y-10844460D01*
X13308753Y-10844460D02*
X13299229Y-10834936D01*
X13508753Y-10834936D02*
X13518277Y-10844460D01*
X13518277Y-10844460D02*
X13508753Y-10853984D01*
X13508753Y-10853984D02*
X13499229Y-10844460D01*
X13499229Y-10844460D02*
X13508753Y-10834936D01*
X13508753Y-10834936D02*
X13508753Y-10853984D01*
X13594467Y-10673031D02*
X13603991Y-10663508D01*
X13603991Y-10663508D02*
X13623039Y-10653984D01*
X13623039Y-10653984D02*
X13670658Y-10653984D01*
X13670658Y-10653984D02*
X13689705Y-10663508D01*
X13689705Y-10663508D02*
X13699229Y-10673031D01*
X13699229Y-10673031D02*
X13708753Y-10692079D01*
X13708753Y-10692079D02*
X13708753Y-10711127D01*
X13708753Y-10711127D02*
X13699229Y-10739698D01*
X13699229Y-10739698D02*
X13584943Y-10853984D01*
X13584943Y-10853984D02*
X13708753Y-10853984D01*
X13832562Y-10653984D02*
X13851610Y-10653984D01*
X13851610Y-10653984D02*
X13870658Y-10663508D01*
X13870658Y-10663508D02*
X13880182Y-10673031D01*
X13880182Y-10673031D02*
X13889705Y-10692079D01*
X13889705Y-10692079D02*
X13899229Y-10730174D01*
X13899229Y-10730174D02*
X13899229Y-10777793D01*
X13899229Y-10777793D02*
X13889705Y-10815889D01*
X13889705Y-10815889D02*
X13880182Y-10834936D01*
X13880182Y-10834936D02*
X13870658Y-10844460D01*
X13870658Y-10844460D02*
X13851610Y-10853984D01*
X13851610Y-10853984D02*
X13832562Y-10853984D01*
X13832562Y-10853984D02*
X13813515Y-10844460D01*
X13813515Y-10844460D02*
X13803991Y-10834936D01*
X13803991Y-10834936D02*
X13794467Y-10815889D01*
X13794467Y-10815889D02*
X13784943Y-10777793D01*
X13784943Y-10777793D02*
X13784943Y-10730174D01*
X13784943Y-10730174D02*
X13794467Y-10692079D01*
X13794467Y-10692079D02*
X13803991Y-10673031D01*
X13803991Y-10673031D02*
X13813515Y-10663508D01*
X13813515Y-10663508D02*
X13832562Y-10653984D01*
X14023039Y-10653984D02*
X14042086Y-10653984D01*
X14042086Y-10653984D02*
X14061134Y-10663508D01*
X14061134Y-10663508D02*
X14070658Y-10673031D01*
X14070658Y-10673031D02*
X14080182Y-10692079D01*
X14080182Y-10692079D02*
X14089705Y-10730174D01*
X14089705Y-10730174D02*
X14089705Y-10777793D01*
X14089705Y-10777793D02*
X14080182Y-10815889D01*
X14080182Y-10815889D02*
X14070658Y-10834936D01*
X14070658Y-10834936D02*
X14061134Y-10844460D01*
X14061134Y-10844460D02*
X14042086Y-10853984D01*
X14042086Y-10853984D02*
X14023039Y-10853984D01*
X14023039Y-10853984D02*
X14003991Y-10844460D01*
X14003991Y-10844460D02*
X13994467Y-10834936D01*
X13994467Y-10834936D02*
X13984943Y-10815889D01*
X13984943Y-10815889D02*
X13975420Y-10777793D01*
X13975420Y-10777793D02*
X13975420Y-10730174D01*
X13975420Y-10730174D02*
X13984943Y-10692079D01*
X13984943Y-10692079D02*
X13994467Y-10673031D01*
X13994467Y-10673031D02*
X14003991Y-10663508D01*
X14003991Y-10663508D02*
X14023039Y-10653984D01*
X14175420Y-10853984D02*
X14175420Y-10720650D01*
X14175420Y-10739698D02*
X14184943Y-10730174D01*
X14184943Y-10730174D02*
X14203991Y-10720650D01*
X14203991Y-10720650D02*
X14232563Y-10720650D01*
X14232563Y-10720650D02*
X14251610Y-10730174D01*
X14251610Y-10730174D02*
X14261134Y-10749222D01*
X14261134Y-10749222D02*
X14261134Y-10853984D01*
X14261134Y-10749222D02*
X14270658Y-10730174D01*
X14270658Y-10730174D02*
X14289705Y-10720650D01*
X14289705Y-10720650D02*
X14318277Y-10720650D01*
X14318277Y-10720650D02*
X14337324Y-10730174D01*
X14337324Y-10730174D02*
X14346848Y-10749222D01*
X14346848Y-10749222D02*
X14346848Y-10853984D01*
X14442086Y-10853984D02*
X14442086Y-10720650D01*
X14442086Y-10739698D02*
X14451610Y-10730174D01*
X14451610Y-10730174D02*
X14470658Y-10720650D01*
X14470658Y-10720650D02*
X14499229Y-10720650D01*
X14499229Y-10720650D02*
X14518277Y-10730174D01*
X14518277Y-10730174D02*
X14527801Y-10749222D01*
X14527801Y-10749222D02*
X14527801Y-10853984D01*
X14527801Y-10749222D02*
X14537324Y-10730174D01*
X14537324Y-10730174D02*
X14556372Y-10720650D01*
X14556372Y-10720650D02*
X14584943Y-10720650D01*
X14584943Y-10720650D02*
X14603991Y-10730174D01*
X14603991Y-10730174D02*
X14613515Y-10749222D01*
X14613515Y-10749222D02*
X14613515Y-10853984D01*
X15003991Y-10644460D02*
X14832563Y-10901603D01*
X15261134Y-10653984D02*
X15280182Y-10653984D01*
X15280182Y-10653984D02*
X15299229Y-10663508D01*
X15299229Y-10663508D02*
X15308753Y-10673031D01*
X15308753Y-10673031D02*
X15318277Y-10692079D01*
X15318277Y-10692079D02*
X15327801Y-10730174D01*
X15327801Y-10730174D02*
X15327801Y-10777793D01*
X15327801Y-10777793D02*
X15318277Y-10815889D01*
X15318277Y-10815889D02*
X15308753Y-10834936D01*
X15308753Y-10834936D02*
X15299229Y-10844460D01*
X15299229Y-10844460D02*
X15280182Y-10853984D01*
X15280182Y-10853984D02*
X15261134Y-10853984D01*
X15261134Y-10853984D02*
X15242086Y-10844460D01*
X15242086Y-10844460D02*
X15232563Y-10834936D01*
X15232563Y-10834936D02*
X15223039Y-10815889D01*
X15223039Y-10815889D02*
X15213515Y-10777793D01*
X15213515Y-10777793D02*
X15213515Y-10730174D01*
X15213515Y-10730174D02*
X15223039Y-10692079D01*
X15223039Y-10692079D02*
X15232563Y-10673031D01*
X15232563Y-10673031D02*
X15242086Y-10663508D01*
X15242086Y-10663508D02*
X15261134Y-10653984D01*
X15413515Y-10834936D02*
X15423039Y-10844460D01*
X15423039Y-10844460D02*
X15413515Y-10853984D01*
X15413515Y-10853984D02*
X15403991Y-10844460D01*
X15403991Y-10844460D02*
X15413515Y-10834936D01*
X15413515Y-10834936D02*
X15413515Y-10853984D01*
X15613515Y-10853984D02*
X15499229Y-10853984D01*
X15556372Y-10853984D02*
X15556372Y-10653984D01*
X15556372Y-10653984D02*
X15537325Y-10682555D01*
X15537325Y-10682555D02*
X15518277Y-10701603D01*
X15518277Y-10701603D02*
X15499229Y-10711127D01*
X15689706Y-10673031D02*
X15699229Y-10663508D01*
X15699229Y-10663508D02*
X15718277Y-10653984D01*
X15718277Y-10653984D02*
X15765896Y-10653984D01*
X15765896Y-10653984D02*
X15784944Y-10663508D01*
X15784944Y-10663508D02*
X15794467Y-10673031D01*
X15794467Y-10673031D02*
X15803991Y-10692079D01*
X15803991Y-10692079D02*
X15803991Y-10711127D01*
X15803991Y-10711127D02*
X15794467Y-10739698D01*
X15794467Y-10739698D02*
X15680182Y-10853984D01*
X15680182Y-10853984D02*
X15803991Y-10853984D01*
X15975420Y-10653984D02*
X15937325Y-10653984D01*
X15937325Y-10653984D02*
X15918277Y-10663508D01*
X15918277Y-10663508D02*
X15908753Y-10673031D01*
X15908753Y-10673031D02*
X15889706Y-10701603D01*
X15889706Y-10701603D02*
X15880182Y-10739698D01*
X15880182Y-10739698D02*
X15880182Y-10815889D01*
X15880182Y-10815889D02*
X15889706Y-10834936D01*
X15889706Y-10834936D02*
X15899229Y-10844460D01*
X15899229Y-10844460D02*
X15918277Y-10853984D01*
X15918277Y-10853984D02*
X15956372Y-10853984D01*
X15956372Y-10853984D02*
X15975420Y-10844460D01*
X15975420Y-10844460D02*
X15984944Y-10834936D01*
X15984944Y-10834936D02*
X15994467Y-10815889D01*
X15994467Y-10815889D02*
X15994467Y-10768270D01*
X15994467Y-10768270D02*
X15984944Y-10749222D01*
X15984944Y-10749222D02*
X15975420Y-10739698D01*
X15975420Y-10739698D02*
X15956372Y-10730174D01*
X15956372Y-10730174D02*
X15918277Y-10730174D01*
X15918277Y-10730174D02*
X15899229Y-10739698D01*
X15899229Y-10739698D02*
X15889706Y-10749222D01*
X15889706Y-10749222D02*
X15880182Y-10768270D01*
X16118277Y-10653984D02*
X16137325Y-10653984D01*
X16137325Y-10653984D02*
X16156372Y-10663508D01*
X16156372Y-10663508D02*
X16165896Y-10673031D01*
X16165896Y-10673031D02*
X16175420Y-10692079D01*
X16175420Y-10692079D02*
X16184944Y-10730174D01*
X16184944Y-10730174D02*
X16184944Y-10777793D01*
X16184944Y-10777793D02*
X16175420Y-10815889D01*
X16175420Y-10815889D02*
X16165896Y-10834936D01*
X16165896Y-10834936D02*
X16156372Y-10844460D01*
X16156372Y-10844460D02*
X16137325Y-10853984D01*
X16137325Y-10853984D02*
X16118277Y-10853984D01*
X16118277Y-10853984D02*
X16099229Y-10844460D01*
X16099229Y-10844460D02*
X16089706Y-10834936D01*
X16089706Y-10834936D02*
X16080182Y-10815889D01*
X16080182Y-10815889D02*
X16070658Y-10777793D01*
X16070658Y-10777793D02*
X16070658Y-10730174D01*
X16070658Y-10730174D02*
X16080182Y-10692079D01*
X16080182Y-10692079D02*
X16089706Y-10673031D01*
X16089706Y-10673031D02*
X16099229Y-10663508D01*
X16099229Y-10663508D02*
X16118277Y-10653984D01*
X16261134Y-10653984D02*
X16261134Y-10692079D01*
X16337325Y-10653984D02*
X16337325Y-10692079D01*
X16632563Y-10930174D02*
X16623039Y-10920650D01*
X16623039Y-10920650D02*
X16603991Y-10892079D01*
X16603991Y-10892079D02*
X16594468Y-10873031D01*
X16594468Y-10873031D02*
X16584944Y-10844460D01*
X16584944Y-10844460D02*
X16575420Y-10796841D01*
X16575420Y-10796841D02*
X16575420Y-10758746D01*
X16575420Y-10758746D02*
X16584944Y-10711127D01*
X16584944Y-10711127D02*
X16594468Y-10682555D01*
X16594468Y-10682555D02*
X16603991Y-10663508D01*
X16603991Y-10663508D02*
X16623039Y-10634936D01*
X16623039Y-10634936D02*
X16632563Y-10625412D01*
X16699229Y-10673031D02*
X16708753Y-10663508D01*
X16708753Y-10663508D02*
X16727801Y-10653984D01*
X16727801Y-10653984D02*
X16775420Y-10653984D01*
X16775420Y-10653984D02*
X16794468Y-10663508D01*
X16794468Y-10663508D02*
X16803991Y-10673031D01*
X16803991Y-10673031D02*
X16813515Y-10692079D01*
X16813515Y-10692079D02*
X16813515Y-10711127D01*
X16813515Y-10711127D02*
X16803991Y-10739698D01*
X16803991Y-10739698D02*
X16689706Y-10853984D01*
X16689706Y-10853984D02*
X16813515Y-10853984D01*
X17051611Y-10853984D02*
X17051611Y-10653984D01*
X17137325Y-10853984D02*
X17137325Y-10749222D01*
X17137325Y-10749222D02*
X17127801Y-10730174D01*
X17127801Y-10730174D02*
X17108753Y-10720650D01*
X17108753Y-10720650D02*
X17080182Y-10720650D01*
X17080182Y-10720650D02*
X17061134Y-10730174D01*
X17061134Y-10730174D02*
X17051611Y-10739698D01*
X17261134Y-10853984D02*
X17242087Y-10844460D01*
X17242087Y-10844460D02*
X17232563Y-10834936D01*
X17232563Y-10834936D02*
X17223039Y-10815889D01*
X17223039Y-10815889D02*
X17223039Y-10758746D01*
X17223039Y-10758746D02*
X17232563Y-10739698D01*
X17232563Y-10739698D02*
X17242087Y-10730174D01*
X17242087Y-10730174D02*
X17261134Y-10720650D01*
X17261134Y-10720650D02*
X17289706Y-10720650D01*
X17289706Y-10720650D02*
X17308753Y-10730174D01*
X17308753Y-10730174D02*
X17318277Y-10739698D01*
X17318277Y-10739698D02*
X17327801Y-10758746D01*
X17327801Y-10758746D02*
X17327801Y-10815889D01*
X17327801Y-10815889D02*
X17318277Y-10834936D01*
X17318277Y-10834936D02*
X17308753Y-10844460D01*
X17308753Y-10844460D02*
X17289706Y-10853984D01*
X17289706Y-10853984D02*
X17261134Y-10853984D01*
X17442087Y-10853984D02*
X17423039Y-10844460D01*
X17423039Y-10844460D02*
X17413515Y-10825412D01*
X17413515Y-10825412D02*
X17413515Y-10653984D01*
X17594468Y-10844460D02*
X17575420Y-10853984D01*
X17575420Y-10853984D02*
X17537325Y-10853984D01*
X17537325Y-10853984D02*
X17518277Y-10844460D01*
X17518277Y-10844460D02*
X17508753Y-10825412D01*
X17508753Y-10825412D02*
X17508753Y-10749222D01*
X17508753Y-10749222D02*
X17518277Y-10730174D01*
X17518277Y-10730174D02*
X17537325Y-10720650D01*
X17537325Y-10720650D02*
X17575420Y-10720650D01*
X17575420Y-10720650D02*
X17594468Y-10730174D01*
X17594468Y-10730174D02*
X17603992Y-10749222D01*
X17603992Y-10749222D02*
X17603992Y-10768270D01*
X17603992Y-10768270D02*
X17508753Y-10787317D01*
X17680182Y-10844460D02*
X17699230Y-10853984D01*
X17699230Y-10853984D02*
X17737325Y-10853984D01*
X17737325Y-10853984D02*
X17756373Y-10844460D01*
X17756373Y-10844460D02*
X17765896Y-10825412D01*
X17765896Y-10825412D02*
X17765896Y-10815889D01*
X17765896Y-10815889D02*
X17756373Y-10796841D01*
X17756373Y-10796841D02*
X17737325Y-10787317D01*
X17737325Y-10787317D02*
X17708753Y-10787317D01*
X17708753Y-10787317D02*
X17689706Y-10777793D01*
X17689706Y-10777793D02*
X17680182Y-10758746D01*
X17680182Y-10758746D02*
X17680182Y-10749222D01*
X17680182Y-10749222D02*
X17689706Y-10730174D01*
X17689706Y-10730174D02*
X17708753Y-10720650D01*
X17708753Y-10720650D02*
X17737325Y-10720650D01*
X17737325Y-10720650D02*
X17756373Y-10730174D01*
X17832563Y-10930174D02*
X17842087Y-10920650D01*
X17842087Y-10920650D02*
X17861134Y-10892079D01*
X17861134Y-10892079D02*
X17870658Y-10873031D01*
X17870658Y-10873031D02*
X17880182Y-10844460D01*
X17880182Y-10844460D02*
X17889706Y-10796841D01*
X17889706Y-10796841D02*
X17889706Y-10758746D01*
X17889706Y-10758746D02*
X17880182Y-10711127D01*
X17880182Y-10711127D02*
X17870658Y-10682555D01*
X17870658Y-10682555D02*
X17861134Y-10663508D01*
X17861134Y-10663508D02*
X17842087Y-10634936D01*
X17842087Y-10634936D02*
X17832563Y-10625412D01*
X18194468Y-10930174D02*
X18184944Y-10920650D01*
X18184944Y-10920650D02*
X18165896Y-10892079D01*
X18165896Y-10892079D02*
X18156373Y-10873031D01*
X18156373Y-10873031D02*
X18146849Y-10844460D01*
X18146849Y-10844460D02*
X18137325Y-10796841D01*
X18137325Y-10796841D02*
X18137325Y-10758746D01*
X18137325Y-10758746D02*
X18146849Y-10711127D01*
X18146849Y-10711127D02*
X18156373Y-10682555D01*
X18156373Y-10682555D02*
X18165896Y-10663508D01*
X18165896Y-10663508D02*
X18184944Y-10634936D01*
X18184944Y-10634936D02*
X18194468Y-10625412D01*
X18270658Y-10720650D02*
X18270658Y-10853984D01*
X18270658Y-10739698D02*
X18280182Y-10730174D01*
X18280182Y-10730174D02*
X18299230Y-10720650D01*
X18299230Y-10720650D02*
X18327801Y-10720650D01*
X18327801Y-10720650D02*
X18346849Y-10730174D01*
X18346849Y-10730174D02*
X18356373Y-10749222D01*
X18356373Y-10749222D02*
X18356373Y-10853984D01*
X18480182Y-10853984D02*
X18461134Y-10844460D01*
X18461134Y-10844460D02*
X18451611Y-10834936D01*
X18451611Y-10834936D02*
X18442087Y-10815889D01*
X18442087Y-10815889D02*
X18442087Y-10758746D01*
X18442087Y-10758746D02*
X18451611Y-10739698D01*
X18451611Y-10739698D02*
X18461134Y-10730174D01*
X18461134Y-10730174D02*
X18480182Y-10720650D01*
X18480182Y-10720650D02*
X18508754Y-10720650D01*
X18508754Y-10720650D02*
X18527801Y-10730174D01*
X18527801Y-10730174D02*
X18537325Y-10739698D01*
X18537325Y-10739698D02*
X18546849Y-10758746D01*
X18546849Y-10758746D02*
X18546849Y-10815889D01*
X18546849Y-10815889D02*
X18537325Y-10834936D01*
X18537325Y-10834936D02*
X18527801Y-10844460D01*
X18527801Y-10844460D02*
X18508754Y-10853984D01*
X18508754Y-10853984D02*
X18480182Y-10853984D01*
X18603992Y-10720650D02*
X18680182Y-10720650D01*
X18632563Y-10653984D02*
X18632563Y-10825412D01*
X18632563Y-10825412D02*
X18642087Y-10844460D01*
X18642087Y-10844460D02*
X18661134Y-10853984D01*
X18661134Y-10853984D02*
X18680182Y-10853984D01*
X18899230Y-10720650D02*
X18899230Y-10920650D01*
X18899230Y-10730174D02*
X18918277Y-10720650D01*
X18918277Y-10720650D02*
X18956373Y-10720650D01*
X18956373Y-10720650D02*
X18975420Y-10730174D01*
X18975420Y-10730174D02*
X18984944Y-10739698D01*
X18984944Y-10739698D02*
X18994468Y-10758746D01*
X18994468Y-10758746D02*
X18994468Y-10815889D01*
X18994468Y-10815889D02*
X18984944Y-10834936D01*
X18984944Y-10834936D02*
X18975420Y-10844460D01*
X18975420Y-10844460D02*
X18956373Y-10853984D01*
X18956373Y-10853984D02*
X18918277Y-10853984D01*
X18918277Y-10853984D02*
X18899230Y-10844460D01*
X19108754Y-10853984D02*
X19089706Y-10844460D01*
X19089706Y-10844460D02*
X19080182Y-10825412D01*
X19080182Y-10825412D02*
X19080182Y-10653984D01*
X19270658Y-10853984D02*
X19270658Y-10749222D01*
X19270658Y-10749222D02*
X19261135Y-10730174D01*
X19261135Y-10730174D02*
X19242087Y-10720650D01*
X19242087Y-10720650D02*
X19203992Y-10720650D01*
X19203992Y-10720650D02*
X19184944Y-10730174D01*
X19270658Y-10844460D02*
X19251611Y-10853984D01*
X19251611Y-10853984D02*
X19203992Y-10853984D01*
X19203992Y-10853984D02*
X19184944Y-10844460D01*
X19184944Y-10844460D02*
X19175420Y-10825412D01*
X19175420Y-10825412D02*
X19175420Y-10806365D01*
X19175420Y-10806365D02*
X19184944Y-10787317D01*
X19184944Y-10787317D02*
X19203992Y-10777793D01*
X19203992Y-10777793D02*
X19251611Y-10777793D01*
X19251611Y-10777793D02*
X19270658Y-10768270D01*
X19337325Y-10720650D02*
X19413515Y-10720650D01*
X19365896Y-10653984D02*
X19365896Y-10825412D01*
X19365896Y-10825412D02*
X19375420Y-10844460D01*
X19375420Y-10844460D02*
X19394468Y-10853984D01*
X19394468Y-10853984D02*
X19413515Y-10853984D01*
X19556373Y-10844460D02*
X19537325Y-10853984D01*
X19537325Y-10853984D02*
X19499230Y-10853984D01*
X19499230Y-10853984D02*
X19480182Y-10844460D01*
X19480182Y-10844460D02*
X19470658Y-10825412D01*
X19470658Y-10825412D02*
X19470658Y-10749222D01*
X19470658Y-10749222D02*
X19480182Y-10730174D01*
X19480182Y-10730174D02*
X19499230Y-10720650D01*
X19499230Y-10720650D02*
X19537325Y-10720650D01*
X19537325Y-10720650D02*
X19556373Y-10730174D01*
X19556373Y-10730174D02*
X19565896Y-10749222D01*
X19565896Y-10749222D02*
X19565896Y-10768270D01*
X19565896Y-10768270D02*
X19470658Y-10787317D01*
X19737325Y-10853984D02*
X19737325Y-10653984D01*
X19737325Y-10844460D02*
X19718277Y-10853984D01*
X19718277Y-10853984D02*
X19680182Y-10853984D01*
X19680182Y-10853984D02*
X19661135Y-10844460D01*
X19661135Y-10844460D02*
X19651611Y-10834936D01*
X19651611Y-10834936D02*
X19642087Y-10815889D01*
X19642087Y-10815889D02*
X19642087Y-10758746D01*
X19642087Y-10758746D02*
X19651611Y-10739698D01*
X19651611Y-10739698D02*
X19661135Y-10730174D01*
X19661135Y-10730174D02*
X19680182Y-10720650D01*
X19680182Y-10720650D02*
X19718277Y-10720650D01*
X19718277Y-10720650D02*
X19737325Y-10730174D01*
X19813516Y-10930174D02*
X19823039Y-10920650D01*
X19823039Y-10920650D02*
X19842087Y-10892079D01*
X19842087Y-10892079D02*
X19851611Y-10873031D01*
X19851611Y-10873031D02*
X19861135Y-10844460D01*
X19861135Y-10844460D02*
X19870658Y-10796841D01*
X19870658Y-10796841D02*
X19870658Y-10758746D01*
X19870658Y-10758746D02*
X19861135Y-10711127D01*
X19861135Y-10711127D02*
X19851611Y-10682555D01*
X19851611Y-10682555D02*
X19842087Y-10663508D01*
X19842087Y-10663508D02*
X19823039Y-10634936D01*
X19823039Y-10634936D02*
X19813516Y-10625412D01*
M02*
