M48
; DRILL file {KiCad 8.0.5} date 2024-10-24T17:48:35+0200
; FORMAT={-:-/ absolute / metric / decimal}
; #@! TF.CreationDate,2024-10-24T17:48:35+02:00
; #@! TF.GenerationSoftware,Kicad,Pcbnew,8.0.5
; #@! TF.FileFunction,Plated,1,2,PTH
FMAT,2
METRIC
; #@! TA.AperFunction,Plated,PTH,ViaDrill
T1C0.300
; #@! TA.AperFunction,Plated,PTH,ComponentDrill
T2C1.000
; #@! TA.AperFunction,Plated,PTH,ComponentDrill
T3C3.200
%
G90
G05
T1
X144.4Y-85.2
X147.6Y-89.4
T2
X139.08Y-80.0
X139.08Y-82.54
X140.455Y-88.18
X141.62Y-80.0
X141.62Y-82.54
X141.84Y-91.02
X143.225Y-88.18
X144.16Y-80.0
X144.16Y-82.54
X144.61Y-91.02
X145.995Y-88.18
X146.7Y-80.0
X146.7Y-82.54
X147.38Y-91.02
X148.765Y-88.18
X149.24Y-80.0
X149.24Y-82.54
X150.15Y-91.02
X151.535Y-88.18
X151.78Y-80.0
X151.78Y-82.54
X152.92Y-91.02
X154.305Y-88.18
X154.32Y-80.0
X154.32Y-82.54
X155.69Y-91.02
X156.86Y-80.0
X156.86Y-82.54
X157.075Y-88.18
X158.46Y-91.02
X159.4Y-80.0
X159.4Y-82.54
X159.845Y-88.18
X161.94Y-80.0
X161.94Y-82.54
T3
X133.5Y-89.6
X166.8Y-89.6
M30
