  0
SECTION
  2
BLOCKS
  0
ENDSEC
  0
SECTION
  2
ENTITIES
  0
LINE
  8
0
 10
32.5
 20
17
 11
-32.5
 21
17
  0
LINE
  8
0
 10
-32.5
 20
17
 11
-32.5
 21
-53
  0
LINE
  8
0
 10
-32.5
 20
-53
 11
32.5
 21
-53
  0
LINE
  8
0
 10
32.5
 20
-53
 11
32.5
 21
17
  0
LINE
  8
0
 10
24.8901
 20
-2.24654
 11
24.6721
 21
-2.21899
  0
LINE
  8
0
 10
24.6721
 20
-2.21899
 11
24.4592
 21
-2.16434
  0
LINE
  8
0
 10
24.4592
 20
-2.16434
 11
24.2549
 21
-2.08344
  0
LINE
  8
0
 10
24.2549
 20
-2.08344
 11
24.0623
 21
-1.97757
  0
LINE
  8
0
 10
24.0623
 20
-1.97757
 11
23.8845
 21
-1.84839
  0
LINE
  8
0
 10
23.8845
 20
-1.84839
 11
23.7243
 21
-1.69795
  0
LINE
  8
0
 10
23.7243
 20
-1.69795
 11
23.5842
 21
-1.52861
  0
LINE
  8
0
 10
23.5842
 20
-1.52861
 11
23.4665
 21
-1.34306
  0
LINE
  8
0
 10
23.4665
 20
-1.34306
 11
23.3729
 21
-1.14421
  0
LINE
  8
0
 10
23.3729
 20
-1.14421
 11
23.305
 21
-0.935196
  0
LINE
  8
0
 10
23.305
 20
-0.935196
 11
23.2638
 21
-0.71933
  0
LINE
  8
0
 10
23.2638
 20
-0.71933
 11
23.25
 21
-0.5
  0
LINE
  8
0
 10
23.25
 20
-0.5
 11
23.2638
 21
-0.280655
  0
LINE
  8
0
 10
23.2638
 20
-0.280655
 11
23.305
 21
-0.0647888
  0
LINE
  8
0
 10
23.305
 20
-0.0647888
 11
23.3729
 21
0.144211
  0
LINE
  8
0
 10
23.3729
 20
0.144211
 11
23.4665
 21
0.343063
  0
LINE
  8
0
 10
23.4665
 20
0.343063
 11
23.5842
 21
0.52861
  0
LINE
  8
0
 10
23.5842
 20
0.52861
 11
23.7243
 21
0.697952
  0
LINE
  8
0
 10
23.7243
 20
0.697952
 11
23.8845
 21
0.848389
  0
LINE
  8
0
 10
23.8845
 20
0.848389
 11
24.0623
 21
0.97757
  0
LINE
  8
0
 10
24.0623
 20
0.97757
 11
24.2549
 21
1.08344
  0
LINE
  8
0
 10
24.2549
 20
1.08344
 11
24.4592
 21
1.16434
  0
LINE
  8
0
 10
24.4592
 20
1.16434
 11
24.6721
 21
1.21899
  0
LINE
  8
0
 10
24.6721
 20
1.21899
 11
24.8901
 21
1.24654
  0
LINE
  8
0
 10
24.8901
 20
1.24654
 11
25.1099
 21
1.24654
  0
LINE
  8
0
 10
25.1099
 20
1.24654
 11
25.3279
 21
1.21899
  0
LINE
  8
0
 10
25.3279
 20
1.21899
 11
25.5408
 21
1.16434
  0
LINE
  8
0
 10
25.5408
 20
1.16434
 11
25.7451
 21
1.08344
  0
LINE
  8
0
 10
25.7451
 20
1.08344
 11
25.9377
 21
0.97757
  0
LINE
  8
0
 10
25.9377
 20
0.97757
 11
26.1155
 21
0.848389
  0
LINE
  8
0
 10
26.1155
 20
0.848389
 11
26.2757
 21
0.697952
  0
LINE
  8
0
 10
26.2757
 20
0.697952
 11
26.4158
 21
0.52861
  0
LINE
  8
0
 10
26.4158
 20
0.52861
 11
26.5335
 21
0.343063
  0
LINE
  8
0
 10
26.5335
 20
0.343063
 11
26.6271
 21
0.144211
  0
LINE
  8
0
 10
26.6271
 20
0.144211
 11
26.695
 21
-0.0647888
  0
LINE
  8
0
 10
26.695
 20
-0.0647888
 11
26.7362
 21
-0.280655
  0
LINE
  8
0
 10
26.7362
 20
-0.280655
 11
26.75
 21
-0.5
  0
LINE
  8
0
 10
26.75
 20
-0.5
 11
26.7362
 21
-0.71933
  0
LINE
  8
0
 10
26.7362
 20
-0.71933
 11
26.695
 21
-0.935196
  0
LINE
  8
0
 10
26.695
 20
-0.935196
 11
26.6271
 21
-1.14421
  0
LINE
  8
0
 10
26.6271
 20
-1.14421
 11
26.5335
 21
-1.34306
  0
LINE
  8
0
 10
26.5335
 20
-1.34306
 11
26.4158
 21
-1.52861
  0
LINE
  8
0
 10
26.4158
 20
-1.52861
 11
26.2757
 21
-1.69795
  0
LINE
  8
0
 10
26.2757
 20
-1.69795
 11
26.1155
 21
-1.84839
  0
LINE
  8
0
 10
26.1155
 20
-1.84839
 11
25.9377
 21
-1.97757
  0
LINE
  8
0
 10
25.9377
 20
-1.97757
 11
25.7451
 21
-2.08344
  0
LINE
  8
0
 10
25.7451
 20
-2.08344
 11
25.5408
 21
-2.16434
  0
LINE
  8
0
 10
25.5408
 20
-2.16434
 11
25.3279
 21
-2.21899
  0
LINE
  8
0
 10
25.3279
 20
-2.21899
 11
25.1099
 21
-2.24654
  0
LINE
  8
0
 10
25.1099
 20
-2.24654
 11
24.8901
 21
-2.24654
  0
LINE
  8
0
 10
-25.1099
 20
-2.24654
 11
-25.3279
 21
-2.21899
  0
LINE
  8
0
 10
-25.3279
 20
-2.21899
 11
-25.5408
 21
-2.16434
  0
LINE
  8
0
 10
-25.5408
 20
-2.16434
 11
-25.7451
 21
-2.08344
  0
LINE
  8
0
 10
-25.7451
 20
-2.08344
 11
-25.9377
 21
-1.97757
  0
LINE
  8
0
 10
-25.9377
 20
-1.97757
 11
-26.1155
 21
-1.84839
  0
LINE
  8
0
 10
-26.1155
 20
-1.84839
 11
-26.2757
 21
-1.69795
  0
LINE
  8
0
 10
-26.2757
 20
-1.69795
 11
-26.4158
 21
-1.52861
  0
LINE
  8
0
 10
-26.4158
 20
-1.52861
 11
-26.5335
 21
-1.34306
  0
LINE
  8
0
 10
-26.5335
 20
-1.34306
 11
-26.6271
 21
-1.14421
  0
LINE
  8
0
 10
-26.6271
 20
-1.14421
 11
-26.695
 21
-0.935196
  0
LINE
  8
0
 10
-26.695
 20
-0.935196
 11
-26.7362
 21
-0.71933
  0
LINE
  8
0
 10
-26.7362
 20
-0.71933
 11
-26.75
 21
-0.5
  0
LINE
  8
0
 10
-26.75
 20
-0.5
 11
-26.7362
 21
-0.280655
  0
LINE
  8
0
 10
-26.7362
 20
-0.280655
 11
-26.695
 21
-0.0647888
  0
LINE
  8
0
 10
-26.695
 20
-0.0647888
 11
-26.6271
 21
0.144211
  0
LINE
  8
0
 10
-26.6271
 20
0.144211
 11
-26.5335
 21
0.343063
  0
LINE
  8
0
 10
-26.5335
 20
0.343063
 11
-26.4158
 21
0.52861
  0
LINE
  8
0
 10
-26.4158
 20
0.52861
 11
-26.2757
 21
0.697952
  0
LINE
  8
0
 10
-26.2757
 20
0.697952
 11
-26.1155
 21
0.848389
  0
LINE
  8
0
 10
-26.1155
 20
0.848389
 11
-25.9377
 21
0.97757
  0
LINE
  8
0
 10
-25.9377
 20
0.97757
 11
-25.7451
 21
1.08344
  0
LINE
  8
0
 10
-25.7451
 20
1.08344
 11
-25.5408
 21
1.16434
  0
LINE
  8
0
 10
-25.5408
 20
1.16434
 11
-25.3279
 21
1.21899
  0
LINE
  8
0
 10
-25.3279
 20
1.21899
 11
-25.1099
 21
1.24654
  0
LINE
  8
0
 10
-25.1099
 20
1.24654
 11
-24.8901
 21
1.24654
  0
LINE
  8
0
 10
-24.8901
 20
1.24654
 11
-24.6721
 21
1.21899
  0
LINE
  8
0
 10
-24.6721
 20
1.21899
 11
-24.4592
 21
1.16434
  0
LINE
  8
0
 10
-24.4592
 20
1.16434
 11
-24.2549
 21
1.08344
  0
LINE
  8
0
 10
-24.2549
 20
1.08344
 11
-24.0623
 21
0.97757
  0
LINE
  8
0
 10
-24.0623
 20
0.97757
 11
-23.8845
 21
0.848389
  0
LINE
  8
0
 10
-23.8845
 20
0.848389
 11
-23.7243
 21
0.697952
  0
LINE
  8
0
 10
-23.7243
 20
0.697952
 11
-23.5842
 21
0.52861
  0
LINE
  8
0
 10
-23.5842
 20
0.52861
 11
-23.4665
 21
0.343063
  0
LINE
  8
0
 10
-23.4665
 20
0.343063
 11
-23.3729
 21
0.144211
  0
LINE
  8
0
 10
-23.3729
 20
0.144211
 11
-23.305
 21
-0.0647888
  0
LINE
  8
0
 10
-23.305
 20
-0.0647888
 11
-23.2638
 21
-0.280655
  0
LINE
  8
0
 10
-23.2638
 20
-0.280655
 11
-23.25
 21
-0.5
  0
LINE
  8
0
 10
-23.25
 20
-0.5
 11
-23.2638
 21
-0.71933
  0
LINE
  8
0
 10
-23.2638
 20
-0.71933
 11
-23.305
 21
-0.935196
  0
LINE
  8
0
 10
-23.305
 20
-0.935196
 11
-23.3729
 21
-1.14421
  0
LINE
  8
0
 10
-23.3729
 20
-1.14421
 11
-23.4665
 21
-1.34306
  0
LINE
  8
0
 10
-23.4665
 20
-1.34306
 11
-23.5842
 21
-1.52861
  0
LINE
  8
0
 10
-23.5842
 20
-1.52861
 11
-23.7243
 21
-1.69795
  0
LINE
  8
0
 10
-23.7243
 20
-1.69795
 11
-23.8845
 21
-1.84839
  0
LINE
  8
0
 10
-23.8845
 20
-1.84839
 11
-24.0623
 21
-1.97757
  0
LINE
  8
0
 10
-24.0623
 20
-1.97757
 11
-24.2549
 21
-2.08344
  0
LINE
  8
0
 10
-24.2549
 20
-2.08344
 11
-24.4592
 21
-2.16434
  0
LINE
  8
0
 10
-24.4592
 20
-2.16434
 11
-24.6721
 21
-2.21899
  0
LINE
  8
0
 10
-24.6721
 20
-2.21899
 11
-24.8901
 21
-2.24654
  0
LINE
  8
0
 10
-24.8901
 20
-2.24654
 11
-25.1099
 21
-2.24654
  0
LINE
  8
0
 10
24.8901
 20
-47.2465
 11
24.6721
 21
-47.219
  0
LINE
  8
0
 10
24.6721
 20
-47.219
 11
24.4592
 21
-47.1643
  0
LINE
  8
0
 10
24.4592
 20
-47.1643
 11
24.2549
 21
-47.0834
  0
LINE
  8
0
 10
24.2549
 20
-47.0834
 11
24.0623
 21
-46.9776
  0
LINE
  8
0
 10
24.0623
 20
-46.9776
 11
23.8845
 21
-46.8484
  0
LINE
  8
0
 10
23.8845
 20
-46.8484
 11
23.7243
 21
-46.698
  0
LINE
  8
0
 10
23.7243
 20
-46.698
 11
23.5842
 21
-46.5286
  0
LINE
  8
0
 10
23.5842
 20
-46.5286
 11
23.4665
 21
-46.3431
  0
LINE
  8
0
 10
23.4665
 20
-46.3431
 11
23.3729
 21
-46.1442
  0
LINE
  8
0
 10
23.3729
 20
-46.1442
 11
23.305
 21
-45.9352
  0
LINE
  8
0
 10
23.305
 20
-45.9352
 11
23.2638
 21
-45.7193
  0
LINE
  8
0
 10
23.2638
 20
-45.7193
 11
23.25
 21
-45.5
  0
LINE
  8
0
 10
23.25
 20
-45.5
 11
23.2638
 21
-45.2807
  0
LINE
  8
0
 10
23.2638
 20
-45.2807
 11
23.305
 21
-45.0648
  0
LINE
  8
0
 10
23.305
 20
-45.0648
 11
23.3729
 21
-44.8558
  0
LINE
  8
0
 10
23.3729
 20
-44.8558
 11
23.4665
 21
-44.6569
  0
LINE
  8
0
 10
23.4665
 20
-44.6569
 11
23.5842
 21
-44.4714
  0
LINE
  8
0
 10
23.5842
 20
-44.4714
 11
23.7243
 21
-44.302
  0
LINE
  8
0
 10
23.7243
 20
-44.302
 11
23.8845
 21
-44.1516
  0
LINE
  8
0
 10
23.8845
 20
-44.1516
 11
24.0623
 21
-44.0224
  0
LINE
  8
0
 10
24.0623
 20
-44.0224
 11
24.2549
 21
-43.9165
  0
LINE
  8
0
 10
24.2549
 20
-43.9165
 11
24.4592
 21
-43.8356
  0
LINE
  8
0
 10
24.4592
 20
-43.8356
 11
24.6721
 21
-43.781
  0
LINE
  8
0
 10
24.6721
 20
-43.781
 11
24.8901
 21
-43.7534
  0
LINE
  8
0
 10
24.8901
 20
-43.7534
 11
25.1099
 21
-43.7534
  0
LINE
  8
0
 10
25.1099
 20
-43.7534
 11
25.3279
 21
-43.781
  0
LINE
  8
0
 10
25.3279
 20
-43.781
 11
25.5408
 21
-43.8356
  0
LINE
  8
0
 10
25.5408
 20
-43.8356
 11
25.7451
 21
-43.9165
  0
LINE
  8
0
 10
25.7451
 20
-43.9165
 11
25.9377
 21
-44.0224
  0
LINE
  8
0
 10
25.9377
 20
-44.0224
 11
26.1155
 21
-44.1516
  0
LINE
  8
0
 10
26.1155
 20
-44.1516
 11
26.2757
 21
-44.302
  0
LINE
  8
0
 10
26.2757
 20
-44.302
 11
26.4158
 21
-44.4714
  0
LINE
  8
0
 10
26.4158
 20
-44.4714
 11
26.5335
 21
-44.6569
  0
LINE
  8
0
 10
26.5335
 20
-44.6569
 11
26.6271
 21
-44.8558
  0
LINE
  8
0
 10
26.6271
 20
-44.8558
 11
26.695
 21
-45.0648
  0
LINE
  8
0
 10
26.695
 20
-45.0648
 11
26.7362
 21
-45.2807
  0
LINE
  8
0
 10
26.7362
 20
-45.2807
 11
26.75
 21
-45.5
  0
LINE
  8
0
 10
26.75
 20
-45.5
 11
26.7362
 21
-45.7193
  0
LINE
  8
0
 10
26.7362
 20
-45.7193
 11
26.695
 21
-45.9352
  0
LINE
  8
0
 10
26.695
 20
-45.9352
 11
26.6271
 21
-46.1442
  0
LINE
  8
0
 10
26.6271
 20
-46.1442
 11
26.5335
 21
-46.3431
  0
LINE
  8
0
 10
26.5335
 20
-46.3431
 11
26.4158
 21
-46.5286
  0
LINE
  8
0
 10
26.4158
 20
-46.5286
 11
26.2757
 21
-46.698
  0
LINE
  8
0
 10
26.2757
 20
-46.698
 11
26.1155
 21
-46.8484
  0
LINE
  8
0
 10
26.1155
 20
-46.8484
 11
25.9377
 21
-46.9776
  0
LINE
  8
0
 10
25.9377
 20
-46.9776
 11
25.7451
 21
-47.0834
  0
LINE
  8
0
 10
25.7451
 20
-47.0834
 11
25.5408
 21
-47.1643
  0
LINE
  8
0
 10
25.5408
 20
-47.1643
 11
25.3279
 21
-47.219
  0
LINE
  8
0
 10
25.3279
 20
-47.219
 11
25.1099
 21
-47.2465
  0
LINE
  8
0
 10
25.1099
 20
-47.2465
 11
24.8901
 21
-47.2465
  0
LINE
  8
0
 10
-25.1099
 20
-47.2465
 11
-25.3279
 21
-47.219
  0
LINE
  8
0
 10
-25.3279
 20
-47.219
 11
-25.5408
 21
-47.1643
  0
LINE
  8
0
 10
-25.5408
 20
-47.1643
 11
-25.7451
 21
-47.0834
  0
LINE
  8
0
 10
-25.7451
 20
-47.0834
 11
-25.9377
 21
-46.9776
  0
LINE
  8
0
 10
-25.9377
 20
-46.9776
 11
-26.1155
 21
-46.8484
  0
LINE
  8
0
 10
-26.1155
 20
-46.8484
 11
-26.2757
 21
-46.698
  0
LINE
  8
0
 10
-26.2757
 20
-46.698
 11
-26.4158
 21
-46.5286
  0
LINE
  8
0
 10
-26.4158
 20
-46.5286
 11
-26.5335
 21
-46.3431
  0
LINE
  8
0
 10
-26.5335
 20
-46.3431
 11
-26.6271
 21
-46.1442
  0
LINE
  8
0
 10
-26.6271
 20
-46.1442
 11
-26.695
 21
-45.9352
  0
LINE
  8
0
 10
-26.695
 20
-45.9352
 11
-26.7362
 21
-45.7193
  0
LINE
  8
0
 10
-26.7362
 20
-45.7193
 11
-26.75
 21
-45.5
  0
LINE
  8
0
 10
-26.75
 20
-45.5
 11
-26.7362
 21
-45.2807
  0
LINE
  8
0
 10
-26.7362
 20
-45.2807
 11
-26.695
 21
-45.0648
  0
LINE
  8
0
 10
-26.695
 20
-45.0648
 11
-26.6271
 21
-44.8558
  0
LINE
  8
0
 10
-26.6271
 20
-44.8558
 11
-26.5335
 21
-44.6569
  0
LINE
  8
0
 10
-26.5335
 20
-44.6569
 11
-26.4158
 21
-44.4714
  0
LINE
  8
0
 10
-26.4158
 20
-44.4714
 11
-26.2757
 21
-44.302
  0
LINE
  8
0
 10
-26.2757
 20
-44.302
 11
-26.1155
 21
-44.1516
  0
LINE
  8
0
 10
-26.1155
 20
-44.1516
 11
-25.9377
 21
-44.0224
  0
LINE
  8
0
 10
-25.9377
 20
-44.0224
 11
-25.7451
 21
-43.9165
  0
LINE
  8
0
 10
-25.7451
 20
-43.9165
 11
-25.5408
 21
-43.8356
  0
LINE
  8
0
 10
-25.5408
 20
-43.8356
 11
-25.3279
 21
-43.781
  0
LINE
  8
0
 10
-25.3279
 20
-43.781
 11
-25.1099
 21
-43.7534
  0
LINE
  8
0
 10
-25.1099
 20
-43.7534
 11
-24.8901
 21
-43.7534
  0
LINE
  8
0
 10
-24.8901
 20
-43.7534
 11
-24.6721
 21
-43.781
  0
LINE
  8
0
 10
-24.6721
 20
-43.781
 11
-24.4592
 21
-43.8356
  0
LINE
  8
0
 10
-24.4592
 20
-43.8356
 11
-24.2549
 21
-43.9165
  0
LINE
  8
0
 10
-24.2549
 20
-43.9165
 11
-24.0623
 21
-44.0224
  0
LINE
  8
0
 10
-24.0623
 20
-44.0224
 11
-23.8845
 21
-44.1516
  0
LINE
  8
0
 10
-23.8845
 20
-44.1516
 11
-23.7243
 21
-44.302
  0
LINE
  8
0
 10
-23.7243
 20
-44.302
 11
-23.5842
 21
-44.4714
  0
LINE
  8
0
 10
-23.5842
 20
-44.4714
 11
-23.4665
 21
-44.6569
  0
LINE
  8
0
 10
-23.4665
 20
-44.6569
 11
-23.3729
 21
-44.8558
  0
LINE
  8
0
 10
-23.3729
 20
-44.8558
 11
-23.305
 21
-45.0648
  0
LINE
  8
0
 10
-23.305
 20
-45.0648
 11
-23.2638
 21
-45.2807
  0
LINE
  8
0
 10
-23.2638
 20
-45.2807
 11
-23.25
 21
-45.5
  0
LINE
  8
0
 10
-23.25
 20
-45.5
 11
-23.2638
 21
-45.7193
  0
LINE
  8
0
 10
-23.2638
 20
-45.7193
 11
-23.305
 21
-45.9352
  0
LINE
  8
0
 10
-23.305
 20
-45.9352
 11
-23.3729
 21
-46.1442
  0
LINE
  8
0
 10
-23.3729
 20
-46.1442
 11
-23.4665
 21
-46.3431
  0
LINE
  8
0
 10
-23.4665
 20
-46.3431
 11
-23.5842
 21
-46.5286
  0
LINE
  8
0
 10
-23.5842
 20
-46.5286
 11
-23.7243
 21
-46.698
  0
LINE
  8
0
 10
-23.7243
 20
-46.698
 11
-23.8845
 21
-46.8484
  0
LINE
  8
0
 10
-23.8845
 20
-46.8484
 11
-24.0623
 21
-46.9776
  0
LINE
  8
0
 10
-24.0623
 20
-46.9776
 11
-24.2549
 21
-47.0834
  0
LINE
  8
0
 10
-24.2549
 20
-47.0834
 11
-24.4592
 21
-47.1643
  0
LINE
  8
0
 10
-24.4592
 20
-47.1643
 11
-24.6721
 21
-47.219
  0
LINE
  8
0
 10
-24.6721
 20
-47.219
 11
-24.8901
 21
-47.2465
  0
LINE
  8
0
 10
-24.8901
 20
-47.2465
 11
-25.1099
 21
-47.2465
  0
ENDSEC
  0
SECTION
  2
OBJECTS
  0
DICTIONARY
  0
ENDSEC
  0
EOF
