  0
SECTION
  2
BLOCKS
  0
ENDSEC
  0
SECTION
  2
ENTITIES
  0
LINE
  8
0
 10
-8.87059
 20
-15.483
 11
-8.75
 21
-15.433
  0
LINE
  8
0
 10
-8.75
 20
-15.433
 11
-8.64644
 21
-15.3535
  0
LINE
  8
0
 10
-8.64644
 20
-15.3535
 11
-5.40059
 21
-11.3586
  0
LINE
  8
0
 10
-5.40059
 20
-11.3586
 11
-4.01721
 21
-12.3637
  0
LINE
  8
0
 10
-4.01721
 20
-12.3637
 11
-0.404846
 21
-12.3637
  0
LINE
  8
0
 10
-0.404846
 20
-12.3637
 11
0.517029
 21
-15.1294
  0
LINE
  8
0
 10
0.517029
 20
-15.1294
 11
0.566986
 21
-15.25
  0
LINE
  8
0
 10
0.566986
 20
-15.25
 11
0.646439
 21
-15.3535
  0
LINE
  8
0
 10
0.646439
 20
-15.3535
 11
0.75
 21
-15.433
  0
LINE
  8
0
 10
0.75
 20
-15.433
 11
0.87059
 21
-15.483
  0
LINE
  8
0
 10
0.87059
 20
-15.483
 11
1
 21
-15.5
  0
LINE
  8
0
 10
1
 20
-15.5
 11
13
 21
-15.5
  0
LINE
  8
0
 10
13
 20
-15.5
 11
13.1294
 21
-15.483
  0
LINE
  8
0
 10
13.1294
 20
-15.483
 11
13.25
 21
-15.433
  0
LINE
  8
0
 10
13.25
 20
-15.433
 11
13.3535
 21
-15.3535
  0
LINE
  8
0
 10
13.3535
 20
-15.3535
 11
13.433
 21
-15.25
  0
LINE
  8
0
 10
13.433
 20
-15.25
 11
13.483
 21
-15.1294
  0
LINE
  8
0
 10
13.483
 20
-15.1294
 11
13.5
 21
-15
  0
LINE
  8
0
 10
13.5
 20
-15
 11
14
 21
-11
  0
LINE
  8
0
 10
14
 20
-11
 11
13.983
 21
-10.8706
  0
LINE
  8
0
 10
13.983
 20
-10.8706
 11
13.933
 21
-10.75
  0
LINE
  8
0
 10
13.933
 20
-10.75
 11
13.8535
 21
-10.6464
  0
LINE
  8
0
 10
13.8535
 20
-10.6464
 11
10.5984
 21
-7.3913
  0
LINE
  8
0
 10
10.5984
 20
-7.3913
 11
13
 21
0
  0
LINE
  8
0
 10
13
 20
0
 11
10.5984
 21
7.3913
  0
LINE
  8
0
 10
10.5984
 20
7.3913
 11
13.8535
 21
10.6464
  0
LINE
  8
0
 10
13.8535
 20
10.6464
 11
13.933
 21
10.75
  0
LINE
  8
0
 10
13.933
 20
10.75
 11
13.983
 21
10.8706
  0
LINE
  8
0
 10
13.983
 20
10.8706
 11
14
 21
11
  0
LINE
  8
0
 10
14
 20
11
 11
13.5
 21
15
  0
LINE
  8
0
 10
13.5
 20
15
 11
13.483
 21
15.1294
  0
LINE
  8
0
 10
13.483
 20
15.1294
 11
13.433
 21
15.25
  0
LINE
  8
0
 10
13.433
 20
15.25
 11
13.3535
 21
15.3535
  0
LINE
  8
0
 10
13.3535
 20
15.3535
 11
13.25
 21
15.433
  0
LINE
  8
0
 10
13.25
 20
15.433
 11
13.1294
 21
15.483
  0
LINE
  8
0
 10
13.1294
 20
15.483
 11
13
 21
15.5
  0
LINE
  8
0
 10
13
 20
15.5
 11
1
 21
15.5
  0
LINE
  8
0
 10
1
 20
15.5
 11
0.87059
 21
15.483
  0
LINE
  8
0
 10
0.87059
 20
15.483
 11
0.75
 21
15.433
  0
LINE
  8
0
 10
0.75
 20
15.433
 11
0.646439
 21
15.3535
  0
LINE
  8
0
 10
0.646439
 20
15.3535
 11
0.566986
 21
15.25
  0
LINE
  8
0
 10
0.566986
 20
15.25
 11
0.517029
 21
15.1294
  0
LINE
  8
0
 10
0.517029
 20
15.1294
 11
-0.404846
 21
12.3637
  0
LINE
  8
0
 10
-0.404846
 20
12.3637
 11
-4.01721
 21
12.3637
  0
LINE
  8
0
 10
-4.01721
 20
12.3637
 11
-5.40059
 21
11.3586
  0
LINE
  8
0
 10
-5.40059
 20
11.3586
 11
-8.64644
 21
15.3535
  0
LINE
  8
0
 10
-8.64644
 20
15.3535
 11
-8.75
 21
15.433
  0
LINE
  8
0
 10
-8.75
 20
15.433
 11
-8.87059
 21
15.483
  0
LINE
  8
0
 10
-8.87059
 20
15.483
 11
-9
 21
15.5
  0
LINE
  8
0
 10
-9
 20
15.5
 11
-13
 21
15.5
  0
LINE
  8
0
 10
-13
 20
15.5
 11
-13.1294
 21
15.483
  0
LINE
  8
0
 10
-13.1294
 20
15.483
 11
-13.25
 21
15.433
  0
LINE
  8
0
 10
-13.25
 20
15.433
 11
-13.3535
 21
15.3535
  0
LINE
  8
0
 10
-13.3535
 20
15.3535
 11
-13.433
 21
15.25
  0
LINE
  8
0
 10
-13.433
 20
15.25
 11
-13.483
 21
15.1294
  0
LINE
  8
0
 10
-13.483
 20
15.1294
 11
-14.483
 21
9.12939
  0
LINE
  8
0
 10
-14.483
 20
9.12939
 11
-14.5
 21
9
  0
LINE
  8
0
 10
-14.5
 20
9
 11
-14.483
 21
8.87059
  0
LINE
  8
0
 10
-14.483
 20
8.87059
 11
-14.433
 21
8.75
  0
LINE
  8
0
 10
-14.433
 20
8.75
 11
-14.3535
 21
8.64644
  0
LINE
  8
0
 10
-14.3535
 20
8.64644
 11
-11.1035
 21
5.89644
  0
LINE
  8
0
 10
-11.1035
 20
5.89644
 11
-11.088
 21
5.88451
  0
LINE
  8
0
 10
-11.088
 20
5.88451
 11
-11.8628
 21
3.5
  0
LINE
  8
0
 10
-11.8628
 20
3.5
 11
-16
 21
3.5
  0
LINE
  8
0
 10
-16
 20
3.5
 11
-16.1294
 21
3.48296
  0
LINE
  8
0
 10
-16.1294
 20
3.48296
 11
-16.25
 21
3.433
  0
LINE
  8
0
 10
-16.25
 20
3.433
 11
-16.3535
 21
3.35355
  0
LINE
  8
0
 10
-16.3535
 20
3.35355
 11
-19.3535
 21
0.353546
  0
LINE
  8
0
 10
-19.3535
 20
0.353546
 11
-19.433
 21
0.25
  0
LINE
  8
0
 10
-19.433
 20
0.25
 11
-19.483
 21
0.129395
  0
LINE
  8
0
 10
-19.483
 20
0.129395
 11
-19.5
 21
0
  0
LINE
  8
0
 10
-19.5
 20
0
 11
-19.483
 21
-0.129395
  0
LINE
  8
0
 10
-19.483
 20
-0.129395
 11
-19.433
 21
-0.25
  0
LINE
  8
0
 10
-19.433
 20
-0.25
 11
-19.3535
 21
-0.353546
  0
LINE
  8
0
 10
-19.3535
 20
-0.353546
 11
-16.3535
 21
-3.35355
  0
LINE
  8
0
 10
-16.3535
 20
-3.35355
 11
-16.25
 21
-3.433
  0
LINE
  8
0
 10
-16.25
 20
-3.433
 11
-16.1294
 21
-3.48296
  0
LINE
  8
0
 10
-16.1294
 20
-3.48296
 11
-16
 21
-3.5
  0
LINE
  8
0
 10
-16
 20
-3.5
 11
-11.8628
 21
-3.5
  0
LINE
  8
0
 10
-11.8628
 20
-3.5
 11
-11.088
 21
-5.88451
  0
LINE
  8
0
 10
-11.088
 20
-5.88451
 11
-11.1035
 21
-5.89644
  0
LINE
  8
0
 10
-11.1035
 20
-5.89644
 11
-14.3535
 21
-8.64644
  0
LINE
  8
0
 10
-14.3535
 20
-8.64644
 11
-14.433
 21
-8.75
  0
LINE
  8
0
 10
-14.433
 20
-8.75
 11
-14.483
 21
-8.87059
  0
LINE
  8
0
 10
-14.483
 20
-8.87059
 11
-14.5
 21
-9
  0
LINE
  8
0
 10
-14.5
 20
-9
 11
-14.483
 21
-9.12939
  0
LINE
  8
0
 10
-14.483
 20
-9.12939
 11
-13.483
 21
-15.1294
  0
LINE
  8
0
 10
-13.483
 20
-15.1294
 11
-13.433
 21
-15.25
  0
LINE
  8
0
 10
-13.433
 20
-15.25
 11
-13.3535
 21
-15.3535
  0
LINE
  8
0
 10
-13.3535
 20
-15.3535
 11
-13.25
 21
-15.433
  0
LINE
  8
0
 10
-13.25
 20
-15.433
 11
-13.1294
 21
-15.483
  0
LINE
  8
0
 10
-13.1294
 20
-15.483
 11
-13
 21
-15.5
  0
LINE
  8
0
 10
-13
 20
-15.5
 11
-9
 21
-15.5
  0
LINE
  8
0
 10
-9
 20
-15.5
 11
-8.87059
 21
-15.483
  0
LINE
  8
0
 10
4.01721
 20
12.3637
 11
0.647339
 21
12.3637
  0
LINE
  8
0
 10
0.647339
 20
12.3637
 11
1.35942
 21
14.5
  0
LINE
  8
0
 10
1.35942
 20
14.5
 11
12.5625
 21
14.5
  0
LINE
  8
0
 10
12.5625
 20
14.5
 11
12.977
 21
11.1841
  0
LINE
  8
0
 10
12.977
 20
11.1841
 11
9.88988
 21
8.09698
  0
LINE
  8
0
 10
9.88988
 20
8.09698
 11
4.01721
 21
12.3637
  0
LINE
  8
0
 10
-13.4625
 20
9.19789
 11
-12.5788
 21
14.5
  0
LINE
  8
0
 10
-12.5788
 20
14.5
 11
-9.23456
 21
14.5
  0
LINE
  8
0
 10
-9.23456
 20
14.5
 11
-6.20648
 21
10.7731
  0
LINE
  8
0
 10
-6.20648
 20
10.7731
 11
-10.5172
 21
7.6412
  0
LINE
  8
0
 10
-10.5172
 20
7.6412
 11
-10.7556
 21
6.90747
  0
LINE
  8
0
 10
-10.7556
 20
6.90747
 11
-13.4625
 21
9.19789
  0
LINE
  8
0
 10
-9.28287
 20
7.36243
 11
-3.70819
 21
11.4127
  0
LINE
  8
0
 10
-3.70819
 20
11.4127
 11
3.18246
 21
11.4127
  0
LINE
  8
0
 10
3.18246
 20
11.4127
 11
1.88434
 21
7.41747
  0
LINE
  8
0
 10
1.88434
 20
7.41747
 11
-5.88434
 21
4.89326
  0
LINE
  8
0
 10
-5.88434
 20
4.89326
 11
-9.28287
 21
7.36243
  0
LINE
  8
0
 10
7.63672
 20
0.5
 11
2.8354
 21
7.10844
  0
LINE
  8
0
 10
2.8354
 20
7.10844
 11
4.13351
 21
11.1037
  0
LINE
  8
0
 10
4.13351
 20
11.1037
 11
9.70819
 21
7.05342
  0
LINE
  8
0
 10
9.70819
 20
7.05342
 11
11.8375
 21
0.5
  0
LINE
  8
0
 10
11.8375
 20
0.5
 11
7.63672
 21
0.5
  0
LINE
  8
0
 10
-5.66312
 20
-4.11449
 11
-5.66312
 21
4.11449
  0
LINE
  8
0
 10
-5.66312
 20
4.11449
 11
2.16312
 21
6.65739
  0
LINE
  8
0
 10
2.16312
 20
6.65739
 11
7
 21
0
  0
LINE
  8
0
 10
7
 20
0
 11
2.16312
 21
-6.65739
  0
LINE
  8
0
 10
2.16312
 20
-6.65739
 11
-5.66312
 21
-4.11449
  0
LINE
  8
0
 10
3
 20
-1.5
 11
2
 21
-1.5
  0
LINE
  8
0
 10
2
 20
-1.5
 11
2
 21
1.5
  0
LINE
  8
0
 10
2
 20
1.5
 11
3
 21
1.5
  0
LINE
  8
0
 10
3
 20
1.5
 11
3
 21
2.5
  0
LINE
  8
0
 10
3
 20
2.5
 11
-3
 21
2.5
  0
LINE
  8
0
 10
-3
 20
2.5
 11
-3
 21
1.5
  0
LINE
  8
0
 10
-3
 20
1.5
 11
-2
 21
1.5
  0
LINE
  8
0
 10
-2
 20
1.5
 11
-2
 21
-1.5
  0
LINE
  8
0
 10
-2
 20
-1.5
 11
-3
 21
-1.5
  0
LINE
  8
0
 10
-3
 20
-1.5
 11
-3
 21
-2.5
  0
LINE
  8
0
 10
-3
 20
-2.5
 11
3
 21
-2.5
  0
LINE
  8
0
 10
3
 20
-2.5
 11
3
 21
-1.5
  0
LINE
  8
0
 10
-1
 20
-1.5
 11
-1
 21
1.5
  0
LINE
  8
0
 10
-1
 20
1.5
 11
1
 21
1.5
  0
LINE
  8
0
 10
1
 20
1.5
 11
1
 21
-1.5
  0
LINE
  8
0
 10
1
 20
-1.5
 11
-1
 21
-1.5
  0
LINE
  8
0
 10
-12
 20
0
 11
-9.87065
 21
6.55342
  0
LINE
  8
0
 10
-9.87065
 20
6.55342
 11
-6.47212
 21
4.08424
  0
LINE
  8
0
 10
-6.47212
 20
4.08424
 11
-6.47212
 21
-4.08424
  0
LINE
  8
0
 10
-6.47212
 20
-4.08424
 11
-9.87065
 21
-6.55342
  0
LINE
  8
0
 10
-9.87065
 20
-6.55342
 11
-12
 21
0
  0
LINE
  8
0
 10
-15.7929
 20
-2.5
 11
-18.2929
 21
0
  0
LINE
  8
0
 10
-18.2929
 20
0
 11
-15.7929
 21
2.5
  0
LINE
  8
0
 10
-15.7929
 20
2.5
 11
-12.1877
 21
2.5
  0
LINE
  8
0
 10
-12.1877
 20
2.5
 11
-13
 21
0
  0
LINE
  8
0
 10
-13
 20
0
 11
-12.1877
 21
-2.5
  0
LINE
  8
0
 10
-12.1877
 20
-2.5
 11
-15.7929
 21
-2.5
  0
LINE
  8
0
 10
2.8354
 20
-7.10844
 11
7.63672
 21
-0.5
  0
LINE
  8
0
 10
7.63672
 20
-0.5
 11
11.8375
 21
-0.5
  0
LINE
  8
0
 10
11.8375
 20
-0.5
 11
9.70819
 21
-7.05342
  0
LINE
  8
0
 10
9.70819
 20
-7.05342
 11
4.13351
 21
-11.1037
  0
LINE
  8
0
 10
4.13351
 20
-11.1037
 11
2.8354
 21
-7.10844
  0
LINE
  8
0
 10
-3.70819
 20
-11.4127
 11
-9.28287
 21
-7.36243
  0
LINE
  8
0
 10
-9.28287
 20
-7.36243
 11
-5.88434
 21
-4.89326
  0
LINE
  8
0
 10
-5.88434
 20
-4.89326
 11
1.88434
 21
-7.41747
  0
LINE
  8
0
 10
1.88434
 20
-7.41747
 11
3.18246
 21
-11.4127
  0
LINE
  8
0
 10
3.18246
 20
-11.4127
 11
-3.70819
 21
-11.4127
  0
LINE
  8
0
 10
-12.5788
 20
-14.5
 11
-13.4625
 21
-9.19789
  0
LINE
  8
0
 10
-13.4625
 20
-9.19789
 11
-10.7556
 21
-6.90747
  0
LINE
  8
0
 10
-10.7556
 20
-6.90747
 11
-10.5172
 21
-7.6412
  0
LINE
  8
0
 10
-10.5172
 20
-7.6412
 11
-6.20648
 21
-10.7731
  0
LINE
  8
0
 10
-6.20648
 20
-10.7731
 11
-9.23456
 21
-14.5
  0
LINE
  8
0
 10
-9.23456
 20
-14.5
 11
-12.5788
 21
-14.5
  0
LINE
  8
0
 10
1.35942
 20
-14.5
 11
0.647339
 21
-12.3637
  0
LINE
  8
0
 10
0.647339
 20
-12.3637
 11
4.01721
 21
-12.3637
  0
LINE
  8
0
 10
4.01721
 20
-12.3637
 11
9.88988
 21
-8.09698
  0
LINE
  8
0
 10
9.88988
 20
-8.09698
 11
12.977
 21
-11.1841
  0
LINE
  8
0
 10
12.977
 20
-11.1841
 11
12.5625
 21
-14.5
  0
LINE
  8
0
 10
12.5625
 20
-14.5
 11
1.35942
 21
-14.5
  0
ENDSEC
  0
SECTION
  2
OBJECTS
  0
DICTIONARY
  0
ENDSEC
  0
EOF
