  0
SECTION
  2
BLOCKS
  0
ENDSEC
  0
SECTION
  2
ENTITIES
  0
LINE
  8
0
 10
66.574
 20
-21.6312
 11
41.145
 21
56.6312
  0
LINE
  8
0
 10
41.145
 20
56.6312
 11
-41.145
 21
56.6312
  0
LINE
  8
0
 10
-41.145
 20
56.6312
 11
-66.574
 21
-21.6312
  0
LINE
  8
0
 10
-66.574
 20
-21.6312
 11
0
 21
-70
  0
LINE
  8
0
 10
0
 20
-70
 11
66.574
 21
-21.6312
  0
LINE
  8
0
 10
-0.109879
 20
50.2534
 11
-0.327911
 21
50.281
  0
LINE
  8
0
 10
-0.327911
 20
50.281
 11
-0.540771
 21
50.3356
  0
LINE
  8
0
 10
-0.540771
 20
50.3356
 11
-0.745102
 21
50.4165
  0
LINE
  8
0
 10
-0.745102
 20
50.4165
 11
-0.937683
 21
50.5224
  0
LINE
  8
0
 10
-0.937683
 20
50.5224
 11
-1.11548
 21
50.6516
  0
LINE
  8
0
 10
-1.11548
 20
50.6516
 11
-1.27568
 21
50.802
  0
LINE
  8
0
 10
-1.27568
 20
50.802
 11
-1.41577
 21
50.9714
  0
LINE
  8
0
 10
-1.41577
 20
50.9714
 11
-1.53352
 21
51.1569
  0
LINE
  8
0
 10
-1.53352
 20
51.1569
 11
-1.62711
 21
51.3558
  0
LINE
  8
0
 10
-1.62711
 20
51.3558
 11
-1.69501
 21
51.5648
  0
LINE
  8
0
 10
-1.69501
 20
51.5648
 11
-1.73619
 21
51.7807
  0
LINE
  8
0
 10
-1.73619
 20
51.7807
 11
-1.75
 21
52
  0
LINE
  8
0
 10
-1.75
 20
52
 11
-1.73619
 21
52.2193
  0
LINE
  8
0
 10
-1.73619
 20
52.2193
 11
-1.69501
 21
52.4352
  0
LINE
  8
0
 10
-1.69501
 20
52.4352
 11
-1.62711
 21
52.6442
  0
LINE
  8
0
 10
-1.62711
 20
52.6442
 11
-1.53352
 21
52.8431
  0
LINE
  8
0
 10
-1.53352
 20
52.8431
 11
-1.41577
 21
53.0286
  0
LINE
  8
0
 10
-1.41577
 20
53.0286
 11
-1.27568
 21
53.198
  0
LINE
  8
0
 10
-1.27568
 20
53.198
 11
-1.11548
 21
53.3484
  0
LINE
  8
0
 10
-1.11548
 20
53.3484
 11
-0.937683
 21
53.4776
  0
LINE
  8
0
 10
-0.937683
 20
53.4776
 11
-0.745102
 21
53.5834
  0
LINE
  8
0
 10
-0.745102
 20
53.5834
 11
-0.540771
 21
53.6643
  0
LINE
  8
0
 10
-0.540771
 20
53.6643
 11
-0.327911
 21
53.719
  0
LINE
  8
0
 10
-0.327911
 20
53.719
 11
-0.109879
 21
53.7465
  0
LINE
  8
0
 10
-0.109879
 20
53.7465
 11
0.109879
 21
53.7465
  0
LINE
  8
0
 10
0.109879
 20
53.7465
 11
0.327911
 21
53.719
  0
LINE
  8
0
 10
0.327911
 20
53.719
 11
0.540771
 21
53.6643
  0
LINE
  8
0
 10
0.540771
 20
53.6643
 11
0.745102
 21
53.5834
  0
LINE
  8
0
 10
0.745102
 20
53.5834
 11
0.937683
 21
53.4776
  0
LINE
  8
0
 10
0.937683
 20
53.4776
 11
1.11548
 21
53.3484
  0
LINE
  8
0
 10
1.11548
 20
53.3484
 11
1.27568
 21
53.198
  0
LINE
  8
0
 10
1.27568
 20
53.198
 11
1.41577
 21
53.0286
  0
LINE
  8
0
 10
1.41577
 20
53.0286
 11
1.53352
 21
52.8431
  0
LINE
  8
0
 10
1.53352
 20
52.8431
 11
1.62711
 21
52.6442
  0
LINE
  8
0
 10
1.62711
 20
52.6442
 11
1.69501
 21
52.4352
  0
LINE
  8
0
 10
1.69501
 20
52.4352
 11
1.73619
 21
52.2193
  0
LINE
  8
0
 10
1.73619
 20
52.2193
 11
1.75
 21
52
  0
LINE
  8
0
 10
1.75
 20
52
 11
1.73619
 21
51.7807
  0
LINE
  8
0
 10
1.73619
 20
51.7807
 11
1.69501
 21
51.5648
  0
LINE
  8
0
 10
1.69501
 20
51.5648
 11
1.62711
 21
51.3558
  0
LINE
  8
0
 10
1.62711
 20
51.3558
 11
1.53352
 21
51.1569
  0
LINE
  8
0
 10
1.53352
 20
51.1569
 11
1.41577
 21
50.9714
  0
LINE
  8
0
 10
1.41577
 20
50.9714
 11
1.27568
 21
50.802
  0
LINE
  8
0
 10
1.27568
 20
50.802
 11
1.11548
 21
50.6516
  0
LINE
  8
0
 10
1.11548
 20
50.6516
 11
0.937683
 21
50.5224
  0
LINE
  8
0
 10
0.937683
 20
50.5224
 11
0.745102
 21
50.4165
  0
LINE
  8
0
 10
0.745102
 20
50.4165
 11
0.540771
 21
50.3356
  0
LINE
  8
0
 10
0.540771
 20
50.3356
 11
0.327911
 21
50.281
  0
LINE
  8
0
 10
0.327911
 20
50.281
 11
0.109879
 21
50.2534
  0
LINE
  8
0
 10
0.109879
 20
50.2534
 11
-0.109879
 21
50.2534
  0
LINE
  8
0
 10
-0.439529
 20
22.0138
 11
-1.31166
 21
22.124
  0
LINE
  8
0
 10
-1.31166
 20
22.124
 11
-2.16312
 21
22.3426
  0
LINE
  8
0
 10
-2.16312
 20
22.3426
 11
-2.98045
 21
22.6662
  0
LINE
  8
0
 10
-2.98045
 20
22.6662
 11
-3.75078
 21
23.0897
  0
LINE
  8
0
 10
-3.75078
 20
23.0897
 11
-4.46196
 21
23.6064
  0
LINE
  8
0
 10
-4.46196
 20
23.6064
 11
-5.10277
 21
24.2082
  0
LINE
  8
0
 10
-5.10277
 20
24.2082
 11
-5.66312
 21
24.8855
  0
LINE
  8
0
 10
-5.66312
 20
24.8855
 11
-6.13414
 21
25.6277
  0
LINE
  8
0
 10
-6.13414
 20
25.6277
 11
-6.50842
 21
26.4231
  0
LINE
  8
0
 10
-6.50842
 20
26.4231
 11
-6.78008
 21
27.2592
  0
LINE
  8
0
 10
-6.78008
 20
27.2592
 11
-6.94479
 21
28.1227
  0
LINE
  8
0
 10
-6.94479
 20
28.1227
 11
-7
 21
29
  0
LINE
  8
0
 10
-7
 20
29
 11
-6.94479
 21
29.8773
  0
LINE
  8
0
 10
-6.94479
 20
29.8773
 11
-6.78008
 21
30.7408
  0
LINE
  8
0
 10
-6.78008
 20
30.7408
 11
-6.50842
 21
31.5769
  0
LINE
  8
0
 10
-6.50842
 20
31.5769
 11
-6.13414
 21
32.3723
  0
LINE
  8
0
 10
-6.13414
 20
32.3723
 11
-5.66312
 21
33.1145
  0
LINE
  8
0
 10
-5.66312
 20
33.1145
 11
-5.10277
 21
33.7918
  0
LINE
  8
0
 10
-5.10277
 20
33.7918
 11
-4.46196
 21
34.3936
  0
LINE
  8
0
 10
-4.46196
 20
34.3936
 11
-3.75078
 21
34.9103
  0
LINE
  8
0
 10
-3.75078
 20
34.9103
 11
-2.98045
 21
35.3338
  0
LINE
  8
0
 10
-2.98045
 20
35.3338
 11
-2.16312
 21
35.6574
  0
LINE
  8
0
 10
-2.16312
 20
35.6574
 11
-1.31166
 21
35.876
  0
LINE
  8
0
 10
-1.31166
 20
35.876
 11
-0.439529
 21
35.9862
  0
LINE
  8
0
 10
-0.439529
 20
35.9862
 11
0.439529
 21
35.9862
  0
LINE
  8
0
 10
0.439529
 20
35.9862
 11
1.31166
 21
35.876
  0
LINE
  8
0
 10
1.31166
 20
35.876
 11
2.16312
 21
35.6574
  0
LINE
  8
0
 10
2.16312
 20
35.6574
 11
2.98045
 21
35.3338
  0
LINE
  8
0
 10
2.98045
 20
35.3338
 11
3.75078
 21
34.9103
  0
LINE
  8
0
 10
3.75078
 20
34.9103
 11
4.46196
 21
34.3936
  0
LINE
  8
0
 10
4.46196
 20
34.3936
 11
5.10277
 21
33.7918
  0
LINE
  8
0
 10
5.10277
 20
33.7918
 11
5.66312
 21
33.1145
  0
LINE
  8
0
 10
5.66312
 20
33.1145
 11
6.13414
 21
32.3723
  0
LINE
  8
0
 10
6.13414
 20
32.3723
 11
6.50842
 21
31.5769
  0
LINE
  8
0
 10
6.50842
 20
31.5769
 11
6.78008
 21
30.7408
  0
LINE
  8
0
 10
6.78008
 20
30.7408
 11
6.94479
 21
29.8773
  0
LINE
  8
0
 10
6.94479
 20
29.8773
 11
7
 21
29
  0
LINE
  8
0
 10
7
 20
29
 11
6.94479
 21
28.1227
  0
LINE
  8
0
 10
6.94479
 20
28.1227
 11
6.78008
 21
27.2592
  0
LINE
  8
0
 10
6.78008
 20
27.2592
 11
6.50842
 21
26.4231
  0
LINE
  8
0
 10
6.50842
 20
26.4231
 11
6.13414
 21
25.6277
  0
LINE
  8
0
 10
6.13414
 20
25.6277
 11
5.66312
 21
24.8855
  0
LINE
  8
0
 10
5.66312
 20
24.8855
 11
5.10277
 21
24.2082
  0
LINE
  8
0
 10
5.10277
 20
24.2082
 11
4.46196
 21
23.6064
  0
LINE
  8
0
 10
4.46196
 20
23.6064
 11
3.75078
 21
23.0897
  0
LINE
  8
0
 10
3.75078
 20
23.0897
 11
2.98045
 21
22.6662
  0
LINE
  8
0
 10
2.98045
 20
22.6662
 11
2.16312
 21
22.3426
  0
LINE
  8
0
 10
2.16312
 20
22.3426
 11
1.31166
 21
22.124
  0
LINE
  8
0
 10
1.31166
 20
22.124
 11
0.439529
 21
22.0138
  0
LINE
  8
0
 10
0.439529
 20
22.0138
 11
-0.439529
 21
22.0138
  0
LINE
  8
0
 10
24.8901
 20
-2.24654
 11
24.6721
 21
-2.21899
  0
LINE
  8
0
 10
24.6721
 20
-2.21899
 11
24.4592
 21
-2.16434
  0
LINE
  8
0
 10
24.4592
 20
-2.16434
 11
24.2549
 21
-2.08344
  0
LINE
  8
0
 10
24.2549
 20
-2.08344
 11
24.0623
 21
-1.97757
  0
LINE
  8
0
 10
24.0623
 20
-1.97757
 11
23.8845
 21
-1.84839
  0
LINE
  8
0
 10
23.8845
 20
-1.84839
 11
23.7243
 21
-1.69795
  0
LINE
  8
0
 10
23.7243
 20
-1.69795
 11
23.5842
 21
-1.52861
  0
LINE
  8
0
 10
23.5842
 20
-1.52861
 11
23.4665
 21
-1.34306
  0
LINE
  8
0
 10
23.4665
 20
-1.34306
 11
23.3729
 21
-1.14421
  0
LINE
  8
0
 10
23.3729
 20
-1.14421
 11
23.305
 21
-0.935196
  0
LINE
  8
0
 10
23.305
 20
-0.935196
 11
23.2638
 21
-0.71933
  0
LINE
  8
0
 10
23.2638
 20
-0.71933
 11
23.25
 21
-0.5
  0
LINE
  8
0
 10
23.25
 20
-0.5
 11
23.2638
 21
-0.280655
  0
LINE
  8
0
 10
23.2638
 20
-0.280655
 11
23.305
 21
-0.0647888
  0
LINE
  8
0
 10
23.305
 20
-0.0647888
 11
23.3729
 21
0.144211
  0
LINE
  8
0
 10
23.3729
 20
0.144211
 11
23.4665
 21
0.343063
  0
LINE
  8
0
 10
23.4665
 20
0.343063
 11
23.5842
 21
0.52861
  0
LINE
  8
0
 10
23.5842
 20
0.52861
 11
23.7243
 21
0.697952
  0
LINE
  8
0
 10
23.7243
 20
0.697952
 11
23.8845
 21
0.848389
  0
LINE
  8
0
 10
23.8845
 20
0.848389
 11
24.0623
 21
0.97757
  0
LINE
  8
0
 10
24.0623
 20
0.97757
 11
24.2549
 21
1.08344
  0
LINE
  8
0
 10
24.2549
 20
1.08344
 11
24.4592
 21
1.16434
  0
LINE
  8
0
 10
24.4592
 20
1.16434
 11
24.6721
 21
1.21899
  0
LINE
  8
0
 10
24.6721
 20
1.21899
 11
24.8901
 21
1.24654
  0
LINE
  8
0
 10
24.8901
 20
1.24654
 11
25.1099
 21
1.24654
  0
LINE
  8
0
 10
25.1099
 20
1.24654
 11
25.3279
 21
1.21899
  0
LINE
  8
0
 10
25.3279
 20
1.21899
 11
25.5408
 21
1.16434
  0
LINE
  8
0
 10
25.5408
 20
1.16434
 11
25.7451
 21
1.08344
  0
LINE
  8
0
 10
25.7451
 20
1.08344
 11
25.9377
 21
0.97757
  0
LINE
  8
0
 10
25.9377
 20
0.97757
 11
26.1155
 21
0.848389
  0
LINE
  8
0
 10
26.1155
 20
0.848389
 11
26.2757
 21
0.697952
  0
LINE
  8
0
 10
26.2757
 20
0.697952
 11
26.4158
 21
0.52861
  0
LINE
  8
0
 10
26.4158
 20
0.52861
 11
26.5335
 21
0.343063
  0
LINE
  8
0
 10
26.5335
 20
0.343063
 11
26.6271
 21
0.144211
  0
LINE
  8
0
 10
26.6271
 20
0.144211
 11
26.695
 21
-0.0647888
  0
LINE
  8
0
 10
26.695
 20
-0.0647888
 11
26.7362
 21
-0.280655
  0
LINE
  8
0
 10
26.7362
 20
-0.280655
 11
26.75
 21
-0.5
  0
LINE
  8
0
 10
26.75
 20
-0.5
 11
26.7362
 21
-0.71933
  0
LINE
  8
0
 10
26.7362
 20
-0.71933
 11
26.695
 21
-0.935196
  0
LINE
  8
0
 10
26.695
 20
-0.935196
 11
26.6271
 21
-1.14421
  0
LINE
  8
0
 10
26.6271
 20
-1.14421
 11
26.5335
 21
-1.34306
  0
LINE
  8
0
 10
26.5335
 20
-1.34306
 11
26.4158
 21
-1.52861
  0
LINE
  8
0
 10
26.4158
 20
-1.52861
 11
26.2757
 21
-1.69795
  0
LINE
  8
0
 10
26.2757
 20
-1.69795
 11
26.1155
 21
-1.84839
  0
LINE
  8
0
 10
26.1155
 20
-1.84839
 11
25.9377
 21
-1.97757
  0
LINE
  8
0
 10
25.9377
 20
-1.97757
 11
25.7451
 21
-2.08344
  0
LINE
  8
0
 10
25.7451
 20
-2.08344
 11
25.5408
 21
-2.16434
  0
LINE
  8
0
 10
25.5408
 20
-2.16434
 11
25.3279
 21
-2.21899
  0
LINE
  8
0
 10
25.3279
 20
-2.21899
 11
25.1099
 21
-2.24654
  0
LINE
  8
0
 10
25.1099
 20
-2.24654
 11
24.8901
 21
-2.24654
  0
LINE
  8
0
 10
-25.1099
 20
-2.24654
 11
-25.3279
 21
-2.21899
  0
LINE
  8
0
 10
-25.3279
 20
-2.21899
 11
-25.5408
 21
-2.16434
  0
LINE
  8
0
 10
-25.5408
 20
-2.16434
 11
-25.7451
 21
-2.08344
  0
LINE
  8
0
 10
-25.7451
 20
-2.08344
 11
-25.9377
 21
-1.97757
  0
LINE
  8
0
 10
-25.9377
 20
-1.97757
 11
-26.1155
 21
-1.84839
  0
LINE
  8
0
 10
-26.1155
 20
-1.84839
 11
-26.2757
 21
-1.69795
  0
LINE
  8
0
 10
-26.2757
 20
-1.69795
 11
-26.4158
 21
-1.52861
  0
LINE
  8
0
 10
-26.4158
 20
-1.52861
 11
-26.5335
 21
-1.34306
  0
LINE
  8
0
 10
-26.5335
 20
-1.34306
 11
-26.6271
 21
-1.14421
  0
LINE
  8
0
 10
-26.6271
 20
-1.14421
 11
-26.695
 21
-0.935196
  0
LINE
  8
0
 10
-26.695
 20
-0.935196
 11
-26.7362
 21
-0.71933
  0
LINE
  8
0
 10
-26.7362
 20
-0.71933
 11
-26.75
 21
-0.5
  0
LINE
  8
0
 10
-26.75
 20
-0.5
 11
-26.7362
 21
-0.280655
  0
LINE
  8
0
 10
-26.7362
 20
-0.280655
 11
-26.695
 21
-0.0647888
  0
LINE
  8
0
 10
-26.695
 20
-0.0647888
 11
-26.6271
 21
0.144211
  0
LINE
  8
0
 10
-26.6271
 20
0.144211
 11
-26.5335
 21
0.343063
  0
LINE
  8
0
 10
-26.5335
 20
0.343063
 11
-26.4158
 21
0.52861
  0
LINE
  8
0
 10
-26.4158
 20
0.52861
 11
-26.2757
 21
0.697952
  0
LINE
  8
0
 10
-26.2757
 20
0.697952
 11
-26.1155
 21
0.848389
  0
LINE
  8
0
 10
-26.1155
 20
0.848389
 11
-25.9377
 21
0.97757
  0
LINE
  8
0
 10
-25.9377
 20
0.97757
 11
-25.7451
 21
1.08344
  0
LINE
  8
0
 10
-25.7451
 20
1.08344
 11
-25.5408
 21
1.16434
  0
LINE
  8
0
 10
-25.5408
 20
1.16434
 11
-25.3279
 21
1.21899
  0
LINE
  8
0
 10
-25.3279
 20
1.21899
 11
-25.1099
 21
1.24654
  0
LINE
  8
0
 10
-25.1099
 20
1.24654
 11
-24.8901
 21
1.24654
  0
LINE
  8
0
 10
-24.8901
 20
1.24654
 11
-24.6721
 21
1.21899
  0
LINE
  8
0
 10
-24.6721
 20
1.21899
 11
-24.4592
 21
1.16434
  0
LINE
  8
0
 10
-24.4592
 20
1.16434
 11
-24.2549
 21
1.08344
  0
LINE
  8
0
 10
-24.2549
 20
1.08344
 11
-24.0623
 21
0.97757
  0
LINE
  8
0
 10
-24.0623
 20
0.97757
 11
-23.8845
 21
0.848389
  0
LINE
  8
0
 10
-23.8845
 20
0.848389
 11
-23.7243
 21
0.697952
  0
LINE
  8
0
 10
-23.7243
 20
0.697952
 11
-23.5842
 21
0.52861
  0
LINE
  8
0
 10
-23.5842
 20
0.52861
 11
-23.4665
 21
0.343063
  0
LINE
  8
0
 10
-23.4665
 20
0.343063
 11
-23.3729
 21
0.144211
  0
LINE
  8
0
 10
-23.3729
 20
0.144211
 11
-23.305
 21
-0.0647888
  0
LINE
  8
0
 10
-23.305
 20
-0.0647888
 11
-23.2638
 21
-0.280655
  0
LINE
  8
0
 10
-23.2638
 20
-0.280655
 11
-23.25
 21
-0.5
  0
LINE
  8
0
 10
-23.25
 20
-0.5
 11
-23.2638
 21
-0.71933
  0
LINE
  8
0
 10
-23.2638
 20
-0.71933
 11
-23.305
 21
-0.935196
  0
LINE
  8
0
 10
-23.305
 20
-0.935196
 11
-23.3729
 21
-1.14421
  0
LINE
  8
0
 10
-23.3729
 20
-1.14421
 11
-23.4665
 21
-1.34306
  0
LINE
  8
0
 10
-23.4665
 20
-1.34306
 11
-23.5842
 21
-1.52861
  0
LINE
  8
0
 10
-23.5842
 20
-1.52861
 11
-23.7243
 21
-1.69795
  0
LINE
  8
0
 10
-23.7243
 20
-1.69795
 11
-23.8845
 21
-1.84839
  0
LINE
  8
0
 10
-23.8845
 20
-1.84839
 11
-24.0623
 21
-1.97757
  0
LINE
  8
0
 10
-24.0623
 20
-1.97757
 11
-24.2549
 21
-2.08344
  0
LINE
  8
0
 10
-24.2549
 20
-2.08344
 11
-24.4592
 21
-2.16434
  0
LINE
  8
0
 10
-24.4592
 20
-2.16434
 11
-24.6721
 21
-2.21899
  0
LINE
  8
0
 10
-24.6721
 20
-2.21899
 11
-24.8901
 21
-2.24654
  0
LINE
  8
0
 10
-24.8901
 20
-2.24654
 11
-25.1099
 21
-2.24654
  0
LINE
  8
0
 10
-60.1099
 20
-21.7465
 11
-60.3279
 21
-21.719
  0
LINE
  8
0
 10
-60.3279
 20
-21.719
 11
-60.5408
 21
-21.6643
  0
LINE
  8
0
 10
-60.5408
 20
-21.6643
 11
-60.7451
 21
-21.5834
  0
LINE
  8
0
 10
-60.7451
 20
-21.5834
 11
-60.9377
 21
-21.4776
  0
LINE
  8
0
 10
-60.9377
 20
-21.4776
 11
-61.1155
 21
-21.3484
  0
LINE
  8
0
 10
-61.1155
 20
-21.3484
 11
-61.2757
 21
-21.198
  0
LINE
  8
0
 10
-61.2757
 20
-21.198
 11
-61.4158
 21
-21.0286
  0
LINE
  8
0
 10
-61.4158
 20
-21.0286
 11
-61.5335
 21
-20.8431
  0
LINE
  8
0
 10
-61.5335
 20
-20.8431
 11
-61.6271
 21
-20.6442
  0
LINE
  8
0
 10
-61.6271
 20
-20.6442
 11
-61.695
 21
-20.4352
  0
LINE
  8
0
 10
-61.695
 20
-20.4352
 11
-61.7362
 21
-20.2193
  0
LINE
  8
0
 10
-61.7362
 20
-20.2193
 11
-61.75
 21
-20
  0
LINE
  8
0
 10
-61.75
 20
-20
 11
-61.7362
 21
-19.7807
  0
LINE
  8
0
 10
-61.7362
 20
-19.7807
 11
-61.695
 21
-19.5648
  0
LINE
  8
0
 10
-61.695
 20
-19.5648
 11
-61.6271
 21
-19.3558
  0
LINE
  8
0
 10
-61.6271
 20
-19.3558
 11
-61.5335
 21
-19.1569
  0
LINE
  8
0
 10
-61.5335
 20
-19.1569
 11
-61.4158
 21
-18.9714
  0
LINE
  8
0
 10
-61.4158
 20
-18.9714
 11
-61.2757
 21
-18.802
  0
LINE
  8
0
 10
-61.2757
 20
-18.802
 11
-61.1155
 21
-18.6516
  0
LINE
  8
0
 10
-61.1155
 20
-18.6516
 11
-60.9377
 21
-18.5224
  0
LINE
  8
0
 10
-60.9377
 20
-18.5224
 11
-60.7451
 21
-18.4165
  0
LINE
  8
0
 10
-60.7451
 20
-18.4165
 11
-60.5408
 21
-18.3356
  0
LINE
  8
0
 10
-60.5408
 20
-18.3356
 11
-60.3279
 21
-18.281
  0
LINE
  8
0
 10
-60.3279
 20
-18.281
 11
-60.1099
 21
-18.2534
  0
LINE
  8
0
 10
-60.1099
 20
-18.2534
 11
-59.8901
 21
-18.2534
  0
LINE
  8
0
 10
-59.8901
 20
-18.2534
 11
-59.6721
 21
-18.281
  0
LINE
  8
0
 10
-59.6721
 20
-18.281
 11
-59.4592
 21
-18.3356
  0
LINE
  8
0
 10
-59.4592
 20
-18.3356
 11
-59.2549
 21
-18.4165
  0
LINE
  8
0
 10
-59.2549
 20
-18.4165
 11
-59.0623
 21
-18.5224
  0
LINE
  8
0
 10
-59.0623
 20
-18.5224
 11
-58.8845
 21
-18.6516
  0
LINE
  8
0
 10
-58.8845
 20
-18.6516
 11
-58.7243
 21
-18.802
  0
LINE
  8
0
 10
-58.7243
 20
-18.802
 11
-58.5842
 21
-18.9714
  0
LINE
  8
0
 10
-58.5842
 20
-18.9714
 11
-58.4665
 21
-19.1569
  0
LINE
  8
0
 10
-58.4665
 20
-19.1569
 11
-58.3729
 21
-19.3558
  0
LINE
  8
0
 10
-58.3729
 20
-19.3558
 11
-58.305
 21
-19.5648
  0
LINE
  8
0
 10
-58.305
 20
-19.5648
 11
-58.2638
 21
-19.7807
  0
LINE
  8
0
 10
-58.2638
 20
-19.7807
 11
-58.25
 21
-20
  0
LINE
  8
0
 10
-58.25
 20
-20
 11
-58.2638
 21
-20.2193
  0
LINE
  8
0
 10
-58.2638
 20
-20.2193
 11
-58.305
 21
-20.4352
  0
LINE
  8
0
 10
-58.305
 20
-20.4352
 11
-58.3729
 21
-20.6442
  0
LINE
  8
0
 10
-58.3729
 20
-20.6442
 11
-58.4665
 21
-20.8431
  0
LINE
  8
0
 10
-58.4665
 20
-20.8431
 11
-58.5842
 21
-21.0286
  0
LINE
  8
0
 10
-58.5842
 20
-21.0286
 11
-58.7243
 21
-21.198
  0
LINE
  8
0
 10
-58.7243
 20
-21.198
 11
-58.8845
 21
-21.3484
  0
LINE
  8
0
 10
-58.8845
 20
-21.3484
 11
-59.0623
 21
-21.4776
  0
LINE
  8
0
 10
-59.0623
 20
-21.4776
 11
-59.2549
 21
-21.5834
  0
LINE
  8
0
 10
-59.2549
 20
-21.5834
 11
-59.4592
 21
-21.6643
  0
LINE
  8
0
 10
-59.4592
 20
-21.6643
 11
-59.6721
 21
-21.719
  0
LINE
  8
0
 10
-59.6721
 20
-21.719
 11
-59.8901
 21
-21.7465
  0
LINE
  8
0
 10
-59.8901
 20
-21.7465
 11
-60.1099
 21
-21.7465
  0
LINE
  8
0
 10
59.8901
 20
-21.7465
 11
59.6721
 21
-21.719
  0
LINE
  8
0
 10
59.6721
 20
-21.719
 11
59.4592
 21
-21.6643
  0
LINE
  8
0
 10
59.4592
 20
-21.6643
 11
59.2549
 21
-21.5834
  0
LINE
  8
0
 10
59.2549
 20
-21.5834
 11
59.0623
 21
-21.4776
  0
LINE
  8
0
 10
59.0623
 20
-21.4776
 11
58.8845
 21
-21.3484
  0
LINE
  8
0
 10
58.8845
 20
-21.3484
 11
58.7243
 21
-21.198
  0
LINE
  8
0
 10
58.7243
 20
-21.198
 11
58.5842
 21
-21.0286
  0
LINE
  8
0
 10
58.5842
 20
-21.0286
 11
58.4665
 21
-20.8431
  0
LINE
  8
0
 10
58.4665
 20
-20.8431
 11
58.3729
 21
-20.6442
  0
LINE
  8
0
 10
58.3729
 20
-20.6442
 11
58.305
 21
-20.4352
  0
LINE
  8
0
 10
58.305
 20
-20.4352
 11
58.2638
 21
-20.2193
  0
LINE
  8
0
 10
58.2638
 20
-20.2193
 11
58.25
 21
-20
  0
LINE
  8
0
 10
58.25
 20
-20
 11
58.2638
 21
-19.7807
  0
LINE
  8
0
 10
58.2638
 20
-19.7807
 11
58.305
 21
-19.5648
  0
LINE
  8
0
 10
58.305
 20
-19.5648
 11
58.3729
 21
-19.3558
  0
LINE
  8
0
 10
58.3729
 20
-19.3558
 11
58.4665
 21
-19.1569
  0
LINE
  8
0
 10
58.4665
 20
-19.1569
 11
58.5842
 21
-18.9714
  0
LINE
  8
0
 10
58.5842
 20
-18.9714
 11
58.7243
 21
-18.802
  0
LINE
  8
0
 10
58.7243
 20
-18.802
 11
58.8845
 21
-18.6516
  0
LINE
  8
0
 10
58.8845
 20
-18.6516
 11
59.0623
 21
-18.5224
  0
LINE
  8
0
 10
59.0623
 20
-18.5224
 11
59.2549
 21
-18.4165
  0
LINE
  8
0
 10
59.2549
 20
-18.4165
 11
59.4592
 21
-18.3356
  0
LINE
  8
0
 10
59.4592
 20
-18.3356
 11
59.6721
 21
-18.281
  0
LINE
  8
0
 10
59.6721
 20
-18.281
 11
59.8901
 21
-18.2534
  0
LINE
  8
0
 10
59.8901
 20
-18.2534
 11
60.1099
 21
-18.2534
  0
LINE
  8
0
 10
60.1099
 20
-18.2534
 11
60.3279
 21
-18.281
  0
LINE
  8
0
 10
60.3279
 20
-18.281
 11
60.5408
 21
-18.3356
  0
LINE
  8
0
 10
60.5408
 20
-18.3356
 11
60.7451
 21
-18.4165
  0
LINE
  8
0
 10
60.7451
 20
-18.4165
 11
60.9377
 21
-18.5224
  0
LINE
  8
0
 10
60.9377
 20
-18.5224
 11
61.1155
 21
-18.6516
  0
LINE
  8
0
 10
61.1155
 20
-18.6516
 11
61.2757
 21
-18.802
  0
LINE
  8
0
 10
61.2757
 20
-18.802
 11
61.4158
 21
-18.9714
  0
LINE
  8
0
 10
61.4158
 20
-18.9714
 11
61.5335
 21
-19.1569
  0
LINE
  8
0
 10
61.5335
 20
-19.1569
 11
61.6271
 21
-19.3558
  0
LINE
  8
0
 10
61.6271
 20
-19.3558
 11
61.695
 21
-19.5648
  0
LINE
  8
0
 10
61.695
 20
-19.5648
 11
61.7362
 21
-19.7807
  0
LINE
  8
0
 10
61.7362
 20
-19.7807
 11
61.75
 21
-20
  0
LINE
  8
0
 10
61.75
 20
-20
 11
61.7362
 21
-20.2193
  0
LINE
  8
0
 10
61.7362
 20
-20.2193
 11
61.695
 21
-20.4352
  0
LINE
  8
0
 10
61.695
 20
-20.4352
 11
61.6271
 21
-20.6442
  0
LINE
  8
0
 10
61.6271
 20
-20.6442
 11
61.5335
 21
-20.8431
  0
LINE
  8
0
 10
61.5335
 20
-20.8431
 11
61.4158
 21
-21.0286
  0
LINE
  8
0
 10
61.4158
 20
-21.0286
 11
61.2757
 21
-21.198
  0
LINE
  8
0
 10
61.2757
 20
-21.198
 11
61.1155
 21
-21.3484
  0
LINE
  8
0
 10
61.1155
 20
-21.3484
 11
60.9377
 21
-21.4776
  0
LINE
  8
0
 10
60.9377
 20
-21.4776
 11
60.7451
 21
-21.5834
  0
LINE
  8
0
 10
60.7451
 20
-21.5834
 11
60.5408
 21
-21.6643
  0
LINE
  8
0
 10
60.5408
 20
-21.6643
 11
60.3279
 21
-21.719
  0
LINE
  8
0
 10
60.3279
 20
-21.719
 11
60.1099
 21
-21.7465
  0
LINE
  8
0
 10
60.1099
 20
-21.7465
 11
59.8901
 21
-21.7465
  0
LINE
  8
0
 10
-25.1099
 20
-47.2465
 11
-25.3279
 21
-47.219
  0
LINE
  8
0
 10
-25.3279
 20
-47.219
 11
-25.5408
 21
-47.1643
  0
LINE
  8
0
 10
-25.5408
 20
-47.1643
 11
-25.7451
 21
-47.0834
  0
LINE
  8
0
 10
-25.7451
 20
-47.0834
 11
-25.9377
 21
-46.9776
  0
LINE
  8
0
 10
-25.9377
 20
-46.9776
 11
-26.1155
 21
-46.8484
  0
LINE
  8
0
 10
-26.1155
 20
-46.8484
 11
-26.2757
 21
-46.698
  0
LINE
  8
0
 10
-26.2757
 20
-46.698
 11
-26.4158
 21
-46.5286
  0
LINE
  8
0
 10
-26.4158
 20
-46.5286
 11
-26.5335
 21
-46.3431
  0
LINE
  8
0
 10
-26.5335
 20
-46.3431
 11
-26.6271
 21
-46.1442
  0
LINE
  8
0
 10
-26.6271
 20
-46.1442
 11
-26.695
 21
-45.9352
  0
LINE
  8
0
 10
-26.695
 20
-45.9352
 11
-26.7362
 21
-45.7193
  0
LINE
  8
0
 10
-26.7362
 20
-45.7193
 11
-26.75
 21
-45.5
  0
LINE
  8
0
 10
-26.75
 20
-45.5
 11
-26.7362
 21
-45.2807
  0
LINE
  8
0
 10
-26.7362
 20
-45.2807
 11
-26.695
 21
-45.0648
  0
LINE
  8
0
 10
-26.695
 20
-45.0648
 11
-26.6271
 21
-44.8558
  0
LINE
  8
0
 10
-26.6271
 20
-44.8558
 11
-26.5335
 21
-44.6569
  0
LINE
  8
0
 10
-26.5335
 20
-44.6569
 11
-26.4158
 21
-44.4714
  0
LINE
  8
0
 10
-26.4158
 20
-44.4714
 11
-26.2757
 21
-44.302
  0
LINE
  8
0
 10
-26.2757
 20
-44.302
 11
-26.1155
 21
-44.1516
  0
LINE
  8
0
 10
-26.1155
 20
-44.1516
 11
-25.9377
 21
-44.0224
  0
LINE
  8
0
 10
-25.9377
 20
-44.0224
 11
-25.7451
 21
-43.9165
  0
LINE
  8
0
 10
-25.7451
 20
-43.9165
 11
-25.5408
 21
-43.8356
  0
LINE
  8
0
 10
-25.5408
 20
-43.8356
 11
-25.3279
 21
-43.781
  0
LINE
  8
0
 10
-25.3279
 20
-43.781
 11
-25.1099
 21
-43.7534
  0
LINE
  8
0
 10
-25.1099
 20
-43.7534
 11
-24.8901
 21
-43.7534
  0
LINE
  8
0
 10
-24.8901
 20
-43.7534
 11
-24.6721
 21
-43.781
  0
LINE
  8
0
 10
-24.6721
 20
-43.781
 11
-24.4592
 21
-43.8356
  0
LINE
  8
0
 10
-24.4592
 20
-43.8356
 11
-24.2549
 21
-43.9165
  0
LINE
  8
0
 10
-24.2549
 20
-43.9165
 11
-24.0623
 21
-44.0224
  0
LINE
  8
0
 10
-24.0623
 20
-44.0224
 11
-23.8845
 21
-44.1516
  0
LINE
  8
0
 10
-23.8845
 20
-44.1516
 11
-23.7243
 21
-44.302
  0
LINE
  8
0
 10
-23.7243
 20
-44.302
 11
-23.5842
 21
-44.4714
  0
LINE
  8
0
 10
-23.5842
 20
-44.4714
 11
-23.4665
 21
-44.6569
  0
LINE
  8
0
 10
-23.4665
 20
-44.6569
 11
-23.3729
 21
-44.8558
  0
LINE
  8
0
 10
-23.3729
 20
-44.8558
 11
-23.305
 21
-45.0648
  0
LINE
  8
0
 10
-23.305
 20
-45.0648
 11
-23.2638
 21
-45.2807
  0
LINE
  8
0
 10
-23.2638
 20
-45.2807
 11
-23.25
 21
-45.5
  0
LINE
  8
0
 10
-23.25
 20
-45.5
 11
-23.2638
 21
-45.7193
  0
LINE
  8
0
 10
-23.2638
 20
-45.7193
 11
-23.305
 21
-45.9352
  0
LINE
  8
0
 10
-23.305
 20
-45.9352
 11
-23.3729
 21
-46.1442
  0
LINE
  8
0
 10
-23.3729
 20
-46.1442
 11
-23.4665
 21
-46.3431
  0
LINE
  8
0
 10
-23.4665
 20
-46.3431
 11
-23.5842
 21
-46.5286
  0
LINE
  8
0
 10
-23.5842
 20
-46.5286
 11
-23.7243
 21
-46.698
  0
LINE
  8
0
 10
-23.7243
 20
-46.698
 11
-23.8845
 21
-46.8484
  0
LINE
  8
0
 10
-23.8845
 20
-46.8484
 11
-24.0623
 21
-46.9776
  0
LINE
  8
0
 10
-24.0623
 20
-46.9776
 11
-24.2549
 21
-47.0834
  0
LINE
  8
0
 10
-24.2549
 20
-47.0834
 11
-24.4592
 21
-47.1643
  0
LINE
  8
0
 10
-24.4592
 20
-47.1643
 11
-24.6721
 21
-47.219
  0
LINE
  8
0
 10
-24.6721
 20
-47.219
 11
-24.8901
 21
-47.2465
  0
LINE
  8
0
 10
-24.8901
 20
-47.2465
 11
-25.1099
 21
-47.2465
  0
LINE
  8
0
 10
24.8901
 20
-47.2465
 11
24.6721
 21
-47.219
  0
LINE
  8
0
 10
24.6721
 20
-47.219
 11
24.4592
 21
-47.1643
  0
LINE
  8
0
 10
24.4592
 20
-47.1643
 11
24.2549
 21
-47.0834
  0
LINE
  8
0
 10
24.2549
 20
-47.0834
 11
24.0623
 21
-46.9776
  0
LINE
  8
0
 10
24.0623
 20
-46.9776
 11
23.8845
 21
-46.8484
  0
LINE
  8
0
 10
23.8845
 20
-46.8484
 11
23.7243
 21
-46.698
  0
LINE
  8
0
 10
23.7243
 20
-46.698
 11
23.5842
 21
-46.5286
  0
LINE
  8
0
 10
23.5842
 20
-46.5286
 11
23.4665
 21
-46.3431
  0
LINE
  8
0
 10
23.4665
 20
-46.3431
 11
23.3729
 21
-46.1442
  0
LINE
  8
0
 10
23.3729
 20
-46.1442
 11
23.305
 21
-45.9352
  0
LINE
  8
0
 10
23.305
 20
-45.9352
 11
23.2638
 21
-45.7193
  0
LINE
  8
0
 10
23.2638
 20
-45.7193
 11
23.25
 21
-45.5
  0
LINE
  8
0
 10
23.25
 20
-45.5
 11
23.2638
 21
-45.2807
  0
LINE
  8
0
 10
23.2638
 20
-45.2807
 11
23.305
 21
-45.0648
  0
LINE
  8
0
 10
23.305
 20
-45.0648
 11
23.3729
 21
-44.8558
  0
LINE
  8
0
 10
23.3729
 20
-44.8558
 11
23.4665
 21
-44.6569
  0
LINE
  8
0
 10
23.4665
 20
-44.6569
 11
23.5842
 21
-44.4714
  0
LINE
  8
0
 10
23.5842
 20
-44.4714
 11
23.7243
 21
-44.302
  0
LINE
  8
0
 10
23.7243
 20
-44.302
 11
23.8845
 21
-44.1516
  0
LINE
  8
0
 10
23.8845
 20
-44.1516
 11
24.0623
 21
-44.0224
  0
LINE
  8
0
 10
24.0623
 20
-44.0224
 11
24.2549
 21
-43.9165
  0
LINE
  8
0
 10
24.2549
 20
-43.9165
 11
24.4592
 21
-43.8356
  0
LINE
  8
0
 10
24.4592
 20
-43.8356
 11
24.6721
 21
-43.781
  0
LINE
  8
0
 10
24.6721
 20
-43.781
 11
24.8901
 21
-43.7534
  0
LINE
  8
0
 10
24.8901
 20
-43.7534
 11
25.1099
 21
-43.7534
  0
LINE
  8
0
 10
25.1099
 20
-43.7534
 11
25.3279
 21
-43.781
  0
LINE
  8
0
 10
25.3279
 20
-43.781
 11
25.5408
 21
-43.8356
  0
LINE
  8
0
 10
25.5408
 20
-43.8356
 11
25.7451
 21
-43.9165
  0
LINE
  8
0
 10
25.7451
 20
-43.9165
 11
25.9377
 21
-44.0224
  0
LINE
  8
0
 10
25.9377
 20
-44.0224
 11
26.1155
 21
-44.1516
  0
LINE
  8
0
 10
26.1155
 20
-44.1516
 11
26.2757
 21
-44.302
  0
LINE
  8
0
 10
26.2757
 20
-44.302
 11
26.4158
 21
-44.4714
  0
LINE
  8
0
 10
26.4158
 20
-44.4714
 11
26.5335
 21
-44.6569
  0
LINE
  8
0
 10
26.5335
 20
-44.6569
 11
26.6271
 21
-44.8558
  0
LINE
  8
0
 10
26.6271
 20
-44.8558
 11
26.695
 21
-45.0648
  0
LINE
  8
0
 10
26.695
 20
-45.0648
 11
26.7362
 21
-45.2807
  0
LINE
  8
0
 10
26.7362
 20
-45.2807
 11
26.75
 21
-45.5
  0
LINE
  8
0
 10
26.75
 20
-45.5
 11
26.7362
 21
-45.7193
  0
LINE
  8
0
 10
26.7362
 20
-45.7193
 11
26.695
 21
-45.9352
  0
LINE
  8
0
 10
26.695
 20
-45.9352
 11
26.6271
 21
-46.1442
  0
LINE
  8
0
 10
26.6271
 20
-46.1442
 11
26.5335
 21
-46.3431
  0
LINE
  8
0
 10
26.5335
 20
-46.3431
 11
26.4158
 21
-46.5286
  0
LINE
  8
0
 10
26.4158
 20
-46.5286
 11
26.2757
 21
-46.698
  0
LINE
  8
0
 10
26.2757
 20
-46.698
 11
26.1155
 21
-46.8484
  0
LINE
  8
0
 10
26.1155
 20
-46.8484
 11
25.9377
 21
-46.9776
  0
LINE
  8
0
 10
25.9377
 20
-46.9776
 11
25.7451
 21
-47.0834
  0
LINE
  8
0
 10
25.7451
 20
-47.0834
 11
25.5408
 21
-47.1643
  0
LINE
  8
0
 10
25.5408
 20
-47.1643
 11
25.3279
 21
-47.219
  0
LINE
  8
0
 10
25.3279
 20
-47.219
 11
25.1099
 21
-47.2465
  0
LINE
  8
0
 10
25.1099
 20
-47.2465
 11
24.8901
 21
-47.2465
  0
ENDSEC
  0
SECTION
  2
OBJECTS
  0
DICTIONARY
  0
ENDSEC
  0
EOF
