  0
SECTION
  2
BLOCKS
  0
ENDSEC
  0
SECTION
  2
ENTITIES
  0
LINE
  8
0
 10
35.5
 20
49.5
 11
-32.5
 21
49.5
  0
LINE
  8
0
 10
-32.5
 20
49.5
 11
-32.5
 21
-49.5
  0
LINE
  8
0
 10
-32.5
 20
-49.5
 11
35.5
 21
-49.5
  0
LINE
  8
0
 10
35.5
 20
-49.5
 11
35.5
 21
49.5
  0
LINE
  8
0
 10
16.8901
 20
43.2534
 11
16.7807
 21
43.2638
  0
LINE
  8
0
 10
16.7807
 20
43.2638
 11
16.6721
 21
43.281
  0
LINE
  8
0
 10
16.6721
 20
43.281
 11
16.5648
 21
43.305
  0
LINE
  8
0
 10
16.5648
 20
43.305
 11
16.4592
 21
43.3356
  0
LINE
  8
0
 10
16.4592
 20
43.3356
 11
16.3558
 21
43.3729
  0
LINE
  8
0
 10
16.3558
 20
43.3729
 11
16.2549
 21
43.4165
  0
LINE
  8
0
 10
16.2549
 20
43.4165
 11
16.1569
 21
43.4665
  0
LINE
  8
0
 10
16.1569
 20
43.4665
 11
16.0623
 21
43.5224
  0
LINE
  8
0
 10
16.0623
 20
43.5224
 11
15.9714
 21
43.5842
  0
LINE
  8
0
 10
15.9714
 20
43.5842
 11
15.8845
 21
43.6516
  0
LINE
  8
0
 10
15.8845
 20
43.6516
 11
15.802
 21
43.7243
  0
LINE
  8
0
 10
15.802
 20
43.7243
 11
15.7243
 21
43.802
  0
LINE
  8
0
 10
15.7243
 20
43.802
 11
15.6516
 21
43.8845
  0
LINE
  8
0
 10
15.6516
 20
43.8845
 11
15.5842
 21
43.9714
  0
LINE
  8
0
 10
15.5842
 20
43.9714
 11
15.5224
 21
44.0623
  0
LINE
  8
0
 10
15.5224
 20
44.0623
 11
15.4665
 21
44.1569
  0
LINE
  8
0
 10
15.4665
 20
44.1569
 11
15.4165
 21
44.2549
  0
LINE
  8
0
 10
15.4165
 20
44.2549
 11
15.3729
 21
44.3558
  0
LINE
  8
0
 10
15.3729
 20
44.3558
 11
15.3356
 21
44.4592
  0
LINE
  8
0
 10
15.3356
 20
44.4592
 11
15.305
 21
44.5648
  0
LINE
  8
0
 10
15.305
 20
44.5648
 11
15.281
 21
44.6721
  0
LINE
  8
0
 10
15.281
 20
44.6721
 11
15.2638
 21
44.7807
  0
LINE
  8
0
 10
15.2638
 20
44.7807
 11
15.2534
 21
44.8901
  0
LINE
  8
0
 10
15.2534
 20
44.8901
 11
15.25
 21
45
  0
LINE
  8
0
 10
15.25
 20
45
 11
15.2534
 21
45.1099
  0
LINE
  8
0
 10
15.2534
 20
45.1099
 11
15.2638
 21
45.2193
  0
LINE
  8
0
 10
15.2638
 20
45.2193
 11
15.281
 21
45.3279
  0
LINE
  8
0
 10
15.281
 20
45.3279
 11
15.305
 21
45.4352
  0
LINE
  8
0
 10
15.305
 20
45.4352
 11
15.3356
 21
45.5408
  0
LINE
  8
0
 10
15.3356
 20
45.5408
 11
15.3729
 21
45.6442
  0
LINE
  8
0
 10
15.3729
 20
45.6442
 11
15.4165
 21
45.7451
  0
LINE
  8
0
 10
15.4165
 20
45.7451
 11
15.4665
 21
45.8431
  0
LINE
  8
0
 10
15.4665
 20
45.8431
 11
15.5224
 21
45.9377
  0
LINE
  8
0
 10
15.5224
 20
45.9377
 11
15.5842
 21
46.0286
  0
LINE
  8
0
 10
15.5842
 20
46.0286
 11
15.6516
 21
46.1155
  0
LINE
  8
0
 10
15.6516
 20
46.1155
 11
15.7243
 21
46.198
  0
LINE
  8
0
 10
15.7243
 20
46.198
 11
15.802
 21
46.2757
  0
LINE
  8
0
 10
15.802
 20
46.2757
 11
15.8845
 21
46.3484
  0
LINE
  8
0
 10
15.8845
 20
46.3484
 11
15.9714
 21
46.4158
  0
LINE
  8
0
 10
15.9714
 20
46.4158
 11
16.0623
 21
46.4776
  0
LINE
  8
0
 10
16.0623
 20
46.4776
 11
16.1569
 21
46.5335
  0
LINE
  8
0
 10
16.1569
 20
46.5335
 11
16.2549
 21
46.5834
  0
LINE
  8
0
 10
16.2549
 20
46.5834
 11
16.3558
 21
46.6271
  0
LINE
  8
0
 10
16.3558
 20
46.6271
 11
16.4592
 21
46.6643
  0
LINE
  8
0
 10
16.4592
 20
46.6643
 11
16.5648
 21
46.695
  0
LINE
  8
0
 10
16.5648
 20
46.695
 11
16.6721
 21
46.719
  0
LINE
  8
0
 10
16.6721
 20
46.719
 11
16.7807
 21
46.7362
  0
LINE
  8
0
 10
16.7807
 20
46.7362
 11
16.8901
 21
46.7465
  0
LINE
  8
0
 10
16.8901
 20
46.7465
 11
17
 21
46.75
  0
LINE
  8
0
 10
17
 20
46.75
 11
17.1099
 21
46.7465
  0
LINE
  8
0
 10
17.1099
 20
46.7465
 11
17.2193
 21
46.7362
  0
LINE
  8
0
 10
17.2193
 20
46.7362
 11
17.3279
 21
46.719
  0
LINE
  8
0
 10
17.3279
 20
46.719
 11
17.4352
 21
46.695
  0
LINE
  8
0
 10
17.4352
 20
46.695
 11
17.5408
 21
46.6643
  0
LINE
  8
0
 10
17.5408
 20
46.6643
 11
17.6442
 21
46.6271
  0
LINE
  8
0
 10
17.6442
 20
46.6271
 11
17.7451
 21
46.5834
  0
LINE
  8
0
 10
17.7451
 20
46.5834
 11
17.8431
 21
46.5335
  0
LINE
  8
0
 10
17.8431
 20
46.5335
 11
17.9377
 21
46.4776
  0
LINE
  8
0
 10
17.9377
 20
46.4776
 11
18.0286
 21
46.4158
  0
LINE
  8
0
 10
18.0286
 20
46.4158
 11
18.1155
 21
46.3484
  0
LINE
  8
0
 10
18.1155
 20
46.3484
 11
18.198
 21
46.2757
  0
LINE
  8
0
 10
18.198
 20
46.2757
 11
18.2757
 21
46.198
  0
LINE
  8
0
 10
18.2757
 20
46.198
 11
18.3484
 21
46.1155
  0
LINE
  8
0
 10
18.3484
 20
46.1155
 11
18.4158
 21
46.0286
  0
LINE
  8
0
 10
18.4158
 20
46.0286
 11
18.4776
 21
45.9377
  0
LINE
  8
0
 10
18.4776
 20
45.9377
 11
18.5335
 21
45.8431
  0
LINE
  8
0
 10
18.5335
 20
45.8431
 11
18.5834
 21
45.7451
  0
LINE
  8
0
 10
18.5834
 20
45.7451
 11
18.6271
 21
45.6442
  0
LINE
  8
0
 10
18.6271
 20
45.6442
 11
18.6643
 21
45.5408
  0
LINE
  8
0
 10
18.6643
 20
45.5408
 11
18.695
 21
45.4352
  0
LINE
  8
0
 10
18.695
 20
45.4352
 11
18.719
 21
45.3279
  0
LINE
  8
0
 10
18.719
 20
45.3279
 11
18.7362
 21
45.2193
  0
LINE
  8
0
 10
18.7362
 20
45.2193
 11
18.7465
 21
45.1099
  0
LINE
  8
0
 10
18.7465
 20
45.1099
 11
18.75
 21
45
  0
LINE
  8
0
 10
18.75
 20
45
 11
18.7465
 21
44.8901
  0
LINE
  8
0
 10
18.7465
 20
44.8901
 11
18.7362
 21
44.7807
  0
LINE
  8
0
 10
18.7362
 20
44.7807
 11
18.719
 21
44.6721
  0
LINE
  8
0
 10
18.719
 20
44.6721
 11
18.695
 21
44.5648
  0
LINE
  8
0
 10
18.695
 20
44.5648
 11
18.6643
 21
44.4592
  0
LINE
  8
0
 10
18.6643
 20
44.4592
 11
18.6271
 21
44.3558
  0
LINE
  8
0
 10
18.6271
 20
44.3558
 11
18.5834
 21
44.2549
  0
LINE
  8
0
 10
18.5834
 20
44.2549
 11
18.5335
 21
44.1569
  0
LINE
  8
0
 10
18.5335
 20
44.1569
 11
18.4776
 21
44.0623
  0
LINE
  8
0
 10
18.4776
 20
44.0623
 11
18.4158
 21
43.9714
  0
LINE
  8
0
 10
18.4158
 20
43.9714
 11
18.3484
 21
43.8845
  0
LINE
  8
0
 10
18.3484
 20
43.8845
 11
18.2757
 21
43.802
  0
LINE
  8
0
 10
18.2757
 20
43.802
 11
18.198
 21
43.7243
  0
LINE
  8
0
 10
18.198
 20
43.7243
 11
18.1155
 21
43.6516
  0
LINE
  8
0
 10
18.1155
 20
43.6516
 11
18.0286
 21
43.5842
  0
LINE
  8
0
 10
18.0286
 20
43.5842
 11
17.9377
 21
43.5224
  0
LINE
  8
0
 10
17.9377
 20
43.5224
 11
17.8431
 21
43.4665
  0
LINE
  8
0
 10
17.8431
 20
43.4665
 11
17.7451
 21
43.4165
  0
LINE
  8
0
 10
17.7451
 20
43.4165
 11
17.6442
 21
43.3729
  0
LINE
  8
0
 10
17.6442
 20
43.3729
 11
17.5408
 21
43.3356
  0
LINE
  8
0
 10
17.5408
 20
43.3356
 11
17.4352
 21
43.305
  0
LINE
  8
0
 10
17.4352
 20
43.305
 11
17.3279
 21
43.281
  0
LINE
  8
0
 10
17.3279
 20
43.281
 11
17.2193
 21
43.2638
  0
LINE
  8
0
 10
17.2193
 20
43.2638
 11
17.1099
 21
43.2534
  0
LINE
  8
0
 10
17.1099
 20
43.2534
 11
17
 21
43.25
  0
LINE
  8
0
 10
17
 20
43.25
 11
16.8901
 21
43.2534
  0
LINE
  8
0
 10
-29.1099
 20
43.2534
 11
-29.2193
 21
43.2638
  0
LINE
  8
0
 10
-29.2193
 20
43.2638
 11
-29.3279
 21
43.281
  0
LINE
  8
0
 10
-29.3279
 20
43.281
 11
-29.4352
 21
43.305
  0
LINE
  8
0
 10
-29.4352
 20
43.305
 11
-29.5408
 21
43.3356
  0
LINE
  8
0
 10
-29.5408
 20
43.3356
 11
-29.6442
 21
43.3729
  0
LINE
  8
0
 10
-29.6442
 20
43.3729
 11
-29.7451
 21
43.4165
  0
LINE
  8
0
 10
-29.7451
 20
43.4165
 11
-29.8431
 21
43.4665
  0
LINE
  8
0
 10
-29.8431
 20
43.4665
 11
-29.9377
 21
43.5224
  0
LINE
  8
0
 10
-29.9377
 20
43.5224
 11
-30.0286
 21
43.5842
  0
LINE
  8
0
 10
-30.0286
 20
43.5842
 11
-30.1155
 21
43.6516
  0
LINE
  8
0
 10
-30.1155
 20
43.6516
 11
-30.198
 21
43.7243
  0
LINE
  8
0
 10
-30.198
 20
43.7243
 11
-30.2757
 21
43.802
  0
LINE
  8
0
 10
-30.2757
 20
43.802
 11
-30.3484
 21
43.8845
  0
LINE
  8
0
 10
-30.3484
 20
43.8845
 11
-30.4158
 21
43.9714
  0
LINE
  8
0
 10
-30.4158
 20
43.9714
 11
-30.4776
 21
44.0623
  0
LINE
  8
0
 10
-30.4776
 20
44.0623
 11
-30.5335
 21
44.1569
  0
LINE
  8
0
 10
-30.5335
 20
44.1569
 11
-30.5834
 21
44.2549
  0
LINE
  8
0
 10
-30.5834
 20
44.2549
 11
-30.6271
 21
44.3558
  0
LINE
  8
0
 10
-30.6271
 20
44.3558
 11
-30.6643
 21
44.4592
  0
LINE
  8
0
 10
-30.6643
 20
44.4592
 11
-30.695
 21
44.5648
  0
LINE
  8
0
 10
-30.695
 20
44.5648
 11
-30.719
 21
44.6721
  0
LINE
  8
0
 10
-30.719
 20
44.6721
 11
-30.7362
 21
44.7807
  0
LINE
  8
0
 10
-30.7362
 20
44.7807
 11
-30.7465
 21
44.8901
  0
LINE
  8
0
 10
-30.7465
 20
44.8901
 11
-30.75
 21
45
  0
LINE
  8
0
 10
-30.75
 20
45
 11
-30.7465
 21
45.1099
  0
LINE
  8
0
 10
-30.7465
 20
45.1099
 11
-30.7362
 21
45.2193
  0
LINE
  8
0
 10
-30.7362
 20
45.2193
 11
-30.719
 21
45.3279
  0
LINE
  8
0
 10
-30.719
 20
45.3279
 11
-30.695
 21
45.4352
  0
LINE
  8
0
 10
-30.695
 20
45.4352
 11
-30.6643
 21
45.5408
  0
LINE
  8
0
 10
-30.6643
 20
45.5408
 11
-30.6271
 21
45.6442
  0
LINE
  8
0
 10
-30.6271
 20
45.6442
 11
-30.5834
 21
45.7451
  0
LINE
  8
0
 10
-30.5834
 20
45.7451
 11
-30.5335
 21
45.8431
  0
LINE
  8
0
 10
-30.5335
 20
45.8431
 11
-30.4776
 21
45.9377
  0
LINE
  8
0
 10
-30.4776
 20
45.9377
 11
-30.4158
 21
46.0286
  0
LINE
  8
0
 10
-30.4158
 20
46.0286
 11
-30.3484
 21
46.1155
  0
LINE
  8
0
 10
-30.3484
 20
46.1155
 11
-30.2757
 21
46.198
  0
LINE
  8
0
 10
-30.2757
 20
46.198
 11
-30.198
 21
46.2757
  0
LINE
  8
0
 10
-30.198
 20
46.2757
 11
-30.1155
 21
46.3484
  0
LINE
  8
0
 10
-30.1155
 20
46.3484
 11
-30.0286
 21
46.4158
  0
LINE
  8
0
 10
-30.0286
 20
46.4158
 11
-29.9377
 21
46.4776
  0
LINE
  8
0
 10
-29.9377
 20
46.4776
 11
-29.8431
 21
46.5335
  0
LINE
  8
0
 10
-29.8431
 20
46.5335
 11
-29.7451
 21
46.5834
  0
LINE
  8
0
 10
-29.7451
 20
46.5834
 11
-29.6442
 21
46.6271
  0
LINE
  8
0
 10
-29.6442
 20
46.6271
 11
-29.5408
 21
46.6643
  0
LINE
  8
0
 10
-29.5408
 20
46.6643
 11
-29.4352
 21
46.695
  0
LINE
  8
0
 10
-29.4352
 20
46.695
 11
-29.3279
 21
46.719
  0
LINE
  8
0
 10
-29.3279
 20
46.719
 11
-29.2193
 21
46.7362
  0
LINE
  8
0
 10
-29.2193
 20
46.7362
 11
-29.1099
 21
46.7465
  0
LINE
  8
0
 10
-29.1099
 20
46.7465
 11
-29
 21
46.75
  0
LINE
  8
0
 10
-29
 20
46.75
 11
-28.8901
 21
46.7465
  0
LINE
  8
0
 10
-28.8901
 20
46.7465
 11
-28.7807
 21
46.7362
  0
LINE
  8
0
 10
-28.7807
 20
46.7362
 11
-28.6721
 21
46.719
  0
LINE
  8
0
 10
-28.6721
 20
46.719
 11
-28.5648
 21
46.695
  0
LINE
  8
0
 10
-28.5648
 20
46.695
 11
-28.4592
 21
46.6643
  0
LINE
  8
0
 10
-28.4592
 20
46.6643
 11
-28.3558
 21
46.6271
  0
LINE
  8
0
 10
-28.3558
 20
46.6271
 11
-28.2549
 21
46.5834
  0
LINE
  8
0
 10
-28.2549
 20
46.5834
 11
-28.1569
 21
46.5335
  0
LINE
  8
0
 10
-28.1569
 20
46.5335
 11
-28.0623
 21
46.4776
  0
LINE
  8
0
 10
-28.0623
 20
46.4776
 11
-27.9714
 21
46.4158
  0
LINE
  8
0
 10
-27.9714
 20
46.4158
 11
-27.8845
 21
46.3484
  0
LINE
  8
0
 10
-27.8845
 20
46.3484
 11
-27.802
 21
46.2757
  0
LINE
  8
0
 10
-27.802
 20
46.2757
 11
-27.7243
 21
46.198
  0
LINE
  8
0
 10
-27.7243
 20
46.198
 11
-27.6516
 21
46.1155
  0
LINE
  8
0
 10
-27.6516
 20
46.1155
 11
-27.5842
 21
46.0286
  0
LINE
  8
0
 10
-27.5842
 20
46.0286
 11
-27.5224
 21
45.9377
  0
LINE
  8
0
 10
-27.5224
 20
45.9377
 11
-27.4665
 21
45.8431
  0
LINE
  8
0
 10
-27.4665
 20
45.8431
 11
-27.4165
 21
45.7451
  0
LINE
  8
0
 10
-27.4165
 20
45.7451
 11
-27.3729
 21
45.6442
  0
LINE
  8
0
 10
-27.3729
 20
45.6442
 11
-27.3356
 21
45.5408
  0
LINE
  8
0
 10
-27.3356
 20
45.5408
 11
-27.305
 21
45.4352
  0
LINE
  8
0
 10
-27.305
 20
45.4352
 11
-27.281
 21
45.3279
  0
LINE
  8
0
 10
-27.281
 20
45.3279
 11
-27.2638
 21
45.2193
  0
LINE
  8
0
 10
-27.2638
 20
45.2193
 11
-27.2534
 21
45.1099
  0
LINE
  8
0
 10
-27.2534
 20
45.1099
 11
-27.25
 21
45
  0
LINE
  8
0
 10
-27.25
 20
45
 11
-27.2534
 21
44.8901
  0
LINE
  8
0
 10
-27.2534
 20
44.8901
 11
-27.2638
 21
44.7807
  0
LINE
  8
0
 10
-27.2638
 20
44.7807
 11
-27.281
 21
44.6721
  0
LINE
  8
0
 10
-27.281
 20
44.6721
 11
-27.305
 21
44.5648
  0
LINE
  8
0
 10
-27.305
 20
44.5648
 11
-27.3356
 21
44.4592
  0
LINE
  8
0
 10
-27.3356
 20
44.4592
 11
-27.3729
 21
44.3558
  0
LINE
  8
0
 10
-27.3729
 20
44.3558
 11
-27.4165
 21
44.2549
  0
LINE
  8
0
 10
-27.4165
 20
44.2549
 11
-27.4665
 21
44.1569
  0
LINE
  8
0
 10
-27.4665
 20
44.1569
 11
-27.5224
 21
44.0623
  0
LINE
  8
0
 10
-27.5224
 20
44.0623
 11
-27.5842
 21
43.9714
  0
LINE
  8
0
 10
-27.5842
 20
43.9714
 11
-27.6516
 21
43.8845
  0
LINE
  8
0
 10
-27.6516
 20
43.8845
 11
-27.7243
 21
43.802
  0
LINE
  8
0
 10
-27.7243
 20
43.802
 11
-27.802
 21
43.7243
  0
LINE
  8
0
 10
-27.802
 20
43.7243
 11
-27.8845
 21
43.6516
  0
LINE
  8
0
 10
-27.8845
 20
43.6516
 11
-27.9714
 21
43.5842
  0
LINE
  8
0
 10
-27.9714
 20
43.5842
 11
-28.0623
 21
43.5224
  0
LINE
  8
0
 10
-28.0623
 20
43.5224
 11
-28.1569
 21
43.4665
  0
LINE
  8
0
 10
-28.1569
 20
43.4665
 11
-28.2549
 21
43.4165
  0
LINE
  8
0
 10
-28.2549
 20
43.4165
 11
-28.3558
 21
43.3729
  0
LINE
  8
0
 10
-28.3558
 20
43.3729
 11
-28.4592
 21
43.3356
  0
LINE
  8
0
 10
-28.4592
 20
43.3356
 11
-28.5648
 21
43.305
  0
LINE
  8
0
 10
-28.5648
 20
43.305
 11
-28.6721
 21
43.281
  0
LINE
  8
0
 10
-28.6721
 20
43.281
 11
-28.7807
 21
43.2638
  0
LINE
  8
0
 10
-28.7807
 20
43.2638
 11
-28.8901
 21
43.2534
  0
LINE
  8
0
 10
-28.8901
 20
43.2534
 11
-29
 21
43.25
  0
LINE
  8
0
 10
-29
 20
43.25
 11
-29.1099
 21
43.2534
  0
LINE
  8
0
 10
-23.5314
 20
19.821
 11
-23.5627
 21
19.8239
  0
LINE
  8
0
 10
-23.5627
 20
19.8239
 11
-23.5937
 21
19.8289
  0
LINE
  8
0
 10
-23.5937
 20
19.8289
 11
-23.6243
 21
19.8357
  0
LINE
  8
0
 10
-23.6243
 20
19.8357
 11
-23.6545
 21
19.8445
  0
LINE
  8
0
 10
-23.6545
 20
19.8445
 11
-23.6841
 21
19.8551
  0
LINE
  8
0
 10
-23.6841
 20
19.8551
 11
-23.7129
 21
19.8676
  0
LINE
  8
0
 10
-23.7129
 20
19.8676
 11
-23.7409
 21
19.8818
  0
LINE
  8
0
 10
-23.7409
 20
19.8818
 11
-23.7679
 21
19.8978
  0
LINE
  8
0
 10
-23.7679
 20
19.8978
 11
-23.7939
 21
19.9155
  0
LINE
  8
0
 10
-23.7939
 20
19.9155
 11
-23.8187
 21
19.9347
  0
LINE
  8
0
 10
-23.8187
 20
19.9347
 11
-23.8423
 21
19.9555
  0
LINE
  8
0
 10
-23.8423
 20
19.9555
 11
-23.8645
 21
19.9777
  0
LINE
  8
0
 10
-23.8645
 20
19.9777
 11
-23.8853
 21
20.0013
  0
LINE
  8
0
 10
-23.8853
 20
20.0013
 11
-23.9045
 21
20.0261
  0
LINE
  8
0
 10
-23.9045
 20
20.0261
 11
-23.9221
 21
20.0521
  0
LINE
  8
0
 10
-23.9221
 20
20.0521
 11
-23.9381
 21
20.0791
  0
LINE
  8
0
 10
-23.9381
 20
20.0791
 11
-23.9524
 21
20.1071
  0
LINE
  8
0
 10
-23.9524
 20
20.1071
 11
-23.9649
 21
20.1359
  0
LINE
  8
0
 10
-23.9649
 20
20.1359
 11
-23.9755
 21
20.1655
  0
LINE
  8
0
 10
-23.9755
 20
20.1655
 11
-23.9843
 21
20.1956
  0
LINE
  8
0
 10
-23.9843
 20
20.1956
 11
-23.9911
 21
20.2263
  0
LINE
  8
0
 10
-23.9911
 20
20.2263
 11
-23.996
 21
20.2573
  0
LINE
  8
0
 10
-23.996
 20
20.2573
 11
-23.999
 21
20.2886
  0
LINE
  8
0
 10
-23.999
 20
20.2886
 11
-24
 21
20.32
  0
LINE
  8
0
 10
-24
 20
20.32
 11
-23.999
 21
20.3514
  0
LINE
  8
0
 10
-23.999
 20
20.3514
 11
-23.996
 21
20.3827
  0
LINE
  8
0
 10
-23.996
 20
20.3827
 11
-23.9911
 21
20.4137
  0
LINE
  8
0
 10
-23.9911
 20
20.4137
 11
-23.9843
 21
20.4443
  0
LINE
  8
0
 10
-23.9843
 20
20.4443
 11
-23.9755
 21
20.4745
  0
LINE
  8
0
 10
-23.9755
 20
20.4745
 11
-23.9649
 21
20.5041
  0
LINE
  8
0
 10
-23.9649
 20
20.5041
 11
-23.9524
 21
20.5329
  0
LINE
  8
0
 10
-23.9524
 20
20.5329
 11
-23.9381
 21
20.5609
  0
LINE
  8
0
 10
-23.9381
 20
20.5609
 11
-23.9221
 21
20.5879
  0
LINE
  8
0
 10
-23.9221
 20
20.5879
 11
-23.9045
 21
20.6139
  0
LINE
  8
0
 10
-23.9045
 20
20.6139
 11
-23.8853
 21
20.6387
  0
LINE
  8
0
 10
-23.8853
 20
20.6387
 11
-23.8645
 21
20.6623
  0
LINE
  8
0
 10
-23.8645
 20
20.6623
 11
-23.8423
 21
20.6845
  0
LINE
  8
0
 10
-23.8423
 20
20.6845
 11
-23.8187
 21
20.7052
  0
LINE
  8
0
 10
-23.8187
 20
20.7052
 11
-23.7939
 21
20.7245
  0
LINE
  8
0
 10
-23.7939
 20
20.7245
 11
-23.7679
 21
20.7422
  0
LINE
  8
0
 10
-23.7679
 20
20.7422
 11
-23.7409
 21
20.7581
  0
LINE
  8
0
 10
-23.7409
 20
20.7581
 11
-23.7129
 21
20.7724
  0
LINE
  8
0
 10
-23.7129
 20
20.7724
 11
-23.6841
 21
20.7849
  0
LINE
  8
0
 10
-23.6841
 20
20.7849
 11
-23.6545
 21
20.7955
  0
LINE
  8
0
 10
-23.6545
 20
20.7955
 11
-23.6243
 21
20.8043
  0
LINE
  8
0
 10
-23.6243
 20
20.8043
 11
-23.5937
 21
20.8111
  0
LINE
  8
0
 10
-23.5937
 20
20.8111
 11
-23.5627
 21
20.8161
  0
LINE
  8
0
 10
-23.5627
 20
20.8161
 11
-23.5314
 21
20.819
  0
LINE
  8
0
 10
-23.5314
 20
20.819
 11
-23.5
 21
20.82
  0
LINE
  8
0
 10
-23.5
 20
20.82
 11
-23.4686
 21
20.819
  0
LINE
  8
0
 10
-23.4686
 20
20.819
 11
-23.4373
 21
20.8161
  0
LINE
  8
0
 10
-23.4373
 20
20.8161
 11
-23.4063
 21
20.8111
  0
LINE
  8
0
 10
-23.4063
 20
20.8111
 11
-23.3757
 21
20.8043
  0
LINE
  8
0
 10
-23.3757
 20
20.8043
 11
-23.3455
 21
20.7955
  0
LINE
  8
0
 10
-23.3455
 20
20.7955
 11
-23.3159
 21
20.7849
  0
LINE
  8
0
 10
-23.3159
 20
20.7849
 11
-23.2871
 21
20.7724
  0
LINE
  8
0
 10
-23.2871
 20
20.7724
 11
-23.2591
 21
20.7581
  0
LINE
  8
0
 10
-23.2591
 20
20.7581
 11
-23.2321
 21
20.7422
  0
LINE
  8
0
 10
-23.2321
 20
20.7422
 11
-23.2061
 21
20.7245
  0
LINE
  8
0
 10
-23.2061
 20
20.7245
 11
-23.1813
 21
20.7052
  0
LINE
  8
0
 10
-23.1813
 20
20.7052
 11
-23.1577
 21
20.6845
  0
LINE
  8
0
 10
-23.1577
 20
20.6845
 11
-23.1355
 21
20.6623
  0
LINE
  8
0
 10
-23.1355
 20
20.6623
 11
-23.1147
 21
20.6387
  0
LINE
  8
0
 10
-23.1147
 20
20.6387
 11
-23.0955
 21
20.6139
  0
LINE
  8
0
 10
-23.0955
 20
20.6139
 11
-23.0778
 21
20.5879
  0
LINE
  8
0
 10
-23.0778
 20
20.5879
 11
-23.0618
 21
20.5609
  0
LINE
  8
0
 10
-23.0618
 20
20.5609
 11
-23.0476
 21
20.5329
  0
LINE
  8
0
 10
-23.0476
 20
20.5329
 11
-23.0351
 21
20.5041
  0
LINE
  8
0
 10
-23.0351
 20
20.5041
 11
-23.0245
 21
20.4745
  0
LINE
  8
0
 10
-23.0245
 20
20.4745
 11
-23.0157
 21
20.4443
  0
LINE
  8
0
 10
-23.0157
 20
20.4443
 11
-23.0089
 21
20.4137
  0
LINE
  8
0
 10
-23.0089
 20
20.4137
 11
-23.0039
 21
20.3827
  0
LINE
  8
0
 10
-23.0039
 20
20.3827
 11
-23.001
 21
20.3514
  0
LINE
  8
0
 10
-23.001
 20
20.3514
 11
-23
 21
20.32
  0
LINE
  8
0
 10
-23
 20
20.32
 11
-23.001
 21
20.2886
  0
LINE
  8
0
 10
-23.001
 20
20.2886
 11
-23.0039
 21
20.2573
  0
LINE
  8
0
 10
-23.0039
 20
20.2573
 11
-23.0089
 21
20.2263
  0
LINE
  8
0
 10
-23.0089
 20
20.2263
 11
-23.0157
 21
20.1956
  0
LINE
  8
0
 10
-23.0157
 20
20.1956
 11
-23.0245
 21
20.1655
  0
LINE
  8
0
 10
-23.0245
 20
20.1655
 11
-23.0351
 21
20.1359
  0
LINE
  8
0
 10
-23.0351
 20
20.1359
 11
-23.0476
 21
20.1071
  0
LINE
  8
0
 10
-23.0476
 20
20.1071
 11
-23.0618
 21
20.0791
  0
LINE
  8
0
 10
-23.0618
 20
20.0791
 11
-23.0778
 21
20.0521
  0
LINE
  8
0
 10
-23.0778
 20
20.0521
 11
-23.0955
 21
20.0261
  0
LINE
  8
0
 10
-23.0955
 20
20.0261
 11
-23.1147
 21
20.0013
  0
LINE
  8
0
 10
-23.1147
 20
20.0013
 11
-23.1355
 21
19.9777
  0
LINE
  8
0
 10
-23.1355
 20
19.9777
 11
-23.1577
 21
19.9555
  0
LINE
  8
0
 10
-23.1577
 20
19.9555
 11
-23.1813
 21
19.9347
  0
LINE
  8
0
 10
-23.1813
 20
19.9347
 11
-23.2061
 21
19.9155
  0
LINE
  8
0
 10
-23.2061
 20
19.9155
 11
-23.2321
 21
19.8978
  0
LINE
  8
0
 10
-23.2321
 20
19.8978
 11
-23.2591
 21
19.8818
  0
LINE
  8
0
 10
-23.2591
 20
19.8818
 11
-23.2871
 21
19.8676
  0
LINE
  8
0
 10
-23.2871
 20
19.8676
 11
-23.3159
 21
19.8551
  0
LINE
  8
0
 10
-23.3159
 20
19.8551
 11
-23.3455
 21
19.8445
  0
LINE
  8
0
 10
-23.3455
 20
19.8445
 11
-23.3757
 21
19.8357
  0
LINE
  8
0
 10
-23.3757
 20
19.8357
 11
-23.4063
 21
19.8289
  0
LINE
  8
0
 10
-23.4063
 20
19.8289
 11
-23.4373
 21
19.8239
  0
LINE
  8
0
 10
-23.4373
 20
19.8239
 11
-23.4686
 21
19.821
  0
LINE
  8
0
 10
-23.4686
 20
19.821
 11
-23.5
 21
19.82
  0
LINE
  8
0
 10
-23.5
 20
19.82
 11
-23.5314
 21
19.821
  0
LINE
  8
0
 10
-23.5314
 20
17.281
 11
-23.5627
 21
17.2839
  0
LINE
  8
0
 10
-23.5627
 20
17.2839
 11
-23.5937
 21
17.2888
  0
LINE
  8
0
 10
-23.5937
 20
17.2888
 11
-23.6243
 21
17.2957
  0
LINE
  8
0
 10
-23.6243
 20
17.2957
 11
-23.6545
 21
17.3045
  0
LINE
  8
0
 10
-23.6545
 20
17.3045
 11
-23.6841
 21
17.3151
  0
LINE
  8
0
 10
-23.6841
 20
17.3151
 11
-23.7129
 21
17.3276
  0
LINE
  8
0
 10
-23.7129
 20
17.3276
 11
-23.7409
 21
17.3418
  0
LINE
  8
0
 10
-23.7409
 20
17.3418
 11
-23.7679
 21
17.3578
  0
LINE
  8
0
 10
-23.7679
 20
17.3578
 11
-23.7939
 21
17.3755
  0
LINE
  8
0
 10
-23.7939
 20
17.3755
 11
-23.8187
 21
17.3947
  0
LINE
  8
0
 10
-23.8187
 20
17.3947
 11
-23.8423
 21
17.4155
  0
LINE
  8
0
 10
-23.8423
 20
17.4155
 11
-23.8645
 21
17.4377
  0
LINE
  8
0
 10
-23.8645
 20
17.4377
 11
-23.8853
 21
17.4613
  0
LINE
  8
0
 10
-23.8853
 20
17.4613
 11
-23.9045
 21
17.4861
  0
LINE
  8
0
 10
-23.9045
 20
17.4861
 11
-23.9221
 21
17.5121
  0
LINE
  8
0
 10
-23.9221
 20
17.5121
 11
-23.9381
 21
17.5391
  0
LINE
  8
0
 10
-23.9381
 20
17.5391
 11
-23.9524
 21
17.5671
  0
LINE
  8
0
 10
-23.9524
 20
17.5671
 11
-23.9649
 21
17.5959
  0
LINE
  8
0
 10
-23.9649
 20
17.5959
 11
-23.9755
 21
17.6255
  0
LINE
  8
0
 10
-23.9755
 20
17.6255
 11
-23.9843
 21
17.6557
  0
LINE
  8
0
 10
-23.9843
 20
17.6557
 11
-23.9911
 21
17.6863
  0
LINE
  8
0
 10
-23.9911
 20
17.6863
 11
-23.996
 21
17.7173
  0
LINE
  8
0
 10
-23.996
 20
17.7173
 11
-23.999
 21
17.7486
  0
LINE
  8
0
 10
-23.999
 20
17.7486
 11
-24
 21
17.78
  0
LINE
  8
0
 10
-24
 20
17.78
 11
-23.999
 21
17.8114
  0
LINE
  8
0
 10
-23.999
 20
17.8114
 11
-23.996
 21
17.8427
  0
LINE
  8
0
 10
-23.996
 20
17.8427
 11
-23.9911
 21
17.8737
  0
LINE
  8
0
 10
-23.9911
 20
17.8737
 11
-23.9843
 21
17.9043
  0
LINE
  8
0
 10
-23.9843
 20
17.9043
 11
-23.9755
 21
17.9345
  0
LINE
  8
0
 10
-23.9755
 20
17.9345
 11
-23.9649
 21
17.9641
  0
LINE
  8
0
 10
-23.9649
 20
17.9641
 11
-23.9524
 21
17.9929
  0
LINE
  8
0
 10
-23.9524
 20
17.9929
 11
-23.9381
 21
18.0209
  0
LINE
  8
0
 10
-23.9381
 20
18.0209
 11
-23.9221
 21
18.0479
  0
LINE
  8
0
 10
-23.9221
 20
18.0479
 11
-23.9045
 21
18.0739
  0
LINE
  8
0
 10
-23.9045
 20
18.0739
 11
-23.8853
 21
18.0987
  0
LINE
  8
0
 10
-23.8853
 20
18.0987
 11
-23.8645
 21
18.1223
  0
LINE
  8
0
 10
-23.8645
 20
18.1223
 11
-23.8423
 21
18.1445
  0
LINE
  8
0
 10
-23.8423
 20
18.1445
 11
-23.8187
 21
18.1653
  0
LINE
  8
0
 10
-23.8187
 20
18.1653
 11
-23.7939
 21
18.1845
  0
LINE
  8
0
 10
-23.7939
 20
18.1845
 11
-23.7679
 21
18.2022
  0
LINE
  8
0
 10
-23.7679
 20
18.2022
 11
-23.7409
 21
18.2182
  0
LINE
  8
0
 10
-23.7409
 20
18.2182
 11
-23.7129
 21
18.2324
  0
LINE
  8
0
 10
-23.7129
 20
18.2324
 11
-23.6841
 21
18.2449
  0
LINE
  8
0
 10
-23.6841
 20
18.2449
 11
-23.6545
 21
18.2555
  0
LINE
  8
0
 10
-23.6545
 20
18.2555
 11
-23.6243
 21
18.2643
  0
LINE
  8
0
 10
-23.6243
 20
18.2643
 11
-23.5937
 21
18.2711
  0
LINE
  8
0
 10
-23.5937
 20
18.2711
 11
-23.5627
 21
18.276
  0
LINE
  8
0
 10
-23.5627
 20
18.276
 11
-23.5314
 21
18.279
  0
LINE
  8
0
 10
-23.5314
 20
18.279
 11
-23.5
 21
18.28
  0
LINE
  8
0
 10
-23.5
 20
18.28
 11
-23.4686
 21
18.279
  0
LINE
  8
0
 10
-23.4686
 20
18.279
 11
-23.4373
 21
18.276
  0
LINE
  8
0
 10
-23.4373
 20
18.276
 11
-23.4063
 21
18.2711
  0
LINE
  8
0
 10
-23.4063
 20
18.2711
 11
-23.3757
 21
18.2643
  0
LINE
  8
0
 10
-23.3757
 20
18.2643
 11
-23.3455
 21
18.2555
  0
LINE
  8
0
 10
-23.3455
 20
18.2555
 11
-23.3159
 21
18.2449
  0
LINE
  8
0
 10
-23.3159
 20
18.2449
 11
-23.2871
 21
18.2324
  0
LINE
  8
0
 10
-23.2871
 20
18.2324
 11
-23.2591
 21
18.2182
  0
LINE
  8
0
 10
-23.2591
 20
18.2182
 11
-23.2321
 21
18.2022
  0
LINE
  8
0
 10
-23.2321
 20
18.2022
 11
-23.2061
 21
18.1845
  0
LINE
  8
0
 10
-23.2061
 20
18.1845
 11
-23.1813
 21
18.1653
  0
LINE
  8
0
 10
-23.1813
 20
18.1653
 11
-23.1577
 21
18.1445
  0
LINE
  8
0
 10
-23.1577
 20
18.1445
 11
-23.1355
 21
18.1223
  0
LINE
  8
0
 10
-23.1355
 20
18.1223
 11
-23.1147
 21
18.0987
  0
LINE
  8
0
 10
-23.1147
 20
18.0987
 11
-23.0955
 21
18.0739
  0
LINE
  8
0
 10
-23.0955
 20
18.0739
 11
-23.0778
 21
18.0479
  0
LINE
  8
0
 10
-23.0778
 20
18.0479
 11
-23.0618
 21
18.0209
  0
LINE
  8
0
 10
-23.0618
 20
18.0209
 11
-23.0476
 21
17.9929
  0
LINE
  8
0
 10
-23.0476
 20
17.9929
 11
-23.0351
 21
17.9641
  0
LINE
  8
0
 10
-23.0351
 20
17.9641
 11
-23.0245
 21
17.9345
  0
LINE
  8
0
 10
-23.0245
 20
17.9345
 11
-23.0157
 21
17.9043
  0
LINE
  8
0
 10
-23.0157
 20
17.9043
 11
-23.0089
 21
17.8737
  0
LINE
  8
0
 10
-23.0089
 20
17.8737
 11
-23.0039
 21
17.8427
  0
LINE
  8
0
 10
-23.0039
 20
17.8427
 11
-23.001
 21
17.8114
  0
LINE
  8
0
 10
-23.001
 20
17.8114
 11
-23
 21
17.78
  0
LINE
  8
0
 10
-23
 20
17.78
 11
-23.001
 21
17.7486
  0
LINE
  8
0
 10
-23.001
 20
17.7486
 11
-23.0039
 21
17.7173
  0
LINE
  8
0
 10
-23.0039
 20
17.7173
 11
-23.0089
 21
17.6863
  0
LINE
  8
0
 10
-23.0089
 20
17.6863
 11
-23.0157
 21
17.6557
  0
LINE
  8
0
 10
-23.0157
 20
17.6557
 11
-23.0245
 21
17.6255
  0
LINE
  8
0
 10
-23.0245
 20
17.6255
 11
-23.0351
 21
17.5959
  0
LINE
  8
0
 10
-23.0351
 20
17.5959
 11
-23.0476
 21
17.5671
  0
LINE
  8
0
 10
-23.0476
 20
17.5671
 11
-23.0618
 21
17.5391
  0
LINE
  8
0
 10
-23.0618
 20
17.5391
 11
-23.0778
 21
17.5121
  0
LINE
  8
0
 10
-23.0778
 20
17.5121
 11
-23.0955
 21
17.4861
  0
LINE
  8
0
 10
-23.0955
 20
17.4861
 11
-23.1147
 21
17.4613
  0
LINE
  8
0
 10
-23.1147
 20
17.4613
 11
-23.1355
 21
17.4377
  0
LINE
  8
0
 10
-23.1355
 20
17.4377
 11
-23.1577
 21
17.4155
  0
LINE
  8
0
 10
-23.1577
 20
17.4155
 11
-23.1813
 21
17.3947
  0
LINE
  8
0
 10
-23.1813
 20
17.3947
 11
-23.2061
 21
17.3755
  0
LINE
  8
0
 10
-23.2061
 20
17.3755
 11
-23.2321
 21
17.3578
  0
LINE
  8
0
 10
-23.2321
 20
17.3578
 11
-23.2591
 21
17.3418
  0
LINE
  8
0
 10
-23.2591
 20
17.3418
 11
-23.2871
 21
17.3276
  0
LINE
  8
0
 10
-23.2871
 20
17.3276
 11
-23.3159
 21
17.3151
  0
LINE
  8
0
 10
-23.3159
 20
17.3151
 11
-23.3455
 21
17.3045
  0
LINE
  8
0
 10
-23.3455
 20
17.3045
 11
-23.3757
 21
17.2957
  0
LINE
  8
0
 10
-23.3757
 20
17.2957
 11
-23.4063
 21
17.2888
  0
LINE
  8
0
 10
-23.4063
 20
17.2888
 11
-23.4373
 21
17.2839
  0
LINE
  8
0
 10
-23.4373
 20
17.2839
 11
-23.4686
 21
17.281
  0
LINE
  8
0
 10
-23.4686
 20
17.281
 11
-23.5
 21
17.28
  0
LINE
  8
0
 10
-23.5
 20
17.28
 11
-23.5314
 21
17.281
  0
LINE
  8
0
 10
-23.5314
 20
12.201
 11
-23.5627
 21
12.2039
  0
LINE
  8
0
 10
-23.5627
 20
12.2039
 11
-23.5937
 21
12.2088
  0
LINE
  8
0
 10
-23.5937
 20
12.2088
 11
-23.6243
 21
12.2157
  0
LINE
  8
0
 10
-23.6243
 20
12.2157
 11
-23.6545
 21
12.2245
  0
LINE
  8
0
 10
-23.6545
 20
12.2245
 11
-23.6841
 21
12.2351
  0
LINE
  8
0
 10
-23.6841
 20
12.2351
 11
-23.7129
 21
12.2476
  0
LINE
  8
0
 10
-23.7129
 20
12.2476
 11
-23.7409
 21
12.2618
  0
LINE
  8
0
 10
-23.7409
 20
12.2618
 11
-23.7679
 21
12.2778
  0
LINE
  8
0
 10
-23.7679
 20
12.2778
 11
-23.7939
 21
12.2955
  0
LINE
  8
0
 10
-23.7939
 20
12.2955
 11
-23.8187
 21
12.3147
  0
LINE
  8
0
 10
-23.8187
 20
12.3147
 11
-23.8423
 21
12.3355
  0
LINE
  8
0
 10
-23.8423
 20
12.3355
 11
-23.8645
 21
12.3577
  0
LINE
  8
0
 10
-23.8645
 20
12.3577
 11
-23.8853
 21
12.3813
  0
LINE
  8
0
 10
-23.8853
 20
12.3813
 11
-23.9045
 21
12.4061
  0
LINE
  8
0
 10
-23.9045
 20
12.4061
 11
-23.9221
 21
12.4321
  0
LINE
  8
0
 10
-23.9221
 20
12.4321
 11
-23.9381
 21
12.4591
  0
LINE
  8
0
 10
-23.9381
 20
12.4591
 11
-23.9524
 21
12.4871
  0
LINE
  8
0
 10
-23.9524
 20
12.4871
 11
-23.9649
 21
12.5159
  0
LINE
  8
0
 10
-23.9649
 20
12.5159
 11
-23.9755
 21
12.5455
  0
LINE
  8
0
 10
-23.9755
 20
12.5455
 11
-23.9843
 21
12.5757
  0
LINE
  8
0
 10
-23.9843
 20
12.5757
 11
-23.9911
 21
12.6063
  0
LINE
  8
0
 10
-23.9911
 20
12.6063
 11
-23.996
 21
12.6373
  0
LINE
  8
0
 10
-23.996
 20
12.6373
 11
-23.999
 21
12.6686
  0
LINE
  8
0
 10
-23.999
 20
12.6686
 11
-24
 21
12.7
  0
LINE
  8
0
 10
-24
 20
12.7
 11
-23.999
 21
12.7314
  0
LINE
  8
0
 10
-23.999
 20
12.7314
 11
-23.996
 21
12.7627
  0
LINE
  8
0
 10
-23.996
 20
12.7627
 11
-23.9911
 21
12.7937
  0
LINE
  8
0
 10
-23.9911
 20
12.7937
 11
-23.9843
 21
12.8243
  0
LINE
  8
0
 10
-23.9843
 20
12.8243
 11
-23.9755
 21
12.8545
  0
LINE
  8
0
 10
-23.9755
 20
12.8545
 11
-23.9649
 21
12.884
  0
LINE
  8
0
 10
-23.9649
 20
12.884
 11
-23.9524
 21
12.9129
  0
LINE
  8
0
 10
-23.9524
 20
12.9129
 11
-23.9381
 21
12.9409
  0
LINE
  8
0
 10
-23.9381
 20
12.9409
 11
-23.9221
 21
12.9679
  0
LINE
  8
0
 10
-23.9221
 20
12.9679
 11
-23.9045
 21
12.9939
  0
LINE
  8
0
 10
-23.9045
 20
12.9939
 11
-23.8853
 21
13.0187
  0
LINE
  8
0
 10
-23.8853
 20
13.0187
 11
-23.8645
 21
13.0423
  0
LINE
  8
0
 10
-23.8645
 20
13.0423
 11
-23.8423
 21
13.0645
  0
LINE
  8
0
 10
-23.8423
 20
13.0645
 11
-23.8187
 21
13.0853
  0
LINE
  8
0
 10
-23.8187
 20
13.0853
 11
-23.7939
 21
13.1045
  0
LINE
  8
0
 10
-23.7939
 20
13.1045
 11
-23.7679
 21
13.1222
  0
LINE
  8
0
 10
-23.7679
 20
13.1222
 11
-23.7409
 21
13.1382
  0
LINE
  8
0
 10
-23.7409
 20
13.1382
 11
-23.7129
 21
13.1524
  0
LINE
  8
0
 10
-23.7129
 20
13.1524
 11
-23.6841
 21
13.1649
  0
LINE
  8
0
 10
-23.6841
 20
13.1649
 11
-23.6545
 21
13.1755
  0
LINE
  8
0
 10
-23.6545
 20
13.1755
 11
-23.6243
 21
13.1843
  0
LINE
  8
0
 10
-23.6243
 20
13.1843
 11
-23.5937
 21
13.1911
  0
LINE
  8
0
 10
-23.5937
 20
13.1911
 11
-23.5627
 21
13.196
  0
LINE
  8
0
 10
-23.5627
 20
13.196
 11
-23.5314
 21
13.199
  0
LINE
  8
0
 10
-23.5314
 20
13.199
 11
-23.5
 21
13.2
  0
LINE
  8
0
 10
-23.5
 20
13.2
 11
-23.4686
 21
13.199
  0
LINE
  8
0
 10
-23.4686
 20
13.199
 11
-23.4373
 21
13.196
  0
LINE
  8
0
 10
-23.4373
 20
13.196
 11
-23.4063
 21
13.1911
  0
LINE
  8
0
 10
-23.4063
 20
13.1911
 11
-23.3757
 21
13.1843
  0
LINE
  8
0
 10
-23.3757
 20
13.1843
 11
-23.3455
 21
13.1755
  0
LINE
  8
0
 10
-23.3455
 20
13.1755
 11
-23.3159
 21
13.1649
  0
LINE
  8
0
 10
-23.3159
 20
13.1649
 11
-23.2871
 21
13.1524
  0
LINE
  8
0
 10
-23.2871
 20
13.1524
 11
-23.2591
 21
13.1382
  0
LINE
  8
0
 10
-23.2591
 20
13.1382
 11
-23.2321
 21
13.1222
  0
LINE
  8
0
 10
-23.2321
 20
13.1222
 11
-23.2061
 21
13.1045
  0
LINE
  8
0
 10
-23.2061
 20
13.1045
 11
-23.1813
 21
13.0853
  0
LINE
  8
0
 10
-23.1813
 20
13.0853
 11
-23.1577
 21
13.0645
  0
LINE
  8
0
 10
-23.1577
 20
13.0645
 11
-23.1355
 21
13.0423
  0
LINE
  8
0
 10
-23.1355
 20
13.0423
 11
-23.1147
 21
13.0187
  0
LINE
  8
0
 10
-23.1147
 20
13.0187
 11
-23.0955
 21
12.9939
  0
LINE
  8
0
 10
-23.0955
 20
12.9939
 11
-23.0778
 21
12.9679
  0
LINE
  8
0
 10
-23.0778
 20
12.9679
 11
-23.0618
 21
12.9409
  0
LINE
  8
0
 10
-23.0618
 20
12.9409
 11
-23.0476
 21
12.9129
  0
LINE
  8
0
 10
-23.0476
 20
12.9129
 11
-23.0351
 21
12.884
  0
LINE
  8
0
 10
-23.0351
 20
12.884
 11
-23.0245
 21
12.8545
  0
LINE
  8
0
 10
-23.0245
 20
12.8545
 11
-23.0157
 21
12.8243
  0
LINE
  8
0
 10
-23.0157
 20
12.8243
 11
-23.0089
 21
12.7937
  0
LINE
  8
0
 10
-23.0089
 20
12.7937
 11
-23.0039
 21
12.7627
  0
LINE
  8
0
 10
-23.0039
 20
12.7627
 11
-23.001
 21
12.7314
  0
LINE
  8
0
 10
-23.001
 20
12.7314
 11
-23
 21
12.7
  0
LINE
  8
0
 10
-23
 20
12.7
 11
-23.001
 21
12.6686
  0
LINE
  8
0
 10
-23.001
 20
12.6686
 11
-23.0039
 21
12.6373
  0
LINE
  8
0
 10
-23.0039
 20
12.6373
 11
-23.0089
 21
12.6063
  0
LINE
  8
0
 10
-23.0089
 20
12.6063
 11
-23.0157
 21
12.5757
  0
LINE
  8
0
 10
-23.0157
 20
12.5757
 11
-23.0245
 21
12.5455
  0
LINE
  8
0
 10
-23.0245
 20
12.5455
 11
-23.0351
 21
12.5159
  0
LINE
  8
0
 10
-23.0351
 20
12.5159
 11
-23.0476
 21
12.4871
  0
LINE
  8
0
 10
-23.0476
 20
12.4871
 11
-23.0618
 21
12.4591
  0
LINE
  8
0
 10
-23.0618
 20
12.4591
 11
-23.0778
 21
12.4321
  0
LINE
  8
0
 10
-23.0778
 20
12.4321
 11
-23.0955
 21
12.4061
  0
LINE
  8
0
 10
-23.0955
 20
12.4061
 11
-23.1147
 21
12.3813
  0
LINE
  8
0
 10
-23.1147
 20
12.3813
 11
-23.1355
 21
12.3577
  0
LINE
  8
0
 10
-23.1355
 20
12.3577
 11
-23.1577
 21
12.3355
  0
LINE
  8
0
 10
-23.1577
 20
12.3355
 11
-23.1813
 21
12.3147
  0
LINE
  8
0
 10
-23.1813
 20
12.3147
 11
-23.2061
 21
12.2955
  0
LINE
  8
0
 10
-23.2061
 20
12.2955
 11
-23.2321
 21
12.2778
  0
LINE
  8
0
 10
-23.2321
 20
12.2778
 11
-23.2591
 21
12.2618
  0
LINE
  8
0
 10
-23.2591
 20
12.2618
 11
-23.2871
 21
12.2476
  0
LINE
  8
0
 10
-23.2871
 20
12.2476
 11
-23.3159
 21
12.2351
  0
LINE
  8
0
 10
-23.3159
 20
12.2351
 11
-23.3455
 21
12.2245
  0
LINE
  8
0
 10
-23.3455
 20
12.2245
 11
-23.3757
 21
12.2157
  0
LINE
  8
0
 10
-23.3757
 20
12.2157
 11
-23.4063
 21
12.2088
  0
LINE
  8
0
 10
-23.4063
 20
12.2088
 11
-23.4373
 21
12.2039
  0
LINE
  8
0
 10
-23.4373
 20
12.2039
 11
-23.4686
 21
12.201
  0
LINE
  8
0
 10
-23.4686
 20
12.201
 11
-23.5
 21
12.2
  0
LINE
  8
0
 10
-23.5
 20
12.2
 11
-23.5314
 21
12.201
  0
LINE
  8
0
 10
-23.5314
 20
9.66098
 11
-23.5627
 21
9.66394
  0
LINE
  8
0
 10
-23.5627
 20
9.66394
 11
-23.5937
 21
9.66885
  0
LINE
  8
0
 10
-23.5937
 20
9.66885
 11
-23.6243
 21
9.6757
  0
LINE
  8
0
 10
-23.6243
 20
9.6757
 11
-23.6545
 21
9.68446
  0
LINE
  8
0
 10
-23.6545
 20
9.68446
 11
-23.6841
 21
9.6951
  0
LINE
  8
0
 10
-23.6841
 20
9.6951
 11
-23.7129
 21
9.70758
  0
LINE
  8
0
 10
-23.7129
 20
9.70758
 11
-23.7409
 21
9.72183
  0
LINE
  8
0
 10
-23.7409
 20
9.72183
 11
-23.7679
 21
9.73782
  0
LINE
  8
0
 10
-23.7679
 20
9.73782
 11
-23.7939
 21
9.75548
  0
LINE
  8
0
 10
-23.7939
 20
9.75548
 11
-23.8187
 21
9.77473
  0
LINE
  8
0
 10
-23.8187
 20
9.77473
 11
-23.8423
 21
9.7955
  0
LINE
  8
0
 10
-23.8423
 20
9.7955
 11
-23.8645
 21
9.81772
  0
LINE
  8
0
 10
-23.8645
 20
9.81772
 11
-23.8853
 21
9.84128
  0
LINE
  8
0
 10
-23.8853
 20
9.84128
 11
-23.9045
 21
9.8661
  0
LINE
  8
0
 10
-23.9045
 20
9.8661
 11
-23.9221
 21
9.89207
  0
LINE
  8
0
 10
-23.9221
 20
9.89207
 11
-23.9381
 21
9.91911
  0
LINE
  8
0
 10
-23.9381
 20
9.91911
 11
-23.9524
 21
9.9471
  0
LINE
  8
0
 10
-23.9524
 20
9.9471
 11
-23.9649
 21
9.97594
  0
LINE
  8
0
 10
-23.9649
 20
9.97594
 11
-23.9755
 21
10.0055
  0
LINE
  8
0
 10
-23.9755
 20
10.0055
 11
-23.9843
 21
10.0356
  0
LINE
  8
0
 10
-23.9843
 20
10.0356
 11
-23.9911
 21
10.0663
  0
LINE
  8
0
 10
-23.9911
 20
10.0663
 11
-23.996
 21
10.0973
  0
LINE
  8
0
 10
-23.996
 20
10.0973
 11
-23.999
 21
10.1286
  0
LINE
  8
0
 10
-23.999
 20
10.1286
 11
-24
 21
10.16
  0
LINE
  8
0
 10
-24
 20
10.16
 11
-23.999
 21
10.1914
  0
LINE
  8
0
 10
-23.999
 20
10.1914
 11
-23.996
 21
10.2227
  0
LINE
  8
0
 10
-23.996
 20
10.2227
 11
-23.9911
 21
10.2537
  0
LINE
  8
0
 10
-23.9911
 20
10.2537
 11
-23.9843
 21
10.2843
  0
LINE
  8
0
 10
-23.9843
 20
10.2843
 11
-23.9755
 21
10.3145
  0
LINE
  8
0
 10
-23.9755
 20
10.3145
 11
-23.9649
 21
10.3441
  0
LINE
  8
0
 10
-23.9649
 20
10.3441
 11
-23.9524
 21
10.3729
  0
LINE
  8
0
 10
-23.9524
 20
10.3729
 11
-23.9381
 21
10.4009
  0
LINE
  8
0
 10
-23.9381
 20
10.4009
 11
-23.9221
 21
10.4279
  0
LINE
  8
0
 10
-23.9221
 20
10.4279
 11
-23.9045
 21
10.4539
  0
LINE
  8
0
 10
-23.9045
 20
10.4539
 11
-23.8853
 21
10.4787
  0
LINE
  8
0
 10
-23.8853
 20
10.4787
 11
-23.8645
 21
10.5023
  0
LINE
  8
0
 10
-23.8645
 20
10.5023
 11
-23.8423
 21
10.5245
  0
LINE
  8
0
 10
-23.8423
 20
10.5245
 11
-23.8187
 21
10.5452
  0
LINE
  8
0
 10
-23.8187
 20
10.5452
 11
-23.7939
 21
10.5645
  0
LINE
  8
0
 10
-23.7939
 20
10.5645
 11
-23.7679
 21
10.5822
  0
LINE
  8
0
 10
-23.7679
 20
10.5822
 11
-23.7409
 21
10.5981
  0
LINE
  8
0
 10
-23.7409
 20
10.5981
 11
-23.7129
 21
10.6124
  0
LINE
  8
0
 10
-23.7129
 20
10.6124
 11
-23.6841
 21
10.6249
  0
LINE
  8
0
 10
-23.6841
 20
10.6249
 11
-23.6545
 21
10.6355
  0
LINE
  8
0
 10
-23.6545
 20
10.6355
 11
-23.6243
 21
10.6443
  0
LINE
  8
0
 10
-23.6243
 20
10.6443
 11
-23.5937
 21
10.6511
  0
LINE
  8
0
 10
-23.5937
 20
10.6511
 11
-23.5627
 21
10.6561
  0
LINE
  8
0
 10
-23.5627
 20
10.6561
 11
-23.5314
 21
10.659
  0
LINE
  8
0
 10
-23.5314
 20
10.659
 11
-23.5
 21
10.66
  0
LINE
  8
0
 10
-23.5
 20
10.66
 11
-23.4686
 21
10.659
  0
LINE
  8
0
 10
-23.4686
 20
10.659
 11
-23.4373
 21
10.6561
  0
LINE
  8
0
 10
-23.4373
 20
10.6561
 11
-23.4063
 21
10.6511
  0
LINE
  8
0
 10
-23.4063
 20
10.6511
 11
-23.3757
 21
10.6443
  0
LINE
  8
0
 10
-23.3757
 20
10.6443
 11
-23.3455
 21
10.6355
  0
LINE
  8
0
 10
-23.3455
 20
10.6355
 11
-23.3159
 21
10.6249
  0
LINE
  8
0
 10
-23.3159
 20
10.6249
 11
-23.2871
 21
10.6124
  0
LINE
  8
0
 10
-23.2871
 20
10.6124
 11
-23.2591
 21
10.5981
  0
LINE
  8
0
 10
-23.2591
 20
10.5981
 11
-23.2321
 21
10.5822
  0
LINE
  8
0
 10
-23.2321
 20
10.5822
 11
-23.2061
 21
10.5645
  0
LINE
  8
0
 10
-23.2061
 20
10.5645
 11
-23.1813
 21
10.5452
  0
LINE
  8
0
 10
-23.1813
 20
10.5452
 11
-23.1577
 21
10.5245
  0
LINE
  8
0
 10
-23.1577
 20
10.5245
 11
-23.1355
 21
10.5023
  0
LINE
  8
0
 10
-23.1355
 20
10.5023
 11
-23.1147
 21
10.4787
  0
LINE
  8
0
 10
-23.1147
 20
10.4787
 11
-23.0955
 21
10.4539
  0
LINE
  8
0
 10
-23.0955
 20
10.4539
 11
-23.0778
 21
10.4279
  0
LINE
  8
0
 10
-23.0778
 20
10.4279
 11
-23.0618
 21
10.4009
  0
LINE
  8
0
 10
-23.0618
 20
10.4009
 11
-23.0476
 21
10.3729
  0
LINE
  8
0
 10
-23.0476
 20
10.3729
 11
-23.0351
 21
10.3441
  0
LINE
  8
0
 10
-23.0351
 20
10.3441
 11
-23.0245
 21
10.3145
  0
LINE
  8
0
 10
-23.0245
 20
10.3145
 11
-23.0157
 21
10.2843
  0
LINE
  8
0
 10
-23.0157
 20
10.2843
 11
-23.0089
 21
10.2537
  0
LINE
  8
0
 10
-23.0089
 20
10.2537
 11
-23.0039
 21
10.2227
  0
LINE
  8
0
 10
-23.0039
 20
10.2227
 11
-23.001
 21
10.1914
  0
LINE
  8
0
 10
-23.001
 20
10.1914
 11
-23
 21
10.16
  0
LINE
  8
0
 10
-23
 20
10.16
 11
-23.001
 21
10.1286
  0
LINE
  8
0
 10
-23.001
 20
10.1286
 11
-23.0039
 21
10.0973
  0
LINE
  8
0
 10
-23.0039
 20
10.0973
 11
-23.0089
 21
10.0663
  0
LINE
  8
0
 10
-23.0089
 20
10.0663
 11
-23.0157
 21
10.0356
  0
LINE
  8
0
 10
-23.0157
 20
10.0356
 11
-23.0245
 21
10.0055
  0
LINE
  8
0
 10
-23.0245
 20
10.0055
 11
-23.0351
 21
9.97594
  0
LINE
  8
0
 10
-23.0351
 20
9.97594
 11
-23.0476
 21
9.9471
  0
LINE
  8
0
 10
-23.0476
 20
9.9471
 11
-23.0618
 21
9.91911
  0
LINE
  8
0
 10
-23.0618
 20
9.91911
 11
-23.0778
 21
9.89207
  0
LINE
  8
0
 10
-23.0778
 20
9.89207
 11
-23.0955
 21
9.8661
  0
LINE
  8
0
 10
-23.0955
 20
9.8661
 11
-23.1147
 21
9.84128
  0
LINE
  8
0
 10
-23.1147
 20
9.84128
 11
-23.1355
 21
9.81772
  0
LINE
  8
0
 10
-23.1355
 20
9.81772
 11
-23.1577
 21
9.7955
  0
LINE
  8
0
 10
-23.1577
 20
9.7955
 11
-23.1813
 21
9.77473
  0
LINE
  8
0
 10
-23.1813
 20
9.77473
 11
-23.2061
 21
9.75548
  0
LINE
  8
0
 10
-23.2061
 20
9.75548
 11
-23.2321
 21
9.73782
  0
LINE
  8
0
 10
-23.2321
 20
9.73782
 11
-23.2591
 21
9.72183
  0
LINE
  8
0
 10
-23.2591
 20
9.72183
 11
-23.2871
 21
9.70758
  0
LINE
  8
0
 10
-23.2871
 20
9.70758
 11
-23.3159
 21
9.6951
  0
LINE
  8
0
 10
-23.3159
 20
9.6951
 11
-23.3455
 21
9.68446
  0
LINE
  8
0
 10
-23.3455
 20
9.68446
 11
-23.3757
 21
9.6757
  0
LINE
  8
0
 10
-23.3757
 20
9.6757
 11
-23.4063
 21
9.66885
  0
LINE
  8
0
 10
-23.4063
 20
9.66885
 11
-23.4373
 21
9.66394
  0
LINE
  8
0
 10
-23.4373
 20
9.66394
 11
-23.4686
 21
9.66098
  0
LINE
  8
0
 10
-23.4686
 20
9.66098
 11
-23.5
 21
9.65999
  0
LINE
  8
0
 10
-23.5
 20
9.65999
 11
-23.5314
 21
9.66098
  0
LINE
  8
0
 10
-23.5314
 20
4.58098
 11
-23.5627
 21
4.58394
  0
LINE
  8
0
 10
-23.5627
 20
4.58394
 11
-23.5937
 21
4.58885
  0
LINE
  8
0
 10
-23.5937
 20
4.58885
 11
-23.6243
 21
4.5957
  0
LINE
  8
0
 10
-23.6243
 20
4.5957
 11
-23.6545
 21
4.60446
  0
LINE
  8
0
 10
-23.6545
 20
4.60446
 11
-23.6841
 21
4.61511
  0
LINE
  8
0
 10
-23.6841
 20
4.61511
 11
-23.7129
 21
4.62758
  0
LINE
  8
0
 10
-23.7129
 20
4.62758
 11
-23.7409
 21
4.64185
  0
LINE
  8
0
 10
-23.7409
 20
4.64185
 11
-23.7679
 21
4.65784
  0
LINE
  8
0
 10
-23.7679
 20
4.65784
 11
-23.7939
 21
4.67549
  0
LINE
  8
0
 10
-23.7939
 20
4.67549
 11
-23.8187
 21
4.69473
  0
LINE
  8
0
 10
-23.8187
 20
4.69473
 11
-23.8423
 21
4.71552
  0
LINE
  8
0
 10
-23.8423
 20
4.71552
 11
-23.8645
 21
4.73772
  0
LINE
  8
0
 10
-23.8645
 20
4.73772
 11
-23.8853
 21
4.76128
  0
LINE
  8
0
 10
-23.8853
 20
4.76128
 11
-23.9045
 21
4.7861
  0
LINE
  8
0
 10
-23.9045
 20
4.7861
 11
-23.9221
 21
4.81207
  0
LINE
  8
0
 10
-23.9221
 20
4.81207
 11
-23.9381
 21
4.83911
  0
LINE
  8
0
 10
-23.9381
 20
4.83911
 11
-23.9524
 21
4.86711
  0
LINE
  8
0
 10
-23.9524
 20
4.86711
 11
-23.9649
 21
4.89594
  0
LINE
  8
0
 10
-23.9649
 20
4.89594
 11
-23.9755
 21
4.92549
  0
LINE
  8
0
 10
-23.9755
 20
4.92549
 11
-23.9843
 21
4.95564
  0
LINE
  8
0
 10
-23.9843
 20
4.95564
 11
-23.9911
 21
4.9863
  0
LINE
  8
0
 10
-23.9911
 20
4.9863
 11
-23.996
 21
5.01733
  0
LINE
  8
0
 10
-23.996
 20
5.01733
 11
-23.999
 21
5.0486
  0
LINE
  8
0
 10
-23.999
 20
5.0486
 11
-24
 21
5.07999
  0
LINE
  8
0
 10
-24
 20
5.07999
 11
-23.999
 21
5.11139
  0
LINE
  8
0
 10
-23.999
 20
5.11139
 11
-23.996
 21
5.14265
  0
LINE
  8
0
 10
-23.996
 20
5.14265
 11
-23.9911
 21
5.17368
  0
LINE
  8
0
 10
-23.9911
 20
5.17368
 11
-23.9843
 21
5.20433
  0
LINE
  8
0
 10
-23.9843
 20
5.20433
 11
-23.9755
 21
5.2345
  0
LINE
  8
0
 10
-23.9755
 20
5.2345
 11
-23.9649
 21
5.26405
  0
LINE
  8
0
 10
-23.9649
 20
5.26405
 11
-23.9524
 21
5.29288
  0
LINE
  8
0
 10
-23.9524
 20
5.29288
 11
-23.9381
 21
5.32086
  0
LINE
  8
0
 10
-23.9381
 20
5.32086
 11
-23.9221
 21
5.3479
  0
LINE
  8
0
 10
-23.9221
 20
5.3479
 11
-23.9045
 21
5.37389
  0
LINE
  8
0
 10
-23.9045
 20
5.37389
 11
-23.8853
 21
5.3987
  0
LINE
  8
0
 10
-23.8853
 20
5.3987
 11
-23.8645
 21
5.42227
  0
LINE
  8
0
 10
-23.8645
 20
5.42227
 11
-23.8423
 21
5.44447
  0
LINE
  8
0
 10
-23.8423
 20
5.44447
 11
-23.8187
 21
5.46526
  0
LINE
  8
0
 10
-23.8187
 20
5.46526
 11
-23.7939
 21
5.4845
  0
LINE
  8
0
 10
-23.7939
 20
5.4845
 11
-23.7679
 21
5.50215
  0
LINE
  8
0
 10
-23.7679
 20
5.50215
 11
-23.7409
 21
5.51814
  0
LINE
  8
0
 10
-23.7409
 20
5.51814
 11
-23.7129
 21
5.53241
  0
LINE
  8
0
 10
-23.7129
 20
5.53241
 11
-23.6841
 21
5.54488
  0
LINE
  8
0
 10
-23.6841
 20
5.54488
 11
-23.6545
 21
5.55553
  0
LINE
  8
0
 10
-23.6545
 20
5.55553
 11
-23.6243
 21
5.56429
  0
LINE
  8
0
 10
-23.6243
 20
5.56429
 11
-23.5937
 21
5.57114
  0
LINE
  8
0
 10
-23.5937
 20
5.57114
 11
-23.5627
 21
5.57605
  0
LINE
  8
0
 10
-23.5627
 20
5.57605
 11
-23.5314
 21
5.57901
  0
LINE
  8
0
 10
-23.5314
 20
5.57901
 11
-23.5
 21
5.57999
  0
LINE
  8
0
 10
-23.5
 20
5.57999
 11
-23.4686
 21
5.57901
  0
LINE
  8
0
 10
-23.4686
 20
5.57901
 11
-23.4373
 21
5.57605
  0
LINE
  8
0
 10
-23.4373
 20
5.57605
 11
-23.4063
 21
5.57114
  0
LINE
  8
0
 10
-23.4063
 20
5.57114
 11
-23.3757
 21
5.56429
  0
LINE
  8
0
 10
-23.3757
 20
5.56429
 11
-23.3455
 21
5.55553
  0
LINE
  8
0
 10
-23.3455
 20
5.55553
 11
-23.3159
 21
5.54488
  0
LINE
  8
0
 10
-23.3159
 20
5.54488
 11
-23.2871
 21
5.53241
  0
LINE
  8
0
 10
-23.2871
 20
5.53241
 11
-23.2591
 21
5.51814
  0
LINE
  8
0
 10
-23.2591
 20
5.51814
 11
-23.2321
 21
5.50215
  0
LINE
  8
0
 10
-23.2321
 20
5.50215
 11
-23.2061
 21
5.4845
  0
LINE
  8
0
 10
-23.2061
 20
5.4845
 11
-23.1813
 21
5.46526
  0
LINE
  8
0
 10
-23.1813
 20
5.46526
 11
-23.1577
 21
5.44447
  0
LINE
  8
0
 10
-23.1577
 20
5.44447
 11
-23.1355
 21
5.42227
  0
LINE
  8
0
 10
-23.1355
 20
5.42227
 11
-23.1147
 21
5.3987
  0
LINE
  8
0
 10
-23.1147
 20
5.3987
 11
-23.0955
 21
5.37389
  0
LINE
  8
0
 10
-23.0955
 20
5.37389
 11
-23.0778
 21
5.3479
  0
LINE
  8
0
 10
-23.0778
 20
5.3479
 11
-23.0618
 21
5.32086
  0
LINE
  8
0
 10
-23.0618
 20
5.32086
 11
-23.0476
 21
5.29288
  0
LINE
  8
0
 10
-23.0476
 20
5.29288
 11
-23.0351
 21
5.26405
  0
LINE
  8
0
 10
-23.0351
 20
5.26405
 11
-23.0245
 21
5.2345
  0
LINE
  8
0
 10
-23.0245
 20
5.2345
 11
-23.0157
 21
5.20433
  0
LINE
  8
0
 10
-23.0157
 20
5.20433
 11
-23.0089
 21
5.17368
  0
LINE
  8
0
 10
-23.0089
 20
5.17368
 11
-23.0039
 21
5.14265
  0
LINE
  8
0
 10
-23.0039
 20
5.14265
 11
-23.001
 21
5.11139
  0
LINE
  8
0
 10
-23.001
 20
5.11139
 11
-23
 21
5.07999
  0
LINE
  8
0
 10
-23
 20
5.07999
 11
-23.001
 21
5.0486
  0
LINE
  8
0
 10
-23.001
 20
5.0486
 11
-23.0039
 21
5.01733
  0
LINE
  8
0
 10
-23.0039
 20
5.01733
 11
-23.0089
 21
4.9863
  0
LINE
  8
0
 10
-23.0089
 20
4.9863
 11
-23.0157
 21
4.95564
  0
LINE
  8
0
 10
-23.0157
 20
4.95564
 11
-23.0245
 21
4.92549
  0
LINE
  8
0
 10
-23.0245
 20
4.92549
 11
-23.0351
 21
4.89594
  0
LINE
  8
0
 10
-23.0351
 20
4.89594
 11
-23.0476
 21
4.86711
  0
LINE
  8
0
 10
-23.0476
 20
4.86711
 11
-23.0618
 21
4.83911
  0
LINE
  8
0
 10
-23.0618
 20
4.83911
 11
-23.0778
 21
4.81207
  0
LINE
  8
0
 10
-23.0778
 20
4.81207
 11
-23.0955
 21
4.7861
  0
LINE
  8
0
 10
-23.0955
 20
4.7861
 11
-23.1147
 21
4.76128
  0
LINE
  8
0
 10
-23.1147
 20
4.76128
 11
-23.1355
 21
4.73772
  0
LINE
  8
0
 10
-23.1355
 20
4.73772
 11
-23.1577
 21
4.71552
  0
LINE
  8
0
 10
-23.1577
 20
4.71552
 11
-23.1813
 21
4.69473
  0
LINE
  8
0
 10
-23.1813
 20
4.69473
 11
-23.2061
 21
4.67549
  0
LINE
  8
0
 10
-23.2061
 20
4.67549
 11
-23.2321
 21
4.65784
  0
LINE
  8
0
 10
-23.2321
 20
4.65784
 11
-23.2591
 21
4.64185
  0
LINE
  8
0
 10
-23.2591
 20
4.64185
 11
-23.2871
 21
4.62758
  0
LINE
  8
0
 10
-23.2871
 20
4.62758
 11
-23.3159
 21
4.61511
  0
LINE
  8
0
 10
-23.3159
 20
4.61511
 11
-23.3455
 21
4.60446
  0
LINE
  8
0
 10
-23.3455
 20
4.60446
 11
-23.3757
 21
4.5957
  0
LINE
  8
0
 10
-23.3757
 20
4.5957
 11
-23.4063
 21
4.58885
  0
LINE
  8
0
 10
-23.4063
 20
4.58885
 11
-23.4373
 21
4.58394
  0
LINE
  8
0
 10
-23.4373
 20
4.58394
 11
-23.4686
 21
4.58098
  0
LINE
  8
0
 10
-23.4686
 20
4.58098
 11
-23.5
 21
4.57999
  0
LINE
  8
0
 10
-23.5
 20
4.57999
 11
-23.5314
 21
4.58098
  0
LINE
  8
0
 10
-23.5314
 20
2.04099
 11
-23.5627
 21
2.04393
  0
LINE
  8
0
 10
-23.5627
 20
2.04393
 11
-23.5937
 21
2.04884
  0
LINE
  8
0
 10
-23.5937
 20
2.04884
 11
-23.6243
 21
2.05569
  0
LINE
  8
0
 10
-23.6243
 20
2.05569
 11
-23.6545
 21
2.06447
  0
LINE
  8
0
 10
-23.6545
 20
2.06447
 11
-23.6841
 21
2.0751
  0
LINE
  8
0
 10
-23.6841
 20
2.0751
 11
-23.7129
 21
2.08759
  0
LINE
  8
0
 10
-23.7129
 20
2.08759
 11
-23.7409
 21
2.10184
  0
LINE
  8
0
 10
-23.7409
 20
2.10184
 11
-23.7679
 21
2.11783
  0
LINE
  8
0
 10
-23.7679
 20
2.11783
 11
-23.7939
 21
2.13548
  0
LINE
  8
0
 10
-23.7939
 20
2.13548
 11
-23.8187
 21
2.15474
  0
LINE
  8
0
 10
-23.8187
 20
2.15474
 11
-23.8423
 21
2.17551
  0
LINE
  8
0
 10
-23.8423
 20
2.17551
 11
-23.8645
 21
2.19772
  0
LINE
  8
0
 10
-23.8645
 20
2.19772
 11
-23.8853
 21
2.22128
  0
LINE
  8
0
 10
-23.8853
 20
2.22128
 11
-23.9045
 21
2.24609
  0
LINE
  8
0
 10
-23.9045
 20
2.24609
 11
-23.9221
 21
2.27208
  0
LINE
  8
0
 10
-23.9221
 20
2.27208
 11
-23.9381
 21
2.29912
  0
LINE
  8
0
 10
-23.9381
 20
2.29912
 11
-23.9524
 21
2.3271
  0
LINE
  8
0
 10
-23.9524
 20
2.3271
 11
-23.9649
 21
2.35593
  0
LINE
  8
0
 10
-23.9649
 20
2.35593
 11
-23.9755
 21
2.38548
  0
LINE
  8
0
 10
-23.9755
 20
2.38548
 11
-23.9843
 21
2.41565
  0
LINE
  8
0
 10
-23.9843
 20
2.41565
 11
-23.9911
 21
2.4463
  0
LINE
  8
0
 10
-23.9911
 20
2.4463
 11
-23.996
 21
2.47733
  0
LINE
  8
0
 10
-23.996
 20
2.47733
 11
-23.999
 21
2.50859
  0
LINE
  8
0
 10
-23.999
 20
2.50859
 11
-24
 21
2.53999
  0
LINE
  8
0
 10
-24
 20
2.53999
 11
-23.999
 21
2.5714
  0
LINE
  8
0
 10
-23.999
 20
2.5714
 11
-23.996
 21
2.60266
  0
LINE
  8
0
 10
-23.996
 20
2.60266
 11
-23.9911
 21
2.63368
  0
LINE
  8
0
 10
-23.9911
 20
2.63368
 11
-23.9843
 21
2.66434
  0
LINE
  8
0
 10
-23.9843
 20
2.66434
 11
-23.9755
 21
2.6945
  0
LINE
  8
0
 10
-23.9755
 20
2.6945
 11
-23.9649
 21
2.72406
  0
LINE
  8
0
 10
-23.9649
 20
2.72406
 11
-23.9524
 21
2.75288
  0
LINE
  8
0
 10
-23.9524
 20
2.75288
 11
-23.9381
 21
2.78087
  0
LINE
  8
0
 10
-23.9381
 20
2.78087
 11
-23.9221
 21
2.80791
  0
LINE
  8
0
 10
-23.9221
 20
2.80791
 11
-23.9045
 21
2.83389
  0
LINE
  8
0
 10
-23.9045
 20
2.83389
 11
-23.8853
 21
2.8587
  0
LINE
  8
0
 10
-23.8853
 20
2.8587
 11
-23.8645
 21
2.88226
  0
LINE
  8
0
 10
-23.8645
 20
2.88226
 11
-23.8423
 21
2.90448
  0
LINE
  8
0
 10
-23.8423
 20
2.90448
 11
-23.8187
 21
2.92525
  0
LINE
  8
0
 10
-23.8187
 20
2.92525
 11
-23.7939
 21
2.9445
  0
LINE
  8
0
 10
-23.7939
 20
2.9445
 11
-23.7679
 21
2.96216
  0
LINE
  8
0
 10
-23.7679
 20
2.96216
 11
-23.7409
 21
2.97815
  0
LINE
  8
0
 10
-23.7409
 20
2.97815
 11
-23.7129
 21
2.9924
  0
LINE
  8
0
 10
-23.7129
 20
2.9924
 11
-23.6841
 21
3.00488
  0
LINE
  8
0
 10
-23.6841
 20
3.00488
 11
-23.6545
 21
3.01552
  0
LINE
  8
0
 10
-23.6545
 20
3.01552
 11
-23.6243
 21
3.02429
  0
LINE
  8
0
 10
-23.6243
 20
3.02429
 11
-23.5937
 21
3.03114
  0
LINE
  8
0
 10
-23.5937
 20
3.03114
 11
-23.5627
 21
3.03606
  0
LINE
  8
0
 10
-23.5627
 20
3.03606
 11
-23.5314
 21
3.039
  0
LINE
  8
0
 10
-23.5314
 20
3.039
 11
-23.5
 21
3.03999
  0
LINE
  8
0
 10
-23.5
 20
3.03999
 11
-23.4686
 21
3.039
  0
LINE
  8
0
 10
-23.4686
 20
3.039
 11
-23.4373
 21
3.03606
  0
LINE
  8
0
 10
-23.4373
 20
3.03606
 11
-23.4063
 21
3.03114
  0
LINE
  8
0
 10
-23.4063
 20
3.03114
 11
-23.3757
 21
3.02429
  0
LINE
  8
0
 10
-23.3757
 20
3.02429
 11
-23.3455
 21
3.01552
  0
LINE
  8
0
 10
-23.3455
 20
3.01552
 11
-23.3159
 21
3.00488
  0
LINE
  8
0
 10
-23.3159
 20
3.00488
 11
-23.2871
 21
2.9924
  0
LINE
  8
0
 10
-23.2871
 20
2.9924
 11
-23.2591
 21
2.97815
  0
LINE
  8
0
 10
-23.2591
 20
2.97815
 11
-23.2321
 21
2.96216
  0
LINE
  8
0
 10
-23.2321
 20
2.96216
 11
-23.2061
 21
2.9445
  0
LINE
  8
0
 10
-23.2061
 20
2.9445
 11
-23.1813
 21
2.92525
  0
LINE
  8
0
 10
-23.1813
 20
2.92525
 11
-23.1577
 21
2.90448
  0
LINE
  8
0
 10
-23.1577
 20
2.90448
 11
-23.1355
 21
2.88226
  0
LINE
  8
0
 10
-23.1355
 20
2.88226
 11
-23.1147
 21
2.8587
  0
LINE
  8
0
 10
-23.1147
 20
2.8587
 11
-23.0955
 21
2.83389
  0
LINE
  8
0
 10
-23.0955
 20
2.83389
 11
-23.0778
 21
2.80791
  0
LINE
  8
0
 10
-23.0778
 20
2.80791
 11
-23.0618
 21
2.78087
  0
LINE
  8
0
 10
-23.0618
 20
2.78087
 11
-23.0476
 21
2.75288
  0
LINE
  8
0
 10
-23.0476
 20
2.75288
 11
-23.0351
 21
2.72406
  0
LINE
  8
0
 10
-23.0351
 20
2.72406
 11
-23.0245
 21
2.6945
  0
LINE
  8
0
 10
-23.0245
 20
2.6945
 11
-23.0157
 21
2.66434
  0
LINE
  8
0
 10
-23.0157
 20
2.66434
 11
-23.0089
 21
2.63368
  0
LINE
  8
0
 10
-23.0089
 20
2.63368
 11
-23.0039
 21
2.60266
  0
LINE
  8
0
 10
-23.0039
 20
2.60266
 11
-23.001
 21
2.5714
  0
LINE
  8
0
 10
-23.001
 20
2.5714
 11
-23
 21
2.53999
  0
LINE
  8
0
 10
-23
 20
2.53999
 11
-23.001
 21
2.50859
  0
LINE
  8
0
 10
-23.001
 20
2.50859
 11
-23.0039
 21
2.47733
  0
LINE
  8
0
 10
-23.0039
 20
2.47733
 11
-23.0089
 21
2.4463
  0
LINE
  8
0
 10
-23.0089
 20
2.4463
 11
-23.0157
 21
2.41565
  0
LINE
  8
0
 10
-23.0157
 20
2.41565
 11
-23.0245
 21
2.38548
  0
LINE
  8
0
 10
-23.0245
 20
2.38548
 11
-23.0351
 21
2.35593
  0
LINE
  8
0
 10
-23.0351
 20
2.35593
 11
-23.0476
 21
2.3271
  0
LINE
  8
0
 10
-23.0476
 20
2.3271
 11
-23.0618
 21
2.29912
  0
LINE
  8
0
 10
-23.0618
 20
2.29912
 11
-23.0778
 21
2.27208
  0
LINE
  8
0
 10
-23.0778
 20
2.27208
 11
-23.0955
 21
2.24609
  0
LINE
  8
0
 10
-23.0955
 20
2.24609
 11
-23.1147
 21
2.22128
  0
LINE
  8
0
 10
-23.1147
 20
2.22128
 11
-23.1355
 21
2.19772
  0
LINE
  8
0
 10
-23.1355
 20
2.19772
 11
-23.1577
 21
2.17551
  0
LINE
  8
0
 10
-23.1577
 20
2.17551
 11
-23.1813
 21
2.15474
  0
LINE
  8
0
 10
-23.1813
 20
2.15474
 11
-23.2061
 21
2.13548
  0
LINE
  8
0
 10
-23.2061
 20
2.13548
 11
-23.2321
 21
2.11783
  0
LINE
  8
0
 10
-23.2321
 20
2.11783
 11
-23.2591
 21
2.10184
  0
LINE
  8
0
 10
-23.2591
 20
2.10184
 11
-23.2871
 21
2.08759
  0
LINE
  8
0
 10
-23.2871
 20
2.08759
 11
-23.3159
 21
2.0751
  0
LINE
  8
0
 10
-23.3159
 20
2.0751
 11
-23.3455
 21
2.06447
  0
LINE
  8
0
 10
-23.3455
 20
2.06447
 11
-23.3757
 21
2.05569
  0
LINE
  8
0
 10
-23.3757
 20
2.05569
 11
-23.4063
 21
2.04884
  0
LINE
  8
0
 10
-23.4063
 20
2.04884
 11
-23.4373
 21
2.04393
  0
LINE
  8
0
 10
-23.4373
 20
2.04393
 11
-23.4686
 21
2.04099
  0
LINE
  8
0
 10
-23.4686
 20
2.04099
 11
-23.5
 21
2.03999
  0
LINE
  8
0
 10
-23.5
 20
2.03999
 11
-23.5314
 21
2.04099
  0
LINE
  8
0
 10
-23.5314
 20
-3.039
 11
-23.5627
 21
-3.03606
  0
LINE
  8
0
 10
-23.5627
 20
-3.03606
 11
-23.5937
 21
-3.03114
  0
LINE
  8
0
 10
-23.5937
 20
-3.03114
 11
-23.6243
 21
-3.02428
  0
LINE
  8
0
 10
-23.6243
 20
-3.02428
 11
-23.6545
 21
-3.01552
  0
LINE
  8
0
 10
-23.6545
 20
-3.01552
 11
-23.6841
 21
-3.00488
  0
LINE
  8
0
 10
-23.6841
 20
-3.00488
 11
-23.7129
 21
-2.9924
  0
LINE
  8
0
 10
-23.7129
 20
-2.9924
 11
-23.7409
 21
-2.97815
  0
LINE
  8
0
 10
-23.7409
 20
-2.97815
 11
-23.7679
 21
-2.96216
  0
LINE
  8
0
 10
-23.7679
 20
-2.96216
 11
-23.7939
 21
-2.9445
  0
LINE
  8
0
 10
-23.7939
 20
-2.9445
 11
-23.8187
 21
-2.92525
  0
LINE
  8
0
 10
-23.8187
 20
-2.92525
 11
-23.8423
 21
-2.90448
  0
LINE
  8
0
 10
-23.8423
 20
-2.90448
 11
-23.8645
 21
-2.88226
  0
LINE
  8
0
 10
-23.8645
 20
-2.88226
 11
-23.8853
 21
-2.8587
  0
LINE
  8
0
 10
-23.8853
 20
-2.8587
 11
-23.9045
 21
-2.83388
  0
LINE
  8
0
 10
-23.9045
 20
-2.83388
 11
-23.9221
 21
-2.80791
  0
LINE
  8
0
 10
-23.9221
 20
-2.80791
 11
-23.9381
 21
-2.78087
  0
LINE
  8
0
 10
-23.9381
 20
-2.78087
 11
-23.9524
 21
-2.75288
  0
LINE
  8
0
 10
-23.9524
 20
-2.75288
 11
-23.9649
 21
-2.72406
  0
LINE
  8
0
 10
-23.9649
 20
-2.72406
 11
-23.9755
 21
-2.6945
  0
LINE
  8
0
 10
-23.9755
 20
-2.6945
 11
-23.9843
 21
-2.66434
  0
LINE
  8
0
 10
-23.9843
 20
-2.66434
 11
-23.9911
 21
-2.63368
  0
LINE
  8
0
 10
-23.9911
 20
-2.63368
 11
-23.996
 21
-2.60266
  0
LINE
  8
0
 10
-23.996
 20
-2.60266
 11
-23.999
 21
-2.57138
  0
LINE
  8
0
 10
-23.999
 20
-2.57138
 11
-24
 21
-2.53999
  0
LINE
  8
0
 10
-24
 20
-2.53999
 11
-23.999
 21
-2.50859
  0
LINE
  8
0
 10
-23.999
 20
-2.50859
 11
-23.996
 21
-2.47733
  0
LINE
  8
0
 10
-23.996
 20
-2.47733
 11
-23.9911
 21
-2.4463
  0
LINE
  8
0
 10
-23.9911
 20
-2.4463
 11
-23.9843
 21
-2.41565
  0
LINE
  8
0
 10
-23.9843
 20
-2.41565
 11
-23.9755
 21
-2.38548
  0
LINE
  8
0
 10
-23.9755
 20
-2.38548
 11
-23.9649
 21
-2.35593
  0
LINE
  8
0
 10
-23.9649
 20
-2.35593
 11
-23.9524
 21
-2.3271
  0
LINE
  8
0
 10
-23.9524
 20
-2.3271
 11
-23.9381
 21
-2.29912
  0
LINE
  8
0
 10
-23.9381
 20
-2.29912
 11
-23.9221
 21
-2.27208
  0
LINE
  8
0
 10
-23.9221
 20
-2.27208
 11
-23.9045
 21
-2.24609
  0
LINE
  8
0
 10
-23.9045
 20
-2.24609
 11
-23.8853
 21
-2.22128
  0
LINE
  8
0
 10
-23.8853
 20
-2.22128
 11
-23.8645
 21
-2.19772
  0
LINE
  8
0
 10
-23.8645
 20
-2.19772
 11
-23.8423
 21
-2.17551
  0
LINE
  8
0
 10
-23.8423
 20
-2.17551
 11
-23.8187
 21
-2.15474
  0
LINE
  8
0
 10
-23.8187
 20
-2.15474
 11
-23.7939
 21
-2.13548
  0
LINE
  8
0
 10
-23.7939
 20
-2.13548
 11
-23.7679
 21
-2.11783
  0
LINE
  8
0
 10
-23.7679
 20
-2.11783
 11
-23.7409
 21
-2.10184
  0
LINE
  8
0
 10
-23.7409
 20
-2.10184
 11
-23.7129
 21
-2.08759
  0
LINE
  8
0
 10
-23.7129
 20
-2.08759
 11
-23.6841
 21
-2.0751
  0
LINE
  8
0
 10
-23.6841
 20
-2.0751
 11
-23.6545
 21
-2.06447
  0
LINE
  8
0
 10
-23.6545
 20
-2.06447
 11
-23.6243
 21
-2.05569
  0
LINE
  8
0
 10
-23.6243
 20
-2.05569
 11
-23.5937
 21
-2.04884
  0
LINE
  8
0
 10
-23.5937
 20
-2.04884
 11
-23.5627
 21
-2.04393
  0
LINE
  8
0
 10
-23.5627
 20
-2.04393
 11
-23.5314
 21
-2.04099
  0
LINE
  8
0
 10
-23.5314
 20
-2.04099
 11
-23.5
 21
-2.03999
  0
LINE
  8
0
 10
-23.5
 20
-2.03999
 11
-23.4686
 21
-2.04099
  0
LINE
  8
0
 10
-23.4686
 20
-2.04099
 11
-23.4373
 21
-2.04393
  0
LINE
  8
0
 10
-23.4373
 20
-2.04393
 11
-23.4063
 21
-2.04884
  0
LINE
  8
0
 10
-23.4063
 20
-2.04884
 11
-23.3757
 21
-2.05569
  0
LINE
  8
0
 10
-23.3757
 20
-2.05569
 11
-23.3455
 21
-2.06447
  0
LINE
  8
0
 10
-23.3455
 20
-2.06447
 11
-23.3159
 21
-2.0751
  0
LINE
  8
0
 10
-23.3159
 20
-2.0751
 11
-23.2871
 21
-2.08759
  0
LINE
  8
0
 10
-23.2871
 20
-2.08759
 11
-23.2591
 21
-2.10184
  0
LINE
  8
0
 10
-23.2591
 20
-2.10184
 11
-23.2321
 21
-2.11783
  0
LINE
  8
0
 10
-23.2321
 20
-2.11783
 11
-23.2061
 21
-2.13548
  0
LINE
  8
0
 10
-23.2061
 20
-2.13548
 11
-23.1813
 21
-2.15474
  0
LINE
  8
0
 10
-23.1813
 20
-2.15474
 11
-23.1577
 21
-2.17551
  0
LINE
  8
0
 10
-23.1577
 20
-2.17551
 11
-23.1355
 21
-2.19772
  0
LINE
  8
0
 10
-23.1355
 20
-2.19772
 11
-23.1147
 21
-2.22128
  0
LINE
  8
0
 10
-23.1147
 20
-2.22128
 11
-23.0955
 21
-2.24609
  0
LINE
  8
0
 10
-23.0955
 20
-2.24609
 11
-23.0778
 21
-2.27208
  0
LINE
  8
0
 10
-23.0778
 20
-2.27208
 11
-23.0618
 21
-2.29912
  0
LINE
  8
0
 10
-23.0618
 20
-2.29912
 11
-23.0476
 21
-2.3271
  0
LINE
  8
0
 10
-23.0476
 20
-2.3271
 11
-23.0351
 21
-2.35593
  0
LINE
  8
0
 10
-23.0351
 20
-2.35593
 11
-23.0245
 21
-2.38548
  0
LINE
  8
0
 10
-23.0245
 20
-2.38548
 11
-23.0157
 21
-2.41565
  0
LINE
  8
0
 10
-23.0157
 20
-2.41565
 11
-23.0089
 21
-2.4463
  0
LINE
  8
0
 10
-23.0089
 20
-2.4463
 11
-23.0039
 21
-2.47733
  0
LINE
  8
0
 10
-23.0039
 20
-2.47733
 11
-23.001
 21
-2.50859
  0
LINE
  8
0
 10
-23.001
 20
-2.50859
 11
-23
 21
-2.53999
  0
LINE
  8
0
 10
-23
 20
-2.53999
 11
-23.001
 21
-2.57138
  0
LINE
  8
0
 10
-23.001
 20
-2.57138
 11
-23.0039
 21
-2.60266
  0
LINE
  8
0
 10
-23.0039
 20
-2.60266
 11
-23.0089
 21
-2.63368
  0
LINE
  8
0
 10
-23.0089
 20
-2.63368
 11
-23.0157
 21
-2.66434
  0
LINE
  8
0
 10
-23.0157
 20
-2.66434
 11
-23.0245
 21
-2.6945
  0
LINE
  8
0
 10
-23.0245
 20
-2.6945
 11
-23.0351
 21
-2.72406
  0
LINE
  8
0
 10
-23.0351
 20
-2.72406
 11
-23.0476
 21
-2.75288
  0
LINE
  8
0
 10
-23.0476
 20
-2.75288
 11
-23.0618
 21
-2.78087
  0
LINE
  8
0
 10
-23.0618
 20
-2.78087
 11
-23.0778
 21
-2.80791
  0
LINE
  8
0
 10
-23.0778
 20
-2.80791
 11
-23.0955
 21
-2.83388
  0
LINE
  8
0
 10
-23.0955
 20
-2.83388
 11
-23.1147
 21
-2.8587
  0
LINE
  8
0
 10
-23.1147
 20
-2.8587
 11
-23.1355
 21
-2.88226
  0
LINE
  8
0
 10
-23.1355
 20
-2.88226
 11
-23.1577
 21
-2.90448
  0
LINE
  8
0
 10
-23.1577
 20
-2.90448
 11
-23.1813
 21
-2.92525
  0
LINE
  8
0
 10
-23.1813
 20
-2.92525
 11
-23.2061
 21
-2.9445
  0
LINE
  8
0
 10
-23.2061
 20
-2.9445
 11
-23.2321
 21
-2.96216
  0
LINE
  8
0
 10
-23.2321
 20
-2.96216
 11
-23.2591
 21
-2.97815
  0
LINE
  8
0
 10
-23.2591
 20
-2.97815
 11
-23.2871
 21
-2.9924
  0
LINE
  8
0
 10
-23.2871
 20
-2.9924
 11
-23.3159
 21
-3.00488
  0
LINE
  8
0
 10
-23.3159
 20
-3.00488
 11
-23.3455
 21
-3.01552
  0
LINE
  8
0
 10
-23.3455
 20
-3.01552
 11
-23.3757
 21
-3.02428
  0
LINE
  8
0
 10
-23.3757
 20
-3.02428
 11
-23.4063
 21
-3.03114
  0
LINE
  8
0
 10
-23.4063
 20
-3.03114
 11
-23.4373
 21
-3.03606
  0
LINE
  8
0
 10
-23.4373
 20
-3.03606
 11
-23.4686
 21
-3.039
  0
LINE
  8
0
 10
-23.4686
 20
-3.039
 11
-23.5
 21
-3.03999
  0
LINE
  8
0
 10
-23.5
 20
-3.03999
 11
-23.5314
 21
-3.039
  0
LINE
  8
0
 10
-23.5314
 20
-5.57901
 11
-23.5627
 21
-5.57605
  0
LINE
  8
0
 10
-23.5627
 20
-5.57605
 11
-23.5937
 21
-5.57114
  0
LINE
  8
0
 10
-23.5937
 20
-5.57114
 11
-23.6243
 21
-5.56429
  0
LINE
  8
0
 10
-23.6243
 20
-5.56429
 11
-23.6545
 21
-5.55553
  0
LINE
  8
0
 10
-23.6545
 20
-5.55553
 11
-23.6841
 21
-5.54488
  0
LINE
  8
0
 10
-23.6841
 20
-5.54488
 11
-23.7129
 21
-5.53241
  0
LINE
  8
0
 10
-23.7129
 20
-5.53241
 11
-23.7409
 21
-5.51814
  0
LINE
  8
0
 10
-23.7409
 20
-5.51814
 11
-23.7679
 21
-5.50215
  0
LINE
  8
0
 10
-23.7679
 20
-5.50215
 11
-23.7939
 21
-5.4845
  0
LINE
  8
0
 10
-23.7939
 20
-5.4845
 11
-23.8187
 21
-5.46526
  0
LINE
  8
0
 10
-23.8187
 20
-5.46526
 11
-23.8423
 21
-5.44447
  0
LINE
  8
0
 10
-23.8423
 20
-5.44447
 11
-23.8645
 21
-5.42227
  0
LINE
  8
0
 10
-23.8645
 20
-5.42227
 11
-23.8853
 21
-5.3987
  0
LINE
  8
0
 10
-23.8853
 20
-5.3987
 11
-23.9045
 21
-5.37389
  0
LINE
  8
0
 10
-23.9045
 20
-5.37389
 11
-23.9221
 21
-5.3479
  0
LINE
  8
0
 10
-23.9221
 20
-5.3479
 11
-23.9381
 21
-5.32086
  0
LINE
  8
0
 10
-23.9381
 20
-5.32086
 11
-23.9524
 21
-5.29288
  0
LINE
  8
0
 10
-23.9524
 20
-5.29288
 11
-23.9649
 21
-5.26405
  0
LINE
  8
0
 10
-23.9649
 20
-5.26405
 11
-23.9755
 21
-5.2345
  0
LINE
  8
0
 10
-23.9755
 20
-5.2345
 11
-23.9843
 21
-5.20433
  0
LINE
  8
0
 10
-23.9843
 20
-5.20433
 11
-23.9911
 21
-5.17368
  0
LINE
  8
0
 10
-23.9911
 20
-5.17368
 11
-23.996
 21
-5.14265
  0
LINE
  8
0
 10
-23.996
 20
-5.14265
 11
-23.999
 21
-5.11139
  0
LINE
  8
0
 10
-23.999
 20
-5.11139
 11
-24
 21
-5.07999
  0
LINE
  8
0
 10
-24
 20
-5.07999
 11
-23.999
 21
-5.0486
  0
LINE
  8
0
 10
-23.999
 20
-5.0486
 11
-23.996
 21
-5.01732
  0
LINE
  8
0
 10
-23.996
 20
-5.01732
 11
-23.9911
 21
-4.9863
  0
LINE
  8
0
 10
-23.9911
 20
-4.9863
 11
-23.9843
 21
-4.95564
  0
LINE
  8
0
 10
-23.9843
 20
-4.95564
 11
-23.9755
 21
-4.92549
  0
LINE
  8
0
 10
-23.9755
 20
-4.92549
 11
-23.9649
 21
-4.89594
  0
LINE
  8
0
 10
-23.9649
 20
-4.89594
 11
-23.9524
 21
-4.8671
  0
LINE
  8
0
 10
-23.9524
 20
-4.8671
 11
-23.9381
 21
-4.83911
  0
LINE
  8
0
 10
-23.9381
 20
-4.83911
 11
-23.9221
 21
-4.81207
  0
LINE
  8
0
 10
-23.9221
 20
-4.81207
 11
-23.9045
 21
-4.7861
  0
LINE
  8
0
 10
-23.9045
 20
-4.7861
 11
-23.8853
 21
-4.76128
  0
LINE
  8
0
 10
-23.8853
 20
-4.76128
 11
-23.8645
 21
-4.73772
  0
LINE
  8
0
 10
-23.8645
 20
-4.73772
 11
-23.8423
 21
-4.71552
  0
LINE
  8
0
 10
-23.8423
 20
-4.71552
 11
-23.8187
 21
-4.69473
  0
LINE
  8
0
 10
-23.8187
 20
-4.69473
 11
-23.7939
 21
-4.67549
  0
LINE
  8
0
 10
-23.7939
 20
-4.67549
 11
-23.7679
 21
-4.65782
  0
LINE
  8
0
 10
-23.7679
 20
-4.65782
 11
-23.7409
 21
-4.64185
  0
LINE
  8
0
 10
-23.7409
 20
-4.64185
 11
-23.7129
 21
-4.62758
  0
LINE
  8
0
 10
-23.7129
 20
-4.62758
 11
-23.6841
 21
-4.6151
  0
LINE
  8
0
 10
-23.6841
 20
-4.6151
 11
-23.6545
 21
-4.60446
  0
LINE
  8
0
 10
-23.6545
 20
-4.60446
 11
-23.6243
 21
-4.5957
  0
LINE
  8
0
 10
-23.6243
 20
-4.5957
 11
-23.5937
 21
-4.58885
  0
LINE
  8
0
 10
-23.5937
 20
-4.58885
 11
-23.5627
 21
-4.58394
  0
LINE
  8
0
 10
-23.5627
 20
-4.58394
 11
-23.5314
 21
-4.58098
  0
LINE
  8
0
 10
-23.5314
 20
-4.58098
 11
-23.5
 21
-4.57999
  0
LINE
  8
0
 10
-23.5
 20
-4.57999
 11
-23.4686
 21
-4.58098
  0
LINE
  8
0
 10
-23.4686
 20
-4.58098
 11
-23.4373
 21
-4.58394
  0
LINE
  8
0
 10
-23.4373
 20
-4.58394
 11
-23.4063
 21
-4.58885
  0
LINE
  8
0
 10
-23.4063
 20
-4.58885
 11
-23.3757
 21
-4.5957
  0
LINE
  8
0
 10
-23.3757
 20
-4.5957
 11
-23.3455
 21
-4.60446
  0
LINE
  8
0
 10
-23.3455
 20
-4.60446
 11
-23.3159
 21
-4.6151
  0
LINE
  8
0
 10
-23.3159
 20
-4.6151
 11
-23.2871
 21
-4.62758
  0
LINE
  8
0
 10
-23.2871
 20
-4.62758
 11
-23.2591
 21
-4.64185
  0
LINE
  8
0
 10
-23.2591
 20
-4.64185
 11
-23.2321
 21
-4.65782
  0
LINE
  8
0
 10
-23.2321
 20
-4.65782
 11
-23.2061
 21
-4.67549
  0
LINE
  8
0
 10
-23.2061
 20
-4.67549
 11
-23.1813
 21
-4.69473
  0
LINE
  8
0
 10
-23.1813
 20
-4.69473
 11
-23.1577
 21
-4.71552
  0
LINE
  8
0
 10
-23.1577
 20
-4.71552
 11
-23.1355
 21
-4.73772
  0
LINE
  8
0
 10
-23.1355
 20
-4.73772
 11
-23.1147
 21
-4.76128
  0
LINE
  8
0
 10
-23.1147
 20
-4.76128
 11
-23.0955
 21
-4.7861
  0
LINE
  8
0
 10
-23.0955
 20
-4.7861
 11
-23.0778
 21
-4.81207
  0
LINE
  8
0
 10
-23.0778
 20
-4.81207
 11
-23.0618
 21
-4.83911
  0
LINE
  8
0
 10
-23.0618
 20
-4.83911
 11
-23.0476
 21
-4.8671
  0
LINE
  8
0
 10
-23.0476
 20
-4.8671
 11
-23.0351
 21
-4.89594
  0
LINE
  8
0
 10
-23.0351
 20
-4.89594
 11
-23.0245
 21
-4.92549
  0
LINE
  8
0
 10
-23.0245
 20
-4.92549
 11
-23.0157
 21
-4.95564
  0
LINE
  8
0
 10
-23.0157
 20
-4.95564
 11
-23.0089
 21
-4.9863
  0
LINE
  8
0
 10
-23.0089
 20
-4.9863
 11
-23.0039
 21
-5.01732
  0
LINE
  8
0
 10
-23.0039
 20
-5.01732
 11
-23.001
 21
-5.0486
  0
LINE
  8
0
 10
-23.001
 20
-5.0486
 11
-23
 21
-5.07999
  0
LINE
  8
0
 10
-23
 20
-5.07999
 11
-23.001
 21
-5.11139
  0
LINE
  8
0
 10
-23.001
 20
-5.11139
 11
-23.0039
 21
-5.14265
  0
LINE
  8
0
 10
-23.0039
 20
-5.14265
 11
-23.0089
 21
-5.17368
  0
LINE
  8
0
 10
-23.0089
 20
-5.17368
 11
-23.0157
 21
-5.20433
  0
LINE
  8
0
 10
-23.0157
 20
-5.20433
 11
-23.0245
 21
-5.2345
  0
LINE
  8
0
 10
-23.0245
 20
-5.2345
 11
-23.0351
 21
-5.26405
  0
LINE
  8
0
 10
-23.0351
 20
-5.26405
 11
-23.0476
 21
-5.29288
  0
LINE
  8
0
 10
-23.0476
 20
-5.29288
 11
-23.0618
 21
-5.32086
  0
LINE
  8
0
 10
-23.0618
 20
-5.32086
 11
-23.0778
 21
-5.3479
  0
LINE
  8
0
 10
-23.0778
 20
-5.3479
 11
-23.0955
 21
-5.37389
  0
LINE
  8
0
 10
-23.0955
 20
-5.37389
 11
-23.1147
 21
-5.3987
  0
LINE
  8
0
 10
-23.1147
 20
-5.3987
 11
-23.1355
 21
-5.42227
  0
LINE
  8
0
 10
-23.1355
 20
-5.42227
 11
-23.1577
 21
-5.44447
  0
LINE
  8
0
 10
-23.1577
 20
-5.44447
 11
-23.1813
 21
-5.46526
  0
LINE
  8
0
 10
-23.1813
 20
-5.46526
 11
-23.2061
 21
-5.4845
  0
LINE
  8
0
 10
-23.2061
 20
-5.4845
 11
-23.2321
 21
-5.50215
  0
LINE
  8
0
 10
-23.2321
 20
-5.50215
 11
-23.2591
 21
-5.51814
  0
LINE
  8
0
 10
-23.2591
 20
-5.51814
 11
-23.2871
 21
-5.53241
  0
LINE
  8
0
 10
-23.2871
 20
-5.53241
 11
-23.3159
 21
-5.54488
  0
LINE
  8
0
 10
-23.3159
 20
-5.54488
 11
-23.3455
 21
-5.55553
  0
LINE
  8
0
 10
-23.3455
 20
-5.55553
 11
-23.3757
 21
-5.56429
  0
LINE
  8
0
 10
-23.3757
 20
-5.56429
 11
-23.4063
 21
-5.57114
  0
LINE
  8
0
 10
-23.4063
 20
-5.57114
 11
-23.4373
 21
-5.57605
  0
LINE
  8
0
 10
-23.4373
 20
-5.57605
 11
-23.4686
 21
-5.57901
  0
LINE
  8
0
 10
-23.4686
 20
-5.57901
 11
-23.5
 21
-5.57999
  0
LINE
  8
0
 10
-23.5
 20
-5.57999
 11
-23.5314
 21
-5.57901
  0
LINE
  8
0
 10
-23.5314
 20
-10.659
 11
-23.5627
 21
-10.6561
  0
LINE
  8
0
 10
-23.5627
 20
-10.6561
 11
-23.5937
 21
-10.6511
  0
LINE
  8
0
 10
-23.5937
 20
-10.6511
 11
-23.6243
 21
-10.6443
  0
LINE
  8
0
 10
-23.6243
 20
-10.6443
 11
-23.6545
 21
-10.6355
  0
LINE
  8
0
 10
-23.6545
 20
-10.6355
 11
-23.6841
 21
-10.6249
  0
LINE
  8
0
 10
-23.6841
 20
-10.6249
 11
-23.7129
 21
-10.6124
  0
LINE
  8
0
 10
-23.7129
 20
-10.6124
 11
-23.7409
 21
-10.5981
  0
LINE
  8
0
 10
-23.7409
 20
-10.5981
 11
-23.7679
 21
-10.5822
  0
LINE
  8
0
 10
-23.7679
 20
-10.5822
 11
-23.7939
 21
-10.5645
  0
LINE
  8
0
 10
-23.7939
 20
-10.5645
 11
-23.8187
 21
-10.5452
  0
LINE
  8
0
 10
-23.8187
 20
-10.5452
 11
-23.8423
 21
-10.5245
  0
LINE
  8
0
 10
-23.8423
 20
-10.5245
 11
-23.8645
 21
-10.5023
  0
LINE
  8
0
 10
-23.8645
 20
-10.5023
 11
-23.8853
 21
-10.4787
  0
LINE
  8
0
 10
-23.8853
 20
-10.4787
 11
-23.9045
 21
-10.4539
  0
LINE
  8
0
 10
-23.9045
 20
-10.4539
 11
-23.9221
 21
-10.4279
  0
LINE
  8
0
 10
-23.9221
 20
-10.4279
 11
-23.9381
 21
-10.4009
  0
LINE
  8
0
 10
-23.9381
 20
-10.4009
 11
-23.9524
 21
-10.3729
  0
LINE
  8
0
 10
-23.9524
 20
-10.3729
 11
-23.9649
 21
-10.3441
  0
LINE
  8
0
 10
-23.9649
 20
-10.3441
 11
-23.9755
 21
-10.3145
  0
LINE
  8
0
 10
-23.9755
 20
-10.3145
 11
-23.9843
 21
-10.2843
  0
LINE
  8
0
 10
-23.9843
 20
-10.2843
 11
-23.9911
 21
-10.2537
  0
LINE
  8
0
 10
-23.9911
 20
-10.2537
 11
-23.996
 21
-10.2227
  0
LINE
  8
0
 10
-23.996
 20
-10.2227
 11
-23.999
 21
-10.1914
  0
LINE
  8
0
 10
-23.999
 20
-10.1914
 11
-24
 21
-10.16
  0
LINE
  8
0
 10
-24
 20
-10.16
 11
-23.999
 21
-10.1286
  0
LINE
  8
0
 10
-23.999
 20
-10.1286
 11
-23.996
 21
-10.0973
  0
LINE
  8
0
 10
-23.996
 20
-10.0973
 11
-23.9911
 21
-10.0663
  0
LINE
  8
0
 10
-23.9911
 20
-10.0663
 11
-23.9843
 21
-10.0356
  0
LINE
  8
0
 10
-23.9843
 20
-10.0356
 11
-23.9755
 21
-10.0055
  0
LINE
  8
0
 10
-23.9755
 20
-10.0055
 11
-23.9649
 21
-9.97594
  0
LINE
  8
0
 10
-23.9649
 20
-9.97594
 11
-23.9524
 21
-9.9471
  0
LINE
  8
0
 10
-23.9524
 20
-9.9471
 11
-23.9381
 21
-9.91911
  0
LINE
  8
0
 10
-23.9381
 20
-9.91911
 11
-23.9221
 21
-9.89207
  0
LINE
  8
0
 10
-23.9221
 20
-9.89207
 11
-23.9045
 21
-9.8661
  0
LINE
  8
0
 10
-23.9045
 20
-9.8661
 11
-23.8853
 21
-9.84128
  0
LINE
  8
0
 10
-23.8853
 20
-9.84128
 11
-23.8645
 21
-9.81772
  0
LINE
  8
0
 10
-23.8645
 20
-9.81772
 11
-23.8423
 21
-9.7955
  0
LINE
  8
0
 10
-23.8423
 20
-9.7955
 11
-23.8187
 21
-9.77473
  0
LINE
  8
0
 10
-23.8187
 20
-9.77473
 11
-23.7939
 21
-9.75548
  0
LINE
  8
0
 10
-23.7939
 20
-9.75548
 11
-23.7679
 21
-9.73782
  0
LINE
  8
0
 10
-23.7679
 20
-9.73782
 11
-23.7409
 21
-9.72183
  0
LINE
  8
0
 10
-23.7409
 20
-9.72183
 11
-23.7129
 21
-9.70758
  0
LINE
  8
0
 10
-23.7129
 20
-9.70758
 11
-23.6841
 21
-9.6951
  0
LINE
  8
0
 10
-23.6841
 20
-9.6951
 11
-23.6545
 21
-9.68446
  0
LINE
  8
0
 10
-23.6545
 20
-9.68446
 11
-23.6243
 21
-9.6757
  0
LINE
  8
0
 10
-23.6243
 20
-9.6757
 11
-23.5937
 21
-9.66885
  0
LINE
  8
0
 10
-23.5937
 20
-9.66885
 11
-23.5627
 21
-9.66394
  0
LINE
  8
0
 10
-23.5627
 20
-9.66394
 11
-23.5314
 21
-9.66098
  0
LINE
  8
0
 10
-23.5314
 20
-9.66098
 11
-23.5
 21
-9.65999
  0
LINE
  8
0
 10
-23.5
 20
-9.65999
 11
-23.4686
 21
-9.66098
  0
LINE
  8
0
 10
-23.4686
 20
-9.66098
 11
-23.4373
 21
-9.66394
  0
LINE
  8
0
 10
-23.4373
 20
-9.66394
 11
-23.4063
 21
-9.66885
  0
LINE
  8
0
 10
-23.4063
 20
-9.66885
 11
-23.3757
 21
-9.6757
  0
LINE
  8
0
 10
-23.3757
 20
-9.6757
 11
-23.3455
 21
-9.68446
  0
LINE
  8
0
 10
-23.3455
 20
-9.68446
 11
-23.3159
 21
-9.6951
  0
LINE
  8
0
 10
-23.3159
 20
-9.6951
 11
-23.2871
 21
-9.70758
  0
LINE
  8
0
 10
-23.2871
 20
-9.70758
 11
-23.2591
 21
-9.72183
  0
LINE
  8
0
 10
-23.2591
 20
-9.72183
 11
-23.2321
 21
-9.73782
  0
LINE
  8
0
 10
-23.2321
 20
-9.73782
 11
-23.2061
 21
-9.75548
  0
LINE
  8
0
 10
-23.2061
 20
-9.75548
 11
-23.1813
 21
-9.77473
  0
LINE
  8
0
 10
-23.1813
 20
-9.77473
 11
-23.1577
 21
-9.7955
  0
LINE
  8
0
 10
-23.1577
 20
-9.7955
 11
-23.1355
 21
-9.81772
  0
LINE
  8
0
 10
-23.1355
 20
-9.81772
 11
-23.1147
 21
-9.84128
  0
LINE
  8
0
 10
-23.1147
 20
-9.84128
 11
-23.0955
 21
-9.8661
  0
LINE
  8
0
 10
-23.0955
 20
-9.8661
 11
-23.0778
 21
-9.89207
  0
LINE
  8
0
 10
-23.0778
 20
-9.89207
 11
-23.0618
 21
-9.91911
  0
LINE
  8
0
 10
-23.0618
 20
-9.91911
 11
-23.0476
 21
-9.9471
  0
LINE
  8
0
 10
-23.0476
 20
-9.9471
 11
-23.0351
 21
-9.97594
  0
LINE
  8
0
 10
-23.0351
 20
-9.97594
 11
-23.0245
 21
-10.0055
  0
LINE
  8
0
 10
-23.0245
 20
-10.0055
 11
-23.0157
 21
-10.0356
  0
LINE
  8
0
 10
-23.0157
 20
-10.0356
 11
-23.0089
 21
-10.0663
  0
LINE
  8
0
 10
-23.0089
 20
-10.0663
 11
-23.0039
 21
-10.0973
  0
LINE
  8
0
 10
-23.0039
 20
-10.0973
 11
-23.001
 21
-10.1286
  0
LINE
  8
0
 10
-23.001
 20
-10.1286
 11
-23
 21
-10.16
  0
LINE
  8
0
 10
-23
 20
-10.16
 11
-23.001
 21
-10.1914
  0
LINE
  8
0
 10
-23.001
 20
-10.1914
 11
-23.0039
 21
-10.2227
  0
LINE
  8
0
 10
-23.0039
 20
-10.2227
 11
-23.0089
 21
-10.2537
  0
LINE
  8
0
 10
-23.0089
 20
-10.2537
 11
-23.0157
 21
-10.2843
  0
LINE
  8
0
 10
-23.0157
 20
-10.2843
 11
-23.0245
 21
-10.3145
  0
LINE
  8
0
 10
-23.0245
 20
-10.3145
 11
-23.0351
 21
-10.3441
  0
LINE
  8
0
 10
-23.0351
 20
-10.3441
 11
-23.0476
 21
-10.3729
  0
LINE
  8
0
 10
-23.0476
 20
-10.3729
 11
-23.0618
 21
-10.4009
  0
LINE
  8
0
 10
-23.0618
 20
-10.4009
 11
-23.0778
 21
-10.4279
  0
LINE
  8
0
 10
-23.0778
 20
-10.4279
 11
-23.0955
 21
-10.4539
  0
LINE
  8
0
 10
-23.0955
 20
-10.4539
 11
-23.1147
 21
-10.4787
  0
LINE
  8
0
 10
-23.1147
 20
-10.4787
 11
-23.1355
 21
-10.5023
  0
LINE
  8
0
 10
-23.1355
 20
-10.5023
 11
-23.1577
 21
-10.5245
  0
LINE
  8
0
 10
-23.1577
 20
-10.5245
 11
-23.1813
 21
-10.5452
  0
LINE
  8
0
 10
-23.1813
 20
-10.5452
 11
-23.2061
 21
-10.5645
  0
LINE
  8
0
 10
-23.2061
 20
-10.5645
 11
-23.2321
 21
-10.5822
  0
LINE
  8
0
 10
-23.2321
 20
-10.5822
 11
-23.2591
 21
-10.5981
  0
LINE
  8
0
 10
-23.2591
 20
-10.5981
 11
-23.2871
 21
-10.6124
  0
LINE
  8
0
 10
-23.2871
 20
-10.6124
 11
-23.3159
 21
-10.6249
  0
LINE
  8
0
 10
-23.3159
 20
-10.6249
 11
-23.3455
 21
-10.6355
  0
LINE
  8
0
 10
-23.3455
 20
-10.6355
 11
-23.3757
 21
-10.6443
  0
LINE
  8
0
 10
-23.3757
 20
-10.6443
 11
-23.4063
 21
-10.6511
  0
LINE
  8
0
 10
-23.4063
 20
-10.6511
 11
-23.4373
 21
-10.6561
  0
LINE
  8
0
 10
-23.4373
 20
-10.6561
 11
-23.4686
 21
-10.659
  0
LINE
  8
0
 10
-23.4686
 20
-10.659
 11
-23.5
 21
-10.66
  0
LINE
  8
0
 10
-23.5
 20
-10.66
 11
-23.5314
 21
-10.659
  0
LINE
  8
0
 10
-23.5314
 20
-13.199
 11
-23.5627
 21
-13.196
  0
LINE
  8
0
 10
-23.5627
 20
-13.196
 11
-23.5937
 21
-13.1911
  0
LINE
  8
0
 10
-23.5937
 20
-13.1911
 11
-23.6243
 21
-13.1843
  0
LINE
  8
0
 10
-23.6243
 20
-13.1843
 11
-23.6545
 21
-13.1755
  0
LINE
  8
0
 10
-23.6545
 20
-13.1755
 11
-23.6841
 21
-13.1649
  0
LINE
  8
0
 10
-23.6841
 20
-13.1649
 11
-23.7129
 21
-13.1524
  0
LINE
  8
0
 10
-23.7129
 20
-13.1524
 11
-23.7409
 21
-13.1382
  0
LINE
  8
0
 10
-23.7409
 20
-13.1382
 11
-23.7679
 21
-13.1222
  0
LINE
  8
0
 10
-23.7679
 20
-13.1222
 11
-23.7939
 21
-13.1045
  0
LINE
  8
0
 10
-23.7939
 20
-13.1045
 11
-23.8187
 21
-13.0853
  0
LINE
  8
0
 10
-23.8187
 20
-13.0853
 11
-23.8423
 21
-13.0645
  0
LINE
  8
0
 10
-23.8423
 20
-13.0645
 11
-23.8645
 21
-13.0423
  0
LINE
  8
0
 10
-23.8645
 20
-13.0423
 11
-23.8853
 21
-13.0187
  0
LINE
  8
0
 10
-23.8853
 20
-13.0187
 11
-23.9045
 21
-12.9939
  0
LINE
  8
0
 10
-23.9045
 20
-12.9939
 11
-23.9221
 21
-12.9679
  0
LINE
  8
0
 10
-23.9221
 20
-12.9679
 11
-23.9381
 21
-12.9409
  0
LINE
  8
0
 10
-23.9381
 20
-12.9409
 11
-23.9524
 21
-12.9129
  0
LINE
  8
0
 10
-23.9524
 20
-12.9129
 11
-23.9649
 21
-12.884
  0
LINE
  8
0
 10
-23.9649
 20
-12.884
 11
-23.9755
 21
-12.8545
  0
LINE
  8
0
 10
-23.9755
 20
-12.8545
 11
-23.9843
 21
-12.8243
  0
LINE
  8
0
 10
-23.9843
 20
-12.8243
 11
-23.9911
 21
-12.7937
  0
LINE
  8
0
 10
-23.9911
 20
-12.7937
 11
-23.996
 21
-12.7627
  0
LINE
  8
0
 10
-23.996
 20
-12.7627
 11
-23.999
 21
-12.7314
  0
LINE
  8
0
 10
-23.999
 20
-12.7314
 11
-24
 21
-12.7
  0
LINE
  8
0
 10
-24
 20
-12.7
 11
-23.999
 21
-12.6686
  0
LINE
  8
0
 10
-23.999
 20
-12.6686
 11
-23.996
 21
-12.6373
  0
LINE
  8
0
 10
-23.996
 20
-12.6373
 11
-23.9911
 21
-12.6063
  0
LINE
  8
0
 10
-23.9911
 20
-12.6063
 11
-23.9843
 21
-12.5757
  0
LINE
  8
0
 10
-23.9843
 20
-12.5757
 11
-23.9755
 21
-12.5455
  0
LINE
  8
0
 10
-23.9755
 20
-12.5455
 11
-23.9649
 21
-12.5159
  0
LINE
  8
0
 10
-23.9649
 20
-12.5159
 11
-23.9524
 21
-12.4871
  0
LINE
  8
0
 10
-23.9524
 20
-12.4871
 11
-23.9381
 21
-12.4591
  0
LINE
  8
0
 10
-23.9381
 20
-12.4591
 11
-23.9221
 21
-12.4321
  0
LINE
  8
0
 10
-23.9221
 20
-12.4321
 11
-23.9045
 21
-12.4061
  0
LINE
  8
0
 10
-23.9045
 20
-12.4061
 11
-23.8853
 21
-12.3813
  0
LINE
  8
0
 10
-23.8853
 20
-12.3813
 11
-23.8645
 21
-12.3577
  0
LINE
  8
0
 10
-23.8645
 20
-12.3577
 11
-23.8423
 21
-12.3355
  0
LINE
  8
0
 10
-23.8423
 20
-12.3355
 11
-23.8187
 21
-12.3147
  0
LINE
  8
0
 10
-23.8187
 20
-12.3147
 11
-23.7939
 21
-12.2955
  0
LINE
  8
0
 10
-23.7939
 20
-12.2955
 11
-23.7679
 21
-12.2778
  0
LINE
  8
0
 10
-23.7679
 20
-12.2778
 11
-23.7409
 21
-12.2618
  0
LINE
  8
0
 10
-23.7409
 20
-12.2618
 11
-23.7129
 21
-12.2476
  0
LINE
  8
0
 10
-23.7129
 20
-12.2476
 11
-23.6841
 21
-12.2351
  0
LINE
  8
0
 10
-23.6841
 20
-12.2351
 11
-23.6545
 21
-12.2245
  0
LINE
  8
0
 10
-23.6545
 20
-12.2245
 11
-23.6243
 21
-12.2157
  0
LINE
  8
0
 10
-23.6243
 20
-12.2157
 11
-23.5937
 21
-12.2088
  0
LINE
  8
0
 10
-23.5937
 20
-12.2088
 11
-23.5627
 21
-12.2039
  0
LINE
  8
0
 10
-23.5627
 20
-12.2039
 11
-23.5314
 21
-12.201
  0
LINE
  8
0
 10
-23.5314
 20
-12.201
 11
-23.5
 21
-12.2
  0
LINE
  8
0
 10
-23.5
 20
-12.2
 11
-23.4686
 21
-12.201
  0
LINE
  8
0
 10
-23.4686
 20
-12.201
 11
-23.4373
 21
-12.2039
  0
LINE
  8
0
 10
-23.4373
 20
-12.2039
 11
-23.4063
 21
-12.2088
  0
LINE
  8
0
 10
-23.4063
 20
-12.2088
 11
-23.3757
 21
-12.2157
  0
LINE
  8
0
 10
-23.3757
 20
-12.2157
 11
-23.3455
 21
-12.2245
  0
LINE
  8
0
 10
-23.3455
 20
-12.2245
 11
-23.3159
 21
-12.2351
  0
LINE
  8
0
 10
-23.3159
 20
-12.2351
 11
-23.2871
 21
-12.2476
  0
LINE
  8
0
 10
-23.2871
 20
-12.2476
 11
-23.2591
 21
-12.2618
  0
LINE
  8
0
 10
-23.2591
 20
-12.2618
 11
-23.2321
 21
-12.2778
  0
LINE
  8
0
 10
-23.2321
 20
-12.2778
 11
-23.2061
 21
-12.2955
  0
LINE
  8
0
 10
-23.2061
 20
-12.2955
 11
-23.1813
 21
-12.3147
  0
LINE
  8
0
 10
-23.1813
 20
-12.3147
 11
-23.1577
 21
-12.3355
  0
LINE
  8
0
 10
-23.1577
 20
-12.3355
 11
-23.1355
 21
-12.3577
  0
LINE
  8
0
 10
-23.1355
 20
-12.3577
 11
-23.1147
 21
-12.3813
  0
LINE
  8
0
 10
-23.1147
 20
-12.3813
 11
-23.0955
 21
-12.4061
  0
LINE
  8
0
 10
-23.0955
 20
-12.4061
 11
-23.0778
 21
-12.4321
  0
LINE
  8
0
 10
-23.0778
 20
-12.4321
 11
-23.0618
 21
-12.4591
  0
LINE
  8
0
 10
-23.0618
 20
-12.4591
 11
-23.0476
 21
-12.4871
  0
LINE
  8
0
 10
-23.0476
 20
-12.4871
 11
-23.0351
 21
-12.5159
  0
LINE
  8
0
 10
-23.0351
 20
-12.5159
 11
-23.0245
 21
-12.5455
  0
LINE
  8
0
 10
-23.0245
 20
-12.5455
 11
-23.0157
 21
-12.5757
  0
LINE
  8
0
 10
-23.0157
 20
-12.5757
 11
-23.0089
 21
-12.6063
  0
LINE
  8
0
 10
-23.0089
 20
-12.6063
 11
-23.0039
 21
-12.6373
  0
LINE
  8
0
 10
-23.0039
 20
-12.6373
 11
-23.001
 21
-12.6686
  0
LINE
  8
0
 10
-23.001
 20
-12.6686
 11
-23
 21
-12.7
  0
LINE
  8
0
 10
-23
 20
-12.7
 11
-23.001
 21
-12.7314
  0
LINE
  8
0
 10
-23.001
 20
-12.7314
 11
-23.0039
 21
-12.7627
  0
LINE
  8
0
 10
-23.0039
 20
-12.7627
 11
-23.0089
 21
-12.7937
  0
LINE
  8
0
 10
-23.0089
 20
-12.7937
 11
-23.0157
 21
-12.8243
  0
LINE
  8
0
 10
-23.0157
 20
-12.8243
 11
-23.0245
 21
-12.8545
  0
LINE
  8
0
 10
-23.0245
 20
-12.8545
 11
-23.0351
 21
-12.884
  0
LINE
  8
0
 10
-23.0351
 20
-12.884
 11
-23.0476
 21
-12.9129
  0
LINE
  8
0
 10
-23.0476
 20
-12.9129
 11
-23.0618
 21
-12.9409
  0
LINE
  8
0
 10
-23.0618
 20
-12.9409
 11
-23.0778
 21
-12.9679
  0
LINE
  8
0
 10
-23.0778
 20
-12.9679
 11
-23.0955
 21
-12.9939
  0
LINE
  8
0
 10
-23.0955
 20
-12.9939
 11
-23.1147
 21
-13.0187
  0
LINE
  8
0
 10
-23.1147
 20
-13.0187
 11
-23.1355
 21
-13.0423
  0
LINE
  8
0
 10
-23.1355
 20
-13.0423
 11
-23.1577
 21
-13.0645
  0
LINE
  8
0
 10
-23.1577
 20
-13.0645
 11
-23.1813
 21
-13.0853
  0
LINE
  8
0
 10
-23.1813
 20
-13.0853
 11
-23.2061
 21
-13.1045
  0
LINE
  8
0
 10
-23.2061
 20
-13.1045
 11
-23.2321
 21
-13.1222
  0
LINE
  8
0
 10
-23.2321
 20
-13.1222
 11
-23.2591
 21
-13.1382
  0
LINE
  8
0
 10
-23.2591
 20
-13.1382
 11
-23.2871
 21
-13.1524
  0
LINE
  8
0
 10
-23.2871
 20
-13.1524
 11
-23.3159
 21
-13.1649
  0
LINE
  8
0
 10
-23.3159
 20
-13.1649
 11
-23.3455
 21
-13.1755
  0
LINE
  8
0
 10
-23.3455
 20
-13.1755
 11
-23.3757
 21
-13.1843
  0
LINE
  8
0
 10
-23.3757
 20
-13.1843
 11
-23.4063
 21
-13.1911
  0
LINE
  8
0
 10
-23.4063
 20
-13.1911
 11
-23.4373
 21
-13.196
  0
LINE
  8
0
 10
-23.4373
 20
-13.196
 11
-23.4686
 21
-13.199
  0
LINE
  8
0
 10
-23.4686
 20
-13.199
 11
-23.5
 21
-13.2
  0
LINE
  8
0
 10
-23.5
 20
-13.2
 11
-23.5314
 21
-13.199
  0
LINE
  8
0
 10
-23.5314
 20
-18.279
 11
-23.5627
 21
-18.276
  0
LINE
  8
0
 10
-23.5627
 20
-18.276
 11
-23.5937
 21
-18.2711
  0
LINE
  8
0
 10
-23.5937
 20
-18.2711
 11
-23.6243
 21
-18.2643
  0
LINE
  8
0
 10
-23.6243
 20
-18.2643
 11
-23.6545
 21
-18.2555
  0
LINE
  8
0
 10
-23.6545
 20
-18.2555
 11
-23.6841
 21
-18.2449
  0
LINE
  8
0
 10
-23.6841
 20
-18.2449
 11
-23.7129
 21
-18.2324
  0
LINE
  8
0
 10
-23.7129
 20
-18.2324
 11
-23.7409
 21
-18.2181
  0
LINE
  8
0
 10
-23.7409
 20
-18.2181
 11
-23.7679
 21
-18.2022
  0
LINE
  8
0
 10
-23.7679
 20
-18.2022
 11
-23.7939
 21
-18.1845
  0
LINE
  8
0
 10
-23.7939
 20
-18.1845
 11
-23.8187
 21
-18.1653
  0
LINE
  8
0
 10
-23.8187
 20
-18.1653
 11
-23.8423
 21
-18.1445
  0
LINE
  8
0
 10
-23.8423
 20
-18.1445
 11
-23.8645
 21
-18.1223
  0
LINE
  8
0
 10
-23.8645
 20
-18.1223
 11
-23.8853
 21
-18.0987
  0
LINE
  8
0
 10
-23.8853
 20
-18.0987
 11
-23.9045
 21
-18.0739
  0
LINE
  8
0
 10
-23.9045
 20
-18.0739
 11
-23.9221
 21
-18.0479
  0
LINE
  8
0
 10
-23.9221
 20
-18.0479
 11
-23.9381
 21
-18.0209
  0
LINE
  8
0
 10
-23.9381
 20
-18.0209
 11
-23.9524
 21
-17.9929
  0
LINE
  8
0
 10
-23.9524
 20
-17.9929
 11
-23.9649
 21
-17.9641
  0
LINE
  8
0
 10
-23.9649
 20
-17.9641
 11
-23.9755
 21
-17.9345
  0
LINE
  8
0
 10
-23.9755
 20
-17.9345
 11
-23.9843
 21
-17.9043
  0
LINE
  8
0
 10
-23.9843
 20
-17.9043
 11
-23.9911
 21
-17.8737
  0
LINE
  8
0
 10
-23.9911
 20
-17.8737
 11
-23.996
 21
-17.8427
  0
LINE
  8
0
 10
-23.996
 20
-17.8427
 11
-23.999
 21
-17.8114
  0
LINE
  8
0
 10
-23.999
 20
-17.8114
 11
-24
 21
-17.78
  0
LINE
  8
0
 10
-24
 20
-17.78
 11
-23.999
 21
-17.7486
  0
LINE
  8
0
 10
-23.999
 20
-17.7486
 11
-23.996
 21
-17.7173
  0
LINE
  8
0
 10
-23.996
 20
-17.7173
 11
-23.9911
 21
-17.6863
  0
LINE
  8
0
 10
-23.9911
 20
-17.6863
 11
-23.9843
 21
-17.6557
  0
LINE
  8
0
 10
-23.9843
 20
-17.6557
 11
-23.9755
 21
-17.6255
  0
LINE
  8
0
 10
-23.9755
 20
-17.6255
 11
-23.9649
 21
-17.5959
  0
LINE
  8
0
 10
-23.9649
 20
-17.5959
 11
-23.9524
 21
-17.5671
  0
LINE
  8
0
 10
-23.9524
 20
-17.5671
 11
-23.9381
 21
-17.5391
  0
LINE
  8
0
 10
-23.9381
 20
-17.5391
 11
-23.9221
 21
-17.5121
  0
LINE
  8
0
 10
-23.9221
 20
-17.5121
 11
-23.9045
 21
-17.4861
  0
LINE
  8
0
 10
-23.9045
 20
-17.4861
 11
-23.8853
 21
-17.4613
  0
LINE
  8
0
 10
-23.8853
 20
-17.4613
 11
-23.8645
 21
-17.4377
  0
LINE
  8
0
 10
-23.8645
 20
-17.4377
 11
-23.8423
 21
-17.4155
  0
LINE
  8
0
 10
-23.8423
 20
-17.4155
 11
-23.8187
 21
-17.3947
  0
LINE
  8
0
 10
-23.8187
 20
-17.3947
 11
-23.7939
 21
-17.3755
  0
LINE
  8
0
 10
-23.7939
 20
-17.3755
 11
-23.7679
 21
-17.3578
  0
LINE
  8
0
 10
-23.7679
 20
-17.3578
 11
-23.7409
 21
-17.3418
  0
LINE
  8
0
 10
-23.7409
 20
-17.3418
 11
-23.7129
 21
-17.3276
  0
LINE
  8
0
 10
-23.7129
 20
-17.3276
 11
-23.6841
 21
-17.3151
  0
LINE
  8
0
 10
-23.6841
 20
-17.3151
 11
-23.6545
 21
-17.3045
  0
LINE
  8
0
 10
-23.6545
 20
-17.3045
 11
-23.6243
 21
-17.2957
  0
LINE
  8
0
 10
-23.6243
 20
-17.2957
 11
-23.5937
 21
-17.2888
  0
LINE
  8
0
 10
-23.5937
 20
-17.2888
 11
-23.5627
 21
-17.2839
  0
LINE
  8
0
 10
-23.5627
 20
-17.2839
 11
-23.5314
 21
-17.281
  0
LINE
  8
0
 10
-23.5314
 20
-17.281
 11
-23.5
 21
-17.28
  0
LINE
  8
0
 10
-23.5
 20
-17.28
 11
-23.4686
 21
-17.281
  0
LINE
  8
0
 10
-23.4686
 20
-17.281
 11
-23.4373
 21
-17.2839
  0
LINE
  8
0
 10
-23.4373
 20
-17.2839
 11
-23.4063
 21
-17.2888
  0
LINE
  8
0
 10
-23.4063
 20
-17.2888
 11
-23.3757
 21
-17.2957
  0
LINE
  8
0
 10
-23.3757
 20
-17.2957
 11
-23.3455
 21
-17.3045
  0
LINE
  8
0
 10
-23.3455
 20
-17.3045
 11
-23.3159
 21
-17.3151
  0
LINE
  8
0
 10
-23.3159
 20
-17.3151
 11
-23.2871
 21
-17.3276
  0
LINE
  8
0
 10
-23.2871
 20
-17.3276
 11
-23.2591
 21
-17.3418
  0
LINE
  8
0
 10
-23.2591
 20
-17.3418
 11
-23.2321
 21
-17.3578
  0
LINE
  8
0
 10
-23.2321
 20
-17.3578
 11
-23.2061
 21
-17.3755
  0
LINE
  8
0
 10
-23.2061
 20
-17.3755
 11
-23.1813
 21
-17.3947
  0
LINE
  8
0
 10
-23.1813
 20
-17.3947
 11
-23.1577
 21
-17.4155
  0
LINE
  8
0
 10
-23.1577
 20
-17.4155
 11
-23.1355
 21
-17.4377
  0
LINE
  8
0
 10
-23.1355
 20
-17.4377
 11
-23.1147
 21
-17.4613
  0
LINE
  8
0
 10
-23.1147
 20
-17.4613
 11
-23.0955
 21
-17.4861
  0
LINE
  8
0
 10
-23.0955
 20
-17.4861
 11
-23.0778
 21
-17.5121
  0
LINE
  8
0
 10
-23.0778
 20
-17.5121
 11
-23.0618
 21
-17.5391
  0
LINE
  8
0
 10
-23.0618
 20
-17.5391
 11
-23.0476
 21
-17.5671
  0
LINE
  8
0
 10
-23.0476
 20
-17.5671
 11
-23.0351
 21
-17.5959
  0
LINE
  8
0
 10
-23.0351
 20
-17.5959
 11
-23.0245
 21
-17.6255
  0
LINE
  8
0
 10
-23.0245
 20
-17.6255
 11
-23.0157
 21
-17.6557
  0
LINE
  8
0
 10
-23.0157
 20
-17.6557
 11
-23.0089
 21
-17.6863
  0
LINE
  8
0
 10
-23.0089
 20
-17.6863
 11
-23.0039
 21
-17.7173
  0
LINE
  8
0
 10
-23.0039
 20
-17.7173
 11
-23.001
 21
-17.7486
  0
LINE
  8
0
 10
-23.001
 20
-17.7486
 11
-23
 21
-17.78
  0
LINE
  8
0
 10
-23
 20
-17.78
 11
-23.001
 21
-17.8114
  0
LINE
  8
0
 10
-23.001
 20
-17.8114
 11
-23.0039
 21
-17.8427
  0
LINE
  8
0
 10
-23.0039
 20
-17.8427
 11
-23.0089
 21
-17.8737
  0
LINE
  8
0
 10
-23.0089
 20
-17.8737
 11
-23.0157
 21
-17.9043
  0
LINE
  8
0
 10
-23.0157
 20
-17.9043
 11
-23.0245
 21
-17.9345
  0
LINE
  8
0
 10
-23.0245
 20
-17.9345
 11
-23.0351
 21
-17.9641
  0
LINE
  8
0
 10
-23.0351
 20
-17.9641
 11
-23.0476
 21
-17.9929
  0
LINE
  8
0
 10
-23.0476
 20
-17.9929
 11
-23.0618
 21
-18.0209
  0
LINE
  8
0
 10
-23.0618
 20
-18.0209
 11
-23.0778
 21
-18.0479
  0
LINE
  8
0
 10
-23.0778
 20
-18.0479
 11
-23.0955
 21
-18.0739
  0
LINE
  8
0
 10
-23.0955
 20
-18.0739
 11
-23.1147
 21
-18.0987
  0
LINE
  8
0
 10
-23.1147
 20
-18.0987
 11
-23.1355
 21
-18.1223
  0
LINE
  8
0
 10
-23.1355
 20
-18.1223
 11
-23.1577
 21
-18.1445
  0
LINE
  8
0
 10
-23.1577
 20
-18.1445
 11
-23.1813
 21
-18.1653
  0
LINE
  8
0
 10
-23.1813
 20
-18.1653
 11
-23.2061
 21
-18.1845
  0
LINE
  8
0
 10
-23.2061
 20
-18.1845
 11
-23.2321
 21
-18.2022
  0
LINE
  8
0
 10
-23.2321
 20
-18.2022
 11
-23.2591
 21
-18.2181
  0
LINE
  8
0
 10
-23.2591
 20
-18.2181
 11
-23.2871
 21
-18.2324
  0
LINE
  8
0
 10
-23.2871
 20
-18.2324
 11
-23.3159
 21
-18.2449
  0
LINE
  8
0
 10
-23.3159
 20
-18.2449
 11
-23.3455
 21
-18.2555
  0
LINE
  8
0
 10
-23.3455
 20
-18.2555
 11
-23.3757
 21
-18.2643
  0
LINE
  8
0
 10
-23.3757
 20
-18.2643
 11
-23.4063
 21
-18.2711
  0
LINE
  8
0
 10
-23.4063
 20
-18.2711
 11
-23.4373
 21
-18.276
  0
LINE
  8
0
 10
-23.4373
 20
-18.276
 11
-23.4686
 21
-18.279
  0
LINE
  8
0
 10
-23.4686
 20
-18.279
 11
-23.5
 21
-18.28
  0
LINE
  8
0
 10
-23.5
 20
-18.28
 11
-23.5314
 21
-18.279
  0
LINE
  8
0
 10
-23.5314
 20
-20.819
 11
-23.5627
 21
-20.8161
  0
LINE
  8
0
 10
-23.5627
 20
-20.8161
 11
-23.5937
 21
-20.8111
  0
LINE
  8
0
 10
-23.5937
 20
-20.8111
 11
-23.6243
 21
-20.8043
  0
LINE
  8
0
 10
-23.6243
 20
-20.8043
 11
-23.6545
 21
-20.7955
  0
LINE
  8
0
 10
-23.6545
 20
-20.7955
 11
-23.6841
 21
-20.7849
  0
LINE
  8
0
 10
-23.6841
 20
-20.7849
 11
-23.7129
 21
-20.7724
  0
LINE
  8
0
 10
-23.7129
 20
-20.7724
 11
-23.7409
 21
-20.7581
  0
LINE
  8
0
 10
-23.7409
 20
-20.7581
 11
-23.7679
 21
-20.7422
  0
LINE
  8
0
 10
-23.7679
 20
-20.7422
 11
-23.7939
 21
-20.7245
  0
LINE
  8
0
 10
-23.7939
 20
-20.7245
 11
-23.8187
 21
-20.7052
  0
LINE
  8
0
 10
-23.8187
 20
-20.7052
 11
-23.8423
 21
-20.6845
  0
LINE
  8
0
 10
-23.8423
 20
-20.6845
 11
-23.8645
 21
-20.6623
  0
LINE
  8
0
 10
-23.8645
 20
-20.6623
 11
-23.8853
 21
-20.6387
  0
LINE
  8
0
 10
-23.8853
 20
-20.6387
 11
-23.9045
 21
-20.6139
  0
LINE
  8
0
 10
-23.9045
 20
-20.6139
 11
-23.9221
 21
-20.5879
  0
LINE
  8
0
 10
-23.9221
 20
-20.5879
 11
-23.9381
 21
-20.5609
  0
LINE
  8
0
 10
-23.9381
 20
-20.5609
 11
-23.9524
 21
-20.5329
  0
LINE
  8
0
 10
-23.9524
 20
-20.5329
 11
-23.9649
 21
-20.5041
  0
LINE
  8
0
 10
-23.9649
 20
-20.5041
 11
-23.9755
 21
-20.4745
  0
LINE
  8
0
 10
-23.9755
 20
-20.4745
 11
-23.9843
 21
-20.4443
  0
LINE
  8
0
 10
-23.9843
 20
-20.4443
 11
-23.9911
 21
-20.4137
  0
LINE
  8
0
 10
-23.9911
 20
-20.4137
 11
-23.996
 21
-20.3827
  0
LINE
  8
0
 10
-23.996
 20
-20.3827
 11
-23.999
 21
-20.3514
  0
LINE
  8
0
 10
-23.999
 20
-20.3514
 11
-24
 21
-20.32
  0
LINE
  8
0
 10
-24
 20
-20.32
 11
-23.999
 21
-20.2886
  0
LINE
  8
0
 10
-23.999
 20
-20.2886
 11
-23.996
 21
-20.2573
  0
LINE
  8
0
 10
-23.996
 20
-20.2573
 11
-23.9911
 21
-20.2263
  0
LINE
  8
0
 10
-23.9911
 20
-20.2263
 11
-23.9843
 21
-20.1956
  0
LINE
  8
0
 10
-23.9843
 20
-20.1956
 11
-23.9755
 21
-20.1655
  0
LINE
  8
0
 10
-23.9755
 20
-20.1655
 11
-23.9649
 21
-20.1359
  0
LINE
  8
0
 10
-23.9649
 20
-20.1359
 11
-23.9524
 21
-20.1071
  0
LINE
  8
0
 10
-23.9524
 20
-20.1071
 11
-23.9381
 21
-20.0791
  0
LINE
  8
0
 10
-23.9381
 20
-20.0791
 11
-23.9221
 21
-20.0521
  0
LINE
  8
0
 10
-23.9221
 20
-20.0521
 11
-23.9045
 21
-20.0261
  0
LINE
  8
0
 10
-23.9045
 20
-20.0261
 11
-23.8853
 21
-20.0013
  0
LINE
  8
0
 10
-23.8853
 20
-20.0013
 11
-23.8645
 21
-19.9777
  0
LINE
  8
0
 10
-23.8645
 20
-19.9777
 11
-23.8423
 21
-19.9555
  0
LINE
  8
0
 10
-23.8423
 20
-19.9555
 11
-23.8187
 21
-19.9347
  0
LINE
  8
0
 10
-23.8187
 20
-19.9347
 11
-23.7939
 21
-19.9155
  0
LINE
  8
0
 10
-23.7939
 20
-19.9155
 11
-23.7679
 21
-19.8978
  0
LINE
  8
0
 10
-23.7679
 20
-19.8978
 11
-23.7409
 21
-19.8818
  0
LINE
  8
0
 10
-23.7409
 20
-19.8818
 11
-23.7129
 21
-19.8676
  0
LINE
  8
0
 10
-23.7129
 20
-19.8676
 11
-23.6841
 21
-19.8551
  0
LINE
  8
0
 10
-23.6841
 20
-19.8551
 11
-23.6545
 21
-19.8445
  0
LINE
  8
0
 10
-23.6545
 20
-19.8445
 11
-23.6243
 21
-19.8357
  0
LINE
  8
0
 10
-23.6243
 20
-19.8357
 11
-23.5937
 21
-19.8288
  0
LINE
  8
0
 10
-23.5937
 20
-19.8288
 11
-23.5627
 21
-19.8239
  0
LINE
  8
0
 10
-23.5627
 20
-19.8239
 11
-23.5314
 21
-19.821
  0
LINE
  8
0
 10
-23.5314
 20
-19.821
 11
-23.5
 21
-19.82
  0
LINE
  8
0
 10
-23.5
 20
-19.82
 11
-23.4686
 21
-19.821
  0
LINE
  8
0
 10
-23.4686
 20
-19.821
 11
-23.4373
 21
-19.8239
  0
LINE
  8
0
 10
-23.4373
 20
-19.8239
 11
-23.4063
 21
-19.8288
  0
LINE
  8
0
 10
-23.4063
 20
-19.8288
 11
-23.3757
 21
-19.8357
  0
LINE
  8
0
 10
-23.3757
 20
-19.8357
 11
-23.3455
 21
-19.8445
  0
LINE
  8
0
 10
-23.3455
 20
-19.8445
 11
-23.3159
 21
-19.8551
  0
LINE
  8
0
 10
-23.3159
 20
-19.8551
 11
-23.2871
 21
-19.8676
  0
LINE
  8
0
 10
-23.2871
 20
-19.8676
 11
-23.2591
 21
-19.8818
  0
LINE
  8
0
 10
-23.2591
 20
-19.8818
 11
-23.2321
 21
-19.8978
  0
LINE
  8
0
 10
-23.2321
 20
-19.8978
 11
-23.2061
 21
-19.9155
  0
LINE
  8
0
 10
-23.2061
 20
-19.9155
 11
-23.1813
 21
-19.9347
  0
LINE
  8
0
 10
-23.1813
 20
-19.9347
 11
-23.1577
 21
-19.9555
  0
LINE
  8
0
 10
-23.1577
 20
-19.9555
 11
-23.1355
 21
-19.9777
  0
LINE
  8
0
 10
-23.1355
 20
-19.9777
 11
-23.1147
 21
-20.0013
  0
LINE
  8
0
 10
-23.1147
 20
-20.0013
 11
-23.0955
 21
-20.0261
  0
LINE
  8
0
 10
-23.0955
 20
-20.0261
 11
-23.0778
 21
-20.0521
  0
LINE
  8
0
 10
-23.0778
 20
-20.0521
 11
-23.0618
 21
-20.0791
  0
LINE
  8
0
 10
-23.0618
 20
-20.0791
 11
-23.0476
 21
-20.1071
  0
LINE
  8
0
 10
-23.0476
 20
-20.1071
 11
-23.0351
 21
-20.1359
  0
LINE
  8
0
 10
-23.0351
 20
-20.1359
 11
-23.0245
 21
-20.1655
  0
LINE
  8
0
 10
-23.0245
 20
-20.1655
 11
-23.0157
 21
-20.1956
  0
LINE
  8
0
 10
-23.0157
 20
-20.1956
 11
-23.0089
 21
-20.2263
  0
LINE
  8
0
 10
-23.0089
 20
-20.2263
 11
-23.0039
 21
-20.2573
  0
LINE
  8
0
 10
-23.0039
 20
-20.2573
 11
-23.001
 21
-20.2886
  0
LINE
  8
0
 10
-23.001
 20
-20.2886
 11
-23
 21
-20.32
  0
LINE
  8
0
 10
-23
 20
-20.32
 11
-23.001
 21
-20.3514
  0
LINE
  8
0
 10
-23.001
 20
-20.3514
 11
-23.0039
 21
-20.3827
  0
LINE
  8
0
 10
-23.0039
 20
-20.3827
 11
-23.0089
 21
-20.4137
  0
LINE
  8
0
 10
-23.0089
 20
-20.4137
 11
-23.0157
 21
-20.4443
  0
LINE
  8
0
 10
-23.0157
 20
-20.4443
 11
-23.0245
 21
-20.4745
  0
LINE
  8
0
 10
-23.0245
 20
-20.4745
 11
-23.0351
 21
-20.5041
  0
LINE
  8
0
 10
-23.0351
 20
-20.5041
 11
-23.0476
 21
-20.5329
  0
LINE
  8
0
 10
-23.0476
 20
-20.5329
 11
-23.0618
 21
-20.5609
  0
LINE
  8
0
 10
-23.0618
 20
-20.5609
 11
-23.0778
 21
-20.5879
  0
LINE
  8
0
 10
-23.0778
 20
-20.5879
 11
-23.0955
 21
-20.6139
  0
LINE
  8
0
 10
-23.0955
 20
-20.6139
 11
-23.1147
 21
-20.6387
  0
LINE
  8
0
 10
-23.1147
 20
-20.6387
 11
-23.1355
 21
-20.6623
  0
LINE
  8
0
 10
-23.1355
 20
-20.6623
 11
-23.1577
 21
-20.6845
  0
LINE
  8
0
 10
-23.1577
 20
-20.6845
 11
-23.1813
 21
-20.7052
  0
LINE
  8
0
 10
-23.1813
 20
-20.7052
 11
-23.2061
 21
-20.7245
  0
LINE
  8
0
 10
-23.2061
 20
-20.7245
 11
-23.2321
 21
-20.7422
  0
LINE
  8
0
 10
-23.2321
 20
-20.7422
 11
-23.2591
 21
-20.7581
  0
LINE
  8
0
 10
-23.2591
 20
-20.7581
 11
-23.2871
 21
-20.7724
  0
LINE
  8
0
 10
-23.2871
 20
-20.7724
 11
-23.3159
 21
-20.7849
  0
LINE
  8
0
 10
-23.3159
 20
-20.7849
 11
-23.3455
 21
-20.7955
  0
LINE
  8
0
 10
-23.3455
 20
-20.7955
 11
-23.3757
 21
-20.8043
  0
LINE
  8
0
 10
-23.3757
 20
-20.8043
 11
-23.4063
 21
-20.8111
  0
LINE
  8
0
 10
-23.4063
 20
-20.8111
 11
-23.4373
 21
-20.8161
  0
LINE
  8
0
 10
-23.4373
 20
-20.8161
 11
-23.4686
 21
-20.819
  0
LINE
  8
0
 10
-23.4686
 20
-20.819
 11
-23.5
 21
-20.82
  0
LINE
  8
0
 10
-23.5
 20
-20.82
 11
-23.5314
 21
-20.819
  0
LINE
  8
0
 10
-29.1099
 20
-46.7465
 11
-29.2193
 21
-46.7362
  0
LINE
  8
0
 10
-29.2193
 20
-46.7362
 11
-29.3279
 21
-46.719
  0
LINE
  8
0
 10
-29.3279
 20
-46.719
 11
-29.4352
 21
-46.695
  0
LINE
  8
0
 10
-29.4352
 20
-46.695
 11
-29.5408
 21
-46.6643
  0
LINE
  8
0
 10
-29.5408
 20
-46.6643
 11
-29.6442
 21
-46.6271
  0
LINE
  8
0
 10
-29.6442
 20
-46.6271
 11
-29.7451
 21
-46.5834
  0
LINE
  8
0
 10
-29.7451
 20
-46.5834
 11
-29.8431
 21
-46.5335
  0
LINE
  8
0
 10
-29.8431
 20
-46.5335
 11
-29.9377
 21
-46.4776
  0
LINE
  8
0
 10
-29.9377
 20
-46.4776
 11
-30.0286
 21
-46.4158
  0
LINE
  8
0
 10
-30.0286
 20
-46.4158
 11
-30.1155
 21
-46.3484
  0
LINE
  8
0
 10
-30.1155
 20
-46.3484
 11
-30.198
 21
-46.2757
  0
LINE
  8
0
 10
-30.198
 20
-46.2757
 11
-30.2757
 21
-46.198
  0
LINE
  8
0
 10
-30.2757
 20
-46.198
 11
-30.3484
 21
-46.1155
  0
LINE
  8
0
 10
-30.3484
 20
-46.1155
 11
-30.4158
 21
-46.0286
  0
LINE
  8
0
 10
-30.4158
 20
-46.0286
 11
-30.4776
 21
-45.9377
  0
LINE
  8
0
 10
-30.4776
 20
-45.9377
 11
-30.5335
 21
-45.8431
  0
LINE
  8
0
 10
-30.5335
 20
-45.8431
 11
-30.5834
 21
-45.7451
  0
LINE
  8
0
 10
-30.5834
 20
-45.7451
 11
-30.6271
 21
-45.6442
  0
LINE
  8
0
 10
-30.6271
 20
-45.6442
 11
-30.6643
 21
-45.5408
  0
LINE
  8
0
 10
-30.6643
 20
-45.5408
 11
-30.695
 21
-45.4352
  0
LINE
  8
0
 10
-30.695
 20
-45.4352
 11
-30.719
 21
-45.3279
  0
LINE
  8
0
 10
-30.719
 20
-45.3279
 11
-30.7362
 21
-45.2193
  0
LINE
  8
0
 10
-30.7362
 20
-45.2193
 11
-30.7465
 21
-45.1099
  0
LINE
  8
0
 10
-30.7465
 20
-45.1099
 11
-30.75
 21
-45
  0
LINE
  8
0
 10
-30.75
 20
-45
 11
-30.7465
 21
-44.8901
  0
LINE
  8
0
 10
-30.7465
 20
-44.8901
 11
-30.7362
 21
-44.7807
  0
LINE
  8
0
 10
-30.7362
 20
-44.7807
 11
-30.719
 21
-44.6721
  0
LINE
  8
0
 10
-30.719
 20
-44.6721
 11
-30.695
 21
-44.5648
  0
LINE
  8
0
 10
-30.695
 20
-44.5648
 11
-30.6643
 21
-44.4592
  0
LINE
  8
0
 10
-30.6643
 20
-44.4592
 11
-30.6271
 21
-44.3558
  0
LINE
  8
0
 10
-30.6271
 20
-44.3558
 11
-30.5834
 21
-44.2549
  0
LINE
  8
0
 10
-30.5834
 20
-44.2549
 11
-30.5335
 21
-44.1569
  0
LINE
  8
0
 10
-30.5335
 20
-44.1569
 11
-30.4776
 21
-44.0623
  0
LINE
  8
0
 10
-30.4776
 20
-44.0623
 11
-30.4158
 21
-43.9714
  0
LINE
  8
0
 10
-30.4158
 20
-43.9714
 11
-30.3484
 21
-43.8845
  0
LINE
  8
0
 10
-30.3484
 20
-43.8845
 11
-30.2757
 21
-43.802
  0
LINE
  8
0
 10
-30.2757
 20
-43.802
 11
-30.198
 21
-43.7243
  0
LINE
  8
0
 10
-30.198
 20
-43.7243
 11
-30.1155
 21
-43.6516
  0
LINE
  8
0
 10
-30.1155
 20
-43.6516
 11
-30.0286
 21
-43.5842
  0
LINE
  8
0
 10
-30.0286
 20
-43.5842
 11
-29.9377
 21
-43.5224
  0
LINE
  8
0
 10
-29.9377
 20
-43.5224
 11
-29.8431
 21
-43.4665
  0
LINE
  8
0
 10
-29.8431
 20
-43.4665
 11
-29.7451
 21
-43.4165
  0
LINE
  8
0
 10
-29.7451
 20
-43.4165
 11
-29.6442
 21
-43.3729
  0
LINE
  8
0
 10
-29.6442
 20
-43.3729
 11
-29.5408
 21
-43.3356
  0
LINE
  8
0
 10
-29.5408
 20
-43.3356
 11
-29.4352
 21
-43.305
  0
LINE
  8
0
 10
-29.4352
 20
-43.305
 11
-29.3279
 21
-43.281
  0
LINE
  8
0
 10
-29.3279
 20
-43.281
 11
-29.2193
 21
-43.2638
  0
LINE
  8
0
 10
-29.2193
 20
-43.2638
 11
-29.1099
 21
-43.2534
  0
LINE
  8
0
 10
-29.1099
 20
-43.2534
 11
-29
 21
-43.25
  0
LINE
  8
0
 10
-29
 20
-43.25
 11
-28.8901
 21
-43.2534
  0
LINE
  8
0
 10
-28.8901
 20
-43.2534
 11
-28.7807
 21
-43.2638
  0
LINE
  8
0
 10
-28.7807
 20
-43.2638
 11
-28.6721
 21
-43.281
  0
LINE
  8
0
 10
-28.6721
 20
-43.281
 11
-28.5648
 21
-43.305
  0
LINE
  8
0
 10
-28.5648
 20
-43.305
 11
-28.4592
 21
-43.3356
  0
LINE
  8
0
 10
-28.4592
 20
-43.3356
 11
-28.3558
 21
-43.3729
  0
LINE
  8
0
 10
-28.3558
 20
-43.3729
 11
-28.2549
 21
-43.4165
  0
LINE
  8
0
 10
-28.2549
 20
-43.4165
 11
-28.1569
 21
-43.4665
  0
LINE
  8
0
 10
-28.1569
 20
-43.4665
 11
-28.0623
 21
-43.5224
  0
LINE
  8
0
 10
-28.0623
 20
-43.5224
 11
-27.9714
 21
-43.5842
  0
LINE
  8
0
 10
-27.9714
 20
-43.5842
 11
-27.8845
 21
-43.6516
  0
LINE
  8
0
 10
-27.8845
 20
-43.6516
 11
-27.802
 21
-43.7243
  0
LINE
  8
0
 10
-27.802
 20
-43.7243
 11
-27.7243
 21
-43.802
  0
LINE
  8
0
 10
-27.7243
 20
-43.802
 11
-27.6516
 21
-43.8845
  0
LINE
  8
0
 10
-27.6516
 20
-43.8845
 11
-27.5842
 21
-43.9714
  0
LINE
  8
0
 10
-27.5842
 20
-43.9714
 11
-27.5224
 21
-44.0623
  0
LINE
  8
0
 10
-27.5224
 20
-44.0623
 11
-27.4665
 21
-44.1569
  0
LINE
  8
0
 10
-27.4665
 20
-44.1569
 11
-27.4165
 21
-44.2549
  0
LINE
  8
0
 10
-27.4165
 20
-44.2549
 11
-27.3729
 21
-44.3558
  0
LINE
  8
0
 10
-27.3729
 20
-44.3558
 11
-27.3356
 21
-44.4592
  0
LINE
  8
0
 10
-27.3356
 20
-44.4592
 11
-27.305
 21
-44.5648
  0
LINE
  8
0
 10
-27.305
 20
-44.5648
 11
-27.281
 21
-44.6721
  0
LINE
  8
0
 10
-27.281
 20
-44.6721
 11
-27.2638
 21
-44.7807
  0
LINE
  8
0
 10
-27.2638
 20
-44.7807
 11
-27.2534
 21
-44.8901
  0
LINE
  8
0
 10
-27.2534
 20
-44.8901
 11
-27.25
 21
-45
  0
LINE
  8
0
 10
-27.25
 20
-45
 11
-27.2534
 21
-45.1099
  0
LINE
  8
0
 10
-27.2534
 20
-45.1099
 11
-27.2638
 21
-45.2193
  0
LINE
  8
0
 10
-27.2638
 20
-45.2193
 11
-27.281
 21
-45.3279
  0
LINE
  8
0
 10
-27.281
 20
-45.3279
 11
-27.305
 21
-45.4352
  0
LINE
  8
0
 10
-27.305
 20
-45.4352
 11
-27.3356
 21
-45.5408
  0
LINE
  8
0
 10
-27.3356
 20
-45.5408
 11
-27.3729
 21
-45.6442
  0
LINE
  8
0
 10
-27.3729
 20
-45.6442
 11
-27.4165
 21
-45.7451
  0
LINE
  8
0
 10
-27.4165
 20
-45.7451
 11
-27.4665
 21
-45.8431
  0
LINE
  8
0
 10
-27.4665
 20
-45.8431
 11
-27.5224
 21
-45.9377
  0
LINE
  8
0
 10
-27.5224
 20
-45.9377
 11
-27.5842
 21
-46.0286
  0
LINE
  8
0
 10
-27.5842
 20
-46.0286
 11
-27.6516
 21
-46.1155
  0
LINE
  8
0
 10
-27.6516
 20
-46.1155
 11
-27.7243
 21
-46.198
  0
LINE
  8
0
 10
-27.7243
 20
-46.198
 11
-27.802
 21
-46.2757
  0
LINE
  8
0
 10
-27.802
 20
-46.2757
 11
-27.8845
 21
-46.3484
  0
LINE
  8
0
 10
-27.8845
 20
-46.3484
 11
-27.9714
 21
-46.4158
  0
LINE
  8
0
 10
-27.9714
 20
-46.4158
 11
-28.0623
 21
-46.4776
  0
LINE
  8
0
 10
-28.0623
 20
-46.4776
 11
-28.1569
 21
-46.5335
  0
LINE
  8
0
 10
-28.1569
 20
-46.5335
 11
-28.2549
 21
-46.5834
  0
LINE
  8
0
 10
-28.2549
 20
-46.5834
 11
-28.3558
 21
-46.6271
  0
LINE
  8
0
 10
-28.3558
 20
-46.6271
 11
-28.4592
 21
-46.6643
  0
LINE
  8
0
 10
-28.4592
 20
-46.6643
 11
-28.5648
 21
-46.695
  0
LINE
  8
0
 10
-28.5648
 20
-46.695
 11
-28.6721
 21
-46.719
  0
LINE
  8
0
 10
-28.6721
 20
-46.719
 11
-28.7807
 21
-46.7362
  0
LINE
  8
0
 10
-28.7807
 20
-46.7362
 11
-28.8901
 21
-46.7465
  0
LINE
  8
0
 10
-28.8901
 20
-46.7465
 11
-29
 21
-46.75
  0
LINE
  8
0
 10
-29
 20
-46.75
 11
-29.1099
 21
-46.7465
  0
LINE
  8
0
 10
16.8901
 20
-46.7465
 11
16.7807
 21
-46.7362
  0
LINE
  8
0
 10
16.7807
 20
-46.7362
 11
16.6721
 21
-46.719
  0
LINE
  8
0
 10
16.6721
 20
-46.719
 11
16.5648
 21
-46.695
  0
LINE
  8
0
 10
16.5648
 20
-46.695
 11
16.4592
 21
-46.6643
  0
LINE
  8
0
 10
16.4592
 20
-46.6643
 11
16.3558
 21
-46.6271
  0
LINE
  8
0
 10
16.3558
 20
-46.6271
 11
16.2549
 21
-46.5834
  0
LINE
  8
0
 10
16.2549
 20
-46.5834
 11
16.1569
 21
-46.5335
  0
LINE
  8
0
 10
16.1569
 20
-46.5335
 11
16.0623
 21
-46.4776
  0
LINE
  8
0
 10
16.0623
 20
-46.4776
 11
15.9714
 21
-46.4158
  0
LINE
  8
0
 10
15.9714
 20
-46.4158
 11
15.8845
 21
-46.3484
  0
LINE
  8
0
 10
15.8845
 20
-46.3484
 11
15.802
 21
-46.2757
  0
LINE
  8
0
 10
15.802
 20
-46.2757
 11
15.7243
 21
-46.198
  0
LINE
  8
0
 10
15.7243
 20
-46.198
 11
15.6516
 21
-46.1155
  0
LINE
  8
0
 10
15.6516
 20
-46.1155
 11
15.5842
 21
-46.0286
  0
LINE
  8
0
 10
15.5842
 20
-46.0286
 11
15.5224
 21
-45.9377
  0
LINE
  8
0
 10
15.5224
 20
-45.9377
 11
15.4665
 21
-45.8431
  0
LINE
  8
0
 10
15.4665
 20
-45.8431
 11
15.4165
 21
-45.7451
  0
LINE
  8
0
 10
15.4165
 20
-45.7451
 11
15.3729
 21
-45.6442
  0
LINE
  8
0
 10
15.3729
 20
-45.6442
 11
15.3356
 21
-45.5408
  0
LINE
  8
0
 10
15.3356
 20
-45.5408
 11
15.305
 21
-45.4352
  0
LINE
  8
0
 10
15.305
 20
-45.4352
 11
15.281
 21
-45.3279
  0
LINE
  8
0
 10
15.281
 20
-45.3279
 11
15.2638
 21
-45.2193
  0
LINE
  8
0
 10
15.2638
 20
-45.2193
 11
15.2534
 21
-45.1099
  0
LINE
  8
0
 10
15.2534
 20
-45.1099
 11
15.25
 21
-45
  0
LINE
  8
0
 10
15.25
 20
-45
 11
15.2534
 21
-44.8901
  0
LINE
  8
0
 10
15.2534
 20
-44.8901
 11
15.2638
 21
-44.7807
  0
LINE
  8
0
 10
15.2638
 20
-44.7807
 11
15.281
 21
-44.6721
  0
LINE
  8
0
 10
15.281
 20
-44.6721
 11
15.305
 21
-44.5648
  0
LINE
  8
0
 10
15.305
 20
-44.5648
 11
15.3356
 21
-44.4592
  0
LINE
  8
0
 10
15.3356
 20
-44.4592
 11
15.3729
 21
-44.3558
  0
LINE
  8
0
 10
15.3729
 20
-44.3558
 11
15.4165
 21
-44.2549
  0
LINE
  8
0
 10
15.4165
 20
-44.2549
 11
15.4665
 21
-44.1569
  0
LINE
  8
0
 10
15.4665
 20
-44.1569
 11
15.5224
 21
-44.0623
  0
LINE
  8
0
 10
15.5224
 20
-44.0623
 11
15.5842
 21
-43.9714
  0
LINE
  8
0
 10
15.5842
 20
-43.9714
 11
15.6516
 21
-43.8845
  0
LINE
  8
0
 10
15.6516
 20
-43.8845
 11
15.7243
 21
-43.802
  0
LINE
  8
0
 10
15.7243
 20
-43.802
 11
15.802
 21
-43.7243
  0
LINE
  8
0
 10
15.802
 20
-43.7243
 11
15.8845
 21
-43.6516
  0
LINE
  8
0
 10
15.8845
 20
-43.6516
 11
15.9714
 21
-43.5842
  0
LINE
  8
0
 10
15.9714
 20
-43.5842
 11
16.0623
 21
-43.5224
  0
LINE
  8
0
 10
16.0623
 20
-43.5224
 11
16.1569
 21
-43.4665
  0
LINE
  8
0
 10
16.1569
 20
-43.4665
 11
16.2549
 21
-43.4165
  0
LINE
  8
0
 10
16.2549
 20
-43.4165
 11
16.3558
 21
-43.3729
  0
LINE
  8
0
 10
16.3558
 20
-43.3729
 11
16.4592
 21
-43.3356
  0
LINE
  8
0
 10
16.4592
 20
-43.3356
 11
16.5648
 21
-43.305
  0
LINE
  8
0
 10
16.5648
 20
-43.305
 11
16.6721
 21
-43.281
  0
LINE
  8
0
 10
16.6721
 20
-43.281
 11
16.7807
 21
-43.2638
  0
LINE
  8
0
 10
16.7807
 20
-43.2638
 11
16.8901
 21
-43.2534
  0
LINE
  8
0
 10
16.8901
 20
-43.2534
 11
17
 21
-43.25
  0
LINE
  8
0
 10
17
 20
-43.25
 11
17.1099
 21
-43.2534
  0
LINE
  8
0
 10
17.1099
 20
-43.2534
 11
17.2193
 21
-43.2638
  0
LINE
  8
0
 10
17.2193
 20
-43.2638
 11
17.3279
 21
-43.281
  0
LINE
  8
0
 10
17.3279
 20
-43.281
 11
17.4352
 21
-43.305
  0
LINE
  8
0
 10
17.4352
 20
-43.305
 11
17.5408
 21
-43.3356
  0
LINE
  8
0
 10
17.5408
 20
-43.3356
 11
17.6442
 21
-43.3729
  0
LINE
  8
0
 10
17.6442
 20
-43.3729
 11
17.7451
 21
-43.4165
  0
LINE
  8
0
 10
17.7451
 20
-43.4165
 11
17.8431
 21
-43.4665
  0
LINE
  8
0
 10
17.8431
 20
-43.4665
 11
17.9377
 21
-43.5224
  0
LINE
  8
0
 10
17.9377
 20
-43.5224
 11
18.0286
 21
-43.5842
  0
LINE
  8
0
 10
18.0286
 20
-43.5842
 11
18.1155
 21
-43.6516
  0
LINE
  8
0
 10
18.1155
 20
-43.6516
 11
18.198
 21
-43.7243
  0
LINE
  8
0
 10
18.198
 20
-43.7243
 11
18.2757
 21
-43.802
  0
LINE
  8
0
 10
18.2757
 20
-43.802
 11
18.3484
 21
-43.8845
  0
LINE
  8
0
 10
18.3484
 20
-43.8845
 11
18.4158
 21
-43.9714
  0
LINE
  8
0
 10
18.4158
 20
-43.9714
 11
18.4776
 21
-44.0623
  0
LINE
  8
0
 10
18.4776
 20
-44.0623
 11
18.5335
 21
-44.1569
  0
LINE
  8
0
 10
18.5335
 20
-44.1569
 11
18.5834
 21
-44.2549
  0
LINE
  8
0
 10
18.5834
 20
-44.2549
 11
18.6271
 21
-44.3558
  0
LINE
  8
0
 10
18.6271
 20
-44.3558
 11
18.6643
 21
-44.4592
  0
LINE
  8
0
 10
18.6643
 20
-44.4592
 11
18.695
 21
-44.5648
  0
LINE
  8
0
 10
18.695
 20
-44.5648
 11
18.719
 21
-44.6721
  0
LINE
  8
0
 10
18.719
 20
-44.6721
 11
18.7362
 21
-44.7807
  0
LINE
  8
0
 10
18.7362
 20
-44.7807
 11
18.7465
 21
-44.8901
  0
LINE
  8
0
 10
18.7465
 20
-44.8901
 11
18.75
 21
-45
  0
LINE
  8
0
 10
18.75
 20
-45
 11
18.7465
 21
-45.1099
  0
LINE
  8
0
 10
18.7465
 20
-45.1099
 11
18.7362
 21
-45.2193
  0
LINE
  8
0
 10
18.7362
 20
-45.2193
 11
18.719
 21
-45.3279
  0
LINE
  8
0
 10
18.719
 20
-45.3279
 11
18.695
 21
-45.4352
  0
LINE
  8
0
 10
18.695
 20
-45.4352
 11
18.6643
 21
-45.5408
  0
LINE
  8
0
 10
18.6643
 20
-45.5408
 11
18.6271
 21
-45.6442
  0
LINE
  8
0
 10
18.6271
 20
-45.6442
 11
18.5834
 21
-45.7451
  0
LINE
  8
0
 10
18.5834
 20
-45.7451
 11
18.5335
 21
-45.8431
  0
LINE
  8
0
 10
18.5335
 20
-45.8431
 11
18.4776
 21
-45.9377
  0
LINE
  8
0
 10
18.4776
 20
-45.9377
 11
18.4158
 21
-46.0286
  0
LINE
  8
0
 10
18.4158
 20
-46.0286
 11
18.3484
 21
-46.1155
  0
LINE
  8
0
 10
18.3484
 20
-46.1155
 11
18.2757
 21
-46.198
  0
LINE
  8
0
 10
18.2757
 20
-46.198
 11
18.198
 21
-46.2757
  0
LINE
  8
0
 10
18.198
 20
-46.2757
 11
18.1155
 21
-46.3484
  0
LINE
  8
0
 10
18.1155
 20
-46.3484
 11
18.0286
 21
-46.4158
  0
LINE
  8
0
 10
18.0286
 20
-46.4158
 11
17.9377
 21
-46.4776
  0
LINE
  8
0
 10
17.9377
 20
-46.4776
 11
17.8431
 21
-46.5335
  0
LINE
  8
0
 10
17.8431
 20
-46.5335
 11
17.7451
 21
-46.5834
  0
LINE
  8
0
 10
17.7451
 20
-46.5834
 11
17.6442
 21
-46.6271
  0
LINE
  8
0
 10
17.6442
 20
-46.6271
 11
17.5408
 21
-46.6643
  0
LINE
  8
0
 10
17.5408
 20
-46.6643
 11
17.4352
 21
-46.695
  0
LINE
  8
0
 10
17.4352
 20
-46.695
 11
17.3279
 21
-46.719
  0
LINE
  8
0
 10
17.3279
 20
-46.719
 11
17.2193
 21
-46.7362
  0
LINE
  8
0
 10
17.2193
 20
-46.7362
 11
17.1099
 21
-46.7465
  0
LINE
  8
0
 10
17.1099
 20
-46.7465
 11
17
 21
-46.75
  0
LINE
  8
0
 10
17
 20
-46.75
 11
16.8901
 21
-46.7465
  0
ENDSEC
  0
SECTION
  2
OBJECTS
  0
DICTIONARY
  0
ENDSEC
  0
EOF
