%TF.GenerationSoftware,KiCad,Pcbnew,8.0.6*%
%TF.CreationDate,2024-11-26T08:02:54+01:00*%
%TF.ProjectId,vt2_communicator,7674325f-636f-46d6-9d75-6e696361746f,rev?*%
%TF.SameCoordinates,Original*%
%TF.FileFunction,Drillmap*%
%TF.FilePolarity,Positive*%
%FSLAX45Y45*%
G04 Gerber Fmt 4.5, Leading zero omitted, Abs format (unit mm)*
G04 Created by KiCad (PCBNEW 8.0.6) date 2024-11-26 08:02:54*
%MOMM*%
%LPD*%
G01*
G04 APERTURE LIST*
%ADD10C,0.200000*%
%ADD11C,0.100000*%
%ADD12C,0.320000*%
G04 APERTURE END LIST*
D10*
X14000000Y-4000000D02*
X14000000Y-13900000D01*
X14000000Y-13900000D02*
X20800000Y-13900000D01*
X20800000Y-4000000D02*
X14000000Y-4000000D01*
X20800000Y-13900000D02*
X20800000Y-4000000D01*
D11*
X15625000Y-5720000D02*
X15655000Y-5750000D01*
X15655000Y-5720000D02*
X15625000Y-5750000D01*
X16457500Y-10647500D02*
X16487500Y-10677500D01*
X16487500Y-10647500D02*
X16457500Y-10677500D01*
X16800000Y-10557500D02*
X16830000Y-10587500D01*
X16830000Y-10557500D02*
X16800000Y-10587500D01*
X17132574Y-8330073D02*
X17162574Y-8360073D01*
X17162574Y-8330073D02*
X17132574Y-8360073D01*
X17272500Y-8275000D02*
X17302500Y-8305000D01*
X17302500Y-8275000D02*
X17272500Y-8305000D01*
X17510000Y-11215000D02*
X17540000Y-11245000D01*
X17540000Y-11215000D02*
X17510000Y-11245000D01*
X18345000Y-6167500D02*
X18375000Y-6197500D01*
X18375000Y-6167500D02*
X18345000Y-6197500D01*
X18382500Y-11117500D02*
X18412500Y-11147500D01*
X18412500Y-11117500D02*
X18382500Y-11147500D01*
X18385000Y-10927500D02*
X18415000Y-10957500D01*
X18415000Y-10927500D02*
X18385000Y-10957500D01*
X18399000Y-6235000D02*
X18429000Y-6265000D01*
X18429000Y-6235000D02*
X18399000Y-6265000D01*
X18450000Y-10865000D02*
X18480000Y-10895000D01*
X18480000Y-10865000D02*
X18450000Y-10895000D01*
X18467353Y-11117500D02*
X18497353Y-11147500D01*
X18497353Y-11117500D02*
X18467353Y-11147500D01*
X18641226Y-11442500D02*
X18671226Y-11472500D01*
X18671226Y-11442500D02*
X18641226Y-11472500D01*
X18642500Y-5920000D02*
X18672500Y-5950000D01*
X18672500Y-5920000D02*
X18642500Y-5950000D01*
X18642500Y-6045000D02*
X18672500Y-6075000D01*
X18672500Y-6045000D02*
X18642500Y-6075000D01*
X18795000Y-11370000D02*
X18825000Y-11400000D01*
X18825000Y-11370000D02*
X18795000Y-11400000D01*
X18925000Y-5665000D02*
X18955000Y-5695000D01*
X18955000Y-5665000D02*
X18925000Y-5695000D01*
X19212500Y-7260000D02*
X19242500Y-7290000D01*
X19242500Y-7260000D02*
X19212500Y-7290000D01*
X19355000Y-5792500D02*
X19385000Y-5822500D01*
X19385000Y-5792500D02*
X19355000Y-5822500D01*
X19355000Y-7265000D02*
X19385000Y-7295000D01*
X19385000Y-7265000D02*
X19355000Y-7295000D01*
X15967500Y-5845000D02*
G75*
G02*
X15927500Y-5845000I-20000J0D01*
G01*
X15927500Y-5845000D02*
G75*
G02*
X15967500Y-5845000I20000J0D01*
G01*
X15995000Y-7137500D02*
G75*
G02*
X15955000Y-7137500I-20000J0D01*
G01*
X15955000Y-7137500D02*
G75*
G02*
X15995000Y-7137500I20000J0D01*
G01*
X16455000Y-11377500D02*
G75*
G02*
X16415000Y-11377500I-20000J0D01*
G01*
X16415000Y-11377500D02*
G75*
G02*
X16455000Y-11377500I20000J0D01*
G01*
X16665000Y-5845000D02*
G75*
G02*
X16625000Y-5845000I-20000J0D01*
G01*
X16625000Y-5845000D02*
G75*
G02*
X16665000Y-5845000I20000J0D01*
G01*
X16677500Y-10657500D02*
G75*
G02*
X16637500Y-10657500I-20000J0D01*
G01*
X16637500Y-10657500D02*
G75*
G02*
X16677500Y-10657500I20000J0D01*
G01*
X16762500Y-6920000D02*
G75*
G02*
X16722500Y-6920000I-20000J0D01*
G01*
X16722500Y-6920000D02*
G75*
G02*
X16762500Y-6920000I20000J0D01*
G01*
X16845000Y-11377500D02*
G75*
G02*
X16805000Y-11377500I-20000J0D01*
G01*
X16805000Y-11377500D02*
G75*
G02*
X16845000Y-11377500I20000J0D01*
G01*
X17025000Y-10657500D02*
G75*
G02*
X16985000Y-10657500I-20000J0D01*
G01*
X16985000Y-10657500D02*
G75*
G02*
X17025000Y-10657500I20000J0D01*
G01*
X17102500Y-6655000D02*
G75*
G02*
X17062500Y-6655000I-20000J0D01*
G01*
X17062500Y-6655000D02*
G75*
G02*
X17102500Y-6655000I20000J0D01*
G01*
X17150000Y-6915000D02*
G75*
G02*
X17110000Y-6915000I-20000J0D01*
G01*
X17110000Y-6915000D02*
G75*
G02*
X17150000Y-6915000I20000J0D01*
G01*
X17225000Y-11377500D02*
G75*
G02*
X17185000Y-11377500I-20000J0D01*
G01*
X17185000Y-11377500D02*
G75*
G02*
X17225000Y-11377500I20000J0D01*
G01*
X17377500Y-10657500D02*
G75*
G02*
X17337500Y-10657500I-20000J0D01*
G01*
X17337500Y-10657500D02*
G75*
G02*
X17377500Y-10657500I20000J0D01*
G01*
X17707500Y-5570000D02*
G75*
G02*
X17667500Y-5570000I-20000J0D01*
G01*
X17667500Y-5570000D02*
G75*
G02*
X17707500Y-5570000I20000J0D01*
G01*
X17875000Y-11537500D02*
G75*
G02*
X17835000Y-11537500I-20000J0D01*
G01*
X17835000Y-11537500D02*
G75*
G02*
X17875000Y-11537500I20000J0D01*
G01*
X17915000Y-6920000D02*
G75*
G02*
X17875000Y-6920000I-20000J0D01*
G01*
X17875000Y-6920000D02*
G75*
G02*
X17915000Y-6920000I20000J0D01*
G01*
X18017500Y-11202500D02*
G75*
G02*
X17977500Y-11202500I-20000J0D01*
G01*
X17977500Y-11202500D02*
G75*
G02*
X18017500Y-11202500I20000J0D01*
G01*
X19132500Y-11657500D02*
G75*
G02*
X19092500Y-11657500I-20000J0D01*
G01*
X19092500Y-11657500D02*
G75*
G02*
X19132500Y-11657500I20000J0D01*
G01*
X19142500Y-5510000D02*
G75*
G02*
X19102500Y-5510000I-20000J0D01*
G01*
X19102500Y-5510000D02*
G75*
G02*
X19142500Y-5510000I20000J0D01*
G01*
X19285000Y-5175000D02*
G75*
G02*
X19245000Y-5175000I-20000J0D01*
G01*
X19245000Y-5175000D02*
G75*
G02*
X19285000Y-5175000I20000J0D01*
G01*
X14900000Y-10676000D02*
X14900000Y-10766000D01*
X14855000Y-10721000D02*
X14945000Y-10721000D01*
X14900000Y-10930000D02*
X14900000Y-11020000D01*
X14855000Y-10975000D02*
X14945000Y-10975000D01*
X14905000Y-9921000D02*
X14905000Y-10011000D01*
X14860000Y-9966000D02*
X14950000Y-9966000D01*
X14905000Y-10175000D02*
X14905000Y-10265000D01*
X14860000Y-10220000D02*
X14950000Y-10220000D01*
X14907500Y-7637500D02*
X14907500Y-7727500D01*
X14862500Y-7682500D02*
X14952500Y-7682500D01*
X14907500Y-7891500D02*
X14907500Y-7981500D01*
X14862500Y-7936500D02*
X14952500Y-7936500D01*
X14907500Y-8392500D02*
X14907500Y-8482500D01*
X14862500Y-8437500D02*
X14952500Y-8437500D01*
X14907500Y-8646500D02*
X14907500Y-8736500D01*
X14862500Y-8691500D02*
X14952500Y-8691500D01*
X14910000Y-6876000D02*
X14910000Y-6966000D01*
X14865000Y-6921000D02*
X14955000Y-6921000D01*
X14910000Y-7130000D02*
X14910000Y-7220000D01*
X14865000Y-7175000D02*
X14955000Y-7175000D01*
X14910000Y-9161000D02*
X14910000Y-9251000D01*
X14865000Y-9206000D02*
X14955000Y-9206000D01*
X14910000Y-9415000D02*
X14910000Y-9505000D01*
X14865000Y-9460000D02*
X14955000Y-9460000D01*
X16628588Y-10273588D02*
X16628588Y-10206412D01*
X16561412Y-10206412D01*
X16561412Y-10273588D01*
X16628588Y-10273588D01*
X16878588Y-10273588D02*
X16878588Y-10206412D01*
X16811412Y-10206412D01*
X16811412Y-10273588D01*
X16878588Y-10273588D01*
X17128588Y-10273588D02*
X17128588Y-10206412D01*
X17061412Y-10206412D01*
X17061412Y-10273588D01*
X17128588Y-10273588D01*
X17378588Y-10273588D02*
X17378588Y-10206412D01*
X17311412Y-10206412D01*
X17311412Y-10273588D01*
X17378588Y-10273588D01*
X15814000Y-7692000D02*
X15864000Y-7642000D01*
X15814000Y-7592000D01*
X15764000Y-7642000D01*
X15814000Y-7692000D01*
X15814000Y-9470000D02*
X15864000Y-9420000D01*
X15814000Y-9370000D01*
X15764000Y-9420000D01*
X15814000Y-9470000D01*
X16068000Y-7692000D02*
X16118000Y-7642000D01*
X16068000Y-7592000D01*
X16018000Y-7642000D01*
X16068000Y-7692000D01*
X16068000Y-9470000D02*
X16118000Y-9420000D01*
X16068000Y-9370000D01*
X16018000Y-9420000D01*
X16068000Y-9470000D01*
X16322000Y-7692000D02*
X16372000Y-7642000D01*
X16322000Y-7592000D01*
X16272000Y-7642000D01*
X16322000Y-7692000D01*
X16322000Y-9470000D02*
X16372000Y-9420000D01*
X16322000Y-9370000D01*
X16272000Y-9420000D01*
X16322000Y-9470000D01*
X16576000Y-7692000D02*
X16626000Y-7642000D01*
X16576000Y-7592000D01*
X16526000Y-7642000D01*
X16576000Y-7692000D01*
X16576000Y-9470000D02*
X16626000Y-9420000D01*
X16576000Y-9370000D01*
X16526000Y-9420000D01*
X16576000Y-9470000D01*
X16830000Y-7692000D02*
X16880000Y-7642000D01*
X16830000Y-7592000D01*
X16780000Y-7642000D01*
X16830000Y-7692000D01*
X16830000Y-9470000D02*
X16880000Y-9420000D01*
X16830000Y-9370000D01*
X16780000Y-9420000D01*
X16830000Y-9470000D01*
X17084000Y-7692000D02*
X17134000Y-7642000D01*
X17084000Y-7592000D01*
X17034000Y-7642000D01*
X17084000Y-7692000D01*
X17084000Y-9470000D02*
X17134000Y-9420000D01*
X17084000Y-9370000D01*
X17034000Y-9420000D01*
X17084000Y-9470000D01*
X17338000Y-7692000D02*
X17388000Y-7642000D01*
X17338000Y-7592000D01*
X17288000Y-7642000D01*
X17338000Y-7692000D01*
X17338000Y-9470000D02*
X17388000Y-9420000D01*
X17338000Y-9370000D01*
X17288000Y-9420000D01*
X17338000Y-9470000D01*
X17592000Y-7692000D02*
X17642000Y-7642000D01*
X17592000Y-7592000D01*
X17542000Y-7642000D01*
X17592000Y-7692000D01*
X17592000Y-9470000D02*
X17642000Y-9420000D01*
X17592000Y-9370000D01*
X17542000Y-9420000D01*
X17592000Y-9470000D01*
X17846000Y-7692000D02*
X17896000Y-7642000D01*
X17846000Y-7592000D01*
X17796000Y-7642000D01*
X17846000Y-7692000D01*
X17846000Y-9470000D02*
X17896000Y-9420000D01*
X17846000Y-9370000D01*
X17796000Y-9420000D01*
X17846000Y-9470000D01*
X18100000Y-7692000D02*
X18150000Y-7642000D01*
X18100000Y-7592000D01*
X18050000Y-7642000D01*
X18100000Y-7692000D01*
X18100000Y-9470000D02*
X18150000Y-9420000D01*
X18100000Y-9370000D01*
X18050000Y-9420000D01*
X18100000Y-9470000D01*
X18305000Y-10066000D02*
X18355000Y-10016000D01*
X18305000Y-9966000D01*
X18255000Y-10016000D01*
X18305000Y-10066000D01*
X18305000Y-10320000D02*
X18355000Y-10270000D01*
X18305000Y-10220000D01*
X18255000Y-10270000D01*
X18305000Y-10320000D01*
X18354000Y-7692000D02*
X18404000Y-7642000D01*
X18354000Y-7592000D01*
X18304000Y-7642000D01*
X18354000Y-7692000D01*
X18354000Y-9470000D02*
X18404000Y-9420000D01*
X18354000Y-9370000D01*
X18304000Y-9420000D01*
X18354000Y-9470000D01*
X18560000Y-7090000D02*
X18610000Y-7040000D01*
X18560000Y-6990000D01*
X18510000Y-7040000D01*
X18560000Y-7090000D01*
X18608000Y-7692000D02*
X18658000Y-7642000D01*
X18608000Y-7592000D01*
X18558000Y-7642000D01*
X18608000Y-7692000D01*
X18608000Y-9470000D02*
X18658000Y-9420000D01*
X18608000Y-9370000D01*
X18558000Y-9420000D01*
X18608000Y-9470000D01*
X18685000Y-10066000D02*
X18735000Y-10016000D01*
X18685000Y-9966000D01*
X18635000Y-10016000D01*
X18685000Y-10066000D01*
X18685000Y-10320000D02*
X18735000Y-10270000D01*
X18685000Y-10220000D01*
X18635000Y-10270000D01*
X18685000Y-10320000D01*
X18814000Y-7090000D02*
X18864000Y-7040000D01*
X18814000Y-6990000D01*
X18764000Y-7040000D01*
X18814000Y-7090000D01*
X18862000Y-7692000D02*
X18912000Y-7642000D01*
X18862000Y-7592000D01*
X18812000Y-7642000D01*
X18862000Y-7692000D01*
X18862000Y-9470000D02*
X18912000Y-9420000D01*
X18862000Y-9370000D01*
X18812000Y-9420000D01*
X18862000Y-9470000D01*
X19065000Y-10062500D02*
X19115000Y-10012500D01*
X19065000Y-9962500D01*
X19015000Y-10012500D01*
X19065000Y-10062500D01*
X19065000Y-10316500D02*
X19115000Y-10266500D01*
X19065000Y-10216500D01*
X19015000Y-10266500D01*
X19065000Y-10316500D01*
X19068000Y-7090000D02*
X19118000Y-7040000D01*
X19068000Y-6990000D01*
X19018000Y-7040000D01*
X19068000Y-7090000D01*
X19116000Y-7692000D02*
X19166000Y-7642000D01*
X19116000Y-7592000D01*
X19066000Y-7642000D01*
X19116000Y-7692000D01*
X19116000Y-9470000D02*
X19166000Y-9420000D01*
X19116000Y-9370000D01*
X19066000Y-9420000D01*
X19116000Y-9470000D01*
X19370000Y-7692000D02*
X19420000Y-7642000D01*
X19370000Y-7592000D01*
X19320000Y-7642000D01*
X19370000Y-7692000D01*
X19370000Y-9470000D02*
X19420000Y-9420000D01*
X19370000Y-9370000D01*
X19320000Y-9420000D01*
X19370000Y-9470000D01*
X19536000Y-10925500D02*
X19586000Y-10875500D01*
X19536000Y-10825500D01*
X19486000Y-10875500D01*
X19536000Y-10925500D01*
X19536000Y-11202500D02*
X19586000Y-11152500D01*
X19536000Y-11102500D01*
X19486000Y-11152500D01*
X19536000Y-11202500D01*
X19536000Y-11479500D02*
X19586000Y-11429500D01*
X19536000Y-11379500D01*
X19486000Y-11429500D01*
X19536000Y-11479500D01*
X19536000Y-11756500D02*
X19586000Y-11706500D01*
X19536000Y-11656500D01*
X19486000Y-11706500D01*
X19536000Y-11756500D01*
X19536000Y-12033500D02*
X19586000Y-11983500D01*
X19536000Y-11933500D01*
X19486000Y-11983500D01*
X19536000Y-12033500D01*
X19536000Y-12310500D02*
X19586000Y-12260500D01*
X19536000Y-12210500D01*
X19486000Y-12260500D01*
X19536000Y-12310500D01*
X19536000Y-12587500D02*
X19586000Y-12537500D01*
X19536000Y-12487500D01*
X19486000Y-12537500D01*
X19536000Y-12587500D01*
X19536000Y-12864500D02*
X19586000Y-12814500D01*
X19536000Y-12764500D01*
X19486000Y-12814500D01*
X19536000Y-12864500D01*
X19538000Y-5116000D02*
X19588000Y-5066000D01*
X19538000Y-5016000D01*
X19488000Y-5066000D01*
X19538000Y-5116000D01*
X19538000Y-5393000D02*
X19588000Y-5343000D01*
X19538000Y-5293000D01*
X19488000Y-5343000D01*
X19538000Y-5393000D01*
X19538000Y-5670000D02*
X19588000Y-5620000D01*
X19538000Y-5570000D01*
X19488000Y-5620000D01*
X19538000Y-5670000D01*
X19538000Y-5947000D02*
X19588000Y-5897000D01*
X19538000Y-5847000D01*
X19488000Y-5897000D01*
X19538000Y-5947000D01*
X19538000Y-6224000D02*
X19588000Y-6174000D01*
X19538000Y-6124000D01*
X19488000Y-6174000D01*
X19538000Y-6224000D01*
X19624000Y-7692000D02*
X19674000Y-7642000D01*
X19624000Y-7592000D01*
X19574000Y-7642000D01*
X19624000Y-7692000D01*
X19624000Y-9470000D02*
X19674000Y-9420000D01*
X19624000Y-9370000D01*
X19574000Y-9420000D01*
X19624000Y-9470000D01*
X19820000Y-11064000D02*
X19870000Y-11014000D01*
X19820000Y-10964000D01*
X19770000Y-11014000D01*
X19820000Y-11064000D01*
X19820000Y-11341000D02*
X19870000Y-11291000D01*
X19820000Y-11241000D01*
X19770000Y-11291000D01*
X19820000Y-11341000D01*
X19820000Y-11618000D02*
X19870000Y-11568000D01*
X19820000Y-11518000D01*
X19770000Y-11568000D01*
X19820000Y-11618000D01*
X19820000Y-11895000D02*
X19870000Y-11845000D01*
X19820000Y-11795000D01*
X19770000Y-11845000D01*
X19820000Y-11895000D01*
X19820000Y-12172000D02*
X19870000Y-12122000D01*
X19820000Y-12072000D01*
X19770000Y-12122000D01*
X19820000Y-12172000D01*
X19820000Y-12449000D02*
X19870000Y-12399000D01*
X19820000Y-12349000D01*
X19770000Y-12399000D01*
X19820000Y-12449000D01*
X19820000Y-12726000D02*
X19870000Y-12676000D01*
X19820000Y-12626000D01*
X19770000Y-12676000D01*
X19820000Y-12726000D01*
X19822000Y-5254500D02*
X19872000Y-5204500D01*
X19822000Y-5154500D01*
X19772000Y-5204500D01*
X19822000Y-5254500D01*
X19822000Y-5531500D02*
X19872000Y-5481500D01*
X19822000Y-5431500D01*
X19772000Y-5481500D01*
X19822000Y-5531500D01*
X19822000Y-5808500D02*
X19872000Y-5758500D01*
X19822000Y-5708500D01*
X19772000Y-5758500D01*
X19822000Y-5808500D01*
X19822000Y-6085500D02*
X19872000Y-6035500D01*
X19822000Y-5985500D01*
X19772000Y-6035500D01*
X19822000Y-6085500D01*
X19878000Y-7692000D02*
X19928000Y-7642000D01*
X19878000Y-7592000D01*
X19828000Y-7642000D01*
X19878000Y-7692000D01*
X19878000Y-9470000D02*
X19928000Y-9420000D01*
X19878000Y-9370000D01*
X19828000Y-9420000D01*
X19878000Y-9470000D01*
X20132000Y-7692000D02*
X20182000Y-7642000D01*
X20132000Y-7592000D01*
X20082000Y-7642000D01*
X20132000Y-7692000D01*
X20132000Y-9470000D02*
X20182000Y-9420000D01*
X20132000Y-9370000D01*
X20082000Y-9420000D01*
X20132000Y-9470000D01*
X20386000Y-7692000D02*
X20436000Y-7642000D01*
X20386000Y-7592000D01*
X20336000Y-7642000D01*
X20386000Y-7692000D01*
X20386000Y-9470000D02*
X20436000Y-9420000D01*
X20386000Y-9370000D01*
X20336000Y-9420000D01*
X20386000Y-9470000D01*
X20640000Y-7692000D02*
X20690000Y-7642000D01*
X20640000Y-7592000D01*
X20590000Y-7642000D01*
X20640000Y-7692000D01*
X20640000Y-9470000D02*
X20690000Y-9420000D01*
X20640000Y-9370000D01*
X20590000Y-9420000D01*
X20640000Y-9470000D01*
D12*
X19518000Y-10020000D02*
X19838000Y-10340000D01*
X19838000Y-10020000D02*
X19518000Y-10340000D01*
X19838000Y-10180000D02*
G75*
G02*
X19518000Y-10180000I-160000J0D01*
G01*
X19518000Y-10180000D02*
G75*
G02*
X19838000Y-10180000I160000J0D01*
G01*
X19518000Y-13350000D02*
X19838000Y-13670000D01*
X19838000Y-13350000D02*
X19518000Y-13670000D01*
X19838000Y-13510000D02*
G75*
G02*
X19518000Y-13510000I-160000J0D01*
G01*
X19518000Y-13510000D02*
G75*
G02*
X19838000Y-13510000I160000J0D01*
G01*
X19520000Y-4210000D02*
X19840000Y-4530000D01*
X19840000Y-4210000D02*
X19520000Y-4530000D01*
X19840000Y-4370000D02*
G75*
G02*
X19520000Y-4370000I-160000J0D01*
G01*
X19520000Y-4370000D02*
G75*
G02*
X19840000Y-4370000I160000J0D01*
G01*
X19520000Y-6710000D02*
X19840000Y-7030000D01*
X19840000Y-6710000D02*
X19520000Y-7030000D01*
X19840000Y-6870000D02*
G75*
G02*
X19520000Y-6870000I-160000J0D01*
G01*
X19520000Y-6870000D02*
G75*
G02*
X19840000Y-6870000I160000J0D01*
G01*
D10*
X14250777Y-14221484D02*
X14250777Y-14021484D01*
X14250777Y-14021484D02*
X14298396Y-14021484D01*
X14298396Y-14021484D02*
X14326967Y-14031008D01*
X14326967Y-14031008D02*
X14346015Y-14050055D01*
X14346015Y-14050055D02*
X14355539Y-14069103D01*
X14355539Y-14069103D02*
X14365062Y-14107198D01*
X14365062Y-14107198D02*
X14365062Y-14135769D01*
X14365062Y-14135769D02*
X14355539Y-14173865D01*
X14355539Y-14173865D02*
X14346015Y-14192912D01*
X14346015Y-14192912D02*
X14326967Y-14211960D01*
X14326967Y-14211960D02*
X14298396Y-14221484D01*
X14298396Y-14221484D02*
X14250777Y-14221484D01*
X14450777Y-14221484D02*
X14450777Y-14088150D01*
X14450777Y-14126246D02*
X14460301Y-14107198D01*
X14460301Y-14107198D02*
X14469824Y-14097674D01*
X14469824Y-14097674D02*
X14488872Y-14088150D01*
X14488872Y-14088150D02*
X14507920Y-14088150D01*
X14574586Y-14221484D02*
X14574586Y-14088150D01*
X14574586Y-14021484D02*
X14565062Y-14031008D01*
X14565062Y-14031008D02*
X14574586Y-14040531D01*
X14574586Y-14040531D02*
X14584110Y-14031008D01*
X14584110Y-14031008D02*
X14574586Y-14021484D01*
X14574586Y-14021484D02*
X14574586Y-14040531D01*
X14698396Y-14221484D02*
X14679348Y-14211960D01*
X14679348Y-14211960D02*
X14669824Y-14192912D01*
X14669824Y-14192912D02*
X14669824Y-14021484D01*
X14803158Y-14221484D02*
X14784110Y-14211960D01*
X14784110Y-14211960D02*
X14774586Y-14192912D01*
X14774586Y-14192912D02*
X14774586Y-14021484D01*
X15031729Y-14221484D02*
X15031729Y-14021484D01*
X15031729Y-14021484D02*
X15098396Y-14164341D01*
X15098396Y-14164341D02*
X15165062Y-14021484D01*
X15165062Y-14021484D02*
X15165062Y-14221484D01*
X15346015Y-14221484D02*
X15346015Y-14116722D01*
X15346015Y-14116722D02*
X15336491Y-14097674D01*
X15336491Y-14097674D02*
X15317443Y-14088150D01*
X15317443Y-14088150D02*
X15279348Y-14088150D01*
X15279348Y-14088150D02*
X15260301Y-14097674D01*
X15346015Y-14211960D02*
X15326967Y-14221484D01*
X15326967Y-14221484D02*
X15279348Y-14221484D01*
X15279348Y-14221484D02*
X15260301Y-14211960D01*
X15260301Y-14211960D02*
X15250777Y-14192912D01*
X15250777Y-14192912D02*
X15250777Y-14173865D01*
X15250777Y-14173865D02*
X15260301Y-14154817D01*
X15260301Y-14154817D02*
X15279348Y-14145293D01*
X15279348Y-14145293D02*
X15326967Y-14145293D01*
X15326967Y-14145293D02*
X15346015Y-14135769D01*
X15441253Y-14088150D02*
X15441253Y-14288150D01*
X15441253Y-14097674D02*
X15460301Y-14088150D01*
X15460301Y-14088150D02*
X15498396Y-14088150D01*
X15498396Y-14088150D02*
X15517443Y-14097674D01*
X15517443Y-14097674D02*
X15526967Y-14107198D01*
X15526967Y-14107198D02*
X15536491Y-14126246D01*
X15536491Y-14126246D02*
X15536491Y-14183388D01*
X15536491Y-14183388D02*
X15526967Y-14202436D01*
X15526967Y-14202436D02*
X15517443Y-14211960D01*
X15517443Y-14211960D02*
X15498396Y-14221484D01*
X15498396Y-14221484D02*
X15460301Y-14221484D01*
X15460301Y-14221484D02*
X15441253Y-14211960D01*
X15622205Y-14202436D02*
X15631729Y-14211960D01*
X15631729Y-14211960D02*
X15622205Y-14221484D01*
X15622205Y-14221484D02*
X15612682Y-14211960D01*
X15612682Y-14211960D02*
X15622205Y-14202436D01*
X15622205Y-14202436D02*
X15622205Y-14221484D01*
X15622205Y-14097674D02*
X15631729Y-14107198D01*
X15631729Y-14107198D02*
X15622205Y-14116722D01*
X15622205Y-14116722D02*
X15612682Y-14107198D01*
X15612682Y-14107198D02*
X15622205Y-14097674D01*
X15622205Y-14097674D02*
X15622205Y-14116722D01*
D11*
X13960000Y-14535000D02*
X13990000Y-14565000D01*
X13990000Y-14535000D02*
X13960000Y-14565000D01*
D10*
X14288872Y-14441484D02*
X14307920Y-14441484D01*
X14307920Y-14441484D02*
X14326967Y-14451008D01*
X14326967Y-14451008D02*
X14336491Y-14460531D01*
X14336491Y-14460531D02*
X14346015Y-14479579D01*
X14346015Y-14479579D02*
X14355539Y-14517674D01*
X14355539Y-14517674D02*
X14355539Y-14565293D01*
X14355539Y-14565293D02*
X14346015Y-14603388D01*
X14346015Y-14603388D02*
X14336491Y-14622436D01*
X14336491Y-14622436D02*
X14326967Y-14631960D01*
X14326967Y-14631960D02*
X14307920Y-14641484D01*
X14307920Y-14641484D02*
X14288872Y-14641484D01*
X14288872Y-14641484D02*
X14269824Y-14631960D01*
X14269824Y-14631960D02*
X14260301Y-14622436D01*
X14260301Y-14622436D02*
X14250777Y-14603388D01*
X14250777Y-14603388D02*
X14241253Y-14565293D01*
X14241253Y-14565293D02*
X14241253Y-14517674D01*
X14241253Y-14517674D02*
X14250777Y-14479579D01*
X14250777Y-14479579D02*
X14260301Y-14460531D01*
X14260301Y-14460531D02*
X14269824Y-14451008D01*
X14269824Y-14451008D02*
X14288872Y-14441484D01*
X14441253Y-14622436D02*
X14450777Y-14631960D01*
X14450777Y-14631960D02*
X14441253Y-14641484D01*
X14441253Y-14641484D02*
X14431729Y-14631960D01*
X14431729Y-14631960D02*
X14441253Y-14622436D01*
X14441253Y-14622436D02*
X14441253Y-14641484D01*
X14517443Y-14441484D02*
X14641253Y-14441484D01*
X14641253Y-14441484D02*
X14574586Y-14517674D01*
X14574586Y-14517674D02*
X14603158Y-14517674D01*
X14603158Y-14517674D02*
X14622205Y-14527198D01*
X14622205Y-14527198D02*
X14631729Y-14536722D01*
X14631729Y-14536722D02*
X14641253Y-14555769D01*
X14641253Y-14555769D02*
X14641253Y-14603388D01*
X14641253Y-14603388D02*
X14631729Y-14622436D01*
X14631729Y-14622436D02*
X14622205Y-14631960D01*
X14622205Y-14631960D02*
X14603158Y-14641484D01*
X14603158Y-14641484D02*
X14546015Y-14641484D01*
X14546015Y-14641484D02*
X14526967Y-14631960D01*
X14526967Y-14631960D02*
X14517443Y-14622436D01*
X14765062Y-14441484D02*
X14784110Y-14441484D01*
X14784110Y-14441484D02*
X14803158Y-14451008D01*
X14803158Y-14451008D02*
X14812682Y-14460531D01*
X14812682Y-14460531D02*
X14822205Y-14479579D01*
X14822205Y-14479579D02*
X14831729Y-14517674D01*
X14831729Y-14517674D02*
X14831729Y-14565293D01*
X14831729Y-14565293D02*
X14822205Y-14603388D01*
X14822205Y-14603388D02*
X14812682Y-14622436D01*
X14812682Y-14622436D02*
X14803158Y-14631960D01*
X14803158Y-14631960D02*
X14784110Y-14641484D01*
X14784110Y-14641484D02*
X14765062Y-14641484D01*
X14765062Y-14641484D02*
X14746015Y-14631960D01*
X14746015Y-14631960D02*
X14736491Y-14622436D01*
X14736491Y-14622436D02*
X14726967Y-14603388D01*
X14726967Y-14603388D02*
X14717443Y-14565293D01*
X14717443Y-14565293D02*
X14717443Y-14517674D01*
X14717443Y-14517674D02*
X14726967Y-14479579D01*
X14726967Y-14479579D02*
X14736491Y-14460531D01*
X14736491Y-14460531D02*
X14746015Y-14451008D01*
X14746015Y-14451008D02*
X14765062Y-14441484D01*
X14955539Y-14441484D02*
X14974586Y-14441484D01*
X14974586Y-14441484D02*
X14993634Y-14451008D01*
X14993634Y-14451008D02*
X15003158Y-14460531D01*
X15003158Y-14460531D02*
X15012682Y-14479579D01*
X15012682Y-14479579D02*
X15022205Y-14517674D01*
X15022205Y-14517674D02*
X15022205Y-14565293D01*
X15022205Y-14565293D02*
X15012682Y-14603388D01*
X15012682Y-14603388D02*
X15003158Y-14622436D01*
X15003158Y-14622436D02*
X14993634Y-14631960D01*
X14993634Y-14631960D02*
X14974586Y-14641484D01*
X14974586Y-14641484D02*
X14955539Y-14641484D01*
X14955539Y-14641484D02*
X14936491Y-14631960D01*
X14936491Y-14631960D02*
X14926967Y-14622436D01*
X14926967Y-14622436D02*
X14917443Y-14603388D01*
X14917443Y-14603388D02*
X14907920Y-14565293D01*
X14907920Y-14565293D02*
X14907920Y-14517674D01*
X14907920Y-14517674D02*
X14917443Y-14479579D01*
X14917443Y-14479579D02*
X14926967Y-14460531D01*
X14926967Y-14460531D02*
X14936491Y-14451008D01*
X14936491Y-14451008D02*
X14955539Y-14441484D01*
X15107920Y-14641484D02*
X15107920Y-14508150D01*
X15107920Y-14527198D02*
X15117443Y-14517674D01*
X15117443Y-14517674D02*
X15136491Y-14508150D01*
X15136491Y-14508150D02*
X15165063Y-14508150D01*
X15165063Y-14508150D02*
X15184110Y-14517674D01*
X15184110Y-14517674D02*
X15193634Y-14536722D01*
X15193634Y-14536722D02*
X15193634Y-14641484D01*
X15193634Y-14536722D02*
X15203158Y-14517674D01*
X15203158Y-14517674D02*
X15222205Y-14508150D01*
X15222205Y-14508150D02*
X15250777Y-14508150D01*
X15250777Y-14508150D02*
X15269824Y-14517674D01*
X15269824Y-14517674D02*
X15279348Y-14536722D01*
X15279348Y-14536722D02*
X15279348Y-14641484D01*
X15374586Y-14641484D02*
X15374586Y-14508150D01*
X15374586Y-14527198D02*
X15384110Y-14517674D01*
X15384110Y-14517674D02*
X15403158Y-14508150D01*
X15403158Y-14508150D02*
X15431729Y-14508150D01*
X15431729Y-14508150D02*
X15450777Y-14517674D01*
X15450777Y-14517674D02*
X15460301Y-14536722D01*
X15460301Y-14536722D02*
X15460301Y-14641484D01*
X15460301Y-14536722D02*
X15469824Y-14517674D01*
X15469824Y-14517674D02*
X15488872Y-14508150D01*
X15488872Y-14508150D02*
X15517443Y-14508150D01*
X15517443Y-14508150D02*
X15536491Y-14517674D01*
X15536491Y-14517674D02*
X15546015Y-14536722D01*
X15546015Y-14536722D02*
X15546015Y-14641484D01*
X15936491Y-14431960D02*
X15765063Y-14689103D01*
X16193634Y-14441484D02*
X16212682Y-14441484D01*
X16212682Y-14441484D02*
X16231729Y-14451008D01*
X16231729Y-14451008D02*
X16241253Y-14460531D01*
X16241253Y-14460531D02*
X16250777Y-14479579D01*
X16250777Y-14479579D02*
X16260301Y-14517674D01*
X16260301Y-14517674D02*
X16260301Y-14565293D01*
X16260301Y-14565293D02*
X16250777Y-14603388D01*
X16250777Y-14603388D02*
X16241253Y-14622436D01*
X16241253Y-14622436D02*
X16231729Y-14631960D01*
X16231729Y-14631960D02*
X16212682Y-14641484D01*
X16212682Y-14641484D02*
X16193634Y-14641484D01*
X16193634Y-14641484D02*
X16174586Y-14631960D01*
X16174586Y-14631960D02*
X16165063Y-14622436D01*
X16165063Y-14622436D02*
X16155539Y-14603388D01*
X16155539Y-14603388D02*
X16146015Y-14565293D01*
X16146015Y-14565293D02*
X16146015Y-14517674D01*
X16146015Y-14517674D02*
X16155539Y-14479579D01*
X16155539Y-14479579D02*
X16165063Y-14460531D01*
X16165063Y-14460531D02*
X16174586Y-14451008D01*
X16174586Y-14451008D02*
X16193634Y-14441484D01*
X16346015Y-14622436D02*
X16355539Y-14631960D01*
X16355539Y-14631960D02*
X16346015Y-14641484D01*
X16346015Y-14641484D02*
X16336491Y-14631960D01*
X16336491Y-14631960D02*
X16346015Y-14622436D01*
X16346015Y-14622436D02*
X16346015Y-14641484D01*
X16479348Y-14441484D02*
X16498396Y-14441484D01*
X16498396Y-14441484D02*
X16517444Y-14451008D01*
X16517444Y-14451008D02*
X16526967Y-14460531D01*
X16526967Y-14460531D02*
X16536491Y-14479579D01*
X16536491Y-14479579D02*
X16546015Y-14517674D01*
X16546015Y-14517674D02*
X16546015Y-14565293D01*
X16546015Y-14565293D02*
X16536491Y-14603388D01*
X16536491Y-14603388D02*
X16526967Y-14622436D01*
X16526967Y-14622436D02*
X16517444Y-14631960D01*
X16517444Y-14631960D02*
X16498396Y-14641484D01*
X16498396Y-14641484D02*
X16479348Y-14641484D01*
X16479348Y-14641484D02*
X16460301Y-14631960D01*
X16460301Y-14631960D02*
X16450777Y-14622436D01*
X16450777Y-14622436D02*
X16441253Y-14603388D01*
X16441253Y-14603388D02*
X16431729Y-14565293D01*
X16431729Y-14565293D02*
X16431729Y-14517674D01*
X16431729Y-14517674D02*
X16441253Y-14479579D01*
X16441253Y-14479579D02*
X16450777Y-14460531D01*
X16450777Y-14460531D02*
X16460301Y-14451008D01*
X16460301Y-14451008D02*
X16479348Y-14441484D01*
X16736491Y-14641484D02*
X16622206Y-14641484D01*
X16679348Y-14641484D02*
X16679348Y-14441484D01*
X16679348Y-14441484D02*
X16660301Y-14470055D01*
X16660301Y-14470055D02*
X16641253Y-14489103D01*
X16641253Y-14489103D02*
X16622206Y-14498627D01*
X16926968Y-14641484D02*
X16812682Y-14641484D01*
X16869825Y-14641484D02*
X16869825Y-14441484D01*
X16869825Y-14441484D02*
X16850777Y-14470055D01*
X16850777Y-14470055D02*
X16831729Y-14489103D01*
X16831729Y-14489103D02*
X16812682Y-14498627D01*
X17041253Y-14527198D02*
X17022206Y-14517674D01*
X17022206Y-14517674D02*
X17012682Y-14508150D01*
X17012682Y-14508150D02*
X17003158Y-14489103D01*
X17003158Y-14489103D02*
X17003158Y-14479579D01*
X17003158Y-14479579D02*
X17012682Y-14460531D01*
X17012682Y-14460531D02*
X17022206Y-14451008D01*
X17022206Y-14451008D02*
X17041253Y-14441484D01*
X17041253Y-14441484D02*
X17079349Y-14441484D01*
X17079349Y-14441484D02*
X17098396Y-14451008D01*
X17098396Y-14451008D02*
X17107920Y-14460531D01*
X17107920Y-14460531D02*
X17117444Y-14479579D01*
X17117444Y-14479579D02*
X17117444Y-14489103D01*
X17117444Y-14489103D02*
X17107920Y-14508150D01*
X17107920Y-14508150D02*
X17098396Y-14517674D01*
X17098396Y-14517674D02*
X17079349Y-14527198D01*
X17079349Y-14527198D02*
X17041253Y-14527198D01*
X17041253Y-14527198D02*
X17022206Y-14536722D01*
X17022206Y-14536722D02*
X17012682Y-14546246D01*
X17012682Y-14546246D02*
X17003158Y-14565293D01*
X17003158Y-14565293D02*
X17003158Y-14603388D01*
X17003158Y-14603388D02*
X17012682Y-14622436D01*
X17012682Y-14622436D02*
X17022206Y-14631960D01*
X17022206Y-14631960D02*
X17041253Y-14641484D01*
X17041253Y-14641484D02*
X17079349Y-14641484D01*
X17079349Y-14641484D02*
X17098396Y-14631960D01*
X17098396Y-14631960D02*
X17107920Y-14622436D01*
X17107920Y-14622436D02*
X17117444Y-14603388D01*
X17117444Y-14603388D02*
X17117444Y-14565293D01*
X17117444Y-14565293D02*
X17107920Y-14546246D01*
X17107920Y-14546246D02*
X17098396Y-14536722D01*
X17098396Y-14536722D02*
X17079349Y-14527198D01*
X17193634Y-14441484D02*
X17193634Y-14479579D01*
X17269825Y-14441484D02*
X17269825Y-14479579D01*
X17565063Y-14717674D02*
X17555539Y-14708150D01*
X17555539Y-14708150D02*
X17536491Y-14679579D01*
X17536491Y-14679579D02*
X17526968Y-14660531D01*
X17526968Y-14660531D02*
X17517444Y-14631960D01*
X17517444Y-14631960D02*
X17507920Y-14584341D01*
X17507920Y-14584341D02*
X17507920Y-14546246D01*
X17507920Y-14546246D02*
X17517444Y-14498627D01*
X17517444Y-14498627D02*
X17526968Y-14470055D01*
X17526968Y-14470055D02*
X17536491Y-14451008D01*
X17536491Y-14451008D02*
X17555539Y-14422436D01*
X17555539Y-14422436D02*
X17565063Y-14412912D01*
X17631730Y-14460531D02*
X17641253Y-14451008D01*
X17641253Y-14451008D02*
X17660301Y-14441484D01*
X17660301Y-14441484D02*
X17707920Y-14441484D01*
X17707920Y-14441484D02*
X17726968Y-14451008D01*
X17726968Y-14451008D02*
X17736491Y-14460531D01*
X17736491Y-14460531D02*
X17746015Y-14479579D01*
X17746015Y-14479579D02*
X17746015Y-14498627D01*
X17746015Y-14498627D02*
X17736491Y-14527198D01*
X17736491Y-14527198D02*
X17622206Y-14641484D01*
X17622206Y-14641484D02*
X17746015Y-14641484D01*
X17869825Y-14441484D02*
X17888872Y-14441484D01*
X17888872Y-14441484D02*
X17907920Y-14451008D01*
X17907920Y-14451008D02*
X17917444Y-14460531D01*
X17917444Y-14460531D02*
X17926968Y-14479579D01*
X17926968Y-14479579D02*
X17936491Y-14517674D01*
X17936491Y-14517674D02*
X17936491Y-14565293D01*
X17936491Y-14565293D02*
X17926968Y-14603388D01*
X17926968Y-14603388D02*
X17917444Y-14622436D01*
X17917444Y-14622436D02*
X17907920Y-14631960D01*
X17907920Y-14631960D02*
X17888872Y-14641484D01*
X17888872Y-14641484D02*
X17869825Y-14641484D01*
X17869825Y-14641484D02*
X17850777Y-14631960D01*
X17850777Y-14631960D02*
X17841253Y-14622436D01*
X17841253Y-14622436D02*
X17831730Y-14603388D01*
X17831730Y-14603388D02*
X17822206Y-14565293D01*
X17822206Y-14565293D02*
X17822206Y-14517674D01*
X17822206Y-14517674D02*
X17831730Y-14479579D01*
X17831730Y-14479579D02*
X17841253Y-14460531D01*
X17841253Y-14460531D02*
X17850777Y-14451008D01*
X17850777Y-14451008D02*
X17869825Y-14441484D01*
X18174587Y-14641484D02*
X18174587Y-14441484D01*
X18260301Y-14641484D02*
X18260301Y-14536722D01*
X18260301Y-14536722D02*
X18250777Y-14517674D01*
X18250777Y-14517674D02*
X18231730Y-14508150D01*
X18231730Y-14508150D02*
X18203158Y-14508150D01*
X18203158Y-14508150D02*
X18184111Y-14517674D01*
X18184111Y-14517674D02*
X18174587Y-14527198D01*
X18384111Y-14641484D02*
X18365063Y-14631960D01*
X18365063Y-14631960D02*
X18355539Y-14622436D01*
X18355539Y-14622436D02*
X18346015Y-14603388D01*
X18346015Y-14603388D02*
X18346015Y-14546246D01*
X18346015Y-14546246D02*
X18355539Y-14527198D01*
X18355539Y-14527198D02*
X18365063Y-14517674D01*
X18365063Y-14517674D02*
X18384111Y-14508150D01*
X18384111Y-14508150D02*
X18412682Y-14508150D01*
X18412682Y-14508150D02*
X18431730Y-14517674D01*
X18431730Y-14517674D02*
X18441253Y-14527198D01*
X18441253Y-14527198D02*
X18450777Y-14546246D01*
X18450777Y-14546246D02*
X18450777Y-14603388D01*
X18450777Y-14603388D02*
X18441253Y-14622436D01*
X18441253Y-14622436D02*
X18431730Y-14631960D01*
X18431730Y-14631960D02*
X18412682Y-14641484D01*
X18412682Y-14641484D02*
X18384111Y-14641484D01*
X18565063Y-14641484D02*
X18546015Y-14631960D01*
X18546015Y-14631960D02*
X18536492Y-14612912D01*
X18536492Y-14612912D02*
X18536492Y-14441484D01*
X18717444Y-14631960D02*
X18698396Y-14641484D01*
X18698396Y-14641484D02*
X18660301Y-14641484D01*
X18660301Y-14641484D02*
X18641253Y-14631960D01*
X18641253Y-14631960D02*
X18631730Y-14612912D01*
X18631730Y-14612912D02*
X18631730Y-14536722D01*
X18631730Y-14536722D02*
X18641253Y-14517674D01*
X18641253Y-14517674D02*
X18660301Y-14508150D01*
X18660301Y-14508150D02*
X18698396Y-14508150D01*
X18698396Y-14508150D02*
X18717444Y-14517674D01*
X18717444Y-14517674D02*
X18726968Y-14536722D01*
X18726968Y-14536722D02*
X18726968Y-14555769D01*
X18726968Y-14555769D02*
X18631730Y-14574817D01*
X18803158Y-14631960D02*
X18822206Y-14641484D01*
X18822206Y-14641484D02*
X18860301Y-14641484D01*
X18860301Y-14641484D02*
X18879349Y-14631960D01*
X18879349Y-14631960D02*
X18888873Y-14612912D01*
X18888873Y-14612912D02*
X18888873Y-14603388D01*
X18888873Y-14603388D02*
X18879349Y-14584341D01*
X18879349Y-14584341D02*
X18860301Y-14574817D01*
X18860301Y-14574817D02*
X18831730Y-14574817D01*
X18831730Y-14574817D02*
X18812682Y-14565293D01*
X18812682Y-14565293D02*
X18803158Y-14546246D01*
X18803158Y-14546246D02*
X18803158Y-14536722D01*
X18803158Y-14536722D02*
X18812682Y-14517674D01*
X18812682Y-14517674D02*
X18831730Y-14508150D01*
X18831730Y-14508150D02*
X18860301Y-14508150D01*
X18860301Y-14508150D02*
X18879349Y-14517674D01*
X18955539Y-14717674D02*
X18965063Y-14708150D01*
X18965063Y-14708150D02*
X18984111Y-14679579D01*
X18984111Y-14679579D02*
X18993634Y-14660531D01*
X18993634Y-14660531D02*
X19003158Y-14631960D01*
X19003158Y-14631960D02*
X19012682Y-14584341D01*
X19012682Y-14584341D02*
X19012682Y-14546246D01*
X19012682Y-14546246D02*
X19003158Y-14498627D01*
X19003158Y-14498627D02*
X18993634Y-14470055D01*
X18993634Y-14470055D02*
X18984111Y-14451008D01*
X18984111Y-14451008D02*
X18965063Y-14422436D01*
X18965063Y-14422436D02*
X18955539Y-14412912D01*
D11*
X13990000Y-14814000D02*
G75*
G02*
X13950000Y-14814000I-20000J0D01*
G01*
X13950000Y-14814000D02*
G75*
G02*
X13990000Y-14814000I20000J0D01*
G01*
D10*
X14288872Y-14705484D02*
X14307920Y-14705484D01*
X14307920Y-14705484D02*
X14326967Y-14715008D01*
X14326967Y-14715008D02*
X14336491Y-14724531D01*
X14336491Y-14724531D02*
X14346015Y-14743579D01*
X14346015Y-14743579D02*
X14355539Y-14781674D01*
X14355539Y-14781674D02*
X14355539Y-14829293D01*
X14355539Y-14829293D02*
X14346015Y-14867388D01*
X14346015Y-14867388D02*
X14336491Y-14886436D01*
X14336491Y-14886436D02*
X14326967Y-14895960D01*
X14326967Y-14895960D02*
X14307920Y-14905484D01*
X14307920Y-14905484D02*
X14288872Y-14905484D01*
X14288872Y-14905484D02*
X14269824Y-14895960D01*
X14269824Y-14895960D02*
X14260301Y-14886436D01*
X14260301Y-14886436D02*
X14250777Y-14867388D01*
X14250777Y-14867388D02*
X14241253Y-14829293D01*
X14241253Y-14829293D02*
X14241253Y-14781674D01*
X14241253Y-14781674D02*
X14250777Y-14743579D01*
X14250777Y-14743579D02*
X14260301Y-14724531D01*
X14260301Y-14724531D02*
X14269824Y-14715008D01*
X14269824Y-14715008D02*
X14288872Y-14705484D01*
X14441253Y-14886436D02*
X14450777Y-14895960D01*
X14450777Y-14895960D02*
X14441253Y-14905484D01*
X14441253Y-14905484D02*
X14431729Y-14895960D01*
X14431729Y-14895960D02*
X14441253Y-14886436D01*
X14441253Y-14886436D02*
X14441253Y-14905484D01*
X14622205Y-14772150D02*
X14622205Y-14905484D01*
X14574586Y-14695960D02*
X14526967Y-14838817D01*
X14526967Y-14838817D02*
X14650777Y-14838817D01*
X14765062Y-14705484D02*
X14784110Y-14705484D01*
X14784110Y-14705484D02*
X14803158Y-14715008D01*
X14803158Y-14715008D02*
X14812682Y-14724531D01*
X14812682Y-14724531D02*
X14822205Y-14743579D01*
X14822205Y-14743579D02*
X14831729Y-14781674D01*
X14831729Y-14781674D02*
X14831729Y-14829293D01*
X14831729Y-14829293D02*
X14822205Y-14867388D01*
X14822205Y-14867388D02*
X14812682Y-14886436D01*
X14812682Y-14886436D02*
X14803158Y-14895960D01*
X14803158Y-14895960D02*
X14784110Y-14905484D01*
X14784110Y-14905484D02*
X14765062Y-14905484D01*
X14765062Y-14905484D02*
X14746015Y-14895960D01*
X14746015Y-14895960D02*
X14736491Y-14886436D01*
X14736491Y-14886436D02*
X14726967Y-14867388D01*
X14726967Y-14867388D02*
X14717443Y-14829293D01*
X14717443Y-14829293D02*
X14717443Y-14781674D01*
X14717443Y-14781674D02*
X14726967Y-14743579D01*
X14726967Y-14743579D02*
X14736491Y-14724531D01*
X14736491Y-14724531D02*
X14746015Y-14715008D01*
X14746015Y-14715008D02*
X14765062Y-14705484D01*
X14955539Y-14705484D02*
X14974586Y-14705484D01*
X14974586Y-14705484D02*
X14993634Y-14715008D01*
X14993634Y-14715008D02*
X15003158Y-14724531D01*
X15003158Y-14724531D02*
X15012682Y-14743579D01*
X15012682Y-14743579D02*
X15022205Y-14781674D01*
X15022205Y-14781674D02*
X15022205Y-14829293D01*
X15022205Y-14829293D02*
X15012682Y-14867388D01*
X15012682Y-14867388D02*
X15003158Y-14886436D01*
X15003158Y-14886436D02*
X14993634Y-14895960D01*
X14993634Y-14895960D02*
X14974586Y-14905484D01*
X14974586Y-14905484D02*
X14955539Y-14905484D01*
X14955539Y-14905484D02*
X14936491Y-14895960D01*
X14936491Y-14895960D02*
X14926967Y-14886436D01*
X14926967Y-14886436D02*
X14917443Y-14867388D01*
X14917443Y-14867388D02*
X14907920Y-14829293D01*
X14907920Y-14829293D02*
X14907920Y-14781674D01*
X14907920Y-14781674D02*
X14917443Y-14743579D01*
X14917443Y-14743579D02*
X14926967Y-14724531D01*
X14926967Y-14724531D02*
X14936491Y-14715008D01*
X14936491Y-14715008D02*
X14955539Y-14705484D01*
X15107920Y-14905484D02*
X15107920Y-14772150D01*
X15107920Y-14791198D02*
X15117443Y-14781674D01*
X15117443Y-14781674D02*
X15136491Y-14772150D01*
X15136491Y-14772150D02*
X15165063Y-14772150D01*
X15165063Y-14772150D02*
X15184110Y-14781674D01*
X15184110Y-14781674D02*
X15193634Y-14800722D01*
X15193634Y-14800722D02*
X15193634Y-14905484D01*
X15193634Y-14800722D02*
X15203158Y-14781674D01*
X15203158Y-14781674D02*
X15222205Y-14772150D01*
X15222205Y-14772150D02*
X15250777Y-14772150D01*
X15250777Y-14772150D02*
X15269824Y-14781674D01*
X15269824Y-14781674D02*
X15279348Y-14800722D01*
X15279348Y-14800722D02*
X15279348Y-14905484D01*
X15374586Y-14905484D02*
X15374586Y-14772150D01*
X15374586Y-14791198D02*
X15384110Y-14781674D01*
X15384110Y-14781674D02*
X15403158Y-14772150D01*
X15403158Y-14772150D02*
X15431729Y-14772150D01*
X15431729Y-14772150D02*
X15450777Y-14781674D01*
X15450777Y-14781674D02*
X15460301Y-14800722D01*
X15460301Y-14800722D02*
X15460301Y-14905484D01*
X15460301Y-14800722D02*
X15469824Y-14781674D01*
X15469824Y-14781674D02*
X15488872Y-14772150D01*
X15488872Y-14772150D02*
X15517443Y-14772150D01*
X15517443Y-14772150D02*
X15536491Y-14781674D01*
X15536491Y-14781674D02*
X15546015Y-14800722D01*
X15546015Y-14800722D02*
X15546015Y-14905484D01*
X15936491Y-14695960D02*
X15765063Y-14953103D01*
X16193634Y-14705484D02*
X16212682Y-14705484D01*
X16212682Y-14705484D02*
X16231729Y-14715008D01*
X16231729Y-14715008D02*
X16241253Y-14724531D01*
X16241253Y-14724531D02*
X16250777Y-14743579D01*
X16250777Y-14743579D02*
X16260301Y-14781674D01*
X16260301Y-14781674D02*
X16260301Y-14829293D01*
X16260301Y-14829293D02*
X16250777Y-14867388D01*
X16250777Y-14867388D02*
X16241253Y-14886436D01*
X16241253Y-14886436D02*
X16231729Y-14895960D01*
X16231729Y-14895960D02*
X16212682Y-14905484D01*
X16212682Y-14905484D02*
X16193634Y-14905484D01*
X16193634Y-14905484D02*
X16174586Y-14895960D01*
X16174586Y-14895960D02*
X16165063Y-14886436D01*
X16165063Y-14886436D02*
X16155539Y-14867388D01*
X16155539Y-14867388D02*
X16146015Y-14829293D01*
X16146015Y-14829293D02*
X16146015Y-14781674D01*
X16146015Y-14781674D02*
X16155539Y-14743579D01*
X16155539Y-14743579D02*
X16165063Y-14724531D01*
X16165063Y-14724531D02*
X16174586Y-14715008D01*
X16174586Y-14715008D02*
X16193634Y-14705484D01*
X16346015Y-14886436D02*
X16355539Y-14895960D01*
X16355539Y-14895960D02*
X16346015Y-14905484D01*
X16346015Y-14905484D02*
X16336491Y-14895960D01*
X16336491Y-14895960D02*
X16346015Y-14886436D01*
X16346015Y-14886436D02*
X16346015Y-14905484D01*
X16479348Y-14705484D02*
X16498396Y-14705484D01*
X16498396Y-14705484D02*
X16517444Y-14715008D01*
X16517444Y-14715008D02*
X16526967Y-14724531D01*
X16526967Y-14724531D02*
X16536491Y-14743579D01*
X16536491Y-14743579D02*
X16546015Y-14781674D01*
X16546015Y-14781674D02*
X16546015Y-14829293D01*
X16546015Y-14829293D02*
X16536491Y-14867388D01*
X16536491Y-14867388D02*
X16526967Y-14886436D01*
X16526967Y-14886436D02*
X16517444Y-14895960D01*
X16517444Y-14895960D02*
X16498396Y-14905484D01*
X16498396Y-14905484D02*
X16479348Y-14905484D01*
X16479348Y-14905484D02*
X16460301Y-14895960D01*
X16460301Y-14895960D02*
X16450777Y-14886436D01*
X16450777Y-14886436D02*
X16441253Y-14867388D01*
X16441253Y-14867388D02*
X16431729Y-14829293D01*
X16431729Y-14829293D02*
X16431729Y-14781674D01*
X16431729Y-14781674D02*
X16441253Y-14743579D01*
X16441253Y-14743579D02*
X16450777Y-14724531D01*
X16450777Y-14724531D02*
X16460301Y-14715008D01*
X16460301Y-14715008D02*
X16479348Y-14705484D01*
X16736491Y-14905484D02*
X16622206Y-14905484D01*
X16679348Y-14905484D02*
X16679348Y-14705484D01*
X16679348Y-14705484D02*
X16660301Y-14734055D01*
X16660301Y-14734055D02*
X16641253Y-14753103D01*
X16641253Y-14753103D02*
X16622206Y-14762627D01*
X16917444Y-14705484D02*
X16822206Y-14705484D01*
X16822206Y-14705484D02*
X16812682Y-14800722D01*
X16812682Y-14800722D02*
X16822206Y-14791198D01*
X16822206Y-14791198D02*
X16841253Y-14781674D01*
X16841253Y-14781674D02*
X16888872Y-14781674D01*
X16888872Y-14781674D02*
X16907920Y-14791198D01*
X16907920Y-14791198D02*
X16917444Y-14800722D01*
X16917444Y-14800722D02*
X16926968Y-14819769D01*
X16926968Y-14819769D02*
X16926968Y-14867388D01*
X16926968Y-14867388D02*
X16917444Y-14886436D01*
X16917444Y-14886436D02*
X16907920Y-14895960D01*
X16907920Y-14895960D02*
X16888872Y-14905484D01*
X16888872Y-14905484D02*
X16841253Y-14905484D01*
X16841253Y-14905484D02*
X16822206Y-14895960D01*
X16822206Y-14895960D02*
X16812682Y-14886436D01*
X16993634Y-14705484D02*
X17126968Y-14705484D01*
X17126968Y-14705484D02*
X17041253Y-14905484D01*
X17193634Y-14705484D02*
X17193634Y-14743579D01*
X17269825Y-14705484D02*
X17269825Y-14743579D01*
X17565063Y-14981674D02*
X17555539Y-14972150D01*
X17555539Y-14972150D02*
X17536491Y-14943579D01*
X17536491Y-14943579D02*
X17526968Y-14924531D01*
X17526968Y-14924531D02*
X17517444Y-14895960D01*
X17517444Y-14895960D02*
X17507920Y-14848341D01*
X17507920Y-14848341D02*
X17507920Y-14810246D01*
X17507920Y-14810246D02*
X17517444Y-14762627D01*
X17517444Y-14762627D02*
X17526968Y-14734055D01*
X17526968Y-14734055D02*
X17536491Y-14715008D01*
X17536491Y-14715008D02*
X17555539Y-14686436D01*
X17555539Y-14686436D02*
X17565063Y-14676912D01*
X17746015Y-14905484D02*
X17631730Y-14905484D01*
X17688872Y-14905484D02*
X17688872Y-14705484D01*
X17688872Y-14705484D02*
X17669825Y-14734055D01*
X17669825Y-14734055D02*
X17650777Y-14753103D01*
X17650777Y-14753103D02*
X17631730Y-14762627D01*
X17841253Y-14905484D02*
X17879349Y-14905484D01*
X17879349Y-14905484D02*
X17898396Y-14895960D01*
X17898396Y-14895960D02*
X17907920Y-14886436D01*
X17907920Y-14886436D02*
X17926968Y-14857865D01*
X17926968Y-14857865D02*
X17936491Y-14819769D01*
X17936491Y-14819769D02*
X17936491Y-14743579D01*
X17936491Y-14743579D02*
X17926968Y-14724531D01*
X17926968Y-14724531D02*
X17917444Y-14715008D01*
X17917444Y-14715008D02*
X17898396Y-14705484D01*
X17898396Y-14705484D02*
X17860301Y-14705484D01*
X17860301Y-14705484D02*
X17841253Y-14715008D01*
X17841253Y-14715008D02*
X17831730Y-14724531D01*
X17831730Y-14724531D02*
X17822206Y-14743579D01*
X17822206Y-14743579D02*
X17822206Y-14791198D01*
X17822206Y-14791198D02*
X17831730Y-14810246D01*
X17831730Y-14810246D02*
X17841253Y-14819769D01*
X17841253Y-14819769D02*
X17860301Y-14829293D01*
X17860301Y-14829293D02*
X17898396Y-14829293D01*
X17898396Y-14829293D02*
X17917444Y-14819769D01*
X17917444Y-14819769D02*
X17926968Y-14810246D01*
X17926968Y-14810246D02*
X17936491Y-14791198D01*
X18174587Y-14905484D02*
X18174587Y-14705484D01*
X18260301Y-14905484D02*
X18260301Y-14800722D01*
X18260301Y-14800722D02*
X18250777Y-14781674D01*
X18250777Y-14781674D02*
X18231730Y-14772150D01*
X18231730Y-14772150D02*
X18203158Y-14772150D01*
X18203158Y-14772150D02*
X18184111Y-14781674D01*
X18184111Y-14781674D02*
X18174587Y-14791198D01*
X18384111Y-14905484D02*
X18365063Y-14895960D01*
X18365063Y-14895960D02*
X18355539Y-14886436D01*
X18355539Y-14886436D02*
X18346015Y-14867388D01*
X18346015Y-14867388D02*
X18346015Y-14810246D01*
X18346015Y-14810246D02*
X18355539Y-14791198D01*
X18355539Y-14791198D02*
X18365063Y-14781674D01*
X18365063Y-14781674D02*
X18384111Y-14772150D01*
X18384111Y-14772150D02*
X18412682Y-14772150D01*
X18412682Y-14772150D02*
X18431730Y-14781674D01*
X18431730Y-14781674D02*
X18441253Y-14791198D01*
X18441253Y-14791198D02*
X18450777Y-14810246D01*
X18450777Y-14810246D02*
X18450777Y-14867388D01*
X18450777Y-14867388D02*
X18441253Y-14886436D01*
X18441253Y-14886436D02*
X18431730Y-14895960D01*
X18431730Y-14895960D02*
X18412682Y-14905484D01*
X18412682Y-14905484D02*
X18384111Y-14905484D01*
X18565063Y-14905484D02*
X18546015Y-14895960D01*
X18546015Y-14895960D02*
X18536492Y-14876912D01*
X18536492Y-14876912D02*
X18536492Y-14705484D01*
X18717444Y-14895960D02*
X18698396Y-14905484D01*
X18698396Y-14905484D02*
X18660301Y-14905484D01*
X18660301Y-14905484D02*
X18641253Y-14895960D01*
X18641253Y-14895960D02*
X18631730Y-14876912D01*
X18631730Y-14876912D02*
X18631730Y-14800722D01*
X18631730Y-14800722D02*
X18641253Y-14781674D01*
X18641253Y-14781674D02*
X18660301Y-14772150D01*
X18660301Y-14772150D02*
X18698396Y-14772150D01*
X18698396Y-14772150D02*
X18717444Y-14781674D01*
X18717444Y-14781674D02*
X18726968Y-14800722D01*
X18726968Y-14800722D02*
X18726968Y-14819769D01*
X18726968Y-14819769D02*
X18631730Y-14838817D01*
X18803158Y-14895960D02*
X18822206Y-14905484D01*
X18822206Y-14905484D02*
X18860301Y-14905484D01*
X18860301Y-14905484D02*
X18879349Y-14895960D01*
X18879349Y-14895960D02*
X18888873Y-14876912D01*
X18888873Y-14876912D02*
X18888873Y-14867388D01*
X18888873Y-14867388D02*
X18879349Y-14848341D01*
X18879349Y-14848341D02*
X18860301Y-14838817D01*
X18860301Y-14838817D02*
X18831730Y-14838817D01*
X18831730Y-14838817D02*
X18812682Y-14829293D01*
X18812682Y-14829293D02*
X18803158Y-14810246D01*
X18803158Y-14810246D02*
X18803158Y-14800722D01*
X18803158Y-14800722D02*
X18812682Y-14781674D01*
X18812682Y-14781674D02*
X18831730Y-14772150D01*
X18831730Y-14772150D02*
X18860301Y-14772150D01*
X18860301Y-14772150D02*
X18879349Y-14781674D01*
X18955539Y-14981674D02*
X18965063Y-14972150D01*
X18965063Y-14972150D02*
X18984111Y-14943579D01*
X18984111Y-14943579D02*
X18993634Y-14924531D01*
X18993634Y-14924531D02*
X19003158Y-14895960D01*
X19003158Y-14895960D02*
X19012682Y-14848341D01*
X19012682Y-14848341D02*
X19012682Y-14810246D01*
X19012682Y-14810246D02*
X19003158Y-14762627D01*
X19003158Y-14762627D02*
X18993634Y-14734055D01*
X18993634Y-14734055D02*
X18984111Y-14715008D01*
X18984111Y-14715008D02*
X18965063Y-14686436D01*
X18965063Y-14686436D02*
X18955539Y-14676912D01*
D11*
X13945000Y-15033000D02*
X13945000Y-15123000D01*
X13900000Y-15078000D02*
X13990000Y-15078000D01*
D10*
X14288872Y-14969484D02*
X14307920Y-14969484D01*
X14307920Y-14969484D02*
X14326967Y-14979008D01*
X14326967Y-14979008D02*
X14336491Y-14988531D01*
X14336491Y-14988531D02*
X14346015Y-15007579D01*
X14346015Y-15007579D02*
X14355539Y-15045674D01*
X14355539Y-15045674D02*
X14355539Y-15093293D01*
X14355539Y-15093293D02*
X14346015Y-15131388D01*
X14346015Y-15131388D02*
X14336491Y-15150436D01*
X14336491Y-15150436D02*
X14326967Y-15159960D01*
X14326967Y-15159960D02*
X14307920Y-15169484D01*
X14307920Y-15169484D02*
X14288872Y-15169484D01*
X14288872Y-15169484D02*
X14269824Y-15159960D01*
X14269824Y-15159960D02*
X14260301Y-15150436D01*
X14260301Y-15150436D02*
X14250777Y-15131388D01*
X14250777Y-15131388D02*
X14241253Y-15093293D01*
X14241253Y-15093293D02*
X14241253Y-15045674D01*
X14241253Y-15045674D02*
X14250777Y-15007579D01*
X14250777Y-15007579D02*
X14260301Y-14988531D01*
X14260301Y-14988531D02*
X14269824Y-14979008D01*
X14269824Y-14979008D02*
X14288872Y-14969484D01*
X14441253Y-15150436D02*
X14450777Y-15159960D01*
X14450777Y-15159960D02*
X14441253Y-15169484D01*
X14441253Y-15169484D02*
X14431729Y-15159960D01*
X14431729Y-15159960D02*
X14441253Y-15150436D01*
X14441253Y-15150436D02*
X14441253Y-15169484D01*
X14546015Y-15169484D02*
X14584110Y-15169484D01*
X14584110Y-15169484D02*
X14603158Y-15159960D01*
X14603158Y-15159960D02*
X14612682Y-15150436D01*
X14612682Y-15150436D02*
X14631729Y-15121865D01*
X14631729Y-15121865D02*
X14641253Y-15083769D01*
X14641253Y-15083769D02*
X14641253Y-15007579D01*
X14641253Y-15007579D02*
X14631729Y-14988531D01*
X14631729Y-14988531D02*
X14622205Y-14979008D01*
X14622205Y-14979008D02*
X14603158Y-14969484D01*
X14603158Y-14969484D02*
X14565062Y-14969484D01*
X14565062Y-14969484D02*
X14546015Y-14979008D01*
X14546015Y-14979008D02*
X14536491Y-14988531D01*
X14536491Y-14988531D02*
X14526967Y-15007579D01*
X14526967Y-15007579D02*
X14526967Y-15055198D01*
X14526967Y-15055198D02*
X14536491Y-15074246D01*
X14536491Y-15074246D02*
X14546015Y-15083769D01*
X14546015Y-15083769D02*
X14565062Y-15093293D01*
X14565062Y-15093293D02*
X14603158Y-15093293D01*
X14603158Y-15093293D02*
X14622205Y-15083769D01*
X14622205Y-15083769D02*
X14631729Y-15074246D01*
X14631729Y-15074246D02*
X14641253Y-15055198D01*
X14765062Y-14969484D02*
X14784110Y-14969484D01*
X14784110Y-14969484D02*
X14803158Y-14979008D01*
X14803158Y-14979008D02*
X14812682Y-14988531D01*
X14812682Y-14988531D02*
X14822205Y-15007579D01*
X14822205Y-15007579D02*
X14831729Y-15045674D01*
X14831729Y-15045674D02*
X14831729Y-15093293D01*
X14831729Y-15093293D02*
X14822205Y-15131388D01*
X14822205Y-15131388D02*
X14812682Y-15150436D01*
X14812682Y-15150436D02*
X14803158Y-15159960D01*
X14803158Y-15159960D02*
X14784110Y-15169484D01*
X14784110Y-15169484D02*
X14765062Y-15169484D01*
X14765062Y-15169484D02*
X14746015Y-15159960D01*
X14746015Y-15159960D02*
X14736491Y-15150436D01*
X14736491Y-15150436D02*
X14726967Y-15131388D01*
X14726967Y-15131388D02*
X14717443Y-15093293D01*
X14717443Y-15093293D02*
X14717443Y-15045674D01*
X14717443Y-15045674D02*
X14726967Y-15007579D01*
X14726967Y-15007579D02*
X14736491Y-14988531D01*
X14736491Y-14988531D02*
X14746015Y-14979008D01*
X14746015Y-14979008D02*
X14765062Y-14969484D01*
X14955539Y-14969484D02*
X14974586Y-14969484D01*
X14974586Y-14969484D02*
X14993634Y-14979008D01*
X14993634Y-14979008D02*
X15003158Y-14988531D01*
X15003158Y-14988531D02*
X15012682Y-15007579D01*
X15012682Y-15007579D02*
X15022205Y-15045674D01*
X15022205Y-15045674D02*
X15022205Y-15093293D01*
X15022205Y-15093293D02*
X15012682Y-15131388D01*
X15012682Y-15131388D02*
X15003158Y-15150436D01*
X15003158Y-15150436D02*
X14993634Y-15159960D01*
X14993634Y-15159960D02*
X14974586Y-15169484D01*
X14974586Y-15169484D02*
X14955539Y-15169484D01*
X14955539Y-15169484D02*
X14936491Y-15159960D01*
X14936491Y-15159960D02*
X14926967Y-15150436D01*
X14926967Y-15150436D02*
X14917443Y-15131388D01*
X14917443Y-15131388D02*
X14907920Y-15093293D01*
X14907920Y-15093293D02*
X14907920Y-15045674D01*
X14907920Y-15045674D02*
X14917443Y-15007579D01*
X14917443Y-15007579D02*
X14926967Y-14988531D01*
X14926967Y-14988531D02*
X14936491Y-14979008D01*
X14936491Y-14979008D02*
X14955539Y-14969484D01*
X15107920Y-15169484D02*
X15107920Y-15036150D01*
X15107920Y-15055198D02*
X15117443Y-15045674D01*
X15117443Y-15045674D02*
X15136491Y-15036150D01*
X15136491Y-15036150D02*
X15165063Y-15036150D01*
X15165063Y-15036150D02*
X15184110Y-15045674D01*
X15184110Y-15045674D02*
X15193634Y-15064722D01*
X15193634Y-15064722D02*
X15193634Y-15169484D01*
X15193634Y-15064722D02*
X15203158Y-15045674D01*
X15203158Y-15045674D02*
X15222205Y-15036150D01*
X15222205Y-15036150D02*
X15250777Y-15036150D01*
X15250777Y-15036150D02*
X15269824Y-15045674D01*
X15269824Y-15045674D02*
X15279348Y-15064722D01*
X15279348Y-15064722D02*
X15279348Y-15169484D01*
X15374586Y-15169484D02*
X15374586Y-15036150D01*
X15374586Y-15055198D02*
X15384110Y-15045674D01*
X15384110Y-15045674D02*
X15403158Y-15036150D01*
X15403158Y-15036150D02*
X15431729Y-15036150D01*
X15431729Y-15036150D02*
X15450777Y-15045674D01*
X15450777Y-15045674D02*
X15460301Y-15064722D01*
X15460301Y-15064722D02*
X15460301Y-15169484D01*
X15460301Y-15064722D02*
X15469824Y-15045674D01*
X15469824Y-15045674D02*
X15488872Y-15036150D01*
X15488872Y-15036150D02*
X15517443Y-15036150D01*
X15517443Y-15036150D02*
X15536491Y-15045674D01*
X15536491Y-15045674D02*
X15546015Y-15064722D01*
X15546015Y-15064722D02*
X15546015Y-15169484D01*
X15936491Y-14959960D02*
X15765063Y-15217103D01*
X16193634Y-14969484D02*
X16212682Y-14969484D01*
X16212682Y-14969484D02*
X16231729Y-14979008D01*
X16231729Y-14979008D02*
X16241253Y-14988531D01*
X16241253Y-14988531D02*
X16250777Y-15007579D01*
X16250777Y-15007579D02*
X16260301Y-15045674D01*
X16260301Y-15045674D02*
X16260301Y-15093293D01*
X16260301Y-15093293D02*
X16250777Y-15131388D01*
X16250777Y-15131388D02*
X16241253Y-15150436D01*
X16241253Y-15150436D02*
X16231729Y-15159960D01*
X16231729Y-15159960D02*
X16212682Y-15169484D01*
X16212682Y-15169484D02*
X16193634Y-15169484D01*
X16193634Y-15169484D02*
X16174586Y-15159960D01*
X16174586Y-15159960D02*
X16165063Y-15150436D01*
X16165063Y-15150436D02*
X16155539Y-15131388D01*
X16155539Y-15131388D02*
X16146015Y-15093293D01*
X16146015Y-15093293D02*
X16146015Y-15045674D01*
X16146015Y-15045674D02*
X16155539Y-15007579D01*
X16155539Y-15007579D02*
X16165063Y-14988531D01*
X16165063Y-14988531D02*
X16174586Y-14979008D01*
X16174586Y-14979008D02*
X16193634Y-14969484D01*
X16346015Y-15150436D02*
X16355539Y-15159960D01*
X16355539Y-15159960D02*
X16346015Y-15169484D01*
X16346015Y-15169484D02*
X16336491Y-15159960D01*
X16336491Y-15159960D02*
X16346015Y-15150436D01*
X16346015Y-15150436D02*
X16346015Y-15169484D01*
X16479348Y-14969484D02*
X16498396Y-14969484D01*
X16498396Y-14969484D02*
X16517444Y-14979008D01*
X16517444Y-14979008D02*
X16526967Y-14988531D01*
X16526967Y-14988531D02*
X16536491Y-15007579D01*
X16536491Y-15007579D02*
X16546015Y-15045674D01*
X16546015Y-15045674D02*
X16546015Y-15093293D01*
X16546015Y-15093293D02*
X16536491Y-15131388D01*
X16536491Y-15131388D02*
X16526967Y-15150436D01*
X16526967Y-15150436D02*
X16517444Y-15159960D01*
X16517444Y-15159960D02*
X16498396Y-15169484D01*
X16498396Y-15169484D02*
X16479348Y-15169484D01*
X16479348Y-15169484D02*
X16460301Y-15159960D01*
X16460301Y-15159960D02*
X16450777Y-15150436D01*
X16450777Y-15150436D02*
X16441253Y-15131388D01*
X16441253Y-15131388D02*
X16431729Y-15093293D01*
X16431729Y-15093293D02*
X16431729Y-15045674D01*
X16431729Y-15045674D02*
X16441253Y-15007579D01*
X16441253Y-15007579D02*
X16450777Y-14988531D01*
X16450777Y-14988531D02*
X16460301Y-14979008D01*
X16460301Y-14979008D02*
X16479348Y-14969484D01*
X16612682Y-14969484D02*
X16736491Y-14969484D01*
X16736491Y-14969484D02*
X16669825Y-15045674D01*
X16669825Y-15045674D02*
X16698396Y-15045674D01*
X16698396Y-15045674D02*
X16717444Y-15055198D01*
X16717444Y-15055198D02*
X16726967Y-15064722D01*
X16726967Y-15064722D02*
X16736491Y-15083769D01*
X16736491Y-15083769D02*
X16736491Y-15131388D01*
X16736491Y-15131388D02*
X16726967Y-15150436D01*
X16726967Y-15150436D02*
X16717444Y-15159960D01*
X16717444Y-15159960D02*
X16698396Y-15169484D01*
X16698396Y-15169484D02*
X16641253Y-15169484D01*
X16641253Y-15169484D02*
X16622206Y-15159960D01*
X16622206Y-15159960D02*
X16612682Y-15150436D01*
X16917444Y-14969484D02*
X16822206Y-14969484D01*
X16822206Y-14969484D02*
X16812682Y-15064722D01*
X16812682Y-15064722D02*
X16822206Y-15055198D01*
X16822206Y-15055198D02*
X16841253Y-15045674D01*
X16841253Y-15045674D02*
X16888872Y-15045674D01*
X16888872Y-15045674D02*
X16907920Y-15055198D01*
X16907920Y-15055198D02*
X16917444Y-15064722D01*
X16917444Y-15064722D02*
X16926968Y-15083769D01*
X16926968Y-15083769D02*
X16926968Y-15131388D01*
X16926968Y-15131388D02*
X16917444Y-15150436D01*
X16917444Y-15150436D02*
X16907920Y-15159960D01*
X16907920Y-15159960D02*
X16888872Y-15169484D01*
X16888872Y-15169484D02*
X16841253Y-15169484D01*
X16841253Y-15169484D02*
X16822206Y-15159960D01*
X16822206Y-15159960D02*
X16812682Y-15150436D01*
X17098396Y-15036150D02*
X17098396Y-15169484D01*
X17050777Y-14959960D02*
X17003158Y-15102817D01*
X17003158Y-15102817D02*
X17126968Y-15102817D01*
X17193634Y-14969484D02*
X17193634Y-15007579D01*
X17269825Y-14969484D02*
X17269825Y-15007579D01*
X17565063Y-15245674D02*
X17555539Y-15236150D01*
X17555539Y-15236150D02*
X17536491Y-15207579D01*
X17536491Y-15207579D02*
X17526968Y-15188531D01*
X17526968Y-15188531D02*
X17517444Y-15159960D01*
X17517444Y-15159960D02*
X17507920Y-15112341D01*
X17507920Y-15112341D02*
X17507920Y-15074246D01*
X17507920Y-15074246D02*
X17517444Y-15026627D01*
X17517444Y-15026627D02*
X17526968Y-14998055D01*
X17526968Y-14998055D02*
X17536491Y-14979008D01*
X17536491Y-14979008D02*
X17555539Y-14950436D01*
X17555539Y-14950436D02*
X17565063Y-14940912D01*
X17746015Y-15169484D02*
X17631730Y-15169484D01*
X17688872Y-15169484D02*
X17688872Y-14969484D01*
X17688872Y-14969484D02*
X17669825Y-14998055D01*
X17669825Y-14998055D02*
X17650777Y-15017103D01*
X17650777Y-15017103D02*
X17631730Y-15026627D01*
X17822206Y-14988531D02*
X17831730Y-14979008D01*
X17831730Y-14979008D02*
X17850777Y-14969484D01*
X17850777Y-14969484D02*
X17898396Y-14969484D01*
X17898396Y-14969484D02*
X17917444Y-14979008D01*
X17917444Y-14979008D02*
X17926968Y-14988531D01*
X17926968Y-14988531D02*
X17936491Y-15007579D01*
X17936491Y-15007579D02*
X17936491Y-15026627D01*
X17936491Y-15026627D02*
X17926968Y-15055198D01*
X17926968Y-15055198D02*
X17812682Y-15169484D01*
X17812682Y-15169484D02*
X17936491Y-15169484D01*
X18174587Y-15169484D02*
X18174587Y-14969484D01*
X18260301Y-15169484D02*
X18260301Y-15064722D01*
X18260301Y-15064722D02*
X18250777Y-15045674D01*
X18250777Y-15045674D02*
X18231730Y-15036150D01*
X18231730Y-15036150D02*
X18203158Y-15036150D01*
X18203158Y-15036150D02*
X18184111Y-15045674D01*
X18184111Y-15045674D02*
X18174587Y-15055198D01*
X18384111Y-15169484D02*
X18365063Y-15159960D01*
X18365063Y-15159960D02*
X18355539Y-15150436D01*
X18355539Y-15150436D02*
X18346015Y-15131388D01*
X18346015Y-15131388D02*
X18346015Y-15074246D01*
X18346015Y-15074246D02*
X18355539Y-15055198D01*
X18355539Y-15055198D02*
X18365063Y-15045674D01*
X18365063Y-15045674D02*
X18384111Y-15036150D01*
X18384111Y-15036150D02*
X18412682Y-15036150D01*
X18412682Y-15036150D02*
X18431730Y-15045674D01*
X18431730Y-15045674D02*
X18441253Y-15055198D01*
X18441253Y-15055198D02*
X18450777Y-15074246D01*
X18450777Y-15074246D02*
X18450777Y-15131388D01*
X18450777Y-15131388D02*
X18441253Y-15150436D01*
X18441253Y-15150436D02*
X18431730Y-15159960D01*
X18431730Y-15159960D02*
X18412682Y-15169484D01*
X18412682Y-15169484D02*
X18384111Y-15169484D01*
X18565063Y-15169484D02*
X18546015Y-15159960D01*
X18546015Y-15159960D02*
X18536492Y-15140912D01*
X18536492Y-15140912D02*
X18536492Y-14969484D01*
X18717444Y-15159960D02*
X18698396Y-15169484D01*
X18698396Y-15169484D02*
X18660301Y-15169484D01*
X18660301Y-15169484D02*
X18641253Y-15159960D01*
X18641253Y-15159960D02*
X18631730Y-15140912D01*
X18631730Y-15140912D02*
X18631730Y-15064722D01*
X18631730Y-15064722D02*
X18641253Y-15045674D01*
X18641253Y-15045674D02*
X18660301Y-15036150D01*
X18660301Y-15036150D02*
X18698396Y-15036150D01*
X18698396Y-15036150D02*
X18717444Y-15045674D01*
X18717444Y-15045674D02*
X18726968Y-15064722D01*
X18726968Y-15064722D02*
X18726968Y-15083769D01*
X18726968Y-15083769D02*
X18631730Y-15102817D01*
X18803158Y-15159960D02*
X18822206Y-15169484D01*
X18822206Y-15169484D02*
X18860301Y-15169484D01*
X18860301Y-15169484D02*
X18879349Y-15159960D01*
X18879349Y-15159960D02*
X18888873Y-15140912D01*
X18888873Y-15140912D02*
X18888873Y-15131388D01*
X18888873Y-15131388D02*
X18879349Y-15112341D01*
X18879349Y-15112341D02*
X18860301Y-15102817D01*
X18860301Y-15102817D02*
X18831730Y-15102817D01*
X18831730Y-15102817D02*
X18812682Y-15093293D01*
X18812682Y-15093293D02*
X18803158Y-15074246D01*
X18803158Y-15074246D02*
X18803158Y-15064722D01*
X18803158Y-15064722D02*
X18812682Y-15045674D01*
X18812682Y-15045674D02*
X18831730Y-15036150D01*
X18831730Y-15036150D02*
X18860301Y-15036150D01*
X18860301Y-15036150D02*
X18879349Y-15045674D01*
X18955539Y-15245674D02*
X18965063Y-15236150D01*
X18965063Y-15236150D02*
X18984111Y-15207579D01*
X18984111Y-15207579D02*
X18993634Y-15188531D01*
X18993634Y-15188531D02*
X19003158Y-15159960D01*
X19003158Y-15159960D02*
X19012682Y-15112341D01*
X19012682Y-15112341D02*
X19012682Y-15074246D01*
X19012682Y-15074246D02*
X19003158Y-15026627D01*
X19003158Y-15026627D02*
X18993634Y-14998055D01*
X18993634Y-14998055D02*
X18984111Y-14979008D01*
X18984111Y-14979008D02*
X18965063Y-14950436D01*
X18965063Y-14950436D02*
X18955539Y-14940912D01*
D11*
X13976088Y-15375588D02*
X13976088Y-15308412D01*
X13908912Y-15308412D01*
X13908912Y-15375588D01*
X13976088Y-15375588D01*
D10*
X14288872Y-15233484D02*
X14307920Y-15233484D01*
X14307920Y-15233484D02*
X14326967Y-15243008D01*
X14326967Y-15243008D02*
X14336491Y-15252531D01*
X14336491Y-15252531D02*
X14346015Y-15271579D01*
X14346015Y-15271579D02*
X14355539Y-15309674D01*
X14355539Y-15309674D02*
X14355539Y-15357293D01*
X14355539Y-15357293D02*
X14346015Y-15395388D01*
X14346015Y-15395388D02*
X14336491Y-15414436D01*
X14336491Y-15414436D02*
X14326967Y-15423960D01*
X14326967Y-15423960D02*
X14307920Y-15433484D01*
X14307920Y-15433484D02*
X14288872Y-15433484D01*
X14288872Y-15433484D02*
X14269824Y-15423960D01*
X14269824Y-15423960D02*
X14260301Y-15414436D01*
X14260301Y-15414436D02*
X14250777Y-15395388D01*
X14250777Y-15395388D02*
X14241253Y-15357293D01*
X14241253Y-15357293D02*
X14241253Y-15309674D01*
X14241253Y-15309674D02*
X14250777Y-15271579D01*
X14250777Y-15271579D02*
X14260301Y-15252531D01*
X14260301Y-15252531D02*
X14269824Y-15243008D01*
X14269824Y-15243008D02*
X14288872Y-15233484D01*
X14441253Y-15414436D02*
X14450777Y-15423960D01*
X14450777Y-15423960D02*
X14441253Y-15433484D01*
X14441253Y-15433484D02*
X14431729Y-15423960D01*
X14431729Y-15423960D02*
X14441253Y-15414436D01*
X14441253Y-15414436D02*
X14441253Y-15433484D01*
X14546015Y-15433484D02*
X14584110Y-15433484D01*
X14584110Y-15433484D02*
X14603158Y-15423960D01*
X14603158Y-15423960D02*
X14612682Y-15414436D01*
X14612682Y-15414436D02*
X14631729Y-15385865D01*
X14631729Y-15385865D02*
X14641253Y-15347769D01*
X14641253Y-15347769D02*
X14641253Y-15271579D01*
X14641253Y-15271579D02*
X14631729Y-15252531D01*
X14631729Y-15252531D02*
X14622205Y-15243008D01*
X14622205Y-15243008D02*
X14603158Y-15233484D01*
X14603158Y-15233484D02*
X14565062Y-15233484D01*
X14565062Y-15233484D02*
X14546015Y-15243008D01*
X14546015Y-15243008D02*
X14536491Y-15252531D01*
X14536491Y-15252531D02*
X14526967Y-15271579D01*
X14526967Y-15271579D02*
X14526967Y-15319198D01*
X14526967Y-15319198D02*
X14536491Y-15338246D01*
X14536491Y-15338246D02*
X14546015Y-15347769D01*
X14546015Y-15347769D02*
X14565062Y-15357293D01*
X14565062Y-15357293D02*
X14603158Y-15357293D01*
X14603158Y-15357293D02*
X14622205Y-15347769D01*
X14622205Y-15347769D02*
X14631729Y-15338246D01*
X14631729Y-15338246D02*
X14641253Y-15319198D01*
X14822205Y-15233484D02*
X14726967Y-15233484D01*
X14726967Y-15233484D02*
X14717443Y-15328722D01*
X14717443Y-15328722D02*
X14726967Y-15319198D01*
X14726967Y-15319198D02*
X14746015Y-15309674D01*
X14746015Y-15309674D02*
X14793634Y-15309674D01*
X14793634Y-15309674D02*
X14812682Y-15319198D01*
X14812682Y-15319198D02*
X14822205Y-15328722D01*
X14822205Y-15328722D02*
X14831729Y-15347769D01*
X14831729Y-15347769D02*
X14831729Y-15395388D01*
X14831729Y-15395388D02*
X14822205Y-15414436D01*
X14822205Y-15414436D02*
X14812682Y-15423960D01*
X14812682Y-15423960D02*
X14793634Y-15433484D01*
X14793634Y-15433484D02*
X14746015Y-15433484D01*
X14746015Y-15433484D02*
X14726967Y-15423960D01*
X14726967Y-15423960D02*
X14717443Y-15414436D01*
X14955539Y-15233484D02*
X14974586Y-15233484D01*
X14974586Y-15233484D02*
X14993634Y-15243008D01*
X14993634Y-15243008D02*
X15003158Y-15252531D01*
X15003158Y-15252531D02*
X15012682Y-15271579D01*
X15012682Y-15271579D02*
X15022205Y-15309674D01*
X15022205Y-15309674D02*
X15022205Y-15357293D01*
X15022205Y-15357293D02*
X15012682Y-15395388D01*
X15012682Y-15395388D02*
X15003158Y-15414436D01*
X15003158Y-15414436D02*
X14993634Y-15423960D01*
X14993634Y-15423960D02*
X14974586Y-15433484D01*
X14974586Y-15433484D02*
X14955539Y-15433484D01*
X14955539Y-15433484D02*
X14936491Y-15423960D01*
X14936491Y-15423960D02*
X14926967Y-15414436D01*
X14926967Y-15414436D02*
X14917443Y-15395388D01*
X14917443Y-15395388D02*
X14907920Y-15357293D01*
X14907920Y-15357293D02*
X14907920Y-15309674D01*
X14907920Y-15309674D02*
X14917443Y-15271579D01*
X14917443Y-15271579D02*
X14926967Y-15252531D01*
X14926967Y-15252531D02*
X14936491Y-15243008D01*
X14936491Y-15243008D02*
X14955539Y-15233484D01*
X15107920Y-15433484D02*
X15107920Y-15300150D01*
X15107920Y-15319198D02*
X15117443Y-15309674D01*
X15117443Y-15309674D02*
X15136491Y-15300150D01*
X15136491Y-15300150D02*
X15165063Y-15300150D01*
X15165063Y-15300150D02*
X15184110Y-15309674D01*
X15184110Y-15309674D02*
X15193634Y-15328722D01*
X15193634Y-15328722D02*
X15193634Y-15433484D01*
X15193634Y-15328722D02*
X15203158Y-15309674D01*
X15203158Y-15309674D02*
X15222205Y-15300150D01*
X15222205Y-15300150D02*
X15250777Y-15300150D01*
X15250777Y-15300150D02*
X15269824Y-15309674D01*
X15269824Y-15309674D02*
X15279348Y-15328722D01*
X15279348Y-15328722D02*
X15279348Y-15433484D01*
X15374586Y-15433484D02*
X15374586Y-15300150D01*
X15374586Y-15319198D02*
X15384110Y-15309674D01*
X15384110Y-15309674D02*
X15403158Y-15300150D01*
X15403158Y-15300150D02*
X15431729Y-15300150D01*
X15431729Y-15300150D02*
X15450777Y-15309674D01*
X15450777Y-15309674D02*
X15460301Y-15328722D01*
X15460301Y-15328722D02*
X15460301Y-15433484D01*
X15460301Y-15328722D02*
X15469824Y-15309674D01*
X15469824Y-15309674D02*
X15488872Y-15300150D01*
X15488872Y-15300150D02*
X15517443Y-15300150D01*
X15517443Y-15300150D02*
X15536491Y-15309674D01*
X15536491Y-15309674D02*
X15546015Y-15328722D01*
X15546015Y-15328722D02*
X15546015Y-15433484D01*
X15936491Y-15223960D02*
X15765063Y-15481103D01*
X16193634Y-15233484D02*
X16212682Y-15233484D01*
X16212682Y-15233484D02*
X16231729Y-15243008D01*
X16231729Y-15243008D02*
X16241253Y-15252531D01*
X16241253Y-15252531D02*
X16250777Y-15271579D01*
X16250777Y-15271579D02*
X16260301Y-15309674D01*
X16260301Y-15309674D02*
X16260301Y-15357293D01*
X16260301Y-15357293D02*
X16250777Y-15395388D01*
X16250777Y-15395388D02*
X16241253Y-15414436D01*
X16241253Y-15414436D02*
X16231729Y-15423960D01*
X16231729Y-15423960D02*
X16212682Y-15433484D01*
X16212682Y-15433484D02*
X16193634Y-15433484D01*
X16193634Y-15433484D02*
X16174586Y-15423960D01*
X16174586Y-15423960D02*
X16165063Y-15414436D01*
X16165063Y-15414436D02*
X16155539Y-15395388D01*
X16155539Y-15395388D02*
X16146015Y-15357293D01*
X16146015Y-15357293D02*
X16146015Y-15309674D01*
X16146015Y-15309674D02*
X16155539Y-15271579D01*
X16155539Y-15271579D02*
X16165063Y-15252531D01*
X16165063Y-15252531D02*
X16174586Y-15243008D01*
X16174586Y-15243008D02*
X16193634Y-15233484D01*
X16346015Y-15414436D02*
X16355539Y-15423960D01*
X16355539Y-15423960D02*
X16346015Y-15433484D01*
X16346015Y-15433484D02*
X16336491Y-15423960D01*
X16336491Y-15423960D02*
X16346015Y-15414436D01*
X16346015Y-15414436D02*
X16346015Y-15433484D01*
X16479348Y-15233484D02*
X16498396Y-15233484D01*
X16498396Y-15233484D02*
X16517444Y-15243008D01*
X16517444Y-15243008D02*
X16526967Y-15252531D01*
X16526967Y-15252531D02*
X16536491Y-15271579D01*
X16536491Y-15271579D02*
X16546015Y-15309674D01*
X16546015Y-15309674D02*
X16546015Y-15357293D01*
X16546015Y-15357293D02*
X16536491Y-15395388D01*
X16536491Y-15395388D02*
X16526967Y-15414436D01*
X16526967Y-15414436D02*
X16517444Y-15423960D01*
X16517444Y-15423960D02*
X16498396Y-15433484D01*
X16498396Y-15433484D02*
X16479348Y-15433484D01*
X16479348Y-15433484D02*
X16460301Y-15423960D01*
X16460301Y-15423960D02*
X16450777Y-15414436D01*
X16450777Y-15414436D02*
X16441253Y-15395388D01*
X16441253Y-15395388D02*
X16431729Y-15357293D01*
X16431729Y-15357293D02*
X16431729Y-15309674D01*
X16431729Y-15309674D02*
X16441253Y-15271579D01*
X16441253Y-15271579D02*
X16450777Y-15252531D01*
X16450777Y-15252531D02*
X16460301Y-15243008D01*
X16460301Y-15243008D02*
X16479348Y-15233484D01*
X16612682Y-15233484D02*
X16736491Y-15233484D01*
X16736491Y-15233484D02*
X16669825Y-15309674D01*
X16669825Y-15309674D02*
X16698396Y-15309674D01*
X16698396Y-15309674D02*
X16717444Y-15319198D01*
X16717444Y-15319198D02*
X16726967Y-15328722D01*
X16726967Y-15328722D02*
X16736491Y-15347769D01*
X16736491Y-15347769D02*
X16736491Y-15395388D01*
X16736491Y-15395388D02*
X16726967Y-15414436D01*
X16726967Y-15414436D02*
X16717444Y-15423960D01*
X16717444Y-15423960D02*
X16698396Y-15433484D01*
X16698396Y-15433484D02*
X16641253Y-15433484D01*
X16641253Y-15433484D02*
X16622206Y-15423960D01*
X16622206Y-15423960D02*
X16612682Y-15414436D01*
X16803158Y-15233484D02*
X16936491Y-15233484D01*
X16936491Y-15233484D02*
X16850777Y-15433484D01*
X17098396Y-15300150D02*
X17098396Y-15433484D01*
X17050777Y-15223960D02*
X17003158Y-15366817D01*
X17003158Y-15366817D02*
X17126968Y-15366817D01*
X17193634Y-15233484D02*
X17193634Y-15271579D01*
X17269825Y-15233484D02*
X17269825Y-15271579D01*
X17565063Y-15509674D02*
X17555539Y-15500150D01*
X17555539Y-15500150D02*
X17536491Y-15471579D01*
X17536491Y-15471579D02*
X17526968Y-15452531D01*
X17526968Y-15452531D02*
X17517444Y-15423960D01*
X17517444Y-15423960D02*
X17507920Y-15376341D01*
X17507920Y-15376341D02*
X17507920Y-15338246D01*
X17507920Y-15338246D02*
X17517444Y-15290627D01*
X17517444Y-15290627D02*
X17526968Y-15262055D01*
X17526968Y-15262055D02*
X17536491Y-15243008D01*
X17536491Y-15243008D02*
X17555539Y-15214436D01*
X17555539Y-15214436D02*
X17565063Y-15204912D01*
X17726968Y-15300150D02*
X17726968Y-15433484D01*
X17679349Y-15223960D02*
X17631730Y-15366817D01*
X17631730Y-15366817D02*
X17755539Y-15366817D01*
X17984111Y-15433484D02*
X17984111Y-15233484D01*
X18069825Y-15433484D02*
X18069825Y-15328722D01*
X18069825Y-15328722D02*
X18060301Y-15309674D01*
X18060301Y-15309674D02*
X18041253Y-15300150D01*
X18041253Y-15300150D02*
X18012682Y-15300150D01*
X18012682Y-15300150D02*
X17993634Y-15309674D01*
X17993634Y-15309674D02*
X17984111Y-15319198D01*
X18193634Y-15433484D02*
X18174587Y-15423960D01*
X18174587Y-15423960D02*
X18165063Y-15414436D01*
X18165063Y-15414436D02*
X18155539Y-15395388D01*
X18155539Y-15395388D02*
X18155539Y-15338246D01*
X18155539Y-15338246D02*
X18165063Y-15319198D01*
X18165063Y-15319198D02*
X18174587Y-15309674D01*
X18174587Y-15309674D02*
X18193634Y-15300150D01*
X18193634Y-15300150D02*
X18222206Y-15300150D01*
X18222206Y-15300150D02*
X18241253Y-15309674D01*
X18241253Y-15309674D02*
X18250777Y-15319198D01*
X18250777Y-15319198D02*
X18260301Y-15338246D01*
X18260301Y-15338246D02*
X18260301Y-15395388D01*
X18260301Y-15395388D02*
X18250777Y-15414436D01*
X18250777Y-15414436D02*
X18241253Y-15423960D01*
X18241253Y-15423960D02*
X18222206Y-15433484D01*
X18222206Y-15433484D02*
X18193634Y-15433484D01*
X18374587Y-15433484D02*
X18355539Y-15423960D01*
X18355539Y-15423960D02*
X18346015Y-15404912D01*
X18346015Y-15404912D02*
X18346015Y-15233484D01*
X18526968Y-15423960D02*
X18507920Y-15433484D01*
X18507920Y-15433484D02*
X18469825Y-15433484D01*
X18469825Y-15433484D02*
X18450777Y-15423960D01*
X18450777Y-15423960D02*
X18441253Y-15404912D01*
X18441253Y-15404912D02*
X18441253Y-15328722D01*
X18441253Y-15328722D02*
X18450777Y-15309674D01*
X18450777Y-15309674D02*
X18469825Y-15300150D01*
X18469825Y-15300150D02*
X18507920Y-15300150D01*
X18507920Y-15300150D02*
X18526968Y-15309674D01*
X18526968Y-15309674D02*
X18536492Y-15328722D01*
X18536492Y-15328722D02*
X18536492Y-15347769D01*
X18536492Y-15347769D02*
X18441253Y-15366817D01*
X18612682Y-15423960D02*
X18631730Y-15433484D01*
X18631730Y-15433484D02*
X18669825Y-15433484D01*
X18669825Y-15433484D02*
X18688873Y-15423960D01*
X18688873Y-15423960D02*
X18698396Y-15404912D01*
X18698396Y-15404912D02*
X18698396Y-15395388D01*
X18698396Y-15395388D02*
X18688873Y-15376341D01*
X18688873Y-15376341D02*
X18669825Y-15366817D01*
X18669825Y-15366817D02*
X18641253Y-15366817D01*
X18641253Y-15366817D02*
X18622206Y-15357293D01*
X18622206Y-15357293D02*
X18612682Y-15338246D01*
X18612682Y-15338246D02*
X18612682Y-15328722D01*
X18612682Y-15328722D02*
X18622206Y-15309674D01*
X18622206Y-15309674D02*
X18641253Y-15300150D01*
X18641253Y-15300150D02*
X18669825Y-15300150D01*
X18669825Y-15300150D02*
X18688873Y-15309674D01*
X18765063Y-15509674D02*
X18774587Y-15500150D01*
X18774587Y-15500150D02*
X18793634Y-15471579D01*
X18793634Y-15471579D02*
X18803158Y-15452531D01*
X18803158Y-15452531D02*
X18812682Y-15423960D01*
X18812682Y-15423960D02*
X18822206Y-15376341D01*
X18822206Y-15376341D02*
X18822206Y-15338246D01*
X18822206Y-15338246D02*
X18812682Y-15290627D01*
X18812682Y-15290627D02*
X18803158Y-15262055D01*
X18803158Y-15262055D02*
X18793634Y-15243008D01*
X18793634Y-15243008D02*
X18774587Y-15214436D01*
X18774587Y-15214436D02*
X18765063Y-15204912D01*
D11*
X13940000Y-15656000D02*
X13990000Y-15606000D01*
X13940000Y-15556000D01*
X13890000Y-15606000D01*
X13940000Y-15656000D01*
D10*
X14355539Y-15697484D02*
X14241253Y-15697484D01*
X14298396Y-15697484D02*
X14298396Y-15497484D01*
X14298396Y-15497484D02*
X14279348Y-15526055D01*
X14279348Y-15526055D02*
X14260301Y-15545103D01*
X14260301Y-15545103D02*
X14241253Y-15554627D01*
X14441253Y-15678436D02*
X14450777Y-15687960D01*
X14450777Y-15687960D02*
X14441253Y-15697484D01*
X14441253Y-15697484D02*
X14431729Y-15687960D01*
X14431729Y-15687960D02*
X14441253Y-15678436D01*
X14441253Y-15678436D02*
X14441253Y-15697484D01*
X14574586Y-15497484D02*
X14593634Y-15497484D01*
X14593634Y-15497484D02*
X14612682Y-15507008D01*
X14612682Y-15507008D02*
X14622205Y-15516531D01*
X14622205Y-15516531D02*
X14631729Y-15535579D01*
X14631729Y-15535579D02*
X14641253Y-15573674D01*
X14641253Y-15573674D02*
X14641253Y-15621293D01*
X14641253Y-15621293D02*
X14631729Y-15659388D01*
X14631729Y-15659388D02*
X14622205Y-15678436D01*
X14622205Y-15678436D02*
X14612682Y-15687960D01*
X14612682Y-15687960D02*
X14593634Y-15697484D01*
X14593634Y-15697484D02*
X14574586Y-15697484D01*
X14574586Y-15697484D02*
X14555539Y-15687960D01*
X14555539Y-15687960D02*
X14546015Y-15678436D01*
X14546015Y-15678436D02*
X14536491Y-15659388D01*
X14536491Y-15659388D02*
X14526967Y-15621293D01*
X14526967Y-15621293D02*
X14526967Y-15573674D01*
X14526967Y-15573674D02*
X14536491Y-15535579D01*
X14536491Y-15535579D02*
X14546015Y-15516531D01*
X14546015Y-15516531D02*
X14555539Y-15507008D01*
X14555539Y-15507008D02*
X14574586Y-15497484D01*
X14765062Y-15497484D02*
X14784110Y-15497484D01*
X14784110Y-15497484D02*
X14803158Y-15507008D01*
X14803158Y-15507008D02*
X14812682Y-15516531D01*
X14812682Y-15516531D02*
X14822205Y-15535579D01*
X14822205Y-15535579D02*
X14831729Y-15573674D01*
X14831729Y-15573674D02*
X14831729Y-15621293D01*
X14831729Y-15621293D02*
X14822205Y-15659388D01*
X14822205Y-15659388D02*
X14812682Y-15678436D01*
X14812682Y-15678436D02*
X14803158Y-15687960D01*
X14803158Y-15687960D02*
X14784110Y-15697484D01*
X14784110Y-15697484D02*
X14765062Y-15697484D01*
X14765062Y-15697484D02*
X14746015Y-15687960D01*
X14746015Y-15687960D02*
X14736491Y-15678436D01*
X14736491Y-15678436D02*
X14726967Y-15659388D01*
X14726967Y-15659388D02*
X14717443Y-15621293D01*
X14717443Y-15621293D02*
X14717443Y-15573674D01*
X14717443Y-15573674D02*
X14726967Y-15535579D01*
X14726967Y-15535579D02*
X14736491Y-15516531D01*
X14736491Y-15516531D02*
X14746015Y-15507008D01*
X14746015Y-15507008D02*
X14765062Y-15497484D01*
X14955539Y-15497484D02*
X14974586Y-15497484D01*
X14974586Y-15497484D02*
X14993634Y-15507008D01*
X14993634Y-15507008D02*
X15003158Y-15516531D01*
X15003158Y-15516531D02*
X15012682Y-15535579D01*
X15012682Y-15535579D02*
X15022205Y-15573674D01*
X15022205Y-15573674D02*
X15022205Y-15621293D01*
X15022205Y-15621293D02*
X15012682Y-15659388D01*
X15012682Y-15659388D02*
X15003158Y-15678436D01*
X15003158Y-15678436D02*
X14993634Y-15687960D01*
X14993634Y-15687960D02*
X14974586Y-15697484D01*
X14974586Y-15697484D02*
X14955539Y-15697484D01*
X14955539Y-15697484D02*
X14936491Y-15687960D01*
X14936491Y-15687960D02*
X14926967Y-15678436D01*
X14926967Y-15678436D02*
X14917443Y-15659388D01*
X14917443Y-15659388D02*
X14907920Y-15621293D01*
X14907920Y-15621293D02*
X14907920Y-15573674D01*
X14907920Y-15573674D02*
X14917443Y-15535579D01*
X14917443Y-15535579D02*
X14926967Y-15516531D01*
X14926967Y-15516531D02*
X14936491Y-15507008D01*
X14936491Y-15507008D02*
X14955539Y-15497484D01*
X15107920Y-15697484D02*
X15107920Y-15564150D01*
X15107920Y-15583198D02*
X15117443Y-15573674D01*
X15117443Y-15573674D02*
X15136491Y-15564150D01*
X15136491Y-15564150D02*
X15165063Y-15564150D01*
X15165063Y-15564150D02*
X15184110Y-15573674D01*
X15184110Y-15573674D02*
X15193634Y-15592722D01*
X15193634Y-15592722D02*
X15193634Y-15697484D01*
X15193634Y-15592722D02*
X15203158Y-15573674D01*
X15203158Y-15573674D02*
X15222205Y-15564150D01*
X15222205Y-15564150D02*
X15250777Y-15564150D01*
X15250777Y-15564150D02*
X15269824Y-15573674D01*
X15269824Y-15573674D02*
X15279348Y-15592722D01*
X15279348Y-15592722D02*
X15279348Y-15697484D01*
X15374586Y-15697484D02*
X15374586Y-15564150D01*
X15374586Y-15583198D02*
X15384110Y-15573674D01*
X15384110Y-15573674D02*
X15403158Y-15564150D01*
X15403158Y-15564150D02*
X15431729Y-15564150D01*
X15431729Y-15564150D02*
X15450777Y-15573674D01*
X15450777Y-15573674D02*
X15460301Y-15592722D01*
X15460301Y-15592722D02*
X15460301Y-15697484D01*
X15460301Y-15592722D02*
X15469824Y-15573674D01*
X15469824Y-15573674D02*
X15488872Y-15564150D01*
X15488872Y-15564150D02*
X15517443Y-15564150D01*
X15517443Y-15564150D02*
X15536491Y-15573674D01*
X15536491Y-15573674D02*
X15546015Y-15592722D01*
X15546015Y-15592722D02*
X15546015Y-15697484D01*
X15936491Y-15487960D02*
X15765063Y-15745103D01*
X16193634Y-15497484D02*
X16212682Y-15497484D01*
X16212682Y-15497484D02*
X16231729Y-15507008D01*
X16231729Y-15507008D02*
X16241253Y-15516531D01*
X16241253Y-15516531D02*
X16250777Y-15535579D01*
X16250777Y-15535579D02*
X16260301Y-15573674D01*
X16260301Y-15573674D02*
X16260301Y-15621293D01*
X16260301Y-15621293D02*
X16250777Y-15659388D01*
X16250777Y-15659388D02*
X16241253Y-15678436D01*
X16241253Y-15678436D02*
X16231729Y-15687960D01*
X16231729Y-15687960D02*
X16212682Y-15697484D01*
X16212682Y-15697484D02*
X16193634Y-15697484D01*
X16193634Y-15697484D02*
X16174586Y-15687960D01*
X16174586Y-15687960D02*
X16165063Y-15678436D01*
X16165063Y-15678436D02*
X16155539Y-15659388D01*
X16155539Y-15659388D02*
X16146015Y-15621293D01*
X16146015Y-15621293D02*
X16146015Y-15573674D01*
X16146015Y-15573674D02*
X16155539Y-15535579D01*
X16155539Y-15535579D02*
X16165063Y-15516531D01*
X16165063Y-15516531D02*
X16174586Y-15507008D01*
X16174586Y-15507008D02*
X16193634Y-15497484D01*
X16346015Y-15678436D02*
X16355539Y-15687960D01*
X16355539Y-15687960D02*
X16346015Y-15697484D01*
X16346015Y-15697484D02*
X16336491Y-15687960D01*
X16336491Y-15687960D02*
X16346015Y-15678436D01*
X16346015Y-15678436D02*
X16346015Y-15697484D01*
X16479348Y-15497484D02*
X16498396Y-15497484D01*
X16498396Y-15497484D02*
X16517444Y-15507008D01*
X16517444Y-15507008D02*
X16526967Y-15516531D01*
X16526967Y-15516531D02*
X16536491Y-15535579D01*
X16536491Y-15535579D02*
X16546015Y-15573674D01*
X16546015Y-15573674D02*
X16546015Y-15621293D01*
X16546015Y-15621293D02*
X16536491Y-15659388D01*
X16536491Y-15659388D02*
X16526967Y-15678436D01*
X16526967Y-15678436D02*
X16517444Y-15687960D01*
X16517444Y-15687960D02*
X16498396Y-15697484D01*
X16498396Y-15697484D02*
X16479348Y-15697484D01*
X16479348Y-15697484D02*
X16460301Y-15687960D01*
X16460301Y-15687960D02*
X16450777Y-15678436D01*
X16450777Y-15678436D02*
X16441253Y-15659388D01*
X16441253Y-15659388D02*
X16431729Y-15621293D01*
X16431729Y-15621293D02*
X16431729Y-15573674D01*
X16431729Y-15573674D02*
X16441253Y-15535579D01*
X16441253Y-15535579D02*
X16450777Y-15516531D01*
X16450777Y-15516531D02*
X16460301Y-15507008D01*
X16460301Y-15507008D02*
X16479348Y-15497484D01*
X16612682Y-15497484D02*
X16736491Y-15497484D01*
X16736491Y-15497484D02*
X16669825Y-15573674D01*
X16669825Y-15573674D02*
X16698396Y-15573674D01*
X16698396Y-15573674D02*
X16717444Y-15583198D01*
X16717444Y-15583198D02*
X16726967Y-15592722D01*
X16726967Y-15592722D02*
X16736491Y-15611769D01*
X16736491Y-15611769D02*
X16736491Y-15659388D01*
X16736491Y-15659388D02*
X16726967Y-15678436D01*
X16726967Y-15678436D02*
X16717444Y-15687960D01*
X16717444Y-15687960D02*
X16698396Y-15697484D01*
X16698396Y-15697484D02*
X16641253Y-15697484D01*
X16641253Y-15697484D02*
X16622206Y-15687960D01*
X16622206Y-15687960D02*
X16612682Y-15678436D01*
X16831729Y-15697484D02*
X16869825Y-15697484D01*
X16869825Y-15697484D02*
X16888872Y-15687960D01*
X16888872Y-15687960D02*
X16898396Y-15678436D01*
X16898396Y-15678436D02*
X16917444Y-15649865D01*
X16917444Y-15649865D02*
X16926968Y-15611769D01*
X16926968Y-15611769D02*
X16926968Y-15535579D01*
X16926968Y-15535579D02*
X16917444Y-15516531D01*
X16917444Y-15516531D02*
X16907920Y-15507008D01*
X16907920Y-15507008D02*
X16888872Y-15497484D01*
X16888872Y-15497484D02*
X16850777Y-15497484D01*
X16850777Y-15497484D02*
X16831729Y-15507008D01*
X16831729Y-15507008D02*
X16822206Y-15516531D01*
X16822206Y-15516531D02*
X16812682Y-15535579D01*
X16812682Y-15535579D02*
X16812682Y-15583198D01*
X16812682Y-15583198D02*
X16822206Y-15602246D01*
X16822206Y-15602246D02*
X16831729Y-15611769D01*
X16831729Y-15611769D02*
X16850777Y-15621293D01*
X16850777Y-15621293D02*
X16888872Y-15621293D01*
X16888872Y-15621293D02*
X16907920Y-15611769D01*
X16907920Y-15611769D02*
X16917444Y-15602246D01*
X16917444Y-15602246D02*
X16926968Y-15583198D01*
X17098396Y-15564150D02*
X17098396Y-15697484D01*
X17050777Y-15487960D02*
X17003158Y-15630817D01*
X17003158Y-15630817D02*
X17126968Y-15630817D01*
X17193634Y-15497484D02*
X17193634Y-15535579D01*
X17269825Y-15497484D02*
X17269825Y-15535579D01*
X17565063Y-15773674D02*
X17555539Y-15764150D01*
X17555539Y-15764150D02*
X17536491Y-15735579D01*
X17536491Y-15735579D02*
X17526968Y-15716531D01*
X17526968Y-15716531D02*
X17517444Y-15687960D01*
X17517444Y-15687960D02*
X17507920Y-15640341D01*
X17507920Y-15640341D02*
X17507920Y-15602246D01*
X17507920Y-15602246D02*
X17517444Y-15554627D01*
X17517444Y-15554627D02*
X17526968Y-15526055D01*
X17526968Y-15526055D02*
X17536491Y-15507008D01*
X17536491Y-15507008D02*
X17555539Y-15478436D01*
X17555539Y-15478436D02*
X17565063Y-15468912D01*
X17622206Y-15497484D02*
X17755539Y-15497484D01*
X17755539Y-15497484D02*
X17669825Y-15697484D01*
X17812682Y-15497484D02*
X17936491Y-15497484D01*
X17936491Y-15497484D02*
X17869825Y-15573674D01*
X17869825Y-15573674D02*
X17898396Y-15573674D01*
X17898396Y-15573674D02*
X17917444Y-15583198D01*
X17917444Y-15583198D02*
X17926968Y-15592722D01*
X17926968Y-15592722D02*
X17936491Y-15611769D01*
X17936491Y-15611769D02*
X17936491Y-15659388D01*
X17936491Y-15659388D02*
X17926968Y-15678436D01*
X17926968Y-15678436D02*
X17917444Y-15687960D01*
X17917444Y-15687960D02*
X17898396Y-15697484D01*
X17898396Y-15697484D02*
X17841253Y-15697484D01*
X17841253Y-15697484D02*
X17822206Y-15687960D01*
X17822206Y-15687960D02*
X17812682Y-15678436D01*
X18174587Y-15697484D02*
X18174587Y-15497484D01*
X18260301Y-15697484D02*
X18260301Y-15592722D01*
X18260301Y-15592722D02*
X18250777Y-15573674D01*
X18250777Y-15573674D02*
X18231730Y-15564150D01*
X18231730Y-15564150D02*
X18203158Y-15564150D01*
X18203158Y-15564150D02*
X18184111Y-15573674D01*
X18184111Y-15573674D02*
X18174587Y-15583198D01*
X18384111Y-15697484D02*
X18365063Y-15687960D01*
X18365063Y-15687960D02*
X18355539Y-15678436D01*
X18355539Y-15678436D02*
X18346015Y-15659388D01*
X18346015Y-15659388D02*
X18346015Y-15602246D01*
X18346015Y-15602246D02*
X18355539Y-15583198D01*
X18355539Y-15583198D02*
X18365063Y-15573674D01*
X18365063Y-15573674D02*
X18384111Y-15564150D01*
X18384111Y-15564150D02*
X18412682Y-15564150D01*
X18412682Y-15564150D02*
X18431730Y-15573674D01*
X18431730Y-15573674D02*
X18441253Y-15583198D01*
X18441253Y-15583198D02*
X18450777Y-15602246D01*
X18450777Y-15602246D02*
X18450777Y-15659388D01*
X18450777Y-15659388D02*
X18441253Y-15678436D01*
X18441253Y-15678436D02*
X18431730Y-15687960D01*
X18431730Y-15687960D02*
X18412682Y-15697484D01*
X18412682Y-15697484D02*
X18384111Y-15697484D01*
X18565063Y-15697484D02*
X18546015Y-15687960D01*
X18546015Y-15687960D02*
X18536492Y-15668912D01*
X18536492Y-15668912D02*
X18536492Y-15497484D01*
X18717444Y-15687960D02*
X18698396Y-15697484D01*
X18698396Y-15697484D02*
X18660301Y-15697484D01*
X18660301Y-15697484D02*
X18641253Y-15687960D01*
X18641253Y-15687960D02*
X18631730Y-15668912D01*
X18631730Y-15668912D02*
X18631730Y-15592722D01*
X18631730Y-15592722D02*
X18641253Y-15573674D01*
X18641253Y-15573674D02*
X18660301Y-15564150D01*
X18660301Y-15564150D02*
X18698396Y-15564150D01*
X18698396Y-15564150D02*
X18717444Y-15573674D01*
X18717444Y-15573674D02*
X18726968Y-15592722D01*
X18726968Y-15592722D02*
X18726968Y-15611769D01*
X18726968Y-15611769D02*
X18631730Y-15630817D01*
X18803158Y-15687960D02*
X18822206Y-15697484D01*
X18822206Y-15697484D02*
X18860301Y-15697484D01*
X18860301Y-15697484D02*
X18879349Y-15687960D01*
X18879349Y-15687960D02*
X18888873Y-15668912D01*
X18888873Y-15668912D02*
X18888873Y-15659388D01*
X18888873Y-15659388D02*
X18879349Y-15640341D01*
X18879349Y-15640341D02*
X18860301Y-15630817D01*
X18860301Y-15630817D02*
X18831730Y-15630817D01*
X18831730Y-15630817D02*
X18812682Y-15621293D01*
X18812682Y-15621293D02*
X18803158Y-15602246D01*
X18803158Y-15602246D02*
X18803158Y-15592722D01*
X18803158Y-15592722D02*
X18812682Y-15573674D01*
X18812682Y-15573674D02*
X18831730Y-15564150D01*
X18831730Y-15564150D02*
X18860301Y-15564150D01*
X18860301Y-15564150D02*
X18879349Y-15573674D01*
X18955539Y-15773674D02*
X18965063Y-15764150D01*
X18965063Y-15764150D02*
X18984111Y-15735579D01*
X18984111Y-15735579D02*
X18993634Y-15716531D01*
X18993634Y-15716531D02*
X19003158Y-15687960D01*
X19003158Y-15687960D02*
X19012682Y-15640341D01*
X19012682Y-15640341D02*
X19012682Y-15602246D01*
X19012682Y-15602246D02*
X19003158Y-15554627D01*
X19003158Y-15554627D02*
X18993634Y-15526055D01*
X18993634Y-15526055D02*
X18984111Y-15507008D01*
X18984111Y-15507008D02*
X18965063Y-15478436D01*
X18965063Y-15478436D02*
X18955539Y-15468912D01*
X13790000Y-15770000D02*
X13990000Y-15970000D01*
X13990000Y-15770000D02*
X13790000Y-15970000D01*
X13990000Y-15870000D02*
G75*
G02*
X13790000Y-15870000I-100000J0D01*
G01*
X13790000Y-15870000D02*
G75*
G02*
X13990000Y-15870000I100000J0D01*
G01*
X14231729Y-15761484D02*
X14355539Y-15761484D01*
X14355539Y-15761484D02*
X14288872Y-15837674D01*
X14288872Y-15837674D02*
X14317443Y-15837674D01*
X14317443Y-15837674D02*
X14336491Y-15847198D01*
X14336491Y-15847198D02*
X14346015Y-15856722D01*
X14346015Y-15856722D02*
X14355539Y-15875769D01*
X14355539Y-15875769D02*
X14355539Y-15923388D01*
X14355539Y-15923388D02*
X14346015Y-15942436D01*
X14346015Y-15942436D02*
X14336491Y-15951960D01*
X14336491Y-15951960D02*
X14317443Y-15961484D01*
X14317443Y-15961484D02*
X14260301Y-15961484D01*
X14260301Y-15961484D02*
X14241253Y-15951960D01*
X14241253Y-15951960D02*
X14231729Y-15942436D01*
X14441253Y-15942436D02*
X14450777Y-15951960D01*
X14450777Y-15951960D02*
X14441253Y-15961484D01*
X14441253Y-15961484D02*
X14431729Y-15951960D01*
X14431729Y-15951960D02*
X14441253Y-15942436D01*
X14441253Y-15942436D02*
X14441253Y-15961484D01*
X14526967Y-15780531D02*
X14536491Y-15771008D01*
X14536491Y-15771008D02*
X14555539Y-15761484D01*
X14555539Y-15761484D02*
X14603158Y-15761484D01*
X14603158Y-15761484D02*
X14622205Y-15771008D01*
X14622205Y-15771008D02*
X14631729Y-15780531D01*
X14631729Y-15780531D02*
X14641253Y-15799579D01*
X14641253Y-15799579D02*
X14641253Y-15818627D01*
X14641253Y-15818627D02*
X14631729Y-15847198D01*
X14631729Y-15847198D02*
X14517443Y-15961484D01*
X14517443Y-15961484D02*
X14641253Y-15961484D01*
X14765062Y-15761484D02*
X14784110Y-15761484D01*
X14784110Y-15761484D02*
X14803158Y-15771008D01*
X14803158Y-15771008D02*
X14812682Y-15780531D01*
X14812682Y-15780531D02*
X14822205Y-15799579D01*
X14822205Y-15799579D02*
X14831729Y-15837674D01*
X14831729Y-15837674D02*
X14831729Y-15885293D01*
X14831729Y-15885293D02*
X14822205Y-15923388D01*
X14822205Y-15923388D02*
X14812682Y-15942436D01*
X14812682Y-15942436D02*
X14803158Y-15951960D01*
X14803158Y-15951960D02*
X14784110Y-15961484D01*
X14784110Y-15961484D02*
X14765062Y-15961484D01*
X14765062Y-15961484D02*
X14746015Y-15951960D01*
X14746015Y-15951960D02*
X14736491Y-15942436D01*
X14736491Y-15942436D02*
X14726967Y-15923388D01*
X14726967Y-15923388D02*
X14717443Y-15885293D01*
X14717443Y-15885293D02*
X14717443Y-15837674D01*
X14717443Y-15837674D02*
X14726967Y-15799579D01*
X14726967Y-15799579D02*
X14736491Y-15780531D01*
X14736491Y-15780531D02*
X14746015Y-15771008D01*
X14746015Y-15771008D02*
X14765062Y-15761484D01*
X14955539Y-15761484D02*
X14974586Y-15761484D01*
X14974586Y-15761484D02*
X14993634Y-15771008D01*
X14993634Y-15771008D02*
X15003158Y-15780531D01*
X15003158Y-15780531D02*
X15012682Y-15799579D01*
X15012682Y-15799579D02*
X15022205Y-15837674D01*
X15022205Y-15837674D02*
X15022205Y-15885293D01*
X15022205Y-15885293D02*
X15012682Y-15923388D01*
X15012682Y-15923388D02*
X15003158Y-15942436D01*
X15003158Y-15942436D02*
X14993634Y-15951960D01*
X14993634Y-15951960D02*
X14974586Y-15961484D01*
X14974586Y-15961484D02*
X14955539Y-15961484D01*
X14955539Y-15961484D02*
X14936491Y-15951960D01*
X14936491Y-15951960D02*
X14926967Y-15942436D01*
X14926967Y-15942436D02*
X14917443Y-15923388D01*
X14917443Y-15923388D02*
X14907920Y-15885293D01*
X14907920Y-15885293D02*
X14907920Y-15837674D01*
X14907920Y-15837674D02*
X14917443Y-15799579D01*
X14917443Y-15799579D02*
X14926967Y-15780531D01*
X14926967Y-15780531D02*
X14936491Y-15771008D01*
X14936491Y-15771008D02*
X14955539Y-15761484D01*
X15107920Y-15961484D02*
X15107920Y-15828150D01*
X15107920Y-15847198D02*
X15117443Y-15837674D01*
X15117443Y-15837674D02*
X15136491Y-15828150D01*
X15136491Y-15828150D02*
X15165063Y-15828150D01*
X15165063Y-15828150D02*
X15184110Y-15837674D01*
X15184110Y-15837674D02*
X15193634Y-15856722D01*
X15193634Y-15856722D02*
X15193634Y-15961484D01*
X15193634Y-15856722D02*
X15203158Y-15837674D01*
X15203158Y-15837674D02*
X15222205Y-15828150D01*
X15222205Y-15828150D02*
X15250777Y-15828150D01*
X15250777Y-15828150D02*
X15269824Y-15837674D01*
X15269824Y-15837674D02*
X15279348Y-15856722D01*
X15279348Y-15856722D02*
X15279348Y-15961484D01*
X15374586Y-15961484D02*
X15374586Y-15828150D01*
X15374586Y-15847198D02*
X15384110Y-15837674D01*
X15384110Y-15837674D02*
X15403158Y-15828150D01*
X15403158Y-15828150D02*
X15431729Y-15828150D01*
X15431729Y-15828150D02*
X15450777Y-15837674D01*
X15450777Y-15837674D02*
X15460301Y-15856722D01*
X15460301Y-15856722D02*
X15460301Y-15961484D01*
X15460301Y-15856722D02*
X15469824Y-15837674D01*
X15469824Y-15837674D02*
X15488872Y-15828150D01*
X15488872Y-15828150D02*
X15517443Y-15828150D01*
X15517443Y-15828150D02*
X15536491Y-15837674D01*
X15536491Y-15837674D02*
X15546015Y-15856722D01*
X15546015Y-15856722D02*
X15546015Y-15961484D01*
X15936491Y-15751960D02*
X15765063Y-16009103D01*
X16193634Y-15761484D02*
X16212682Y-15761484D01*
X16212682Y-15761484D02*
X16231729Y-15771008D01*
X16231729Y-15771008D02*
X16241253Y-15780531D01*
X16241253Y-15780531D02*
X16250777Y-15799579D01*
X16250777Y-15799579D02*
X16260301Y-15837674D01*
X16260301Y-15837674D02*
X16260301Y-15885293D01*
X16260301Y-15885293D02*
X16250777Y-15923388D01*
X16250777Y-15923388D02*
X16241253Y-15942436D01*
X16241253Y-15942436D02*
X16231729Y-15951960D01*
X16231729Y-15951960D02*
X16212682Y-15961484D01*
X16212682Y-15961484D02*
X16193634Y-15961484D01*
X16193634Y-15961484D02*
X16174586Y-15951960D01*
X16174586Y-15951960D02*
X16165063Y-15942436D01*
X16165063Y-15942436D02*
X16155539Y-15923388D01*
X16155539Y-15923388D02*
X16146015Y-15885293D01*
X16146015Y-15885293D02*
X16146015Y-15837674D01*
X16146015Y-15837674D02*
X16155539Y-15799579D01*
X16155539Y-15799579D02*
X16165063Y-15780531D01*
X16165063Y-15780531D02*
X16174586Y-15771008D01*
X16174586Y-15771008D02*
X16193634Y-15761484D01*
X16346015Y-15942436D02*
X16355539Y-15951960D01*
X16355539Y-15951960D02*
X16346015Y-15961484D01*
X16346015Y-15961484D02*
X16336491Y-15951960D01*
X16336491Y-15951960D02*
X16346015Y-15942436D01*
X16346015Y-15942436D02*
X16346015Y-15961484D01*
X16546015Y-15961484D02*
X16431729Y-15961484D01*
X16488872Y-15961484D02*
X16488872Y-15761484D01*
X16488872Y-15761484D02*
X16469825Y-15790055D01*
X16469825Y-15790055D02*
X16450777Y-15809103D01*
X16450777Y-15809103D02*
X16431729Y-15818627D01*
X16622206Y-15780531D02*
X16631729Y-15771008D01*
X16631729Y-15771008D02*
X16650777Y-15761484D01*
X16650777Y-15761484D02*
X16698396Y-15761484D01*
X16698396Y-15761484D02*
X16717444Y-15771008D01*
X16717444Y-15771008D02*
X16726967Y-15780531D01*
X16726967Y-15780531D02*
X16736491Y-15799579D01*
X16736491Y-15799579D02*
X16736491Y-15818627D01*
X16736491Y-15818627D02*
X16726967Y-15847198D01*
X16726967Y-15847198D02*
X16612682Y-15961484D01*
X16612682Y-15961484D02*
X16736491Y-15961484D01*
X16907920Y-15761484D02*
X16869825Y-15761484D01*
X16869825Y-15761484D02*
X16850777Y-15771008D01*
X16850777Y-15771008D02*
X16841253Y-15780531D01*
X16841253Y-15780531D02*
X16822206Y-15809103D01*
X16822206Y-15809103D02*
X16812682Y-15847198D01*
X16812682Y-15847198D02*
X16812682Y-15923388D01*
X16812682Y-15923388D02*
X16822206Y-15942436D01*
X16822206Y-15942436D02*
X16831729Y-15951960D01*
X16831729Y-15951960D02*
X16850777Y-15961484D01*
X16850777Y-15961484D02*
X16888872Y-15961484D01*
X16888872Y-15961484D02*
X16907920Y-15951960D01*
X16907920Y-15951960D02*
X16917444Y-15942436D01*
X16917444Y-15942436D02*
X16926968Y-15923388D01*
X16926968Y-15923388D02*
X16926968Y-15875769D01*
X16926968Y-15875769D02*
X16917444Y-15856722D01*
X16917444Y-15856722D02*
X16907920Y-15847198D01*
X16907920Y-15847198D02*
X16888872Y-15837674D01*
X16888872Y-15837674D02*
X16850777Y-15837674D01*
X16850777Y-15837674D02*
X16831729Y-15847198D01*
X16831729Y-15847198D02*
X16822206Y-15856722D01*
X16822206Y-15856722D02*
X16812682Y-15875769D01*
X17050777Y-15761484D02*
X17069825Y-15761484D01*
X17069825Y-15761484D02*
X17088872Y-15771008D01*
X17088872Y-15771008D02*
X17098396Y-15780531D01*
X17098396Y-15780531D02*
X17107920Y-15799579D01*
X17107920Y-15799579D02*
X17117444Y-15837674D01*
X17117444Y-15837674D02*
X17117444Y-15885293D01*
X17117444Y-15885293D02*
X17107920Y-15923388D01*
X17107920Y-15923388D02*
X17098396Y-15942436D01*
X17098396Y-15942436D02*
X17088872Y-15951960D01*
X17088872Y-15951960D02*
X17069825Y-15961484D01*
X17069825Y-15961484D02*
X17050777Y-15961484D01*
X17050777Y-15961484D02*
X17031729Y-15951960D01*
X17031729Y-15951960D02*
X17022206Y-15942436D01*
X17022206Y-15942436D02*
X17012682Y-15923388D01*
X17012682Y-15923388D02*
X17003158Y-15885293D01*
X17003158Y-15885293D02*
X17003158Y-15837674D01*
X17003158Y-15837674D02*
X17012682Y-15799579D01*
X17012682Y-15799579D02*
X17022206Y-15780531D01*
X17022206Y-15780531D02*
X17031729Y-15771008D01*
X17031729Y-15771008D02*
X17050777Y-15761484D01*
X17193634Y-15761484D02*
X17193634Y-15799579D01*
X17269825Y-15761484D02*
X17269825Y-15799579D01*
X17565063Y-16037674D02*
X17555539Y-16028150D01*
X17555539Y-16028150D02*
X17536491Y-15999579D01*
X17536491Y-15999579D02*
X17526968Y-15980531D01*
X17526968Y-15980531D02*
X17517444Y-15951960D01*
X17517444Y-15951960D02*
X17507920Y-15904341D01*
X17507920Y-15904341D02*
X17507920Y-15866246D01*
X17507920Y-15866246D02*
X17517444Y-15818627D01*
X17517444Y-15818627D02*
X17526968Y-15790055D01*
X17526968Y-15790055D02*
X17536491Y-15771008D01*
X17536491Y-15771008D02*
X17555539Y-15742436D01*
X17555539Y-15742436D02*
X17565063Y-15732912D01*
X17726968Y-15828150D02*
X17726968Y-15961484D01*
X17679349Y-15751960D02*
X17631730Y-15894817D01*
X17631730Y-15894817D02*
X17755539Y-15894817D01*
X17984111Y-15961484D02*
X17984111Y-15761484D01*
X18069825Y-15961484D02*
X18069825Y-15856722D01*
X18069825Y-15856722D02*
X18060301Y-15837674D01*
X18060301Y-15837674D02*
X18041253Y-15828150D01*
X18041253Y-15828150D02*
X18012682Y-15828150D01*
X18012682Y-15828150D02*
X17993634Y-15837674D01*
X17993634Y-15837674D02*
X17984111Y-15847198D01*
X18193634Y-15961484D02*
X18174587Y-15951960D01*
X18174587Y-15951960D02*
X18165063Y-15942436D01*
X18165063Y-15942436D02*
X18155539Y-15923388D01*
X18155539Y-15923388D02*
X18155539Y-15866246D01*
X18155539Y-15866246D02*
X18165063Y-15847198D01*
X18165063Y-15847198D02*
X18174587Y-15837674D01*
X18174587Y-15837674D02*
X18193634Y-15828150D01*
X18193634Y-15828150D02*
X18222206Y-15828150D01*
X18222206Y-15828150D02*
X18241253Y-15837674D01*
X18241253Y-15837674D02*
X18250777Y-15847198D01*
X18250777Y-15847198D02*
X18260301Y-15866246D01*
X18260301Y-15866246D02*
X18260301Y-15923388D01*
X18260301Y-15923388D02*
X18250777Y-15942436D01*
X18250777Y-15942436D02*
X18241253Y-15951960D01*
X18241253Y-15951960D02*
X18222206Y-15961484D01*
X18222206Y-15961484D02*
X18193634Y-15961484D01*
X18374587Y-15961484D02*
X18355539Y-15951960D01*
X18355539Y-15951960D02*
X18346015Y-15932912D01*
X18346015Y-15932912D02*
X18346015Y-15761484D01*
X18526968Y-15951960D02*
X18507920Y-15961484D01*
X18507920Y-15961484D02*
X18469825Y-15961484D01*
X18469825Y-15961484D02*
X18450777Y-15951960D01*
X18450777Y-15951960D02*
X18441253Y-15932912D01*
X18441253Y-15932912D02*
X18441253Y-15856722D01*
X18441253Y-15856722D02*
X18450777Y-15837674D01*
X18450777Y-15837674D02*
X18469825Y-15828150D01*
X18469825Y-15828150D02*
X18507920Y-15828150D01*
X18507920Y-15828150D02*
X18526968Y-15837674D01*
X18526968Y-15837674D02*
X18536492Y-15856722D01*
X18536492Y-15856722D02*
X18536492Y-15875769D01*
X18536492Y-15875769D02*
X18441253Y-15894817D01*
X18612682Y-15951960D02*
X18631730Y-15961484D01*
X18631730Y-15961484D02*
X18669825Y-15961484D01*
X18669825Y-15961484D02*
X18688873Y-15951960D01*
X18688873Y-15951960D02*
X18698396Y-15932912D01*
X18698396Y-15932912D02*
X18698396Y-15923388D01*
X18698396Y-15923388D02*
X18688873Y-15904341D01*
X18688873Y-15904341D02*
X18669825Y-15894817D01*
X18669825Y-15894817D02*
X18641253Y-15894817D01*
X18641253Y-15894817D02*
X18622206Y-15885293D01*
X18622206Y-15885293D02*
X18612682Y-15866246D01*
X18612682Y-15866246D02*
X18612682Y-15856722D01*
X18612682Y-15856722D02*
X18622206Y-15837674D01*
X18622206Y-15837674D02*
X18641253Y-15828150D01*
X18641253Y-15828150D02*
X18669825Y-15828150D01*
X18669825Y-15828150D02*
X18688873Y-15837674D01*
X18765063Y-16037674D02*
X18774587Y-16028150D01*
X18774587Y-16028150D02*
X18793634Y-15999579D01*
X18793634Y-15999579D02*
X18803158Y-15980531D01*
X18803158Y-15980531D02*
X18812682Y-15951960D01*
X18812682Y-15951960D02*
X18822206Y-15904341D01*
X18822206Y-15904341D02*
X18822206Y-15866246D01*
X18822206Y-15866246D02*
X18812682Y-15818627D01*
X18812682Y-15818627D02*
X18803158Y-15790055D01*
X18803158Y-15790055D02*
X18793634Y-15771008D01*
X18793634Y-15771008D02*
X18774587Y-15742436D01*
X18774587Y-15742436D02*
X18765063Y-15732912D01*
M02*
