M48
; DRILL file {KiCad 8.0.6} date 2024-11-26T08:02:46+0100
; FORMAT={-:-/ absolute / metric / decimal}
; #@! TF.CreationDate,2024-11-26T08:02:46+01:00
; #@! TF.GenerationSoftware,Kicad,Pcbnew,8.0.6
; #@! TF.FileFunction,Plated,1,4,PTH
FMAT,2
METRIC
; #@! TA.AperFunction,Plated,PTH,ViaDrill
T1C0.300
; #@! TA.AperFunction,Plated,PTH,ViaDrill
T2C0.400
; #@! TA.AperFunction,Plated,PTH,ComponentDrill
T3C0.900
; #@! TA.AperFunction,Plated,PTH,ComponentDrill
T4C0.950
; #@! TA.AperFunction,Plated,PTH,ComponentDrill
T5C1.000
; #@! TA.AperFunction,Plated,PTH,ComponentDrill
T6C3.200
%
G90
G05
T1
X156.4Y-57.35
X164.725Y-106.625
X168.15Y-105.725
X171.476Y-83.451
X172.875Y-82.9
X175.25Y-112.3
X183.6Y-61.825
X183.975Y-111.325
X184.0Y-109.425
X184.14Y-62.5
X184.65Y-108.8
X184.824Y-111.325
X186.562Y-114.575
X186.575Y-59.35
X186.575Y-60.6
X188.1Y-113.85
X189.4Y-56.8
X192.275Y-72.75
X193.7Y-58.075
X193.7Y-72.8
T2
X159.475Y-58.45
X159.75Y-71.375
X164.35Y-113.775
X166.45Y-58.45
X166.575Y-106.575
X167.425Y-69.2
X168.25Y-113.775
X170.05Y-106.575
X170.825Y-66.55
X171.3Y-69.15
X172.05Y-113.775
X173.575Y-106.575
X176.875Y-55.7
X178.55Y-115.375
X178.95Y-69.2
X179.975Y-112.025
X191.125Y-116.575
X191.225Y-55.1
X192.65Y-51.75
T3
X149.0Y-107.21
X149.0Y-109.75
X149.05Y-99.66
X149.05Y-102.2
X149.075Y-76.825
X149.075Y-79.365
X149.075Y-84.375
X149.075Y-86.915
X149.1Y-69.21
X149.1Y-71.75
X149.1Y-92.06
X149.1Y-94.6
T4
X165.95Y-102.4
X168.45Y-102.4
X170.95Y-102.4
X173.45Y-102.4
T5
X158.14Y-76.42
X158.14Y-94.2
X160.68Y-76.42
X160.68Y-94.2
X163.22Y-76.42
X163.22Y-94.2
X165.76Y-76.42
X165.76Y-94.2
X168.3Y-76.42
X168.3Y-94.2
X170.84Y-76.42
X170.84Y-94.2
X173.38Y-76.42
X173.38Y-94.2
X175.92Y-76.42
X175.92Y-94.2
X178.46Y-76.42
X178.46Y-94.2
X181.0Y-76.42
X181.0Y-94.2
X183.05Y-100.16
X183.05Y-102.7
X183.54Y-76.42
X183.54Y-94.2
X185.6Y-70.4
X186.08Y-76.42
X186.08Y-94.2
X186.85Y-100.16
X186.85Y-102.7
X188.14Y-70.4
X188.62Y-76.42
X188.62Y-94.2
X190.65Y-100.125
X190.65Y-102.665
X190.68Y-70.4
X191.16Y-76.42
X191.16Y-94.2
X193.7Y-76.42
X193.7Y-94.2
X195.36Y-108.755
X195.36Y-111.525
X195.36Y-114.295
X195.36Y-117.065
X195.36Y-119.835
X195.36Y-122.605
X195.36Y-125.375
X195.36Y-128.145
X195.38Y-50.66
X195.38Y-53.43
X195.38Y-56.2
X195.38Y-58.97
X195.38Y-61.74
X196.24Y-76.42
X196.24Y-94.2
X198.2Y-110.14
X198.2Y-112.91
X198.2Y-115.68
X198.2Y-118.45
X198.2Y-121.22
X198.2Y-123.99
X198.2Y-126.76
X198.22Y-52.045
X198.22Y-54.815
X198.22Y-57.585
X198.22Y-60.355
X198.78Y-76.42
X198.78Y-94.2
X201.32Y-76.42
X201.32Y-94.2
X203.86Y-76.42
X203.86Y-94.2
X206.4Y-76.42
X206.4Y-94.2
T6
X196.78Y-101.8
X196.78Y-135.1
X196.8Y-43.7
X196.8Y-68.7
M30
