G04 #@! TF.GenerationSoftware,KiCad,Pcbnew,8.0.6*
G04 #@! TF.CreationDate,2024-11-26T08:02:09+01:00*
G04 #@! TF.ProjectId,vt2_communicator,7674325f-636f-46d6-9d75-6e696361746f,rev?*
G04 #@! TF.SameCoordinates,Original*
G04 #@! TF.FileFunction,Soldermask,Bot*
G04 #@! TF.FilePolarity,Negative*
%FSLAX46Y46*%
G04 Gerber Fmt 4.6, Leading zero omitted, Abs format (unit mm)*
G04 Created by KiCad (PCBNEW 8.0.6) date 2024-11-26 08:02:09*
%MOMM*%
%LPD*%
G01*
G04 APERTURE LIST*
G04 Aperture macros list*
%AMRoundRect*
0 Rectangle with rounded corners*
0 $1 Rounding radius*
0 $2 $3 $4 $5 $6 $7 $8 $9 X,Y pos of 4 corners*
0 Add a 4 corners polygon primitive as box body*
4,1,4,$2,$3,$4,$5,$6,$7,$8,$9,$2,$3,0*
0 Add four circle primitives for the rounded corners*
1,1,$1+$1,$2,$3*
1,1,$1+$1,$4,$5*
1,1,$1+$1,$6,$7*
1,1,$1+$1,$8,$9*
0 Add four rect primitives between the rounded corners*
20,1,$1+$1,$2,$3,$4,$5,0*
20,1,$1+$1,$4,$5,$6,$7,0*
20,1,$1+$1,$6,$7,$8,$9,0*
20,1,$1+$1,$8,$9,$2,$3,0*%
%AMFreePoly0*
4,1,28,0.605014,0.794986,0.644504,0.794986,0.724698,0.756366,0.780194,0.686777,0.800000,0.600000,0.800000,-0.600000,0.780194,-0.686777,0.724698,-0.756366,0.644504,-0.794986,0.605014,-0.794986,0.600000,-0.800000,0.000000,-0.800000,-0.178017,-0.779942,-0.347107,-0.720775,-0.498792,-0.625465,-0.625465,-0.498792,-0.720775,-0.347107,-0.779942,-0.178017,-0.800000,0.000000,-0.779942,0.178017,
-0.720775,0.347107,-0.625465,0.498792,-0.498792,0.625465,-0.347107,0.720775,-0.178017,0.779942,0.000000,0.800000,0.600000,0.800000,0.605014,0.794986,0.605014,0.794986,$1*%
%AMFreePoly1*
4,1,28,0.178017,0.779942,0.347107,0.720775,0.498792,0.625465,0.625465,0.498792,0.720775,0.347107,0.779942,0.178017,0.800000,0.000000,0.779942,-0.178017,0.720775,-0.347107,0.625465,-0.498792,0.498792,-0.625465,0.347107,-0.720775,0.178017,-0.779942,0.000000,-0.800000,-0.600000,-0.800000,-0.605014,-0.794986,-0.644504,-0.794986,-0.724698,-0.756366,-0.780194,-0.686777,-0.800000,-0.600000,
-0.800000,0.600000,-0.780194,0.686777,-0.724698,0.756366,-0.644504,0.794986,-0.605014,0.794986,-0.600000,0.800000,0.000000,0.800000,0.178017,0.779942,0.178017,0.779942,$1*%
G04 Aperture macros list end*
%ADD10R,1.800000X1.800000*%
%ADD11C,1.800000*%
%ADD12R,1.700000X1.700000*%
%ADD13O,1.700000X1.700000*%
%ADD14C,3.200000*%
%ADD15C,2.200000*%
%ADD16C,1.850000*%
%ADD17RoundRect,0.200000X-0.600000X0.600000X-0.600000X-0.600000X0.600000X-0.600000X0.600000X0.600000X0*%
%ADD18C,1.600000*%
%ADD19FreePoly0,270.000000*%
%ADD20FreePoly1,270.000000*%
%ADD21C,4.000000*%
%ADD22R,1.600000X1.600000*%
%ADD23RoundRect,0.250000X0.600000X0.725000X-0.600000X0.725000X-0.600000X-0.725000X0.600000X-0.725000X0*%
%ADD24O,1.700000X1.950000*%
G04 APERTURE END LIST*
D10*
X149050000Y-99660000D03*
D11*
X149050000Y-102200000D03*
D12*
X186850000Y-100160000D03*
D13*
X186850000Y-102700000D03*
D10*
X149075000Y-76825000D03*
D11*
X149075000Y-79365000D03*
D10*
X149100000Y-69210000D03*
D11*
X149100000Y-71750000D03*
D14*
X143500000Y-44500000D03*
D10*
X149000000Y-107210000D03*
D11*
X149000000Y-109750000D03*
D15*
X206270000Y-82585000D03*
D16*
X203240000Y-82885000D03*
X203240000Y-87735000D03*
D15*
X206270000Y-88035000D03*
D17*
X206400000Y-76420000D03*
D18*
X203860000Y-76420000D03*
D19*
X201320000Y-76420000D03*
D18*
X198780000Y-76420000D03*
X196240000Y-76420000D03*
X193700000Y-76420000D03*
X191160000Y-76420000D03*
D19*
X188620000Y-76420000D03*
D18*
X186080000Y-76420000D03*
X183540000Y-76420000D03*
X181000000Y-76420000D03*
X178460000Y-76420000D03*
D19*
X175920000Y-76420000D03*
D18*
X173380000Y-76420000D03*
X170840000Y-76420000D03*
X168300000Y-76420000D03*
X165760000Y-76420000D03*
D19*
X163220000Y-76420000D03*
D18*
X160680000Y-76420000D03*
X158140000Y-76420000D03*
X158140000Y-94200000D03*
X160680000Y-94200000D03*
D20*
X163220000Y-94200000D03*
D18*
X165760000Y-94200000D03*
X168300000Y-94200000D03*
X170840000Y-94200000D03*
X173380000Y-94200000D03*
D20*
X175920000Y-94200000D03*
D18*
X178460000Y-94200000D03*
X181000000Y-94200000D03*
X183540000Y-94200000D03*
X186080000Y-94200000D03*
D20*
X188620000Y-94200000D03*
D18*
X191160000Y-94200000D03*
X193700000Y-94200000D03*
X196240000Y-94200000D03*
X198780000Y-94200000D03*
D20*
X201320000Y-94200000D03*
D18*
X203860000Y-94200000D03*
X206400000Y-94200000D03*
D12*
X190680000Y-70400000D03*
D13*
X188140000Y-70400000D03*
X185600000Y-70400000D03*
D12*
X190650000Y-100125000D03*
D13*
X190650000Y-102665000D03*
D21*
X196780000Y-135100000D03*
X196780000Y-101800000D03*
D22*
X195360000Y-128145000D03*
D18*
X195360000Y-125375000D03*
X195360000Y-122605000D03*
X195360000Y-119835000D03*
X195360000Y-117065000D03*
X195360000Y-114295000D03*
X195360000Y-111525000D03*
X195360000Y-108755000D03*
X198200000Y-126760000D03*
X198200000Y-123990000D03*
X198200000Y-121220000D03*
X198200000Y-118450000D03*
X198200000Y-115680000D03*
X198200000Y-112910000D03*
X198200000Y-110140000D03*
D14*
X189500000Y-44500000D03*
D21*
X196800000Y-68700000D03*
X196800000Y-43700000D03*
D22*
X195380000Y-50660000D03*
D18*
X195380000Y-53430000D03*
X195380000Y-56200000D03*
X195380000Y-58970000D03*
X195380000Y-61740000D03*
X198220000Y-52045000D03*
X198220000Y-54815000D03*
X198220000Y-57585000D03*
X198220000Y-60355000D03*
D14*
X143500000Y-134500000D03*
X189500000Y-134500000D03*
D10*
X149075000Y-84375000D03*
D11*
X149075000Y-86915000D03*
D12*
X183050000Y-100160000D03*
D13*
X183050000Y-102700000D03*
D23*
X173450000Y-102400000D03*
D24*
X170950000Y-102400000D03*
X168450000Y-102400000D03*
X165950000Y-102400000D03*
D10*
X149100000Y-92060000D03*
D11*
X149100000Y-94600000D03*
M02*
