G04 #@! TF.GenerationSoftware,KiCad,Pcbnew,8.0.5*
G04 #@! TF.CreationDate,2024-10-24T17:49:52+02:00*
G04 #@! TF.ProjectId,vt2_communicator,7674325f-636f-46d6-9d75-6e696361746f,rev?*
G04 #@! TF.SameCoordinates,Original*
G04 #@! TF.FileFunction,Soldermask,Top*
G04 #@! TF.FilePolarity,Negative*
%FSLAX46Y46*%
G04 Gerber Fmt 4.6, Leading zero omitted, Abs format (unit mm)*
G04 Created by KiCad (PCBNEW 8.0.5) date 2024-10-24 17:49:52*
%MOMM*%
%LPD*%
G01*
G04 APERTURE LIST*
G04 Aperture macros list*
%AMRoundRect*
0 Rectangle with rounded corners*
0 $1 Rounding radius*
0 $2 $3 $4 $5 $6 $7 $8 $9 X,Y pos of 4 corners*
0 Add a 4 corners polygon primitive as box body*
4,1,4,$2,$3,$4,$5,$6,$7,$8,$9,$2,$3,0*
0 Add four circle primitives for the rounded corners*
1,1,$1+$1,$2,$3*
1,1,$1+$1,$4,$5*
1,1,$1+$1,$6,$7*
1,1,$1+$1,$8,$9*
0 Add four rect primitives between the rounded corners*
20,1,$1+$1,$2,$3,$4,$5,0*
20,1,$1+$1,$4,$5,$6,$7,0*
20,1,$1+$1,$6,$7,$8,$9,0*
20,1,$1+$1,$8,$9,$2,$3,0*%
%AMFreePoly0*
4,1,28,0.178017,0.779942,0.347107,0.720775,0.498792,0.625465,0.625465,0.498792,0.720775,0.347107,0.779942,0.178017,0.800000,0.000000,0.779942,-0.178017,0.720775,-0.347107,0.625465,-0.498792,0.498792,-0.625465,0.347107,-0.720775,0.178017,-0.779942,0.000000,-0.800000,-2.200000,-0.800000,-2.205014,-0.794986,-2.244504,-0.794986,-2.324698,-0.756366,-2.380194,-0.686777,-2.400000,-0.600000,
-2.400000,0.600000,-2.380194,0.686777,-2.324698,0.756366,-2.244504,0.794986,-2.205014,0.794986,-2.200000,0.800000,0.000000,0.800000,0.178017,0.779942,0.178017,0.779942,$1*%
%AMFreePoly1*
4,1,28,0.605014,0.794986,0.644504,0.794986,0.724698,0.756366,0.780194,0.686777,0.800000,0.600000,0.800000,-0.600000,0.780194,-0.686777,0.724698,-0.756366,0.644504,-0.794986,0.605014,-0.794986,0.600000,-0.800000,0.000000,-0.800000,-0.178017,-0.779942,-0.347107,-0.720775,-0.498792,-0.625465,-0.625465,-0.498792,-0.720775,-0.347107,-0.779942,-0.178017,-0.800000,0.000000,-0.779942,0.178017,
-0.720775,0.347107,-0.625465,0.498792,-0.498792,0.625465,-0.347107,0.720775,-0.178017,0.779942,0.000000,0.800000,0.600000,0.800000,0.605014,0.794986,0.605014,0.794986,$1*%
%AMFreePoly2*
4,1,29,0.605014,0.794986,0.644504,0.794986,0.724698,0.756366,0.780194,0.686777,0.800000,0.600000,0.800000,-0.600000,0.780194,-0.686777,0.724698,-0.756366,0.644504,-0.794986,0.605014,-0.794986,0.600000,-0.800000,0.000000,-0.800000,-1.600000,-0.800000,-1.778017,-0.779942,-1.947107,-0.720775,-2.098792,-0.625465,-2.225465,-0.498792,-2.320775,-0.347107,-2.379942,-0.178017,-2.400000,0.000000,
-2.379942,0.178017,-2.320775,0.347107,-2.225465,0.498792,-2.098792,0.625465,-1.947107,0.720775,-1.778017,0.779942,-1.600000,0.800000,0.600000,0.800000,0.605014,0.794986,0.605014,0.794986,$1*%
%AMFreePoly3*
4,1,28,0.178017,0.779942,0.347107,0.720775,0.498792,0.625465,0.625465,0.498792,0.720775,0.347107,0.779942,0.178017,0.800000,0.000000,0.779942,-0.178017,0.720775,-0.347107,0.625465,-0.498792,0.498792,-0.625465,0.347107,-0.720775,0.178017,-0.779942,0.000000,-0.800000,-0.600000,-0.800000,-0.605014,-0.794986,-0.644504,-0.794986,-0.724698,-0.756366,-0.780194,-0.686777,-0.800000,-0.600000,
-0.800000,0.600000,-0.780194,0.686777,-0.724698,0.756366,-0.644504,0.794986,-0.605014,0.794986,-0.600000,0.800000,0.000000,0.800000,0.178017,0.779942,0.178017,0.779942,$1*%
%AMFreePoly4*
4,1,29,1.778017,0.779942,1.947107,0.720775,2.098792,0.625465,2.225465,0.498792,2.320775,0.347107,2.379942,0.178017,2.400000,0.000000,2.379942,-0.178017,2.320775,-0.347107,2.225465,-0.498792,2.098792,-0.625465,1.947107,-0.720775,1.778017,-0.779942,1.600000,-0.800000,0.000000,-0.800000,-0.600000,-0.800000,-0.605014,-0.794986,-0.644504,-0.794986,-0.724698,-0.756366,-0.780194,-0.686777,
-0.800000,-0.600000,-0.800000,0.600000,-0.780194,0.686777,-0.724698,0.756366,-0.644504,0.794986,-0.605014,0.794986,-0.600000,0.800000,1.600000,0.800000,1.778017,0.779942,1.778017,0.779942,$1*%
G04 Aperture macros list end*
%ADD10RoundRect,0.250000X0.450000X-0.350000X0.450000X0.350000X-0.450000X0.350000X-0.450000X-0.350000X0*%
%ADD11RoundRect,0.250000X0.350000X0.450000X-0.350000X0.450000X-0.350000X-0.450000X0.350000X-0.450000X0*%
%ADD12R,1.800000X1.800000*%
%ADD13C,1.800000*%
%ADD14C,4.000000*%
%ADD15R,1.600000X1.600000*%
%ADD16C,1.600000*%
%ADD17C,3.200000*%
%ADD18R,1.700000X1.700000*%
%ADD19O,1.700000X1.700000*%
%ADD20RoundRect,0.250000X-0.350000X-0.450000X0.350000X-0.450000X0.350000X0.450000X-0.350000X0.450000X0*%
%ADD21RoundRect,0.150000X0.512500X0.150000X-0.512500X0.150000X-0.512500X-0.150000X0.512500X-0.150000X0*%
%ADD22R,1.750000X0.450000*%
%ADD23RoundRect,0.150000X0.825000X0.150000X-0.825000X0.150000X-0.825000X-0.150000X0.825000X-0.150000X0*%
%ADD24RoundRect,0.250000X-0.450000X0.350000X-0.450000X-0.350000X0.450000X-0.350000X0.450000X0.350000X0*%
%ADD25C,2.499360*%
%ADD26RoundRect,0.250000X0.475000X-0.337500X0.475000X0.337500X-0.475000X0.337500X-0.475000X-0.337500X0*%
%ADD27RoundRect,0.150000X0.587500X0.150000X-0.587500X0.150000X-0.587500X-0.150000X0.587500X-0.150000X0*%
%ADD28RoundRect,0.150000X-0.587500X-0.150000X0.587500X-0.150000X0.587500X0.150000X-0.587500X0.150000X0*%
%ADD29RoundRect,0.250000X0.337500X0.475000X-0.337500X0.475000X-0.337500X-0.475000X0.337500X-0.475000X0*%
%ADD30RoundRect,0.150000X0.150000X0.625000X-0.150000X0.625000X-0.150000X-0.625000X0.150000X-0.625000X0*%
%ADD31RoundRect,0.250000X0.350000X0.650000X-0.350000X0.650000X-0.350000X-0.650000X0.350000X-0.650000X0*%
%ADD32RoundRect,0.250000X-0.337500X-0.475000X0.337500X-0.475000X0.337500X0.475000X-0.337500X0.475000X0*%
%ADD33C,2.200000*%
%ADD34C,1.850000*%
%ADD35RoundRect,0.200000X-0.600000X0.600000X-0.600000X-0.600000X0.600000X-0.600000X0.600000X0.600000X0*%
%ADD36FreePoly0,270.000000*%
%ADD37RoundRect,0.800000X-0.000010X0.800000X-0.000010X-0.800000X0.000010X-0.800000X0.000010X0.800000X0*%
%ADD38FreePoly1,270.000000*%
%ADD39FreePoly2,270.000000*%
%ADD40FreePoly3,270.000000*%
%ADD41FreePoly4,270.000000*%
%ADD42RoundRect,0.250000X-0.475000X0.337500X-0.475000X-0.337500X0.475000X-0.337500X0.475000X0.337500X0*%
G04 APERTURE END LIST*
D10*
X123200000Y-88200000D03*
X123200000Y-86200000D03*
D11*
X167800000Y-72750000D03*
X165800000Y-72750000D03*
D12*
X110000000Y-80210000D03*
D13*
X110000000Y-82750000D03*
D14*
X159090000Y-62110331D03*
X134090000Y-62110331D03*
D15*
X141050000Y-63530331D03*
D16*
X143820000Y-63530331D03*
X146590000Y-63530331D03*
X149360000Y-63530331D03*
X152130000Y-63530331D03*
X142435000Y-60690331D03*
X145205000Y-60690331D03*
X147975000Y-60690331D03*
X150745000Y-60690331D03*
D17*
X169500000Y-145500000D03*
D18*
X158550000Y-104750000D03*
D19*
X156010000Y-104750000D03*
X153470000Y-104750000D03*
X150930000Y-104750000D03*
D20*
X116500000Y-118250000D03*
X118500000Y-118250000D03*
D17*
X169500000Y-55500000D03*
D21*
X163600000Y-74900000D03*
X163600000Y-73950000D03*
X163600000Y-73000000D03*
X161325000Y-73000000D03*
X161325000Y-74900000D03*
D22*
X171200000Y-134600000D03*
X171200000Y-133950000D03*
X171200000Y-133300000D03*
X171200000Y-132650000D03*
X171200000Y-132000000D03*
X171200000Y-131350000D03*
X171200000Y-130700000D03*
X171200000Y-130050000D03*
X171200000Y-129400000D03*
X171200000Y-128750000D03*
X171200000Y-128100000D03*
X171200000Y-127450000D03*
X171200000Y-126800000D03*
X171200000Y-126150000D03*
X164000000Y-126150000D03*
X164000000Y-126800000D03*
X164000000Y-127450000D03*
X164000000Y-128100000D03*
X164000000Y-128750000D03*
X164000000Y-129400000D03*
X164000000Y-130050000D03*
X164000000Y-130700000D03*
X164000000Y-131350000D03*
X164000000Y-132000000D03*
X164000000Y-132650000D03*
X164000000Y-133300000D03*
X164000000Y-133950000D03*
X164000000Y-134600000D03*
D23*
X132437500Y-80445000D03*
X132437500Y-79175000D03*
X132437500Y-77905000D03*
X132437500Y-76635000D03*
X132437500Y-75365000D03*
X132437500Y-74095000D03*
X132437500Y-72825000D03*
X132437500Y-71555000D03*
X127487500Y-71555000D03*
X127487500Y-72825000D03*
X127487500Y-74095000D03*
X127487500Y-75365000D03*
X127487500Y-76635000D03*
X127487500Y-77905000D03*
X127487500Y-79175000D03*
X127487500Y-80445000D03*
D20*
X116500000Y-80250000D03*
X118500000Y-80250000D03*
D12*
X110000000Y-110750000D03*
D13*
X110000000Y-113290000D03*
D24*
X170500000Y-115200000D03*
X170500000Y-117200000D03*
D25*
X191244900Y-67753180D03*
X191244900Y-57750660D03*
X181250000Y-55253840D03*
X181247460Y-62751920D03*
X181250000Y-70250000D03*
X178748100Y-57755740D03*
X178748100Y-67748100D03*
D26*
X159200000Y-75037500D03*
X159200000Y-72962500D03*
D10*
X115700000Y-61000000D03*
X115700000Y-59000000D03*
D24*
X170500000Y-111450000D03*
X170500000Y-113450000D03*
X170500000Y-118950000D03*
X170500000Y-120950000D03*
D27*
X118500000Y-88150000D03*
X118500000Y-86250000D03*
X116625000Y-87200000D03*
D24*
X121000000Y-86200000D03*
X121000000Y-88200000D03*
D11*
X118500000Y-90500000D03*
X116500000Y-90500000D03*
D28*
X166312500Y-115250000D03*
X166312500Y-117150000D03*
X168187500Y-116200000D03*
D24*
X164000000Y-111450000D03*
X164000000Y-113450000D03*
D12*
X110000000Y-87750000D03*
D13*
X110000000Y-90290000D03*
D29*
X137200000Y-78400000D03*
X135125000Y-78400000D03*
D30*
X120100000Y-56275000D03*
X119100000Y-56275000D03*
X118100000Y-56275000D03*
X117100000Y-56275000D03*
D31*
X121400000Y-52400000D03*
X115800000Y-52400000D03*
D11*
X118500000Y-95500000D03*
X116500000Y-95500000D03*
D32*
X135125000Y-76200000D03*
X137200000Y-76200000D03*
D14*
X182080000Y-143250000D03*
X182080000Y-109950000D03*
D15*
X180660000Y-136295000D03*
D16*
X180660000Y-133525000D03*
X180660000Y-130755000D03*
X180660000Y-127985000D03*
X180660000Y-125215000D03*
X180660000Y-122445000D03*
X180660000Y-119675000D03*
X180660000Y-116905000D03*
X183500000Y-134910000D03*
X183500000Y-132140000D03*
X183500000Y-129370000D03*
X183500000Y-126600000D03*
X183500000Y-123830000D03*
X183500000Y-121060000D03*
X183500000Y-118290000D03*
D32*
X135125000Y-74000000D03*
X137200000Y-74000000D03*
D33*
X191370000Y-87135000D03*
D34*
X188340000Y-87435000D03*
X188340000Y-92285000D03*
D33*
X191370000Y-92585000D03*
D35*
X191500000Y-80970000D03*
D36*
X191500000Y-80970000D03*
D16*
X188960000Y-80970000D03*
D37*
X188960000Y-80170000D03*
D38*
X186420000Y-80970000D03*
D39*
X186420000Y-80970000D03*
D16*
X183880000Y-80970000D03*
D37*
X183880000Y-80170000D03*
D16*
X181340000Y-80970000D03*
D37*
X181340000Y-80170000D03*
D16*
X178800000Y-80970000D03*
D37*
X178800000Y-80170000D03*
D16*
X176260000Y-80970000D03*
D37*
X176260000Y-80170000D03*
D38*
X173720000Y-80970000D03*
D39*
X173720000Y-80970000D03*
D16*
X171180000Y-80970000D03*
D37*
X171180000Y-80170000D03*
D16*
X168640000Y-80970000D03*
D37*
X168640000Y-80170000D03*
D16*
X166100000Y-80970000D03*
D37*
X166100000Y-80170000D03*
D16*
X163560000Y-80970000D03*
D37*
X163560000Y-80170000D03*
D38*
X161020000Y-80970000D03*
D39*
X161020000Y-80970000D03*
D16*
X158480000Y-80970000D03*
D37*
X158480000Y-80170000D03*
D16*
X155940000Y-80970000D03*
D37*
X155940000Y-80170000D03*
D16*
X153400000Y-80970000D03*
D37*
X153400000Y-80170000D03*
D16*
X150860000Y-80970000D03*
D37*
X150860000Y-80170000D03*
D38*
X148320000Y-80970000D03*
D39*
X148320000Y-80970000D03*
D16*
X145780000Y-80970000D03*
D37*
X145780000Y-80170000D03*
D16*
X143240000Y-80970000D03*
D37*
X143240000Y-80170000D03*
D16*
X143240000Y-98750000D03*
D37*
X143240000Y-99550000D03*
D16*
X145780000Y-98750000D03*
D37*
X145780000Y-99550000D03*
D40*
X148320000Y-98750000D03*
D41*
X148320000Y-98750000D03*
D16*
X150860000Y-98750000D03*
D37*
X150860000Y-99550000D03*
D16*
X153400000Y-98750000D03*
D37*
X153400000Y-99550000D03*
D16*
X155940000Y-98750000D03*
D37*
X155940000Y-99550000D03*
D16*
X158480000Y-98750000D03*
D37*
X158480000Y-99550000D03*
D40*
X161020000Y-98750000D03*
D41*
X161020000Y-98750000D03*
D16*
X163560000Y-98750000D03*
D37*
X163560000Y-99550000D03*
D16*
X166100000Y-98750000D03*
D37*
X166100000Y-99550000D03*
D16*
X168640000Y-98750000D03*
D37*
X168640000Y-99550000D03*
D16*
X171180000Y-98750000D03*
D37*
X171180000Y-99550000D03*
D40*
X173720000Y-98750000D03*
D41*
X173720000Y-98750000D03*
D16*
X176260000Y-98750000D03*
D37*
X176260000Y-99550000D03*
D16*
X178800000Y-98750000D03*
D37*
X178800000Y-99550000D03*
D16*
X181340000Y-98750000D03*
D37*
X181340000Y-99550000D03*
D16*
X183880000Y-98750000D03*
D37*
X183880000Y-99550000D03*
D40*
X186420000Y-98750000D03*
D41*
X186420000Y-98750000D03*
D16*
X188960000Y-98750000D03*
D37*
X188960000Y-99550000D03*
D16*
X191500000Y-98750000D03*
D37*
X191500000Y-99550000D03*
D26*
X125000000Y-81237500D03*
X125000000Y-79162500D03*
D12*
X110000000Y-95500000D03*
D13*
X110000000Y-98040000D03*
D28*
X166312500Y-111550000D03*
X166312500Y-113450000D03*
X168187500Y-112500000D03*
D24*
X164000000Y-118950000D03*
X164000000Y-120950000D03*
D28*
X166312500Y-119000000D03*
X166312500Y-120900000D03*
X168187500Y-119950000D03*
D32*
X135125000Y-80600000D03*
X137200000Y-80600000D03*
D12*
X110000000Y-103250000D03*
D13*
X110000000Y-105790000D03*
D17*
X103500000Y-55500000D03*
D18*
X190080000Y-75250000D03*
D19*
X187540000Y-75250000D03*
X185000000Y-75250000D03*
D10*
X117800000Y-61000000D03*
X117800000Y-59000000D03*
D24*
X164000000Y-115200000D03*
X164000000Y-117200000D03*
D11*
X118500000Y-98000000D03*
X116500000Y-98000000D03*
D42*
X120800000Y-58962500D03*
X120800000Y-61037500D03*
D26*
X161500000Y-128237500D03*
X161500000Y-126162500D03*
D17*
X103500000Y-145500000D03*
D11*
X167800000Y-75200000D03*
X165800000Y-75200000D03*
X118500000Y-93000000D03*
X116500000Y-93000000D03*
D12*
X110000000Y-118250000D03*
D13*
X110000000Y-120790000D03*
M02*
