G04 #@! TF.GenerationSoftware,KiCad,Pcbnew,8.0.6*
G04 #@! TF.CreationDate,2024-11-26T08:02:09+01:00*
G04 #@! TF.ProjectId,vt2_communicator,7674325f-636f-46d6-9d75-6e696361746f,rev?*
G04 #@! TF.SameCoordinates,Original*
G04 #@! TF.FileFunction,Paste,Top*
G04 #@! TF.FilePolarity,Positive*
%FSLAX46Y46*%
G04 Gerber Fmt 4.6, Leading zero omitted, Abs format (unit mm)*
G04 Created by KiCad (PCBNEW 8.0.6) date 2024-11-26 08:02:09*
%MOMM*%
%LPD*%
G01*
G04 APERTURE LIST*
G04 Aperture macros list*
%AMRoundRect*
0 Rectangle with rounded corners*
0 $1 Rounding radius*
0 $2 $3 $4 $5 $6 $7 $8 $9 X,Y pos of 4 corners*
0 Add a 4 corners polygon primitive as box body*
4,1,4,$2,$3,$4,$5,$6,$7,$8,$9,$2,$3,0*
0 Add four circle primitives for the rounded corners*
1,1,$1+$1,$2,$3*
1,1,$1+$1,$4,$5*
1,1,$1+$1,$6,$7*
1,1,$1+$1,$8,$9*
0 Add four rect primitives between the rounded corners*
20,1,$1+$1,$2,$3,$4,$5,0*
20,1,$1+$1,$4,$5,$6,$7,0*
20,1,$1+$1,$6,$7,$8,$9,0*
20,1,$1+$1,$8,$9,$2,$3,0*%
G04 Aperture macros list end*
%ADD10RoundRect,0.250000X-0.475000X0.337500X-0.475000X-0.337500X0.475000X-0.337500X0.475000X0.337500X0*%
%ADD11RoundRect,0.250000X0.475000X-0.337500X0.475000X0.337500X-0.475000X0.337500X-0.475000X-0.337500X0*%
%ADD12RoundRect,0.250000X-0.337500X-0.475000X0.337500X-0.475000X0.337500X0.475000X-0.337500X0.475000X0*%
%ADD13RoundRect,0.250000X0.450000X-0.350000X0.450000X0.350000X-0.450000X0.350000X-0.450000X-0.350000X0*%
%ADD14RoundRect,0.250000X-0.350000X-0.450000X0.350000X-0.450000X0.350000X0.450000X-0.350000X0.450000X0*%
%ADD15RoundRect,0.250000X0.350000X0.450000X-0.350000X0.450000X-0.350000X-0.450000X0.350000X-0.450000X0*%
%ADD16RoundRect,0.150000X-0.150000X-0.625000X0.150000X-0.625000X0.150000X0.625000X-0.150000X0.625000X0*%
%ADD17RoundRect,0.250000X-0.350000X-0.650000X0.350000X-0.650000X0.350000X0.650000X-0.350000X0.650000X0*%
%ADD18RoundRect,0.250000X-0.450000X0.350000X-0.450000X-0.350000X0.450000X-0.350000X0.450000X0.350000X0*%
%ADD19RoundRect,0.150000X-0.825000X-0.150000X0.825000X-0.150000X0.825000X0.150000X-0.825000X0.150000X0*%
%ADD20R,1.750000X0.450000*%
%ADD21RoundRect,0.150000X-0.150000X0.587500X-0.150000X-0.587500X0.150000X-0.587500X0.150000X0.587500X0*%
%ADD22RoundRect,0.150000X0.150000X-0.587500X0.150000X0.587500X-0.150000X0.587500X-0.150000X-0.587500X0*%
G04 APERTURE END LIST*
D10*
X191200000Y-51787500D03*
X191200000Y-53862500D03*
D11*
X178100000Y-57775000D03*
X178100000Y-55700000D03*
D12*
X167425000Y-66450000D03*
X169500000Y-66450000D03*
D13*
X154400000Y-60350000D03*
X154400000Y-58350000D03*
D14*
X168200000Y-112275000D03*
X170200000Y-112275000D03*
D15*
X158500000Y-67000000D03*
X156500000Y-67000000D03*
D11*
X180400000Y-53837500D03*
X180400000Y-51762500D03*
D15*
X158500000Y-71400000D03*
X156500000Y-71400000D03*
D16*
X167762500Y-62500000D03*
X168762500Y-62500000D03*
X169762500Y-62500000D03*
X170762500Y-62500000D03*
D17*
X166462500Y-59975000D03*
X172062500Y-59975000D03*
D18*
X171300000Y-70550000D03*
X171300000Y-72550000D03*
X178950000Y-70550000D03*
X178950000Y-72550000D03*
X173350000Y-70550000D03*
X173350000Y-72550000D03*
D10*
X178100000Y-51725000D03*
X178100000Y-53800000D03*
D18*
X181000000Y-70550000D03*
X181000000Y-72550000D03*
D14*
X164350000Y-112275000D03*
X166350000Y-112275000D03*
X172050000Y-112275000D03*
X174050000Y-112275000D03*
D19*
X182950000Y-51710000D03*
X182950000Y-52980000D03*
X182950000Y-54250000D03*
X182950000Y-55520000D03*
X182950000Y-56790000D03*
X182950000Y-58060000D03*
X182950000Y-59330000D03*
X182950000Y-60600000D03*
X187900000Y-60600000D03*
X187900000Y-59330000D03*
X187900000Y-58060000D03*
X187900000Y-56790000D03*
X187900000Y-55520000D03*
X187900000Y-54250000D03*
X187900000Y-52980000D03*
X187900000Y-51710000D03*
D14*
X159350000Y-99450000D03*
X161350000Y-99450000D03*
X159350000Y-101650000D03*
X161350000Y-101650000D03*
D20*
X182375000Y-108775000D03*
X182375000Y-109425000D03*
X182375000Y-110075000D03*
X182375000Y-110725000D03*
X182375000Y-111375000D03*
X182375000Y-112025000D03*
X182375000Y-112675000D03*
X182375000Y-113325000D03*
X182375000Y-113975000D03*
X182375000Y-114625000D03*
X182375000Y-115275000D03*
X182375000Y-115925000D03*
X182375000Y-116575000D03*
X182375000Y-117225000D03*
X189575000Y-117225000D03*
X189575000Y-116575000D03*
X189575000Y-115925000D03*
X189575000Y-115275000D03*
X189575000Y-114625000D03*
X189575000Y-113975000D03*
X189575000Y-113325000D03*
X189575000Y-112675000D03*
X189575000Y-112025000D03*
X189575000Y-111375000D03*
X189575000Y-110725000D03*
X189575000Y-110075000D03*
X189575000Y-109425000D03*
X189575000Y-108775000D03*
D15*
X158500000Y-64800000D03*
X156500000Y-64800000D03*
D21*
X166600000Y-108225000D03*
X164700000Y-108225000D03*
X165650000Y-110100000D03*
D13*
X175500000Y-110125000D03*
X175500000Y-108125000D03*
D21*
X173600000Y-108225000D03*
X171700000Y-108225000D03*
X172650000Y-110100000D03*
D10*
X180400000Y-55762500D03*
X180400000Y-57837500D03*
D15*
X158500000Y-69200000D03*
X156500000Y-69200000D03*
D10*
X179975000Y-113262500D03*
X179975000Y-115337500D03*
D21*
X170100000Y-108237500D03*
X168200000Y-108237500D03*
X169150000Y-110112500D03*
D14*
X156400000Y-58450000D03*
X158400000Y-58450000D03*
D22*
X156400000Y-62550000D03*
X158300000Y-62550000D03*
X157350000Y-60675000D03*
M02*
