G04 #@! TF.GenerationSoftware,KiCad,Pcbnew,8.0.6*
G04 #@! TF.CreationDate,2024-11-26T08:02:09+01:00*
G04 #@! TF.ProjectId,vt2_communicator,7674325f-636f-46d6-9d75-6e696361746f,rev?*
G04 #@! TF.SameCoordinates,Original*
G04 #@! TF.FileFunction,Legend,Bot*
G04 #@! TF.FilePolarity,Positive*
%FSLAX46Y46*%
G04 Gerber Fmt 4.6, Leading zero omitted, Abs format (unit mm)*
G04 Created by KiCad (PCBNEW 8.0.6) date 2024-11-26 08:02:09*
%MOMM*%
%LPD*%
G01*
G04 APERTURE LIST*
G04 Aperture macros list*
%AMRoundRect*
0 Rectangle with rounded corners*
0 $1 Rounding radius*
0 $2 $3 $4 $5 $6 $7 $8 $9 X,Y pos of 4 corners*
0 Add a 4 corners polygon primitive as box body*
4,1,4,$2,$3,$4,$5,$6,$7,$8,$9,$2,$3,0*
0 Add four circle primitives for the rounded corners*
1,1,$1+$1,$2,$3*
1,1,$1+$1,$4,$5*
1,1,$1+$1,$6,$7*
1,1,$1+$1,$8,$9*
0 Add four rect primitives between the rounded corners*
20,1,$1+$1,$2,$3,$4,$5,0*
20,1,$1+$1,$4,$5,$6,$7,0*
20,1,$1+$1,$6,$7,$8,$9,0*
20,1,$1+$1,$8,$9,$2,$3,0*%
%AMFreePoly0*
4,1,28,0.605014,0.794986,0.644504,0.794986,0.724698,0.756366,0.780194,0.686777,0.800000,0.600000,0.800000,-0.600000,0.780194,-0.686777,0.724698,-0.756366,0.644504,-0.794986,0.605014,-0.794986,0.600000,-0.800000,0.000000,-0.800000,-0.178017,-0.779942,-0.347107,-0.720775,-0.498792,-0.625465,-0.625465,-0.498792,-0.720775,-0.347107,-0.779942,-0.178017,-0.800000,0.000000,-0.779942,0.178017,
-0.720775,0.347107,-0.625465,0.498792,-0.498792,0.625465,-0.347107,0.720775,-0.178017,0.779942,0.000000,0.800000,0.600000,0.800000,0.605014,0.794986,0.605014,0.794986,$1*%
%AMFreePoly1*
4,1,28,0.178017,0.779942,0.347107,0.720775,0.498792,0.625465,0.625465,0.498792,0.720775,0.347107,0.779942,0.178017,0.800000,0.000000,0.779942,-0.178017,0.720775,-0.347107,0.625465,-0.498792,0.498792,-0.625465,0.347107,-0.720775,0.178017,-0.779942,0.000000,-0.800000,-0.600000,-0.800000,-0.605014,-0.794986,-0.644504,-0.794986,-0.724698,-0.756366,-0.780194,-0.686777,-0.800000,-0.600000,
-0.800000,0.600000,-0.780194,0.686777,-0.724698,0.756366,-0.644504,0.794986,-0.605014,0.794986,-0.600000,0.800000,0.000000,0.800000,0.178017,0.779942,0.178017,0.779942,$1*%
G04 Aperture macros list end*
%ADD10C,0.500000*%
%ADD11R,1.800000X1.800000*%
%ADD12C,1.800000*%
%ADD13R,1.700000X1.700000*%
%ADD14O,1.700000X1.700000*%
%ADD15C,3.200000*%
%ADD16C,2.200000*%
%ADD17C,1.850000*%
%ADD18RoundRect,0.200000X-0.600000X0.600000X-0.600000X-0.600000X0.600000X-0.600000X0.600000X0.600000X0*%
%ADD19C,1.600000*%
%ADD20FreePoly0,270.000000*%
%ADD21FreePoly1,270.000000*%
%ADD22C,4.000000*%
%ADD23R,1.600000X1.600000*%
%ADD24RoundRect,0.250000X0.600000X0.725000X-0.600000X0.725000X-0.600000X-0.725000X0.600000X-0.725000X0*%
%ADD25O,1.700000X1.950000*%
G04 APERTURE END LIST*
D10*
X158825000Y-41475000D02*
X158945590Y-41525000D01*
X159049150Y-41604500D01*
X162295000Y-45599400D01*
X163678380Y-44594300D01*
X167290744Y-44594300D01*
X168342929Y-44594300D01*
X171712800Y-44594300D01*
X177585471Y-48861020D01*
X180672591Y-45773900D01*
X180258090Y-42458000D01*
X169055011Y-42458000D01*
X168342929Y-44594300D01*
X167290744Y-44594300D01*
X168212619Y-41828600D01*
X168262576Y-41708000D01*
X168342029Y-41604500D01*
X168445590Y-41525000D01*
X168566180Y-41475000D01*
X168695590Y-41458000D01*
X180695590Y-41458000D01*
X180824992Y-41475000D01*
X180945590Y-41525000D01*
X181049090Y-41604500D01*
X181128589Y-41708000D01*
X181178592Y-41828600D01*
X181195590Y-41958000D01*
X181695590Y-45958000D01*
X181678592Y-46087400D01*
X181628589Y-46208000D01*
X181549090Y-46311600D01*
X178293990Y-49566700D01*
X180695590Y-56958000D01*
X178293990Y-64349300D01*
X181549090Y-67604400D01*
X181628589Y-67708000D01*
X181678592Y-67828600D01*
X181695590Y-67958000D01*
X181195590Y-71958000D01*
X181178592Y-72087400D01*
X181128589Y-72208000D01*
X181049090Y-72311500D01*
X180945590Y-72390999D01*
X180824992Y-72441000D01*
X180695590Y-72458000D01*
X168695590Y-72458000D01*
X168566180Y-72441000D01*
X168445590Y-72390999D01*
X168342029Y-72311500D01*
X168262576Y-72208000D01*
X168212619Y-72087400D01*
X167290744Y-69321701D01*
X168342929Y-69321701D01*
X169055011Y-71458000D01*
X180258090Y-71458000D01*
X180672591Y-68142101D01*
X177585471Y-65054981D01*
X171712800Y-69321701D01*
X168342929Y-69321701D01*
X167290744Y-69321701D01*
X163678380Y-69321701D01*
X162295000Y-68316601D01*
X159049150Y-72311500D01*
X158945590Y-72390999D01*
X158825000Y-72441000D01*
X158695590Y-72458000D01*
X154695590Y-72458000D01*
X154566190Y-72441000D01*
X154445590Y-72390999D01*
X154342090Y-72311500D01*
X154262590Y-72208000D01*
X154212590Y-72087400D01*
X153224007Y-66155891D01*
X154233090Y-66155891D01*
X155116790Y-71458000D01*
X158461030Y-71458000D01*
X161489110Y-67731100D01*
X157178390Y-64599201D01*
X157087813Y-64320431D01*
X158412720Y-64320431D01*
X163987399Y-68370701D01*
X170878051Y-68370701D01*
X169579930Y-64375469D01*
X168628842Y-64066440D01*
X170530990Y-64066440D01*
X171829101Y-68061699D01*
X177403781Y-64011421D01*
X179533090Y-57458000D01*
X175332311Y-57458000D01*
X170530990Y-64066440D01*
X168628842Y-64066440D01*
X161811250Y-61851261D01*
X158412720Y-64320431D01*
X157087813Y-64320431D01*
X156939990Y-63865471D01*
X154233090Y-66155891D01*
X153224007Y-66155891D01*
X153212590Y-66087391D01*
X153195590Y-65958000D01*
X153212590Y-65828590D01*
X153262590Y-65708000D01*
X153342090Y-65604439D01*
X156592090Y-62854441D01*
X156607590Y-62842510D01*
X155832790Y-60458000D01*
X151695590Y-60458000D01*
X151566190Y-60440960D01*
X151445590Y-60391001D01*
X151342090Y-60311550D01*
X148342090Y-57311546D01*
X148262589Y-57208000D01*
X148212590Y-57087395D01*
X148195590Y-56958000D01*
X149402690Y-56958000D01*
X151902690Y-59458000D01*
X155507890Y-59458000D01*
X154695590Y-56958000D01*
X155695590Y-56958000D01*
X157824940Y-63511421D01*
X161181835Y-61072490D01*
X162032470Y-61072490D01*
X169858710Y-63615391D01*
X174695590Y-56958000D01*
X169858710Y-50300609D01*
X162032470Y-52843509D01*
X162032470Y-61072490D01*
X161181835Y-61072490D01*
X161223470Y-61042240D01*
X161223470Y-52873760D01*
X161181834Y-52843509D01*
X157824940Y-50404580D01*
X155695590Y-56958000D01*
X154695590Y-56958000D01*
X155507890Y-54458000D01*
X151902690Y-54458000D01*
X149402690Y-56958000D01*
X148195590Y-56958000D01*
X148212590Y-56828605D01*
X148262589Y-56708000D01*
X148342090Y-56604454D01*
X151342090Y-53604450D01*
X151445590Y-53524999D01*
X151566190Y-53475040D01*
X151695590Y-53458000D01*
X155832790Y-53458000D01*
X156607590Y-51073490D01*
X156592090Y-51061560D01*
X153342090Y-48311560D01*
X153262590Y-48208000D01*
X153212590Y-48087410D01*
X153195590Y-47958000D01*
X153212590Y-47828610D01*
X153224007Y-47760110D01*
X154233090Y-47760110D01*
X156939990Y-50050529D01*
X157087813Y-49595569D01*
X158412720Y-49595569D01*
X161811250Y-52064740D01*
X168628840Y-49849560D01*
X170530990Y-49849560D01*
X175332311Y-56458000D01*
X179533090Y-56458000D01*
X177403781Y-49904580D01*
X171829101Y-45854300D01*
X170530990Y-49849560D01*
X168628840Y-49849560D01*
X169579930Y-49540530D01*
X170878051Y-45545300D01*
X163987399Y-45545300D01*
X158412720Y-49595569D01*
X157087813Y-49595569D01*
X157178390Y-49316800D01*
X161489110Y-46184900D01*
X158461030Y-42458000D01*
X155116790Y-42458000D01*
X154233090Y-47760110D01*
X153224007Y-47760110D01*
X154212590Y-41828600D01*
X154262590Y-41708000D01*
X154342090Y-41604500D01*
X154445590Y-41525000D01*
X154566190Y-41475000D01*
X154695590Y-41458000D01*
X158695590Y-41458000D01*
X158825000Y-41475000D01*
G36*
X158825000Y-41475000D02*
G01*
X158945590Y-41525000D01*
X159049150Y-41604500D01*
X162295000Y-45599400D01*
X163678380Y-44594300D01*
X167290744Y-44594300D01*
X168342929Y-44594300D01*
X171712800Y-44594300D01*
X177585471Y-48861020D01*
X180672591Y-45773900D01*
X180258090Y-42458000D01*
X169055011Y-42458000D01*
X168342929Y-44594300D01*
X167290744Y-44594300D01*
X168212619Y-41828600D01*
X168262576Y-41708000D01*
X168342029Y-41604500D01*
X168445590Y-41525000D01*
X168566180Y-41475000D01*
X168695590Y-41458000D01*
X180695590Y-41458000D01*
X180824992Y-41475000D01*
X180945590Y-41525000D01*
X181049090Y-41604500D01*
X181128589Y-41708000D01*
X181178592Y-41828600D01*
X181195590Y-41958000D01*
X181695590Y-45958000D01*
X181678592Y-46087400D01*
X181628589Y-46208000D01*
X181549090Y-46311600D01*
X178293990Y-49566700D01*
X180695590Y-56958000D01*
X178293990Y-64349300D01*
X181549090Y-67604400D01*
X181628589Y-67708000D01*
X181678592Y-67828600D01*
X181695590Y-67958000D01*
X181195590Y-71958000D01*
X181178592Y-72087400D01*
X181128589Y-72208000D01*
X181049090Y-72311500D01*
X180945590Y-72390999D01*
X180824992Y-72441000D01*
X180695590Y-72458000D01*
X168695590Y-72458000D01*
X168566180Y-72441000D01*
X168445590Y-72390999D01*
X168342029Y-72311500D01*
X168262576Y-72208000D01*
X168212619Y-72087400D01*
X167290744Y-69321701D01*
X168342929Y-69321701D01*
X169055011Y-71458000D01*
X180258090Y-71458000D01*
X180672591Y-68142101D01*
X177585471Y-65054981D01*
X171712800Y-69321701D01*
X168342929Y-69321701D01*
X167290744Y-69321701D01*
X163678380Y-69321701D01*
X162295000Y-68316601D01*
X159049150Y-72311500D01*
X158945590Y-72390999D01*
X158825000Y-72441000D01*
X158695590Y-72458000D01*
X154695590Y-72458000D01*
X154566190Y-72441000D01*
X154445590Y-72390999D01*
X154342090Y-72311500D01*
X154262590Y-72208000D01*
X154212590Y-72087400D01*
X153224007Y-66155891D01*
X154233090Y-66155891D01*
X155116790Y-71458000D01*
X158461030Y-71458000D01*
X161489110Y-67731100D01*
X157178390Y-64599201D01*
X157087813Y-64320431D01*
X158412720Y-64320431D01*
X163987399Y-68370701D01*
X170878051Y-68370701D01*
X169579930Y-64375469D01*
X168628842Y-64066440D01*
X170530990Y-64066440D01*
X171829101Y-68061699D01*
X177403781Y-64011421D01*
X179533090Y-57458000D01*
X175332311Y-57458000D01*
X170530990Y-64066440D01*
X168628842Y-64066440D01*
X161811250Y-61851261D01*
X158412720Y-64320431D01*
X157087813Y-64320431D01*
X156939990Y-63865471D01*
X154233090Y-66155891D01*
X153224007Y-66155891D01*
X153212590Y-66087391D01*
X153195590Y-65958000D01*
X153212590Y-65828590D01*
X153262590Y-65708000D01*
X153342090Y-65604439D01*
X156592090Y-62854441D01*
X156607590Y-62842510D01*
X155832790Y-60458000D01*
X151695590Y-60458000D01*
X151566190Y-60440960D01*
X151445590Y-60391001D01*
X151342090Y-60311550D01*
X148342090Y-57311546D01*
X148262589Y-57208000D01*
X148212590Y-57087395D01*
X148195590Y-56958000D01*
X149402690Y-56958000D01*
X151902690Y-59458000D01*
X155507890Y-59458000D01*
X154695590Y-56958000D01*
X155695590Y-56958000D01*
X157824940Y-63511421D01*
X161181835Y-61072490D01*
X162032470Y-61072490D01*
X169858710Y-63615391D01*
X174695590Y-56958000D01*
X169858710Y-50300609D01*
X162032470Y-52843509D01*
X162032470Y-61072490D01*
X161181835Y-61072490D01*
X161223470Y-61042240D01*
X161223470Y-52873760D01*
X161181834Y-52843509D01*
X157824940Y-50404580D01*
X155695590Y-56958000D01*
X154695590Y-56958000D01*
X155507890Y-54458000D01*
X151902690Y-54458000D01*
X149402690Y-56958000D01*
X148195590Y-56958000D01*
X148212590Y-56828605D01*
X148262589Y-56708000D01*
X148342090Y-56604454D01*
X151342090Y-53604450D01*
X151445590Y-53524999D01*
X151566190Y-53475040D01*
X151695590Y-53458000D01*
X155832790Y-53458000D01*
X156607590Y-51073490D01*
X156592090Y-51061560D01*
X153342090Y-48311560D01*
X153262590Y-48208000D01*
X153212590Y-48087410D01*
X153195590Y-47958000D01*
X153212590Y-47828610D01*
X153224007Y-47760110D01*
X154233090Y-47760110D01*
X156939990Y-50050529D01*
X157087813Y-49595569D01*
X158412720Y-49595569D01*
X161811250Y-52064740D01*
X168628840Y-49849560D01*
X170530990Y-49849560D01*
X175332311Y-56458000D01*
X179533090Y-56458000D01*
X177403781Y-49904580D01*
X171829101Y-45854300D01*
X170530990Y-49849560D01*
X168628840Y-49849560D01*
X169579930Y-49540530D01*
X170878051Y-45545300D01*
X163987399Y-45545300D01*
X158412720Y-49595569D01*
X157087813Y-49595569D01*
X157178390Y-49316800D01*
X161489110Y-46184900D01*
X158461030Y-42458000D01*
X155116790Y-42458000D01*
X154233090Y-47760110D01*
X153224007Y-47760110D01*
X154212590Y-41828600D01*
X154262590Y-41708000D01*
X154342090Y-41604500D01*
X154445590Y-41525000D01*
X154566190Y-41475000D01*
X154695590Y-41458000D01*
X158695590Y-41458000D01*
X158825000Y-41475000D01*
G37*
X170695590Y-55458000D02*
X169695590Y-55458000D01*
X169695590Y-58458000D01*
X170695590Y-58458000D01*
X170695590Y-59458000D01*
X164695590Y-59458000D01*
X164695590Y-58458000D01*
X165695590Y-58458000D01*
X165695590Y-55458000D01*
X166695590Y-55458000D01*
X166695590Y-58458000D01*
X168695590Y-58458000D01*
X168695590Y-55458000D01*
X166695590Y-55458000D01*
X165695590Y-55458000D01*
X164695590Y-55458000D01*
X164695590Y-54458000D01*
X170695590Y-54458000D01*
X170695590Y-55458000D01*
G36*
X170695590Y-55458000D02*
G01*
X169695590Y-55458000D01*
X169695590Y-58458000D01*
X170695590Y-58458000D01*
X170695590Y-59458000D01*
X164695590Y-59458000D01*
X164695590Y-58458000D01*
X165695590Y-58458000D01*
X165695590Y-55458000D01*
X166695590Y-55458000D01*
X166695590Y-58458000D01*
X168695590Y-58458000D01*
X168695590Y-55458000D01*
X166695590Y-55458000D01*
X165695590Y-55458000D01*
X164695590Y-55458000D01*
X164695590Y-54458000D01*
X170695590Y-54458000D01*
X170695590Y-55458000D01*
G37*
%LPC*%
D11*
X149050000Y-99660000D03*
D12*
X149050000Y-102200000D03*
D13*
X186850000Y-100160000D03*
D14*
X186850000Y-102700000D03*
D11*
X149075000Y-76825000D03*
D12*
X149075000Y-79365000D03*
D11*
X149100000Y-69210000D03*
D12*
X149100000Y-71750000D03*
D15*
X143500000Y-44500000D03*
D11*
X149000000Y-107210000D03*
D12*
X149000000Y-109750000D03*
D16*
X206270000Y-82585000D03*
D17*
X203240000Y-82885000D03*
X203240000Y-87735000D03*
D16*
X206270000Y-88035000D03*
D18*
X206400000Y-76420000D03*
D19*
X203860000Y-76420000D03*
D20*
X201320000Y-76420000D03*
D19*
X198780000Y-76420000D03*
X196240000Y-76420000D03*
X193700000Y-76420000D03*
X191160000Y-76420000D03*
D20*
X188620000Y-76420000D03*
D19*
X186080000Y-76420000D03*
X183540000Y-76420000D03*
X181000000Y-76420000D03*
X178460000Y-76420000D03*
D20*
X175920000Y-76420000D03*
D19*
X173380000Y-76420000D03*
X170840000Y-76420000D03*
X168300000Y-76420000D03*
X165760000Y-76420000D03*
D20*
X163220000Y-76420000D03*
D19*
X160680000Y-76420000D03*
X158140000Y-76420000D03*
X158140000Y-94200000D03*
X160680000Y-94200000D03*
D21*
X163220000Y-94200000D03*
D19*
X165760000Y-94200000D03*
X168300000Y-94200000D03*
X170840000Y-94200000D03*
X173380000Y-94200000D03*
D21*
X175920000Y-94200000D03*
D19*
X178460000Y-94200000D03*
X181000000Y-94200000D03*
X183540000Y-94200000D03*
X186080000Y-94200000D03*
D21*
X188620000Y-94200000D03*
D19*
X191160000Y-94200000D03*
X193700000Y-94200000D03*
X196240000Y-94200000D03*
X198780000Y-94200000D03*
D21*
X201320000Y-94200000D03*
D19*
X203860000Y-94200000D03*
X206400000Y-94200000D03*
D13*
X190680000Y-70400000D03*
D14*
X188140000Y-70400000D03*
X185600000Y-70400000D03*
D13*
X190650000Y-100125000D03*
D14*
X190650000Y-102665000D03*
D22*
X196780000Y-135100000D03*
X196780000Y-101800000D03*
D23*
X195360000Y-128145000D03*
D19*
X195360000Y-125375000D03*
X195360000Y-122605000D03*
X195360000Y-119835000D03*
X195360000Y-117065000D03*
X195360000Y-114295000D03*
X195360000Y-111525000D03*
X195360000Y-108755000D03*
X198200000Y-126760000D03*
X198200000Y-123990000D03*
X198200000Y-121220000D03*
X198200000Y-118450000D03*
X198200000Y-115680000D03*
X198200000Y-112910000D03*
X198200000Y-110140000D03*
D15*
X189500000Y-44500000D03*
D22*
X196800000Y-68700000D03*
X196800000Y-43700000D03*
D23*
X195380000Y-50660000D03*
D19*
X195380000Y-53430000D03*
X195380000Y-56200000D03*
X195380000Y-58970000D03*
X195380000Y-61740000D03*
X198220000Y-52045000D03*
X198220000Y-54815000D03*
X198220000Y-57585000D03*
X198220000Y-60355000D03*
D15*
X143500000Y-134500000D03*
X189500000Y-134500000D03*
D11*
X149075000Y-84375000D03*
D12*
X149075000Y-86915000D03*
D13*
X183050000Y-100160000D03*
D14*
X183050000Y-102700000D03*
D24*
X173450000Y-102400000D03*
D25*
X170950000Y-102400000D03*
X168450000Y-102400000D03*
X165950000Y-102400000D03*
D11*
X149100000Y-92060000D03*
D12*
X149100000Y-94600000D03*
%LPD*%
M02*
