%TF.GenerationSoftware,KiCad,Pcbnew,8.0.6*%
%TF.CreationDate,2024-11-26T08:02:54+01:00*%
%TF.ProjectId,vt2_communicator,7674325f-636f-46d6-9d75-6e696361746f,rev?*%
%TF.SameCoordinates,Original*%
%TF.FileFunction,Drillmap*%
%TF.FilePolarity,Positive*%
%FSLAX45Y45*%
G04 Gerber Fmt 4.5, Leading zero omitted, Abs format (unit mm)*
G04 Created by KiCad (PCBNEW 8.0.6) date 2024-11-26 08:02:54*
%MOMM*%
%LPD*%
G01*
G04 APERTURE LIST*
%ADD10C,0.200000*%
%ADD11C,0.185000*%
%ADD12C,0.220000*%
%ADD13C,0.320000*%
G04 APERTURE END LIST*
D10*
X14000000Y-4000000D02*
X14000000Y-13900000D01*
X14000000Y-13900000D02*
X20800000Y-13900000D01*
X20800000Y-4000000D02*
X14000000Y-4000000D01*
X20800000Y-13900000D02*
X20800000Y-4000000D01*
D11*
X20231500Y-8196000D02*
X20416500Y-8381000D01*
X20416500Y-8196000D02*
X20231500Y-8381000D01*
X20231500Y-8681000D02*
X20416500Y-8866000D01*
X20416500Y-8681000D02*
X20231500Y-8866000D01*
D12*
X20737000Y-8258500D02*
G75*
G02*
X20517000Y-8258500I-110000J0D01*
G01*
X20517000Y-8258500D02*
G75*
G02*
X20737000Y-8258500I110000J0D01*
G01*
X20737000Y-8803500D02*
G75*
G02*
X20517000Y-8803500I-110000J0D01*
G01*
X20517000Y-8803500D02*
G75*
G02*
X20737000Y-8803500I110000J0D01*
G01*
D13*
X14350000Y-4290000D02*
X14350000Y-4610000D01*
X14190000Y-4450000D02*
X14510000Y-4450000D01*
X14350000Y-13290000D02*
X14350000Y-13610000D01*
X14190000Y-13450000D02*
X14510000Y-13450000D01*
X18950000Y-4290000D02*
X18950000Y-4610000D01*
X18790000Y-4450000D02*
X19110000Y-4450000D01*
X18950000Y-13290000D02*
X18950000Y-13610000D01*
X18790000Y-13450000D02*
X19110000Y-13450000D01*
D10*
X14250777Y-14221484D02*
X14250777Y-14021484D01*
X14250777Y-14021484D02*
X14298396Y-14021484D01*
X14298396Y-14021484D02*
X14326967Y-14031008D01*
X14326967Y-14031008D02*
X14346015Y-14050055D01*
X14346015Y-14050055D02*
X14355539Y-14069103D01*
X14355539Y-14069103D02*
X14365062Y-14107198D01*
X14365062Y-14107198D02*
X14365062Y-14135769D01*
X14365062Y-14135769D02*
X14355539Y-14173865D01*
X14355539Y-14173865D02*
X14346015Y-14192912D01*
X14346015Y-14192912D02*
X14326967Y-14211960D01*
X14326967Y-14211960D02*
X14298396Y-14221484D01*
X14298396Y-14221484D02*
X14250777Y-14221484D01*
X14450777Y-14221484D02*
X14450777Y-14088150D01*
X14450777Y-14126246D02*
X14460301Y-14107198D01*
X14460301Y-14107198D02*
X14469824Y-14097674D01*
X14469824Y-14097674D02*
X14488872Y-14088150D01*
X14488872Y-14088150D02*
X14507920Y-14088150D01*
X14574586Y-14221484D02*
X14574586Y-14088150D01*
X14574586Y-14021484D02*
X14565062Y-14031008D01*
X14565062Y-14031008D02*
X14574586Y-14040531D01*
X14574586Y-14040531D02*
X14584110Y-14031008D01*
X14584110Y-14031008D02*
X14574586Y-14021484D01*
X14574586Y-14021484D02*
X14574586Y-14040531D01*
X14698396Y-14221484D02*
X14679348Y-14211960D01*
X14679348Y-14211960D02*
X14669824Y-14192912D01*
X14669824Y-14192912D02*
X14669824Y-14021484D01*
X14803158Y-14221484D02*
X14784110Y-14211960D01*
X14784110Y-14211960D02*
X14774586Y-14192912D01*
X14774586Y-14192912D02*
X14774586Y-14021484D01*
X15031729Y-14221484D02*
X15031729Y-14021484D01*
X15031729Y-14021484D02*
X15098396Y-14164341D01*
X15098396Y-14164341D02*
X15165062Y-14021484D01*
X15165062Y-14021484D02*
X15165062Y-14221484D01*
X15346015Y-14221484D02*
X15346015Y-14116722D01*
X15346015Y-14116722D02*
X15336491Y-14097674D01*
X15336491Y-14097674D02*
X15317443Y-14088150D01*
X15317443Y-14088150D02*
X15279348Y-14088150D01*
X15279348Y-14088150D02*
X15260301Y-14097674D01*
X15346015Y-14211960D02*
X15326967Y-14221484D01*
X15326967Y-14221484D02*
X15279348Y-14221484D01*
X15279348Y-14221484D02*
X15260301Y-14211960D01*
X15260301Y-14211960D02*
X15250777Y-14192912D01*
X15250777Y-14192912D02*
X15250777Y-14173865D01*
X15250777Y-14173865D02*
X15260301Y-14154817D01*
X15260301Y-14154817D02*
X15279348Y-14145293D01*
X15279348Y-14145293D02*
X15326967Y-14145293D01*
X15326967Y-14145293D02*
X15346015Y-14135769D01*
X15441253Y-14088150D02*
X15441253Y-14288150D01*
X15441253Y-14097674D02*
X15460301Y-14088150D01*
X15460301Y-14088150D02*
X15498396Y-14088150D01*
X15498396Y-14088150D02*
X15517443Y-14097674D01*
X15517443Y-14097674D02*
X15526967Y-14107198D01*
X15526967Y-14107198D02*
X15536491Y-14126246D01*
X15536491Y-14126246D02*
X15536491Y-14183388D01*
X15536491Y-14183388D02*
X15526967Y-14202436D01*
X15526967Y-14202436D02*
X15517443Y-14211960D01*
X15517443Y-14211960D02*
X15498396Y-14221484D01*
X15498396Y-14221484D02*
X15460301Y-14221484D01*
X15460301Y-14221484D02*
X15441253Y-14211960D01*
X15622205Y-14202436D02*
X15631729Y-14211960D01*
X15631729Y-14211960D02*
X15622205Y-14221484D01*
X15622205Y-14221484D02*
X15612682Y-14211960D01*
X15612682Y-14211960D02*
X15622205Y-14202436D01*
X15622205Y-14202436D02*
X15622205Y-14221484D01*
X15622205Y-14097674D02*
X15631729Y-14107198D01*
X15631729Y-14107198D02*
X15622205Y-14116722D01*
X15622205Y-14116722D02*
X15612682Y-14107198D01*
X15612682Y-14107198D02*
X15622205Y-14097674D01*
X15622205Y-14097674D02*
X15622205Y-14116722D01*
D11*
X13805000Y-14457500D02*
X13990000Y-14642500D01*
X13990000Y-14457500D02*
X13805000Y-14642500D01*
D10*
X14355539Y-14641484D02*
X14241253Y-14641484D01*
X14298396Y-14641484D02*
X14298396Y-14441484D01*
X14298396Y-14441484D02*
X14279348Y-14470055D01*
X14279348Y-14470055D02*
X14260301Y-14489103D01*
X14260301Y-14489103D02*
X14241253Y-14498627D01*
X14441253Y-14622436D02*
X14450777Y-14631960D01*
X14450777Y-14631960D02*
X14441253Y-14641484D01*
X14441253Y-14641484D02*
X14431729Y-14631960D01*
X14431729Y-14631960D02*
X14441253Y-14622436D01*
X14441253Y-14622436D02*
X14441253Y-14641484D01*
X14565062Y-14527198D02*
X14546015Y-14517674D01*
X14546015Y-14517674D02*
X14536491Y-14508150D01*
X14536491Y-14508150D02*
X14526967Y-14489103D01*
X14526967Y-14489103D02*
X14526967Y-14479579D01*
X14526967Y-14479579D02*
X14536491Y-14460531D01*
X14536491Y-14460531D02*
X14546015Y-14451008D01*
X14546015Y-14451008D02*
X14565062Y-14441484D01*
X14565062Y-14441484D02*
X14603158Y-14441484D01*
X14603158Y-14441484D02*
X14622205Y-14451008D01*
X14622205Y-14451008D02*
X14631729Y-14460531D01*
X14631729Y-14460531D02*
X14641253Y-14479579D01*
X14641253Y-14479579D02*
X14641253Y-14489103D01*
X14641253Y-14489103D02*
X14631729Y-14508150D01*
X14631729Y-14508150D02*
X14622205Y-14517674D01*
X14622205Y-14517674D02*
X14603158Y-14527198D01*
X14603158Y-14527198D02*
X14565062Y-14527198D01*
X14565062Y-14527198D02*
X14546015Y-14536722D01*
X14546015Y-14536722D02*
X14536491Y-14546246D01*
X14536491Y-14546246D02*
X14526967Y-14565293D01*
X14526967Y-14565293D02*
X14526967Y-14603388D01*
X14526967Y-14603388D02*
X14536491Y-14622436D01*
X14536491Y-14622436D02*
X14546015Y-14631960D01*
X14546015Y-14631960D02*
X14565062Y-14641484D01*
X14565062Y-14641484D02*
X14603158Y-14641484D01*
X14603158Y-14641484D02*
X14622205Y-14631960D01*
X14622205Y-14631960D02*
X14631729Y-14622436D01*
X14631729Y-14622436D02*
X14641253Y-14603388D01*
X14641253Y-14603388D02*
X14641253Y-14565293D01*
X14641253Y-14565293D02*
X14631729Y-14546246D01*
X14631729Y-14546246D02*
X14622205Y-14536722D01*
X14622205Y-14536722D02*
X14603158Y-14527198D01*
X14822205Y-14441484D02*
X14726967Y-14441484D01*
X14726967Y-14441484D02*
X14717443Y-14536722D01*
X14717443Y-14536722D02*
X14726967Y-14527198D01*
X14726967Y-14527198D02*
X14746015Y-14517674D01*
X14746015Y-14517674D02*
X14793634Y-14517674D01*
X14793634Y-14517674D02*
X14812682Y-14527198D01*
X14812682Y-14527198D02*
X14822205Y-14536722D01*
X14822205Y-14536722D02*
X14831729Y-14555769D01*
X14831729Y-14555769D02*
X14831729Y-14603388D01*
X14831729Y-14603388D02*
X14822205Y-14622436D01*
X14822205Y-14622436D02*
X14812682Y-14631960D01*
X14812682Y-14631960D02*
X14793634Y-14641484D01*
X14793634Y-14641484D02*
X14746015Y-14641484D01*
X14746015Y-14641484D02*
X14726967Y-14631960D01*
X14726967Y-14631960D02*
X14717443Y-14622436D01*
X14955539Y-14441484D02*
X14974586Y-14441484D01*
X14974586Y-14441484D02*
X14993634Y-14451008D01*
X14993634Y-14451008D02*
X15003158Y-14460531D01*
X15003158Y-14460531D02*
X15012682Y-14479579D01*
X15012682Y-14479579D02*
X15022205Y-14517674D01*
X15022205Y-14517674D02*
X15022205Y-14565293D01*
X15022205Y-14565293D02*
X15012682Y-14603388D01*
X15012682Y-14603388D02*
X15003158Y-14622436D01*
X15003158Y-14622436D02*
X14993634Y-14631960D01*
X14993634Y-14631960D02*
X14974586Y-14641484D01*
X14974586Y-14641484D02*
X14955539Y-14641484D01*
X14955539Y-14641484D02*
X14936491Y-14631960D01*
X14936491Y-14631960D02*
X14926967Y-14622436D01*
X14926967Y-14622436D02*
X14917443Y-14603388D01*
X14917443Y-14603388D02*
X14907920Y-14565293D01*
X14907920Y-14565293D02*
X14907920Y-14517674D01*
X14907920Y-14517674D02*
X14917443Y-14479579D01*
X14917443Y-14479579D02*
X14926967Y-14460531D01*
X14926967Y-14460531D02*
X14936491Y-14451008D01*
X14936491Y-14451008D02*
X14955539Y-14441484D01*
X15107920Y-14641484D02*
X15107920Y-14508150D01*
X15107920Y-14527198D02*
X15117443Y-14517674D01*
X15117443Y-14517674D02*
X15136491Y-14508150D01*
X15136491Y-14508150D02*
X15165063Y-14508150D01*
X15165063Y-14508150D02*
X15184110Y-14517674D01*
X15184110Y-14517674D02*
X15193634Y-14536722D01*
X15193634Y-14536722D02*
X15193634Y-14641484D01*
X15193634Y-14536722D02*
X15203158Y-14517674D01*
X15203158Y-14517674D02*
X15222205Y-14508150D01*
X15222205Y-14508150D02*
X15250777Y-14508150D01*
X15250777Y-14508150D02*
X15269824Y-14517674D01*
X15269824Y-14517674D02*
X15279348Y-14536722D01*
X15279348Y-14536722D02*
X15279348Y-14641484D01*
X15374586Y-14641484D02*
X15374586Y-14508150D01*
X15374586Y-14527198D02*
X15384110Y-14517674D01*
X15384110Y-14517674D02*
X15403158Y-14508150D01*
X15403158Y-14508150D02*
X15431729Y-14508150D01*
X15431729Y-14508150D02*
X15450777Y-14517674D01*
X15450777Y-14517674D02*
X15460301Y-14536722D01*
X15460301Y-14536722D02*
X15460301Y-14641484D01*
X15460301Y-14536722D02*
X15469824Y-14517674D01*
X15469824Y-14517674D02*
X15488872Y-14508150D01*
X15488872Y-14508150D02*
X15517443Y-14508150D01*
X15517443Y-14508150D02*
X15536491Y-14517674D01*
X15536491Y-14517674D02*
X15546015Y-14536722D01*
X15546015Y-14536722D02*
X15546015Y-14641484D01*
X15936491Y-14431960D02*
X15765063Y-14689103D01*
X16193634Y-14441484D02*
X16212682Y-14441484D01*
X16212682Y-14441484D02*
X16231729Y-14451008D01*
X16231729Y-14451008D02*
X16241253Y-14460531D01*
X16241253Y-14460531D02*
X16250777Y-14479579D01*
X16250777Y-14479579D02*
X16260301Y-14517674D01*
X16260301Y-14517674D02*
X16260301Y-14565293D01*
X16260301Y-14565293D02*
X16250777Y-14603388D01*
X16250777Y-14603388D02*
X16241253Y-14622436D01*
X16241253Y-14622436D02*
X16231729Y-14631960D01*
X16231729Y-14631960D02*
X16212682Y-14641484D01*
X16212682Y-14641484D02*
X16193634Y-14641484D01*
X16193634Y-14641484D02*
X16174586Y-14631960D01*
X16174586Y-14631960D02*
X16165063Y-14622436D01*
X16165063Y-14622436D02*
X16155539Y-14603388D01*
X16155539Y-14603388D02*
X16146015Y-14565293D01*
X16146015Y-14565293D02*
X16146015Y-14517674D01*
X16146015Y-14517674D02*
X16155539Y-14479579D01*
X16155539Y-14479579D02*
X16165063Y-14460531D01*
X16165063Y-14460531D02*
X16174586Y-14451008D01*
X16174586Y-14451008D02*
X16193634Y-14441484D01*
X16346015Y-14622436D02*
X16355539Y-14631960D01*
X16355539Y-14631960D02*
X16346015Y-14641484D01*
X16346015Y-14641484D02*
X16336491Y-14631960D01*
X16336491Y-14631960D02*
X16346015Y-14622436D01*
X16346015Y-14622436D02*
X16346015Y-14641484D01*
X16479348Y-14441484D02*
X16498396Y-14441484D01*
X16498396Y-14441484D02*
X16517444Y-14451008D01*
X16517444Y-14451008D02*
X16526967Y-14460531D01*
X16526967Y-14460531D02*
X16536491Y-14479579D01*
X16536491Y-14479579D02*
X16546015Y-14517674D01*
X16546015Y-14517674D02*
X16546015Y-14565293D01*
X16546015Y-14565293D02*
X16536491Y-14603388D01*
X16536491Y-14603388D02*
X16526967Y-14622436D01*
X16526967Y-14622436D02*
X16517444Y-14631960D01*
X16517444Y-14631960D02*
X16498396Y-14641484D01*
X16498396Y-14641484D02*
X16479348Y-14641484D01*
X16479348Y-14641484D02*
X16460301Y-14631960D01*
X16460301Y-14631960D02*
X16450777Y-14622436D01*
X16450777Y-14622436D02*
X16441253Y-14603388D01*
X16441253Y-14603388D02*
X16431729Y-14565293D01*
X16431729Y-14565293D02*
X16431729Y-14517674D01*
X16431729Y-14517674D02*
X16441253Y-14479579D01*
X16441253Y-14479579D02*
X16450777Y-14460531D01*
X16450777Y-14460531D02*
X16460301Y-14451008D01*
X16460301Y-14451008D02*
X16479348Y-14441484D01*
X16612682Y-14441484D02*
X16746015Y-14441484D01*
X16746015Y-14441484D02*
X16660301Y-14641484D01*
X16812682Y-14460531D02*
X16822206Y-14451008D01*
X16822206Y-14451008D02*
X16841253Y-14441484D01*
X16841253Y-14441484D02*
X16888872Y-14441484D01*
X16888872Y-14441484D02*
X16907920Y-14451008D01*
X16907920Y-14451008D02*
X16917444Y-14460531D01*
X16917444Y-14460531D02*
X16926968Y-14479579D01*
X16926968Y-14479579D02*
X16926968Y-14498627D01*
X16926968Y-14498627D02*
X16917444Y-14527198D01*
X16917444Y-14527198D02*
X16803158Y-14641484D01*
X16803158Y-14641484D02*
X16926968Y-14641484D01*
X17041253Y-14527198D02*
X17022206Y-14517674D01*
X17022206Y-14517674D02*
X17012682Y-14508150D01*
X17012682Y-14508150D02*
X17003158Y-14489103D01*
X17003158Y-14489103D02*
X17003158Y-14479579D01*
X17003158Y-14479579D02*
X17012682Y-14460531D01*
X17012682Y-14460531D02*
X17022206Y-14451008D01*
X17022206Y-14451008D02*
X17041253Y-14441484D01*
X17041253Y-14441484D02*
X17079349Y-14441484D01*
X17079349Y-14441484D02*
X17098396Y-14451008D01*
X17098396Y-14451008D02*
X17107920Y-14460531D01*
X17107920Y-14460531D02*
X17117444Y-14479579D01*
X17117444Y-14479579D02*
X17117444Y-14489103D01*
X17117444Y-14489103D02*
X17107920Y-14508150D01*
X17107920Y-14508150D02*
X17098396Y-14517674D01*
X17098396Y-14517674D02*
X17079349Y-14527198D01*
X17079349Y-14527198D02*
X17041253Y-14527198D01*
X17041253Y-14527198D02*
X17022206Y-14536722D01*
X17022206Y-14536722D02*
X17012682Y-14546246D01*
X17012682Y-14546246D02*
X17003158Y-14565293D01*
X17003158Y-14565293D02*
X17003158Y-14603388D01*
X17003158Y-14603388D02*
X17012682Y-14622436D01*
X17012682Y-14622436D02*
X17022206Y-14631960D01*
X17022206Y-14631960D02*
X17041253Y-14641484D01*
X17041253Y-14641484D02*
X17079349Y-14641484D01*
X17079349Y-14641484D02*
X17098396Y-14631960D01*
X17098396Y-14631960D02*
X17107920Y-14622436D01*
X17107920Y-14622436D02*
X17117444Y-14603388D01*
X17117444Y-14603388D02*
X17117444Y-14565293D01*
X17117444Y-14565293D02*
X17107920Y-14546246D01*
X17107920Y-14546246D02*
X17098396Y-14536722D01*
X17098396Y-14536722D02*
X17079349Y-14527198D01*
X17193634Y-14441484D02*
X17193634Y-14479579D01*
X17269825Y-14441484D02*
X17269825Y-14479579D01*
X17565063Y-14717674D02*
X17555539Y-14708150D01*
X17555539Y-14708150D02*
X17536491Y-14679579D01*
X17536491Y-14679579D02*
X17526968Y-14660531D01*
X17526968Y-14660531D02*
X17517444Y-14631960D01*
X17517444Y-14631960D02*
X17507920Y-14584341D01*
X17507920Y-14584341D02*
X17507920Y-14546246D01*
X17507920Y-14546246D02*
X17517444Y-14498627D01*
X17517444Y-14498627D02*
X17526968Y-14470055D01*
X17526968Y-14470055D02*
X17536491Y-14451008D01*
X17536491Y-14451008D02*
X17555539Y-14422436D01*
X17555539Y-14422436D02*
X17565063Y-14412912D01*
X17631730Y-14460531D02*
X17641253Y-14451008D01*
X17641253Y-14451008D02*
X17660301Y-14441484D01*
X17660301Y-14441484D02*
X17707920Y-14441484D01*
X17707920Y-14441484D02*
X17726968Y-14451008D01*
X17726968Y-14451008D02*
X17736491Y-14460531D01*
X17736491Y-14460531D02*
X17746015Y-14479579D01*
X17746015Y-14479579D02*
X17746015Y-14498627D01*
X17746015Y-14498627D02*
X17736491Y-14527198D01*
X17736491Y-14527198D02*
X17622206Y-14641484D01*
X17622206Y-14641484D02*
X17746015Y-14641484D01*
X17984111Y-14641484D02*
X17984111Y-14441484D01*
X18069825Y-14641484D02*
X18069825Y-14536722D01*
X18069825Y-14536722D02*
X18060301Y-14517674D01*
X18060301Y-14517674D02*
X18041253Y-14508150D01*
X18041253Y-14508150D02*
X18012682Y-14508150D01*
X18012682Y-14508150D02*
X17993634Y-14517674D01*
X17993634Y-14517674D02*
X17984111Y-14527198D01*
X18193634Y-14641484D02*
X18174587Y-14631960D01*
X18174587Y-14631960D02*
X18165063Y-14622436D01*
X18165063Y-14622436D02*
X18155539Y-14603388D01*
X18155539Y-14603388D02*
X18155539Y-14546246D01*
X18155539Y-14546246D02*
X18165063Y-14527198D01*
X18165063Y-14527198D02*
X18174587Y-14517674D01*
X18174587Y-14517674D02*
X18193634Y-14508150D01*
X18193634Y-14508150D02*
X18222206Y-14508150D01*
X18222206Y-14508150D02*
X18241253Y-14517674D01*
X18241253Y-14517674D02*
X18250777Y-14527198D01*
X18250777Y-14527198D02*
X18260301Y-14546246D01*
X18260301Y-14546246D02*
X18260301Y-14603388D01*
X18260301Y-14603388D02*
X18250777Y-14622436D01*
X18250777Y-14622436D02*
X18241253Y-14631960D01*
X18241253Y-14631960D02*
X18222206Y-14641484D01*
X18222206Y-14641484D02*
X18193634Y-14641484D01*
X18374587Y-14641484D02*
X18355539Y-14631960D01*
X18355539Y-14631960D02*
X18346015Y-14612912D01*
X18346015Y-14612912D02*
X18346015Y-14441484D01*
X18526968Y-14631960D02*
X18507920Y-14641484D01*
X18507920Y-14641484D02*
X18469825Y-14641484D01*
X18469825Y-14641484D02*
X18450777Y-14631960D01*
X18450777Y-14631960D02*
X18441253Y-14612912D01*
X18441253Y-14612912D02*
X18441253Y-14536722D01*
X18441253Y-14536722D02*
X18450777Y-14517674D01*
X18450777Y-14517674D02*
X18469825Y-14508150D01*
X18469825Y-14508150D02*
X18507920Y-14508150D01*
X18507920Y-14508150D02*
X18526968Y-14517674D01*
X18526968Y-14517674D02*
X18536492Y-14536722D01*
X18536492Y-14536722D02*
X18536492Y-14555769D01*
X18536492Y-14555769D02*
X18441253Y-14574817D01*
X18612682Y-14631960D02*
X18631730Y-14641484D01*
X18631730Y-14641484D02*
X18669825Y-14641484D01*
X18669825Y-14641484D02*
X18688873Y-14631960D01*
X18688873Y-14631960D02*
X18698396Y-14612912D01*
X18698396Y-14612912D02*
X18698396Y-14603388D01*
X18698396Y-14603388D02*
X18688873Y-14584341D01*
X18688873Y-14584341D02*
X18669825Y-14574817D01*
X18669825Y-14574817D02*
X18641253Y-14574817D01*
X18641253Y-14574817D02*
X18622206Y-14565293D01*
X18622206Y-14565293D02*
X18612682Y-14546246D01*
X18612682Y-14546246D02*
X18612682Y-14536722D01*
X18612682Y-14536722D02*
X18622206Y-14517674D01*
X18622206Y-14517674D02*
X18641253Y-14508150D01*
X18641253Y-14508150D02*
X18669825Y-14508150D01*
X18669825Y-14508150D02*
X18688873Y-14517674D01*
X18765063Y-14717674D02*
X18774587Y-14708150D01*
X18774587Y-14708150D02*
X18793634Y-14679579D01*
X18793634Y-14679579D02*
X18803158Y-14660531D01*
X18803158Y-14660531D02*
X18812682Y-14631960D01*
X18812682Y-14631960D02*
X18822206Y-14584341D01*
X18822206Y-14584341D02*
X18822206Y-14546246D01*
X18822206Y-14546246D02*
X18812682Y-14498627D01*
X18812682Y-14498627D02*
X18803158Y-14470055D01*
X18803158Y-14470055D02*
X18793634Y-14451008D01*
X18793634Y-14451008D02*
X18774587Y-14422436D01*
X18774587Y-14422436D02*
X18765063Y-14412912D01*
X19126968Y-14717674D02*
X19117444Y-14708150D01*
X19117444Y-14708150D02*
X19098396Y-14679579D01*
X19098396Y-14679579D02*
X19088873Y-14660531D01*
X19088873Y-14660531D02*
X19079349Y-14631960D01*
X19079349Y-14631960D02*
X19069825Y-14584341D01*
X19069825Y-14584341D02*
X19069825Y-14546246D01*
X19069825Y-14546246D02*
X19079349Y-14498627D01*
X19079349Y-14498627D02*
X19088873Y-14470055D01*
X19088873Y-14470055D02*
X19098396Y-14451008D01*
X19098396Y-14451008D02*
X19117444Y-14422436D01*
X19117444Y-14422436D02*
X19126968Y-14412912D01*
X19203158Y-14508150D02*
X19203158Y-14641484D01*
X19203158Y-14527198D02*
X19212682Y-14517674D01*
X19212682Y-14517674D02*
X19231730Y-14508150D01*
X19231730Y-14508150D02*
X19260301Y-14508150D01*
X19260301Y-14508150D02*
X19279349Y-14517674D01*
X19279349Y-14517674D02*
X19288873Y-14536722D01*
X19288873Y-14536722D02*
X19288873Y-14641484D01*
X19412682Y-14641484D02*
X19393634Y-14631960D01*
X19393634Y-14631960D02*
X19384111Y-14622436D01*
X19384111Y-14622436D02*
X19374587Y-14603388D01*
X19374587Y-14603388D02*
X19374587Y-14546246D01*
X19374587Y-14546246D02*
X19384111Y-14527198D01*
X19384111Y-14527198D02*
X19393634Y-14517674D01*
X19393634Y-14517674D02*
X19412682Y-14508150D01*
X19412682Y-14508150D02*
X19441254Y-14508150D01*
X19441254Y-14508150D02*
X19460301Y-14517674D01*
X19460301Y-14517674D02*
X19469825Y-14527198D01*
X19469825Y-14527198D02*
X19479349Y-14546246D01*
X19479349Y-14546246D02*
X19479349Y-14603388D01*
X19479349Y-14603388D02*
X19469825Y-14622436D01*
X19469825Y-14622436D02*
X19460301Y-14631960D01*
X19460301Y-14631960D02*
X19441254Y-14641484D01*
X19441254Y-14641484D02*
X19412682Y-14641484D01*
X19536492Y-14508150D02*
X19612682Y-14508150D01*
X19565063Y-14441484D02*
X19565063Y-14612912D01*
X19565063Y-14612912D02*
X19574587Y-14631960D01*
X19574587Y-14631960D02*
X19593634Y-14641484D01*
X19593634Y-14641484D02*
X19612682Y-14641484D01*
X19831730Y-14508150D02*
X19831730Y-14708150D01*
X19831730Y-14517674D02*
X19850777Y-14508150D01*
X19850777Y-14508150D02*
X19888873Y-14508150D01*
X19888873Y-14508150D02*
X19907920Y-14517674D01*
X19907920Y-14517674D02*
X19917444Y-14527198D01*
X19917444Y-14527198D02*
X19926968Y-14546246D01*
X19926968Y-14546246D02*
X19926968Y-14603388D01*
X19926968Y-14603388D02*
X19917444Y-14622436D01*
X19917444Y-14622436D02*
X19907920Y-14631960D01*
X19907920Y-14631960D02*
X19888873Y-14641484D01*
X19888873Y-14641484D02*
X19850777Y-14641484D01*
X19850777Y-14641484D02*
X19831730Y-14631960D01*
X20041254Y-14641484D02*
X20022206Y-14631960D01*
X20022206Y-14631960D02*
X20012682Y-14612912D01*
X20012682Y-14612912D02*
X20012682Y-14441484D01*
X20203158Y-14641484D02*
X20203158Y-14536722D01*
X20203158Y-14536722D02*
X20193635Y-14517674D01*
X20193635Y-14517674D02*
X20174587Y-14508150D01*
X20174587Y-14508150D02*
X20136492Y-14508150D01*
X20136492Y-14508150D02*
X20117444Y-14517674D01*
X20203158Y-14631960D02*
X20184111Y-14641484D01*
X20184111Y-14641484D02*
X20136492Y-14641484D01*
X20136492Y-14641484D02*
X20117444Y-14631960D01*
X20117444Y-14631960D02*
X20107920Y-14612912D01*
X20107920Y-14612912D02*
X20107920Y-14593865D01*
X20107920Y-14593865D02*
X20117444Y-14574817D01*
X20117444Y-14574817D02*
X20136492Y-14565293D01*
X20136492Y-14565293D02*
X20184111Y-14565293D01*
X20184111Y-14565293D02*
X20203158Y-14555769D01*
X20269825Y-14508150D02*
X20346015Y-14508150D01*
X20298396Y-14441484D02*
X20298396Y-14612912D01*
X20298396Y-14612912D02*
X20307920Y-14631960D01*
X20307920Y-14631960D02*
X20326968Y-14641484D01*
X20326968Y-14641484D02*
X20346015Y-14641484D01*
X20488873Y-14631960D02*
X20469825Y-14641484D01*
X20469825Y-14641484D02*
X20431730Y-14641484D01*
X20431730Y-14641484D02*
X20412682Y-14631960D01*
X20412682Y-14631960D02*
X20403158Y-14612912D01*
X20403158Y-14612912D02*
X20403158Y-14536722D01*
X20403158Y-14536722D02*
X20412682Y-14517674D01*
X20412682Y-14517674D02*
X20431730Y-14508150D01*
X20431730Y-14508150D02*
X20469825Y-14508150D01*
X20469825Y-14508150D02*
X20488873Y-14517674D01*
X20488873Y-14517674D02*
X20498396Y-14536722D01*
X20498396Y-14536722D02*
X20498396Y-14555769D01*
X20498396Y-14555769D02*
X20403158Y-14574817D01*
X20669825Y-14641484D02*
X20669825Y-14441484D01*
X20669825Y-14631960D02*
X20650777Y-14641484D01*
X20650777Y-14641484D02*
X20612682Y-14641484D01*
X20612682Y-14641484D02*
X20593635Y-14631960D01*
X20593635Y-14631960D02*
X20584111Y-14622436D01*
X20584111Y-14622436D02*
X20574587Y-14603388D01*
X20574587Y-14603388D02*
X20574587Y-14546246D01*
X20574587Y-14546246D02*
X20584111Y-14527198D01*
X20584111Y-14527198D02*
X20593635Y-14517674D01*
X20593635Y-14517674D02*
X20612682Y-14508150D01*
X20612682Y-14508150D02*
X20650777Y-14508150D01*
X20650777Y-14508150D02*
X20669825Y-14517674D01*
X20746016Y-14717674D02*
X20755539Y-14708150D01*
X20755539Y-14708150D02*
X20774587Y-14679579D01*
X20774587Y-14679579D02*
X20784111Y-14660531D01*
X20784111Y-14660531D02*
X20793635Y-14631960D01*
X20793635Y-14631960D02*
X20803158Y-14584341D01*
X20803158Y-14584341D02*
X20803158Y-14546246D01*
X20803158Y-14546246D02*
X20793635Y-14498627D01*
X20793635Y-14498627D02*
X20784111Y-14470055D01*
X20784111Y-14470055D02*
X20774587Y-14451008D01*
X20774587Y-14451008D02*
X20755539Y-14422436D01*
X20755539Y-14422436D02*
X20746016Y-14412912D01*
X13990000Y-14855000D02*
G75*
G02*
X13790000Y-14855000I-100000J0D01*
G01*
X13790000Y-14855000D02*
G75*
G02*
X13990000Y-14855000I100000J0D01*
G01*
X14241253Y-14765531D02*
X14250777Y-14756008D01*
X14250777Y-14756008D02*
X14269824Y-14746484D01*
X14269824Y-14746484D02*
X14317443Y-14746484D01*
X14317443Y-14746484D02*
X14336491Y-14756008D01*
X14336491Y-14756008D02*
X14346015Y-14765531D01*
X14346015Y-14765531D02*
X14355539Y-14784579D01*
X14355539Y-14784579D02*
X14355539Y-14803627D01*
X14355539Y-14803627D02*
X14346015Y-14832198D01*
X14346015Y-14832198D02*
X14231729Y-14946484D01*
X14231729Y-14946484D02*
X14355539Y-14946484D01*
X14441253Y-14927436D02*
X14450777Y-14936960D01*
X14450777Y-14936960D02*
X14441253Y-14946484D01*
X14441253Y-14946484D02*
X14431729Y-14936960D01*
X14431729Y-14936960D02*
X14441253Y-14927436D01*
X14441253Y-14927436D02*
X14441253Y-14946484D01*
X14526967Y-14765531D02*
X14536491Y-14756008D01*
X14536491Y-14756008D02*
X14555539Y-14746484D01*
X14555539Y-14746484D02*
X14603158Y-14746484D01*
X14603158Y-14746484D02*
X14622205Y-14756008D01*
X14622205Y-14756008D02*
X14631729Y-14765531D01*
X14631729Y-14765531D02*
X14641253Y-14784579D01*
X14641253Y-14784579D02*
X14641253Y-14803627D01*
X14641253Y-14803627D02*
X14631729Y-14832198D01*
X14631729Y-14832198D02*
X14517443Y-14946484D01*
X14517443Y-14946484D02*
X14641253Y-14946484D01*
X14765062Y-14746484D02*
X14784110Y-14746484D01*
X14784110Y-14746484D02*
X14803158Y-14756008D01*
X14803158Y-14756008D02*
X14812682Y-14765531D01*
X14812682Y-14765531D02*
X14822205Y-14784579D01*
X14822205Y-14784579D02*
X14831729Y-14822674D01*
X14831729Y-14822674D02*
X14831729Y-14870293D01*
X14831729Y-14870293D02*
X14822205Y-14908388D01*
X14822205Y-14908388D02*
X14812682Y-14927436D01*
X14812682Y-14927436D02*
X14803158Y-14936960D01*
X14803158Y-14936960D02*
X14784110Y-14946484D01*
X14784110Y-14946484D02*
X14765062Y-14946484D01*
X14765062Y-14946484D02*
X14746015Y-14936960D01*
X14746015Y-14936960D02*
X14736491Y-14927436D01*
X14736491Y-14927436D02*
X14726967Y-14908388D01*
X14726967Y-14908388D02*
X14717443Y-14870293D01*
X14717443Y-14870293D02*
X14717443Y-14822674D01*
X14717443Y-14822674D02*
X14726967Y-14784579D01*
X14726967Y-14784579D02*
X14736491Y-14765531D01*
X14736491Y-14765531D02*
X14746015Y-14756008D01*
X14746015Y-14756008D02*
X14765062Y-14746484D01*
X14955539Y-14746484D02*
X14974586Y-14746484D01*
X14974586Y-14746484D02*
X14993634Y-14756008D01*
X14993634Y-14756008D02*
X15003158Y-14765531D01*
X15003158Y-14765531D02*
X15012682Y-14784579D01*
X15012682Y-14784579D02*
X15022205Y-14822674D01*
X15022205Y-14822674D02*
X15022205Y-14870293D01*
X15022205Y-14870293D02*
X15012682Y-14908388D01*
X15012682Y-14908388D02*
X15003158Y-14927436D01*
X15003158Y-14927436D02*
X14993634Y-14936960D01*
X14993634Y-14936960D02*
X14974586Y-14946484D01*
X14974586Y-14946484D02*
X14955539Y-14946484D01*
X14955539Y-14946484D02*
X14936491Y-14936960D01*
X14936491Y-14936960D02*
X14926967Y-14927436D01*
X14926967Y-14927436D02*
X14917443Y-14908388D01*
X14917443Y-14908388D02*
X14907920Y-14870293D01*
X14907920Y-14870293D02*
X14907920Y-14822674D01*
X14907920Y-14822674D02*
X14917443Y-14784579D01*
X14917443Y-14784579D02*
X14926967Y-14765531D01*
X14926967Y-14765531D02*
X14936491Y-14756008D01*
X14936491Y-14756008D02*
X14955539Y-14746484D01*
X15107920Y-14946484D02*
X15107920Y-14813150D01*
X15107920Y-14832198D02*
X15117443Y-14822674D01*
X15117443Y-14822674D02*
X15136491Y-14813150D01*
X15136491Y-14813150D02*
X15165063Y-14813150D01*
X15165063Y-14813150D02*
X15184110Y-14822674D01*
X15184110Y-14822674D02*
X15193634Y-14841722D01*
X15193634Y-14841722D02*
X15193634Y-14946484D01*
X15193634Y-14841722D02*
X15203158Y-14822674D01*
X15203158Y-14822674D02*
X15222205Y-14813150D01*
X15222205Y-14813150D02*
X15250777Y-14813150D01*
X15250777Y-14813150D02*
X15269824Y-14822674D01*
X15269824Y-14822674D02*
X15279348Y-14841722D01*
X15279348Y-14841722D02*
X15279348Y-14946484D01*
X15374586Y-14946484D02*
X15374586Y-14813150D01*
X15374586Y-14832198D02*
X15384110Y-14822674D01*
X15384110Y-14822674D02*
X15403158Y-14813150D01*
X15403158Y-14813150D02*
X15431729Y-14813150D01*
X15431729Y-14813150D02*
X15450777Y-14822674D01*
X15450777Y-14822674D02*
X15460301Y-14841722D01*
X15460301Y-14841722D02*
X15460301Y-14946484D01*
X15460301Y-14841722D02*
X15469824Y-14822674D01*
X15469824Y-14822674D02*
X15488872Y-14813150D01*
X15488872Y-14813150D02*
X15517443Y-14813150D01*
X15517443Y-14813150D02*
X15536491Y-14822674D01*
X15536491Y-14822674D02*
X15546015Y-14841722D01*
X15546015Y-14841722D02*
X15546015Y-14946484D01*
X15936491Y-14736960D02*
X15765063Y-14994103D01*
X16193634Y-14746484D02*
X16212682Y-14746484D01*
X16212682Y-14746484D02*
X16231729Y-14756008D01*
X16231729Y-14756008D02*
X16241253Y-14765531D01*
X16241253Y-14765531D02*
X16250777Y-14784579D01*
X16250777Y-14784579D02*
X16260301Y-14822674D01*
X16260301Y-14822674D02*
X16260301Y-14870293D01*
X16260301Y-14870293D02*
X16250777Y-14908388D01*
X16250777Y-14908388D02*
X16241253Y-14927436D01*
X16241253Y-14927436D02*
X16231729Y-14936960D01*
X16231729Y-14936960D02*
X16212682Y-14946484D01*
X16212682Y-14946484D02*
X16193634Y-14946484D01*
X16193634Y-14946484D02*
X16174586Y-14936960D01*
X16174586Y-14936960D02*
X16165063Y-14927436D01*
X16165063Y-14927436D02*
X16155539Y-14908388D01*
X16155539Y-14908388D02*
X16146015Y-14870293D01*
X16146015Y-14870293D02*
X16146015Y-14822674D01*
X16146015Y-14822674D02*
X16155539Y-14784579D01*
X16155539Y-14784579D02*
X16165063Y-14765531D01*
X16165063Y-14765531D02*
X16174586Y-14756008D01*
X16174586Y-14756008D02*
X16193634Y-14746484D01*
X16346015Y-14927436D02*
X16355539Y-14936960D01*
X16355539Y-14936960D02*
X16346015Y-14946484D01*
X16346015Y-14946484D02*
X16336491Y-14936960D01*
X16336491Y-14936960D02*
X16346015Y-14927436D01*
X16346015Y-14927436D02*
X16346015Y-14946484D01*
X16479348Y-14746484D02*
X16498396Y-14746484D01*
X16498396Y-14746484D02*
X16517444Y-14756008D01*
X16517444Y-14756008D02*
X16526967Y-14765531D01*
X16526967Y-14765531D02*
X16536491Y-14784579D01*
X16536491Y-14784579D02*
X16546015Y-14822674D01*
X16546015Y-14822674D02*
X16546015Y-14870293D01*
X16546015Y-14870293D02*
X16536491Y-14908388D01*
X16536491Y-14908388D02*
X16526967Y-14927436D01*
X16526967Y-14927436D02*
X16517444Y-14936960D01*
X16517444Y-14936960D02*
X16498396Y-14946484D01*
X16498396Y-14946484D02*
X16479348Y-14946484D01*
X16479348Y-14946484D02*
X16460301Y-14936960D01*
X16460301Y-14936960D02*
X16450777Y-14927436D01*
X16450777Y-14927436D02*
X16441253Y-14908388D01*
X16441253Y-14908388D02*
X16431729Y-14870293D01*
X16431729Y-14870293D02*
X16431729Y-14822674D01*
X16431729Y-14822674D02*
X16441253Y-14784579D01*
X16441253Y-14784579D02*
X16450777Y-14765531D01*
X16450777Y-14765531D02*
X16460301Y-14756008D01*
X16460301Y-14756008D02*
X16479348Y-14746484D01*
X16660301Y-14832198D02*
X16641253Y-14822674D01*
X16641253Y-14822674D02*
X16631729Y-14813150D01*
X16631729Y-14813150D02*
X16622206Y-14794103D01*
X16622206Y-14794103D02*
X16622206Y-14784579D01*
X16622206Y-14784579D02*
X16631729Y-14765531D01*
X16631729Y-14765531D02*
X16641253Y-14756008D01*
X16641253Y-14756008D02*
X16660301Y-14746484D01*
X16660301Y-14746484D02*
X16698396Y-14746484D01*
X16698396Y-14746484D02*
X16717444Y-14756008D01*
X16717444Y-14756008D02*
X16726967Y-14765531D01*
X16726967Y-14765531D02*
X16736491Y-14784579D01*
X16736491Y-14784579D02*
X16736491Y-14794103D01*
X16736491Y-14794103D02*
X16726967Y-14813150D01*
X16726967Y-14813150D02*
X16717444Y-14822674D01*
X16717444Y-14822674D02*
X16698396Y-14832198D01*
X16698396Y-14832198D02*
X16660301Y-14832198D01*
X16660301Y-14832198D02*
X16641253Y-14841722D01*
X16641253Y-14841722D02*
X16631729Y-14851246D01*
X16631729Y-14851246D02*
X16622206Y-14870293D01*
X16622206Y-14870293D02*
X16622206Y-14908388D01*
X16622206Y-14908388D02*
X16631729Y-14927436D01*
X16631729Y-14927436D02*
X16641253Y-14936960D01*
X16641253Y-14936960D02*
X16660301Y-14946484D01*
X16660301Y-14946484D02*
X16698396Y-14946484D01*
X16698396Y-14946484D02*
X16717444Y-14936960D01*
X16717444Y-14936960D02*
X16726967Y-14927436D01*
X16726967Y-14927436D02*
X16736491Y-14908388D01*
X16736491Y-14908388D02*
X16736491Y-14870293D01*
X16736491Y-14870293D02*
X16726967Y-14851246D01*
X16726967Y-14851246D02*
X16717444Y-14841722D01*
X16717444Y-14841722D02*
X16698396Y-14832198D01*
X16907920Y-14746484D02*
X16869825Y-14746484D01*
X16869825Y-14746484D02*
X16850777Y-14756008D01*
X16850777Y-14756008D02*
X16841253Y-14765531D01*
X16841253Y-14765531D02*
X16822206Y-14794103D01*
X16822206Y-14794103D02*
X16812682Y-14832198D01*
X16812682Y-14832198D02*
X16812682Y-14908388D01*
X16812682Y-14908388D02*
X16822206Y-14927436D01*
X16822206Y-14927436D02*
X16831729Y-14936960D01*
X16831729Y-14936960D02*
X16850777Y-14946484D01*
X16850777Y-14946484D02*
X16888872Y-14946484D01*
X16888872Y-14946484D02*
X16907920Y-14936960D01*
X16907920Y-14936960D02*
X16917444Y-14927436D01*
X16917444Y-14927436D02*
X16926968Y-14908388D01*
X16926968Y-14908388D02*
X16926968Y-14860769D01*
X16926968Y-14860769D02*
X16917444Y-14841722D01*
X16917444Y-14841722D02*
X16907920Y-14832198D01*
X16907920Y-14832198D02*
X16888872Y-14822674D01*
X16888872Y-14822674D02*
X16850777Y-14822674D01*
X16850777Y-14822674D02*
X16831729Y-14832198D01*
X16831729Y-14832198D02*
X16822206Y-14841722D01*
X16822206Y-14841722D02*
X16812682Y-14860769D01*
X17098396Y-14746484D02*
X17060301Y-14746484D01*
X17060301Y-14746484D02*
X17041253Y-14756008D01*
X17041253Y-14756008D02*
X17031729Y-14765531D01*
X17031729Y-14765531D02*
X17012682Y-14794103D01*
X17012682Y-14794103D02*
X17003158Y-14832198D01*
X17003158Y-14832198D02*
X17003158Y-14908388D01*
X17003158Y-14908388D02*
X17012682Y-14927436D01*
X17012682Y-14927436D02*
X17022206Y-14936960D01*
X17022206Y-14936960D02*
X17041253Y-14946484D01*
X17041253Y-14946484D02*
X17079349Y-14946484D01*
X17079349Y-14946484D02*
X17098396Y-14936960D01*
X17098396Y-14936960D02*
X17107920Y-14927436D01*
X17107920Y-14927436D02*
X17117444Y-14908388D01*
X17117444Y-14908388D02*
X17117444Y-14860769D01*
X17117444Y-14860769D02*
X17107920Y-14841722D01*
X17107920Y-14841722D02*
X17098396Y-14832198D01*
X17098396Y-14832198D02*
X17079349Y-14822674D01*
X17079349Y-14822674D02*
X17041253Y-14822674D01*
X17041253Y-14822674D02*
X17022206Y-14832198D01*
X17022206Y-14832198D02*
X17012682Y-14841722D01*
X17012682Y-14841722D02*
X17003158Y-14860769D01*
X17193634Y-14746484D02*
X17193634Y-14784579D01*
X17269825Y-14746484D02*
X17269825Y-14784579D01*
X17565063Y-15022674D02*
X17555539Y-15013150D01*
X17555539Y-15013150D02*
X17536491Y-14984579D01*
X17536491Y-14984579D02*
X17526968Y-14965531D01*
X17526968Y-14965531D02*
X17517444Y-14936960D01*
X17517444Y-14936960D02*
X17507920Y-14889341D01*
X17507920Y-14889341D02*
X17507920Y-14851246D01*
X17507920Y-14851246D02*
X17517444Y-14803627D01*
X17517444Y-14803627D02*
X17526968Y-14775055D01*
X17526968Y-14775055D02*
X17536491Y-14756008D01*
X17536491Y-14756008D02*
X17555539Y-14727436D01*
X17555539Y-14727436D02*
X17565063Y-14717912D01*
X17631730Y-14765531D02*
X17641253Y-14756008D01*
X17641253Y-14756008D02*
X17660301Y-14746484D01*
X17660301Y-14746484D02*
X17707920Y-14746484D01*
X17707920Y-14746484D02*
X17726968Y-14756008D01*
X17726968Y-14756008D02*
X17736491Y-14765531D01*
X17736491Y-14765531D02*
X17746015Y-14784579D01*
X17746015Y-14784579D02*
X17746015Y-14803627D01*
X17746015Y-14803627D02*
X17736491Y-14832198D01*
X17736491Y-14832198D02*
X17622206Y-14946484D01*
X17622206Y-14946484D02*
X17746015Y-14946484D01*
X17984111Y-14946484D02*
X17984111Y-14746484D01*
X18069825Y-14946484D02*
X18069825Y-14841722D01*
X18069825Y-14841722D02*
X18060301Y-14822674D01*
X18060301Y-14822674D02*
X18041253Y-14813150D01*
X18041253Y-14813150D02*
X18012682Y-14813150D01*
X18012682Y-14813150D02*
X17993634Y-14822674D01*
X17993634Y-14822674D02*
X17984111Y-14832198D01*
X18193634Y-14946484D02*
X18174587Y-14936960D01*
X18174587Y-14936960D02*
X18165063Y-14927436D01*
X18165063Y-14927436D02*
X18155539Y-14908388D01*
X18155539Y-14908388D02*
X18155539Y-14851246D01*
X18155539Y-14851246D02*
X18165063Y-14832198D01*
X18165063Y-14832198D02*
X18174587Y-14822674D01*
X18174587Y-14822674D02*
X18193634Y-14813150D01*
X18193634Y-14813150D02*
X18222206Y-14813150D01*
X18222206Y-14813150D02*
X18241253Y-14822674D01*
X18241253Y-14822674D02*
X18250777Y-14832198D01*
X18250777Y-14832198D02*
X18260301Y-14851246D01*
X18260301Y-14851246D02*
X18260301Y-14908388D01*
X18260301Y-14908388D02*
X18250777Y-14927436D01*
X18250777Y-14927436D02*
X18241253Y-14936960D01*
X18241253Y-14936960D02*
X18222206Y-14946484D01*
X18222206Y-14946484D02*
X18193634Y-14946484D01*
X18374587Y-14946484D02*
X18355539Y-14936960D01*
X18355539Y-14936960D02*
X18346015Y-14917912D01*
X18346015Y-14917912D02*
X18346015Y-14746484D01*
X18526968Y-14936960D02*
X18507920Y-14946484D01*
X18507920Y-14946484D02*
X18469825Y-14946484D01*
X18469825Y-14946484D02*
X18450777Y-14936960D01*
X18450777Y-14936960D02*
X18441253Y-14917912D01*
X18441253Y-14917912D02*
X18441253Y-14841722D01*
X18441253Y-14841722D02*
X18450777Y-14822674D01*
X18450777Y-14822674D02*
X18469825Y-14813150D01*
X18469825Y-14813150D02*
X18507920Y-14813150D01*
X18507920Y-14813150D02*
X18526968Y-14822674D01*
X18526968Y-14822674D02*
X18536492Y-14841722D01*
X18536492Y-14841722D02*
X18536492Y-14860769D01*
X18536492Y-14860769D02*
X18441253Y-14879817D01*
X18612682Y-14936960D02*
X18631730Y-14946484D01*
X18631730Y-14946484D02*
X18669825Y-14946484D01*
X18669825Y-14946484D02*
X18688873Y-14936960D01*
X18688873Y-14936960D02*
X18698396Y-14917912D01*
X18698396Y-14917912D02*
X18698396Y-14908388D01*
X18698396Y-14908388D02*
X18688873Y-14889341D01*
X18688873Y-14889341D02*
X18669825Y-14879817D01*
X18669825Y-14879817D02*
X18641253Y-14879817D01*
X18641253Y-14879817D02*
X18622206Y-14870293D01*
X18622206Y-14870293D02*
X18612682Y-14851246D01*
X18612682Y-14851246D02*
X18612682Y-14841722D01*
X18612682Y-14841722D02*
X18622206Y-14822674D01*
X18622206Y-14822674D02*
X18641253Y-14813150D01*
X18641253Y-14813150D02*
X18669825Y-14813150D01*
X18669825Y-14813150D02*
X18688873Y-14822674D01*
X18765063Y-15022674D02*
X18774587Y-15013150D01*
X18774587Y-15013150D02*
X18793634Y-14984579D01*
X18793634Y-14984579D02*
X18803158Y-14965531D01*
X18803158Y-14965531D02*
X18812682Y-14936960D01*
X18812682Y-14936960D02*
X18822206Y-14889341D01*
X18822206Y-14889341D02*
X18822206Y-14851246D01*
X18822206Y-14851246D02*
X18812682Y-14803627D01*
X18812682Y-14803627D02*
X18803158Y-14775055D01*
X18803158Y-14775055D02*
X18793634Y-14756008D01*
X18793634Y-14756008D02*
X18774587Y-14727436D01*
X18774587Y-14727436D02*
X18765063Y-14717912D01*
X19126968Y-15022674D02*
X19117444Y-15013150D01*
X19117444Y-15013150D02*
X19098396Y-14984579D01*
X19098396Y-14984579D02*
X19088873Y-14965531D01*
X19088873Y-14965531D02*
X19079349Y-14936960D01*
X19079349Y-14936960D02*
X19069825Y-14889341D01*
X19069825Y-14889341D02*
X19069825Y-14851246D01*
X19069825Y-14851246D02*
X19079349Y-14803627D01*
X19079349Y-14803627D02*
X19088873Y-14775055D01*
X19088873Y-14775055D02*
X19098396Y-14756008D01*
X19098396Y-14756008D02*
X19117444Y-14727436D01*
X19117444Y-14727436D02*
X19126968Y-14717912D01*
X19203158Y-14813150D02*
X19203158Y-14946484D01*
X19203158Y-14832198D02*
X19212682Y-14822674D01*
X19212682Y-14822674D02*
X19231730Y-14813150D01*
X19231730Y-14813150D02*
X19260301Y-14813150D01*
X19260301Y-14813150D02*
X19279349Y-14822674D01*
X19279349Y-14822674D02*
X19288873Y-14841722D01*
X19288873Y-14841722D02*
X19288873Y-14946484D01*
X19412682Y-14946484D02*
X19393634Y-14936960D01*
X19393634Y-14936960D02*
X19384111Y-14927436D01*
X19384111Y-14927436D02*
X19374587Y-14908388D01*
X19374587Y-14908388D02*
X19374587Y-14851246D01*
X19374587Y-14851246D02*
X19384111Y-14832198D01*
X19384111Y-14832198D02*
X19393634Y-14822674D01*
X19393634Y-14822674D02*
X19412682Y-14813150D01*
X19412682Y-14813150D02*
X19441254Y-14813150D01*
X19441254Y-14813150D02*
X19460301Y-14822674D01*
X19460301Y-14822674D02*
X19469825Y-14832198D01*
X19469825Y-14832198D02*
X19479349Y-14851246D01*
X19479349Y-14851246D02*
X19479349Y-14908388D01*
X19479349Y-14908388D02*
X19469825Y-14927436D01*
X19469825Y-14927436D02*
X19460301Y-14936960D01*
X19460301Y-14936960D02*
X19441254Y-14946484D01*
X19441254Y-14946484D02*
X19412682Y-14946484D01*
X19536492Y-14813150D02*
X19612682Y-14813150D01*
X19565063Y-14746484D02*
X19565063Y-14917912D01*
X19565063Y-14917912D02*
X19574587Y-14936960D01*
X19574587Y-14936960D02*
X19593634Y-14946484D01*
X19593634Y-14946484D02*
X19612682Y-14946484D01*
X19831730Y-14813150D02*
X19831730Y-15013150D01*
X19831730Y-14822674D02*
X19850777Y-14813150D01*
X19850777Y-14813150D02*
X19888873Y-14813150D01*
X19888873Y-14813150D02*
X19907920Y-14822674D01*
X19907920Y-14822674D02*
X19917444Y-14832198D01*
X19917444Y-14832198D02*
X19926968Y-14851246D01*
X19926968Y-14851246D02*
X19926968Y-14908388D01*
X19926968Y-14908388D02*
X19917444Y-14927436D01*
X19917444Y-14927436D02*
X19907920Y-14936960D01*
X19907920Y-14936960D02*
X19888873Y-14946484D01*
X19888873Y-14946484D02*
X19850777Y-14946484D01*
X19850777Y-14946484D02*
X19831730Y-14936960D01*
X20041254Y-14946484D02*
X20022206Y-14936960D01*
X20022206Y-14936960D02*
X20012682Y-14917912D01*
X20012682Y-14917912D02*
X20012682Y-14746484D01*
X20203158Y-14946484D02*
X20203158Y-14841722D01*
X20203158Y-14841722D02*
X20193635Y-14822674D01*
X20193635Y-14822674D02*
X20174587Y-14813150D01*
X20174587Y-14813150D02*
X20136492Y-14813150D01*
X20136492Y-14813150D02*
X20117444Y-14822674D01*
X20203158Y-14936960D02*
X20184111Y-14946484D01*
X20184111Y-14946484D02*
X20136492Y-14946484D01*
X20136492Y-14946484D02*
X20117444Y-14936960D01*
X20117444Y-14936960D02*
X20107920Y-14917912D01*
X20107920Y-14917912D02*
X20107920Y-14898865D01*
X20107920Y-14898865D02*
X20117444Y-14879817D01*
X20117444Y-14879817D02*
X20136492Y-14870293D01*
X20136492Y-14870293D02*
X20184111Y-14870293D01*
X20184111Y-14870293D02*
X20203158Y-14860769D01*
X20269825Y-14813150D02*
X20346015Y-14813150D01*
X20298396Y-14746484D02*
X20298396Y-14917912D01*
X20298396Y-14917912D02*
X20307920Y-14936960D01*
X20307920Y-14936960D02*
X20326968Y-14946484D01*
X20326968Y-14946484D02*
X20346015Y-14946484D01*
X20488873Y-14936960D02*
X20469825Y-14946484D01*
X20469825Y-14946484D02*
X20431730Y-14946484D01*
X20431730Y-14946484D02*
X20412682Y-14936960D01*
X20412682Y-14936960D02*
X20403158Y-14917912D01*
X20403158Y-14917912D02*
X20403158Y-14841722D01*
X20403158Y-14841722D02*
X20412682Y-14822674D01*
X20412682Y-14822674D02*
X20431730Y-14813150D01*
X20431730Y-14813150D02*
X20469825Y-14813150D01*
X20469825Y-14813150D02*
X20488873Y-14822674D01*
X20488873Y-14822674D02*
X20498396Y-14841722D01*
X20498396Y-14841722D02*
X20498396Y-14860769D01*
X20498396Y-14860769D02*
X20403158Y-14879817D01*
X20669825Y-14946484D02*
X20669825Y-14746484D01*
X20669825Y-14936960D02*
X20650777Y-14946484D01*
X20650777Y-14946484D02*
X20612682Y-14946484D01*
X20612682Y-14946484D02*
X20593635Y-14936960D01*
X20593635Y-14936960D02*
X20584111Y-14927436D01*
X20584111Y-14927436D02*
X20574587Y-14908388D01*
X20574587Y-14908388D02*
X20574587Y-14851246D01*
X20574587Y-14851246D02*
X20584111Y-14832198D01*
X20584111Y-14832198D02*
X20593635Y-14822674D01*
X20593635Y-14822674D02*
X20612682Y-14813150D01*
X20612682Y-14813150D02*
X20650777Y-14813150D01*
X20650777Y-14813150D02*
X20669825Y-14822674D01*
X20746016Y-15022674D02*
X20755539Y-15013150D01*
X20755539Y-15013150D02*
X20774587Y-14984579D01*
X20774587Y-14984579D02*
X20784111Y-14965531D01*
X20784111Y-14965531D02*
X20793635Y-14936960D01*
X20793635Y-14936960D02*
X20803158Y-14889341D01*
X20803158Y-14889341D02*
X20803158Y-14851246D01*
X20803158Y-14851246D02*
X20793635Y-14803627D01*
X20793635Y-14803627D02*
X20784111Y-14775055D01*
X20784111Y-14775055D02*
X20774587Y-14756008D01*
X20774587Y-14756008D02*
X20755539Y-14727436D01*
X20755539Y-14727436D02*
X20746016Y-14717912D01*
X13890000Y-15075000D02*
X13890000Y-15275000D01*
X13790000Y-15175000D02*
X13990000Y-15175000D01*
X14231729Y-15066484D02*
X14355539Y-15066484D01*
X14355539Y-15066484D02*
X14288872Y-15142674D01*
X14288872Y-15142674D02*
X14317443Y-15142674D01*
X14317443Y-15142674D02*
X14336491Y-15152198D01*
X14336491Y-15152198D02*
X14346015Y-15161722D01*
X14346015Y-15161722D02*
X14355539Y-15180769D01*
X14355539Y-15180769D02*
X14355539Y-15228388D01*
X14355539Y-15228388D02*
X14346015Y-15247436D01*
X14346015Y-15247436D02*
X14336491Y-15256960D01*
X14336491Y-15256960D02*
X14317443Y-15266484D01*
X14317443Y-15266484D02*
X14260301Y-15266484D01*
X14260301Y-15266484D02*
X14241253Y-15256960D01*
X14241253Y-15256960D02*
X14231729Y-15247436D01*
X14441253Y-15247436D02*
X14450777Y-15256960D01*
X14450777Y-15256960D02*
X14441253Y-15266484D01*
X14441253Y-15266484D02*
X14431729Y-15256960D01*
X14431729Y-15256960D02*
X14441253Y-15247436D01*
X14441253Y-15247436D02*
X14441253Y-15266484D01*
X14526967Y-15085531D02*
X14536491Y-15076008D01*
X14536491Y-15076008D02*
X14555539Y-15066484D01*
X14555539Y-15066484D02*
X14603158Y-15066484D01*
X14603158Y-15066484D02*
X14622205Y-15076008D01*
X14622205Y-15076008D02*
X14631729Y-15085531D01*
X14631729Y-15085531D02*
X14641253Y-15104579D01*
X14641253Y-15104579D02*
X14641253Y-15123627D01*
X14641253Y-15123627D02*
X14631729Y-15152198D01*
X14631729Y-15152198D02*
X14517443Y-15266484D01*
X14517443Y-15266484D02*
X14641253Y-15266484D01*
X14765062Y-15066484D02*
X14784110Y-15066484D01*
X14784110Y-15066484D02*
X14803158Y-15076008D01*
X14803158Y-15076008D02*
X14812682Y-15085531D01*
X14812682Y-15085531D02*
X14822205Y-15104579D01*
X14822205Y-15104579D02*
X14831729Y-15142674D01*
X14831729Y-15142674D02*
X14831729Y-15190293D01*
X14831729Y-15190293D02*
X14822205Y-15228388D01*
X14822205Y-15228388D02*
X14812682Y-15247436D01*
X14812682Y-15247436D02*
X14803158Y-15256960D01*
X14803158Y-15256960D02*
X14784110Y-15266484D01*
X14784110Y-15266484D02*
X14765062Y-15266484D01*
X14765062Y-15266484D02*
X14746015Y-15256960D01*
X14746015Y-15256960D02*
X14736491Y-15247436D01*
X14736491Y-15247436D02*
X14726967Y-15228388D01*
X14726967Y-15228388D02*
X14717443Y-15190293D01*
X14717443Y-15190293D02*
X14717443Y-15142674D01*
X14717443Y-15142674D02*
X14726967Y-15104579D01*
X14726967Y-15104579D02*
X14736491Y-15085531D01*
X14736491Y-15085531D02*
X14746015Y-15076008D01*
X14746015Y-15076008D02*
X14765062Y-15066484D01*
X14955539Y-15066484D02*
X14974586Y-15066484D01*
X14974586Y-15066484D02*
X14993634Y-15076008D01*
X14993634Y-15076008D02*
X15003158Y-15085531D01*
X15003158Y-15085531D02*
X15012682Y-15104579D01*
X15012682Y-15104579D02*
X15022205Y-15142674D01*
X15022205Y-15142674D02*
X15022205Y-15190293D01*
X15022205Y-15190293D02*
X15012682Y-15228388D01*
X15012682Y-15228388D02*
X15003158Y-15247436D01*
X15003158Y-15247436D02*
X14993634Y-15256960D01*
X14993634Y-15256960D02*
X14974586Y-15266484D01*
X14974586Y-15266484D02*
X14955539Y-15266484D01*
X14955539Y-15266484D02*
X14936491Y-15256960D01*
X14936491Y-15256960D02*
X14926967Y-15247436D01*
X14926967Y-15247436D02*
X14917443Y-15228388D01*
X14917443Y-15228388D02*
X14907920Y-15190293D01*
X14907920Y-15190293D02*
X14907920Y-15142674D01*
X14907920Y-15142674D02*
X14917443Y-15104579D01*
X14917443Y-15104579D02*
X14926967Y-15085531D01*
X14926967Y-15085531D02*
X14936491Y-15076008D01*
X14936491Y-15076008D02*
X14955539Y-15066484D01*
X15107920Y-15266484D02*
X15107920Y-15133150D01*
X15107920Y-15152198D02*
X15117443Y-15142674D01*
X15117443Y-15142674D02*
X15136491Y-15133150D01*
X15136491Y-15133150D02*
X15165063Y-15133150D01*
X15165063Y-15133150D02*
X15184110Y-15142674D01*
X15184110Y-15142674D02*
X15193634Y-15161722D01*
X15193634Y-15161722D02*
X15193634Y-15266484D01*
X15193634Y-15161722D02*
X15203158Y-15142674D01*
X15203158Y-15142674D02*
X15222205Y-15133150D01*
X15222205Y-15133150D02*
X15250777Y-15133150D01*
X15250777Y-15133150D02*
X15269824Y-15142674D01*
X15269824Y-15142674D02*
X15279348Y-15161722D01*
X15279348Y-15161722D02*
X15279348Y-15266484D01*
X15374586Y-15266484D02*
X15374586Y-15133150D01*
X15374586Y-15152198D02*
X15384110Y-15142674D01*
X15384110Y-15142674D02*
X15403158Y-15133150D01*
X15403158Y-15133150D02*
X15431729Y-15133150D01*
X15431729Y-15133150D02*
X15450777Y-15142674D01*
X15450777Y-15142674D02*
X15460301Y-15161722D01*
X15460301Y-15161722D02*
X15460301Y-15266484D01*
X15460301Y-15161722D02*
X15469824Y-15142674D01*
X15469824Y-15142674D02*
X15488872Y-15133150D01*
X15488872Y-15133150D02*
X15517443Y-15133150D01*
X15517443Y-15133150D02*
X15536491Y-15142674D01*
X15536491Y-15142674D02*
X15546015Y-15161722D01*
X15546015Y-15161722D02*
X15546015Y-15266484D01*
X15936491Y-15056960D02*
X15765063Y-15314103D01*
X16193634Y-15066484D02*
X16212682Y-15066484D01*
X16212682Y-15066484D02*
X16231729Y-15076008D01*
X16231729Y-15076008D02*
X16241253Y-15085531D01*
X16241253Y-15085531D02*
X16250777Y-15104579D01*
X16250777Y-15104579D02*
X16260301Y-15142674D01*
X16260301Y-15142674D02*
X16260301Y-15190293D01*
X16260301Y-15190293D02*
X16250777Y-15228388D01*
X16250777Y-15228388D02*
X16241253Y-15247436D01*
X16241253Y-15247436D02*
X16231729Y-15256960D01*
X16231729Y-15256960D02*
X16212682Y-15266484D01*
X16212682Y-15266484D02*
X16193634Y-15266484D01*
X16193634Y-15266484D02*
X16174586Y-15256960D01*
X16174586Y-15256960D02*
X16165063Y-15247436D01*
X16165063Y-15247436D02*
X16155539Y-15228388D01*
X16155539Y-15228388D02*
X16146015Y-15190293D01*
X16146015Y-15190293D02*
X16146015Y-15142674D01*
X16146015Y-15142674D02*
X16155539Y-15104579D01*
X16155539Y-15104579D02*
X16165063Y-15085531D01*
X16165063Y-15085531D02*
X16174586Y-15076008D01*
X16174586Y-15076008D02*
X16193634Y-15066484D01*
X16346015Y-15247436D02*
X16355539Y-15256960D01*
X16355539Y-15256960D02*
X16346015Y-15266484D01*
X16346015Y-15266484D02*
X16336491Y-15256960D01*
X16336491Y-15256960D02*
X16346015Y-15247436D01*
X16346015Y-15247436D02*
X16346015Y-15266484D01*
X16546015Y-15266484D02*
X16431729Y-15266484D01*
X16488872Y-15266484D02*
X16488872Y-15066484D01*
X16488872Y-15066484D02*
X16469825Y-15095055D01*
X16469825Y-15095055D02*
X16450777Y-15114103D01*
X16450777Y-15114103D02*
X16431729Y-15123627D01*
X16622206Y-15085531D02*
X16631729Y-15076008D01*
X16631729Y-15076008D02*
X16650777Y-15066484D01*
X16650777Y-15066484D02*
X16698396Y-15066484D01*
X16698396Y-15066484D02*
X16717444Y-15076008D01*
X16717444Y-15076008D02*
X16726967Y-15085531D01*
X16726967Y-15085531D02*
X16736491Y-15104579D01*
X16736491Y-15104579D02*
X16736491Y-15123627D01*
X16736491Y-15123627D02*
X16726967Y-15152198D01*
X16726967Y-15152198D02*
X16612682Y-15266484D01*
X16612682Y-15266484D02*
X16736491Y-15266484D01*
X16907920Y-15066484D02*
X16869825Y-15066484D01*
X16869825Y-15066484D02*
X16850777Y-15076008D01*
X16850777Y-15076008D02*
X16841253Y-15085531D01*
X16841253Y-15085531D02*
X16822206Y-15114103D01*
X16822206Y-15114103D02*
X16812682Y-15152198D01*
X16812682Y-15152198D02*
X16812682Y-15228388D01*
X16812682Y-15228388D02*
X16822206Y-15247436D01*
X16822206Y-15247436D02*
X16831729Y-15256960D01*
X16831729Y-15256960D02*
X16850777Y-15266484D01*
X16850777Y-15266484D02*
X16888872Y-15266484D01*
X16888872Y-15266484D02*
X16907920Y-15256960D01*
X16907920Y-15256960D02*
X16917444Y-15247436D01*
X16917444Y-15247436D02*
X16926968Y-15228388D01*
X16926968Y-15228388D02*
X16926968Y-15180769D01*
X16926968Y-15180769D02*
X16917444Y-15161722D01*
X16917444Y-15161722D02*
X16907920Y-15152198D01*
X16907920Y-15152198D02*
X16888872Y-15142674D01*
X16888872Y-15142674D02*
X16850777Y-15142674D01*
X16850777Y-15142674D02*
X16831729Y-15152198D01*
X16831729Y-15152198D02*
X16822206Y-15161722D01*
X16822206Y-15161722D02*
X16812682Y-15180769D01*
X17050777Y-15066484D02*
X17069825Y-15066484D01*
X17069825Y-15066484D02*
X17088872Y-15076008D01*
X17088872Y-15076008D02*
X17098396Y-15085531D01*
X17098396Y-15085531D02*
X17107920Y-15104579D01*
X17107920Y-15104579D02*
X17117444Y-15142674D01*
X17117444Y-15142674D02*
X17117444Y-15190293D01*
X17117444Y-15190293D02*
X17107920Y-15228388D01*
X17107920Y-15228388D02*
X17098396Y-15247436D01*
X17098396Y-15247436D02*
X17088872Y-15256960D01*
X17088872Y-15256960D02*
X17069825Y-15266484D01*
X17069825Y-15266484D02*
X17050777Y-15266484D01*
X17050777Y-15266484D02*
X17031729Y-15256960D01*
X17031729Y-15256960D02*
X17022206Y-15247436D01*
X17022206Y-15247436D02*
X17012682Y-15228388D01*
X17012682Y-15228388D02*
X17003158Y-15190293D01*
X17003158Y-15190293D02*
X17003158Y-15142674D01*
X17003158Y-15142674D02*
X17012682Y-15104579D01*
X17012682Y-15104579D02*
X17022206Y-15085531D01*
X17022206Y-15085531D02*
X17031729Y-15076008D01*
X17031729Y-15076008D02*
X17050777Y-15066484D01*
X17193634Y-15066484D02*
X17193634Y-15104579D01*
X17269825Y-15066484D02*
X17269825Y-15104579D01*
X17565063Y-15342674D02*
X17555539Y-15333150D01*
X17555539Y-15333150D02*
X17536491Y-15304579D01*
X17536491Y-15304579D02*
X17526968Y-15285531D01*
X17526968Y-15285531D02*
X17517444Y-15256960D01*
X17517444Y-15256960D02*
X17507920Y-15209341D01*
X17507920Y-15209341D02*
X17507920Y-15171246D01*
X17507920Y-15171246D02*
X17517444Y-15123627D01*
X17517444Y-15123627D02*
X17526968Y-15095055D01*
X17526968Y-15095055D02*
X17536491Y-15076008D01*
X17536491Y-15076008D02*
X17555539Y-15047436D01*
X17555539Y-15047436D02*
X17565063Y-15037912D01*
X17726968Y-15133150D02*
X17726968Y-15266484D01*
X17679349Y-15056960D02*
X17631730Y-15199817D01*
X17631730Y-15199817D02*
X17755539Y-15199817D01*
X17984111Y-15266484D02*
X17984111Y-15066484D01*
X18069825Y-15266484D02*
X18069825Y-15161722D01*
X18069825Y-15161722D02*
X18060301Y-15142674D01*
X18060301Y-15142674D02*
X18041253Y-15133150D01*
X18041253Y-15133150D02*
X18012682Y-15133150D01*
X18012682Y-15133150D02*
X17993634Y-15142674D01*
X17993634Y-15142674D02*
X17984111Y-15152198D01*
X18193634Y-15266484D02*
X18174587Y-15256960D01*
X18174587Y-15256960D02*
X18165063Y-15247436D01*
X18165063Y-15247436D02*
X18155539Y-15228388D01*
X18155539Y-15228388D02*
X18155539Y-15171246D01*
X18155539Y-15171246D02*
X18165063Y-15152198D01*
X18165063Y-15152198D02*
X18174587Y-15142674D01*
X18174587Y-15142674D02*
X18193634Y-15133150D01*
X18193634Y-15133150D02*
X18222206Y-15133150D01*
X18222206Y-15133150D02*
X18241253Y-15142674D01*
X18241253Y-15142674D02*
X18250777Y-15152198D01*
X18250777Y-15152198D02*
X18260301Y-15171246D01*
X18260301Y-15171246D02*
X18260301Y-15228388D01*
X18260301Y-15228388D02*
X18250777Y-15247436D01*
X18250777Y-15247436D02*
X18241253Y-15256960D01*
X18241253Y-15256960D02*
X18222206Y-15266484D01*
X18222206Y-15266484D02*
X18193634Y-15266484D01*
X18374587Y-15266484D02*
X18355539Y-15256960D01*
X18355539Y-15256960D02*
X18346015Y-15237912D01*
X18346015Y-15237912D02*
X18346015Y-15066484D01*
X18526968Y-15256960D02*
X18507920Y-15266484D01*
X18507920Y-15266484D02*
X18469825Y-15266484D01*
X18469825Y-15266484D02*
X18450777Y-15256960D01*
X18450777Y-15256960D02*
X18441253Y-15237912D01*
X18441253Y-15237912D02*
X18441253Y-15161722D01*
X18441253Y-15161722D02*
X18450777Y-15142674D01*
X18450777Y-15142674D02*
X18469825Y-15133150D01*
X18469825Y-15133150D02*
X18507920Y-15133150D01*
X18507920Y-15133150D02*
X18526968Y-15142674D01*
X18526968Y-15142674D02*
X18536492Y-15161722D01*
X18536492Y-15161722D02*
X18536492Y-15180769D01*
X18536492Y-15180769D02*
X18441253Y-15199817D01*
X18612682Y-15256960D02*
X18631730Y-15266484D01*
X18631730Y-15266484D02*
X18669825Y-15266484D01*
X18669825Y-15266484D02*
X18688873Y-15256960D01*
X18688873Y-15256960D02*
X18698396Y-15237912D01*
X18698396Y-15237912D02*
X18698396Y-15228388D01*
X18698396Y-15228388D02*
X18688873Y-15209341D01*
X18688873Y-15209341D02*
X18669825Y-15199817D01*
X18669825Y-15199817D02*
X18641253Y-15199817D01*
X18641253Y-15199817D02*
X18622206Y-15190293D01*
X18622206Y-15190293D02*
X18612682Y-15171246D01*
X18612682Y-15171246D02*
X18612682Y-15161722D01*
X18612682Y-15161722D02*
X18622206Y-15142674D01*
X18622206Y-15142674D02*
X18641253Y-15133150D01*
X18641253Y-15133150D02*
X18669825Y-15133150D01*
X18669825Y-15133150D02*
X18688873Y-15142674D01*
X18765063Y-15342674D02*
X18774587Y-15333150D01*
X18774587Y-15333150D02*
X18793634Y-15304579D01*
X18793634Y-15304579D02*
X18803158Y-15285531D01*
X18803158Y-15285531D02*
X18812682Y-15256960D01*
X18812682Y-15256960D02*
X18822206Y-15209341D01*
X18822206Y-15209341D02*
X18822206Y-15171246D01*
X18822206Y-15171246D02*
X18812682Y-15123627D01*
X18812682Y-15123627D02*
X18803158Y-15095055D01*
X18803158Y-15095055D02*
X18793634Y-15076008D01*
X18793634Y-15076008D02*
X18774587Y-15047436D01*
X18774587Y-15047436D02*
X18765063Y-15037912D01*
X19126968Y-15342674D02*
X19117444Y-15333150D01*
X19117444Y-15333150D02*
X19098396Y-15304579D01*
X19098396Y-15304579D02*
X19088873Y-15285531D01*
X19088873Y-15285531D02*
X19079349Y-15256960D01*
X19079349Y-15256960D02*
X19069825Y-15209341D01*
X19069825Y-15209341D02*
X19069825Y-15171246D01*
X19069825Y-15171246D02*
X19079349Y-15123627D01*
X19079349Y-15123627D02*
X19088873Y-15095055D01*
X19088873Y-15095055D02*
X19098396Y-15076008D01*
X19098396Y-15076008D02*
X19117444Y-15047436D01*
X19117444Y-15047436D02*
X19126968Y-15037912D01*
X19203158Y-15133150D02*
X19203158Y-15266484D01*
X19203158Y-15152198D02*
X19212682Y-15142674D01*
X19212682Y-15142674D02*
X19231730Y-15133150D01*
X19231730Y-15133150D02*
X19260301Y-15133150D01*
X19260301Y-15133150D02*
X19279349Y-15142674D01*
X19279349Y-15142674D02*
X19288873Y-15161722D01*
X19288873Y-15161722D02*
X19288873Y-15266484D01*
X19412682Y-15266484D02*
X19393634Y-15256960D01*
X19393634Y-15256960D02*
X19384111Y-15247436D01*
X19384111Y-15247436D02*
X19374587Y-15228388D01*
X19374587Y-15228388D02*
X19374587Y-15171246D01*
X19374587Y-15171246D02*
X19384111Y-15152198D01*
X19384111Y-15152198D02*
X19393634Y-15142674D01*
X19393634Y-15142674D02*
X19412682Y-15133150D01*
X19412682Y-15133150D02*
X19441254Y-15133150D01*
X19441254Y-15133150D02*
X19460301Y-15142674D01*
X19460301Y-15142674D02*
X19469825Y-15152198D01*
X19469825Y-15152198D02*
X19479349Y-15171246D01*
X19479349Y-15171246D02*
X19479349Y-15228388D01*
X19479349Y-15228388D02*
X19469825Y-15247436D01*
X19469825Y-15247436D02*
X19460301Y-15256960D01*
X19460301Y-15256960D02*
X19441254Y-15266484D01*
X19441254Y-15266484D02*
X19412682Y-15266484D01*
X19536492Y-15133150D02*
X19612682Y-15133150D01*
X19565063Y-15066484D02*
X19565063Y-15237912D01*
X19565063Y-15237912D02*
X19574587Y-15256960D01*
X19574587Y-15256960D02*
X19593634Y-15266484D01*
X19593634Y-15266484D02*
X19612682Y-15266484D01*
X19831730Y-15133150D02*
X19831730Y-15333150D01*
X19831730Y-15142674D02*
X19850777Y-15133150D01*
X19850777Y-15133150D02*
X19888873Y-15133150D01*
X19888873Y-15133150D02*
X19907920Y-15142674D01*
X19907920Y-15142674D02*
X19917444Y-15152198D01*
X19917444Y-15152198D02*
X19926968Y-15171246D01*
X19926968Y-15171246D02*
X19926968Y-15228388D01*
X19926968Y-15228388D02*
X19917444Y-15247436D01*
X19917444Y-15247436D02*
X19907920Y-15256960D01*
X19907920Y-15256960D02*
X19888873Y-15266484D01*
X19888873Y-15266484D02*
X19850777Y-15266484D01*
X19850777Y-15266484D02*
X19831730Y-15256960D01*
X20041254Y-15266484D02*
X20022206Y-15256960D01*
X20022206Y-15256960D02*
X20012682Y-15237912D01*
X20012682Y-15237912D02*
X20012682Y-15066484D01*
X20203158Y-15266484D02*
X20203158Y-15161722D01*
X20203158Y-15161722D02*
X20193635Y-15142674D01*
X20193635Y-15142674D02*
X20174587Y-15133150D01*
X20174587Y-15133150D02*
X20136492Y-15133150D01*
X20136492Y-15133150D02*
X20117444Y-15142674D01*
X20203158Y-15256960D02*
X20184111Y-15266484D01*
X20184111Y-15266484D02*
X20136492Y-15266484D01*
X20136492Y-15266484D02*
X20117444Y-15256960D01*
X20117444Y-15256960D02*
X20107920Y-15237912D01*
X20107920Y-15237912D02*
X20107920Y-15218865D01*
X20107920Y-15218865D02*
X20117444Y-15199817D01*
X20117444Y-15199817D02*
X20136492Y-15190293D01*
X20136492Y-15190293D02*
X20184111Y-15190293D01*
X20184111Y-15190293D02*
X20203158Y-15180769D01*
X20269825Y-15133150D02*
X20346015Y-15133150D01*
X20298396Y-15066484D02*
X20298396Y-15237912D01*
X20298396Y-15237912D02*
X20307920Y-15256960D01*
X20307920Y-15256960D02*
X20326968Y-15266484D01*
X20326968Y-15266484D02*
X20346015Y-15266484D01*
X20488873Y-15256960D02*
X20469825Y-15266484D01*
X20469825Y-15266484D02*
X20431730Y-15266484D01*
X20431730Y-15266484D02*
X20412682Y-15256960D01*
X20412682Y-15256960D02*
X20403158Y-15237912D01*
X20403158Y-15237912D02*
X20403158Y-15161722D01*
X20403158Y-15161722D02*
X20412682Y-15142674D01*
X20412682Y-15142674D02*
X20431730Y-15133150D01*
X20431730Y-15133150D02*
X20469825Y-15133150D01*
X20469825Y-15133150D02*
X20488873Y-15142674D01*
X20488873Y-15142674D02*
X20498396Y-15161722D01*
X20498396Y-15161722D02*
X20498396Y-15180769D01*
X20498396Y-15180769D02*
X20403158Y-15199817D01*
X20669825Y-15266484D02*
X20669825Y-15066484D01*
X20669825Y-15256960D02*
X20650777Y-15266484D01*
X20650777Y-15266484D02*
X20612682Y-15266484D01*
X20612682Y-15266484D02*
X20593635Y-15256960D01*
X20593635Y-15256960D02*
X20584111Y-15247436D01*
X20584111Y-15247436D02*
X20574587Y-15228388D01*
X20574587Y-15228388D02*
X20574587Y-15171246D01*
X20574587Y-15171246D02*
X20584111Y-15152198D01*
X20584111Y-15152198D02*
X20593635Y-15142674D01*
X20593635Y-15142674D02*
X20612682Y-15133150D01*
X20612682Y-15133150D02*
X20650777Y-15133150D01*
X20650777Y-15133150D02*
X20669825Y-15142674D01*
X20746016Y-15342674D02*
X20755539Y-15333150D01*
X20755539Y-15333150D02*
X20774587Y-15304579D01*
X20774587Y-15304579D02*
X20784111Y-15285531D01*
X20784111Y-15285531D02*
X20793635Y-15256960D01*
X20793635Y-15256960D02*
X20803158Y-15209341D01*
X20803158Y-15209341D02*
X20803158Y-15171246D01*
X20803158Y-15171246D02*
X20793635Y-15123627D01*
X20793635Y-15123627D02*
X20784111Y-15095055D01*
X20784111Y-15095055D02*
X20774587Y-15076008D01*
X20774587Y-15076008D02*
X20755539Y-15047436D01*
X20755539Y-15047436D02*
X20746016Y-15037912D01*
M02*
