G04 #@! TF.GenerationSoftware,KiCad,Pcbnew,8.0.6*
G04 #@! TF.CreationDate,2024-11-26T08:02:09+01:00*
G04 #@! TF.ProjectId,vt2_communicator,7674325f-636f-46d6-9d75-6e696361746f,rev?*
G04 #@! TF.SameCoordinates,Original*
G04 #@! TF.FileFunction,Soldermask,Top*
G04 #@! TF.FilePolarity,Negative*
%FSLAX46Y46*%
G04 Gerber Fmt 4.6, Leading zero omitted, Abs format (unit mm)*
G04 Created by KiCad (PCBNEW 8.0.6) date 2024-11-26 08:02:09*
%MOMM*%
%LPD*%
G01*
G04 APERTURE LIST*
G04 Aperture macros list*
%AMRoundRect*
0 Rectangle with rounded corners*
0 $1 Rounding radius*
0 $2 $3 $4 $5 $6 $7 $8 $9 X,Y pos of 4 corners*
0 Add a 4 corners polygon primitive as box body*
4,1,4,$2,$3,$4,$5,$6,$7,$8,$9,$2,$3,0*
0 Add four circle primitives for the rounded corners*
1,1,$1+$1,$2,$3*
1,1,$1+$1,$4,$5*
1,1,$1+$1,$6,$7*
1,1,$1+$1,$8,$9*
0 Add four rect primitives between the rounded corners*
20,1,$1+$1,$2,$3,$4,$5,0*
20,1,$1+$1,$4,$5,$6,$7,0*
20,1,$1+$1,$6,$7,$8,$9,0*
20,1,$1+$1,$8,$9,$2,$3,0*%
%AMFreePoly0*
4,1,28,0.178017,0.779942,0.347107,0.720775,0.498792,0.625465,0.625465,0.498792,0.720775,0.347107,0.779942,0.178017,0.800000,0.000000,0.779942,-0.178017,0.720775,-0.347107,0.625465,-0.498792,0.498792,-0.625465,0.347107,-0.720775,0.178017,-0.779942,0.000000,-0.800000,-2.200000,-0.800000,-2.205014,-0.794986,-2.244504,-0.794986,-2.324698,-0.756366,-2.380194,-0.686777,-2.400000,-0.600000,
-2.400000,0.600000,-2.380194,0.686777,-2.324698,0.756366,-2.244504,0.794986,-2.205014,0.794986,-2.200000,0.800000,0.000000,0.800000,0.178017,0.779942,0.178017,0.779942,$1*%
%AMFreePoly1*
4,1,28,0.605014,0.794986,0.644504,0.794986,0.724698,0.756366,0.780194,0.686777,0.800000,0.600000,0.800000,-0.600000,0.780194,-0.686777,0.724698,-0.756366,0.644504,-0.794986,0.605014,-0.794986,0.600000,-0.800000,0.000000,-0.800000,-0.178017,-0.779942,-0.347107,-0.720775,-0.498792,-0.625465,-0.625465,-0.498792,-0.720775,-0.347107,-0.779942,-0.178017,-0.800000,0.000000,-0.779942,0.178017,
-0.720775,0.347107,-0.625465,0.498792,-0.498792,0.625465,-0.347107,0.720775,-0.178017,0.779942,0.000000,0.800000,0.600000,0.800000,0.605014,0.794986,0.605014,0.794986,$1*%
%AMFreePoly2*
4,1,29,0.605014,0.794986,0.644504,0.794986,0.724698,0.756366,0.780194,0.686777,0.800000,0.600000,0.800000,-0.600000,0.780194,-0.686777,0.724698,-0.756366,0.644504,-0.794986,0.605014,-0.794986,0.600000,-0.800000,0.000000,-0.800000,-1.600000,-0.800000,-1.778017,-0.779942,-1.947107,-0.720775,-2.098792,-0.625465,-2.225465,-0.498792,-2.320775,-0.347107,-2.379942,-0.178017,-2.400000,0.000000,
-2.379942,0.178017,-2.320775,0.347107,-2.225465,0.498792,-2.098792,0.625465,-1.947107,0.720775,-1.778017,0.779942,-1.600000,0.800000,0.600000,0.800000,0.605014,0.794986,0.605014,0.794986,$1*%
%AMFreePoly3*
4,1,28,0.178017,0.779942,0.347107,0.720775,0.498792,0.625465,0.625465,0.498792,0.720775,0.347107,0.779942,0.178017,0.800000,0.000000,0.779942,-0.178017,0.720775,-0.347107,0.625465,-0.498792,0.498792,-0.625465,0.347107,-0.720775,0.178017,-0.779942,0.000000,-0.800000,-0.600000,-0.800000,-0.605014,-0.794986,-0.644504,-0.794986,-0.724698,-0.756366,-0.780194,-0.686777,-0.800000,-0.600000,
-0.800000,0.600000,-0.780194,0.686777,-0.724698,0.756366,-0.644504,0.794986,-0.605014,0.794986,-0.600000,0.800000,0.000000,0.800000,0.178017,0.779942,0.178017,0.779942,$1*%
%AMFreePoly4*
4,1,29,1.778017,0.779942,1.947107,0.720775,2.098792,0.625465,2.225465,0.498792,2.320775,0.347107,2.379942,0.178017,2.400000,0.000000,2.379942,-0.178017,2.320775,-0.347107,2.225465,-0.498792,2.098792,-0.625465,1.947107,-0.720775,1.778017,-0.779942,1.600000,-0.800000,0.000000,-0.800000,-0.600000,-0.800000,-0.605014,-0.794986,-0.644504,-0.794986,-0.724698,-0.756366,-0.780194,-0.686777,
-0.800000,-0.600000,-0.800000,0.600000,-0.780194,0.686777,-0.724698,0.756366,-0.644504,0.794986,-0.605014,0.794986,-0.600000,0.800000,1.600000,0.800000,1.778017,0.779942,1.778017,0.779942,$1*%
G04 Aperture macros list end*
%ADD10RoundRect,0.250000X-0.475000X0.337500X-0.475000X-0.337500X0.475000X-0.337500X0.475000X0.337500X0*%
%ADD11RoundRect,0.250000X0.475000X-0.337500X0.475000X0.337500X-0.475000X0.337500X-0.475000X-0.337500X0*%
%ADD12RoundRect,0.250000X-0.337500X-0.475000X0.337500X-0.475000X0.337500X0.475000X-0.337500X0.475000X0*%
%ADD13RoundRect,0.250000X0.450000X-0.350000X0.450000X0.350000X-0.450000X0.350000X-0.450000X-0.350000X0*%
%ADD14R,1.800000X1.800000*%
%ADD15C,1.800000*%
%ADD16RoundRect,0.250000X-0.350000X-0.450000X0.350000X-0.450000X0.350000X0.450000X-0.350000X0.450000X0*%
%ADD17RoundRect,0.250000X0.350000X0.450000X-0.350000X0.450000X-0.350000X-0.450000X0.350000X-0.450000X0*%
%ADD18R,1.700000X1.700000*%
%ADD19O,1.700000X1.700000*%
%ADD20C,3.200000*%
%ADD21RoundRect,0.150000X-0.150000X-0.625000X0.150000X-0.625000X0.150000X0.625000X-0.150000X0.625000X0*%
%ADD22RoundRect,0.250000X-0.350000X-0.650000X0.350000X-0.650000X0.350000X0.650000X-0.350000X0.650000X0*%
%ADD23RoundRect,0.250000X-0.450000X0.350000X-0.450000X-0.350000X0.450000X-0.350000X0.450000X0.350000X0*%
%ADD24C,2.200000*%
%ADD25C,1.850000*%
%ADD26RoundRect,0.200000X-0.600000X0.600000X-0.600000X-0.600000X0.600000X-0.600000X0.600000X0.600000X0*%
%ADD27FreePoly0,270.000000*%
%ADD28C,1.600000*%
%ADD29RoundRect,0.800000X-0.000010X0.800000X-0.000010X-0.800000X0.000010X-0.800000X0.000010X0.800000X0*%
%ADD30FreePoly1,270.000000*%
%ADD31FreePoly2,270.000000*%
%ADD32FreePoly3,270.000000*%
%ADD33FreePoly4,270.000000*%
%ADD34C,4.000000*%
%ADD35R,1.600000X1.600000*%
%ADD36RoundRect,0.150000X-0.825000X-0.150000X0.825000X-0.150000X0.825000X0.150000X-0.825000X0.150000X0*%
%ADD37R,1.750000X0.450000*%
%ADD38RoundRect,0.150000X-0.150000X0.587500X-0.150000X-0.587500X0.150000X-0.587500X0.150000X0.587500X0*%
%ADD39RoundRect,0.250000X0.600000X0.725000X-0.600000X0.725000X-0.600000X-0.725000X0.600000X-0.725000X0*%
%ADD40O,1.700000X1.950000*%
%ADD41RoundRect,0.150000X0.150000X-0.587500X0.150000X0.587500X-0.150000X0.587500X-0.150000X-0.587500X0*%
G04 APERTURE END LIST*
D10*
X191200000Y-51787500D03*
X191200000Y-53862500D03*
D11*
X178100000Y-57775000D03*
X178100000Y-55700000D03*
D12*
X167425000Y-66450000D03*
X169500000Y-66450000D03*
D13*
X154400000Y-60350000D03*
X154400000Y-58350000D03*
D14*
X149050000Y-99660000D03*
D15*
X149050000Y-102200000D03*
D16*
X168200000Y-112275000D03*
X170200000Y-112275000D03*
D17*
X158500000Y-67000000D03*
X156500000Y-67000000D03*
D11*
X180400000Y-53837500D03*
X180400000Y-51762500D03*
D18*
X186850000Y-100160000D03*
D19*
X186850000Y-102700000D03*
D14*
X149075000Y-76825000D03*
D15*
X149075000Y-79365000D03*
D14*
X149100000Y-69210000D03*
D15*
X149100000Y-71750000D03*
D20*
X143500000Y-44500000D03*
D17*
X158500000Y-71400000D03*
X156500000Y-71400000D03*
D21*
X167762500Y-62500000D03*
X168762500Y-62500000D03*
X169762500Y-62500000D03*
X170762500Y-62500000D03*
D22*
X166462500Y-59975000D03*
X172062500Y-59975000D03*
D23*
X171300000Y-70550000D03*
X171300000Y-72550000D03*
X178950000Y-70550000D03*
X178950000Y-72550000D03*
X173350000Y-70550000D03*
X173350000Y-72550000D03*
D14*
X149000000Y-107210000D03*
D15*
X149000000Y-109750000D03*
D24*
X206270000Y-82585000D03*
D25*
X203240000Y-82885000D03*
X203240000Y-87735000D03*
D24*
X206270000Y-88035000D03*
D26*
X206400000Y-76420000D03*
D27*
X206400000Y-76420000D03*
D28*
X203860000Y-76420000D03*
D29*
X203860000Y-75620000D03*
D30*
X201320000Y-76420000D03*
D31*
X201320000Y-76420000D03*
D28*
X198780000Y-76420000D03*
D29*
X198780000Y-75620000D03*
D28*
X196240000Y-76420000D03*
D29*
X196240000Y-75620000D03*
D28*
X193700000Y-76420000D03*
D29*
X193700000Y-75620000D03*
D28*
X191160000Y-76420000D03*
D29*
X191160000Y-75620000D03*
D30*
X188620000Y-76420000D03*
D31*
X188620000Y-76420000D03*
D28*
X186080000Y-76420000D03*
D29*
X186080000Y-75620000D03*
D28*
X183540000Y-76420000D03*
D29*
X183540000Y-75620000D03*
D28*
X181000000Y-76420000D03*
D29*
X181000000Y-75620000D03*
D28*
X178460000Y-76420000D03*
D29*
X178460000Y-75620000D03*
D30*
X175920000Y-76420000D03*
D31*
X175920000Y-76420000D03*
D28*
X173380000Y-76420000D03*
D29*
X173380000Y-75620000D03*
D28*
X170840000Y-76420000D03*
D29*
X170840000Y-75620000D03*
D28*
X168300000Y-76420000D03*
D29*
X168300000Y-75620000D03*
D28*
X165760000Y-76420000D03*
D29*
X165760000Y-75620000D03*
D30*
X163220000Y-76420000D03*
D31*
X163220000Y-76420000D03*
D28*
X160680000Y-76420000D03*
D29*
X160680000Y-75620000D03*
D28*
X158140000Y-76420000D03*
D29*
X158140000Y-75620000D03*
D28*
X158140000Y-94200000D03*
D29*
X158140000Y-95000000D03*
D28*
X160680000Y-94200000D03*
D29*
X160680000Y-95000000D03*
D32*
X163220000Y-94200000D03*
D33*
X163220000Y-94200000D03*
D28*
X165760000Y-94200000D03*
D29*
X165760000Y-95000000D03*
D28*
X168300000Y-94200000D03*
D29*
X168300000Y-95000000D03*
D28*
X170840000Y-94200000D03*
D29*
X170840000Y-95000000D03*
D28*
X173380000Y-94200000D03*
D29*
X173380000Y-95000000D03*
D32*
X175920000Y-94200000D03*
D33*
X175920000Y-94200000D03*
D28*
X178460000Y-94200000D03*
D29*
X178460000Y-95000000D03*
D28*
X181000000Y-94200000D03*
D29*
X181000000Y-95000000D03*
D28*
X183540000Y-94200000D03*
D29*
X183540000Y-95000000D03*
D28*
X186080000Y-94200000D03*
D29*
X186080000Y-95000000D03*
D32*
X188620000Y-94200000D03*
D33*
X188620000Y-94200000D03*
D28*
X191160000Y-94200000D03*
D29*
X191160000Y-95000000D03*
D28*
X193700000Y-94200000D03*
D29*
X193700000Y-95000000D03*
D28*
X196240000Y-94200000D03*
D29*
X196240000Y-95000000D03*
D28*
X198780000Y-94200000D03*
D29*
X198780000Y-95000000D03*
D32*
X201320000Y-94200000D03*
D33*
X201320000Y-94200000D03*
D28*
X203860000Y-94200000D03*
D29*
X203860000Y-95000000D03*
D28*
X206400000Y-94200000D03*
D29*
X206400000Y-95000000D03*
D18*
X190680000Y-70400000D03*
D19*
X188140000Y-70400000D03*
X185600000Y-70400000D03*
D18*
X190650000Y-100125000D03*
D19*
X190650000Y-102665000D03*
D10*
X178100000Y-51725000D03*
X178100000Y-53800000D03*
D34*
X196780000Y-135100000D03*
X196780000Y-101800000D03*
D35*
X195360000Y-128145000D03*
D28*
X195360000Y-125375000D03*
X195360000Y-122605000D03*
X195360000Y-119835000D03*
X195360000Y-117065000D03*
X195360000Y-114295000D03*
X195360000Y-111525000D03*
X195360000Y-108755000D03*
X198200000Y-126760000D03*
X198200000Y-123990000D03*
X198200000Y-121220000D03*
X198200000Y-118450000D03*
X198200000Y-115680000D03*
X198200000Y-112910000D03*
X198200000Y-110140000D03*
D20*
X189500000Y-44500000D03*
D23*
X181000000Y-70550000D03*
X181000000Y-72550000D03*
D16*
X164350000Y-112275000D03*
X166350000Y-112275000D03*
X172050000Y-112275000D03*
X174050000Y-112275000D03*
D34*
X196800000Y-68700000D03*
X196800000Y-43700000D03*
D35*
X195380000Y-50660000D03*
D28*
X195380000Y-53430000D03*
X195380000Y-56200000D03*
X195380000Y-58970000D03*
X195380000Y-61740000D03*
X198220000Y-52045000D03*
X198220000Y-54815000D03*
X198220000Y-57585000D03*
X198220000Y-60355000D03*
D36*
X182950000Y-51710000D03*
X182950000Y-52980000D03*
X182950000Y-54250000D03*
X182950000Y-55520000D03*
X182950000Y-56790000D03*
X182950000Y-58060000D03*
X182950000Y-59330000D03*
X182950000Y-60600000D03*
X187900000Y-60600000D03*
X187900000Y-59330000D03*
X187900000Y-58060000D03*
X187900000Y-56790000D03*
X187900000Y-55520000D03*
X187900000Y-54250000D03*
X187900000Y-52980000D03*
X187900000Y-51710000D03*
D16*
X159350000Y-99450000D03*
X161350000Y-99450000D03*
X159350000Y-101650000D03*
X161350000Y-101650000D03*
D37*
X182375000Y-108775000D03*
X182375000Y-109425000D03*
X182375000Y-110075000D03*
X182375000Y-110725000D03*
X182375000Y-111375000D03*
X182375000Y-112025000D03*
X182375000Y-112675000D03*
X182375000Y-113325000D03*
X182375000Y-113975000D03*
X182375000Y-114625000D03*
X182375000Y-115275000D03*
X182375000Y-115925000D03*
X182375000Y-116575000D03*
X182375000Y-117225000D03*
X189575000Y-117225000D03*
X189575000Y-116575000D03*
X189575000Y-115925000D03*
X189575000Y-115275000D03*
X189575000Y-114625000D03*
X189575000Y-113975000D03*
X189575000Y-113325000D03*
X189575000Y-112675000D03*
X189575000Y-112025000D03*
X189575000Y-111375000D03*
X189575000Y-110725000D03*
X189575000Y-110075000D03*
X189575000Y-109425000D03*
X189575000Y-108775000D03*
D17*
X158500000Y-64800000D03*
X156500000Y-64800000D03*
D20*
X143500000Y-134500000D03*
D38*
X166600000Y-108225000D03*
X164700000Y-108225000D03*
X165650000Y-110100000D03*
D13*
X175500000Y-110125000D03*
X175500000Y-108125000D03*
D38*
X173600000Y-108225000D03*
X171700000Y-108225000D03*
X172650000Y-110100000D03*
D10*
X180400000Y-55762500D03*
X180400000Y-57837500D03*
D20*
X189500000Y-134500000D03*
D14*
X149075000Y-84375000D03*
D15*
X149075000Y-86915000D03*
D18*
X183050000Y-100160000D03*
D19*
X183050000Y-102700000D03*
D17*
X158500000Y-69200000D03*
X156500000Y-69200000D03*
D10*
X179975000Y-113262500D03*
X179975000Y-115337500D03*
D39*
X173450000Y-102400000D03*
D40*
X170950000Y-102400000D03*
X168450000Y-102400000D03*
X165950000Y-102400000D03*
D38*
X170100000Y-108237500D03*
X168200000Y-108237500D03*
X169150000Y-110112500D03*
D16*
X156400000Y-58450000D03*
X158400000Y-58450000D03*
D41*
X156400000Y-62550000D03*
X158300000Y-62550000D03*
X157350000Y-60675000D03*
D14*
X149100000Y-92060000D03*
D15*
X149100000Y-94600000D03*
M02*
