solid OpenSCAD_Model
  facet normal 1 -0 0
    outer loop
      vertex 9.125 -7 6.5
      vertex 9.125 7 0
      vertex 9.125 7 6.5
    endloop
  endfacet
  facet normal 1 0 0
    outer loop
      vertex 9.125 7 0
      vertex 9.125 -7 6.5
      vertex 9.125 -7 0
    endloop
  endfacet
  facet normal 0 -1 0
    outer loop
      vertex -9.125 -7 6.5
      vertex -7.875 -7 1
      vertex -7.875 -7 6.5
    endloop
  endfacet
  facet normal 0 -1 -0
    outer loop
      vertex -7.875 -7 1
      vertex -9.125 -7 0
      vertex 7.875 -7 1
    endloop
  endfacet
  facet normal 0 -1 0
    outer loop
      vertex -9.125 -7 0
      vertex -7.875 -7 1
      vertex -9.125 -7 6.5
    endloop
  endfacet
  facet normal 0 -1 0
    outer loop
      vertex 7.875 -7 1
      vertex 9.125 -7 6.5
      vertex 7.875 -7 6.5
    endloop
  endfacet
  facet normal 0 -1 0
    outer loop
      vertex 7.875 -7 1
      vertex 9.125 -7 0
      vertex 9.125 -7 6.5
    endloop
  endfacet
  facet normal 0 -1 0
    outer loop
      vertex 9.125 -7 0
      vertex 7.875 -7 1
      vertex -9.125 -7 0
    endloop
  endfacet
  facet normal 0 1 0
    outer loop
      vertex 9.125 7 6.5
      vertex 7.875 7 1
      vertex 7.875 7 6.5
    endloop
  endfacet
  facet normal 0 1 0
    outer loop
      vertex 7.875 7 1
      vertex 9.125 7 0
      vertex -7.875 7 1
    endloop
  endfacet
  facet normal 0 1 -0
    outer loop
      vertex 9.125 7 0
      vertex 7.875 7 1
      vertex 9.125 7 6.5
    endloop
  endfacet
  facet normal 0 1 -0
    outer loop
      vertex -7.875 7 1
      vertex -9.125 7 6.5
      vertex -7.875 7 6.5
    endloop
  endfacet
  facet normal 0 1 0
    outer loop
      vertex -7.875 7 1
      vertex -9.125 7 0
      vertex -9.125 7 6.5
    endloop
  endfacet
  facet normal 0 1 0
    outer loop
      vertex -9.125 7 0
      vertex -7.875 7 1
      vertex 9.125 7 0
    endloop
  endfacet
  facet normal -1 0 0
    outer loop
      vertex -9.125 -7 0
      vertex -9.125 7 6.5
      vertex -9.125 7 0
    endloop
  endfacet
  facet normal -1 -0 0
    outer loop
      vertex -9.125 7 6.5
      vertex -9.125 -7 0
      vertex -9.125 -7 6.5
    endloop
  endfacet
  facet normal -0 0 1
    outer loop
      vertex -7.875 7 1
      vertex 7.875 -7 1
      vertex 7.875 7 1
    endloop
  endfacet
  facet normal 0 0 1
    outer loop
      vertex 7.875 -7 1
      vertex -7.875 7 1
      vertex -7.875 -7 1
    endloop
  endfacet
  facet normal 0 0 -1
    outer loop
      vertex -9.125 -7 0
      vertex 9.125 7 0
      vertex 9.125 -7 0
    endloop
  endfacet
  facet normal -0 0 -1
    outer loop
      vertex 9.125 7 0
      vertex -9.125 -7 0
      vertex -9.125 7 0
    endloop
  endfacet
  facet normal -1 0 0
    outer loop
      vertex 7.875 -7 1
      vertex 7.875 7 6.5
      vertex 7.875 7 1
    endloop
  endfacet
  facet normal -1 -0 0
    outer loop
      vertex 7.875 7 6.5
      vertex 7.875 -7 1
      vertex 7.875 -7 6.5
    endloop
  endfacet
  facet normal -0 0 1
    outer loop
      vertex 7.875 7 6.5
      vertex 9.125 -7 6.5
      vertex 9.125 7 6.5
    endloop
  endfacet
  facet normal 0 0 1
    outer loop
      vertex 9.125 -7 6.5
      vertex 7.875 7 6.5
      vertex 7.875 -7 6.5
    endloop
  endfacet
  facet normal 1 -0 0
    outer loop
      vertex -7.875 -7 6.5
      vertex -7.875 7 1
      vertex -7.875 7 6.5
    endloop
  endfacet
  facet normal 1 0 0
    outer loop
      vertex -7.875 7 1
      vertex -7.875 -7 6.5
      vertex -7.875 -7 1
    endloop
  endfacet
  facet normal -0 0 1
    outer loop
      vertex -9.125 7 6.5
      vertex -7.875 -7 6.5
      vertex -7.875 7 6.5
    endloop
  endfacet
  facet normal 0 0 1
    outer loop
      vertex -7.875 -7 6.5
      vertex -9.125 7 6.5
      vertex -9.125 -7 6.5
    endloop
  endfacet
endsolid OpenSCAD_Model
