solid OpenSCAD_Model
  facet normal 0 0.707107 0.707107
    outer loop
      vertex -12 8 1
      vertex -13 7 2
      vertex -11 7 2
    endloop
  endfacet
  facet normal 0 0.707107 0.707107
    outer loop
      vertex -13 7 2
      vertex -12 8 1
      vertex -13 8 1
    endloop
  endfacet
  facet normal 0 0.707107 0.707107
    outer loop
      vertex 12 8 1
      vertex 12 7 2
      vertex 21 7 2
    endloop
  endfacet
  facet normal -0 0.707107 0.707107
    outer loop
      vertex 12 8 1
      vertex 21 7 2
      vertex 21 8 1
    endloop
  endfacet
  facet normal 0 0.707107 0.707107
    outer loop
      vertex 12 7 2
      vertex 12 8 1
      vertex 11 7 2
    endloop
  endfacet
  facet normal 0.707107 -0 0.707107
    outer loop
      vertex 21 4.5 2
      vertex 22 7 1
      vertex 21 7 2
    endloop
  endfacet
  facet normal 0.707107 -0 0.707107
    outer loop
      vertex 21 -4.5 2
      vertex 22 7 1
      vertex 21 4.5 2
    endloop
  endfacet
  facet normal 0.707107 0 0.707107
    outer loop
      vertex 22 -7 1
      vertex 21 -4.5 2
      vertex 21 -7 2
    endloop
  endfacet
  facet normal 0.707107 0 0.707107
    outer loop
      vertex 21 -4.5 2
      vertex 22 -7 1
      vertex 22 7 1
    endloop
  endfacet
  facet normal 0.707107 0.707107 0
    outer loop
      vertex 21.5 7.5 0.999999
      vertex 21 8 0
      vertex 21 8 0.999999
    endloop
  endfacet
  facet normal 0.707107 0.707107 -0
    outer loop
      vertex 22 7 0
      vertex 21.5 7.5 0.999999
      vertex 22 7 0.999999
    endloop
  endfacet
  facet normal 0.707107 0.707107 0
    outer loop
      vertex 21.5 7.5 0.999999
      vertex 22 7 0
      vertex 21 8 0
    endloop
  endfacet
  facet normal 0 -0.707107 0.707107
    outer loop
      vertex -13 -7 2
      vertex -2 -7.125 1.875
      vertex -2 -7 2
    endloop
  endfacet
  facet normal 0 -0.707107 0.707107
    outer loop
      vertex -2 -7.125 1.875
      vertex -13 -8 1
      vertex 2 -7.125 1.875
    endloop
  endfacet
  facet normal 0 -0.707107 0.707107
    outer loop
      vertex -13 -8 1
      vertex -2 -7.125 1.875
      vertex -13 -7 2
    endloop
  endfacet
  facet normal 0 -0.707107 0.707107
    outer loop
      vertex 2 -7.125 1.875
      vertex 12 -7 2
      vertex 2 -7 2
    endloop
  endfacet
  facet normal 0 -0.707107 0.707107
    outer loop
      vertex 21 -8 1
      vertex 12 -7 2
      vertex 2 -7.125 1.875
    endloop
  endfacet
  facet normal 0 -0.707107 0.707107
    outer loop
      vertex 21 -8 1
      vertex 2 -7.125 1.875
      vertex -13 -8 1
    endloop
  endfacet
  facet normal 0 -0.707107 0.707107
    outer loop
      vertex 12 -7 2
      vertex 21 -8 1
      vertex 21 -7 2
    endloop
  endfacet
  facet normal -0.707107 0 0.707107
    outer loop
      vertex -14 7 1
      vertex -13 -7 2
      vertex -13 7 2
    endloop
  endfacet
  facet normal -0.707107 0 0.707107
    outer loop
      vertex -13 -7 2
      vertex -14 7 1
      vertex -14 -7 1
    endloop
  endfacet
  facet normal -0.707107 0.707107 0
    outer loop
      vertex -13 8 0
      vertex -13.5 7.5 0.999999
      vertex -13 8 0.999999
    endloop
  endfacet
  facet normal -0.707107 0.707107 0
    outer loop
      vertex -14 7 0
      vertex -13.5 7.5 0.999999
      vertex -13 8 0
    endloop
  endfacet
  facet normal -0.707107 0.707107 0
    outer loop
      vertex -13.5 7.5 0.999999
      vertex -14 7 0
      vertex -14 7 0.999999
    endloop
  endfacet
  facet normal -0.707107 -0.707107 0
    outer loop
      vertex -14 -7 0
      vertex -13.5 -7.5 0.999999
      vertex -14 -7 0.999999
    endloop
  endfacet
  facet normal -0.707107 -0.707107 0
    outer loop
      vertex -13 -8 0
      vertex -13.5 -7.5 0.999999
      vertex -14 -7 0
    endloop
  endfacet
  facet normal -0.707107 -0.707107 0
    outer loop
      vertex -13.5 -7.5 0.999999
      vertex -13 -8 0
      vertex -13 -8 0.999999
    endloop
  endfacet
  facet normal 0.707107 -0.707107 0
    outer loop
      vertex 21.5 -7.5 0.999999
      vertex 22 -7 0
      vertex 22 -7 0.999999
    endloop
  endfacet
  facet normal 0.707107 -0.707107 0
    outer loop
      vertex 21 -8 0
      vertex 21.5 -7.5 0.999999
      vertex 21 -8 0.999999
    endloop
  endfacet
  facet normal 0.707107 -0.707107 0
    outer loop
      vertex 21.5 -7.5 0.999999
      vertex 21 -8 0
      vertex 22 -7 0
    endloop
  endfacet
  facet normal -0.57735 -0.577351 0.57735
    outer loop
      vertex -14 -7 1
      vertex -13.5 -7.5 0.999999
      vertex -13 -7 2
    endloop
  endfacet
  facet normal -0.707107 -0.707107 0
    outer loop
      vertex -13.5 -7.5 0.999999
      vertex -14 -7 1
      vertex -14 -7 0.999999
    endloop
  endfacet
  facet normal -1 0 0
    outer loop
      vertex -13 -7 2
      vertex -13 -8 0.999999
      vertex -13 -8 1
    endloop
  endfacet
  facet normal -0.57735 -0.57735 0.57735
    outer loop
      vertex -13 -7 2
      vertex -13.5 -7.5 0.999999
      vertex -13 -8 0.999999
    endloop
  endfacet
  facet normal 0.707107 -0.707107 0
    outer loop
      vertex 21.5 -7.5 0.999999
      vertex 21 -8 1
      vertex 21 -8 0.999999
    endloop
  endfacet
  facet normal 0.577351 -0.57735 0.57735
    outer loop
      vertex 21 -8 1
      vertex 21.5 -7.5 0.999999
      vertex 21 -7 2
    endloop
  endfacet
  facet normal 0.57735 -0.577351 0.57735
    outer loop
      vertex 21.5 -7.5 0.999999
      vertex 22 -7 1
      vertex 21 -7 2
    endloop
  endfacet
  facet normal 0.707107 -0.707107 0
    outer loop
      vertex 22 -7 1
      vertex 21.5 -7.5 0.999999
      vertex 22 -7 0.999999
    endloop
  endfacet
  facet normal -1 0 0
    outer loop
      vertex -13 8 0.999999
      vertex -13 7 2
      vertex -13 8 1
    endloop
  endfacet
  facet normal -0.57735 0.57735 0.57735
    outer loop
      vertex -13.5 7.5 0.999999
      vertex -13 7 2
      vertex -13 8 0.999999
    endloop
  endfacet
  facet normal -0.57735 0.57735 0.57735
    outer loop
      vertex -14 7 0.999999
      vertex -13 7 2
      vertex -13.5 7.5 0.999999
    endloop
  endfacet
  facet normal 0 1 0
    outer loop
      vertex -13 7 2
      vertex -14 7 0.999999
      vertex -14 7 1
    endloop
  endfacet
  facet normal 0.707107 0.707107 0
    outer loop
      vertex 21.5 7.5 0.999999
      vertex 22 7 1
      vertex 22 7 0.999999
    endloop
  endfacet
  facet normal 0.57735 0.577351 0.57735
    outer loop
      vertex 22 7 1
      vertex 21.5 7.5 0.999999
      vertex 21 7 2
    endloop
  endfacet
  facet normal 0.577351 0.57735 0.57735
    outer loop
      vertex 21.5 7.5 0.999999
      vertex 21 8 1
      vertex 21 7 2
    endloop
  endfacet
  facet normal 0.707107 0.707107 0
    outer loop
      vertex 21 8 1
      vertex 21.5 7.5 0.999999
      vertex 21 8 0.999999
    endloop
  endfacet
  facet normal 0 0 0
    outer loop
      vertex 22 7 1
      vertex 22 7 0
      vertex 22 7 0.999999
    endloop
  endfacet
  facet normal 1 -0 0
    outer loop
      vertex 22 -7 1
      vertex 22 7 0
      vertex 22 7 1
    endloop
  endfacet
  facet normal 0 0 0
    outer loop
      vertex 22 -7 0
      vertex 22 -7 1
      vertex 22 -7 0.999999
    endloop
  endfacet
  facet normal 1 0 0
    outer loop
      vertex 22 -7 1
      vertex 22 -7 0
      vertex 22 7 0
    endloop
  endfacet
  facet normal 0 0 1
    outer loop
      vertex -3.375 2.625 2
      vertex -2 3.375 2
      vertex -2 5 2
    endloop
  endfacet
  facet normal 0 0 1
    outer loop
      vertex -2 3.375 2
      vertex -3.375 2.625 2
      vertex -2 -3.375 2
    endloop
  endfacet
  facet normal -0 0 1
    outer loop
      vertex -3.375 -2.625 2
      vertex -2 -3.375 2
      vertex -3.375 2.625 2
    endloop
  endfacet
  facet normal 0 0 1
    outer loop
      vertex -2 5 2
      vertex -8.625 2.625 2
      vertex -3.375 2.625 2
    endloop
  endfacet
  facet normal 0 0 1
    outer loop
      vertex -8.625 2.625 2
      vertex -11 5 2
      vertex -8.625 -2.625 2
    endloop
  endfacet
  facet normal -0 0 1
    outer loop
      vertex -11 5 2
      vertex -8.625 2.625 2
      vertex -2 5 2
    endloop
  endfacet
  facet normal -0 0 1
    outer loop
      vertex -2 3.375 2
      vertex -1.375 -3.375 2
      vertex -1.375 3.375 2
    endloop
  endfacet
  facet normal 0 0 1
    outer loop
      vertex -1.375 -3.375 2
      vertex -2 3.375 2
      vertex -2 -3.375 2
    endloop
  endfacet
  facet normal 0 0 1
    outer loop
      vertex -1.375 3.375 2
      vertex 1.375 3.375 2
      vertex 1.375 5 2
    endloop
  endfacet
  facet normal 0 0 1
    outer loop
      vertex 1.375 3.375 2
      vertex -1.375 3.375 2
      vertex 1.375 -3.375 2
    endloop
  endfacet
  facet normal 0 0 1
    outer loop
      vertex -1.375 3.375 2
      vertex 1.375 5 2
      vertex -1.375 5 2
    endloop
  endfacet
  facet normal 0 0 1
    outer loop
      vertex -1.375 -3.375 2
      vertex 1.375 -3.375 2
      vertex -1.375 3.375 2
    endloop
  endfacet
  facet normal 0 0 1
    outer loop
      vertex 1.375 -3.375 2
      vertex -1.375 -3.375 2
      vertex 1.375 -5 2
    endloop
  endfacet
  facet normal 0 0 1
    outer loop
      vertex 1.375 -5 2
      vertex -1.375 -3.375 2
      vertex -1.375 -5 2
    endloop
  endfacet
  facet normal 0 0 1
    outer loop
      vertex 1.375 -3.375 2
      vertex 3.375 -2.625 2
      vertex 1.375 3.375 2
    endloop
  endfacet
  facet normal 0 0 1
    outer loop
      vertex 3.375 -2.625 2
      vertex 1.375 -3.375 2
      vertex 2 -3.375 2
    endloop
  endfacet
  facet normal 0 0 1
    outer loop
      vertex -2 -3.375 2
      vertex -3.375 -2.625 2
      vertex -2 -5 2
    endloop
  endfacet
  facet normal -0 0 1
    outer loop
      vertex -8.625 -2.625 2
      vertex -2 -5 2
      vertex -3.375 -2.625 2
    endloop
  endfacet
  facet normal 0 0 1
    outer loop
      vertex -8.625 -2.625 2
      vertex -11 -5 2
      vertex -2 -5 2
    endloop
  endfacet
  facet normal 0 0 1
    outer loop
      vertex -11 -5 2
      vertex -8.625 -2.625 2
      vertex -11 5 2
    endloop
  endfacet
  facet normal 0 0 1
    outer loop
      vertex 11 4.5 2
      vertex 8.625 2.625 2
      vertex 11 -4.5 2
    endloop
  endfacet
  facet normal -0 0 1
    outer loop
      vertex 2 5 2
      vertex 11 4.5 2
      vertex 11.5 5 2
    endloop
  endfacet
  facet normal 0 0 1
    outer loop
      vertex 11 4.5 2
      vertex 2 5 2
      vertex 8.625 2.625 2
    endloop
  endfacet
  facet normal -0 0 1
    outer loop
      vertex 2 3.375 2
      vertex 3.375 2.625 2
      vertex 2 5 2
    endloop
  endfacet
  facet normal 0 0 1
    outer loop
      vertex 8.625 2.625 2
      vertex 2 5 2
      vertex 3.375 2.625 2
    endloop
  endfacet
  facet normal -0 0 1
    outer loop
      vertex 8.625 -2.625 2
      vertex 11 -4.5 2
      vertex 8.625 2.625 2
    endloop
  endfacet
  facet normal 0 0 1
    outer loop
      vertex 2 -5 2
      vertex 11 -4.5 2
      vertex 8.625 -2.625 2
    endloop
  endfacet
  facet normal 0 0 1
    outer loop
      vertex 2 -5 2
      vertex 8.625 -2.625 2
      vertex 3.375 -2.625 2
    endloop
  endfacet
  facet normal -0 0 1
    outer loop
      vertex 1.375 3.375 2
      vertex 3.375 2.625 2
      vertex 2 3.375 2
    endloop
  endfacet
  facet normal 0 0 1
    outer loop
      vertex 3.375 2.625 2
      vertex 1.375 3.375 2
      vertex 3.375 -2.625 2
    endloop
  endfacet
  facet normal 0 0 1
    outer loop
      vertex 2 -5 2
      vertex 3.375 -2.625 2
      vertex 2 -3.375 2
    endloop
  endfacet
  facet normal 0 0 1
    outer loop
      vertex 11 -4.5 2
      vertex 2 -5 2
      vertex 11.5 -5 2
    endloop
  endfacet
  facet normal 0 0 1
    outer loop
      vertex 8 11 2
      vertex -2 7.125 2
      vertex 2 7.125 2
    endloop
  endfacet
  facet normal -0 0 1
    outer loop
      vertex -8 11 2
      vertex -2 7.125 2
      vertex 8 11 2
    endloop
  endfacet
  facet normal 0 0 1
    outer loop
      vertex -8 11 2
      vertex -2 7 2
      vertex -2 7.125 2
    endloop
  endfacet
  facet normal 0 0 1
    outer loop
      vertex -8 11 2
      vertex -11 7 2
      vertex -2 7 2
    endloop
  endfacet
  facet normal 0 0 1
    outer loop
      vertex -11 7 2
      vertex -8 11 2
      vertex -11 26 2
    endloop
  endfacet
  facet normal 0 0 1
    outer loop
      vertex 8 11 2
      vertex 11 26 2
      vertex 8 23 2
    endloop
  endfacet
  facet normal 0 0 1
    outer loop
      vertex 11 26 2
      vertex -8 23 2
      vertex 8 23 2
    endloop
  endfacet
  facet normal 0 0 1
    outer loop
      vertex -8 23 2
      vertex -11 26 2
      vertex -8 11 2
    endloop
  endfacet
  facet normal -0 0 1
    outer loop
      vertex -11 26 2
      vertex -8 23 2
      vertex 11 26 2
    endloop
  endfacet
  facet normal 0 0 1
    outer loop
      vertex 11 26 2
      vertex 8 11 2
      vertex 11 7 2
    endloop
  endfacet
  facet normal 0 0 1
    outer loop
      vertex 2 7 2
      vertex 8 11 2
      vertex 2 7.125 2
    endloop
  endfacet
  facet normal 0 0 1
    outer loop
      vertex 8 11 2
      vertex 2 7 2
      vertex 11 7 2
    endloop
  endfacet
  facet normal -0 0 1
    outer loop
      vertex 20 -5.5 2
      vertex 21 -7 2
      vertex 21 -4.5 2
    endloop
  endfacet
  facet normal 0 0 1
    outer loop
      vertex 12 -7 2
      vertex 20 -5.5 2
      vertex 12 -5.5 2
    endloop
  endfacet
  facet normal 0 0 1
    outer loop
      vertex 20 -5.5 2
      vertex 12 -7 2
      vertex 21 -7 2
    endloop
  endfacet
  facet normal 0 0 1
    outer loop
      vertex 21 7 2
      vertex 20 5.5 2
      vertex 21 4.5 2
    endloop
  endfacet
  facet normal -0 0 1
    outer loop
      vertex 12 7 2
      vertex 20 5.5 2
      vertex 21 7 2
    endloop
  endfacet
  facet normal 0 0 1
    outer loop
      vertex 20 5.5 2
      vertex 12 7 2
      vertex 12 5.5 2
    endloop
  endfacet
  facet normal 0 0 -1
    outer loop
      vertex 12 8 0
      vertex 22 -7 0
      vertex 21 -8 0
    endloop
  endfacet
  facet normal 0 0 -1
    outer loop
      vertex 22 -7 0
      vertex 12 8 0
      vertex 22 7 0
    endloop
  endfacet
  facet normal 0 0 -1
    outer loop
      vertex 22 7 0
      vertex 12 8 0
      vertex 21 8 0
    endloop
  endfacet
  facet normal 0 0 -1
    outer loop
      vertex 8 23 0
      vertex 12 8 0
      vertex 8 11 0
    endloop
  endfacet
  facet normal 0 0 -1
    outer loop
      vertex -13 -8 0
      vertex 12 8 0
      vertex 21 -8 0
    endloop
  endfacet
  facet normal -0 0 -1
    outer loop
      vertex 12 8 0
      vertex -13 -8 0
      vertex 8 11 0
    endloop
  endfacet
  facet normal -0 0 -1
    outer loop
      vertex -8 11 0
      vertex -12 8 0
      vertex -8 23 0
    endloop
  endfacet
  facet normal -0 0 -1
    outer loop
      vertex 8 11 0
      vertex -13 -8 0
      vertex -8 11 0
    endloop
  endfacet
  facet normal 0 0 -1
    outer loop
      vertex -8 11 0
      vertex -13 -8 0
      vertex -12 8 0
    endloop
  endfacet
  facet normal 0 0 -1
    outer loop
      vertex -14 -7 0
      vertex -12 8 0
      vertex -13 -8 0
    endloop
  endfacet
  facet normal 0 0 -1
    outer loop
      vertex -14 7 0
      vertex -12 8 0
      vertex -14 -7 0
    endloop
  endfacet
  facet normal -0 0 -1
    outer loop
      vertex -12 8 0
      vertex -14 7 0
      vertex -13 8 0
    endloop
  endfacet
  facet normal 0 0 -1
    outer loop
      vertex 12 8 0
      vertex 8 23 0
      vertex 12 27 0
    endloop
  endfacet
  facet normal 0 0 -1
    outer loop
      vertex -8 23 0
      vertex 12 27 0
      vertex 8 23 0
    endloop
  endfacet
  facet normal 0 0 -1
    outer loop
      vertex -8 23 0
      vertex -12 27 0
      vertex 12 27 0
    endloop
  endfacet
  facet normal 0 0 -1
    outer loop
      vertex -12 27 0
      vertex -8 23 0
      vertex -12 8 0
    endloop
  endfacet
  facet normal 0 0 0
    outer loop
      vertex -14 7 0
      vertex -14 7 1
      vertex -14 7 0.999999
    endloop
  endfacet
  facet normal -1 0 0
    outer loop
      vertex -14 7 0
      vertex -14 -7 1
      vertex -14 7 1
    endloop
  endfacet
  facet normal -1 0 0
    outer loop
      vertex -14 -7 0
      vertex -14 -7 1
      vertex -14 7 0
    endloop
  endfacet
  facet normal 0 0 0
    outer loop
      vertex -14 -7 1
      vertex -14 -7 0
      vertex -14 -7 0.999999
    endloop
  endfacet
  facet normal 0 1 0
    outer loop
      vertex -12 8 1
      vertex -13 8 0.999999
      vertex -13 8 1
    endloop
  endfacet
  facet normal 0 1 -0
    outer loop
      vertex -12 8 0
      vertex -13 8 0.999999
      vertex -12 8 1
    endloop
  endfacet
  facet normal 0 1 0
    outer loop
      vertex -13 8 0.999999
      vertex -12 8 0
      vertex -13 8 0
    endloop
  endfacet
  facet normal 0 0 0
    outer loop
      vertex 21 8 0
      vertex 21 8 1
      vertex 21 8 0.999999
    endloop
  endfacet
  facet normal 0 1 0
    outer loop
      vertex 21 8 1
      vertex 21 8 0
      vertex 12 8 1
    endloop
  endfacet
  facet normal 0 1 0
    outer loop
      vertex 12 8 1
      vertex 21 8 0
      vertex 12 8 0
    endloop
  endfacet
  facet normal 0 0 0
    outer loop
      vertex -13 -8 0
      vertex -13 -8 1
      vertex -13 -8 0.999999
    endloop
  endfacet
  facet normal 0 -1 0
    outer loop
      vertex -13 -8 1
      vertex -13 -8 0
      vertex 21 -8 1
    endloop
  endfacet
  facet normal 0 -1 0
    outer loop
      vertex 21 -8 0
      vertex 21 -8 1
      vertex -13 -8 0
    endloop
  endfacet
  facet normal 0 0 0
    outer loop
      vertex 21 -8 1
      vertex 21 -8 0
      vertex 21 -8 0.999999
    endloop
  endfacet
  facet normal 0 0.707107 0.707107
    outer loop
      vertex 12 27 1
      vertex -11 26 2
      vertex 11 26 2
    endloop
  endfacet
  facet normal 0 0.707107 0.707107
    outer loop
      vertex -11 26 2
      vertex 12 27 1
      vertex -12 27 1
    endloop
  endfacet
  facet normal 0.707107 0 0.707107
    outer loop
      vertex 11 26 2
      vertex 12 8 1
      vertex 12 27 1
    endloop
  endfacet
  facet normal 0.707107 0 0.707107
    outer loop
      vertex 12 8 1
      vertex 11 26 2
      vertex 11 7 2
    endloop
  endfacet
  facet normal -0.707107 0 0.707107
    outer loop
      vertex -12 8 1
      vertex -11 26 2
      vertex -12 27 1
    endloop
  endfacet
  facet normal -0.707107 0 0.707107
    outer loop
      vertex -11 26 2
      vertex -12 8 1
      vertex -11 7 2
    endloop
  endfacet
  facet normal 1 -0 0
    outer loop
      vertex 12 8 1
      vertex 12 27 0
      vertex 12 27 1
    endloop
  endfacet
  facet normal 1 0 0
    outer loop
      vertex 12 27 0
      vertex 12 8 1
      vertex 12 8 0
    endloop
  endfacet
  facet normal -1 0 0
    outer loop
      vertex -12 8 0
      vertex -12 27 1
      vertex -12 27 0
    endloop
  endfacet
  facet normal -1 -0 0
    outer loop
      vertex -12 27 1
      vertex -12 8 0
      vertex -12 8 1
    endloop
  endfacet
  facet normal 0 1 -0
    outer loop
      vertex 12 27 0
      vertex -12 27 1
      vertex 12 27 1
    endloop
  endfacet
  facet normal 0 1 0
    outer loop
      vertex -12 27 1
      vertex 12 27 0
      vertex -12 27 0
    endloop
  endfacet
  facet normal -1 0 0
    outer loop
      vertex 8 11 0
      vertex 8 23 2
      vertex 8 23 0
    endloop
  endfacet
  facet normal -1 -0 0
    outer loop
      vertex 8 23 2
      vertex 8 11 0
      vertex 8 11 2
    endloop
  endfacet
  facet normal 1 -0 0
    outer loop
      vertex -8 11 2
      vertex -8 23 0
      vertex -8 23 2
    endloop
  endfacet
  facet normal 1 0 0
    outer loop
      vertex -8 23 0
      vertex -8 11 2
      vertex -8 11 0
    endloop
  endfacet
  facet normal 0 -1 0
    outer loop
      vertex -8 23 0
      vertex 8 23 2
      vertex -8 23 2
    endloop
  endfacet
  facet normal 0 -1 -0
    outer loop
      vertex 8 23 2
      vertex -8 23 0
      vertex 8 23 0
    endloop
  endfacet
  facet normal 0 1 -0
    outer loop
      vertex 8 11 0
      vertex -8 11 2
      vertex 8 11 2
    endloop
  endfacet
  facet normal 0 1 0
    outer loop
      vertex -8 11 2
      vertex 8 11 0
      vertex -8 11 0
    endloop
  endfacet
  facet normal -1 0 0
    outer loop
      vertex 8.625 -2.625 1
      vertex 8.625 2.625 2
      vertex 8.625 2.625 1
    endloop
  endfacet
  facet normal -1 -0 0
    outer loop
      vertex 8.625 2.625 2
      vertex 8.625 -2.625 1
      vertex 8.625 -2.625 2
    endloop
  endfacet
  facet normal -0 0 1
    outer loop
      vertex 3.375 2.625 1
      vertex 8.625 -2.625 1
      vertex 8.625 2.625 1
    endloop
  endfacet
  facet normal 0 0 1
    outer loop
      vertex 8.625 -2.625 1
      vertex 3.375 2.625 1
      vertex 3.375 -2.625 1
    endloop
  endfacet
  facet normal 1 -0 0
    outer loop
      vertex 3.375 -2.625 2
      vertex 3.375 2.625 1
      vertex 3.375 2.625 2
    endloop
  endfacet
  facet normal 1 0 0
    outer loop
      vertex 3.375 2.625 1
      vertex 3.375 -2.625 2
      vertex 3.375 -2.625 1
    endloop
  endfacet
  facet normal 0 -1 0
    outer loop
      vertex 3.375 2.625 1
      vertex 8.625 2.625 2
      vertex 3.375 2.625 2
    endloop
  endfacet
  facet normal 0 -1 -0
    outer loop
      vertex 8.625 2.625 2
      vertex 3.375 2.625 1
      vertex 8.625 2.625 1
    endloop
  endfacet
  facet normal 0 1 -0
    outer loop
      vertex 8.625 -2.625 1
      vertex 3.375 -2.625 2
      vertex 8.625 -2.625 2
    endloop
  endfacet
  facet normal 0 1 0
    outer loop
      vertex 3.375 -2.625 2
      vertex 8.625 -2.625 1
      vertex 3.375 -2.625 1
    endloop
  endfacet
  facet normal -1 0 0
    outer loop
      vertex -3.375 -2.625 1
      vertex -3.375 2.625 2
      vertex -3.375 2.625 1
    endloop
  endfacet
  facet normal -1 -0 0
    outer loop
      vertex -3.375 2.625 2
      vertex -3.375 -2.625 1
      vertex -3.375 -2.625 2
    endloop
  endfacet
  facet normal -0 0 1
    outer loop
      vertex -8.625 2.625 1
      vertex -3.375 -2.625 1
      vertex -3.375 2.625 1
    endloop
  endfacet
  facet normal 0 0 1
    outer loop
      vertex -3.375 -2.625 1
      vertex -8.625 2.625 1
      vertex -8.625 -2.625 1
    endloop
  endfacet
  facet normal 1 -0 0
    outer loop
      vertex -8.625 -2.625 2
      vertex -8.625 2.625 1
      vertex -8.625 2.625 2
    endloop
  endfacet
  facet normal 1 0 0
    outer loop
      vertex -8.625 2.625 1
      vertex -8.625 -2.625 2
      vertex -8.625 -2.625 1
    endloop
  endfacet
  facet normal 0 -1 0
    outer loop
      vertex -8.625 2.625 1
      vertex -3.375 2.625 2
      vertex -8.625 2.625 2
    endloop
  endfacet
  facet normal 0 -1 -0
    outer loop
      vertex -3.375 2.625 2
      vertex -8.625 2.625 1
      vertex -3.375 2.625 1
    endloop
  endfacet
  facet normal 0 1 -0
    outer loop
      vertex -3.375 -2.625 1
      vertex -8.625 -2.625 2
      vertex -3.375 -2.625 2
    endloop
  endfacet
  facet normal 0 1 0
    outer loop
      vertex -8.625 -2.625 2
      vertex -3.375 -2.625 1
      vertex -8.625 -2.625 1
    endloop
  endfacet
  facet normal 1 0 0
    outer loop
      vertex 2 7.125 5.5
      vertex 2 7 4.5
      vertex 2 7.125 2
    endloop
  endfacet
  facet normal 1 0 0
    outer loop
      vertex 2 7.125 5.5
      vertex 2 5 4.5
      vertex 2 7 4.5
    endloop
  endfacet
  facet normal 1 -0 0
    outer loop
      vertex 2 3.375 5.5
      vertex 2 5 4.5
      vertex 2 7.125 5.5
    endloop
  endfacet
  facet normal 1 0 0
    outer loop
      vertex 2 3.375 2
      vertex 2 5 4.5
      vertex 2 3.375 5.5
    endloop
  endfacet
  facet normal 1 0 0
    outer loop
      vertex 2 5 4.5
      vertex 2 3.375 2
      vertex 2 5 2
    endloop
  endfacet
  facet normal 1 0 0
    outer loop
      vertex 2 7.125 2
      vertex 2 7 4.5
      vertex 2 7 2
    endloop
  endfacet
  facet normal 0 0 1
    outer loop
      vertex 2 7.125 5.5
      vertex 1.375 5 5.5
      vertex 2 3.375 5.5
    endloop
  endfacet
  facet normal 0 0 1
    outer loop
      vertex 2 7.125 5.5
      vertex -1.375 5 5.5
      vertex 1.375 5 5.5
    endloop
  endfacet
  facet normal -0 0 1
    outer loop
      vertex -2 7.125 5.5
      vertex -1.375 5 5.5
      vertex 2 7.125 5.5
    endloop
  endfacet
  facet normal 0 0 1
    outer loop
      vertex -2 3.375 5.5
      vertex -1.375 5 5.5
      vertex -2 7.125 5.5
    endloop
  endfacet
  facet normal 0 0 1
    outer loop
      vertex -1.375 5 5.5
      vertex -2 3.375 5.5
      vertex -1.375 3.375 5.5
    endloop
  endfacet
  facet normal 0 0 1
    outer loop
      vertex 2 3.375 5.5
      vertex 1.375 5 5.5
      vertex 1.375 3.375 5.5
    endloop
  endfacet
  facet normal -1 0 0
    outer loop
      vertex -2 5 2
      vertex -2 3.375 2
      vertex -2 5 4.5
    endloop
  endfacet
  facet normal -1 0 0
    outer loop
      vertex -2 7 4.5
      vertex -2 7.125 2
      vertex -2 7 2
    endloop
  endfacet
  facet normal -1 0 0
    outer loop
      vertex -2 7.125 2
      vertex -2 7 4.5
      vertex -2 7.125 5.5
    endloop
  endfacet
  facet normal -1 0 0
    outer loop
      vertex -2 5 4.5
      vertex -2 7.125 5.5
      vertex -2 7 4.5
    endloop
  endfacet
  facet normal -1 0 0
    outer loop
      vertex -2 5 4.5
      vertex -2 3.375 5.5
      vertex -2 7.125 5.5
    endloop
  endfacet
  facet normal -1 0 0
    outer loop
      vertex -2 3.375 5.5
      vertex -2 5 4.5
      vertex -2 3.375 2
    endloop
  endfacet
  facet normal 0 1 -0
    outer loop
      vertex 2 7.125 2
      vertex -2 7.125 5.5
      vertex 2 7.125 5.5
    endloop
  endfacet
  facet normal 0 1 0
    outer loop
      vertex -2 7.125 5.5
      vertex 2 7.125 2
      vertex -2 7.125 2
    endloop
  endfacet
  facet normal 0 -1 0
    outer loop
      vertex -2 3.375 2
      vertex -1.375 3.375 5.5
      vertex -2 3.375 5.5
    endloop
  endfacet
  facet normal 0 -1 -0
    outer loop
      vertex -1.375 3.375 5.5
      vertex -2 3.375 2
      vertex -1.375 3.375 2
    endloop
  endfacet
  facet normal 0 -1 0
    outer loop
      vertex 1.375 3.375 2
      vertex 2 3.375 5.5
      vertex 1.375 3.375 5.5
    endloop
  endfacet
  facet normal 0 -1 -0
    outer loop
      vertex 2 3.375 5.5
      vertex 1.375 3.375 2
      vertex 2 3.375 2
    endloop
  endfacet
  facet normal 1 0 0
    outer loop
      vertex 2 -3.375 5.5
      vertex 2 -5 4.5
      vertex 2 -3.375 2
    endloop
  endfacet
  facet normal 1 -0 0
    outer loop
      vertex 2 -7.125 5.5
      vertex 2 -5 4.5
      vertex 2 -3.375 5.5
    endloop
  endfacet
  facet normal 1 0 0
    outer loop
      vertex 2 -5 4.5
      vertex 2 -7.125 5.5
      vertex 2 -7 4.5
    endloop
  endfacet
  facet normal 1 0 0
    outer loop
      vertex 2 -7.125 1.875
      vertex 2 -7 4.5
      vertex 2 -7.125 5.5
    endloop
  endfacet
  facet normal 1 0 0
    outer loop
      vertex 2 -7 4.5
      vertex 2 -7.125 1.875
      vertex 2 -7 2
    endloop
  endfacet
  facet normal 1 0 0
    outer loop
      vertex 2 -3.375 2
      vertex 2 -5 4.5
      vertex 2 -5 2
    endloop
  endfacet
  facet normal 0 0 1
    outer loop
      vertex -1.375 -3.375 5.5
      vertex -2 -3.375 5.5
      vertex -1.375 -5 5.5
    endloop
  endfacet
  facet normal 0 0 1
    outer loop
      vertex 1.375 -5 5.5
      vertex 2 -3.375 5.5
      vertex 1.375 -3.375 5.5
    endloop
  endfacet
  facet normal 0 0 1
    outer loop
      vertex 2 -3.375 5.5
      vertex 1.375 -5 5.5
      vertex 2 -7.125 5.5
    endloop
  endfacet
  facet normal -0 0 1
    outer loop
      vertex -1.375 -5 5.5
      vertex 2 -7.125 5.5
      vertex 1.375 -5 5.5
    endloop
  endfacet
  facet normal 0 0 1
    outer loop
      vertex -1.375 -5 5.5
      vertex -2 -7.125 5.5
      vertex 2 -7.125 5.5
    endloop
  endfacet
  facet normal 0 0 1
    outer loop
      vertex -2 -7.125 5.5
      vertex -1.375 -5 5.5
      vertex -2 -3.375 5.5
    endloop
  endfacet
  facet normal -1 -0 0
    outer loop
      vertex -2 -7 2
      vertex -2 -7.125 1.875
      vertex -2 -7 4.5
    endloop
  endfacet
  facet normal -1 0 0
    outer loop
      vertex -2 -5 4.5
      vertex -2 -3.375 2
      vertex -2 -5 2
    endloop
  endfacet
  facet normal -1 0 0
    outer loop
      vertex -2 -3.375 2
      vertex -2 -5 4.5
      vertex -2 -3.375 5.5
    endloop
  endfacet
  facet normal -1 0 0
    outer loop
      vertex -2 -7.125 5.5
      vertex -2 -5 4.5
      vertex -2 -7 4.5
    endloop
  endfacet
  facet normal -1 0 0
    outer loop
      vertex -2 -5 4.5
      vertex -2 -7.125 5.5
      vertex -2 -3.375 5.5
    endloop
  endfacet
  facet normal -1 0 0
    outer loop
      vertex -2 -7.125 5.5
      vertex -2 -7 4.5
      vertex -2 -7.125 1.875
    endloop
  endfacet
  facet normal 0 1 -0
    outer loop
      vertex -1.375 -3.375 2
      vertex -2 -3.375 5.5
      vertex -1.375 -3.375 5.5
    endloop
  endfacet
  facet normal 0 1 0
    outer loop
      vertex -2 -3.375 5.5
      vertex -1.375 -3.375 2
      vertex -2 -3.375 2
    endloop
  endfacet
  facet normal 0 1 -0
    outer loop
      vertex 2 -3.375 2
      vertex 1.375 -3.375 5.5
      vertex 2 -3.375 5.5
    endloop
  endfacet
  facet normal 0 1 0
    outer loop
      vertex 1.375 -3.375 5.5
      vertex 2 -3.375 2
      vertex 1.375 -3.375 2
    endloop
  endfacet
  facet normal 0 -1 0
    outer loop
      vertex -2 -7.125 1.875
      vertex 2 -7.125 5.5
      vertex -2 -7.125 5.5
    endloop
  endfacet
  facet normal 0 -1 -0
    outer loop
      vertex 2 -7.125 5.5
      vertex -2 -7.125 1.875
      vertex 2 -7.125 1.875
    endloop
  endfacet
  facet normal -1 0 0
    outer loop
      vertex 1.375 3.375 2
      vertex 1.375 5 4.5
      vertex 1.375 5 2
    endloop
  endfacet
  facet normal -1 0 0
    outer loop
      vertex 1.375 3.375 5.5
      vertex 1.375 5 4.5
      vertex 1.375 3.375 2
    endloop
  endfacet
  facet normal -1 0 0
    outer loop
      vertex 1.375 5 4.5
      vertex 1.375 3.375 5.5
      vertex 1.375 5 5.5
    endloop
  endfacet
  facet normal -1 0 0
    outer loop
      vertex 1.375 -5 4.5
      vertex 1.375 -3.375 2
      vertex 1.375 -5 2
    endloop
  endfacet
  facet normal -1 0 0
    outer loop
      vertex 1.375 -3.375 2
      vertex 1.375 -5 4.5
      vertex 1.375 -3.375 5.5
    endloop
  endfacet
  facet normal -1 -0 0
    outer loop
      vertex 1.375 -3.375 5.5
      vertex 1.375 -5 4.5
      vertex 1.375 -5 5.5
    endloop
  endfacet
  facet normal 1 -0 0
    outer loop
      vertex -1.375 3.375 5.5
      vertex -1.375 5 4.5
      vertex -1.375 5 5.5
    endloop
  endfacet
  facet normal 1 0 0
    outer loop
      vertex -1.375 3.375 2
      vertex -1.375 5 4.5
      vertex -1.375 3.375 5.5
    endloop
  endfacet
  facet normal 1 0 0
    outer loop
      vertex -1.375 5 4.5
      vertex -1.375 3.375 2
      vertex -1.375 5 2
    endloop
  endfacet
  facet normal 1 0 0
    outer loop
      vertex -1.375 -5 4.5
      vertex -1.375 -3.375 5.5
      vertex -1.375 -5 5.5
    endloop
  endfacet
  facet normal 1 0 0
    outer loop
      vertex -1.375 -3.375 5.5
      vertex -1.375 -5 4.5
      vertex -1.375 -3.375 2
    endloop
  endfacet
  facet normal 1 0 0
    outer loop
      vertex -1.375 -3.375 2
      vertex -1.375 -5 4.5
      vertex -1.375 -5 2
    endloop
  endfacet
  facet normal 0 -1 0
    outer loop
      vertex -11 5 2
      vertex -2 5 4.5
      vertex -11 5 4.5
    endloop
  endfacet
  facet normal 0 -1 -0
    outer loop
      vertex -2 5 4.5
      vertex -11 5 2
      vertex -2 5 2
    endloop
  endfacet
  facet normal 0 -1 0
    outer loop
      vertex -1.375 5 4.5
      vertex 1.375 5 5.5
      vertex -1.375 5 5.5
    endloop
  endfacet
  facet normal 0 -1 -0
    outer loop
      vertex 1.375 5 5.5
      vertex -1.375 5 4.5
      vertex 1.375 5 4.5
    endloop
  endfacet
  facet normal 0 -1 0
    outer loop
      vertex -1.375 5 2
      vertex 1.375 5 4.5
      vertex -1.375 5 4.5
    endloop
  endfacet
  facet normal 0 -1 -0
    outer loop
      vertex 1.375 5 4.5
      vertex -1.375 5 2
      vertex 1.375 5 2
    endloop
  endfacet
  facet normal 0 -1 0
    outer loop
      vertex 2 5 2
      vertex 11.5 5 4.5
      vertex 2 5 4.5
    endloop
  endfacet
  facet normal 0 -1 -0
    outer loop
      vertex 11.5 5 4.5
      vertex 2 5 2
      vertex 11.5 5 2
    endloop
  endfacet
  facet normal 0 1 -0
    outer loop
      vertex -2 -5 2
      vertex -11 -5 4.5
      vertex -2 -5 4.5
    endloop
  endfacet
  facet normal 0 1 0
    outer loop
      vertex -11 -5 4.5
      vertex -2 -5 2
      vertex -11 -5 2
    endloop
  endfacet
  facet normal 0 1 -0
    outer loop
      vertex 1.375 -5 4.5
      vertex -1.375 -5 5.5
      vertex 1.375 -5 5.5
    endloop
  endfacet
  facet normal 0 1 0
    outer loop
      vertex -1.375 -5 5.5
      vertex 1.375 -5 4.5
      vertex -1.375 -5 4.5
    endloop
  endfacet
  facet normal 0 1 -0
    outer loop
      vertex 1.375 -5 2
      vertex -1.375 -5 4.5
      vertex 1.375 -5 4.5
    endloop
  endfacet
  facet normal 0 1 0
    outer loop
      vertex -1.375 -5 4.5
      vertex 1.375 -5 2
      vertex -1.375 -5 2
    endloop
  endfacet
  facet normal 0 1 -0
    outer loop
      vertex 11.5 -5 2
      vertex 2 -5 4.5
      vertex 11.5 -5 4.5
    endloop
  endfacet
  facet normal 0 1 0
    outer loop
      vertex 2 -5 4.5
      vertex 11.5 -5 2
      vertex 2 -5 2
    endloop
  endfacet
  facet normal 0.707107 0.707107 0
    outer loop
      vertex 21 4.5 5.5
      vertex 20 5.5 2
      vertex 20 5.5 5.5
    endloop
  endfacet
  facet normal 0.707107 0.707107 0
    outer loop
      vertex 20 5.5 2
      vertex 21 4.5 5.5
      vertex 21 4.5 2
    endloop
  endfacet
  facet normal -0.707107 0.707107 0
    outer loop
      vertex 11.5 5 2
      vertex 11 4.5 2
      vertex 11.5 5 4.5
    endloop
  endfacet
  facet normal -0.707107 0.707107 0
    outer loop
      vertex 11.5 5 4.5
      vertex 12 5.5 5.5
      vertex 12 5.5 4.5
    endloop
  endfacet
  facet normal -0.707107 0.707107 0
    outer loop
      vertex 11.5 5 4.5
      vertex 11 4.5 5.5
      vertex 12 5.5 5.5
    endloop
  endfacet
  facet normal -0.707107 0.707107 0
    outer loop
      vertex 11 4.5 5.5
      vertex 11.5 5 4.5
      vertex 11 4.5 2
    endloop
  endfacet
  facet normal -0.707107 -0.707107 -0
    outer loop
      vertex 11.5 -5 4.5
      vertex 11 -4.5 2
      vertex 11.5 -5 2
    endloop
  endfacet
  facet normal -0.707107 -0.707107 0
    outer loop
      vertex 11 -4.5 2
      vertex 11.5 -5 4.5
      vertex 11 -4.5 5.5
    endloop
  endfacet
  facet normal -0.707107 -0.707107 -0
    outer loop
      vertex 12 -5.5 5.5
      vertex 11.5 -5 4.5
      vertex 12 -5.5 4.5
    endloop
  endfacet
  facet normal -0.707107 -0.707107 0
    outer loop
      vertex 11.5 -5 4.5
      vertex 12 -5.5 5.5
      vertex 11 -4.5 5.5
    endloop
  endfacet
  facet normal 0.707107 -0.707107 0
    outer loop
      vertex 20 -5.5 5.5
      vertex 21 -4.5 2
      vertex 21 -4.5 5.5
    endloop
  endfacet
  facet normal 0.707107 -0.707107 0
    outer loop
      vertex 21 -4.5 2
      vertex 20 -5.5 5.5
      vertex 20 -5.5 2
    endloop
  endfacet
  facet normal 1 0 0
    outer loop
      vertex 21 -2.75 5.5
      vertex 21 -4.5 5.5
      vertex 21 -2.75 4.25
    endloop
  endfacet
  facet normal 1 0 0
    outer loop
      vertex 21 -0.75 5.5
      vertex 21 -1.25 5.5
      vertex 21 -0.75 4.25
    endloop
  endfacet
  facet normal 1 0 0
    outer loop
      vertex 21 1.25 5.5
      vertex 21 0.75 5.5
      vertex 21 1.25 4.25
    endloop
  endfacet
  facet normal 1 0 0
    outer loop
      vertex 21 2.75 4.25
      vertex 21 4.5 5.5
      vertex 21 2.75 5.5
    endloop
  endfacet
  facet normal 1 0 0
    outer loop
      vertex 21 4.5 5.5
      vertex 21 2.75 4.25
      vertex 21 4.5 2
    endloop
  endfacet
  facet normal 1 0 0
    outer loop
      vertex 21 2.69733 4.22391
      vertex 21 2.75 4.25
      vertex 21 2.70581 4.25
    endloop
  endfacet
  facet normal 1 0 0
    outer loop
      vertex 21 2.65723 4.13868
      vertex 21 2.75 4.25
      vertex 21 2.69733 4.22391
    endloop
  endfacet
  facet normal 1 0 0
    outer loop
      vertex 21 2.60676 4.05916
      vertex 21 2.75 4.25
      vertex 21 2.65723 4.13868
    endloop
  endfacet
  facet normal 1 0 0
    outer loop
      vertex 21 2.75 4.25
      vertex 21 2.60676 4.05916
      vertex 21 4.5 2
    endloop
  endfacet
  facet normal 1 -0 0
    outer loop
      vertex 21 2.54673 3.98659
      vertex 21 4.5 2
      vertex 21 2.60676 4.05916
    endloop
  endfacet
  facet normal 1 -0 0
    outer loop
      vertex 21 2.47807 3.92211
      vertex 21 4.5 2
      vertex 21 2.54673 3.98659
    endloop
  endfacet
  facet normal 1 -0 0
    outer loop
      vertex 21 2.40187 3.86675
      vertex 21 4.5 2
      vertex 21 2.47807 3.92211
    endloop
  endfacet
  facet normal 1 -0 0
    outer loop
      vertex 21 2.31933 3.82138
      vertex 21 4.5 2
      vertex 21 2.40187 3.86675
    endloop
  endfacet
  facet normal 1 -0 0
    outer loop
      vertex 21 2.23176 3.78671
      vertex 21 4.5 2
      vertex 21 2.31933 3.82138
    endloop
  endfacet
  facet normal 1 -0 0
    outer loop
      vertex 21 2.14054 3.76328
      vertex 21 4.5 2
      vertex 21 2.23176 3.78671
    endloop
  endfacet
  facet normal 1 -0 0
    outer loop
      vertex 21 2.04709 3.75148
      vertex 21 4.5 2
      vertex 21 2.14054 3.76328
    endloop
  endfacet
  facet normal 1 -0 0
    outer loop
      vertex 21 1.95291 3.75148
      vertex 21 4.5 2
      vertex 21 2.04709 3.75148
    endloop
  endfacet
  facet normal 1 0 0
    outer loop
      vertex 21 1.85946 3.76328
      vertex 21 4.5 2
      vertex 21 1.95291 3.75148
    endloop
  endfacet
  facet normal 1 0 0
    outer loop
      vertex 21 0.140535 3.76328
      vertex 21 1.85946 3.76328
      vertex 21 1.76824 3.78671
    endloop
  endfacet
  facet normal 1 0 0
    outer loop
      vertex 21 0.231762 3.78671
      vertex 21 1.76824 3.78671
      vertex 21 1.68067 3.82138
    endloop
  endfacet
  facet normal 1 0 0
    outer loop
      vertex 21 0.319334 3.82138
      vertex 21 1.68067 3.82138
      vertex 21 1.59813 3.86675
    endloop
  endfacet
  facet normal 1 -0 0
    outer loop
      vertex 21 1.25 4.25
      vertex 21 1.30267 4.22391
      vertex 21 1.29419 4.25
    endloop
  endfacet
  facet normal 1 0 0
    outer loop
      vertex 21 1.25 4.25
      vertex 21 1.34277 4.13868
      vertex 21 1.30267 4.22391
    endloop
  endfacet
  facet normal 1 0 0
    outer loop
      vertex 21 0.657229 4.13868
      vertex 21 1.34277 4.13868
      vertex 21 1.25 4.25
    endloop
  endfacet
  facet normal 1 0 0
    outer loop
      vertex 21 0.75 4.25
      vertex 21 1.25 4.25
      vertex 21 0.75 5.5
    endloop
  endfacet
  facet normal 1 0 0
    outer loop
      vertex 21 0.657229 4.13868
      vertex 21 1.25 4.25
      vertex 21 0.75 4.25
    endloop
  endfacet
  facet normal 1 0 0
    outer loop
      vertex 21 1.34277 4.13868
      vertex 21 0.657229 4.13868
      vertex 21 1.39324 4.05916
    endloop
  endfacet
  facet normal 1 0 0
    outer loop
      vertex 21 0.606762 4.05916
      vertex 21 1.39324 4.05916
      vertex 21 0.657229 4.13868
    endloop
  endfacet
  facet normal 1 0 0
    outer loop
      vertex 21 1.39324 4.05916
      vertex 21 0.606762 4.05916
      vertex 21 1.45327 3.98659
    endloop
  endfacet
  facet normal 1 0 0
    outer loop
      vertex 21 0.546726 3.98659
      vertex 21 1.45327 3.98659
      vertex 21 0.606762 4.05916
    endloop
  endfacet
  facet normal 1 0 0
    outer loop
      vertex 21 0.697331 4.22391
      vertex 21 0.75 4.25
      vertex 21 0.70581 4.25
    endloop
  endfacet
  facet normal 1 0 0
    outer loop
      vertex 21 0.657229 4.13868
      vertex 21 0.75 4.25
      vertex 21 0.697331 4.22391
    endloop
  endfacet
  facet normal 1 0 0
    outer loop
      vertex 21 1.45327 3.98659
      vertex 21 0.546726 3.98659
      vertex 21 1.52193 3.92211
    endloop
  endfacet
  facet normal 1 0 0
    outer loop
      vertex 21 0.478067 3.92211
      vertex 21 1.52193 3.92211
      vertex 21 0.546726 3.98659
    endloop
  endfacet
  facet normal 1 0 0
    outer loop
      vertex 21 1.52193 3.92211
      vertex 21 0.478067 3.92211
      vertex 21 1.59813 3.86675
    endloop
  endfacet
  facet normal 1 0 0
    outer loop
      vertex 21 0.40187 3.86675
      vertex 21 1.59813 3.86675
      vertex 21 0.478067 3.92211
    endloop
  endfacet
  facet normal 1 0 0
    outer loop
      vertex 21 0.319334 3.82138
      vertex 21 1.59813 3.86675
      vertex 21 0.40187 3.86675
    endloop
  endfacet
  facet normal 1 0 0
    outer loop
      vertex 21 1.68067 3.82138
      vertex 21 0.319334 3.82138
      vertex 21 0.231762 3.78671
    endloop
  endfacet
  facet normal 1 0 0
    outer loop
      vertex 21 1.76824 3.78671
      vertex 21 0.231762 3.78671
      vertex 21 0.140535 3.76328
    endloop
  endfacet
  facet normal 1 0 0
    outer loop
      vertex 21 1.85946 3.76328
      vertex 21 0.140535 3.76328
      vertex 21 4.5 2
    endloop
  endfacet
  facet normal 1 -0 0
    outer loop
      vertex 21 0.0470924 3.75148
      vertex 21 4.5 2
      vertex 21 0.140535 3.76328
    endloop
  endfacet
  facet normal 1 -0 0
    outer loop
      vertex 21 -0.0470924 3.75148
      vertex 21 4.5 2
      vertex 21 0.0470924 3.75148
    endloop
  endfacet
  facet normal 1 0 0
    outer loop
      vertex 21 -4.5 2
      vertex 21 -0.0470924 3.75148
      vertex 21 -0.140535 3.76328
    endloop
  endfacet
  facet normal 1 0 0
    outer loop
      vertex 21 -1.85946 3.76328
      vertex 21 -0.140535 3.76328
      vertex 21 -0.231762 3.78671
    endloop
  endfacet
  facet normal 1 -0 0
    outer loop
      vertex 21 -0.75 4.25
      vertex 21 -0.697331 4.22391
      vertex 21 -0.70581 4.25
    endloop
  endfacet
  facet normal 1 0 0
    outer loop
      vertex 21 -0.75 4.25
      vertex 21 -0.657229 4.13868
      vertex 21 -0.697331 4.22391
    endloop
  endfacet
  facet normal 1 0 0
    outer loop
      vertex 21 -1.34277 4.13868
      vertex 21 -0.657229 4.13868
      vertex 21 -0.75 4.25
    endloop
  endfacet
  facet normal 1 0 0
    outer loop
      vertex 21 -1.25 4.25
      vertex 21 -0.75 4.25
      vertex 21 -1.25 5.5
    endloop
  endfacet
  facet normal 1 0 0
    outer loop
      vertex 21 -1.34277 4.13868
      vertex 21 -0.75 4.25
      vertex 21 -1.25 4.25
    endloop
  endfacet
  facet normal 1 0 0
    outer loop
      vertex 21 -0.657229 4.13868
      vertex 21 -1.34277 4.13868
      vertex 21 -0.606762 4.05916
    endloop
  endfacet
  facet normal 1 0 0
    outer loop
      vertex 21 -1.39324 4.05916
      vertex 21 -0.606762 4.05916
      vertex 21 -1.34277 4.13868
    endloop
  endfacet
  facet normal 1 0 0
    outer loop
      vertex 21 -0.606762 4.05916
      vertex 21 -1.39324 4.05916
      vertex 21 -0.546726 3.98659
    endloop
  endfacet
  facet normal 1 0 0
    outer loop
      vertex 21 -1.45327 3.98659
      vertex 21 -0.546726 3.98659
      vertex 21 -1.39324 4.05916
    endloop
  endfacet
  facet normal 1 0 0
    outer loop
      vertex 21 -1.30267 4.22391
      vertex 21 -1.25 4.25
      vertex 21 -1.29419 4.25
    endloop
  endfacet
  facet normal 1 0 0
    outer loop
      vertex 21 -1.34277 4.13868
      vertex 21 -1.25 4.25
      vertex 21 -1.30267 4.22391
    endloop
  endfacet
  facet normal 1 0 0
    outer loop
      vertex 21 -0.546726 3.98659
      vertex 21 -1.45327 3.98659
      vertex 21 -0.478067 3.92211
    endloop
  endfacet
  facet normal 1 0 0
    outer loop
      vertex 21 -1.52193 3.92211
      vertex 21 -0.478067 3.92211
      vertex 21 -1.45327 3.98659
    endloop
  endfacet
  facet normal 1 0 0
    outer loop
      vertex 21 -0.478067 3.92211
      vertex 21 -1.52193 3.92211
      vertex 21 -0.40187 3.86675
    endloop
  endfacet
  facet normal 1 0 0
    outer loop
      vertex 21 -1.59813 3.86675
      vertex 21 -0.40187 3.86675
      vertex 21 -1.52193 3.92211
    endloop
  endfacet
  facet normal 1 0 0
    outer loop
      vertex 21 -0.40187 3.86675
      vertex 21 -1.59813 3.86675
      vertex 21 -0.319334 3.82138
    endloop
  endfacet
  facet normal 1 0 0
    outer loop
      vertex 21 -1.68067 3.82138
      vertex 21 -0.319334 3.82138
      vertex 21 -1.59813 3.86675
    endloop
  endfacet
  facet normal 1 0 0
    outer loop
      vertex 21 -0.319334 3.82138
      vertex 21 -1.68067 3.82138
      vertex 21 -0.231762 3.78671
    endloop
  endfacet
  facet normal 1 0 0
    outer loop
      vertex 21 -1.76824 3.78671
      vertex 21 -0.231762 3.78671
      vertex 21 -1.68067 3.82138
    endloop
  endfacet
  facet normal 1 0 0
    outer loop
      vertex 21 -1.85946 3.76328
      vertex 21 -0.231762 3.78671
      vertex 21 -1.76824 3.78671
    endloop
  endfacet
  facet normal 1 0 0
    outer loop
      vertex 21 -0.140535 3.76328
      vertex 21 -1.85946 3.76328
      vertex 21 -4.5 2
    endloop
  endfacet
  facet normal 1 0 0
    outer loop
      vertex 21 -4.5 2
      vertex 21 -1.85946 3.76328
      vertex 21 -1.95291 3.75148
    endloop
  endfacet
  facet normal 1 0 0
    outer loop
      vertex 21 -4.5 2
      vertex 21 -1.95291 3.75148
      vertex 21 -2.04709 3.75148
    endloop
  endfacet
  facet normal 1 0 0
    outer loop
      vertex 21 -4.5 2
      vertex 21 -2.04709 3.75148
      vertex 21 -2.14054 3.76328
    endloop
  endfacet
  facet normal 1 0 0
    outer loop
      vertex 21 -4.5 2
      vertex 21 -2.14054 3.76328
      vertex 21 -2.23176 3.78671
    endloop
  endfacet
  facet normal 1 -0 0
    outer loop
      vertex 21 -2.75 4.25
      vertex 21 -2.69733 4.22391
      vertex 21 -2.70581 4.25
    endloop
  endfacet
  facet normal 1 0 0
    outer loop
      vertex 21 -2.75 4.25
      vertex 21 -2.65723 4.13868
      vertex 21 -2.69733 4.22391
    endloop
  endfacet
  facet normal 1 0 0
    outer loop
      vertex 21 -2.75 4.25
      vertex 21 -2.60676 4.05916
      vertex 21 -2.65723 4.13868
    endloop
  endfacet
  facet normal 1 0 0
    outer loop
      vertex 21 -4.5 2
      vertex 21 -2.75 4.25
      vertex 21 -4.5 5.5
    endloop
  endfacet
  facet normal 1 0 0
    outer loop
      vertex 21 -2.75 4.25
      vertex 21 -4.5 2
      vertex 21 -2.60676 4.05916
    endloop
  endfacet
  facet normal 1 0 0
    outer loop
      vertex 21 -2.60676 4.05916
      vertex 21 -4.5 2
      vertex 21 -2.54673 3.98659
    endloop
  endfacet
  facet normal 1 0 0
    outer loop
      vertex 21 -0.0470924 3.75148
      vertex 21 -4.5 2
      vertex 21 4.5 2
    endloop
  endfacet
  facet normal 1 0 0
    outer loop
      vertex 21 -2.31933 3.82138
      vertex 21 -4.5 2
      vertex 21 -2.23176 3.78671
    endloop
  endfacet
  facet normal 1 0 0
    outer loop
      vertex 21 -2.40187 3.86675
      vertex 21 -4.5 2
      vertex 21 -2.31933 3.82138
    endloop
  endfacet
  facet normal 1 0 0
    outer loop
      vertex 21 -2.47807 3.92211
      vertex 21 -4.5 2
      vertex 21 -2.40187 3.86675
    endloop
  endfacet
  facet normal 1 0 0
    outer loop
      vertex 21 -2.54673 3.98659
      vertex 21 -4.5 2
      vertex 21 -2.47807 3.92211
    endloop
  endfacet
  facet normal 0 0 1
    outer loop
      vertex 20 5.5 5.5
      vertex 21 2.75 5.5
      vertex 21 4.5 5.5
    endloop
  endfacet
  facet normal -0 0 1
    outer loop
      vertex 12 5.5 5.5
      vertex 21 2.75 5.5
      vertex 20 5.5 5.5
    endloop
  endfacet
  facet normal 0 0 1
    outer loop
      vertex 11 2.75 5.5
      vertex 12 5.5 5.5
      vertex 11 4.5 5.5
    endloop
  endfacet
  facet normal 0 0 1
    outer loop
      vertex 12 5.5 5.5
      vertex 11 2.75 5.5
      vertex 21 2.75 5.5
    endloop
  endfacet
  facet normal 0 0 1
    outer loop
      vertex 21 -2.75 5.5
      vertex 20 -5.5 5.5
      vertex 21 -4.5 5.5
    endloop
  endfacet
  facet normal 0 0 1
    outer loop
      vertex 21 -2.75 5.5
      vertex 12 -5.5 5.5
      vertex 20 -5.5 5.5
    endloop
  endfacet
  facet normal -0 0 1
    outer loop
      vertex 11 -2.75 5.5
      vertex 12 -5.5 5.5
      vertex 21 -2.75 5.5
    endloop
  endfacet
  facet normal 0 0 1
    outer loop
      vertex 12 -5.5 5.5
      vertex 11 -2.75 5.5
      vertex 11 -4.5 5.5
    endloop
  endfacet
  facet normal -0 0 1
    outer loop
      vertex 11 1.25 5.5
      vertex 21 0.75 5.5
      vertex 21 1.25 5.5
    endloop
  endfacet
  facet normal 0 0 1
    outer loop
      vertex 21 0.75 5.5
      vertex 11 1.25 5.5
      vertex 11 0.75 5.5
    endloop
  endfacet
  facet normal -0 0 1
    outer loop
      vertex 11 -0.75 5.5
      vertex 21 -1.25 5.5
      vertex 21 -0.75 5.5
    endloop
  endfacet
  facet normal 0 0 1
    outer loop
      vertex 21 -1.25 5.5
      vertex 11 -0.75 5.5
      vertex 11 -1.25 5.5
    endloop
  endfacet
  facet normal -1 0 0
    outer loop
      vertex 11 4.5 2
      vertex 11 2.75 4.25
      vertex 11 4.5 5.5
    endloop
  endfacet
  facet normal -1 0 0
    outer loop
      vertex 11 2.60676 4.05916
      vertex 11 2.75 4.25
      vertex 11 4.5 2
    endloop
  endfacet
  facet normal -1 -0 0
    outer loop
      vertex 11 2.75 4.25
      vertex 11 2.69733 4.22391
      vertex 11 2.70581 4.25
    endloop
  endfacet
  facet normal -1 0 0
    outer loop
      vertex 11 2.75 4.25
      vertex 11 2.65723 4.13868
      vertex 11 2.69733 4.22391
    endloop
  endfacet
  facet normal -1 0 0
    outer loop
      vertex 11 2.75 4.25
      vertex 11 2.60676 4.05916
      vertex 11 2.65723 4.13868
    endloop
  endfacet
  facet normal -1 0 0
    outer loop
      vertex 11 4.5 2
      vertex 11 2.54673 3.98659
      vertex 11 2.60676 4.05916
    endloop
  endfacet
  facet normal -1 0 0
    outer loop
      vertex 11 4.5 2
      vertex 11 2.47807 3.92211
      vertex 11 2.54673 3.98659
    endloop
  endfacet
  facet normal -1 0 0
    outer loop
      vertex 11 4.5 2
      vertex 11 2.40187 3.86675
      vertex 11 2.47807 3.92211
    endloop
  endfacet
  facet normal -1 0 0
    outer loop
      vertex 11 4.5 2
      vertex 11 2.31933 3.82138
      vertex 11 2.40187 3.86675
    endloop
  endfacet
  facet normal -1 0 0
    outer loop
      vertex 11 4.5 2
      vertex 11 2.23176 3.78671
      vertex 11 2.31933 3.82138
    endloop
  endfacet
  facet normal -1 0 0
    outer loop
      vertex 11 4.5 2
      vertex 11 2.14054 3.76328
      vertex 11 2.23176 3.78671
    endloop
  endfacet
  facet normal -1 0 0
    outer loop
      vertex 11 4.5 2
      vertex 11 2.04709 3.75148
      vertex 11 2.14054 3.76328
    endloop
  endfacet
  facet normal -1 0 0
    outer loop
      vertex 11 4.5 2
      vertex 11 1.95291 3.75148
      vertex 11 2.04709 3.75148
    endloop
  endfacet
  facet normal -1 0 0
    outer loop
      vertex 11 4.5 2
      vertex 11 1.85946 3.76328
      vertex 11 1.95291 3.75148
    endloop
  endfacet
  facet normal -1 0 0
    outer loop
      vertex 11 0.140535 3.76328
      vertex 11 1.85946 3.76328
      vertex 11 4.5 2
    endloop
  endfacet
  facet normal -1 0 0
    outer loop
      vertex 11 1.85946 3.76328
      vertex 11 0.140535 3.76328
      vertex 11 1.76824 3.78671
    endloop
  endfacet
  facet normal -1 0 -0
    outer loop
      vertex 11 0.231762 3.78671
      vertex 11 1.76824 3.78671
      vertex 11 0.140535 3.76328
    endloop
  endfacet
  facet normal -1 0 0
    outer loop
      vertex 11 1.30267 4.22391
      vertex 11 1.25 4.25
      vertex 11 1.29419 4.25
    endloop
  endfacet
  facet normal -1 0 0
    outer loop
      vertex 11 1.34277 4.13868
      vertex 11 1.25 4.25
      vertex 11 1.30267 4.22391
    endloop
  endfacet
  facet normal -1 0 0
    outer loop
      vertex 11 0.657229 4.13868
      vertex 11 1.34277 4.13868
      vertex 11 1.39324 4.05916
    endloop
  endfacet
  facet normal -1 0 0
    outer loop
      vertex 11 1.25 4.25
      vertex 11 0.75 4.25
      vertex 11 1.25 5.5
    endloop
  endfacet
  facet normal -1 0 0
    outer loop
      vertex 11 1.34277 4.13868
      vertex 11 0.657229 4.13868
      vertex 11 1.25 4.25
    endloop
  endfacet
  facet normal -1 0 0
    outer loop
      vertex 11 0.606762 4.05916
      vertex 11 1.39324 4.05916
      vertex 11 1.45327 3.98659
    endloop
  endfacet
  facet normal -1 0 0
    outer loop
      vertex 11 0.546726 3.98659
      vertex 11 1.45327 3.98659
      vertex 11 1.52193 3.92211
    endloop
  endfacet
  facet normal -1 0 0
    outer loop
      vertex 11 0.478067 3.92211
      vertex 11 1.52193 3.92211
      vertex 11 1.59813 3.86675
    endloop
  endfacet
  facet normal -1 0 -0
    outer loop
      vertex 11 0.319334 3.82138
      vertex 11 1.68067 3.82138
      vertex 11 0.231762 3.78671
    endloop
  endfacet
  facet normal -1 0 0
    outer loop
      vertex 11 1.39324 4.05916
      vertex 11 0.606762 4.05916
      vertex 11 0.657229 4.13868
    endloop
  endfacet
  facet normal -1 -0 0
    outer loop
      vertex 11 0.75 4.25
      vertex 11 0.697331 4.22391
      vertex 11 0.70581 4.25
    endloop
  endfacet
  facet normal -1 0 0
    outer loop
      vertex 11 0.75 4.25
      vertex 11 0.657229 4.13868
      vertex 11 0.697331 4.22391
    endloop
  endfacet
  facet normal -1 -0 0
    outer loop
      vertex 11 1.25 4.25
      vertex 11 0.657229 4.13868
      vertex 11 0.75 4.25
    endloop
  endfacet
  facet normal -1 0 0
    outer loop
      vertex 11 1.45327 3.98659
      vertex 11 0.546726 3.98659
      vertex 11 0.606762 4.05916
    endloop
  endfacet
  facet normal -1 0 0
    outer loop
      vertex 11 1.52193 3.92211
      vertex 11 0.478067 3.92211
      vertex 11 0.546726 3.98659
    endloop
  endfacet
  facet normal -1 0 0
    outer loop
      vertex 11 1.59813 3.86675
      vertex 11 0.40187 3.86675
      vertex 11 0.478067 3.92211
    endloop
  endfacet
  facet normal -1 -0 0
    outer loop
      vertex 11 1.59813 3.86675
      vertex 11 0.319334 3.82138
      vertex 11 0.40187 3.86675
    endloop
  endfacet
  facet normal -1 0 0
    outer loop
      vertex 11 1.68067 3.82138
      vertex 11 0.319334 3.82138
      vertex 11 1.59813 3.86675
    endloop
  endfacet
  facet normal -1 0 0
    outer loop
      vertex 11 1.76824 3.78671
      vertex 11 0.231762 3.78671
      vertex 11 1.68067 3.82138
    endloop
  endfacet
  facet normal -1 0 0
    outer loop
      vertex 11 4.5 2
      vertex 11 0.0470924 3.75148
      vertex 11 0.140535 3.76328
    endloop
  endfacet
  facet normal -1 0 0
    outer loop
      vertex 11 4.5 2
      vertex 11 -0.0470924 3.75148
      vertex 11 0.0470924 3.75148
    endloop
  endfacet
  facet normal -1 0 0
    outer loop
      vertex 11 -4.5 2
      vertex 11 -0.0470924 3.75148
      vertex 11 4.5 2
    endloop
  endfacet
  facet normal -1 -0 0
    outer loop
      vertex 11 -0.0470924 3.75148
      vertex 11 -4.5 2
      vertex 11 -0.140535 3.76328
    endloop
  endfacet
  facet normal -1 0 0
    outer loop
      vertex 11 -0.697331 4.22391
      vertex 11 -0.75 4.25
      vertex 11 -0.70581 4.25
    endloop
  endfacet
  facet normal -1 0 0
    outer loop
      vertex 11 -0.657229 4.13868
      vertex 11 -0.75 4.25
      vertex 11 -0.697331 4.22391
    endloop
  endfacet
  facet normal -1 0 0
    outer loop
      vertex 11 -1.34277 4.13868
      vertex 11 -0.657229 4.13868
      vertex 11 -0.606762 4.05916
    endloop
  endfacet
  facet normal -1 0 0
    outer loop
      vertex 11 -0.75 4.25
      vertex 11 -1.25 4.25
      vertex 11 -0.75 5.5
    endloop
  endfacet
  facet normal -1 0 0
    outer loop
      vertex 11 -0.657229 4.13868
      vertex 11 -1.34277 4.13868
      vertex 11 -0.75 4.25
    endloop
  endfacet
  facet normal -1 0 0
    outer loop
      vertex 11 -1.39324 4.05916
      vertex 11 -0.606762 4.05916
      vertex 11 -0.546726 3.98659
    endloop
  endfacet
  facet normal -1 0 0
    outer loop
      vertex 11 -1.45327 3.98659
      vertex 11 -0.546726 3.98659
      vertex 11 -0.478067 3.92211
    endloop
  endfacet
  facet normal -1 0 0
    outer loop
      vertex 11 -1.52193 3.92211
      vertex 11 -0.478067 3.92211
      vertex 11 -0.40187 3.86675
    endloop
  endfacet
  facet normal -1 0 0
    outer loop
      vertex 11 -1.59813 3.86675
      vertex 11 -0.40187 3.86675
      vertex 11 -0.319334 3.82138
    endloop
  endfacet
  facet normal -1 -0 0
    outer loop
      vertex 11 -0.75 4.25
      vertex 11 -1.34277 4.13868
      vertex 11 -1.25 4.25
    endloop
  endfacet
  facet normal -1 -0 0
    outer loop
      vertex 11 -1.25 4.25
      vertex 11 -1.30267 4.22391
      vertex 11 -1.29419 4.25
    endloop
  endfacet
  facet normal -1 0 0
    outer loop
      vertex 11 -1.25 4.25
      vertex 11 -1.34277 4.13868
      vertex 11 -1.30267 4.22391
    endloop
  endfacet
  facet normal -1 0 0
    outer loop
      vertex 11 -1.68067 3.82138
      vertex 11 -0.319334 3.82138
      vertex 11 -0.231762 3.78671
    endloop
  endfacet
  facet normal -1 0 -0
    outer loop
      vertex 11 -1.85946 3.76328
      vertex 11 -0.140535 3.76328
      vertex 11 -4.5 2
    endloop
  endfacet
  facet normal -1 0 0
    outer loop
      vertex 11 -0.606762 4.05916
      vertex 11 -1.39324 4.05916
      vertex 11 -1.34277 4.13868
    endloop
  endfacet
  facet normal -1 0 0
    outer loop
      vertex 11 -0.546726 3.98659
      vertex 11 -1.45327 3.98659
      vertex 11 -1.39324 4.05916
    endloop
  endfacet
  facet normal -1 0 0
    outer loop
      vertex 11 -0.478067 3.92211
      vertex 11 -1.52193 3.92211
      vertex 11 -1.45327 3.98659
    endloop
  endfacet
  facet normal -1 0 0
    outer loop
      vertex 11 -0.40187 3.86675
      vertex 11 -1.59813 3.86675
      vertex 11 -1.52193 3.92211
    endloop
  endfacet
  facet normal -1 0 0
    outer loop
      vertex 11 -0.319334 3.82138
      vertex 11 -1.68067 3.82138
      vertex 11 -1.59813 3.86675
    endloop
  endfacet
  facet normal -1 0 0
    outer loop
      vertex 11 -0.231762 3.78671
      vertex 11 -1.76824 3.78671
      vertex 11 -1.68067 3.82138
    endloop
  endfacet
  facet normal -1 0 0
    outer loop
      vertex 11 -0.140535 3.76328
      vertex 11 -1.85946 3.76328
      vertex 11 -0.231762 3.78671
    endloop
  endfacet
  facet normal -1 -0 0
    outer loop
      vertex 11 -0.231762 3.78671
      vertex 11 -1.85946 3.76328
      vertex 11 -1.76824 3.78671
    endloop
  endfacet
  facet normal -1 0 0
    outer loop
      vertex 11 -1.85946 3.76328
      vertex 11 -4.5 2
      vertex 11 -1.95291 3.75148
    endloop
  endfacet
  facet normal -1 -0 0
    outer loop
      vertex 11 -1.95291 3.75148
      vertex 11 -4.5 2
      vertex 11 -2.04709 3.75148
    endloop
  endfacet
  facet normal -1 -0 0
    outer loop
      vertex 11 -2.04709 3.75148
      vertex 11 -4.5 2
      vertex 11 -2.14054 3.76328
    endloop
  endfacet
  facet normal -1 0 0
    outer loop
      vertex 11 -2.69733 4.22391
      vertex 11 -2.75 4.25
      vertex 11 -2.70581 4.25
    endloop
  endfacet
  facet normal -1 0 0
    outer loop
      vertex 11 -2.65723 4.13868
      vertex 11 -2.75 4.25
      vertex 11 -2.69733 4.22391
    endloop
  endfacet
  facet normal -1 0 0
    outer loop
      vertex 11 -2.60676 4.05916
      vertex 11 -2.75 4.25
      vertex 11 -2.65723 4.13868
    endloop
  endfacet
  facet normal -1 -0 0
    outer loop
      vertex 11 -2.14054 3.76328
      vertex 11 -4.5 2
      vertex 11 -2.23176 3.78671
    endloop
  endfacet
  facet normal -1 0 0
    outer loop
      vertex 11 -4.5 2
      vertex 11 -2.31933 3.82138
      vertex 11 -2.23176 3.78671
    endloop
  endfacet
  facet normal -1 0 0
    outer loop
      vertex 11 -4.5 2
      vertex 11 -2.40187 3.86675
      vertex 11 -2.31933 3.82138
    endloop
  endfacet
  facet normal -1 0 0
    outer loop
      vertex 11 -4.5 2
      vertex 11 -2.47807 3.92211
      vertex 11 -2.40187 3.86675
    endloop
  endfacet
  facet normal -1 0 0
    outer loop
      vertex 11 -4.5 2
      vertex 11 -2.54673 3.98659
      vertex 11 -2.47807 3.92211
    endloop
  endfacet
  facet normal -1 0 0
    outer loop
      vertex 11 -4.5 2
      vertex 11 -2.60676 4.05916
      vertex 11 -2.54673 3.98659
    endloop
  endfacet
  facet normal -1 0 0
    outer loop
      vertex 11 -4.5 2
      vertex 11 -2.75 4.25
      vertex 11 -2.60676 4.05916
    endloop
  endfacet
  facet normal -1 0 0
    outer loop
      vertex 11 -4.5 5.5
      vertex 11 -2.75 4.25
      vertex 11 -4.5 2
    endloop
  endfacet
  facet normal -1 0 0
    outer loop
      vertex 11 -2.75 4.25
      vertex 11 -4.5 5.5
      vertex 11 -2.75 5.5
    endloop
  endfacet
  facet normal -1 -0 0
    outer loop
      vertex 11 4.5 5.5
      vertex 11 2.75 4.25
      vertex 11 2.75 5.5
    endloop
  endfacet
  facet normal -1 -0 0
    outer loop
      vertex 11 1.25 5.5
      vertex 11 0.75 4.25
      vertex 11 0.75 5.5
    endloop
  endfacet
  facet normal -1 -0 0
    outer loop
      vertex 11 -0.75 5.5
      vertex 11 -1.25 4.25
      vertex 11 -1.25 5.5
    endloop
  endfacet
  facet normal 0 1 0
    outer loop
      vertex 20 5.5 5.5
      vertex 12 5.5 4.5
      vertex 12 5.5 5.5
    endloop
  endfacet
  facet normal 0 1 -0
    outer loop
      vertex 20 5.5 2
      vertex 12 5.5 4.5
      vertex 20 5.5 5.5
    endloop
  endfacet
  facet normal 0 1 0
    outer loop
      vertex 12 5.5 4.5
      vertex 20 5.5 2
      vertex 12 5.5 2
    endloop
  endfacet
  facet normal 0 -1 0
    outer loop
      vertex 12 -5.5 4.5
      vertex 20 -5.5 5.5
      vertex 12 -5.5 5.5
    endloop
  endfacet
  facet normal 0 -1 0
    outer loop
      vertex 20 -5.5 2
      vertex 12 -5.5 4.5
      vertex 12 -5.5 2
    endloop
  endfacet
  facet normal 0 -1 0
    outer loop
      vertex 12 -5.5 4.5
      vertex 20 -5.5 2
      vertex 20 -5.5 5.5
    endloop
  endfacet
  facet normal 0 -0.844318 0.535842
    outer loop
      vertex 11 0.606762 4.05916
      vertex 21 0.657229 4.13868
      vertex 11 0.657229 4.13868
    endloop
  endfacet
  facet normal 0 -0.844318 0.535842
    outer loop
      vertex 21 0.657229 4.13868
      vertex 11 0.606762 4.05916
      vertex 21 0.606762 4.05916
    endloop
  endfacet
  facet normal 0 -0.587783 0.809019
    outer loop
      vertex 11 0.478067 3.92211
      vertex 21 0.40187 3.86675
      vertex 21 0.478067 3.92211
    endloop
  endfacet
  facet normal 0 -0.587783 0.809019
    outer loop
      vertex 21 0.40187 3.86675
      vertex 11 0.478067 3.92211
      vertex 11 0.40187 3.86675
    endloop
  endfacet
  facet normal 0 -0.125286 0.992121
    outer loop
      vertex 11 0.140535 3.76328
      vertex 21 0.0470924 3.75148
      vertex 21 0.140535 3.76328
    endloop
  endfacet
  facet normal 0 -0.125286 0.992121
    outer loop
      vertex 21 0.0470924 3.75148
      vertex 11 0.140535 3.76328
      vertex 11 0.0470924 3.75148
    endloop
  endfacet
  facet normal 0 -0.684575 0.728943
    outer loop
      vertex 11 0.546726 3.98659
      vertex 21 0.478067 3.92211
      vertex 21 0.546726 3.98659
    endloop
  endfacet
  facet normal 0 -0.684575 0.728943
    outer loop
      vertex 21 0.478067 3.92211
      vertex 11 0.546726 3.98659
      vertex 11 0.478067 3.92211
    endloop
  endfacet
  facet normal -0 0.125286 0.992121
    outer loop
      vertex 11 -0.0470924 3.75148
      vertex 21 -0.140535 3.76328
      vertex 21 -0.0470924 3.75148
    endloop
  endfacet
  facet normal 0 0.125286 0.992121
    outer loop
      vertex 21 -0.140535 3.76328
      vertex 11 -0.0470924 3.75148
      vertex 11 -0.140535 3.76328
    endloop
  endfacet
  facet normal 0 -0.248758 0.968566
    outer loop
      vertex 11 0.231762 3.78671
      vertex 21 0.140535 3.76328
      vertex 21 0.231762 3.78671
    endloop
  endfacet
  facet normal 0 -0.248758 0.968566
    outer loop
      vertex 21 0.140535 3.76328
      vertex 11 0.231762 3.78671
      vertex 11 0.140535 3.76328
    endloop
  endfacet
  facet normal 0 -0.368104 0.929785
    outer loop
      vertex 11 0.319334 3.82138
      vertex 21 0.231762 3.78671
      vertex 21 0.319334 3.82138
    endloop
  endfacet
  facet normal 0 -0.368104 0.929785
    outer loop
      vertex 21 0.231762 3.78671
      vertex 11 0.319334 3.82138
      vertex 11 0.231762 3.78671
    endloop
  endfacet
  facet normal 0 0.904844 0.425743
    outer loop
      vertex 21 -0.657229 4.13868
      vertex 11 -0.697331 4.22391
      vertex 21 -0.697331 4.22391
    endloop
  endfacet
  facet normal 0 0.904844 0.425743
    outer loop
      vertex 11 -0.697331 4.22391
      vertex 21 -0.657229 4.13868
      vertex 11 -0.657229 4.13868
    endloop
  endfacet
  facet normal -0 0.481717 0.876327
    outer loop
      vertex 11 -0.319334 3.82138
      vertex 21 -0.40187 3.86675
      vertex 21 -0.319334 3.82138
    endloop
  endfacet
  facet normal 0 0.481717 0.876327
    outer loop
      vertex 21 -0.40187 3.86675
      vertex 11 -0.319334 3.82138
      vertex 11 -0.40187 3.86675
    endloop
  endfacet
  facet normal 0 0.844318 0.535842
    outer loop
      vertex 21 -0.606762 4.05916
      vertex 11 -0.657229 4.13868
      vertex 21 -0.657229 4.13868
    endloop
  endfacet
  facet normal 0 0.844318 0.535842
    outer loop
      vertex 11 -0.657229 4.13868
      vertex 21 -0.606762 4.05916
      vertex 11 -0.606762 4.05916
    endloop
  endfacet
  facet normal 0 0.951037 0.309078
    outer loop
      vertex 21 -0.697331 4.22391
      vertex 11 -0.70581 4.25
      vertex 21 -0.70581 4.25
    endloop
  endfacet
  facet normal 0 0.951037 0.309078
    outer loop
      vertex 11 -0.70581 4.25
      vertex 21 -0.697331 4.22391
      vertex 11 -0.697331 4.22391
    endloop
  endfacet
  facet normal -0 0.684575 0.728943
    outer loop
      vertex 11 -0.478067 3.92211
      vertex 21 -0.546726 3.98659
      vertex 21 -0.478067 3.92211
    endloop
  endfacet
  facet normal 0 0.684575 0.728943
    outer loop
      vertex 21 -0.546726 3.98659
      vertex 11 -0.478067 3.92211
      vertex 11 -0.546726 3.98659
    endloop
  endfacet
  facet normal 0 -0.951037 0.309078
    outer loop
      vertex 11 0.697331 4.22391
      vertex 21 0.70581 4.25
      vertex 11 0.70581 4.25
    endloop
  endfacet
  facet normal 0 -0.951037 0.309078
    outer loop
      vertex 21 0.70581 4.25
      vertex 11 0.697331 4.22391
      vertex 21 0.697331 4.22391
    endloop
  endfacet
  facet normal -0 0.587783 0.809019
    outer loop
      vertex 11 -0.40187 3.86675
      vertex 21 -0.478067 3.92211
      vertex 21 -0.40187 3.86675
    endloop
  endfacet
  facet normal 0 0.587783 0.809019
    outer loop
      vertex 21 -0.478067 3.92211
      vertex 11 -0.40187 3.86675
      vertex 11 -0.478067 3.92211
    endloop
  endfacet
  facet normal 0 -0.481717 0.876327
    outer loop
      vertex 11 0.40187 3.86675
      vertex 21 0.319334 3.82138
      vertex 21 0.40187 3.86675
    endloop
  endfacet
  facet normal 0 -0.481717 0.876327
    outer loop
      vertex 21 0.319334 3.82138
      vertex 11 0.40187 3.86675
      vertex 11 0.319334 3.82138
    endloop
  endfacet
  facet normal 0 -0.770509 0.63743
    outer loop
      vertex 11 0.546726 3.98659
      vertex 21 0.606762 4.05916
      vertex 11 0.606762 4.05916
    endloop
  endfacet
  facet normal 0 -0.770509 0.63743
    outer loop
      vertex 21 0.606762 4.05916
      vertex 11 0.546726 3.98659
      vertex 21 0.546726 3.98659
    endloop
  endfacet
  facet normal 0 -0.904844 0.425743
    outer loop
      vertex 11 0.657229 4.13868
      vertex 21 0.697331 4.22391
      vertex 11 0.697331 4.22391
    endloop
  endfacet
  facet normal 0 -0.904844 0.425743
    outer loop
      vertex 21 0.697331 4.22391
      vertex 11 0.657229 4.13868
      vertex 21 0.657229 4.13868
    endloop
  endfacet
  facet normal -0 0.368104 0.929785
    outer loop
      vertex 11 -0.231762 3.78671
      vertex 21 -0.319334 3.82138
      vertex 21 -0.231762 3.78671
    endloop
  endfacet
  facet normal 0 0.368104 0.929785
    outer loop
      vertex 21 -0.319334 3.82138
      vertex 11 -0.231762 3.78671
      vertex 11 -0.319334 3.82138
    endloop
  endfacet
  facet normal -0 0 1
    outer loop
      vertex 11 0.0470924 3.75148
      vertex 21 -0.0470924 3.75148
      vertex 21 0.0470924 3.75148
    endloop
  endfacet
  facet normal 0 0 1
    outer loop
      vertex 21 -0.0470924 3.75148
      vertex 11 0.0470924 3.75148
      vertex 11 -0.0470924 3.75148
    endloop
  endfacet
  facet normal 0 0.770509 0.63743
    outer loop
      vertex 21 -0.546726 3.98659
      vertex 11 -0.606762 4.05916
      vertex 21 -0.606762 4.05916
    endloop
  endfacet
  facet normal 0 0.770509 0.63743
    outer loop
      vertex 11 -0.606762 4.05916
      vertex 21 -0.546726 3.98659
      vertex 11 -0.546726 3.98659
    endloop
  endfacet
  facet normal -0 0.248758 0.968566
    outer loop
      vertex 11 -0.140535 3.76328
      vertex 21 -0.231762 3.78671
      vertex 21 -0.140535 3.76328
    endloop
  endfacet
  facet normal 0 0.248758 0.968566
    outer loop
      vertex 21 -0.231762 3.78671
      vertex 11 -0.140535 3.76328
      vertex 11 -0.231762 3.78671
    endloop
  endfacet
  facet normal 0 -0.844304 0.535865
    outer loop
      vertex 11 2.60676 4.05916
      vertex 21 2.65723 4.13868
      vertex 11 2.65723 4.13868
    endloop
  endfacet
  facet normal 0 -0.844304 0.535865
    outer loop
      vertex 21 2.65723 4.13868
      vertex 11 2.60676 4.05916
      vertex 21 2.60676 4.05916
    endloop
  endfacet
  facet normal 0 -0.587768 0.80903
    outer loop
      vertex 11 2.47807 3.92211
      vertex 21 2.40187 3.86675
      vertex 21 2.47807 3.92211
    endloop
  endfacet
  facet normal 0 -0.587768 0.80903
    outer loop
      vertex 21 2.40187 3.86675
      vertex 11 2.47807 3.92211
      vertex 11 2.40187 3.86675
    endloop
  endfacet
  facet normal 0 -0.684569 0.728948
    outer loop
      vertex 11 2.54673 3.98659
      vertex 21 2.47807 3.92211
      vertex 21 2.54673 3.98659
    endloop
  endfacet
  facet normal 0 -0.684569 0.728948
    outer loop
      vertex 21 2.47807 3.92211
      vertex 11 2.54673 3.98659
      vertex 11 2.47807 3.92211
    endloop
  endfacet
  facet normal 0 0.904852 0.425725
    outer loop
      vertex 21 1.34277 4.13868
      vertex 11 1.30267 4.22391
      vertex 21 1.30267 4.22391
    endloop
  endfacet
  facet normal 0 0.904852 0.425725
    outer loop
      vertex 11 1.30267 4.22391
      vertex 21 1.34277 4.13868
      vertex 11 1.34277 4.13868
    endloop
  endfacet
  facet normal 0 -0.125276 0.992122
    outer loop
      vertex 11 2.14054 3.76328
      vertex 21 2.04709 3.75148
      vertex 21 2.14054 3.76328
    endloop
  endfacet
  facet normal 0 -0.125276 0.992122
    outer loop
      vertex 21 2.04709 3.75148
      vertex 11 2.14054 3.76328
      vertex 11 2.04709 3.75148
    endloop
  endfacet
  facet normal 0 -0.248776 0.968561
    outer loop
      vertex 11 2.23176 3.78671
      vertex 21 2.14054 3.76328
      vertex 21 2.23176 3.78671
    endloop
  endfacet
  facet normal 0 -0.248776 0.968561
    outer loop
      vertex 21 2.14054 3.76328
      vertex 11 2.23176 3.78671
      vertex 11 2.14054 3.76328
    endloop
  endfacet
  facet normal 0 -0.368112 0.929782
    outer loop
      vertex 11 2.31933 3.82138
      vertex 21 2.23176 3.78671
      vertex 21 2.31933 3.82138
    endloop
  endfacet
  facet normal 0 -0.368112 0.929782
    outer loop
      vertex 21 2.23176 3.78671
      vertex 11 2.31933 3.82138
      vertex 11 2.23176 3.78671
    endloop
  endfacet
  facet normal -0 0.481699 0.876337
    outer loop
      vertex 11 1.68067 3.82138
      vertex 21 1.59813 3.86675
      vertex 21 1.68067 3.82138
    endloop
  endfacet
  facet normal 0 0.481699 0.876337
    outer loop
      vertex 21 1.59813 3.86675
      vertex 11 1.68067 3.82138
      vertex 11 1.59813 3.86675
    endloop
  endfacet
  facet normal 0 0.844304 0.535865
    outer loop
      vertex 21 1.39324 4.05916
      vertex 11 1.34277 4.13868
      vertex 21 1.34277 4.13868
    endloop
  endfacet
  facet normal 0 0.844304 0.535865
    outer loop
      vertex 11 1.34277 4.13868
      vertex 21 1.39324 4.05916
      vertex 11 1.39324 4.05916
    endloop
  endfacet
  facet normal -0 0.684569 0.728948
    outer loop
      vertex 11 1.52193 3.92211
      vertex 21 1.45327 3.98659
      vertex 21 1.52193 3.92211
    endloop
  endfacet
  facet normal 0 0.684569 0.728948
    outer loop
      vertex 21 1.45327 3.98659
      vertex 11 1.52193 3.92211
      vertex 11 1.45327 3.98659
    endloop
  endfacet
  facet normal -0 0.125276 0.992122
    outer loop
      vertex 11 1.95291 3.75148
      vertex 21 1.85946 3.76328
      vertex 21 1.95291 3.75148
    endloop
  endfacet
  facet normal 0 0.125276 0.992122
    outer loop
      vertex 21 1.85946 3.76328
      vertex 11 1.95291 3.75148
      vertex 11 1.85946 3.76328
    endloop
  endfacet
  facet normal 0 -0.951026 0.309111
    outer loop
      vertex 11 2.69733 4.22391
      vertex 21 2.70581 4.25
      vertex 11 2.70581 4.25
    endloop
  endfacet
  facet normal 0 -0.951026 0.309111
    outer loop
      vertex 21 2.70581 4.25
      vertex 11 2.69733 4.22391
      vertex 21 2.69733 4.22391
    endloop
  endfacet
  facet normal -0 0.587768 0.80903
    outer loop
      vertex 11 1.59813 3.86675
      vertex 21 1.52193 3.92211
      vertex 21 1.59813 3.86675
    endloop
  endfacet
  facet normal 0 0.587768 0.80903
    outer loop
      vertex 21 1.52193 3.92211
      vertex 11 1.59813 3.86675
      vertex 11 1.52193 3.92211
    endloop
  endfacet
  facet normal 0 -0.481699 0.876337
    outer loop
      vertex 11 2.40187 3.86675
      vertex 21 2.31933 3.82138
      vertex 21 2.40187 3.86675
    endloop
  endfacet
  facet normal 0 -0.481699 0.876337
    outer loop
      vertex 21 2.31933 3.82138
      vertex 11 2.40187 3.86675
      vertex 11 2.31933 3.82138
    endloop
  endfacet
  facet normal -0 0.248776 0.968561
    outer loop
      vertex 11 1.85946 3.76328
      vertex 21 1.76824 3.78671
      vertex 21 1.85946 3.76328
    endloop
  endfacet
  facet normal 0 0.248776 0.968561
    outer loop
      vertex 21 1.76824 3.78671
      vertex 11 1.85946 3.76328
      vertex 11 1.76824 3.78671
    endloop
  endfacet
  facet normal 0 -0.77054 0.637392
    outer loop
      vertex 11 2.54673 3.98659
      vertex 21 2.60676 4.05916
      vertex 11 2.60676 4.05916
    endloop
  endfacet
  facet normal 0 -0.77054 0.637392
    outer loop
      vertex 21 2.60676 4.05916
      vertex 11 2.54673 3.98659
      vertex 21 2.54673 3.98659
    endloop
  endfacet
  facet normal 0 -0.904852 0.425725
    outer loop
      vertex 11 2.65723 4.13868
      vertex 21 2.69733 4.22391
      vertex 11 2.69733 4.22391
    endloop
  endfacet
  facet normal 0 -0.904852 0.425725
    outer loop
      vertex 21 2.69733 4.22391
      vertex 11 2.65723 4.13868
      vertex 21 2.65723 4.13868
    endloop
  endfacet
  facet normal -0 0.368112 0.929782
    outer loop
      vertex 11 1.76824 3.78671
      vertex 21 1.68067 3.82138
      vertex 21 1.76824 3.78671
    endloop
  endfacet
  facet normal 0 0.368112 0.929782
    outer loop
      vertex 21 1.68067 3.82138
      vertex 11 1.76824 3.78671
      vertex 11 1.68067 3.82138
    endloop
  endfacet
  facet normal -0 0 1
    outer loop
      vertex 11 2.04709 3.75148
      vertex 21 1.95291 3.75148
      vertex 21 2.04709 3.75148
    endloop
  endfacet
  facet normal 0 0 1
    outer loop
      vertex 21 1.95291 3.75148
      vertex 11 2.04709 3.75148
      vertex 11 1.95291 3.75148
    endloop
  endfacet
  facet normal 0 0.951026 0.309111
    outer loop
      vertex 21 1.30267 4.22391
      vertex 11 1.29419 4.25
      vertex 21 1.29419 4.25
    endloop
  endfacet
  facet normal 0 0.951026 0.309111
    outer loop
      vertex 11 1.29419 4.25
      vertex 21 1.30267 4.22391
      vertex 11 1.30267 4.22391
    endloop
  endfacet
  facet normal 0 0.77054 0.637392
    outer loop
      vertex 21 1.45327 3.98659
      vertex 11 1.39324 4.05916
      vertex 21 1.39324 4.05916
    endloop
  endfacet
  facet normal 0 0.77054 0.637392
    outer loop
      vertex 11 1.39324 4.05916
      vertex 21 1.45327 3.98659
      vertex 11 1.45327 3.98659
    endloop
  endfacet
  facet normal 0 -0.77054 0.637392
    outer loop
      vertex 11 -1.45327 3.98659
      vertex 21 -1.39324 4.05916
      vertex 11 -1.39324 4.05916
    endloop
  endfacet
  facet normal 0 -0.77054 0.637392
    outer loop
      vertex 21 -1.39324 4.05916
      vertex 11 -1.45327 3.98659
      vertex 21 -1.45327 3.98659
    endloop
  endfacet
  facet normal 0 -0.248776 0.968561
    outer loop
      vertex 11 -1.76824 3.78671
      vertex 21 -1.85946 3.76328
      vertex 21 -1.76824 3.78671
    endloop
  endfacet
  facet normal 0 -0.248776 0.968561
    outer loop
      vertex 21 -1.85946 3.76328
      vertex 11 -1.76824 3.78671
      vertex 11 -1.85946 3.76328
    endloop
  endfacet
  facet normal 0 0.904852 0.425725
    outer loop
      vertex 21 -2.65723 4.13868
      vertex 11 -2.69733 4.22391
      vertex 21 -2.69733 4.22391
    endloop
  endfacet
  facet normal 0 0.904852 0.425725
    outer loop
      vertex 11 -2.69733 4.22391
      vertex 21 -2.65723 4.13868
      vertex 11 -2.65723 4.13868
    endloop
  endfacet
  facet normal 0 -0.904852 0.425725
    outer loop
      vertex 11 -1.34277 4.13868
      vertex 21 -1.30267 4.22391
      vertex 11 -1.30267 4.22391
    endloop
  endfacet
  facet normal 0 -0.904852 0.425725
    outer loop
      vertex 21 -1.30267 4.22391
      vertex 11 -1.34277 4.13868
      vertex 21 -1.34277 4.13868
    endloop
  endfacet
  facet normal -0 0 1
    outer loop
      vertex 11 -1.95291 3.75148
      vertex 21 -2.04709 3.75148
      vertex 21 -1.95291 3.75148
    endloop
  endfacet
  facet normal 0 0 1
    outer loop
      vertex 21 -2.04709 3.75148
      vertex 11 -1.95291 3.75148
      vertex 11 -2.04709 3.75148
    endloop
  endfacet
  facet normal -0 0.684569 0.728948
    outer loop
      vertex 11 -2.47807 3.92211
      vertex 21 -2.54673 3.98659
      vertex 21 -2.47807 3.92211
    endloop
  endfacet
  facet normal 0 0.684569 0.728948
    outer loop
      vertex 21 -2.54673 3.98659
      vertex 11 -2.47807 3.92211
      vertex 11 -2.54673 3.98659
    endloop
  endfacet
  facet normal 0 0.844304 0.535865
    outer loop
      vertex 21 -2.60676 4.05916
      vertex 11 -2.65723 4.13868
      vertex 21 -2.65723 4.13868
    endloop
  endfacet
  facet normal 0 0.844304 0.535865
    outer loop
      vertex 11 -2.65723 4.13868
      vertex 21 -2.60676 4.05916
      vertex 11 -2.60676 4.05916
    endloop
  endfacet
  facet normal 0 -0.951026 0.309111
    outer loop
      vertex 11 -1.30267 4.22391
      vertex 21 -1.29419 4.25
      vertex 11 -1.29419 4.25
    endloop
  endfacet
  facet normal 0 -0.951026 0.309111
    outer loop
      vertex 21 -1.29419 4.25
      vertex 11 -1.30267 4.22391
      vertex 21 -1.30267 4.22391
    endloop
  endfacet
  facet normal -0 0.481699 0.876337
    outer loop
      vertex 11 -2.31933 3.82138
      vertex 21 -2.40187 3.86675
      vertex 21 -2.31933 3.82138
    endloop
  endfacet
  facet normal 0 0.481699 0.876337
    outer loop
      vertex 21 -2.40187 3.86675
      vertex 11 -2.31933 3.82138
      vertex 11 -2.40187 3.86675
    endloop
  endfacet
  facet normal 0 -0.125276 0.992122
    outer loop
      vertex 11 -1.85946 3.76328
      vertex 21 -1.95291 3.75148
      vertex 21 -1.85946 3.76328
    endloop
  endfacet
  facet normal 0 -0.125276 0.992122
    outer loop
      vertex 21 -1.95291 3.75148
      vertex 11 -1.85946 3.76328
      vertex 11 -1.95291 3.75148
    endloop
  endfacet
  facet normal -0 0.368112 0.929782
    outer loop
      vertex 11 -2.23176 3.78671
      vertex 21 -2.31933 3.82138
      vertex 21 -2.23176 3.78671
    endloop
  endfacet
  facet normal 0 0.368112 0.929782
    outer loop
      vertex 21 -2.31933 3.82138
      vertex 11 -2.23176 3.78671
      vertex 11 -2.31933 3.82138
    endloop
  endfacet
  facet normal -0 0.587768 0.80903
    outer loop
      vertex 11 -2.40187 3.86675
      vertex 21 -2.47807 3.92211
      vertex 21 -2.40187 3.86675
    endloop
  endfacet
  facet normal 0 0.587768 0.80903
    outer loop
      vertex 21 -2.47807 3.92211
      vertex 11 -2.40187 3.86675
      vertex 11 -2.47807 3.92211
    endloop
  endfacet
  facet normal 0 -0.368112 0.929782
    outer loop
      vertex 11 -1.68067 3.82138
      vertex 21 -1.76824 3.78671
      vertex 21 -1.68067 3.82138
    endloop
  endfacet
  facet normal 0 -0.368112 0.929782
    outer loop
      vertex 21 -1.76824 3.78671
      vertex 11 -1.68067 3.82138
      vertex 11 -1.76824 3.78671
    endloop
  endfacet
  facet normal 0 0.951026 0.309111
    outer loop
      vertex 21 -2.69733 4.22391
      vertex 11 -2.70581 4.25
      vertex 21 -2.70581 4.25
    endloop
  endfacet
  facet normal 0 0.951026 0.309111
    outer loop
      vertex 11 -2.70581 4.25
      vertex 21 -2.69733 4.22391
      vertex 11 -2.69733 4.22391
    endloop
  endfacet
  facet normal 0 -0.684569 0.728948
    outer loop
      vertex 11 -1.45327 3.98659
      vertex 21 -1.52193 3.92211
      vertex 21 -1.45327 3.98659
    endloop
  endfacet
  facet normal 0 -0.684569 0.728948
    outer loop
      vertex 21 -1.52193 3.92211
      vertex 11 -1.45327 3.98659
      vertex 11 -1.52193 3.92211
    endloop
  endfacet
  facet normal 0 -0.481699 0.876337
    outer loop
      vertex 11 -1.59813 3.86675
      vertex 21 -1.68067 3.82138
      vertex 21 -1.59813 3.86675
    endloop
  endfacet
  facet normal 0 -0.481699 0.876337
    outer loop
      vertex 21 -1.68067 3.82138
      vertex 11 -1.59813 3.86675
      vertex 11 -1.68067 3.82138
    endloop
  endfacet
  facet normal -0 0.125276 0.992122
    outer loop
      vertex 11 -2.04709 3.75148
      vertex 21 -2.14054 3.76328
      vertex 21 -2.04709 3.75148
    endloop
  endfacet
  facet normal 0 0.125276 0.992122
    outer loop
      vertex 21 -2.14054 3.76328
      vertex 11 -2.04709 3.75148
      vertex 11 -2.14054 3.76328
    endloop
  endfacet
  facet normal -0 0.248776 0.968561
    outer loop
      vertex 11 -2.14054 3.76328
      vertex 21 -2.23176 3.78671
      vertex 21 -2.14054 3.76328
    endloop
  endfacet
  facet normal 0 0.248776 0.968561
    outer loop
      vertex 21 -2.23176 3.78671
      vertex 11 -2.14054 3.76328
      vertex 11 -2.23176 3.78671
    endloop
  endfacet
  facet normal 0 -0.844304 0.535865
    outer loop
      vertex 11 -1.39324 4.05916
      vertex 21 -1.34277 4.13868
      vertex 11 -1.34277 4.13868
    endloop
  endfacet
  facet normal 0 -0.844304 0.535865
    outer loop
      vertex 21 -1.34277 4.13868
      vertex 11 -1.39324 4.05916
      vertex 21 -1.39324 4.05916
    endloop
  endfacet
  facet normal 0 0.77054 0.637392
    outer loop
      vertex 21 -2.54673 3.98659
      vertex 11 -2.60676 4.05916
      vertex 21 -2.60676 4.05916
    endloop
  endfacet
  facet normal 0 0.77054 0.637392
    outer loop
      vertex 11 -2.60676 4.05916
      vertex 21 -2.54673 3.98659
      vertex 11 -2.54673 3.98659
    endloop
  endfacet
  facet normal 0 -0.587768 0.80903
    outer loop
      vertex 11 -1.52193 3.92211
      vertex 21 -1.59813 3.86675
      vertex 21 -1.52193 3.92211
    endloop
  endfacet
  facet normal 0 -0.587768 0.80903
    outer loop
      vertex 21 -1.59813 3.86675
      vertex 11 -1.52193 3.92211
      vertex 11 -1.59813 3.86675
    endloop
  endfacet
  facet normal -0 0 1
    outer loop
      vertex 11 -0.70581 4.25
      vertex 21 -0.75 4.25
      vertex 21 -0.70581 4.25
    endloop
  endfacet
  facet normal 0 0 1
    outer loop
      vertex 21 -0.75 4.25
      vertex 11 -0.70581 4.25
      vertex 11 -0.75 4.25
    endloop
  endfacet
  facet normal -0 0 1
    outer loop
      vertex 11 0.75 4.25
      vertex 21 0.70581 4.25
      vertex 21 0.75 4.25
    endloop
  endfacet
  facet normal 0 0 1
    outer loop
      vertex 21 0.70581 4.25
      vertex 11 0.75 4.25
      vertex 11 0.70581 4.25
    endloop
  endfacet
  facet normal 0 -1 0
    outer loop
      vertex 11 0.75 4.25
      vertex 21 0.75 5.5
      vertex 11 0.75 5.5
    endloop
  endfacet
  facet normal 0 -1 -0
    outer loop
      vertex 21 0.75 5.5
      vertex 11 0.75 4.25
      vertex 21 0.75 4.25
    endloop
  endfacet
  facet normal 0 1 -0
    outer loop
      vertex 21 -0.75 4.25
      vertex 11 -0.75 5.5
      vertex 21 -0.75 5.5
    endloop
  endfacet
  facet normal 0 1 0
    outer loop
      vertex 11 -0.75 5.5
      vertex 21 -0.75 4.25
      vertex 11 -0.75 4.25
    endloop
  endfacet
  facet normal -0 0 1
    outer loop
      vertex 11 1.29419 4.25
      vertex 21 1.25 4.25
      vertex 21 1.29419 4.25
    endloop
  endfacet
  facet normal 0 0 1
    outer loop
      vertex 21 1.25 4.25
      vertex 11 1.29419 4.25
      vertex 11 1.25 4.25
    endloop
  endfacet
  facet normal -0 0 1
    outer loop
      vertex 11 2.75 4.25
      vertex 21 2.70581 4.25
      vertex 21 2.75 4.25
    endloop
  endfacet
  facet normal 0 0 1
    outer loop
      vertex 21 2.70581 4.25
      vertex 11 2.75 4.25
      vertex 11 2.70581 4.25
    endloop
  endfacet
  facet normal 0 -1 0
    outer loop
      vertex 11 2.75 4.25
      vertex 21 2.75 5.5
      vertex 11 2.75 5.5
    endloop
  endfacet
  facet normal 0 -1 -0
    outer loop
      vertex 21 2.75 5.5
      vertex 11 2.75 4.25
      vertex 21 2.75 4.25
    endloop
  endfacet
  facet normal 0 1 -0
    outer loop
      vertex 21 1.25 4.25
      vertex 11 1.25 5.5
      vertex 21 1.25 5.5
    endloop
  endfacet
  facet normal 0 1 0
    outer loop
      vertex 11 1.25 5.5
      vertex 21 1.25 4.25
      vertex 11 1.25 4.25
    endloop
  endfacet
  facet normal -0 0 1
    outer loop
      vertex 11 -2.70581 4.25
      vertex 21 -2.75 4.25
      vertex 21 -2.70581 4.25
    endloop
  endfacet
  facet normal 0 0 1
    outer loop
      vertex 21 -2.75 4.25
      vertex 11 -2.70581 4.25
      vertex 11 -2.75 4.25
    endloop
  endfacet
  facet normal -0 0 1
    outer loop
      vertex 11 -1.25 4.25
      vertex 21 -1.29419 4.25
      vertex 21 -1.25 4.25
    endloop
  endfacet
  facet normal 0 0 1
    outer loop
      vertex 21 -1.29419 4.25
      vertex 11 -1.25 4.25
      vertex 11 -1.29419 4.25
    endloop
  endfacet
  facet normal 0 -1 0
    outer loop
      vertex 11 -1.25 4.25
      vertex 21 -1.25 5.5
      vertex 11 -1.25 5.5
    endloop
  endfacet
  facet normal 0 -1 -0
    outer loop
      vertex 21 -1.25 5.5
      vertex 11 -1.25 4.25
      vertex 21 -1.25 4.25
    endloop
  endfacet
  facet normal 0 1 -0
    outer loop
      vertex 21 -2.75 4.25
      vertex 11 -2.75 5.5
      vertex 21 -2.75 5.5
    endloop
  endfacet
  facet normal 0 1 0
    outer loop
      vertex 11 -2.75 5.5
      vertex 21 -2.75 4.25
      vertex 11 -2.75 4.25
    endloop
  endfacet
  facet normal 1 -0 0
    outer loop
      vertex 12 5.5 4.5
      vertex 12 7 2
      vertex 12 7 4.5
    endloop
  endfacet
  facet normal 1 0 0
    outer loop
      vertex 12 7 2
      vertex 12 5.5 4.5
      vertex 12 5.5 2
    endloop
  endfacet
  facet normal 0 0 1
    outer loop
      vertex 12 7 4.5
      vertex 11.5 5 4.5
      vertex 12 5.5 4.5
    endloop
  endfacet
  facet normal -0 0 1
    outer loop
      vertex 2 7 4.5
      vertex 11.5 5 4.5
      vertex 12 7 4.5
    endloop
  endfacet
  facet normal 0 0 1
    outer loop
      vertex 11.5 5 4.5
      vertex 2 7 4.5
      vertex 2 5 4.5
    endloop
  endfacet
  facet normal -0 0 1
    outer loop
      vertex -11 7 4.5
      vertex -2 5 4.5
      vertex -2 7 4.5
    endloop
  endfacet
  facet normal 0 0 1
    outer loop
      vertex -2 5 4.5
      vertex -11 7 4.5
      vertex -11 5 4.5
    endloop
  endfacet
  facet normal 0 1 0
    outer loop
      vertex 11 7 2
      vertex 12 7 4.5
      vertex 12 7 2
    endloop
  endfacet
  facet normal 0 1 0
    outer loop
      vertex 12 7 4.5
      vertex 11 7 2
      vertex 2 7 4.5
    endloop
  endfacet
  facet normal 0 1 0
    outer loop
      vertex 2 7 4.5
      vertex 11 7 2
      vertex 2 7 2
    endloop
  endfacet
  facet normal 0 1 0
    outer loop
      vertex -2 7 4.5
      vertex -2 7 2
      vertex -11 7 4.5
    endloop
  endfacet
  facet normal 0 1 -0
    outer loop
      vertex -11 7 4.5
      vertex -13 7 5
      vertex -11 7 5
    endloop
  endfacet
  facet normal 0 1 0
    outer loop
      vertex -11 7 2
      vertex -11 7 4.5
      vertex -2 7 2
    endloop
  endfacet
  facet normal 0 1 0
    outer loop
      vertex -13 7 2
      vertex -11 7 4.5
      vertex -11 7 2
    endloop
  endfacet
  facet normal 0 1 0
    outer loop
      vertex -11 7 4.5
      vertex -13 7 2
      vertex -13 7 5
    endloop
  endfacet
  facet normal 1 -0 0
    outer loop
      vertex 12 -7 4.5
      vertex 12 -5.5 2
      vertex 12 -5.5 4.5
    endloop
  endfacet
  facet normal 1 0 0
    outer loop
      vertex 12 -5.5 2
      vertex 12 -7 4.5
      vertex 12 -7 2
    endloop
  endfacet
  facet normal 0 0 1
    outer loop
      vertex 11.5 -5 4.5
      vertex 12 -7 4.5
      vertex 12 -5.5 4.5
    endloop
  endfacet
  facet normal 0 0 1
    outer loop
      vertex 2 -7 4.5
      vertex 11.5 -5 4.5
      vertex 2 -5 4.5
    endloop
  endfacet
  facet normal 0 0 1
    outer loop
      vertex 11.5 -5 4.5
      vertex 2 -7 4.5
      vertex 12 -7 4.5
    endloop
  endfacet
  facet normal -0 0 1
    outer loop
      vertex -11 -5 4.5
      vertex -2 -7 4.5
      vertex -2 -5 4.5
    endloop
  endfacet
  facet normal 0 0 1
    outer loop
      vertex -2 -7 4.5
      vertex -11 -5 4.5
      vertex -11 -7 4.5
    endloop
  endfacet
  facet normal 0 -1 0
    outer loop
      vertex 2 -7 2
      vertex 12 -7 4.5
      vertex 2 -7 4.5
    endloop
  endfacet
  facet normal 0 -1 -0
    outer loop
      vertex 12 -7 4.5
      vertex 2 -7 2
      vertex 12 -7 2
    endloop
  endfacet
  facet normal 0 -1 0
    outer loop
      vertex -13 -7 5
      vertex -11 -7 4.5
      vertex -11 -7 5
    endloop
  endfacet
  facet normal 0 -1 0
    outer loop
      vertex -13 -7 5
      vertex -13 -7 2
      vertex -11 -7 4.5
    endloop
  endfacet
  facet normal 0 -1 0
    outer loop
      vertex -2 -7 2
      vertex -11 -7 4.5
      vertex -13 -7 2
    endloop
  endfacet
  facet normal 0 -1 0
    outer loop
      vertex -11 -7 4.5
      vertex -2 -7 2
      vertex -2 -7 4.5
    endloop
  endfacet
  facet normal 1 0 0
    outer loop
      vertex -11 7 5
      vertex -11 5 4.5
      vertex -11 7 4.5
    endloop
  endfacet
  facet normal 1 0 0
    outer loop
      vertex -11 5 4.5
      vertex -11 -5 4.5
      vertex -11 5 2
    endloop
  endfacet
  facet normal 1 0 0
    outer loop
      vertex -11 7 5
      vertex -11 -5 4.5
      vertex -11 5 4.5
    endloop
  endfacet
  facet normal 1 -0 0
    outer loop
      vertex -11 -7 5
      vertex -11 -5 4.5
      vertex -11 7 5
    endloop
  endfacet
  facet normal 1 0 0
    outer loop
      vertex -11 -5 4.5
      vertex -11 -7 5
      vertex -11 -7 4.5
    endloop
  endfacet
  facet normal 1 0 0
    outer loop
      vertex -11 5 2
      vertex -11 -5 4.5
      vertex -11 -5 2
    endloop
  endfacet
  facet normal -0 0 1
    outer loop
      vertex -13 7 5
      vertex -11 -7 5
      vertex -11 7 5
    endloop
  endfacet
  facet normal 0 0 1
    outer loop
      vertex -11 -7 5
      vertex -13 7 5
      vertex -13 -7 5
    endloop
  endfacet
  facet normal -1 0 0
    outer loop
      vertex -13 -7 2
      vertex -13 7 5
      vertex -13 7 2
    endloop
  endfacet
  facet normal -1 0 0
    outer loop
      vertex -13 -7 2
      vertex -13 -7 5
      vertex -13 7 5
    endloop
  endfacet
endsolid OpenSCAD_Model
