solid OpenSCAD_Model
  facet normal 0.707107 0 0.707107
    outer loop
      vertex 8.75 3 3
      vertex 9.5 -2.25 2.25
      vertex 9.5 2.25 2.25
    endloop
  endfacet
  facet normal 0.707107 0 0.707107
    outer loop
      vertex 9.5 -2.25 2.25
      vertex 8.75 3 3
      vertex 8.75 -3 3
    endloop
  endfacet
  facet normal 0.707107 0.707107 -0
    outer loop
      vertex 9.5 2.25 0.750001
      vertex 8.75 3 3
      vertex 9.5 2.25 2.25
    endloop
  endfacet
  facet normal 0.707107 0.707107 0
    outer loop
      vertex 8.75 3 3
      vertex 9.5 2.25 0.750001
      vertex 8.75 3 0
    endloop
  endfacet
  facet normal 0.707107 0 -0.707106
    outer loop
      vertex 9.5 -2.25 0.750001
      vertex 8.75 3 0
      vertex 9.5 2.25 0.750001
    endloop
  endfacet
  facet normal 0.707107 0 -0.707106
    outer loop
      vertex 8.75 3 0
      vertex 9.5 -2.25 0.750001
      vertex 8.75 -3 0
    endloop
  endfacet
  facet normal 0.707107 -0.707107 0
    outer loop
      vertex 8.75 -3 3
      vertex 9.5 -2.25 0.750001
      vertex 9.5 -2.25 2.25
    endloop
  endfacet
  facet normal 0.707107 -0.707107 0
    outer loop
      vertex 9.5 -2.25 0.750001
      vertex 8.75 -3 3
      vertex 8.75 -3 0
    endloop
  endfacet
  facet normal 0 1 -0
    outer loop
      vertex 8.75 3 0
      vertex 7.5 3 3
      vertex 8.75 3 3
    endloop
  endfacet
  facet normal 0 1 0
    outer loop
      vertex 7.5 3 3
      vertex 8.75 3 0
      vertex 7.5 3 0
    endloop
  endfacet
  facet normal 1 -0 0
    outer loop
      vertex 9.5 -2.25 2.25
      vertex 9.5 2.25 0.750001
      vertex 9.5 2.25 2.25
    endloop
  endfacet
  facet normal 1 0 0
    outer loop
      vertex 9.5 2.25 0.750001
      vertex 9.5 -2.25 2.25
      vertex 9.5 -2.25 0.750001
    endloop
  endfacet
  facet normal -1 0 0
    outer loop
      vertex 7.5 2 0
      vertex 7.5 3 3
      vertex 7.5 3 0
    endloop
  endfacet
  facet normal -1 -0 0
    outer loop
      vertex 7.5 3 3
      vertex 7.5 2 0
      vertex 7.5 2 3
    endloop
  endfacet
  facet normal -1 0 0
    outer loop
      vertex 7.5 -3 0
      vertex 7.5 -2 3
      vertex 7.5 -2 0
    endloop
  endfacet
  facet normal -1 -0 0
    outer loop
      vertex 7.5 -2 3
      vertex 7.5 -3 0
      vertex 7.5 -3 3
    endloop
  endfacet
  facet normal 0 -1 0
    outer loop
      vertex 7.5 -3 0
      vertex 8.75 -3 3
      vertex 7.5 -3 3
    endloop
  endfacet
  facet normal 0 -1 -0
    outer loop
      vertex 8.75 -3 3
      vertex 7.5 -3 0
      vertex 8.75 -3 0
    endloop
  endfacet
  facet normal -0 0 1
    outer loop
      vertex -7 2 3
      vertex 7.5 -2 3
      vertex 7.5 2 3
    endloop
  endfacet
  facet normal 0 0 1
    outer loop
      vertex 7.5 -2 3
      vertex -7 2 3
      vertex -7 -2 3
    endloop
  endfacet
  facet normal 0 0 1
    outer loop
      vertex 7.5 2 3
      vertex 8.75 3 3
      vertex 7.5 3 3
    endloop
  endfacet
  facet normal 0 0 1
    outer loop
      vertex 8.75 3 3
      vertex 7.5 2 3
      vertex 8.75 -3 3
    endloop
  endfacet
  facet normal -0 0 1
    outer loop
      vertex 7.5 -2 3
      vertex 8.75 -3 3
      vertex 7.5 2 3
    endloop
  endfacet
  facet normal 0 0 1
    outer loop
      vertex 8.75 -3 3
      vertex 7.5 -2 3
      vertex 7.5 -3 3
    endloop
  endfacet
  facet normal 0 0 -1
    outer loop
      vertex -7 -2 0
      vertex 7.5 2 0
      vertex 7.5 -2 0
    endloop
  endfacet
  facet normal -0 0 -1
    outer loop
      vertex 7.5 2 0
      vertex -7 -2 0
      vertex -7 2 0
    endloop
  endfacet
  facet normal 0 0 -1
    outer loop
      vertex 7.5 -2 0
      vertex 8.75 -3 0
      vertex 7.5 -3 0
    endloop
  endfacet
  facet normal 0 0 -1
    outer loop
      vertex 8.75 -3 0
      vertex 7.5 -2 0
      vertex 8.75 3 0
    endloop
  endfacet
  facet normal 0 0 -1
    outer loop
      vertex 7.5 2 0
      vertex 8.75 3 0
      vertex 7.5 -2 0
    endloop
  endfacet
  facet normal -0 0 -1
    outer loop
      vertex 8.75 3 0
      vertex 7.5 2 0
      vertex 7.5 3 0
    endloop
  endfacet
  facet normal -0.5547 -0.83205 0
    outer loop
      vertex -8.5 -1 0.5
      vertex -7 -2 3
      vertex -8.5 -1 2.5
    endloop
  endfacet
  facet normal -0.5547 -0.83205 -0
    outer loop
      vertex -7 -2 3
      vertex -8.5 -1 0.5
      vertex -7 -2 0
    endloop
  endfacet
  facet normal 0 -1 0
    outer loop
      vertex -7 -2 0
      vertex 7.5 -2 3
      vertex -7 -2 3
    endloop
  endfacet
  facet normal 0 -1 -0
    outer loop
      vertex 7.5 -2 3
      vertex -7 -2 0
      vertex 7.5 -2 0
    endloop
  endfacet
  facet normal -0.5547 0.83205 0
    outer loop
      vertex -7 2 3
      vertex -8.5 1 0.5
      vertex -8.5 1 2.5
    endloop
  endfacet
  facet normal -0.5547 0.83205 0
    outer loop
      vertex -8.5 1 0.5
      vertex -7 2 3
      vertex -7 2 0
    endloop
  endfacet
  facet normal 0 1 -0
    outer loop
      vertex 7.5 2 0
      vertex -7 2 3
      vertex 7.5 2 3
    endloop
  endfacet
  facet normal 0 1 0
    outer loop
      vertex -7 2 3
      vertex 7.5 2 0
      vertex -7 2 0
    endloop
  endfacet
  facet normal -0.316228 0 0.948683
    outer loop
      vertex -8.5 1 2.5
      vertex -7 -2 3
      vertex -7 2 3
    endloop
  endfacet
  facet normal -0.316228 0 0.948683
    outer loop
      vertex -7 -2 3
      vertex -8.5 1 2.5
      vertex -8.5 -1 2.5
    endloop
  endfacet
  facet normal -0.316228 0 -0.948683
    outer loop
      vertex -8.5 -1 0.5
      vertex -7 2 0
      vertex -7 -2 0
    endloop
  endfacet
  facet normal -0.316228 0 -0.948683
    outer loop
      vertex -7 2 0
      vertex -8.5 -1 0.5
      vertex -8.5 1 0.5
    endloop
  endfacet
  facet normal -1 0 0
    outer loop
      vertex -8.5 -1 0.5
      vertex -8.5 1 2.5
      vertex -8.5 1 0.5
    endloop
  endfacet
  facet normal -1 -0 0
    outer loop
      vertex -8.5 1 2.5
      vertex -8.5 -1 0.5
      vertex -8.5 -1 2.5
    endloop
  endfacet
endsolid OpenSCAD_Model
