G04 #@! TF.GenerationSoftware,KiCad,Pcbnew,7.0.10-7.0.10~ubuntu23.10.1*
G04 #@! TF.CreationDate,2024-01-06T16:48:24+01:00*
G04 #@! TF.ProjectId,valiant-turtle-2,76616c69-616e-4742-9d74-7572746c652d,rev?*
G04 #@! TF.SameCoordinates,Original*
G04 #@! TF.FileFunction,Soldermask,Top*
G04 #@! TF.FilePolarity,Negative*
%FSLAX46Y46*%
G04 Gerber Fmt 4.6, Leading zero omitted, Abs format (unit mm)*
G04 Created by KiCad (PCBNEW 7.0.10-7.0.10~ubuntu23.10.1) date 2024-01-06 16:48:24*
%MOMM*%
%LPD*%
G01*
G04 APERTURE LIST*
G04 Aperture macros list*
%AMRoundRect*
0 Rectangle with rounded corners*
0 $1 Rounding radius*
0 $2 $3 $4 $5 $6 $7 $8 $9 X,Y pos of 4 corners*
0 Add a 4 corners polygon primitive as box body*
4,1,4,$2,$3,$4,$5,$6,$7,$8,$9,$2,$3,0*
0 Add four circle primitives for the rounded corners*
1,1,$1+$1,$2,$3*
1,1,$1+$1,$4,$5*
1,1,$1+$1,$6,$7*
1,1,$1+$1,$8,$9*
0 Add four rect primitives between the rounded corners*
20,1,$1+$1,$2,$3,$4,$5,0*
20,1,$1+$1,$4,$5,$6,$7,0*
20,1,$1+$1,$6,$7,$8,$9,0*
20,1,$1+$1,$8,$9,$2,$3,0*%
%AMHorizOval*
0 Thick line with rounded ends*
0 $1 width*
0 $2 $3 position (X,Y) of the first rounded end (center of the circle)*
0 $4 $5 position (X,Y) of the second rounded end (center of the circle)*
0 Add line between two ends*
20,1,$1,$2,$3,$4,$5,0*
0 Add two circle primitives to create the rounded ends*
1,1,$1,$2,$3*
1,1,$1,$4,$5*%
%AMFreePoly0*
4,1,28,0.178017,0.779942,0.347107,0.720775,0.498792,0.625465,0.625465,0.498792,0.720775,0.347107,0.779942,0.178017,0.800000,0.000000,0.779942,-0.178017,0.720775,-0.347107,0.625465,-0.498792,0.498792,-0.625465,0.347107,-0.720775,0.178017,-0.779942,0.000000,-0.800000,-2.200000,-0.800000,-2.205014,-0.794986,-2.244504,-0.794986,-2.324698,-0.756366,-2.380194,-0.686777,-2.400000,-0.600000,
-2.400000,0.600000,-2.380194,0.686777,-2.324698,0.756366,-2.244504,0.794986,-2.205014,0.794986,-2.200000,0.800000,0.000000,0.800000,0.178017,0.779942,0.178017,0.779942,$1*%
%AMFreePoly1*
4,1,28,0.605014,0.794986,0.644504,0.794986,0.724698,0.756366,0.780194,0.686777,0.800000,0.600000,0.800000,-0.600000,0.780194,-0.686777,0.724698,-0.756366,0.644504,-0.794986,0.605014,-0.794986,0.600000,-0.800000,0.000000,-0.800000,-0.178017,-0.779942,-0.347107,-0.720775,-0.498792,-0.625465,-0.625465,-0.498792,-0.720775,-0.347107,-0.779942,-0.178017,-0.800000,0.000000,-0.779942,0.178017,
-0.720775,0.347107,-0.625465,0.498792,-0.498792,0.625465,-0.347107,0.720775,-0.178017,0.779942,0.000000,0.800000,0.600000,0.800000,0.605014,0.794986,0.605014,0.794986,$1*%
%AMFreePoly2*
4,1,29,0.605014,0.794986,0.644504,0.794986,0.724698,0.756366,0.780194,0.686777,0.800000,0.600000,0.800000,-0.600000,0.780194,-0.686777,0.724698,-0.756366,0.644504,-0.794986,0.605014,-0.794986,0.600000,-0.800000,0.000000,-0.800000,-1.600000,-0.800000,-1.778017,-0.779942,-1.947107,-0.720775,-2.098792,-0.625465,-2.225465,-0.498792,-2.320775,-0.347107,-2.379942,-0.178017,-2.400000,0.000000,
-2.379942,0.178017,-2.320775,0.347107,-2.225465,0.498792,-2.098792,0.625465,-1.947107,0.720775,-1.778017,0.779942,-1.600000,0.800000,0.600000,0.800000,0.605014,0.794986,0.605014,0.794986,$1*%
%AMFreePoly3*
4,1,28,0.178017,0.779942,0.347107,0.720775,0.498792,0.625465,0.625465,0.498792,0.720775,0.347107,0.779942,0.178017,0.800000,0.000000,0.779942,-0.178017,0.720775,-0.347107,0.625465,-0.498792,0.498792,-0.625465,0.347107,-0.720775,0.178017,-0.779942,0.000000,-0.800000,-0.600000,-0.800000,-0.605014,-0.794986,-0.644504,-0.794986,-0.724698,-0.756366,-0.780194,-0.686777,-0.800000,-0.600000,
-0.800000,0.600000,-0.780194,0.686777,-0.724698,0.756366,-0.644504,0.794986,-0.605014,0.794986,-0.600000,0.800000,0.000000,0.800000,0.178017,0.779942,0.178017,0.779942,$1*%
%AMFreePoly4*
4,1,29,1.778017,0.779942,1.947107,0.720775,2.098792,0.625465,2.225465,0.498792,2.320775,0.347107,2.379942,0.178017,2.400000,0.000000,2.379942,-0.178017,2.320775,-0.347107,2.225465,-0.498792,2.098792,-0.625465,1.947107,-0.720775,1.778017,-0.779942,1.600000,-0.800000,0.000000,-0.800000,-0.600000,-0.800000,-0.605014,-0.794986,-0.644504,-0.794986,-0.724698,-0.756366,-0.780194,-0.686777,
-0.800000,-0.600000,-0.800000,0.600000,-0.780194,0.686777,-0.724698,0.756366,-0.644504,0.794986,-0.605014,0.794986,-0.600000,0.800000,1.600000,0.800000,1.778017,0.779942,1.778017,0.779942,$1*%
G04 Aperture macros list end*
%ADD10RoundRect,0.250000X0.337500X0.475000X-0.337500X0.475000X-0.337500X-0.475000X0.337500X-0.475000X0*%
%ADD11RoundRect,0.250000X-1.750000X-1.000000X1.750000X-1.000000X1.750000X1.000000X-1.750000X1.000000X0*%
%ADD12RoundRect,0.250000X-0.337500X-0.475000X0.337500X-0.475000X0.337500X0.475000X-0.337500X0.475000X0*%
%ADD13RoundRect,0.250000X-0.350000X-0.450000X0.350000X-0.450000X0.350000X0.450000X-0.350000X0.450000X0*%
%ADD14RoundRect,0.250000X0.527882X-0.802397X0.898703X0.338871X-0.527882X0.802397X-0.898703X-0.338871X0*%
%ADD15HorizOval,1.700000X-0.142658X0.046353X0.142658X-0.046353X0*%
%ADD16RoundRect,0.250000X0.350000X0.450000X-0.350000X0.450000X-0.350000X-0.450000X0.350000X-0.450000X0*%
%ADD17RoundRect,0.250000X-1.000000X1.750000X-1.000000X-1.750000X1.000000X-1.750000X1.000000X1.750000X0*%
%ADD18R,1.700000X1.700000*%
%ADD19O,1.700000X1.700000*%
%ADD20C,2.700000*%
%ADD21R,1.600000X1.600000*%
%ADD22O,1.600000X1.600000*%
%ADD23RoundRect,0.250000X0.300000X-2.050000X0.300000X2.050000X-0.300000X2.050000X-0.300000X-2.050000X0*%
%ADD24RoundRect,0.250002X5.149998X-4.449998X5.149998X4.449998X-5.149998X4.449998X-5.149998X-4.449998X0*%
%ADD25R,3.150000X12.500000*%
%ADD26C,3.200000*%
%ADD27RoundRect,0.150000X0.150000X0.625000X-0.150000X0.625000X-0.150000X-0.625000X0.150000X-0.625000X0*%
%ADD28RoundRect,0.250000X0.350000X0.650000X-0.350000X0.650000X-0.350000X-0.650000X0.350000X-0.650000X0*%
%ADD29RoundRect,0.150000X0.587500X0.150000X-0.587500X0.150000X-0.587500X-0.150000X0.587500X-0.150000X0*%
%ADD30R,2.000000X1.500000*%
%ADD31R,2.000000X3.800000*%
%ADD32RoundRect,0.250001X-0.499999X-0.924999X0.499999X-0.924999X0.499999X0.924999X-0.499999X0.924999X0*%
%ADD33RoundRect,0.250000X0.911555X0.233866X-0.059266X0.939208X-0.911555X-0.233866X0.059266X-0.939208X0*%
%ADD34HorizOval,1.700000X0.073473X0.101127X-0.073473X-0.101127X0*%
%ADD35RoundRect,0.250000X1.000000X-1.950000X1.000000X1.950000X-1.000000X1.950000X-1.000000X-1.950000X0*%
%ADD36RoundRect,0.250000X0.504106X-0.794671X0.874926X0.346597X-0.504106X0.794671X-0.874926X-0.346597X0*%
%ADD37HorizOval,1.700000X-0.118882X0.038627X0.118882X-0.038627X0*%
%ADD38RoundRect,0.250000X-0.874926X0.346597X-0.504106X-0.794671X0.874926X-0.346597X0.504106X0.794671X0*%
%ADD39HorizOval,1.700000X-0.118882X-0.038627X0.118882X0.038627X0*%
%ADD40C,2.200000*%
%ADD41C,1.850000*%
%ADD42RoundRect,0.200000X-0.600000X-0.600000X0.600000X-0.600000X0.600000X0.600000X-0.600000X0.600000X0*%
%ADD43FreePoly0,0.000000*%
%ADD44C,1.600000*%
%ADD45RoundRect,0.800000X-0.800000X0.000000X0.800000X0.000000X0.800000X0.000000X-0.800000X0.000000X0*%
%ADD46FreePoly1,0.000000*%
%ADD47FreePoly2,0.000000*%
%ADD48FreePoly3,0.000000*%
%ADD49FreePoly4,0.000000*%
%ADD50RoundRect,0.250000X1.000000X-1.750000X1.000000X1.750000X-1.000000X1.750000X-1.000000X-1.750000X0*%
%ADD51RoundRect,0.250000X-0.475000X0.337500X-0.475000X-0.337500X0.475000X-0.337500X0.475000X0.337500X0*%
%ADD52RoundRect,0.250000X0.325000X0.450000X-0.325000X0.450000X-0.325000X-0.450000X0.325000X-0.450000X0*%
%ADD53RoundRect,0.250000X0.475000X-0.337500X0.475000X0.337500X-0.475000X0.337500X-0.475000X-0.337500X0*%
%ADD54R,1.550000X1.300000*%
%ADD55RoundRect,0.100000X0.100000X-0.637500X0.100000X0.637500X-0.100000X0.637500X-0.100000X-0.637500X0*%
G04 APERTURE END LIST*
D10*
X87419000Y-51562000D03*
X85344000Y-51562000D03*
D11*
X49020000Y-96012000D03*
X55120000Y-96012000D03*
D12*
X59690000Y-62738000D03*
X61765000Y-62738000D03*
D13*
X54912000Y-123952000D03*
X56912000Y-123952000D03*
D14*
X44947458Y-85435641D03*
D15*
X45720000Y-83058000D03*
D16*
X75184000Y-138430000D03*
X73184000Y-138430000D03*
D17*
X120396000Y-105416000D03*
X120396000Y-111516000D03*
D13*
X65088000Y-127000000D03*
X67088000Y-127000000D03*
D18*
X139954000Y-61722000D03*
D19*
X139954000Y-64262000D03*
X139954000Y-66802000D03*
D20*
X111125000Y-153416000D03*
D13*
X73216000Y-132334000D03*
X75216000Y-132334000D03*
D21*
X126746000Y-115062000D03*
D22*
X129286000Y-115062000D03*
X131826000Y-115062000D03*
X134366000Y-115062000D03*
X136906000Y-115062000D03*
X139446000Y-115062000D03*
X141986000Y-115062000D03*
X144526000Y-115062000D03*
X144526000Y-102362000D03*
X141986000Y-102362000D03*
X139446000Y-102362000D03*
X136906000Y-102362000D03*
X134366000Y-102362000D03*
X131826000Y-102362000D03*
X129286000Y-102362000D03*
X126746000Y-102362000D03*
D13*
X58960000Y-121920000D03*
X60960000Y-121920000D03*
D23*
X67876000Y-58928000D03*
X69576000Y-58928000D03*
X71276000Y-58928000D03*
D24*
X71276000Y-49778000D03*
D23*
X72976000Y-58928000D03*
X74676000Y-58928000D03*
D25*
X59834000Y-73914000D03*
X75184000Y-73914000D03*
D26*
X95981600Y-48312000D03*
D27*
X88833000Y-49022000D03*
X87833000Y-49022000D03*
X86833000Y-49022000D03*
X85833000Y-49022000D03*
D28*
X90133000Y-45147000D03*
X84533000Y-45147000D03*
D29*
X60992000Y-125852000D03*
X60992000Y-123952000D03*
X59117000Y-124902000D03*
D16*
X71120000Y-129032000D03*
X69120000Y-129032000D03*
D18*
X135890000Y-66802000D03*
D12*
X69357000Y-62738000D03*
X71432000Y-62738000D03*
D18*
X78486000Y-85852000D03*
D19*
X81026000Y-85852000D03*
X83566000Y-85852000D03*
D30*
X81077000Y-71868000D03*
X81077000Y-74168000D03*
D31*
X87377000Y-74168000D03*
D30*
X81077000Y-76468000D03*
D32*
X80824000Y-68580000D03*
X84074000Y-68580000D03*
D33*
X61385040Y-140977123D03*
D34*
X59362498Y-139507660D03*
X57339955Y-138038197D03*
X55317413Y-136568734D03*
X53294870Y-135099270D03*
X51272328Y-133629807D03*
X49249785Y-132160344D03*
D29*
X75059000Y-136332000D03*
X75059000Y-134432000D03*
X73184000Y-135382000D03*
D35*
X82804000Y-63246000D03*
X82804000Y-54846000D03*
D18*
X92075000Y-118110000D03*
D19*
X94615000Y-118110000D03*
X97155000Y-118110000D03*
X99695000Y-118110000D03*
D36*
X47752000Y-76200000D03*
D37*
X48524542Y-73822359D03*
X49297085Y-71444717D03*
D12*
X73363000Y-62738000D03*
X75438000Y-62738000D03*
D16*
X107442000Y-74168000D03*
X105442000Y-74168000D03*
D38*
X152400000Y-101600000D03*
D39*
X153172542Y-103977641D03*
X153945085Y-106355283D03*
X154717627Y-108732924D03*
D18*
X136144000Y-94234000D03*
D19*
X136144000Y-91694000D03*
X136144000Y-89154000D03*
X136144000Y-86614000D03*
X136144000Y-84074000D03*
D40*
X118941000Y-46485000D03*
D41*
X119241000Y-49515000D03*
X124091000Y-49515000D03*
D40*
X124391000Y-46485000D03*
D42*
X112776000Y-46355000D03*
D43*
X112776000Y-46355000D03*
D44*
X112776000Y-48895000D03*
D45*
X111976000Y-48895000D03*
D46*
X112776000Y-51435000D03*
D47*
X112776000Y-51435000D03*
D44*
X112776000Y-53975000D03*
D45*
X111976000Y-53975000D03*
D44*
X112776000Y-56515000D03*
D45*
X111976000Y-56515000D03*
D44*
X112776000Y-59055000D03*
D45*
X111976000Y-59055000D03*
D44*
X112776000Y-61595000D03*
D45*
X111976000Y-61595000D03*
D46*
X112776000Y-64135000D03*
D47*
X112776000Y-64135000D03*
D44*
X112776000Y-66675000D03*
D45*
X111976000Y-66675000D03*
D44*
X112776000Y-69215000D03*
D45*
X111976000Y-69215000D03*
D44*
X112776000Y-71755000D03*
D45*
X111976000Y-71755000D03*
D44*
X112776000Y-74295000D03*
D45*
X111976000Y-74295000D03*
D46*
X112776000Y-76835000D03*
D47*
X112776000Y-76835000D03*
D44*
X112776000Y-79375000D03*
D45*
X111976000Y-79375000D03*
D44*
X112776000Y-81915000D03*
D45*
X111976000Y-81915000D03*
D44*
X112776000Y-84455000D03*
D45*
X111976000Y-84455000D03*
D44*
X112776000Y-86995000D03*
D45*
X111976000Y-86995000D03*
D46*
X112776000Y-89535000D03*
D47*
X112776000Y-89535000D03*
D44*
X112776000Y-92075000D03*
D45*
X111976000Y-92075000D03*
D44*
X112776000Y-94615000D03*
D45*
X111976000Y-94615000D03*
D44*
X130556000Y-94615000D03*
D45*
X131356000Y-94615000D03*
D44*
X130556000Y-92075000D03*
D45*
X131356000Y-92075000D03*
D48*
X130556000Y-89535000D03*
D49*
X130556000Y-89535000D03*
D44*
X130556000Y-86995000D03*
D45*
X131356000Y-86995000D03*
D44*
X130556000Y-84455000D03*
D45*
X131356000Y-84455000D03*
D44*
X130556000Y-81915000D03*
D45*
X131356000Y-81915000D03*
D44*
X130556000Y-79375000D03*
D45*
X131356000Y-79375000D03*
D48*
X130556000Y-76835000D03*
D49*
X130556000Y-76835000D03*
D44*
X130556000Y-74295000D03*
D45*
X131356000Y-74295000D03*
D44*
X130556000Y-71755000D03*
D45*
X131356000Y-71755000D03*
D44*
X130556000Y-69215000D03*
D45*
X131356000Y-69215000D03*
D44*
X130556000Y-66675000D03*
D45*
X131356000Y-66675000D03*
D48*
X130556000Y-64135000D03*
D49*
X130556000Y-64135000D03*
D44*
X130556000Y-61595000D03*
D45*
X131356000Y-61595000D03*
D44*
X130556000Y-59055000D03*
D45*
X131356000Y-59055000D03*
D44*
X130556000Y-56515000D03*
D45*
X131356000Y-56515000D03*
D44*
X130556000Y-53975000D03*
D45*
X131356000Y-53975000D03*
D48*
X130556000Y-51435000D03*
D49*
X130556000Y-51435000D03*
D44*
X130556000Y-48895000D03*
D45*
X131356000Y-48895000D03*
D44*
X130556000Y-46355000D03*
D45*
X131356000Y-46355000D03*
D16*
X81205000Y-48006000D03*
X79205000Y-48006000D03*
D13*
X105458000Y-79375000D03*
X107458000Y-79375000D03*
D50*
X60256000Y-58928000D03*
X60256000Y-52828000D03*
D13*
X69120000Y-136398000D03*
X71120000Y-136398000D03*
D20*
X80645000Y-153416000D03*
D18*
X107188000Y-46228000D03*
D19*
X107188000Y-48768000D03*
X107188000Y-51308000D03*
D51*
X59436000Y-85555000D03*
X59436000Y-87630000D03*
D52*
X81255000Y-45212000D03*
X79205000Y-45212000D03*
D20*
X111125000Y-114554000D03*
D13*
X69136000Y-122936000D03*
X71136000Y-122936000D03*
X54928000Y-125984000D03*
X56928000Y-125984000D03*
X69120000Y-134366000D03*
X71120000Y-134366000D03*
D29*
X70995000Y-126934000D03*
X70995000Y-125034000D03*
X69120000Y-125984000D03*
D18*
X107188000Y-67818000D03*
D26*
X35981600Y-120312000D03*
D21*
X49022000Y-115062000D03*
D22*
X51562000Y-115062000D03*
X54102000Y-115062000D03*
X56642000Y-115062000D03*
X59182000Y-115062000D03*
X61722000Y-115062000D03*
X64262000Y-115062000D03*
X66802000Y-115062000D03*
X66802000Y-102362000D03*
X64262000Y-102362000D03*
X61722000Y-102362000D03*
X59182000Y-102362000D03*
X56642000Y-102362000D03*
X54102000Y-102362000D03*
X51562000Y-102362000D03*
X49022000Y-102362000D03*
D20*
X80645000Y-114554000D03*
D36*
X37338000Y-108966000D03*
D37*
X38110542Y-106588359D03*
X38883085Y-104210717D03*
X39655627Y-101833076D03*
D53*
X78639000Y-73957000D03*
X78639000Y-71882000D03*
D32*
X80772000Y-79756000D03*
X84022000Y-79756000D03*
D16*
X107442000Y-71882000D03*
X105442000Y-71882000D03*
D18*
X107188000Y-94488000D03*
D19*
X107188000Y-91948000D03*
D26*
X155981600Y-120312000D03*
D17*
X139954000Y-72390000D03*
X139954000Y-78490000D03*
D16*
X60960000Y-128016000D03*
X58960000Y-128016000D03*
D54*
X98425000Y-146884000D03*
X106375000Y-146884000D03*
X98425000Y-151384000D03*
X106375000Y-151384000D03*
X85395000Y-146884000D03*
X93345000Y-146884000D03*
X85395000Y-151384000D03*
X93345000Y-151384000D03*
D55*
X52346000Y-89365000D03*
X52996000Y-89365000D03*
X53646000Y-89365000D03*
X54296000Y-89365000D03*
X54946000Y-89365000D03*
X55596000Y-89365000D03*
X56246000Y-89365000D03*
X56896000Y-89365000D03*
X56896000Y-83640000D03*
X56246000Y-83640000D03*
X55596000Y-83640000D03*
X54946000Y-83640000D03*
X54296000Y-83640000D03*
X53646000Y-83640000D03*
X52996000Y-83640000D03*
X52346000Y-83640000D03*
D13*
X105442000Y-81788000D03*
X107442000Y-81788000D03*
X65072000Y-124968000D03*
X67072000Y-124968000D03*
M02*
