G04 #@! TF.GenerationSoftware,KiCad,Pcbnew,7.0.10-7.0.10~ubuntu23.10.1*
G04 #@! TF.CreationDate,2024-01-06T16:48:24+01:00*
G04 #@! TF.ProjectId,valiant-turtle-2,76616c69-616e-4742-9d74-7572746c652d,rev?*
G04 #@! TF.SameCoordinates,Original*
G04 #@! TF.FileFunction,Legend,Bot*
G04 #@! TF.FilePolarity,Positive*
%FSLAX46Y46*%
G04 Gerber Fmt 4.6, Leading zero omitted, Abs format (unit mm)*
G04 Created by KiCad (PCBNEW 7.0.10-7.0.10~ubuntu23.10.1) date 2024-01-06 16:48:24*
%MOMM*%
%LPD*%
G01*
G04 APERTURE LIST*
G04 Aperture macros list*
%AMRoundRect*
0 Rectangle with rounded corners*
0 $1 Rounding radius*
0 $2 $3 $4 $5 $6 $7 $8 $9 X,Y pos of 4 corners*
0 Add a 4 corners polygon primitive as box body*
4,1,4,$2,$3,$4,$5,$6,$7,$8,$9,$2,$3,0*
0 Add four circle primitives for the rounded corners*
1,1,$1+$1,$2,$3*
1,1,$1+$1,$4,$5*
1,1,$1+$1,$6,$7*
1,1,$1+$1,$8,$9*
0 Add four rect primitives between the rounded corners*
20,1,$1+$1,$2,$3,$4,$5,0*
20,1,$1+$1,$4,$5,$6,$7,0*
20,1,$1+$1,$6,$7,$8,$9,0*
20,1,$1+$1,$8,$9,$2,$3,0*%
%AMHorizOval*
0 Thick line with rounded ends*
0 $1 width*
0 $2 $3 position (X,Y) of the first rounded end (center of the circle)*
0 $4 $5 position (X,Y) of the second rounded end (center of the circle)*
0 Add line between two ends*
20,1,$1,$2,$3,$4,$5,0*
0 Add two circle primitives to create the rounded ends*
1,1,$1,$2,$3*
1,1,$1,$4,$5*%
%AMFreePoly0*
4,1,28,0.605014,0.794986,0.644504,0.794986,0.724698,0.756366,0.780194,0.686777,0.800000,0.600000,0.800000,-0.600000,0.780194,-0.686777,0.724698,-0.756366,0.644504,-0.794986,0.605014,-0.794986,0.600000,-0.800000,0.000000,-0.800000,-0.178017,-0.779942,-0.347107,-0.720775,-0.498792,-0.625465,-0.625465,-0.498792,-0.720775,-0.347107,-0.779942,-0.178017,-0.800000,0.000000,-0.779942,0.178017,
-0.720775,0.347107,-0.625465,0.498792,-0.498792,0.625465,-0.347107,0.720775,-0.178017,0.779942,0.000000,0.800000,0.600000,0.800000,0.605014,0.794986,0.605014,0.794986,$1*%
%AMFreePoly1*
4,1,28,0.178017,0.779942,0.347107,0.720775,0.498792,0.625465,0.625465,0.498792,0.720775,0.347107,0.779942,0.178017,0.800000,0.000000,0.779942,-0.178017,0.720775,-0.347107,0.625465,-0.498792,0.498792,-0.625465,0.347107,-0.720775,0.178017,-0.779942,0.000000,-0.800000,-0.600000,-0.800000,-0.605014,-0.794986,-0.644504,-0.794986,-0.724698,-0.756366,-0.780194,-0.686777,-0.800000,-0.600000,
-0.800000,0.600000,-0.780194,0.686777,-0.724698,0.756366,-0.644504,0.794986,-0.605014,0.794986,-0.600000,0.800000,0.000000,0.800000,0.178017,0.779942,0.178017,0.779942,$1*%
G04 Aperture macros list end*
%ADD10C,0.500000*%
%ADD11C,0.150000*%
%ADD12RoundRect,0.250000X0.527882X-0.802397X0.898703X0.338871X-0.527882X0.802397X-0.898703X-0.338871X0*%
%ADD13HorizOval,1.700000X-0.142658X0.046353X0.142658X-0.046353X0*%
%ADD14R,1.700000X1.700000*%
%ADD15O,1.700000X1.700000*%
%ADD16C,2.700000*%
%ADD17R,1.600000X1.600000*%
%ADD18O,1.600000X1.600000*%
%ADD19C,3.200000*%
%ADD20RoundRect,0.250000X0.911555X0.233866X-0.059266X0.939208X-0.911555X-0.233866X0.059266X-0.939208X0*%
%ADD21HorizOval,1.700000X0.073473X0.101127X-0.073473X-0.101127X0*%
%ADD22RoundRect,0.250000X0.504106X-0.794671X0.874926X0.346597X-0.504106X0.794671X-0.874926X-0.346597X0*%
%ADD23HorizOval,1.700000X-0.118882X0.038627X0.118882X-0.038627X0*%
%ADD24RoundRect,0.250000X-0.874926X0.346597X-0.504106X-0.794671X0.874926X-0.346597X0.504106X0.794671X0*%
%ADD25HorizOval,1.700000X-0.118882X-0.038627X0.118882X0.038627X0*%
%ADD26C,2.200000*%
%ADD27C,1.850000*%
%ADD28RoundRect,0.200000X-0.600000X-0.600000X0.600000X-0.600000X0.600000X0.600000X-0.600000X0.600000X0*%
%ADD29C,1.600000*%
%ADD30FreePoly0,0.000000*%
%ADD31FreePoly1,0.000000*%
G04 APERTURE END LIST*
D10*
X106895190Y-123233198D02*
X110895190Y-123733198D01*
X110956790Y-123744901D01*
X111016591Y-123764299D01*
X111073390Y-123791101D01*
X111126390Y-123824701D01*
X111174790Y-123864698D01*
X111217790Y-123910501D01*
X111254590Y-123961301D01*
X111284890Y-124016302D01*
X111307990Y-124074701D01*
X111323590Y-124135500D01*
X111331491Y-124197801D01*
X111331491Y-136260603D01*
X111323590Y-136322904D01*
X111307990Y-136383710D01*
X111284890Y-136442091D01*
X111254590Y-136497114D01*
X111217790Y-136547926D01*
X111174790Y-136593687D01*
X111126390Y-136633711D01*
X111073390Y-136667356D01*
X111016591Y-136694090D01*
X108196191Y-137634184D01*
X108196191Y-141246410D01*
X107073789Y-142791299D01*
X107126390Y-142824689D01*
X111126390Y-145824690D01*
X111174790Y-145864710D01*
X111217790Y-145910470D01*
X111254590Y-145961290D01*
X111284890Y-146016310D01*
X111307990Y-146074690D01*
X111323590Y-146135500D01*
X111331491Y-146197800D01*
X111331491Y-150260600D01*
X111323590Y-150322900D01*
X111307990Y-150383700D01*
X111284890Y-150442100D01*
X111254590Y-150497100D01*
X111217790Y-150547900D01*
X111174790Y-150593700D01*
X111126390Y-150633700D01*
X111073390Y-150667300D01*
X111016591Y-150694100D01*
X110956790Y-150713500D01*
X110895190Y-150725200D01*
X105033361Y-151702164D01*
X104895139Y-151725200D01*
X104832490Y-151729200D01*
X104769820Y-151725200D01*
X104708131Y-151713500D01*
X104648419Y-151694100D01*
X104591599Y-151667300D01*
X104538590Y-151633700D01*
X104490201Y-151593700D01*
X104447221Y-151547900D01*
X101947221Y-148547900D01*
X101910329Y-148497100D01*
X101880071Y-148442100D01*
X101856950Y-148383700D01*
X101841340Y-148322900D01*
X101835740Y-148278600D01*
X99314000Y-149098000D01*
X99323621Y-149135500D01*
X99331500Y-149197800D01*
X99331500Y-153260601D01*
X99323621Y-153322900D01*
X99308009Y-153383699D01*
X99284900Y-153442100D01*
X99254640Y-153497100D01*
X99217740Y-153547901D01*
X99174760Y-153593700D01*
X96174760Y-156593700D01*
X96126374Y-156633699D01*
X96073365Y-156667301D01*
X96016542Y-156694099D01*
X95956834Y-156713501D01*
X95895143Y-156725200D01*
X95832490Y-156729200D01*
X95769837Y-156725200D01*
X95708146Y-156713501D01*
X95648438Y-156694099D01*
X95591615Y-156667301D01*
X95538606Y-156633699D01*
X95490220Y-156593700D01*
X92490220Y-153593700D01*
X92447240Y-153547901D01*
X92410340Y-153497100D01*
X92380080Y-153442100D01*
X92356970Y-153383699D01*
X92341360Y-153322900D01*
X92333480Y-153260601D01*
X92333480Y-153021500D01*
X93331510Y-153021500D01*
X95832490Y-155522400D01*
X98333470Y-153021500D01*
X98333470Y-149416600D01*
X95832490Y-150229200D01*
X93331510Y-149416600D01*
X93331510Y-153021500D01*
X92333480Y-153021500D01*
X92333480Y-149197800D01*
X92341360Y-149135500D01*
X92350980Y-149098000D01*
X89829240Y-148278600D01*
X89823640Y-148322900D01*
X89808030Y-148383700D01*
X89784910Y-148442100D01*
X89754650Y-148497100D01*
X89717760Y-148547900D01*
X87217760Y-151547900D01*
X87174780Y-151593700D01*
X87126390Y-151633700D01*
X87073380Y-151667300D01*
X87016560Y-151694100D01*
X86956850Y-151713500D01*
X86895160Y-151725200D01*
X86832490Y-151729200D01*
X86769840Y-151725200D01*
X86631620Y-151702164D01*
X80769790Y-150725200D01*
X80708190Y-150713500D01*
X80648390Y-150694100D01*
X80591590Y-150667300D01*
X80538590Y-150633700D01*
X80490190Y-150593700D01*
X80447190Y-150547900D01*
X80410390Y-150497100D01*
X80380090Y-150442100D01*
X80356990Y-150383700D01*
X80341390Y-150322900D01*
X80333490Y-150260600D01*
X80333490Y-149805900D01*
X81331490Y-149805900D01*
X86631620Y-150689200D01*
X88893750Y-147974700D01*
X88470059Y-147837000D01*
X88191290Y-147746400D01*
X87721544Y-147099850D01*
X89279070Y-147099850D01*
X95832490Y-149229200D01*
X99693418Y-147974700D01*
X102771230Y-147974700D01*
X105033361Y-150689200D01*
X110333489Y-149805900D01*
X110333489Y-146479860D01*
X106538590Y-143633700D01*
X106490590Y-143593990D01*
X103473691Y-147746400D01*
X103194921Y-147837001D01*
X102771230Y-147974700D01*
X99693418Y-147974700D01*
X102385911Y-147099850D01*
X99946981Y-143742957D01*
X99916730Y-143701320D01*
X91748250Y-143701320D01*
X89279070Y-147099850D01*
X87721544Y-147099850D01*
X85174390Y-143593990D01*
X85126390Y-143633700D01*
X81331490Y-146479860D01*
X81331490Y-149805900D01*
X80333490Y-149805900D01*
X80333490Y-146197800D01*
X80341390Y-146135500D01*
X80356990Y-146074690D01*
X80380090Y-146016310D01*
X80410390Y-145961290D01*
X80447190Y-145910470D01*
X80490190Y-145864710D01*
X80538590Y-145824690D01*
X84538590Y-142824689D01*
X84591190Y-142791299D01*
X83468790Y-141246410D01*
X83468790Y-137634184D01*
X80648390Y-136694090D01*
X80591590Y-136667356D01*
X80538590Y-136633711D01*
X80490190Y-136593687D01*
X80447190Y-136547926D01*
X80410390Y-136497114D01*
X80380090Y-136442091D01*
X80356990Y-136383710D01*
X80341390Y-136322904D01*
X80333490Y-136260603D01*
X80333490Y-135869310D01*
X81331490Y-135869310D01*
X83468790Y-136581724D01*
X83468790Y-134046739D01*
X84419790Y-134046739D01*
X84419790Y-140937391D01*
X88470059Y-146512070D01*
X90939230Y-143113540D01*
X100725751Y-143113540D01*
X103194921Y-146512070D01*
X107245191Y-140937391D01*
X107245191Y-134046739D01*
X103249959Y-135344860D01*
X102940930Y-136295948D01*
X100725751Y-143113540D01*
X90939230Y-143113540D01*
X88724050Y-136295950D01*
X88415020Y-135344860D01*
X87557018Y-135066080D01*
X89175099Y-135066080D01*
X91717999Y-142892320D01*
X99946981Y-142892320D01*
X102489881Y-135066080D01*
X95832490Y-130229200D01*
X89175099Y-135066080D01*
X87557018Y-135066080D01*
X84419790Y-134046739D01*
X83468790Y-134046739D01*
X83468790Y-133211990D01*
X83553287Y-133095689D01*
X84728790Y-133095689D01*
X88724050Y-134393800D01*
X95332490Y-129592479D01*
X95332490Y-125391700D01*
X96332490Y-125391700D01*
X96332490Y-129592479D01*
X102940930Y-134393800D01*
X106936189Y-133095689D01*
X102885911Y-127521009D01*
X102326107Y-127339120D01*
X103929320Y-127339120D01*
X108196191Y-133211990D01*
X108196191Y-136581724D01*
X110333489Y-135869310D01*
X110333489Y-124670698D01*
X107012790Y-124255598D01*
X103929320Y-127339120D01*
X102326107Y-127339120D01*
X96332490Y-125391700D01*
X95332490Y-125391700D01*
X88779070Y-127521009D01*
X84728790Y-133095689D01*
X83553287Y-133095689D01*
X87735660Y-127339120D01*
X84652190Y-124255598D01*
X81331490Y-124670698D01*
X81331490Y-135869310D01*
X80333490Y-135869310D01*
X80333490Y-124197801D01*
X80341390Y-124135500D01*
X80356990Y-124074701D01*
X80380090Y-124016302D01*
X80410390Y-123961301D01*
X80447190Y-123910501D01*
X80490190Y-123864698D01*
X80538590Y-123824701D01*
X80591590Y-123791101D01*
X80648390Y-123764299D01*
X80708190Y-123744901D01*
X80769790Y-123733198D01*
X84769790Y-123233198D01*
X84832490Y-123229200D01*
X84895190Y-123233198D01*
X84956890Y-123244901D01*
X85016590Y-123264299D01*
X85073390Y-123291101D01*
X85126390Y-123324701D01*
X85174790Y-123364698D01*
X88440920Y-126630899D01*
X95832490Y-124229200D01*
X103224061Y-126630899D01*
X106490190Y-123364698D01*
X106538590Y-123324701D01*
X106591590Y-123291101D01*
X106648389Y-123264299D01*
X106708089Y-123244901D01*
X106769790Y-123233198D01*
X106832490Y-123229200D01*
X106895190Y-123233198D01*
G36*
X106895190Y-123233198D02*
G01*
X110895190Y-123733198D01*
X110956790Y-123744901D01*
X111016591Y-123764299D01*
X111073390Y-123791101D01*
X111126390Y-123824701D01*
X111174790Y-123864698D01*
X111217790Y-123910501D01*
X111254590Y-123961301D01*
X111284890Y-124016302D01*
X111307990Y-124074701D01*
X111323590Y-124135500D01*
X111331491Y-124197801D01*
X111331491Y-136260603D01*
X111323590Y-136322904D01*
X111307990Y-136383710D01*
X111284890Y-136442091D01*
X111254590Y-136497114D01*
X111217790Y-136547926D01*
X111174790Y-136593687D01*
X111126390Y-136633711D01*
X111073390Y-136667356D01*
X111016591Y-136694090D01*
X108196191Y-137634184D01*
X108196191Y-141246410D01*
X107073789Y-142791299D01*
X107126390Y-142824689D01*
X111126390Y-145824690D01*
X111174790Y-145864710D01*
X111217790Y-145910470D01*
X111254590Y-145961290D01*
X111284890Y-146016310D01*
X111307990Y-146074690D01*
X111323590Y-146135500D01*
X111331491Y-146197800D01*
X111331491Y-150260600D01*
X111323590Y-150322900D01*
X111307990Y-150383700D01*
X111284890Y-150442100D01*
X111254590Y-150497100D01*
X111217790Y-150547900D01*
X111174790Y-150593700D01*
X111126390Y-150633700D01*
X111073390Y-150667300D01*
X111016591Y-150694100D01*
X110956790Y-150713500D01*
X110895190Y-150725200D01*
X105033361Y-151702164D01*
X104895139Y-151725200D01*
X104832490Y-151729200D01*
X104769820Y-151725200D01*
X104708131Y-151713500D01*
X104648419Y-151694100D01*
X104591599Y-151667300D01*
X104538590Y-151633700D01*
X104490201Y-151593700D01*
X104447221Y-151547900D01*
X101947221Y-148547900D01*
X101910329Y-148497100D01*
X101880071Y-148442100D01*
X101856950Y-148383700D01*
X101841340Y-148322900D01*
X101835740Y-148278600D01*
X99314000Y-149098000D01*
X99323621Y-149135500D01*
X99331500Y-149197800D01*
X99331500Y-153260601D01*
X99323621Y-153322900D01*
X99308009Y-153383699D01*
X99284900Y-153442100D01*
X99254640Y-153497100D01*
X99217740Y-153547901D01*
X99174760Y-153593700D01*
X96174760Y-156593700D01*
X96126374Y-156633699D01*
X96073365Y-156667301D01*
X96016542Y-156694099D01*
X95956834Y-156713501D01*
X95895143Y-156725200D01*
X95832490Y-156729200D01*
X95769837Y-156725200D01*
X95708146Y-156713501D01*
X95648438Y-156694099D01*
X95591615Y-156667301D01*
X95538606Y-156633699D01*
X95490220Y-156593700D01*
X92490220Y-153593700D01*
X92447240Y-153547901D01*
X92410340Y-153497100D01*
X92380080Y-153442100D01*
X92356970Y-153383699D01*
X92341360Y-153322900D01*
X92333480Y-153260601D01*
X92333480Y-153021500D01*
X93331510Y-153021500D01*
X95832490Y-155522400D01*
X98333470Y-153021500D01*
X98333470Y-149416600D01*
X95832490Y-150229200D01*
X93331510Y-149416600D01*
X93331510Y-153021500D01*
X92333480Y-153021500D01*
X92333480Y-149197800D01*
X92341360Y-149135500D01*
X92350980Y-149098000D01*
X89829240Y-148278600D01*
X89823640Y-148322900D01*
X89808030Y-148383700D01*
X89784910Y-148442100D01*
X89754650Y-148497100D01*
X89717760Y-148547900D01*
X87217760Y-151547900D01*
X87174780Y-151593700D01*
X87126390Y-151633700D01*
X87073380Y-151667300D01*
X87016560Y-151694100D01*
X86956850Y-151713500D01*
X86895160Y-151725200D01*
X86832490Y-151729200D01*
X86769840Y-151725200D01*
X86631620Y-151702164D01*
X80769790Y-150725200D01*
X80708190Y-150713500D01*
X80648390Y-150694100D01*
X80591590Y-150667300D01*
X80538590Y-150633700D01*
X80490190Y-150593700D01*
X80447190Y-150547900D01*
X80410390Y-150497100D01*
X80380090Y-150442100D01*
X80356990Y-150383700D01*
X80341390Y-150322900D01*
X80333490Y-150260600D01*
X80333490Y-149805900D01*
X81331490Y-149805900D01*
X86631620Y-150689200D01*
X88893750Y-147974700D01*
X88470059Y-147837000D01*
X88191290Y-147746400D01*
X87721544Y-147099850D01*
X89279070Y-147099850D01*
X95832490Y-149229200D01*
X99693418Y-147974700D01*
X102771230Y-147974700D01*
X105033361Y-150689200D01*
X110333489Y-149805900D01*
X110333489Y-146479860D01*
X106538590Y-143633700D01*
X106490590Y-143593990D01*
X103473691Y-147746400D01*
X103194921Y-147837001D01*
X102771230Y-147974700D01*
X99693418Y-147974700D01*
X102385911Y-147099850D01*
X99946981Y-143742957D01*
X99916730Y-143701320D01*
X91748250Y-143701320D01*
X89279070Y-147099850D01*
X87721544Y-147099850D01*
X85174390Y-143593990D01*
X85126390Y-143633700D01*
X81331490Y-146479860D01*
X81331490Y-149805900D01*
X80333490Y-149805900D01*
X80333490Y-146197800D01*
X80341390Y-146135500D01*
X80356990Y-146074690D01*
X80380090Y-146016310D01*
X80410390Y-145961290D01*
X80447190Y-145910470D01*
X80490190Y-145864710D01*
X80538590Y-145824690D01*
X84538590Y-142824689D01*
X84591190Y-142791299D01*
X83468790Y-141246410D01*
X83468790Y-137634184D01*
X80648390Y-136694090D01*
X80591590Y-136667356D01*
X80538590Y-136633711D01*
X80490190Y-136593687D01*
X80447190Y-136547926D01*
X80410390Y-136497114D01*
X80380090Y-136442091D01*
X80356990Y-136383710D01*
X80341390Y-136322904D01*
X80333490Y-136260603D01*
X80333490Y-135869310D01*
X81331490Y-135869310D01*
X83468790Y-136581724D01*
X83468790Y-134046739D01*
X84419790Y-134046739D01*
X84419790Y-140937391D01*
X88470059Y-146512070D01*
X90939230Y-143113540D01*
X100725751Y-143113540D01*
X103194921Y-146512070D01*
X107245191Y-140937391D01*
X107245191Y-134046739D01*
X103249959Y-135344860D01*
X102940930Y-136295948D01*
X100725751Y-143113540D01*
X90939230Y-143113540D01*
X88724050Y-136295950D01*
X88415020Y-135344860D01*
X87557018Y-135066080D01*
X89175099Y-135066080D01*
X91717999Y-142892320D01*
X99946981Y-142892320D01*
X102489881Y-135066080D01*
X95832490Y-130229200D01*
X89175099Y-135066080D01*
X87557018Y-135066080D01*
X84419790Y-134046739D01*
X83468790Y-134046739D01*
X83468790Y-133211990D01*
X83553287Y-133095689D01*
X84728790Y-133095689D01*
X88724050Y-134393800D01*
X95332490Y-129592479D01*
X95332490Y-125391700D01*
X96332490Y-125391700D01*
X96332490Y-129592479D01*
X102940930Y-134393800D01*
X106936189Y-133095689D01*
X102885911Y-127521009D01*
X102326107Y-127339120D01*
X103929320Y-127339120D01*
X108196191Y-133211990D01*
X108196191Y-136581724D01*
X110333489Y-135869310D01*
X110333489Y-124670698D01*
X107012790Y-124255598D01*
X103929320Y-127339120D01*
X102326107Y-127339120D01*
X96332490Y-125391700D01*
X95332490Y-125391700D01*
X88779070Y-127521009D01*
X84728790Y-133095689D01*
X83553287Y-133095689D01*
X87735660Y-127339120D01*
X84652190Y-124255598D01*
X81331490Y-124670698D01*
X81331490Y-135869310D01*
X80333490Y-135869310D01*
X80333490Y-124197801D01*
X80341390Y-124135500D01*
X80356990Y-124074701D01*
X80380090Y-124016302D01*
X80410390Y-123961301D01*
X80447190Y-123910501D01*
X80490190Y-123864698D01*
X80538590Y-123824701D01*
X80591590Y-123791101D01*
X80648390Y-123764299D01*
X80708190Y-123744901D01*
X80769790Y-123733198D01*
X84769790Y-123233198D01*
X84832490Y-123229200D01*
X84895190Y-123233198D01*
X84956890Y-123244901D01*
X85016590Y-123264299D01*
X85073390Y-123291101D01*
X85126390Y-123324701D01*
X85174790Y-123364698D01*
X88440920Y-126630899D01*
X95832490Y-124229200D01*
X103224061Y-126630899D01*
X106490190Y-123364698D01*
X106538590Y-123324701D01*
X106591590Y-123291101D01*
X106648389Y-123264299D01*
X106708089Y-123244901D01*
X106769790Y-123233198D01*
X106832490Y-123229200D01*
X106895190Y-123233198D01*
G37*
X94332490Y-135229200D02*
X97332490Y-135229200D01*
X97332490Y-134229200D01*
X98332490Y-134229200D01*
X98332490Y-140229200D01*
X97332490Y-140229200D01*
X97332490Y-139229200D01*
X94332490Y-139229200D01*
X94332490Y-140229200D01*
X93332490Y-140229200D01*
X93332490Y-136229200D01*
X94332490Y-136229200D01*
X94332490Y-138229200D01*
X97332490Y-138229200D01*
X97332490Y-136229200D01*
X94332490Y-136229200D01*
X93332490Y-136229200D01*
X93332490Y-134229200D01*
X94332490Y-134229200D01*
X94332490Y-135229200D01*
G36*
X94332490Y-135229200D02*
G01*
X97332490Y-135229200D01*
X97332490Y-134229200D01*
X98332490Y-134229200D01*
X98332490Y-140229200D01*
X97332490Y-140229200D01*
X97332490Y-139229200D01*
X94332490Y-139229200D01*
X94332490Y-140229200D01*
X93332490Y-140229200D01*
X93332490Y-136229200D01*
X94332490Y-136229200D01*
X94332490Y-138229200D01*
X97332490Y-138229200D01*
X97332490Y-136229200D01*
X94332490Y-136229200D01*
X93332490Y-136229200D01*
X93332490Y-134229200D01*
X94332490Y-134229200D01*
X94332490Y-135229200D01*
G37*
D11*
X72783506Y-48932771D02*
X72831125Y-48885152D01*
X72831125Y-48885152D02*
X72926363Y-48742295D01*
X72926363Y-48742295D02*
X72973982Y-48647057D01*
X72973982Y-48647057D02*
X73021601Y-48504200D01*
X73021601Y-48504200D02*
X73069220Y-48266104D01*
X73069220Y-48266104D02*
X73069220Y-48075628D01*
X73069220Y-48075628D02*
X73021601Y-47837533D01*
X73021601Y-47837533D02*
X72973982Y-47694676D01*
X72973982Y-47694676D02*
X72926363Y-47599438D01*
X72926363Y-47599438D02*
X72831125Y-47456580D01*
X72831125Y-47456580D02*
X72783506Y-47408961D01*
X71973982Y-48504200D02*
X72069220Y-48551819D01*
X72069220Y-48551819D02*
X72259696Y-48551819D01*
X72259696Y-48551819D02*
X72354934Y-48504200D01*
X72354934Y-48504200D02*
X72402553Y-48456580D01*
X72402553Y-48456580D02*
X72450172Y-48361342D01*
X72450172Y-48361342D02*
X72450172Y-48075628D01*
X72450172Y-48075628D02*
X72402553Y-47980390D01*
X72402553Y-47980390D02*
X72354934Y-47932771D01*
X72354934Y-47932771D02*
X72259696Y-47885152D01*
X72259696Y-47885152D02*
X72069220Y-47885152D01*
X72069220Y-47885152D02*
X71973982Y-47932771D01*
X71640648Y-48932771D02*
X71593029Y-48885152D01*
X71593029Y-48885152D02*
X71497791Y-48742295D01*
X71497791Y-48742295D02*
X71450172Y-48647057D01*
X71450172Y-48647057D02*
X71402553Y-48504200D01*
X71402553Y-48504200D02*
X71354934Y-48266104D01*
X71354934Y-48266104D02*
X71354934Y-48075628D01*
X71354934Y-48075628D02*
X71402553Y-47837533D01*
X71402553Y-47837533D02*
X71450172Y-47694676D01*
X71450172Y-47694676D02*
X71497791Y-47599438D01*
X71497791Y-47599438D02*
X71593029Y-47456580D01*
X71593029Y-47456580D02*
X71640648Y-47408961D01*
X70926362Y-47647057D02*
X70878743Y-47599438D01*
X70878743Y-47599438D02*
X70783505Y-47551819D01*
X70783505Y-47551819D02*
X70545410Y-47551819D01*
X70545410Y-47551819D02*
X70450172Y-47599438D01*
X70450172Y-47599438D02*
X70402553Y-47647057D01*
X70402553Y-47647057D02*
X70354934Y-47742295D01*
X70354934Y-47742295D02*
X70354934Y-47837533D01*
X70354934Y-47837533D02*
X70402553Y-47980390D01*
X70402553Y-47980390D02*
X70973981Y-48551819D01*
X70973981Y-48551819D02*
X70354934Y-48551819D01*
X69735886Y-47551819D02*
X69640648Y-47551819D01*
X69640648Y-47551819D02*
X69545410Y-47599438D01*
X69545410Y-47599438D02*
X69497791Y-47647057D01*
X69497791Y-47647057D02*
X69450172Y-47742295D01*
X69450172Y-47742295D02*
X69402553Y-47932771D01*
X69402553Y-47932771D02*
X69402553Y-48170866D01*
X69402553Y-48170866D02*
X69450172Y-48361342D01*
X69450172Y-48361342D02*
X69497791Y-48456580D01*
X69497791Y-48456580D02*
X69545410Y-48504200D01*
X69545410Y-48504200D02*
X69640648Y-48551819D01*
X69640648Y-48551819D02*
X69735886Y-48551819D01*
X69735886Y-48551819D02*
X69831124Y-48504200D01*
X69831124Y-48504200D02*
X69878743Y-48456580D01*
X69878743Y-48456580D02*
X69926362Y-48361342D01*
X69926362Y-48361342D02*
X69973981Y-48170866D01*
X69973981Y-48170866D02*
X69973981Y-47932771D01*
X69973981Y-47932771D02*
X69926362Y-47742295D01*
X69926362Y-47742295D02*
X69878743Y-47647057D01*
X69878743Y-47647057D02*
X69831124Y-47599438D01*
X69831124Y-47599438D02*
X69735886Y-47551819D01*
X69021600Y-47647057D02*
X68973981Y-47599438D01*
X68973981Y-47599438D02*
X68878743Y-47551819D01*
X68878743Y-47551819D02*
X68640648Y-47551819D01*
X68640648Y-47551819D02*
X68545410Y-47599438D01*
X68545410Y-47599438D02*
X68497791Y-47647057D01*
X68497791Y-47647057D02*
X68450172Y-47742295D01*
X68450172Y-47742295D02*
X68450172Y-47837533D01*
X68450172Y-47837533D02*
X68497791Y-47980390D01*
X68497791Y-47980390D02*
X69069219Y-48551819D01*
X69069219Y-48551819D02*
X68450172Y-48551819D01*
X67593029Y-47885152D02*
X67593029Y-48551819D01*
X67831124Y-47504200D02*
X68069219Y-48218485D01*
X68069219Y-48218485D02*
X67450172Y-48218485D01*
X66354933Y-48504200D02*
X66212076Y-48551819D01*
X66212076Y-48551819D02*
X65973981Y-48551819D01*
X65973981Y-48551819D02*
X65878743Y-48504200D01*
X65878743Y-48504200D02*
X65831124Y-48456580D01*
X65831124Y-48456580D02*
X65783505Y-48361342D01*
X65783505Y-48361342D02*
X65783505Y-48266104D01*
X65783505Y-48266104D02*
X65831124Y-48170866D01*
X65831124Y-48170866D02*
X65878743Y-48123247D01*
X65878743Y-48123247D02*
X65973981Y-48075628D01*
X65973981Y-48075628D02*
X66164457Y-48028009D01*
X66164457Y-48028009D02*
X66259695Y-47980390D01*
X66259695Y-47980390D02*
X66307314Y-47932771D01*
X66307314Y-47932771D02*
X66354933Y-47837533D01*
X66354933Y-47837533D02*
X66354933Y-47742295D01*
X66354933Y-47742295D02*
X66307314Y-47647057D01*
X66307314Y-47647057D02*
X66259695Y-47599438D01*
X66259695Y-47599438D02*
X66164457Y-47551819D01*
X66164457Y-47551819D02*
X65926362Y-47551819D01*
X65926362Y-47551819D02*
X65783505Y-47599438D01*
X65354933Y-48551819D02*
X65354933Y-47885152D01*
X65354933Y-47551819D02*
X65402552Y-47599438D01*
X65402552Y-47599438D02*
X65354933Y-47647057D01*
X65354933Y-47647057D02*
X65307314Y-47599438D01*
X65307314Y-47599438D02*
X65354933Y-47551819D01*
X65354933Y-47551819D02*
X65354933Y-47647057D01*
X64878743Y-48551819D02*
X64878743Y-47885152D01*
X64878743Y-47980390D02*
X64831124Y-47932771D01*
X64831124Y-47932771D02*
X64735886Y-47885152D01*
X64735886Y-47885152D02*
X64593029Y-47885152D01*
X64593029Y-47885152D02*
X64497791Y-47932771D01*
X64497791Y-47932771D02*
X64450172Y-48028009D01*
X64450172Y-48028009D02*
X64450172Y-48551819D01*
X64450172Y-48028009D02*
X64402553Y-47932771D01*
X64402553Y-47932771D02*
X64307315Y-47885152D01*
X64307315Y-47885152D02*
X64164458Y-47885152D01*
X64164458Y-47885152D02*
X64069219Y-47932771D01*
X64069219Y-47932771D02*
X64021600Y-48028009D01*
X64021600Y-48028009D02*
X64021600Y-48551819D01*
X63402553Y-48551819D02*
X63497791Y-48504200D01*
X63497791Y-48504200D02*
X63545410Y-48456580D01*
X63545410Y-48456580D02*
X63593029Y-48361342D01*
X63593029Y-48361342D02*
X63593029Y-48075628D01*
X63593029Y-48075628D02*
X63545410Y-47980390D01*
X63545410Y-47980390D02*
X63497791Y-47932771D01*
X63497791Y-47932771D02*
X63402553Y-47885152D01*
X63402553Y-47885152D02*
X63259696Y-47885152D01*
X63259696Y-47885152D02*
X63164458Y-47932771D01*
X63164458Y-47932771D02*
X63116839Y-47980390D01*
X63116839Y-47980390D02*
X63069220Y-48075628D01*
X63069220Y-48075628D02*
X63069220Y-48361342D01*
X63069220Y-48361342D02*
X63116839Y-48456580D01*
X63116839Y-48456580D02*
X63164458Y-48504200D01*
X63164458Y-48504200D02*
X63259696Y-48551819D01*
X63259696Y-48551819D02*
X63402553Y-48551819D01*
X62640648Y-47885152D02*
X62640648Y-48551819D01*
X62640648Y-47980390D02*
X62593029Y-47932771D01*
X62593029Y-47932771D02*
X62497791Y-47885152D01*
X62497791Y-47885152D02*
X62354934Y-47885152D01*
X62354934Y-47885152D02*
X62259696Y-47932771D01*
X62259696Y-47932771D02*
X62212077Y-48028009D01*
X62212077Y-48028009D02*
X62212077Y-48551819D01*
X60973981Y-48551819D02*
X60973981Y-47551819D01*
X60497791Y-47885152D02*
X60497791Y-48551819D01*
X60497791Y-47980390D02*
X60450172Y-47932771D01*
X60450172Y-47932771D02*
X60354934Y-47885152D01*
X60354934Y-47885152D02*
X60212077Y-47885152D01*
X60212077Y-47885152D02*
X60116839Y-47932771D01*
X60116839Y-47932771D02*
X60069220Y-48028009D01*
X60069220Y-48028009D02*
X60069220Y-48551819D01*
X59593029Y-47885152D02*
X59593029Y-48551819D01*
X59593029Y-47980390D02*
X59545410Y-47932771D01*
X59545410Y-47932771D02*
X59450172Y-47885152D01*
X59450172Y-47885152D02*
X59307315Y-47885152D01*
X59307315Y-47885152D02*
X59212077Y-47932771D01*
X59212077Y-47932771D02*
X59164458Y-48028009D01*
X59164458Y-48028009D02*
X59164458Y-48551819D01*
X58735886Y-48504200D02*
X58640648Y-48551819D01*
X58640648Y-48551819D02*
X58450172Y-48551819D01*
X58450172Y-48551819D02*
X58354934Y-48504200D01*
X58354934Y-48504200D02*
X58307315Y-48408961D01*
X58307315Y-48408961D02*
X58307315Y-48361342D01*
X58307315Y-48361342D02*
X58354934Y-48266104D01*
X58354934Y-48266104D02*
X58450172Y-48218485D01*
X58450172Y-48218485D02*
X58593029Y-48218485D01*
X58593029Y-48218485D02*
X58688267Y-48170866D01*
X58688267Y-48170866D02*
X58735886Y-48075628D01*
X58735886Y-48075628D02*
X58735886Y-48028009D01*
X58735886Y-48028009D02*
X58688267Y-47932771D01*
X58688267Y-47932771D02*
X58593029Y-47885152D01*
X58593029Y-47885152D02*
X58450172Y-47885152D01*
X58450172Y-47885152D02*
X58354934Y-47932771D01*
X72497792Y-50066580D02*
X72545411Y-50114200D01*
X72545411Y-50114200D02*
X72688268Y-50161819D01*
X72688268Y-50161819D02*
X72783506Y-50161819D01*
X72783506Y-50161819D02*
X72926363Y-50114200D01*
X72926363Y-50114200D02*
X73021601Y-50018961D01*
X73021601Y-50018961D02*
X73069220Y-49923723D01*
X73069220Y-49923723D02*
X73116839Y-49733247D01*
X73116839Y-49733247D02*
X73116839Y-49590390D01*
X73116839Y-49590390D02*
X73069220Y-49399914D01*
X73069220Y-49399914D02*
X73021601Y-49304676D01*
X73021601Y-49304676D02*
X72926363Y-49209438D01*
X72926363Y-49209438D02*
X72783506Y-49161819D01*
X72783506Y-49161819D02*
X72688268Y-49161819D01*
X72688268Y-49161819D02*
X72545411Y-49209438D01*
X72545411Y-49209438D02*
X72497792Y-49257057D01*
X71497792Y-50066580D02*
X71545411Y-50114200D01*
X71545411Y-50114200D02*
X71688268Y-50161819D01*
X71688268Y-50161819D02*
X71783506Y-50161819D01*
X71783506Y-50161819D02*
X71926363Y-50114200D01*
X71926363Y-50114200D02*
X72021601Y-50018961D01*
X72021601Y-50018961D02*
X72069220Y-49923723D01*
X72069220Y-49923723D02*
X72116839Y-49733247D01*
X72116839Y-49733247D02*
X72116839Y-49590390D01*
X72116839Y-49590390D02*
X72069220Y-49399914D01*
X72069220Y-49399914D02*
X72021601Y-49304676D01*
X72021601Y-49304676D02*
X71926363Y-49209438D01*
X71926363Y-49209438D02*
X71783506Y-49161819D01*
X71783506Y-49161819D02*
X71688268Y-49161819D01*
X71688268Y-49161819D02*
X71545411Y-49209438D01*
X71545411Y-49209438D02*
X71497792Y-49257057D01*
X69973982Y-49638009D02*
X69831125Y-49685628D01*
X69831125Y-49685628D02*
X69783506Y-49733247D01*
X69783506Y-49733247D02*
X69735887Y-49828485D01*
X69735887Y-49828485D02*
X69735887Y-49971342D01*
X69735887Y-49971342D02*
X69783506Y-50066580D01*
X69783506Y-50066580D02*
X69831125Y-50114200D01*
X69831125Y-50114200D02*
X69926363Y-50161819D01*
X69926363Y-50161819D02*
X70307315Y-50161819D01*
X70307315Y-50161819D02*
X70307315Y-49161819D01*
X70307315Y-49161819D02*
X69973982Y-49161819D01*
X69973982Y-49161819D02*
X69878744Y-49209438D01*
X69878744Y-49209438D02*
X69831125Y-49257057D01*
X69831125Y-49257057D02*
X69783506Y-49352295D01*
X69783506Y-49352295D02*
X69783506Y-49447533D01*
X69783506Y-49447533D02*
X69831125Y-49542771D01*
X69831125Y-49542771D02*
X69878744Y-49590390D01*
X69878744Y-49590390D02*
X69973982Y-49638009D01*
X69973982Y-49638009D02*
X70307315Y-49638009D01*
X69116839Y-49685628D02*
X69116839Y-50161819D01*
X69450172Y-49161819D02*
X69116839Y-49685628D01*
X69116839Y-49685628D02*
X68783506Y-49161819D01*
X68450172Y-49780866D02*
X67688268Y-49780866D01*
X67259696Y-50114200D02*
X67116839Y-50161819D01*
X67116839Y-50161819D02*
X66878744Y-50161819D01*
X66878744Y-50161819D02*
X66783506Y-50114200D01*
X66783506Y-50114200D02*
X66735887Y-50066580D01*
X66735887Y-50066580D02*
X66688268Y-49971342D01*
X66688268Y-49971342D02*
X66688268Y-49876104D01*
X66688268Y-49876104D02*
X66735887Y-49780866D01*
X66735887Y-49780866D02*
X66783506Y-49733247D01*
X66783506Y-49733247D02*
X66878744Y-49685628D01*
X66878744Y-49685628D02*
X67069220Y-49638009D01*
X67069220Y-49638009D02*
X67164458Y-49590390D01*
X67164458Y-49590390D02*
X67212077Y-49542771D01*
X67212077Y-49542771D02*
X67259696Y-49447533D01*
X67259696Y-49447533D02*
X67259696Y-49352295D01*
X67259696Y-49352295D02*
X67212077Y-49257057D01*
X67212077Y-49257057D02*
X67164458Y-49209438D01*
X67164458Y-49209438D02*
X67069220Y-49161819D01*
X67069220Y-49161819D02*
X66831125Y-49161819D01*
X66831125Y-49161819D02*
X66688268Y-49209438D01*
X66307315Y-49876104D02*
X65831125Y-49876104D01*
X66402553Y-50161819D02*
X66069220Y-49161819D01*
X66069220Y-49161819D02*
X65735887Y-50161819D01*
X64212077Y-49495152D02*
X64212077Y-50161819D01*
X64450172Y-49114200D02*
X64688267Y-49828485D01*
X64688267Y-49828485D02*
X64069220Y-49828485D01*
X63688267Y-50066580D02*
X63640648Y-50114200D01*
X63640648Y-50114200D02*
X63688267Y-50161819D01*
X63688267Y-50161819D02*
X63735886Y-50114200D01*
X63735886Y-50114200D02*
X63688267Y-50066580D01*
X63688267Y-50066580D02*
X63688267Y-50161819D01*
X63021601Y-49161819D02*
X62926363Y-49161819D01*
X62926363Y-49161819D02*
X62831125Y-49209438D01*
X62831125Y-49209438D02*
X62783506Y-49257057D01*
X62783506Y-49257057D02*
X62735887Y-49352295D01*
X62735887Y-49352295D02*
X62688268Y-49542771D01*
X62688268Y-49542771D02*
X62688268Y-49780866D01*
X62688268Y-49780866D02*
X62735887Y-49971342D01*
X62735887Y-49971342D02*
X62783506Y-50066580D01*
X62783506Y-50066580D02*
X62831125Y-50114200D01*
X62831125Y-50114200D02*
X62926363Y-50161819D01*
X62926363Y-50161819D02*
X63021601Y-50161819D01*
X63021601Y-50161819D02*
X63116839Y-50114200D01*
X63116839Y-50114200D02*
X63164458Y-50066580D01*
X63164458Y-50066580D02*
X63212077Y-49971342D01*
X63212077Y-49971342D02*
X63259696Y-49780866D01*
X63259696Y-49780866D02*
X63259696Y-49542771D01*
X63259696Y-49542771D02*
X63212077Y-49352295D01*
X63212077Y-49352295D02*
X63164458Y-49257057D01*
X63164458Y-49257057D02*
X63116839Y-49209438D01*
X63116839Y-49209438D02*
X63021601Y-49161819D01*
%LPC*%
D12*
X44947458Y-85435641D03*
D13*
X45720000Y-83058000D03*
D14*
X139954000Y-61722000D03*
D15*
X139954000Y-64262000D03*
X139954000Y-66802000D03*
D16*
X111125000Y-153416000D03*
D17*
X126746000Y-115062000D03*
D18*
X129286000Y-115062000D03*
X131826000Y-115062000D03*
X134366000Y-115062000D03*
X136906000Y-115062000D03*
X139446000Y-115062000D03*
X141986000Y-115062000D03*
X144526000Y-115062000D03*
X144526000Y-102362000D03*
X141986000Y-102362000D03*
X139446000Y-102362000D03*
X136906000Y-102362000D03*
X134366000Y-102362000D03*
X131826000Y-102362000D03*
X129286000Y-102362000D03*
X126746000Y-102362000D03*
D19*
X95981600Y-48312000D03*
D14*
X135890000Y-66802000D03*
X78486000Y-85852000D03*
D15*
X81026000Y-85852000D03*
X83566000Y-85852000D03*
D20*
X61385040Y-140977123D03*
D21*
X59362498Y-139507660D03*
X57339955Y-138038197D03*
X55317413Y-136568734D03*
X53294870Y-135099270D03*
X51272328Y-133629807D03*
X49249785Y-132160344D03*
D14*
X92075000Y-118110000D03*
D15*
X94615000Y-118110000D03*
X97155000Y-118110000D03*
X99695000Y-118110000D03*
D22*
X47752000Y-76200000D03*
D23*
X48524542Y-73822359D03*
X49297085Y-71444717D03*
D24*
X152400000Y-101600000D03*
D25*
X153172542Y-103977641D03*
X153945085Y-106355283D03*
X154717627Y-108732924D03*
D14*
X136144000Y-94234000D03*
D15*
X136144000Y-91694000D03*
X136144000Y-89154000D03*
X136144000Y-86614000D03*
X136144000Y-84074000D03*
D26*
X118941000Y-46485000D03*
D27*
X119241000Y-49515000D03*
X124091000Y-49515000D03*
D26*
X124391000Y-46485000D03*
D28*
X112776000Y-46355000D03*
D29*
X112776000Y-48895000D03*
D30*
X112776000Y-51435000D03*
D29*
X112776000Y-53975000D03*
X112776000Y-56515000D03*
X112776000Y-59055000D03*
X112776000Y-61595000D03*
D30*
X112776000Y-64135000D03*
D29*
X112776000Y-66675000D03*
X112776000Y-69215000D03*
X112776000Y-71755000D03*
X112776000Y-74295000D03*
D30*
X112776000Y-76835000D03*
D29*
X112776000Y-79375000D03*
X112776000Y-81915000D03*
X112776000Y-84455000D03*
X112776000Y-86995000D03*
D30*
X112776000Y-89535000D03*
D29*
X112776000Y-92075000D03*
X112776000Y-94615000D03*
X130556000Y-94615000D03*
X130556000Y-92075000D03*
D31*
X130556000Y-89535000D03*
D29*
X130556000Y-86995000D03*
X130556000Y-84455000D03*
X130556000Y-81915000D03*
X130556000Y-79375000D03*
D31*
X130556000Y-76835000D03*
D29*
X130556000Y-74295000D03*
X130556000Y-71755000D03*
X130556000Y-69215000D03*
X130556000Y-66675000D03*
D31*
X130556000Y-64135000D03*
D29*
X130556000Y-61595000D03*
X130556000Y-59055000D03*
X130556000Y-56515000D03*
X130556000Y-53975000D03*
D31*
X130556000Y-51435000D03*
D29*
X130556000Y-48895000D03*
X130556000Y-46355000D03*
D16*
X80645000Y-153416000D03*
D14*
X107188000Y-46228000D03*
D15*
X107188000Y-48768000D03*
X107188000Y-51308000D03*
D16*
X111125000Y-114554000D03*
D14*
X107188000Y-67818000D03*
D19*
X35981600Y-120312000D03*
D17*
X49022000Y-115062000D03*
D18*
X51562000Y-115062000D03*
X54102000Y-115062000D03*
X56642000Y-115062000D03*
X59182000Y-115062000D03*
X61722000Y-115062000D03*
X64262000Y-115062000D03*
X66802000Y-115062000D03*
X66802000Y-102362000D03*
X64262000Y-102362000D03*
X61722000Y-102362000D03*
X59182000Y-102362000D03*
X56642000Y-102362000D03*
X54102000Y-102362000D03*
X51562000Y-102362000D03*
X49022000Y-102362000D03*
D16*
X80645000Y-114554000D03*
D22*
X37338000Y-108966000D03*
D23*
X38110542Y-106588359D03*
X38883085Y-104210717D03*
X39655627Y-101833076D03*
D14*
X107188000Y-94488000D03*
D15*
X107188000Y-91948000D03*
D19*
X155981600Y-120312000D03*
%LPD*%
M02*
