%TF.GenerationSoftware,KiCad,Pcbnew,7.0.10-7.0.10~ubuntu23.10.1*%
%TF.CreationDate,2024-01-06T16:48:33+01:00*%
%TF.ProjectId,valiant-turtle-2,76616c69-616e-4742-9d74-7572746c652d,rev?*%
%TF.SameCoordinates,Original*%
%TF.FileFunction,Drillmap*%
%TF.FilePolarity,Positive*%
%FSLAX45Y45*%
G04 Gerber Fmt 4.5, Leading zero omitted, Abs format (unit mm)*
G04 Created by KiCad (PCBNEW 7.0.10-7.0.10~ubuntu23.10.1) date 2024-01-06 16:48:33*
%MOMM*%
%LPD*%
G01*
G04 APERTURE LIST*
%ADD10C,0.200000*%
%ADD11C,0.185000*%
%ADD12C,0.220000*%
%ADD13C,0.270000*%
%ADD14C,0.320000*%
G04 APERTURE END LIST*
D10*
X9554647Y-6430260D02*
X9642553Y-6430260D01*
X9896645Y-7762260D02*
X9814912Y-7794620D01*
X10044796Y-7668240D02*
X9973678Y-7719910D01*
X8920592Y-6954800D02*
X8947758Y-6871190D01*
X8904121Y-7041150D02*
X8920592Y-6954800D01*
X9467434Y-6441280D02*
X9554647Y-6430260D01*
X9223522Y-7719910D02*
X9152404Y-7668240D01*
X9382288Y-6463140D02*
X9467434Y-6441280D01*
X9814912Y-6463140D02*
X9896645Y-6495500D01*
X9973678Y-6537850D02*
X10044796Y-6589520D01*
X10293079Y-7041150D02*
X10298600Y-7128880D01*
X10212014Y-7466110D02*
X10164912Y-7540330D01*
X8985186Y-7466110D02*
X8947758Y-7386570D01*
X9300555Y-7762260D02*
X9223522Y-7719910D01*
X9300555Y-6495500D02*
X9382288Y-6463140D01*
X10249442Y-7386570D02*
X10212014Y-7466110D01*
X10164912Y-6717430D02*
X10212014Y-6791650D01*
X9896645Y-6495500D02*
X9973678Y-6537850D01*
X9642553Y-7827500D02*
X9554647Y-7827500D01*
X10249442Y-6871190D02*
X10276608Y-6954800D01*
X8947758Y-7386570D02*
X8920592Y-7302960D01*
X10044796Y-6589520D02*
X10108877Y-6649700D01*
X9729766Y-7816480D02*
X9642553Y-7827500D01*
X8985186Y-6791650D02*
X9032288Y-6717430D01*
X10108877Y-7608060D02*
X10044796Y-7668240D01*
X9814912Y-7794620D02*
X9729766Y-7816480D01*
X9152404Y-6589520D02*
X9223522Y-6537850D01*
X8947758Y-6871190D02*
X8985186Y-6791650D01*
X16256000Y-12192000D02*
X13713100Y-4365760D01*
X9223522Y-6537850D02*
X9300555Y-6495500D01*
X9032288Y-7540330D02*
X8985186Y-7466110D01*
X2941200Y-12192000D02*
X9598600Y-17028880D01*
X8898600Y-7128880D02*
X8904121Y-7041150D01*
X10276608Y-7302960D02*
X10249442Y-7386570D01*
X9032288Y-6717430D02*
X9088323Y-6649700D01*
X10164912Y-7540330D02*
X10108877Y-7608060D01*
X9152404Y-7668240D02*
X9088323Y-7608060D01*
X13713100Y-4365760D02*
X5484100Y-4365760D01*
X9973678Y-7719910D02*
X9896645Y-7762260D01*
X10212014Y-6791650D02*
X10249442Y-6871190D01*
X5484100Y-4365760D02*
X2941200Y-12192000D01*
X9382288Y-7794620D02*
X9300555Y-7762260D01*
X8920592Y-7302960D02*
X8904121Y-7216610D01*
X9554647Y-7827500D02*
X9467434Y-7816480D01*
X10108877Y-6649700D02*
X10164912Y-6717430D01*
X9467434Y-7816480D02*
X9382288Y-7794620D01*
X10293079Y-7216610D02*
X10276608Y-7302960D01*
X9088323Y-7608060D02*
X9032288Y-7540330D01*
X10298600Y-7128880D02*
X10293079Y-7216610D01*
X9598600Y-17028880D02*
X16256000Y-12192000D01*
X10276608Y-6954800D02*
X10293079Y-7041150D01*
X9642553Y-6430260D02*
X9729766Y-6441280D01*
X8904121Y-7216610D02*
X8898600Y-7128880D01*
X9729766Y-6441280D02*
X9814912Y-6463140D01*
X9088323Y-6649700D02*
X9152404Y-6589520D01*
D11*
X11831600Y-4859000D02*
X12016600Y-5044000D01*
X12016600Y-4859000D02*
X11831600Y-5044000D01*
X12316600Y-4859000D02*
X12501600Y-5044000D01*
X12501600Y-4859000D02*
X12316600Y-5044000D01*
D12*
X12004100Y-4648500D02*
G75*
G03*
X11784100Y-4648500I-110000J0D01*
G01*
X11784100Y-4648500D02*
G75*
G03*
X12004100Y-4648500I110000J0D01*
G01*
X12549100Y-4648500D02*
G75*
G03*
X12329100Y-4648500I-110000J0D01*
G01*
X12329100Y-4648500D02*
G75*
G03*
X12549100Y-4648500I110000J0D01*
G01*
D13*
X8064500Y-11320400D02*
X8064500Y-11590400D01*
X7929500Y-11455400D02*
X8199500Y-11455400D01*
X8064500Y-15206600D02*
X8064500Y-15476600D01*
X7929500Y-15341600D02*
X8199500Y-15341600D01*
X11112500Y-11320400D02*
X11112500Y-11590400D01*
X10977500Y-11455400D02*
X11247500Y-11455400D01*
X11112500Y-15206600D02*
X11112500Y-15476600D01*
X10977500Y-15341600D02*
X11247500Y-15341600D01*
D14*
X3711298Y-12144338D02*
X3711298Y-11918062D01*
X3485022Y-11918062D01*
X3485022Y-12144338D01*
X3711298Y-12144338D01*
X9711298Y-4944338D02*
X9711298Y-4718062D01*
X9485022Y-4718062D01*
X9485022Y-4944338D01*
X9711298Y-4944338D01*
X15711298Y-12144338D02*
X15711298Y-11918062D01*
X15485022Y-11918062D01*
X15485022Y-12144338D01*
X15711298Y-12144338D01*
D10*
X3191977Y-17350364D02*
X3191977Y-17150364D01*
X3191977Y-17150364D02*
X3239596Y-17150364D01*
X3239596Y-17150364D02*
X3268167Y-17159888D01*
X3268167Y-17159888D02*
X3287215Y-17178935D01*
X3287215Y-17178935D02*
X3296739Y-17197983D01*
X3296739Y-17197983D02*
X3306262Y-17236078D01*
X3306262Y-17236078D02*
X3306262Y-17264650D01*
X3306262Y-17264650D02*
X3296739Y-17302745D01*
X3296739Y-17302745D02*
X3287215Y-17321792D01*
X3287215Y-17321792D02*
X3268167Y-17340840D01*
X3268167Y-17340840D02*
X3239596Y-17350364D01*
X3239596Y-17350364D02*
X3191977Y-17350364D01*
X3391977Y-17350364D02*
X3391977Y-17217030D01*
X3391977Y-17255126D02*
X3401501Y-17236078D01*
X3401501Y-17236078D02*
X3411024Y-17226554D01*
X3411024Y-17226554D02*
X3430072Y-17217030D01*
X3430072Y-17217030D02*
X3449120Y-17217030D01*
X3515786Y-17350364D02*
X3515786Y-17217030D01*
X3515786Y-17150364D02*
X3506262Y-17159888D01*
X3506262Y-17159888D02*
X3515786Y-17169411D01*
X3515786Y-17169411D02*
X3525310Y-17159888D01*
X3525310Y-17159888D02*
X3515786Y-17150364D01*
X3515786Y-17150364D02*
X3515786Y-17169411D01*
X3639596Y-17350364D02*
X3620548Y-17340840D01*
X3620548Y-17340840D02*
X3611024Y-17321792D01*
X3611024Y-17321792D02*
X3611024Y-17150364D01*
X3744358Y-17350364D02*
X3725310Y-17340840D01*
X3725310Y-17340840D02*
X3715786Y-17321792D01*
X3715786Y-17321792D02*
X3715786Y-17150364D01*
X3972929Y-17350364D02*
X3972929Y-17150364D01*
X3972929Y-17150364D02*
X4039596Y-17293221D01*
X4039596Y-17293221D02*
X4106262Y-17150364D01*
X4106262Y-17150364D02*
X4106262Y-17350364D01*
X4287215Y-17350364D02*
X4287215Y-17245602D01*
X4287215Y-17245602D02*
X4277691Y-17226554D01*
X4277691Y-17226554D02*
X4258644Y-17217030D01*
X4258644Y-17217030D02*
X4220548Y-17217030D01*
X4220548Y-17217030D02*
X4201501Y-17226554D01*
X4287215Y-17340840D02*
X4268167Y-17350364D01*
X4268167Y-17350364D02*
X4220548Y-17350364D01*
X4220548Y-17350364D02*
X4201501Y-17340840D01*
X4201501Y-17340840D02*
X4191977Y-17321792D01*
X4191977Y-17321792D02*
X4191977Y-17302745D01*
X4191977Y-17302745D02*
X4201501Y-17283697D01*
X4201501Y-17283697D02*
X4220548Y-17274173D01*
X4220548Y-17274173D02*
X4268167Y-17274173D01*
X4268167Y-17274173D02*
X4287215Y-17264650D01*
X4382453Y-17217030D02*
X4382453Y-17417030D01*
X4382453Y-17226554D02*
X4401501Y-17217030D01*
X4401501Y-17217030D02*
X4439596Y-17217030D01*
X4439596Y-17217030D02*
X4458644Y-17226554D01*
X4458644Y-17226554D02*
X4468167Y-17236078D01*
X4468167Y-17236078D02*
X4477691Y-17255126D01*
X4477691Y-17255126D02*
X4477691Y-17312269D01*
X4477691Y-17312269D02*
X4468167Y-17331316D01*
X4468167Y-17331316D02*
X4458644Y-17340840D01*
X4458644Y-17340840D02*
X4439596Y-17350364D01*
X4439596Y-17350364D02*
X4401501Y-17350364D01*
X4401501Y-17350364D02*
X4382453Y-17340840D01*
X4563405Y-17331316D02*
X4572929Y-17340840D01*
X4572929Y-17340840D02*
X4563405Y-17350364D01*
X4563405Y-17350364D02*
X4553882Y-17340840D01*
X4553882Y-17340840D02*
X4563405Y-17331316D01*
X4563405Y-17331316D02*
X4563405Y-17350364D01*
X4563405Y-17226554D02*
X4572929Y-17236078D01*
X4572929Y-17236078D02*
X4563405Y-17245602D01*
X4563405Y-17245602D02*
X4553882Y-17236078D01*
X4553882Y-17236078D02*
X4563405Y-17226554D01*
X4563405Y-17226554D02*
X4563405Y-17245602D01*
D11*
X2746200Y-17586380D02*
X2931200Y-17771380D01*
X2931200Y-17586380D02*
X2746200Y-17771380D01*
D10*
X3296739Y-17770364D02*
X3182453Y-17770364D01*
X3239596Y-17770364D02*
X3239596Y-17570364D01*
X3239596Y-17570364D02*
X3220548Y-17598935D01*
X3220548Y-17598935D02*
X3201501Y-17617983D01*
X3201501Y-17617983D02*
X3182453Y-17627507D01*
X3382453Y-17751316D02*
X3391977Y-17760840D01*
X3391977Y-17760840D02*
X3382453Y-17770364D01*
X3382453Y-17770364D02*
X3372929Y-17760840D01*
X3372929Y-17760840D02*
X3382453Y-17751316D01*
X3382453Y-17751316D02*
X3382453Y-17770364D01*
X3506262Y-17656078D02*
X3487215Y-17646554D01*
X3487215Y-17646554D02*
X3477691Y-17637030D01*
X3477691Y-17637030D02*
X3468167Y-17617983D01*
X3468167Y-17617983D02*
X3468167Y-17608459D01*
X3468167Y-17608459D02*
X3477691Y-17589411D01*
X3477691Y-17589411D02*
X3487215Y-17579888D01*
X3487215Y-17579888D02*
X3506262Y-17570364D01*
X3506262Y-17570364D02*
X3544358Y-17570364D01*
X3544358Y-17570364D02*
X3563405Y-17579888D01*
X3563405Y-17579888D02*
X3572929Y-17589411D01*
X3572929Y-17589411D02*
X3582453Y-17608459D01*
X3582453Y-17608459D02*
X3582453Y-17617983D01*
X3582453Y-17617983D02*
X3572929Y-17637030D01*
X3572929Y-17637030D02*
X3563405Y-17646554D01*
X3563405Y-17646554D02*
X3544358Y-17656078D01*
X3544358Y-17656078D02*
X3506262Y-17656078D01*
X3506262Y-17656078D02*
X3487215Y-17665602D01*
X3487215Y-17665602D02*
X3477691Y-17675126D01*
X3477691Y-17675126D02*
X3468167Y-17694173D01*
X3468167Y-17694173D02*
X3468167Y-17732269D01*
X3468167Y-17732269D02*
X3477691Y-17751316D01*
X3477691Y-17751316D02*
X3487215Y-17760840D01*
X3487215Y-17760840D02*
X3506262Y-17770364D01*
X3506262Y-17770364D02*
X3544358Y-17770364D01*
X3544358Y-17770364D02*
X3563405Y-17760840D01*
X3563405Y-17760840D02*
X3572929Y-17751316D01*
X3572929Y-17751316D02*
X3582453Y-17732269D01*
X3582453Y-17732269D02*
X3582453Y-17694173D01*
X3582453Y-17694173D02*
X3572929Y-17675126D01*
X3572929Y-17675126D02*
X3563405Y-17665602D01*
X3563405Y-17665602D02*
X3544358Y-17656078D01*
X3763405Y-17570364D02*
X3668167Y-17570364D01*
X3668167Y-17570364D02*
X3658643Y-17665602D01*
X3658643Y-17665602D02*
X3668167Y-17656078D01*
X3668167Y-17656078D02*
X3687215Y-17646554D01*
X3687215Y-17646554D02*
X3734834Y-17646554D01*
X3734834Y-17646554D02*
X3753882Y-17656078D01*
X3753882Y-17656078D02*
X3763405Y-17665602D01*
X3763405Y-17665602D02*
X3772929Y-17684650D01*
X3772929Y-17684650D02*
X3772929Y-17732269D01*
X3772929Y-17732269D02*
X3763405Y-17751316D01*
X3763405Y-17751316D02*
X3753882Y-17760840D01*
X3753882Y-17760840D02*
X3734834Y-17770364D01*
X3734834Y-17770364D02*
X3687215Y-17770364D01*
X3687215Y-17770364D02*
X3668167Y-17760840D01*
X3668167Y-17760840D02*
X3658643Y-17751316D01*
X3896739Y-17570364D02*
X3915786Y-17570364D01*
X3915786Y-17570364D02*
X3934834Y-17579888D01*
X3934834Y-17579888D02*
X3944358Y-17589411D01*
X3944358Y-17589411D02*
X3953882Y-17608459D01*
X3953882Y-17608459D02*
X3963405Y-17646554D01*
X3963405Y-17646554D02*
X3963405Y-17694173D01*
X3963405Y-17694173D02*
X3953882Y-17732269D01*
X3953882Y-17732269D02*
X3944358Y-17751316D01*
X3944358Y-17751316D02*
X3934834Y-17760840D01*
X3934834Y-17760840D02*
X3915786Y-17770364D01*
X3915786Y-17770364D02*
X3896739Y-17770364D01*
X3896739Y-17770364D02*
X3877691Y-17760840D01*
X3877691Y-17760840D02*
X3868167Y-17751316D01*
X3868167Y-17751316D02*
X3858643Y-17732269D01*
X3858643Y-17732269D02*
X3849120Y-17694173D01*
X3849120Y-17694173D02*
X3849120Y-17646554D01*
X3849120Y-17646554D02*
X3858643Y-17608459D01*
X3858643Y-17608459D02*
X3868167Y-17589411D01*
X3868167Y-17589411D02*
X3877691Y-17579888D01*
X3877691Y-17579888D02*
X3896739Y-17570364D01*
X4049120Y-17770364D02*
X4049120Y-17637030D01*
X4049120Y-17656078D02*
X4058643Y-17646554D01*
X4058643Y-17646554D02*
X4077691Y-17637030D01*
X4077691Y-17637030D02*
X4106263Y-17637030D01*
X4106263Y-17637030D02*
X4125310Y-17646554D01*
X4125310Y-17646554D02*
X4134834Y-17665602D01*
X4134834Y-17665602D02*
X4134834Y-17770364D01*
X4134834Y-17665602D02*
X4144358Y-17646554D01*
X4144358Y-17646554D02*
X4163405Y-17637030D01*
X4163405Y-17637030D02*
X4191977Y-17637030D01*
X4191977Y-17637030D02*
X4211025Y-17646554D01*
X4211025Y-17646554D02*
X4220548Y-17665602D01*
X4220548Y-17665602D02*
X4220548Y-17770364D01*
X4315786Y-17770364D02*
X4315786Y-17637030D01*
X4315786Y-17656078D02*
X4325310Y-17646554D01*
X4325310Y-17646554D02*
X4344358Y-17637030D01*
X4344358Y-17637030D02*
X4372929Y-17637030D01*
X4372929Y-17637030D02*
X4391977Y-17646554D01*
X4391977Y-17646554D02*
X4401501Y-17665602D01*
X4401501Y-17665602D02*
X4401501Y-17770364D01*
X4401501Y-17665602D02*
X4411025Y-17646554D01*
X4411025Y-17646554D02*
X4430072Y-17637030D01*
X4430072Y-17637030D02*
X4458644Y-17637030D01*
X4458644Y-17637030D02*
X4477691Y-17646554D01*
X4477691Y-17646554D02*
X4487215Y-17665602D01*
X4487215Y-17665602D02*
X4487215Y-17770364D01*
X4877691Y-17560840D02*
X4706263Y-17817983D01*
X5134834Y-17570364D02*
X5153882Y-17570364D01*
X5153882Y-17570364D02*
X5172929Y-17579888D01*
X5172929Y-17579888D02*
X5182453Y-17589411D01*
X5182453Y-17589411D02*
X5191977Y-17608459D01*
X5191977Y-17608459D02*
X5201501Y-17646554D01*
X5201501Y-17646554D02*
X5201501Y-17694173D01*
X5201501Y-17694173D02*
X5191977Y-17732269D01*
X5191977Y-17732269D02*
X5182453Y-17751316D01*
X5182453Y-17751316D02*
X5172929Y-17760840D01*
X5172929Y-17760840D02*
X5153882Y-17770364D01*
X5153882Y-17770364D02*
X5134834Y-17770364D01*
X5134834Y-17770364D02*
X5115787Y-17760840D01*
X5115787Y-17760840D02*
X5106263Y-17751316D01*
X5106263Y-17751316D02*
X5096739Y-17732269D01*
X5096739Y-17732269D02*
X5087215Y-17694173D01*
X5087215Y-17694173D02*
X5087215Y-17646554D01*
X5087215Y-17646554D02*
X5096739Y-17608459D01*
X5096739Y-17608459D02*
X5106263Y-17589411D01*
X5106263Y-17589411D02*
X5115787Y-17579888D01*
X5115787Y-17579888D02*
X5134834Y-17570364D01*
X5287215Y-17751316D02*
X5296739Y-17760840D01*
X5296739Y-17760840D02*
X5287215Y-17770364D01*
X5287215Y-17770364D02*
X5277691Y-17760840D01*
X5277691Y-17760840D02*
X5287215Y-17751316D01*
X5287215Y-17751316D02*
X5287215Y-17770364D01*
X5420548Y-17570364D02*
X5439596Y-17570364D01*
X5439596Y-17570364D02*
X5458644Y-17579888D01*
X5458644Y-17579888D02*
X5468168Y-17589411D01*
X5468168Y-17589411D02*
X5477691Y-17608459D01*
X5477691Y-17608459D02*
X5487215Y-17646554D01*
X5487215Y-17646554D02*
X5487215Y-17694173D01*
X5487215Y-17694173D02*
X5477691Y-17732269D01*
X5477691Y-17732269D02*
X5468168Y-17751316D01*
X5468168Y-17751316D02*
X5458644Y-17760840D01*
X5458644Y-17760840D02*
X5439596Y-17770364D01*
X5439596Y-17770364D02*
X5420548Y-17770364D01*
X5420548Y-17770364D02*
X5401501Y-17760840D01*
X5401501Y-17760840D02*
X5391977Y-17751316D01*
X5391977Y-17751316D02*
X5382453Y-17732269D01*
X5382453Y-17732269D02*
X5372929Y-17694173D01*
X5372929Y-17694173D02*
X5372929Y-17646554D01*
X5372929Y-17646554D02*
X5382453Y-17608459D01*
X5382453Y-17608459D02*
X5391977Y-17589411D01*
X5391977Y-17589411D02*
X5401501Y-17579888D01*
X5401501Y-17579888D02*
X5420548Y-17570364D01*
X5553882Y-17570364D02*
X5687215Y-17570364D01*
X5687215Y-17570364D02*
X5601501Y-17770364D01*
X5753882Y-17589411D02*
X5763406Y-17579888D01*
X5763406Y-17579888D02*
X5782453Y-17570364D01*
X5782453Y-17570364D02*
X5830072Y-17570364D01*
X5830072Y-17570364D02*
X5849120Y-17579888D01*
X5849120Y-17579888D02*
X5858644Y-17589411D01*
X5858644Y-17589411D02*
X5868167Y-17608459D01*
X5868167Y-17608459D02*
X5868167Y-17627507D01*
X5868167Y-17627507D02*
X5858644Y-17656078D01*
X5858644Y-17656078D02*
X5744358Y-17770364D01*
X5744358Y-17770364D02*
X5868167Y-17770364D01*
X5982453Y-17656078D02*
X5963406Y-17646554D01*
X5963406Y-17646554D02*
X5953882Y-17637030D01*
X5953882Y-17637030D02*
X5944358Y-17617983D01*
X5944358Y-17617983D02*
X5944358Y-17608459D01*
X5944358Y-17608459D02*
X5953882Y-17589411D01*
X5953882Y-17589411D02*
X5963406Y-17579888D01*
X5963406Y-17579888D02*
X5982453Y-17570364D01*
X5982453Y-17570364D02*
X6020548Y-17570364D01*
X6020548Y-17570364D02*
X6039596Y-17579888D01*
X6039596Y-17579888D02*
X6049120Y-17589411D01*
X6049120Y-17589411D02*
X6058644Y-17608459D01*
X6058644Y-17608459D02*
X6058644Y-17617983D01*
X6058644Y-17617983D02*
X6049120Y-17637030D01*
X6049120Y-17637030D02*
X6039596Y-17646554D01*
X6039596Y-17646554D02*
X6020548Y-17656078D01*
X6020548Y-17656078D02*
X5982453Y-17656078D01*
X5982453Y-17656078D02*
X5963406Y-17665602D01*
X5963406Y-17665602D02*
X5953882Y-17675126D01*
X5953882Y-17675126D02*
X5944358Y-17694173D01*
X5944358Y-17694173D02*
X5944358Y-17732269D01*
X5944358Y-17732269D02*
X5953882Y-17751316D01*
X5953882Y-17751316D02*
X5963406Y-17760840D01*
X5963406Y-17760840D02*
X5982453Y-17770364D01*
X5982453Y-17770364D02*
X6020548Y-17770364D01*
X6020548Y-17770364D02*
X6039596Y-17760840D01*
X6039596Y-17760840D02*
X6049120Y-17751316D01*
X6049120Y-17751316D02*
X6058644Y-17732269D01*
X6058644Y-17732269D02*
X6058644Y-17694173D01*
X6058644Y-17694173D02*
X6049120Y-17675126D01*
X6049120Y-17675126D02*
X6039596Y-17665602D01*
X6039596Y-17665602D02*
X6020548Y-17656078D01*
X6134834Y-17570364D02*
X6134834Y-17608459D01*
X6211025Y-17570364D02*
X6211025Y-17608459D01*
X6506263Y-17846554D02*
X6496739Y-17837030D01*
X6496739Y-17837030D02*
X6477691Y-17808459D01*
X6477691Y-17808459D02*
X6468168Y-17789411D01*
X6468168Y-17789411D02*
X6458644Y-17760840D01*
X6458644Y-17760840D02*
X6449120Y-17713221D01*
X6449120Y-17713221D02*
X6449120Y-17675126D01*
X6449120Y-17675126D02*
X6458644Y-17627507D01*
X6458644Y-17627507D02*
X6468168Y-17598935D01*
X6468168Y-17598935D02*
X6477691Y-17579888D01*
X6477691Y-17579888D02*
X6496739Y-17551316D01*
X6496739Y-17551316D02*
X6506263Y-17541792D01*
X6572929Y-17589411D02*
X6582453Y-17579888D01*
X6582453Y-17579888D02*
X6601501Y-17570364D01*
X6601501Y-17570364D02*
X6649120Y-17570364D01*
X6649120Y-17570364D02*
X6668168Y-17579888D01*
X6668168Y-17579888D02*
X6677691Y-17589411D01*
X6677691Y-17589411D02*
X6687215Y-17608459D01*
X6687215Y-17608459D02*
X6687215Y-17627507D01*
X6687215Y-17627507D02*
X6677691Y-17656078D01*
X6677691Y-17656078D02*
X6563406Y-17770364D01*
X6563406Y-17770364D02*
X6687215Y-17770364D01*
X6925310Y-17770364D02*
X6925310Y-17570364D01*
X7011025Y-17770364D02*
X7011025Y-17665602D01*
X7011025Y-17665602D02*
X7001501Y-17646554D01*
X7001501Y-17646554D02*
X6982453Y-17637030D01*
X6982453Y-17637030D02*
X6953882Y-17637030D01*
X6953882Y-17637030D02*
X6934834Y-17646554D01*
X6934834Y-17646554D02*
X6925310Y-17656078D01*
X7134834Y-17770364D02*
X7115787Y-17760840D01*
X7115787Y-17760840D02*
X7106263Y-17751316D01*
X7106263Y-17751316D02*
X7096739Y-17732269D01*
X7096739Y-17732269D02*
X7096739Y-17675126D01*
X7096739Y-17675126D02*
X7106263Y-17656078D01*
X7106263Y-17656078D02*
X7115787Y-17646554D01*
X7115787Y-17646554D02*
X7134834Y-17637030D01*
X7134834Y-17637030D02*
X7163406Y-17637030D01*
X7163406Y-17637030D02*
X7182453Y-17646554D01*
X7182453Y-17646554D02*
X7191977Y-17656078D01*
X7191977Y-17656078D02*
X7201501Y-17675126D01*
X7201501Y-17675126D02*
X7201501Y-17732269D01*
X7201501Y-17732269D02*
X7191977Y-17751316D01*
X7191977Y-17751316D02*
X7182453Y-17760840D01*
X7182453Y-17760840D02*
X7163406Y-17770364D01*
X7163406Y-17770364D02*
X7134834Y-17770364D01*
X7315787Y-17770364D02*
X7296739Y-17760840D01*
X7296739Y-17760840D02*
X7287215Y-17741792D01*
X7287215Y-17741792D02*
X7287215Y-17570364D01*
X7468168Y-17760840D02*
X7449120Y-17770364D01*
X7449120Y-17770364D02*
X7411025Y-17770364D01*
X7411025Y-17770364D02*
X7391977Y-17760840D01*
X7391977Y-17760840D02*
X7382453Y-17741792D01*
X7382453Y-17741792D02*
X7382453Y-17665602D01*
X7382453Y-17665602D02*
X7391977Y-17646554D01*
X7391977Y-17646554D02*
X7411025Y-17637030D01*
X7411025Y-17637030D02*
X7449120Y-17637030D01*
X7449120Y-17637030D02*
X7468168Y-17646554D01*
X7468168Y-17646554D02*
X7477691Y-17665602D01*
X7477691Y-17665602D02*
X7477691Y-17684650D01*
X7477691Y-17684650D02*
X7382453Y-17703697D01*
X7553882Y-17760840D02*
X7572930Y-17770364D01*
X7572930Y-17770364D02*
X7611025Y-17770364D01*
X7611025Y-17770364D02*
X7630072Y-17760840D01*
X7630072Y-17760840D02*
X7639596Y-17741792D01*
X7639596Y-17741792D02*
X7639596Y-17732269D01*
X7639596Y-17732269D02*
X7630072Y-17713221D01*
X7630072Y-17713221D02*
X7611025Y-17703697D01*
X7611025Y-17703697D02*
X7582453Y-17703697D01*
X7582453Y-17703697D02*
X7563406Y-17694173D01*
X7563406Y-17694173D02*
X7553882Y-17675126D01*
X7553882Y-17675126D02*
X7553882Y-17665602D01*
X7553882Y-17665602D02*
X7563406Y-17646554D01*
X7563406Y-17646554D02*
X7582453Y-17637030D01*
X7582453Y-17637030D02*
X7611025Y-17637030D01*
X7611025Y-17637030D02*
X7630072Y-17646554D01*
X7706263Y-17846554D02*
X7715787Y-17837030D01*
X7715787Y-17837030D02*
X7734834Y-17808459D01*
X7734834Y-17808459D02*
X7744358Y-17789411D01*
X7744358Y-17789411D02*
X7753882Y-17760840D01*
X7753882Y-17760840D02*
X7763406Y-17713221D01*
X7763406Y-17713221D02*
X7763406Y-17675126D01*
X7763406Y-17675126D02*
X7753882Y-17627507D01*
X7753882Y-17627507D02*
X7744358Y-17598935D01*
X7744358Y-17598935D02*
X7734834Y-17579888D01*
X7734834Y-17579888D02*
X7715787Y-17551316D01*
X7715787Y-17551316D02*
X7706263Y-17541792D01*
X8068168Y-17846554D02*
X8058644Y-17837030D01*
X8058644Y-17837030D02*
X8039596Y-17808459D01*
X8039596Y-17808459D02*
X8030072Y-17789411D01*
X8030072Y-17789411D02*
X8020549Y-17760840D01*
X8020549Y-17760840D02*
X8011025Y-17713221D01*
X8011025Y-17713221D02*
X8011025Y-17675126D01*
X8011025Y-17675126D02*
X8020549Y-17627507D01*
X8020549Y-17627507D02*
X8030072Y-17598935D01*
X8030072Y-17598935D02*
X8039596Y-17579888D01*
X8039596Y-17579888D02*
X8058644Y-17551316D01*
X8058644Y-17551316D02*
X8068168Y-17541792D01*
X8144358Y-17637030D02*
X8144358Y-17770364D01*
X8144358Y-17656078D02*
X8153882Y-17646554D01*
X8153882Y-17646554D02*
X8172930Y-17637030D01*
X8172930Y-17637030D02*
X8201501Y-17637030D01*
X8201501Y-17637030D02*
X8220549Y-17646554D01*
X8220549Y-17646554D02*
X8230072Y-17665602D01*
X8230072Y-17665602D02*
X8230072Y-17770364D01*
X8353882Y-17770364D02*
X8334834Y-17760840D01*
X8334834Y-17760840D02*
X8325311Y-17751316D01*
X8325311Y-17751316D02*
X8315787Y-17732269D01*
X8315787Y-17732269D02*
X8315787Y-17675126D01*
X8315787Y-17675126D02*
X8325311Y-17656078D01*
X8325311Y-17656078D02*
X8334834Y-17646554D01*
X8334834Y-17646554D02*
X8353882Y-17637030D01*
X8353882Y-17637030D02*
X8382453Y-17637030D01*
X8382453Y-17637030D02*
X8401501Y-17646554D01*
X8401501Y-17646554D02*
X8411025Y-17656078D01*
X8411025Y-17656078D02*
X8420549Y-17675126D01*
X8420549Y-17675126D02*
X8420549Y-17732269D01*
X8420549Y-17732269D02*
X8411025Y-17751316D01*
X8411025Y-17751316D02*
X8401501Y-17760840D01*
X8401501Y-17760840D02*
X8382453Y-17770364D01*
X8382453Y-17770364D02*
X8353882Y-17770364D01*
X8477692Y-17637030D02*
X8553882Y-17637030D01*
X8506263Y-17570364D02*
X8506263Y-17741792D01*
X8506263Y-17741792D02*
X8515787Y-17760840D01*
X8515787Y-17760840D02*
X8534834Y-17770364D01*
X8534834Y-17770364D02*
X8553882Y-17770364D01*
X8772930Y-17637030D02*
X8772930Y-17837030D01*
X8772930Y-17646554D02*
X8791977Y-17637030D01*
X8791977Y-17637030D02*
X8830073Y-17637030D01*
X8830073Y-17637030D02*
X8849120Y-17646554D01*
X8849120Y-17646554D02*
X8858644Y-17656078D01*
X8858644Y-17656078D02*
X8868168Y-17675126D01*
X8868168Y-17675126D02*
X8868168Y-17732269D01*
X8868168Y-17732269D02*
X8858644Y-17751316D01*
X8858644Y-17751316D02*
X8849120Y-17760840D01*
X8849120Y-17760840D02*
X8830073Y-17770364D01*
X8830073Y-17770364D02*
X8791977Y-17770364D01*
X8791977Y-17770364D02*
X8772930Y-17760840D01*
X8982454Y-17770364D02*
X8963406Y-17760840D01*
X8963406Y-17760840D02*
X8953882Y-17741792D01*
X8953882Y-17741792D02*
X8953882Y-17570364D01*
X9144358Y-17770364D02*
X9144358Y-17665602D01*
X9144358Y-17665602D02*
X9134835Y-17646554D01*
X9134835Y-17646554D02*
X9115787Y-17637030D01*
X9115787Y-17637030D02*
X9077692Y-17637030D01*
X9077692Y-17637030D02*
X9058644Y-17646554D01*
X9144358Y-17760840D02*
X9125311Y-17770364D01*
X9125311Y-17770364D02*
X9077692Y-17770364D01*
X9077692Y-17770364D02*
X9058644Y-17760840D01*
X9058644Y-17760840D02*
X9049120Y-17741792D01*
X9049120Y-17741792D02*
X9049120Y-17722745D01*
X9049120Y-17722745D02*
X9058644Y-17703697D01*
X9058644Y-17703697D02*
X9077692Y-17694173D01*
X9077692Y-17694173D02*
X9125311Y-17694173D01*
X9125311Y-17694173D02*
X9144358Y-17684650D01*
X9211025Y-17637030D02*
X9287215Y-17637030D01*
X9239596Y-17570364D02*
X9239596Y-17741792D01*
X9239596Y-17741792D02*
X9249120Y-17760840D01*
X9249120Y-17760840D02*
X9268168Y-17770364D01*
X9268168Y-17770364D02*
X9287215Y-17770364D01*
X9430073Y-17760840D02*
X9411025Y-17770364D01*
X9411025Y-17770364D02*
X9372930Y-17770364D01*
X9372930Y-17770364D02*
X9353882Y-17760840D01*
X9353882Y-17760840D02*
X9344358Y-17741792D01*
X9344358Y-17741792D02*
X9344358Y-17665602D01*
X9344358Y-17665602D02*
X9353882Y-17646554D01*
X9353882Y-17646554D02*
X9372930Y-17637030D01*
X9372930Y-17637030D02*
X9411025Y-17637030D01*
X9411025Y-17637030D02*
X9430073Y-17646554D01*
X9430073Y-17646554D02*
X9439596Y-17665602D01*
X9439596Y-17665602D02*
X9439596Y-17684650D01*
X9439596Y-17684650D02*
X9344358Y-17703697D01*
X9611025Y-17770364D02*
X9611025Y-17570364D01*
X9611025Y-17760840D02*
X9591977Y-17770364D01*
X9591977Y-17770364D02*
X9553882Y-17770364D01*
X9553882Y-17770364D02*
X9534835Y-17760840D01*
X9534835Y-17760840D02*
X9525311Y-17751316D01*
X9525311Y-17751316D02*
X9515787Y-17732269D01*
X9515787Y-17732269D02*
X9515787Y-17675126D01*
X9515787Y-17675126D02*
X9525311Y-17656078D01*
X9525311Y-17656078D02*
X9534835Y-17646554D01*
X9534835Y-17646554D02*
X9553882Y-17637030D01*
X9553882Y-17637030D02*
X9591977Y-17637030D01*
X9591977Y-17637030D02*
X9611025Y-17646554D01*
X9687216Y-17846554D02*
X9696739Y-17837030D01*
X9696739Y-17837030D02*
X9715787Y-17808459D01*
X9715787Y-17808459D02*
X9725311Y-17789411D01*
X9725311Y-17789411D02*
X9734835Y-17760840D01*
X9734835Y-17760840D02*
X9744358Y-17713221D01*
X9744358Y-17713221D02*
X9744358Y-17675126D01*
X9744358Y-17675126D02*
X9734835Y-17627507D01*
X9734835Y-17627507D02*
X9725311Y-17598935D01*
X9725311Y-17598935D02*
X9715787Y-17579888D01*
X9715787Y-17579888D02*
X9696739Y-17551316D01*
X9696739Y-17551316D02*
X9687216Y-17541792D01*
X2931200Y-17983880D02*
G75*
G03*
X2731200Y-17983880I-100000J0D01*
G01*
X2731200Y-17983880D02*
G75*
G03*
X2931200Y-17983880I100000J0D01*
G01*
X3182453Y-17894411D02*
X3191977Y-17884888D01*
X3191977Y-17884888D02*
X3211024Y-17875364D01*
X3211024Y-17875364D02*
X3258643Y-17875364D01*
X3258643Y-17875364D02*
X3277691Y-17884888D01*
X3277691Y-17884888D02*
X3287215Y-17894411D01*
X3287215Y-17894411D02*
X3296739Y-17913459D01*
X3296739Y-17913459D02*
X3296739Y-17932507D01*
X3296739Y-17932507D02*
X3287215Y-17961078D01*
X3287215Y-17961078D02*
X3172929Y-18075364D01*
X3172929Y-18075364D02*
X3296739Y-18075364D01*
X3382453Y-18056316D02*
X3391977Y-18065840D01*
X3391977Y-18065840D02*
X3382453Y-18075364D01*
X3382453Y-18075364D02*
X3372929Y-18065840D01*
X3372929Y-18065840D02*
X3382453Y-18056316D01*
X3382453Y-18056316D02*
X3382453Y-18075364D01*
X3468167Y-17894411D02*
X3477691Y-17884888D01*
X3477691Y-17884888D02*
X3496739Y-17875364D01*
X3496739Y-17875364D02*
X3544358Y-17875364D01*
X3544358Y-17875364D02*
X3563405Y-17884888D01*
X3563405Y-17884888D02*
X3572929Y-17894411D01*
X3572929Y-17894411D02*
X3582453Y-17913459D01*
X3582453Y-17913459D02*
X3582453Y-17932507D01*
X3582453Y-17932507D02*
X3572929Y-17961078D01*
X3572929Y-17961078D02*
X3458643Y-18075364D01*
X3458643Y-18075364D02*
X3582453Y-18075364D01*
X3706262Y-17875364D02*
X3725310Y-17875364D01*
X3725310Y-17875364D02*
X3744358Y-17884888D01*
X3744358Y-17884888D02*
X3753882Y-17894411D01*
X3753882Y-17894411D02*
X3763405Y-17913459D01*
X3763405Y-17913459D02*
X3772929Y-17951554D01*
X3772929Y-17951554D02*
X3772929Y-17999173D01*
X3772929Y-17999173D02*
X3763405Y-18037269D01*
X3763405Y-18037269D02*
X3753882Y-18056316D01*
X3753882Y-18056316D02*
X3744358Y-18065840D01*
X3744358Y-18065840D02*
X3725310Y-18075364D01*
X3725310Y-18075364D02*
X3706262Y-18075364D01*
X3706262Y-18075364D02*
X3687215Y-18065840D01*
X3687215Y-18065840D02*
X3677691Y-18056316D01*
X3677691Y-18056316D02*
X3668167Y-18037269D01*
X3668167Y-18037269D02*
X3658643Y-17999173D01*
X3658643Y-17999173D02*
X3658643Y-17951554D01*
X3658643Y-17951554D02*
X3668167Y-17913459D01*
X3668167Y-17913459D02*
X3677691Y-17894411D01*
X3677691Y-17894411D02*
X3687215Y-17884888D01*
X3687215Y-17884888D02*
X3706262Y-17875364D01*
X3896739Y-17875364D02*
X3915786Y-17875364D01*
X3915786Y-17875364D02*
X3934834Y-17884888D01*
X3934834Y-17884888D02*
X3944358Y-17894411D01*
X3944358Y-17894411D02*
X3953882Y-17913459D01*
X3953882Y-17913459D02*
X3963405Y-17951554D01*
X3963405Y-17951554D02*
X3963405Y-17999173D01*
X3963405Y-17999173D02*
X3953882Y-18037269D01*
X3953882Y-18037269D02*
X3944358Y-18056316D01*
X3944358Y-18056316D02*
X3934834Y-18065840D01*
X3934834Y-18065840D02*
X3915786Y-18075364D01*
X3915786Y-18075364D02*
X3896739Y-18075364D01*
X3896739Y-18075364D02*
X3877691Y-18065840D01*
X3877691Y-18065840D02*
X3868167Y-18056316D01*
X3868167Y-18056316D02*
X3858643Y-18037269D01*
X3858643Y-18037269D02*
X3849120Y-17999173D01*
X3849120Y-17999173D02*
X3849120Y-17951554D01*
X3849120Y-17951554D02*
X3858643Y-17913459D01*
X3858643Y-17913459D02*
X3868167Y-17894411D01*
X3868167Y-17894411D02*
X3877691Y-17884888D01*
X3877691Y-17884888D02*
X3896739Y-17875364D01*
X4049120Y-18075364D02*
X4049120Y-17942030D01*
X4049120Y-17961078D02*
X4058643Y-17951554D01*
X4058643Y-17951554D02*
X4077691Y-17942030D01*
X4077691Y-17942030D02*
X4106263Y-17942030D01*
X4106263Y-17942030D02*
X4125310Y-17951554D01*
X4125310Y-17951554D02*
X4134834Y-17970602D01*
X4134834Y-17970602D02*
X4134834Y-18075364D01*
X4134834Y-17970602D02*
X4144358Y-17951554D01*
X4144358Y-17951554D02*
X4163405Y-17942030D01*
X4163405Y-17942030D02*
X4191977Y-17942030D01*
X4191977Y-17942030D02*
X4211025Y-17951554D01*
X4211025Y-17951554D02*
X4220548Y-17970602D01*
X4220548Y-17970602D02*
X4220548Y-18075364D01*
X4315786Y-18075364D02*
X4315786Y-17942030D01*
X4315786Y-17961078D02*
X4325310Y-17951554D01*
X4325310Y-17951554D02*
X4344358Y-17942030D01*
X4344358Y-17942030D02*
X4372929Y-17942030D01*
X4372929Y-17942030D02*
X4391977Y-17951554D01*
X4391977Y-17951554D02*
X4401501Y-17970602D01*
X4401501Y-17970602D02*
X4401501Y-18075364D01*
X4401501Y-17970602D02*
X4411025Y-17951554D01*
X4411025Y-17951554D02*
X4430072Y-17942030D01*
X4430072Y-17942030D02*
X4458644Y-17942030D01*
X4458644Y-17942030D02*
X4477691Y-17951554D01*
X4477691Y-17951554D02*
X4487215Y-17970602D01*
X4487215Y-17970602D02*
X4487215Y-18075364D01*
X4877691Y-17865840D02*
X4706263Y-18122983D01*
X5134834Y-17875364D02*
X5153882Y-17875364D01*
X5153882Y-17875364D02*
X5172929Y-17884888D01*
X5172929Y-17884888D02*
X5182453Y-17894411D01*
X5182453Y-17894411D02*
X5191977Y-17913459D01*
X5191977Y-17913459D02*
X5201501Y-17951554D01*
X5201501Y-17951554D02*
X5201501Y-17999173D01*
X5201501Y-17999173D02*
X5191977Y-18037269D01*
X5191977Y-18037269D02*
X5182453Y-18056316D01*
X5182453Y-18056316D02*
X5172929Y-18065840D01*
X5172929Y-18065840D02*
X5153882Y-18075364D01*
X5153882Y-18075364D02*
X5134834Y-18075364D01*
X5134834Y-18075364D02*
X5115787Y-18065840D01*
X5115787Y-18065840D02*
X5106263Y-18056316D01*
X5106263Y-18056316D02*
X5096739Y-18037269D01*
X5096739Y-18037269D02*
X5087215Y-17999173D01*
X5087215Y-17999173D02*
X5087215Y-17951554D01*
X5087215Y-17951554D02*
X5096739Y-17913459D01*
X5096739Y-17913459D02*
X5106263Y-17894411D01*
X5106263Y-17894411D02*
X5115787Y-17884888D01*
X5115787Y-17884888D02*
X5134834Y-17875364D01*
X5287215Y-18056316D02*
X5296739Y-18065840D01*
X5296739Y-18065840D02*
X5287215Y-18075364D01*
X5287215Y-18075364D02*
X5277691Y-18065840D01*
X5277691Y-18065840D02*
X5287215Y-18056316D01*
X5287215Y-18056316D02*
X5287215Y-18075364D01*
X5420548Y-17875364D02*
X5439596Y-17875364D01*
X5439596Y-17875364D02*
X5458644Y-17884888D01*
X5458644Y-17884888D02*
X5468168Y-17894411D01*
X5468168Y-17894411D02*
X5477691Y-17913459D01*
X5477691Y-17913459D02*
X5487215Y-17951554D01*
X5487215Y-17951554D02*
X5487215Y-17999173D01*
X5487215Y-17999173D02*
X5477691Y-18037269D01*
X5477691Y-18037269D02*
X5468168Y-18056316D01*
X5468168Y-18056316D02*
X5458644Y-18065840D01*
X5458644Y-18065840D02*
X5439596Y-18075364D01*
X5439596Y-18075364D02*
X5420548Y-18075364D01*
X5420548Y-18075364D02*
X5401501Y-18065840D01*
X5401501Y-18065840D02*
X5391977Y-18056316D01*
X5391977Y-18056316D02*
X5382453Y-18037269D01*
X5382453Y-18037269D02*
X5372929Y-17999173D01*
X5372929Y-17999173D02*
X5372929Y-17951554D01*
X5372929Y-17951554D02*
X5382453Y-17913459D01*
X5382453Y-17913459D02*
X5391977Y-17894411D01*
X5391977Y-17894411D02*
X5401501Y-17884888D01*
X5401501Y-17884888D02*
X5420548Y-17875364D01*
X5601501Y-17961078D02*
X5582453Y-17951554D01*
X5582453Y-17951554D02*
X5572929Y-17942030D01*
X5572929Y-17942030D02*
X5563406Y-17922983D01*
X5563406Y-17922983D02*
X5563406Y-17913459D01*
X5563406Y-17913459D02*
X5572929Y-17894411D01*
X5572929Y-17894411D02*
X5582453Y-17884888D01*
X5582453Y-17884888D02*
X5601501Y-17875364D01*
X5601501Y-17875364D02*
X5639596Y-17875364D01*
X5639596Y-17875364D02*
X5658644Y-17884888D01*
X5658644Y-17884888D02*
X5668167Y-17894411D01*
X5668167Y-17894411D02*
X5677691Y-17913459D01*
X5677691Y-17913459D02*
X5677691Y-17922983D01*
X5677691Y-17922983D02*
X5668167Y-17942030D01*
X5668167Y-17942030D02*
X5658644Y-17951554D01*
X5658644Y-17951554D02*
X5639596Y-17961078D01*
X5639596Y-17961078D02*
X5601501Y-17961078D01*
X5601501Y-17961078D02*
X5582453Y-17970602D01*
X5582453Y-17970602D02*
X5572929Y-17980126D01*
X5572929Y-17980126D02*
X5563406Y-17999173D01*
X5563406Y-17999173D02*
X5563406Y-18037269D01*
X5563406Y-18037269D02*
X5572929Y-18056316D01*
X5572929Y-18056316D02*
X5582453Y-18065840D01*
X5582453Y-18065840D02*
X5601501Y-18075364D01*
X5601501Y-18075364D02*
X5639596Y-18075364D01*
X5639596Y-18075364D02*
X5658644Y-18065840D01*
X5658644Y-18065840D02*
X5668167Y-18056316D01*
X5668167Y-18056316D02*
X5677691Y-18037269D01*
X5677691Y-18037269D02*
X5677691Y-17999173D01*
X5677691Y-17999173D02*
X5668167Y-17980126D01*
X5668167Y-17980126D02*
X5658644Y-17970602D01*
X5658644Y-17970602D02*
X5639596Y-17961078D01*
X5849120Y-17875364D02*
X5811025Y-17875364D01*
X5811025Y-17875364D02*
X5791977Y-17884888D01*
X5791977Y-17884888D02*
X5782453Y-17894411D01*
X5782453Y-17894411D02*
X5763406Y-17922983D01*
X5763406Y-17922983D02*
X5753882Y-17961078D01*
X5753882Y-17961078D02*
X5753882Y-18037269D01*
X5753882Y-18037269D02*
X5763406Y-18056316D01*
X5763406Y-18056316D02*
X5772929Y-18065840D01*
X5772929Y-18065840D02*
X5791977Y-18075364D01*
X5791977Y-18075364D02*
X5830072Y-18075364D01*
X5830072Y-18075364D02*
X5849120Y-18065840D01*
X5849120Y-18065840D02*
X5858644Y-18056316D01*
X5858644Y-18056316D02*
X5868167Y-18037269D01*
X5868167Y-18037269D02*
X5868167Y-17989650D01*
X5868167Y-17989650D02*
X5858644Y-17970602D01*
X5858644Y-17970602D02*
X5849120Y-17961078D01*
X5849120Y-17961078D02*
X5830072Y-17951554D01*
X5830072Y-17951554D02*
X5791977Y-17951554D01*
X5791977Y-17951554D02*
X5772929Y-17961078D01*
X5772929Y-17961078D02*
X5763406Y-17970602D01*
X5763406Y-17970602D02*
X5753882Y-17989650D01*
X6039596Y-17875364D02*
X6001501Y-17875364D01*
X6001501Y-17875364D02*
X5982453Y-17884888D01*
X5982453Y-17884888D02*
X5972929Y-17894411D01*
X5972929Y-17894411D02*
X5953882Y-17922983D01*
X5953882Y-17922983D02*
X5944358Y-17961078D01*
X5944358Y-17961078D02*
X5944358Y-18037269D01*
X5944358Y-18037269D02*
X5953882Y-18056316D01*
X5953882Y-18056316D02*
X5963406Y-18065840D01*
X5963406Y-18065840D02*
X5982453Y-18075364D01*
X5982453Y-18075364D02*
X6020548Y-18075364D01*
X6020548Y-18075364D02*
X6039596Y-18065840D01*
X6039596Y-18065840D02*
X6049120Y-18056316D01*
X6049120Y-18056316D02*
X6058644Y-18037269D01*
X6058644Y-18037269D02*
X6058644Y-17989650D01*
X6058644Y-17989650D02*
X6049120Y-17970602D01*
X6049120Y-17970602D02*
X6039596Y-17961078D01*
X6039596Y-17961078D02*
X6020548Y-17951554D01*
X6020548Y-17951554D02*
X5982453Y-17951554D01*
X5982453Y-17951554D02*
X5963406Y-17961078D01*
X5963406Y-17961078D02*
X5953882Y-17970602D01*
X5953882Y-17970602D02*
X5944358Y-17989650D01*
X6134834Y-17875364D02*
X6134834Y-17913459D01*
X6211025Y-17875364D02*
X6211025Y-17913459D01*
X6506263Y-18151554D02*
X6496739Y-18142030D01*
X6496739Y-18142030D02*
X6477691Y-18113459D01*
X6477691Y-18113459D02*
X6468168Y-18094411D01*
X6468168Y-18094411D02*
X6458644Y-18065840D01*
X6458644Y-18065840D02*
X6449120Y-18018221D01*
X6449120Y-18018221D02*
X6449120Y-17980126D01*
X6449120Y-17980126D02*
X6458644Y-17932507D01*
X6458644Y-17932507D02*
X6468168Y-17903935D01*
X6468168Y-17903935D02*
X6477691Y-17884888D01*
X6477691Y-17884888D02*
X6496739Y-17856316D01*
X6496739Y-17856316D02*
X6506263Y-17846792D01*
X6572929Y-17894411D02*
X6582453Y-17884888D01*
X6582453Y-17884888D02*
X6601501Y-17875364D01*
X6601501Y-17875364D02*
X6649120Y-17875364D01*
X6649120Y-17875364D02*
X6668168Y-17884888D01*
X6668168Y-17884888D02*
X6677691Y-17894411D01*
X6677691Y-17894411D02*
X6687215Y-17913459D01*
X6687215Y-17913459D02*
X6687215Y-17932507D01*
X6687215Y-17932507D02*
X6677691Y-17961078D01*
X6677691Y-17961078D02*
X6563406Y-18075364D01*
X6563406Y-18075364D02*
X6687215Y-18075364D01*
X6925310Y-18075364D02*
X6925310Y-17875364D01*
X7011025Y-18075364D02*
X7011025Y-17970602D01*
X7011025Y-17970602D02*
X7001501Y-17951554D01*
X7001501Y-17951554D02*
X6982453Y-17942030D01*
X6982453Y-17942030D02*
X6953882Y-17942030D01*
X6953882Y-17942030D02*
X6934834Y-17951554D01*
X6934834Y-17951554D02*
X6925310Y-17961078D01*
X7134834Y-18075364D02*
X7115787Y-18065840D01*
X7115787Y-18065840D02*
X7106263Y-18056316D01*
X7106263Y-18056316D02*
X7096739Y-18037269D01*
X7096739Y-18037269D02*
X7096739Y-17980126D01*
X7096739Y-17980126D02*
X7106263Y-17961078D01*
X7106263Y-17961078D02*
X7115787Y-17951554D01*
X7115787Y-17951554D02*
X7134834Y-17942030D01*
X7134834Y-17942030D02*
X7163406Y-17942030D01*
X7163406Y-17942030D02*
X7182453Y-17951554D01*
X7182453Y-17951554D02*
X7191977Y-17961078D01*
X7191977Y-17961078D02*
X7201501Y-17980126D01*
X7201501Y-17980126D02*
X7201501Y-18037269D01*
X7201501Y-18037269D02*
X7191977Y-18056316D01*
X7191977Y-18056316D02*
X7182453Y-18065840D01*
X7182453Y-18065840D02*
X7163406Y-18075364D01*
X7163406Y-18075364D02*
X7134834Y-18075364D01*
X7315787Y-18075364D02*
X7296739Y-18065840D01*
X7296739Y-18065840D02*
X7287215Y-18046792D01*
X7287215Y-18046792D02*
X7287215Y-17875364D01*
X7468168Y-18065840D02*
X7449120Y-18075364D01*
X7449120Y-18075364D02*
X7411025Y-18075364D01*
X7411025Y-18075364D02*
X7391977Y-18065840D01*
X7391977Y-18065840D02*
X7382453Y-18046792D01*
X7382453Y-18046792D02*
X7382453Y-17970602D01*
X7382453Y-17970602D02*
X7391977Y-17951554D01*
X7391977Y-17951554D02*
X7411025Y-17942030D01*
X7411025Y-17942030D02*
X7449120Y-17942030D01*
X7449120Y-17942030D02*
X7468168Y-17951554D01*
X7468168Y-17951554D02*
X7477691Y-17970602D01*
X7477691Y-17970602D02*
X7477691Y-17989650D01*
X7477691Y-17989650D02*
X7382453Y-18008697D01*
X7553882Y-18065840D02*
X7572930Y-18075364D01*
X7572930Y-18075364D02*
X7611025Y-18075364D01*
X7611025Y-18075364D02*
X7630072Y-18065840D01*
X7630072Y-18065840D02*
X7639596Y-18046792D01*
X7639596Y-18046792D02*
X7639596Y-18037269D01*
X7639596Y-18037269D02*
X7630072Y-18018221D01*
X7630072Y-18018221D02*
X7611025Y-18008697D01*
X7611025Y-18008697D02*
X7582453Y-18008697D01*
X7582453Y-18008697D02*
X7563406Y-17999173D01*
X7563406Y-17999173D02*
X7553882Y-17980126D01*
X7553882Y-17980126D02*
X7553882Y-17970602D01*
X7553882Y-17970602D02*
X7563406Y-17951554D01*
X7563406Y-17951554D02*
X7582453Y-17942030D01*
X7582453Y-17942030D02*
X7611025Y-17942030D01*
X7611025Y-17942030D02*
X7630072Y-17951554D01*
X7706263Y-18151554D02*
X7715787Y-18142030D01*
X7715787Y-18142030D02*
X7734834Y-18113459D01*
X7734834Y-18113459D02*
X7744358Y-18094411D01*
X7744358Y-18094411D02*
X7753882Y-18065840D01*
X7753882Y-18065840D02*
X7763406Y-18018221D01*
X7763406Y-18018221D02*
X7763406Y-17980126D01*
X7763406Y-17980126D02*
X7753882Y-17932507D01*
X7753882Y-17932507D02*
X7744358Y-17903935D01*
X7744358Y-17903935D02*
X7734834Y-17884888D01*
X7734834Y-17884888D02*
X7715787Y-17856316D01*
X7715787Y-17856316D02*
X7706263Y-17846792D01*
X8068168Y-18151554D02*
X8058644Y-18142030D01*
X8058644Y-18142030D02*
X8039596Y-18113459D01*
X8039596Y-18113459D02*
X8030072Y-18094411D01*
X8030072Y-18094411D02*
X8020549Y-18065840D01*
X8020549Y-18065840D02*
X8011025Y-18018221D01*
X8011025Y-18018221D02*
X8011025Y-17980126D01*
X8011025Y-17980126D02*
X8020549Y-17932507D01*
X8020549Y-17932507D02*
X8030072Y-17903935D01*
X8030072Y-17903935D02*
X8039596Y-17884888D01*
X8039596Y-17884888D02*
X8058644Y-17856316D01*
X8058644Y-17856316D02*
X8068168Y-17846792D01*
X8144358Y-17942030D02*
X8144358Y-18075364D01*
X8144358Y-17961078D02*
X8153882Y-17951554D01*
X8153882Y-17951554D02*
X8172930Y-17942030D01*
X8172930Y-17942030D02*
X8201501Y-17942030D01*
X8201501Y-17942030D02*
X8220549Y-17951554D01*
X8220549Y-17951554D02*
X8230072Y-17970602D01*
X8230072Y-17970602D02*
X8230072Y-18075364D01*
X8353882Y-18075364D02*
X8334834Y-18065840D01*
X8334834Y-18065840D02*
X8325311Y-18056316D01*
X8325311Y-18056316D02*
X8315787Y-18037269D01*
X8315787Y-18037269D02*
X8315787Y-17980126D01*
X8315787Y-17980126D02*
X8325311Y-17961078D01*
X8325311Y-17961078D02*
X8334834Y-17951554D01*
X8334834Y-17951554D02*
X8353882Y-17942030D01*
X8353882Y-17942030D02*
X8382453Y-17942030D01*
X8382453Y-17942030D02*
X8401501Y-17951554D01*
X8401501Y-17951554D02*
X8411025Y-17961078D01*
X8411025Y-17961078D02*
X8420549Y-17980126D01*
X8420549Y-17980126D02*
X8420549Y-18037269D01*
X8420549Y-18037269D02*
X8411025Y-18056316D01*
X8411025Y-18056316D02*
X8401501Y-18065840D01*
X8401501Y-18065840D02*
X8382453Y-18075364D01*
X8382453Y-18075364D02*
X8353882Y-18075364D01*
X8477692Y-17942030D02*
X8553882Y-17942030D01*
X8506263Y-17875364D02*
X8506263Y-18046792D01*
X8506263Y-18046792D02*
X8515787Y-18065840D01*
X8515787Y-18065840D02*
X8534834Y-18075364D01*
X8534834Y-18075364D02*
X8553882Y-18075364D01*
X8772930Y-17942030D02*
X8772930Y-18142030D01*
X8772930Y-17951554D02*
X8791977Y-17942030D01*
X8791977Y-17942030D02*
X8830073Y-17942030D01*
X8830073Y-17942030D02*
X8849120Y-17951554D01*
X8849120Y-17951554D02*
X8858644Y-17961078D01*
X8858644Y-17961078D02*
X8868168Y-17980126D01*
X8868168Y-17980126D02*
X8868168Y-18037269D01*
X8868168Y-18037269D02*
X8858644Y-18056316D01*
X8858644Y-18056316D02*
X8849120Y-18065840D01*
X8849120Y-18065840D02*
X8830073Y-18075364D01*
X8830073Y-18075364D02*
X8791977Y-18075364D01*
X8791977Y-18075364D02*
X8772930Y-18065840D01*
X8982454Y-18075364D02*
X8963406Y-18065840D01*
X8963406Y-18065840D02*
X8953882Y-18046792D01*
X8953882Y-18046792D02*
X8953882Y-17875364D01*
X9144358Y-18075364D02*
X9144358Y-17970602D01*
X9144358Y-17970602D02*
X9134835Y-17951554D01*
X9134835Y-17951554D02*
X9115787Y-17942030D01*
X9115787Y-17942030D02*
X9077692Y-17942030D01*
X9077692Y-17942030D02*
X9058644Y-17951554D01*
X9144358Y-18065840D02*
X9125311Y-18075364D01*
X9125311Y-18075364D02*
X9077692Y-18075364D01*
X9077692Y-18075364D02*
X9058644Y-18065840D01*
X9058644Y-18065840D02*
X9049120Y-18046792D01*
X9049120Y-18046792D02*
X9049120Y-18027745D01*
X9049120Y-18027745D02*
X9058644Y-18008697D01*
X9058644Y-18008697D02*
X9077692Y-17999173D01*
X9077692Y-17999173D02*
X9125311Y-17999173D01*
X9125311Y-17999173D02*
X9144358Y-17989650D01*
X9211025Y-17942030D02*
X9287215Y-17942030D01*
X9239596Y-17875364D02*
X9239596Y-18046792D01*
X9239596Y-18046792D02*
X9249120Y-18065840D01*
X9249120Y-18065840D02*
X9268168Y-18075364D01*
X9268168Y-18075364D02*
X9287215Y-18075364D01*
X9430073Y-18065840D02*
X9411025Y-18075364D01*
X9411025Y-18075364D02*
X9372930Y-18075364D01*
X9372930Y-18075364D02*
X9353882Y-18065840D01*
X9353882Y-18065840D02*
X9344358Y-18046792D01*
X9344358Y-18046792D02*
X9344358Y-17970602D01*
X9344358Y-17970602D02*
X9353882Y-17951554D01*
X9353882Y-17951554D02*
X9372930Y-17942030D01*
X9372930Y-17942030D02*
X9411025Y-17942030D01*
X9411025Y-17942030D02*
X9430073Y-17951554D01*
X9430073Y-17951554D02*
X9439596Y-17970602D01*
X9439596Y-17970602D02*
X9439596Y-17989650D01*
X9439596Y-17989650D02*
X9344358Y-18008697D01*
X9611025Y-18075364D02*
X9611025Y-17875364D01*
X9611025Y-18065840D02*
X9591977Y-18075364D01*
X9591977Y-18075364D02*
X9553882Y-18075364D01*
X9553882Y-18075364D02*
X9534835Y-18065840D01*
X9534835Y-18065840D02*
X9525311Y-18056316D01*
X9525311Y-18056316D02*
X9515787Y-18037269D01*
X9515787Y-18037269D02*
X9515787Y-17980126D01*
X9515787Y-17980126D02*
X9525311Y-17961078D01*
X9525311Y-17961078D02*
X9534835Y-17951554D01*
X9534835Y-17951554D02*
X9553882Y-17942030D01*
X9553882Y-17942030D02*
X9591977Y-17942030D01*
X9591977Y-17942030D02*
X9611025Y-17951554D01*
X9687216Y-18151554D02*
X9696739Y-18142030D01*
X9696739Y-18142030D02*
X9715787Y-18113459D01*
X9715787Y-18113459D02*
X9725311Y-18094411D01*
X9725311Y-18094411D02*
X9734835Y-18065840D01*
X9734835Y-18065840D02*
X9744358Y-18018221D01*
X9744358Y-18018221D02*
X9744358Y-17980126D01*
X9744358Y-17980126D02*
X9734835Y-17932507D01*
X9734835Y-17932507D02*
X9725311Y-17903935D01*
X9725311Y-17903935D02*
X9715787Y-17884888D01*
X9715787Y-17884888D02*
X9696739Y-17856316D01*
X9696739Y-17856316D02*
X9687216Y-17846792D01*
X2831200Y-18203880D02*
X2831200Y-18403880D01*
X2731200Y-18303880D02*
X2931200Y-18303880D01*
X3182453Y-18214411D02*
X3191977Y-18204888D01*
X3191977Y-18204888D02*
X3211024Y-18195364D01*
X3211024Y-18195364D02*
X3258643Y-18195364D01*
X3258643Y-18195364D02*
X3277691Y-18204888D01*
X3277691Y-18204888D02*
X3287215Y-18214411D01*
X3287215Y-18214411D02*
X3296739Y-18233459D01*
X3296739Y-18233459D02*
X3296739Y-18252507D01*
X3296739Y-18252507D02*
X3287215Y-18281078D01*
X3287215Y-18281078D02*
X3172929Y-18395364D01*
X3172929Y-18395364D02*
X3296739Y-18395364D01*
X3382453Y-18376316D02*
X3391977Y-18385840D01*
X3391977Y-18385840D02*
X3382453Y-18395364D01*
X3382453Y-18395364D02*
X3372929Y-18385840D01*
X3372929Y-18385840D02*
X3382453Y-18376316D01*
X3382453Y-18376316D02*
X3382453Y-18395364D01*
X3458643Y-18195364D02*
X3591977Y-18195364D01*
X3591977Y-18195364D02*
X3506262Y-18395364D01*
X3706262Y-18195364D02*
X3725310Y-18195364D01*
X3725310Y-18195364D02*
X3744358Y-18204888D01*
X3744358Y-18204888D02*
X3753882Y-18214411D01*
X3753882Y-18214411D02*
X3763405Y-18233459D01*
X3763405Y-18233459D02*
X3772929Y-18271554D01*
X3772929Y-18271554D02*
X3772929Y-18319173D01*
X3772929Y-18319173D02*
X3763405Y-18357269D01*
X3763405Y-18357269D02*
X3753882Y-18376316D01*
X3753882Y-18376316D02*
X3744358Y-18385840D01*
X3744358Y-18385840D02*
X3725310Y-18395364D01*
X3725310Y-18395364D02*
X3706262Y-18395364D01*
X3706262Y-18395364D02*
X3687215Y-18385840D01*
X3687215Y-18385840D02*
X3677691Y-18376316D01*
X3677691Y-18376316D02*
X3668167Y-18357269D01*
X3668167Y-18357269D02*
X3658643Y-18319173D01*
X3658643Y-18319173D02*
X3658643Y-18271554D01*
X3658643Y-18271554D02*
X3668167Y-18233459D01*
X3668167Y-18233459D02*
X3677691Y-18214411D01*
X3677691Y-18214411D02*
X3687215Y-18204888D01*
X3687215Y-18204888D02*
X3706262Y-18195364D01*
X3896739Y-18195364D02*
X3915786Y-18195364D01*
X3915786Y-18195364D02*
X3934834Y-18204888D01*
X3934834Y-18204888D02*
X3944358Y-18214411D01*
X3944358Y-18214411D02*
X3953882Y-18233459D01*
X3953882Y-18233459D02*
X3963405Y-18271554D01*
X3963405Y-18271554D02*
X3963405Y-18319173D01*
X3963405Y-18319173D02*
X3953882Y-18357269D01*
X3953882Y-18357269D02*
X3944358Y-18376316D01*
X3944358Y-18376316D02*
X3934834Y-18385840D01*
X3934834Y-18385840D02*
X3915786Y-18395364D01*
X3915786Y-18395364D02*
X3896739Y-18395364D01*
X3896739Y-18395364D02*
X3877691Y-18385840D01*
X3877691Y-18385840D02*
X3868167Y-18376316D01*
X3868167Y-18376316D02*
X3858643Y-18357269D01*
X3858643Y-18357269D02*
X3849120Y-18319173D01*
X3849120Y-18319173D02*
X3849120Y-18271554D01*
X3849120Y-18271554D02*
X3858643Y-18233459D01*
X3858643Y-18233459D02*
X3868167Y-18214411D01*
X3868167Y-18214411D02*
X3877691Y-18204888D01*
X3877691Y-18204888D02*
X3896739Y-18195364D01*
X4049120Y-18395364D02*
X4049120Y-18262030D01*
X4049120Y-18281078D02*
X4058643Y-18271554D01*
X4058643Y-18271554D02*
X4077691Y-18262030D01*
X4077691Y-18262030D02*
X4106263Y-18262030D01*
X4106263Y-18262030D02*
X4125310Y-18271554D01*
X4125310Y-18271554D02*
X4134834Y-18290602D01*
X4134834Y-18290602D02*
X4134834Y-18395364D01*
X4134834Y-18290602D02*
X4144358Y-18271554D01*
X4144358Y-18271554D02*
X4163405Y-18262030D01*
X4163405Y-18262030D02*
X4191977Y-18262030D01*
X4191977Y-18262030D02*
X4211025Y-18271554D01*
X4211025Y-18271554D02*
X4220548Y-18290602D01*
X4220548Y-18290602D02*
X4220548Y-18395364D01*
X4315786Y-18395364D02*
X4315786Y-18262030D01*
X4315786Y-18281078D02*
X4325310Y-18271554D01*
X4325310Y-18271554D02*
X4344358Y-18262030D01*
X4344358Y-18262030D02*
X4372929Y-18262030D01*
X4372929Y-18262030D02*
X4391977Y-18271554D01*
X4391977Y-18271554D02*
X4401501Y-18290602D01*
X4401501Y-18290602D02*
X4401501Y-18395364D01*
X4401501Y-18290602D02*
X4411025Y-18271554D01*
X4411025Y-18271554D02*
X4430072Y-18262030D01*
X4430072Y-18262030D02*
X4458644Y-18262030D01*
X4458644Y-18262030D02*
X4477691Y-18271554D01*
X4477691Y-18271554D02*
X4487215Y-18290602D01*
X4487215Y-18290602D02*
X4487215Y-18395364D01*
X4877691Y-18185840D02*
X4706263Y-18442983D01*
X5134834Y-18195364D02*
X5153882Y-18195364D01*
X5153882Y-18195364D02*
X5172929Y-18204888D01*
X5172929Y-18204888D02*
X5182453Y-18214411D01*
X5182453Y-18214411D02*
X5191977Y-18233459D01*
X5191977Y-18233459D02*
X5201501Y-18271554D01*
X5201501Y-18271554D02*
X5201501Y-18319173D01*
X5201501Y-18319173D02*
X5191977Y-18357269D01*
X5191977Y-18357269D02*
X5182453Y-18376316D01*
X5182453Y-18376316D02*
X5172929Y-18385840D01*
X5172929Y-18385840D02*
X5153882Y-18395364D01*
X5153882Y-18395364D02*
X5134834Y-18395364D01*
X5134834Y-18395364D02*
X5115787Y-18385840D01*
X5115787Y-18385840D02*
X5106263Y-18376316D01*
X5106263Y-18376316D02*
X5096739Y-18357269D01*
X5096739Y-18357269D02*
X5087215Y-18319173D01*
X5087215Y-18319173D02*
X5087215Y-18271554D01*
X5087215Y-18271554D02*
X5096739Y-18233459D01*
X5096739Y-18233459D02*
X5106263Y-18214411D01*
X5106263Y-18214411D02*
X5115787Y-18204888D01*
X5115787Y-18204888D02*
X5134834Y-18195364D01*
X5287215Y-18376316D02*
X5296739Y-18385840D01*
X5296739Y-18385840D02*
X5287215Y-18395364D01*
X5287215Y-18395364D02*
X5277691Y-18385840D01*
X5277691Y-18385840D02*
X5287215Y-18376316D01*
X5287215Y-18376316D02*
X5287215Y-18395364D01*
X5487215Y-18395364D02*
X5372929Y-18395364D01*
X5430072Y-18395364D02*
X5430072Y-18195364D01*
X5430072Y-18195364D02*
X5411025Y-18223935D01*
X5411025Y-18223935D02*
X5391977Y-18242983D01*
X5391977Y-18242983D02*
X5372929Y-18252507D01*
X5611025Y-18195364D02*
X5630072Y-18195364D01*
X5630072Y-18195364D02*
X5649120Y-18204888D01*
X5649120Y-18204888D02*
X5658644Y-18214411D01*
X5658644Y-18214411D02*
X5668167Y-18233459D01*
X5668167Y-18233459D02*
X5677691Y-18271554D01*
X5677691Y-18271554D02*
X5677691Y-18319173D01*
X5677691Y-18319173D02*
X5668167Y-18357269D01*
X5668167Y-18357269D02*
X5658644Y-18376316D01*
X5658644Y-18376316D02*
X5649120Y-18385840D01*
X5649120Y-18385840D02*
X5630072Y-18395364D01*
X5630072Y-18395364D02*
X5611025Y-18395364D01*
X5611025Y-18395364D02*
X5591977Y-18385840D01*
X5591977Y-18385840D02*
X5582453Y-18376316D01*
X5582453Y-18376316D02*
X5572929Y-18357269D01*
X5572929Y-18357269D02*
X5563406Y-18319173D01*
X5563406Y-18319173D02*
X5563406Y-18271554D01*
X5563406Y-18271554D02*
X5572929Y-18233459D01*
X5572929Y-18233459D02*
X5582453Y-18214411D01*
X5582453Y-18214411D02*
X5591977Y-18204888D01*
X5591977Y-18204888D02*
X5611025Y-18195364D01*
X5849120Y-18195364D02*
X5811025Y-18195364D01*
X5811025Y-18195364D02*
X5791977Y-18204888D01*
X5791977Y-18204888D02*
X5782453Y-18214411D01*
X5782453Y-18214411D02*
X5763406Y-18242983D01*
X5763406Y-18242983D02*
X5753882Y-18281078D01*
X5753882Y-18281078D02*
X5753882Y-18357269D01*
X5753882Y-18357269D02*
X5763406Y-18376316D01*
X5763406Y-18376316D02*
X5772929Y-18385840D01*
X5772929Y-18385840D02*
X5791977Y-18395364D01*
X5791977Y-18395364D02*
X5830072Y-18395364D01*
X5830072Y-18395364D02*
X5849120Y-18385840D01*
X5849120Y-18385840D02*
X5858644Y-18376316D01*
X5858644Y-18376316D02*
X5868167Y-18357269D01*
X5868167Y-18357269D02*
X5868167Y-18309650D01*
X5868167Y-18309650D02*
X5858644Y-18290602D01*
X5858644Y-18290602D02*
X5849120Y-18281078D01*
X5849120Y-18281078D02*
X5830072Y-18271554D01*
X5830072Y-18271554D02*
X5791977Y-18271554D01*
X5791977Y-18271554D02*
X5772929Y-18281078D01*
X5772929Y-18281078D02*
X5763406Y-18290602D01*
X5763406Y-18290602D02*
X5753882Y-18309650D01*
X5934834Y-18195364D02*
X6058644Y-18195364D01*
X6058644Y-18195364D02*
X5991977Y-18271554D01*
X5991977Y-18271554D02*
X6020548Y-18271554D01*
X6020548Y-18271554D02*
X6039596Y-18281078D01*
X6039596Y-18281078D02*
X6049120Y-18290602D01*
X6049120Y-18290602D02*
X6058644Y-18309650D01*
X6058644Y-18309650D02*
X6058644Y-18357269D01*
X6058644Y-18357269D02*
X6049120Y-18376316D01*
X6049120Y-18376316D02*
X6039596Y-18385840D01*
X6039596Y-18385840D02*
X6020548Y-18395364D01*
X6020548Y-18395364D02*
X5963406Y-18395364D01*
X5963406Y-18395364D02*
X5944358Y-18385840D01*
X5944358Y-18385840D02*
X5934834Y-18376316D01*
X6134834Y-18195364D02*
X6134834Y-18233459D01*
X6211025Y-18195364D02*
X6211025Y-18233459D01*
X6506263Y-18471554D02*
X6496739Y-18462030D01*
X6496739Y-18462030D02*
X6477691Y-18433459D01*
X6477691Y-18433459D02*
X6468168Y-18414411D01*
X6468168Y-18414411D02*
X6458644Y-18385840D01*
X6458644Y-18385840D02*
X6449120Y-18338221D01*
X6449120Y-18338221D02*
X6449120Y-18300126D01*
X6449120Y-18300126D02*
X6458644Y-18252507D01*
X6458644Y-18252507D02*
X6468168Y-18223935D01*
X6468168Y-18223935D02*
X6477691Y-18204888D01*
X6477691Y-18204888D02*
X6496739Y-18176316D01*
X6496739Y-18176316D02*
X6506263Y-18166792D01*
X6668168Y-18262030D02*
X6668168Y-18395364D01*
X6620548Y-18185840D02*
X6572929Y-18328697D01*
X6572929Y-18328697D02*
X6696739Y-18328697D01*
X6925310Y-18395364D02*
X6925310Y-18195364D01*
X7011025Y-18395364D02*
X7011025Y-18290602D01*
X7011025Y-18290602D02*
X7001501Y-18271554D01*
X7001501Y-18271554D02*
X6982453Y-18262030D01*
X6982453Y-18262030D02*
X6953882Y-18262030D01*
X6953882Y-18262030D02*
X6934834Y-18271554D01*
X6934834Y-18271554D02*
X6925310Y-18281078D01*
X7134834Y-18395364D02*
X7115787Y-18385840D01*
X7115787Y-18385840D02*
X7106263Y-18376316D01*
X7106263Y-18376316D02*
X7096739Y-18357269D01*
X7096739Y-18357269D02*
X7096739Y-18300126D01*
X7096739Y-18300126D02*
X7106263Y-18281078D01*
X7106263Y-18281078D02*
X7115787Y-18271554D01*
X7115787Y-18271554D02*
X7134834Y-18262030D01*
X7134834Y-18262030D02*
X7163406Y-18262030D01*
X7163406Y-18262030D02*
X7182453Y-18271554D01*
X7182453Y-18271554D02*
X7191977Y-18281078D01*
X7191977Y-18281078D02*
X7201501Y-18300126D01*
X7201501Y-18300126D02*
X7201501Y-18357269D01*
X7201501Y-18357269D02*
X7191977Y-18376316D01*
X7191977Y-18376316D02*
X7182453Y-18385840D01*
X7182453Y-18385840D02*
X7163406Y-18395364D01*
X7163406Y-18395364D02*
X7134834Y-18395364D01*
X7315787Y-18395364D02*
X7296739Y-18385840D01*
X7296739Y-18385840D02*
X7287215Y-18366792D01*
X7287215Y-18366792D02*
X7287215Y-18195364D01*
X7468168Y-18385840D02*
X7449120Y-18395364D01*
X7449120Y-18395364D02*
X7411025Y-18395364D01*
X7411025Y-18395364D02*
X7391977Y-18385840D01*
X7391977Y-18385840D02*
X7382453Y-18366792D01*
X7382453Y-18366792D02*
X7382453Y-18290602D01*
X7382453Y-18290602D02*
X7391977Y-18271554D01*
X7391977Y-18271554D02*
X7411025Y-18262030D01*
X7411025Y-18262030D02*
X7449120Y-18262030D01*
X7449120Y-18262030D02*
X7468168Y-18271554D01*
X7468168Y-18271554D02*
X7477691Y-18290602D01*
X7477691Y-18290602D02*
X7477691Y-18309650D01*
X7477691Y-18309650D02*
X7382453Y-18328697D01*
X7553882Y-18385840D02*
X7572930Y-18395364D01*
X7572930Y-18395364D02*
X7611025Y-18395364D01*
X7611025Y-18395364D02*
X7630072Y-18385840D01*
X7630072Y-18385840D02*
X7639596Y-18366792D01*
X7639596Y-18366792D02*
X7639596Y-18357269D01*
X7639596Y-18357269D02*
X7630072Y-18338221D01*
X7630072Y-18338221D02*
X7611025Y-18328697D01*
X7611025Y-18328697D02*
X7582453Y-18328697D01*
X7582453Y-18328697D02*
X7563406Y-18319173D01*
X7563406Y-18319173D02*
X7553882Y-18300126D01*
X7553882Y-18300126D02*
X7553882Y-18290602D01*
X7553882Y-18290602D02*
X7563406Y-18271554D01*
X7563406Y-18271554D02*
X7582453Y-18262030D01*
X7582453Y-18262030D02*
X7611025Y-18262030D01*
X7611025Y-18262030D02*
X7630072Y-18271554D01*
X7706263Y-18471554D02*
X7715787Y-18462030D01*
X7715787Y-18462030D02*
X7734834Y-18433459D01*
X7734834Y-18433459D02*
X7744358Y-18414411D01*
X7744358Y-18414411D02*
X7753882Y-18385840D01*
X7753882Y-18385840D02*
X7763406Y-18338221D01*
X7763406Y-18338221D02*
X7763406Y-18300126D01*
X7763406Y-18300126D02*
X7753882Y-18252507D01*
X7753882Y-18252507D02*
X7744358Y-18223935D01*
X7744358Y-18223935D02*
X7734834Y-18204888D01*
X7734834Y-18204888D02*
X7715787Y-18176316D01*
X7715787Y-18176316D02*
X7706263Y-18166792D01*
X8068168Y-18471554D02*
X8058644Y-18462030D01*
X8058644Y-18462030D02*
X8039596Y-18433459D01*
X8039596Y-18433459D02*
X8030072Y-18414411D01*
X8030072Y-18414411D02*
X8020549Y-18385840D01*
X8020549Y-18385840D02*
X8011025Y-18338221D01*
X8011025Y-18338221D02*
X8011025Y-18300126D01*
X8011025Y-18300126D02*
X8020549Y-18252507D01*
X8020549Y-18252507D02*
X8030072Y-18223935D01*
X8030072Y-18223935D02*
X8039596Y-18204888D01*
X8039596Y-18204888D02*
X8058644Y-18176316D01*
X8058644Y-18176316D02*
X8068168Y-18166792D01*
X8144358Y-18262030D02*
X8144358Y-18395364D01*
X8144358Y-18281078D02*
X8153882Y-18271554D01*
X8153882Y-18271554D02*
X8172930Y-18262030D01*
X8172930Y-18262030D02*
X8201501Y-18262030D01*
X8201501Y-18262030D02*
X8220549Y-18271554D01*
X8220549Y-18271554D02*
X8230072Y-18290602D01*
X8230072Y-18290602D02*
X8230072Y-18395364D01*
X8353882Y-18395364D02*
X8334834Y-18385840D01*
X8334834Y-18385840D02*
X8325311Y-18376316D01*
X8325311Y-18376316D02*
X8315787Y-18357269D01*
X8315787Y-18357269D02*
X8315787Y-18300126D01*
X8315787Y-18300126D02*
X8325311Y-18281078D01*
X8325311Y-18281078D02*
X8334834Y-18271554D01*
X8334834Y-18271554D02*
X8353882Y-18262030D01*
X8353882Y-18262030D02*
X8382453Y-18262030D01*
X8382453Y-18262030D02*
X8401501Y-18271554D01*
X8401501Y-18271554D02*
X8411025Y-18281078D01*
X8411025Y-18281078D02*
X8420549Y-18300126D01*
X8420549Y-18300126D02*
X8420549Y-18357269D01*
X8420549Y-18357269D02*
X8411025Y-18376316D01*
X8411025Y-18376316D02*
X8401501Y-18385840D01*
X8401501Y-18385840D02*
X8382453Y-18395364D01*
X8382453Y-18395364D02*
X8353882Y-18395364D01*
X8477692Y-18262030D02*
X8553882Y-18262030D01*
X8506263Y-18195364D02*
X8506263Y-18366792D01*
X8506263Y-18366792D02*
X8515787Y-18385840D01*
X8515787Y-18385840D02*
X8534834Y-18395364D01*
X8534834Y-18395364D02*
X8553882Y-18395364D01*
X8772930Y-18262030D02*
X8772930Y-18462030D01*
X8772930Y-18271554D02*
X8791977Y-18262030D01*
X8791977Y-18262030D02*
X8830073Y-18262030D01*
X8830073Y-18262030D02*
X8849120Y-18271554D01*
X8849120Y-18271554D02*
X8858644Y-18281078D01*
X8858644Y-18281078D02*
X8868168Y-18300126D01*
X8868168Y-18300126D02*
X8868168Y-18357269D01*
X8868168Y-18357269D02*
X8858644Y-18376316D01*
X8858644Y-18376316D02*
X8849120Y-18385840D01*
X8849120Y-18385840D02*
X8830073Y-18395364D01*
X8830073Y-18395364D02*
X8791977Y-18395364D01*
X8791977Y-18395364D02*
X8772930Y-18385840D01*
X8982454Y-18395364D02*
X8963406Y-18385840D01*
X8963406Y-18385840D02*
X8953882Y-18366792D01*
X8953882Y-18366792D02*
X8953882Y-18195364D01*
X9144358Y-18395364D02*
X9144358Y-18290602D01*
X9144358Y-18290602D02*
X9134835Y-18271554D01*
X9134835Y-18271554D02*
X9115787Y-18262030D01*
X9115787Y-18262030D02*
X9077692Y-18262030D01*
X9077692Y-18262030D02*
X9058644Y-18271554D01*
X9144358Y-18385840D02*
X9125311Y-18395364D01*
X9125311Y-18395364D02*
X9077692Y-18395364D01*
X9077692Y-18395364D02*
X9058644Y-18385840D01*
X9058644Y-18385840D02*
X9049120Y-18366792D01*
X9049120Y-18366792D02*
X9049120Y-18347745D01*
X9049120Y-18347745D02*
X9058644Y-18328697D01*
X9058644Y-18328697D02*
X9077692Y-18319173D01*
X9077692Y-18319173D02*
X9125311Y-18319173D01*
X9125311Y-18319173D02*
X9144358Y-18309650D01*
X9211025Y-18262030D02*
X9287215Y-18262030D01*
X9239596Y-18195364D02*
X9239596Y-18366792D01*
X9239596Y-18366792D02*
X9249120Y-18385840D01*
X9249120Y-18385840D02*
X9268168Y-18395364D01*
X9268168Y-18395364D02*
X9287215Y-18395364D01*
X9430073Y-18385840D02*
X9411025Y-18395364D01*
X9411025Y-18395364D02*
X9372930Y-18395364D01*
X9372930Y-18395364D02*
X9353882Y-18385840D01*
X9353882Y-18385840D02*
X9344358Y-18366792D01*
X9344358Y-18366792D02*
X9344358Y-18290602D01*
X9344358Y-18290602D02*
X9353882Y-18271554D01*
X9353882Y-18271554D02*
X9372930Y-18262030D01*
X9372930Y-18262030D02*
X9411025Y-18262030D01*
X9411025Y-18262030D02*
X9430073Y-18271554D01*
X9430073Y-18271554D02*
X9439596Y-18290602D01*
X9439596Y-18290602D02*
X9439596Y-18309650D01*
X9439596Y-18309650D02*
X9344358Y-18328697D01*
X9611025Y-18395364D02*
X9611025Y-18195364D01*
X9611025Y-18385840D02*
X9591977Y-18395364D01*
X9591977Y-18395364D02*
X9553882Y-18395364D01*
X9553882Y-18395364D02*
X9534835Y-18385840D01*
X9534835Y-18385840D02*
X9525311Y-18376316D01*
X9525311Y-18376316D02*
X9515787Y-18357269D01*
X9515787Y-18357269D02*
X9515787Y-18300126D01*
X9515787Y-18300126D02*
X9525311Y-18281078D01*
X9525311Y-18281078D02*
X9534835Y-18271554D01*
X9534835Y-18271554D02*
X9553882Y-18262030D01*
X9553882Y-18262030D02*
X9591977Y-18262030D01*
X9591977Y-18262030D02*
X9611025Y-18271554D01*
X9687216Y-18471554D02*
X9696739Y-18462030D01*
X9696739Y-18462030D02*
X9715787Y-18433459D01*
X9715787Y-18433459D02*
X9725311Y-18414411D01*
X9725311Y-18414411D02*
X9734835Y-18385840D01*
X9734835Y-18385840D02*
X9744358Y-18338221D01*
X9744358Y-18338221D02*
X9744358Y-18300126D01*
X9744358Y-18300126D02*
X9734835Y-18252507D01*
X9734835Y-18252507D02*
X9725311Y-18223935D01*
X9725311Y-18223935D02*
X9715787Y-18204888D01*
X9715787Y-18204888D02*
X9696739Y-18176316D01*
X9696739Y-18176316D02*
X9687216Y-18166792D01*
X2901911Y-18694591D02*
X2901911Y-18553169D01*
X2760489Y-18553169D01*
X2760489Y-18694591D01*
X2901911Y-18694591D01*
X3172929Y-18515364D02*
X3296739Y-18515364D01*
X3296739Y-18515364D02*
X3230072Y-18591554D01*
X3230072Y-18591554D02*
X3258643Y-18591554D01*
X3258643Y-18591554D02*
X3277691Y-18601078D01*
X3277691Y-18601078D02*
X3287215Y-18610602D01*
X3287215Y-18610602D02*
X3296739Y-18629650D01*
X3296739Y-18629650D02*
X3296739Y-18677269D01*
X3296739Y-18677269D02*
X3287215Y-18696316D01*
X3287215Y-18696316D02*
X3277691Y-18705840D01*
X3277691Y-18705840D02*
X3258643Y-18715364D01*
X3258643Y-18715364D02*
X3201501Y-18715364D01*
X3201501Y-18715364D02*
X3182453Y-18705840D01*
X3182453Y-18705840D02*
X3172929Y-18696316D01*
X3382453Y-18696316D02*
X3391977Y-18705840D01*
X3391977Y-18705840D02*
X3382453Y-18715364D01*
X3382453Y-18715364D02*
X3372929Y-18705840D01*
X3372929Y-18705840D02*
X3382453Y-18696316D01*
X3382453Y-18696316D02*
X3382453Y-18715364D01*
X3468167Y-18534411D02*
X3477691Y-18524888D01*
X3477691Y-18524888D02*
X3496739Y-18515364D01*
X3496739Y-18515364D02*
X3544358Y-18515364D01*
X3544358Y-18515364D02*
X3563405Y-18524888D01*
X3563405Y-18524888D02*
X3572929Y-18534411D01*
X3572929Y-18534411D02*
X3582453Y-18553459D01*
X3582453Y-18553459D02*
X3582453Y-18572507D01*
X3582453Y-18572507D02*
X3572929Y-18601078D01*
X3572929Y-18601078D02*
X3458643Y-18715364D01*
X3458643Y-18715364D02*
X3582453Y-18715364D01*
X3706262Y-18515364D02*
X3725310Y-18515364D01*
X3725310Y-18515364D02*
X3744358Y-18524888D01*
X3744358Y-18524888D02*
X3753882Y-18534411D01*
X3753882Y-18534411D02*
X3763405Y-18553459D01*
X3763405Y-18553459D02*
X3772929Y-18591554D01*
X3772929Y-18591554D02*
X3772929Y-18639173D01*
X3772929Y-18639173D02*
X3763405Y-18677269D01*
X3763405Y-18677269D02*
X3753882Y-18696316D01*
X3753882Y-18696316D02*
X3744358Y-18705840D01*
X3744358Y-18705840D02*
X3725310Y-18715364D01*
X3725310Y-18715364D02*
X3706262Y-18715364D01*
X3706262Y-18715364D02*
X3687215Y-18705840D01*
X3687215Y-18705840D02*
X3677691Y-18696316D01*
X3677691Y-18696316D02*
X3668167Y-18677269D01*
X3668167Y-18677269D02*
X3658643Y-18639173D01*
X3658643Y-18639173D02*
X3658643Y-18591554D01*
X3658643Y-18591554D02*
X3668167Y-18553459D01*
X3668167Y-18553459D02*
X3677691Y-18534411D01*
X3677691Y-18534411D02*
X3687215Y-18524888D01*
X3687215Y-18524888D02*
X3706262Y-18515364D01*
X3896739Y-18515364D02*
X3915786Y-18515364D01*
X3915786Y-18515364D02*
X3934834Y-18524888D01*
X3934834Y-18524888D02*
X3944358Y-18534411D01*
X3944358Y-18534411D02*
X3953882Y-18553459D01*
X3953882Y-18553459D02*
X3963405Y-18591554D01*
X3963405Y-18591554D02*
X3963405Y-18639173D01*
X3963405Y-18639173D02*
X3953882Y-18677269D01*
X3953882Y-18677269D02*
X3944358Y-18696316D01*
X3944358Y-18696316D02*
X3934834Y-18705840D01*
X3934834Y-18705840D02*
X3915786Y-18715364D01*
X3915786Y-18715364D02*
X3896739Y-18715364D01*
X3896739Y-18715364D02*
X3877691Y-18705840D01*
X3877691Y-18705840D02*
X3868167Y-18696316D01*
X3868167Y-18696316D02*
X3858643Y-18677269D01*
X3858643Y-18677269D02*
X3849120Y-18639173D01*
X3849120Y-18639173D02*
X3849120Y-18591554D01*
X3849120Y-18591554D02*
X3858643Y-18553459D01*
X3858643Y-18553459D02*
X3868167Y-18534411D01*
X3868167Y-18534411D02*
X3877691Y-18524888D01*
X3877691Y-18524888D02*
X3896739Y-18515364D01*
X4049120Y-18715364D02*
X4049120Y-18582030D01*
X4049120Y-18601078D02*
X4058643Y-18591554D01*
X4058643Y-18591554D02*
X4077691Y-18582030D01*
X4077691Y-18582030D02*
X4106263Y-18582030D01*
X4106263Y-18582030D02*
X4125310Y-18591554D01*
X4125310Y-18591554D02*
X4134834Y-18610602D01*
X4134834Y-18610602D02*
X4134834Y-18715364D01*
X4134834Y-18610602D02*
X4144358Y-18591554D01*
X4144358Y-18591554D02*
X4163405Y-18582030D01*
X4163405Y-18582030D02*
X4191977Y-18582030D01*
X4191977Y-18582030D02*
X4211025Y-18591554D01*
X4211025Y-18591554D02*
X4220548Y-18610602D01*
X4220548Y-18610602D02*
X4220548Y-18715364D01*
X4315786Y-18715364D02*
X4315786Y-18582030D01*
X4315786Y-18601078D02*
X4325310Y-18591554D01*
X4325310Y-18591554D02*
X4344358Y-18582030D01*
X4344358Y-18582030D02*
X4372929Y-18582030D01*
X4372929Y-18582030D02*
X4391977Y-18591554D01*
X4391977Y-18591554D02*
X4401501Y-18610602D01*
X4401501Y-18610602D02*
X4401501Y-18715364D01*
X4401501Y-18610602D02*
X4411025Y-18591554D01*
X4411025Y-18591554D02*
X4430072Y-18582030D01*
X4430072Y-18582030D02*
X4458644Y-18582030D01*
X4458644Y-18582030D02*
X4477691Y-18591554D01*
X4477691Y-18591554D02*
X4487215Y-18610602D01*
X4487215Y-18610602D02*
X4487215Y-18715364D01*
X4877691Y-18505840D02*
X4706263Y-18762983D01*
X5134834Y-18515364D02*
X5153882Y-18515364D01*
X5153882Y-18515364D02*
X5172929Y-18524888D01*
X5172929Y-18524888D02*
X5182453Y-18534411D01*
X5182453Y-18534411D02*
X5191977Y-18553459D01*
X5191977Y-18553459D02*
X5201501Y-18591554D01*
X5201501Y-18591554D02*
X5201501Y-18639173D01*
X5201501Y-18639173D02*
X5191977Y-18677269D01*
X5191977Y-18677269D02*
X5182453Y-18696316D01*
X5182453Y-18696316D02*
X5172929Y-18705840D01*
X5172929Y-18705840D02*
X5153882Y-18715364D01*
X5153882Y-18715364D02*
X5134834Y-18715364D01*
X5134834Y-18715364D02*
X5115787Y-18705840D01*
X5115787Y-18705840D02*
X5106263Y-18696316D01*
X5106263Y-18696316D02*
X5096739Y-18677269D01*
X5096739Y-18677269D02*
X5087215Y-18639173D01*
X5087215Y-18639173D02*
X5087215Y-18591554D01*
X5087215Y-18591554D02*
X5096739Y-18553459D01*
X5096739Y-18553459D02*
X5106263Y-18534411D01*
X5106263Y-18534411D02*
X5115787Y-18524888D01*
X5115787Y-18524888D02*
X5134834Y-18515364D01*
X5287215Y-18696316D02*
X5296739Y-18705840D01*
X5296739Y-18705840D02*
X5287215Y-18715364D01*
X5287215Y-18715364D02*
X5277691Y-18705840D01*
X5277691Y-18705840D02*
X5287215Y-18696316D01*
X5287215Y-18696316D02*
X5287215Y-18715364D01*
X5487215Y-18715364D02*
X5372929Y-18715364D01*
X5430072Y-18715364D02*
X5430072Y-18515364D01*
X5430072Y-18515364D02*
X5411025Y-18543935D01*
X5411025Y-18543935D02*
X5391977Y-18562983D01*
X5391977Y-18562983D02*
X5372929Y-18572507D01*
X5563406Y-18534411D02*
X5572929Y-18524888D01*
X5572929Y-18524888D02*
X5591977Y-18515364D01*
X5591977Y-18515364D02*
X5639596Y-18515364D01*
X5639596Y-18515364D02*
X5658644Y-18524888D01*
X5658644Y-18524888D02*
X5668167Y-18534411D01*
X5668167Y-18534411D02*
X5677691Y-18553459D01*
X5677691Y-18553459D02*
X5677691Y-18572507D01*
X5677691Y-18572507D02*
X5668167Y-18601078D01*
X5668167Y-18601078D02*
X5553882Y-18715364D01*
X5553882Y-18715364D02*
X5677691Y-18715364D01*
X5849120Y-18515364D02*
X5811025Y-18515364D01*
X5811025Y-18515364D02*
X5791977Y-18524888D01*
X5791977Y-18524888D02*
X5782453Y-18534411D01*
X5782453Y-18534411D02*
X5763406Y-18562983D01*
X5763406Y-18562983D02*
X5753882Y-18601078D01*
X5753882Y-18601078D02*
X5753882Y-18677269D01*
X5753882Y-18677269D02*
X5763406Y-18696316D01*
X5763406Y-18696316D02*
X5772929Y-18705840D01*
X5772929Y-18705840D02*
X5791977Y-18715364D01*
X5791977Y-18715364D02*
X5830072Y-18715364D01*
X5830072Y-18715364D02*
X5849120Y-18705840D01*
X5849120Y-18705840D02*
X5858644Y-18696316D01*
X5858644Y-18696316D02*
X5868167Y-18677269D01*
X5868167Y-18677269D02*
X5868167Y-18629650D01*
X5868167Y-18629650D02*
X5858644Y-18610602D01*
X5858644Y-18610602D02*
X5849120Y-18601078D01*
X5849120Y-18601078D02*
X5830072Y-18591554D01*
X5830072Y-18591554D02*
X5791977Y-18591554D01*
X5791977Y-18591554D02*
X5772929Y-18601078D01*
X5772929Y-18601078D02*
X5763406Y-18610602D01*
X5763406Y-18610602D02*
X5753882Y-18629650D01*
X5991977Y-18515364D02*
X6011025Y-18515364D01*
X6011025Y-18515364D02*
X6030072Y-18524888D01*
X6030072Y-18524888D02*
X6039596Y-18534411D01*
X6039596Y-18534411D02*
X6049120Y-18553459D01*
X6049120Y-18553459D02*
X6058644Y-18591554D01*
X6058644Y-18591554D02*
X6058644Y-18639173D01*
X6058644Y-18639173D02*
X6049120Y-18677269D01*
X6049120Y-18677269D02*
X6039596Y-18696316D01*
X6039596Y-18696316D02*
X6030072Y-18705840D01*
X6030072Y-18705840D02*
X6011025Y-18715364D01*
X6011025Y-18715364D02*
X5991977Y-18715364D01*
X5991977Y-18715364D02*
X5972929Y-18705840D01*
X5972929Y-18705840D02*
X5963406Y-18696316D01*
X5963406Y-18696316D02*
X5953882Y-18677269D01*
X5953882Y-18677269D02*
X5944358Y-18639173D01*
X5944358Y-18639173D02*
X5944358Y-18591554D01*
X5944358Y-18591554D02*
X5953882Y-18553459D01*
X5953882Y-18553459D02*
X5963406Y-18534411D01*
X5963406Y-18534411D02*
X5972929Y-18524888D01*
X5972929Y-18524888D02*
X5991977Y-18515364D01*
X6134834Y-18515364D02*
X6134834Y-18553459D01*
X6211025Y-18515364D02*
X6211025Y-18553459D01*
X6506263Y-18791554D02*
X6496739Y-18782030D01*
X6496739Y-18782030D02*
X6477691Y-18753459D01*
X6477691Y-18753459D02*
X6468168Y-18734411D01*
X6468168Y-18734411D02*
X6458644Y-18705840D01*
X6458644Y-18705840D02*
X6449120Y-18658221D01*
X6449120Y-18658221D02*
X6449120Y-18620126D01*
X6449120Y-18620126D02*
X6458644Y-18572507D01*
X6458644Y-18572507D02*
X6468168Y-18543935D01*
X6468168Y-18543935D02*
X6477691Y-18524888D01*
X6477691Y-18524888D02*
X6496739Y-18496316D01*
X6496739Y-18496316D02*
X6506263Y-18486792D01*
X6563406Y-18515364D02*
X6687215Y-18515364D01*
X6687215Y-18515364D02*
X6620548Y-18591554D01*
X6620548Y-18591554D02*
X6649120Y-18591554D01*
X6649120Y-18591554D02*
X6668168Y-18601078D01*
X6668168Y-18601078D02*
X6677691Y-18610602D01*
X6677691Y-18610602D02*
X6687215Y-18629650D01*
X6687215Y-18629650D02*
X6687215Y-18677269D01*
X6687215Y-18677269D02*
X6677691Y-18696316D01*
X6677691Y-18696316D02*
X6668168Y-18705840D01*
X6668168Y-18705840D02*
X6649120Y-18715364D01*
X6649120Y-18715364D02*
X6591977Y-18715364D01*
X6591977Y-18715364D02*
X6572929Y-18705840D01*
X6572929Y-18705840D02*
X6563406Y-18696316D01*
X6925310Y-18715364D02*
X6925310Y-18515364D01*
X7011025Y-18715364D02*
X7011025Y-18610602D01*
X7011025Y-18610602D02*
X7001501Y-18591554D01*
X7001501Y-18591554D02*
X6982453Y-18582030D01*
X6982453Y-18582030D02*
X6953882Y-18582030D01*
X6953882Y-18582030D02*
X6934834Y-18591554D01*
X6934834Y-18591554D02*
X6925310Y-18601078D01*
X7134834Y-18715364D02*
X7115787Y-18705840D01*
X7115787Y-18705840D02*
X7106263Y-18696316D01*
X7106263Y-18696316D02*
X7096739Y-18677269D01*
X7096739Y-18677269D02*
X7096739Y-18620126D01*
X7096739Y-18620126D02*
X7106263Y-18601078D01*
X7106263Y-18601078D02*
X7115787Y-18591554D01*
X7115787Y-18591554D02*
X7134834Y-18582030D01*
X7134834Y-18582030D02*
X7163406Y-18582030D01*
X7163406Y-18582030D02*
X7182453Y-18591554D01*
X7182453Y-18591554D02*
X7191977Y-18601078D01*
X7191977Y-18601078D02*
X7201501Y-18620126D01*
X7201501Y-18620126D02*
X7201501Y-18677269D01*
X7201501Y-18677269D02*
X7191977Y-18696316D01*
X7191977Y-18696316D02*
X7182453Y-18705840D01*
X7182453Y-18705840D02*
X7163406Y-18715364D01*
X7163406Y-18715364D02*
X7134834Y-18715364D01*
X7315787Y-18715364D02*
X7296739Y-18705840D01*
X7296739Y-18705840D02*
X7287215Y-18686792D01*
X7287215Y-18686792D02*
X7287215Y-18515364D01*
X7468168Y-18705840D02*
X7449120Y-18715364D01*
X7449120Y-18715364D02*
X7411025Y-18715364D01*
X7411025Y-18715364D02*
X7391977Y-18705840D01*
X7391977Y-18705840D02*
X7382453Y-18686792D01*
X7382453Y-18686792D02*
X7382453Y-18610602D01*
X7382453Y-18610602D02*
X7391977Y-18591554D01*
X7391977Y-18591554D02*
X7411025Y-18582030D01*
X7411025Y-18582030D02*
X7449120Y-18582030D01*
X7449120Y-18582030D02*
X7468168Y-18591554D01*
X7468168Y-18591554D02*
X7477691Y-18610602D01*
X7477691Y-18610602D02*
X7477691Y-18629650D01*
X7477691Y-18629650D02*
X7382453Y-18648697D01*
X7553882Y-18705840D02*
X7572930Y-18715364D01*
X7572930Y-18715364D02*
X7611025Y-18715364D01*
X7611025Y-18715364D02*
X7630072Y-18705840D01*
X7630072Y-18705840D02*
X7639596Y-18686792D01*
X7639596Y-18686792D02*
X7639596Y-18677269D01*
X7639596Y-18677269D02*
X7630072Y-18658221D01*
X7630072Y-18658221D02*
X7611025Y-18648697D01*
X7611025Y-18648697D02*
X7582453Y-18648697D01*
X7582453Y-18648697D02*
X7563406Y-18639173D01*
X7563406Y-18639173D02*
X7553882Y-18620126D01*
X7553882Y-18620126D02*
X7553882Y-18610602D01*
X7553882Y-18610602D02*
X7563406Y-18591554D01*
X7563406Y-18591554D02*
X7582453Y-18582030D01*
X7582453Y-18582030D02*
X7611025Y-18582030D01*
X7611025Y-18582030D02*
X7630072Y-18591554D01*
X7706263Y-18791554D02*
X7715787Y-18782030D01*
X7715787Y-18782030D02*
X7734834Y-18753459D01*
X7734834Y-18753459D02*
X7744358Y-18734411D01*
X7744358Y-18734411D02*
X7753882Y-18705840D01*
X7753882Y-18705840D02*
X7763406Y-18658221D01*
X7763406Y-18658221D02*
X7763406Y-18620126D01*
X7763406Y-18620126D02*
X7753882Y-18572507D01*
X7753882Y-18572507D02*
X7744358Y-18543935D01*
X7744358Y-18543935D02*
X7734834Y-18524888D01*
X7734834Y-18524888D02*
X7715787Y-18496316D01*
X7715787Y-18496316D02*
X7706263Y-18486792D01*
X8068168Y-18791554D02*
X8058644Y-18782030D01*
X8058644Y-18782030D02*
X8039596Y-18753459D01*
X8039596Y-18753459D02*
X8030072Y-18734411D01*
X8030072Y-18734411D02*
X8020549Y-18705840D01*
X8020549Y-18705840D02*
X8011025Y-18658221D01*
X8011025Y-18658221D02*
X8011025Y-18620126D01*
X8011025Y-18620126D02*
X8020549Y-18572507D01*
X8020549Y-18572507D02*
X8030072Y-18543935D01*
X8030072Y-18543935D02*
X8039596Y-18524888D01*
X8039596Y-18524888D02*
X8058644Y-18496316D01*
X8058644Y-18496316D02*
X8068168Y-18486792D01*
X8144358Y-18582030D02*
X8144358Y-18715364D01*
X8144358Y-18601078D02*
X8153882Y-18591554D01*
X8153882Y-18591554D02*
X8172930Y-18582030D01*
X8172930Y-18582030D02*
X8201501Y-18582030D01*
X8201501Y-18582030D02*
X8220549Y-18591554D01*
X8220549Y-18591554D02*
X8230072Y-18610602D01*
X8230072Y-18610602D02*
X8230072Y-18715364D01*
X8353882Y-18715364D02*
X8334834Y-18705840D01*
X8334834Y-18705840D02*
X8325311Y-18696316D01*
X8325311Y-18696316D02*
X8315787Y-18677269D01*
X8315787Y-18677269D02*
X8315787Y-18620126D01*
X8315787Y-18620126D02*
X8325311Y-18601078D01*
X8325311Y-18601078D02*
X8334834Y-18591554D01*
X8334834Y-18591554D02*
X8353882Y-18582030D01*
X8353882Y-18582030D02*
X8382453Y-18582030D01*
X8382453Y-18582030D02*
X8401501Y-18591554D01*
X8401501Y-18591554D02*
X8411025Y-18601078D01*
X8411025Y-18601078D02*
X8420549Y-18620126D01*
X8420549Y-18620126D02*
X8420549Y-18677269D01*
X8420549Y-18677269D02*
X8411025Y-18696316D01*
X8411025Y-18696316D02*
X8401501Y-18705840D01*
X8401501Y-18705840D02*
X8382453Y-18715364D01*
X8382453Y-18715364D02*
X8353882Y-18715364D01*
X8477692Y-18582030D02*
X8553882Y-18582030D01*
X8506263Y-18515364D02*
X8506263Y-18686792D01*
X8506263Y-18686792D02*
X8515787Y-18705840D01*
X8515787Y-18705840D02*
X8534834Y-18715364D01*
X8534834Y-18715364D02*
X8553882Y-18715364D01*
X8772930Y-18582030D02*
X8772930Y-18782030D01*
X8772930Y-18591554D02*
X8791977Y-18582030D01*
X8791977Y-18582030D02*
X8830073Y-18582030D01*
X8830073Y-18582030D02*
X8849120Y-18591554D01*
X8849120Y-18591554D02*
X8858644Y-18601078D01*
X8858644Y-18601078D02*
X8868168Y-18620126D01*
X8868168Y-18620126D02*
X8868168Y-18677269D01*
X8868168Y-18677269D02*
X8858644Y-18696316D01*
X8858644Y-18696316D02*
X8849120Y-18705840D01*
X8849120Y-18705840D02*
X8830073Y-18715364D01*
X8830073Y-18715364D02*
X8791977Y-18715364D01*
X8791977Y-18715364D02*
X8772930Y-18705840D01*
X8982454Y-18715364D02*
X8963406Y-18705840D01*
X8963406Y-18705840D02*
X8953882Y-18686792D01*
X8953882Y-18686792D02*
X8953882Y-18515364D01*
X9144358Y-18715364D02*
X9144358Y-18610602D01*
X9144358Y-18610602D02*
X9134835Y-18591554D01*
X9134835Y-18591554D02*
X9115787Y-18582030D01*
X9115787Y-18582030D02*
X9077692Y-18582030D01*
X9077692Y-18582030D02*
X9058644Y-18591554D01*
X9144358Y-18705840D02*
X9125311Y-18715364D01*
X9125311Y-18715364D02*
X9077692Y-18715364D01*
X9077692Y-18715364D02*
X9058644Y-18705840D01*
X9058644Y-18705840D02*
X9049120Y-18686792D01*
X9049120Y-18686792D02*
X9049120Y-18667745D01*
X9049120Y-18667745D02*
X9058644Y-18648697D01*
X9058644Y-18648697D02*
X9077692Y-18639173D01*
X9077692Y-18639173D02*
X9125311Y-18639173D01*
X9125311Y-18639173D02*
X9144358Y-18629650D01*
X9211025Y-18582030D02*
X9287215Y-18582030D01*
X9239596Y-18515364D02*
X9239596Y-18686792D01*
X9239596Y-18686792D02*
X9249120Y-18705840D01*
X9249120Y-18705840D02*
X9268168Y-18715364D01*
X9268168Y-18715364D02*
X9287215Y-18715364D01*
X9430073Y-18705840D02*
X9411025Y-18715364D01*
X9411025Y-18715364D02*
X9372930Y-18715364D01*
X9372930Y-18715364D02*
X9353882Y-18705840D01*
X9353882Y-18705840D02*
X9344358Y-18686792D01*
X9344358Y-18686792D02*
X9344358Y-18610602D01*
X9344358Y-18610602D02*
X9353882Y-18591554D01*
X9353882Y-18591554D02*
X9372930Y-18582030D01*
X9372930Y-18582030D02*
X9411025Y-18582030D01*
X9411025Y-18582030D02*
X9430073Y-18591554D01*
X9430073Y-18591554D02*
X9439596Y-18610602D01*
X9439596Y-18610602D02*
X9439596Y-18629650D01*
X9439596Y-18629650D02*
X9344358Y-18648697D01*
X9611025Y-18715364D02*
X9611025Y-18515364D01*
X9611025Y-18705840D02*
X9591977Y-18715364D01*
X9591977Y-18715364D02*
X9553882Y-18715364D01*
X9553882Y-18715364D02*
X9534835Y-18705840D01*
X9534835Y-18705840D02*
X9525311Y-18696316D01*
X9525311Y-18696316D02*
X9515787Y-18677269D01*
X9515787Y-18677269D02*
X9515787Y-18620126D01*
X9515787Y-18620126D02*
X9525311Y-18601078D01*
X9525311Y-18601078D02*
X9534835Y-18591554D01*
X9534835Y-18591554D02*
X9553882Y-18582030D01*
X9553882Y-18582030D02*
X9591977Y-18582030D01*
X9591977Y-18582030D02*
X9611025Y-18591554D01*
X9687216Y-18791554D02*
X9696739Y-18782030D01*
X9696739Y-18782030D02*
X9715787Y-18753459D01*
X9715787Y-18753459D02*
X9725311Y-18734411D01*
X9725311Y-18734411D02*
X9734835Y-18705840D01*
X9734835Y-18705840D02*
X9744358Y-18658221D01*
X9744358Y-18658221D02*
X9744358Y-18620126D01*
X9744358Y-18620126D02*
X9734835Y-18572507D01*
X9734835Y-18572507D02*
X9725311Y-18543935D01*
X9725311Y-18543935D02*
X9715787Y-18524888D01*
X9715787Y-18524888D02*
X9696739Y-18496316D01*
X9696739Y-18496316D02*
X9687216Y-18486792D01*
M02*
