M48
; DRILL file {KiCad 8.0.5} date 2024-10-05T13:16:58+0200
; FORMAT={-:-/ absolute / metric / decimal}
; #@! TF.CreationDate,2024-10-05T13:16:58+02:00
; #@! TF.GenerationSoftware,Kicad,Pcbnew,8.0.5
; #@! TF.FileFunction,Plated,1,4,PTH
FMAT,2
METRIC
; #@! TA.AperFunction,Plated,PTH,ViaDrill
T1C0.400
; #@! TA.AperFunction,Plated,PTH,ViaDrill
T2C0.600
; #@! TA.AperFunction,Plated,PTH,ComponentDrill
T3C0.800
; #@! TA.AperFunction,Plated,PTH,ComponentDrill
T4C0.950
; #@! TA.AperFunction,Plated,PTH,ComponentDrill
T5C1.000
%
G90
G05
T1
X82.3Y-132.75
X90.962Y-69.5
X91.0Y-128.0
X92.081Y-97.106
X96.5Y-75.0
X108.5Y-78.0
X110.0Y-76.0
X117.5Y-78.0
X120.493Y-87.05
X121.0Y-60.15
X121.5Y-85.95
X122.0Y-88.325
X122.5Y-85.0
X131.0Y-83.0
X131.825Y-59.5
X132.932Y-84.518
X134.0Y-66.5
X134.375Y-63.125
X137.487Y-82.013
X139.7Y-74.0
X140.0Y-81.0
X140.0Y-87.5
X141.0Y-71.0
X141.0Y-73.5
X150.25Y-112.75
X151.487Y-115.013
X153.987Y-117.513
X154.987Y-118.513
X161.0Y-67.0
X166.5Y-99.0
X167.5Y-112.5
X170.0Y-107.5
X174.05Y-133.25
T2
X76.5Y-130.5
X85.25Y-74.75
X86.0Y-128.5
X87.0Y-59.45
X95.0Y-87.5
X95.0Y-94.3
X98.5Y-95.5
X99.0Y-86.0
X99.85Y-62.85
X101.5Y-50.0
X101.5Y-76.1
X101.5Y-84.5
X101.55Y-73.9
X102.5Y-54.5
X104.5Y-86.0
X105.5Y-80.0
X107.5Y-87.5
X109.5Y-92.0
X111.0Y-84.0
X112.5Y-60.5
X114.0Y-69.0
X114.0Y-85.5
X117.5Y-58.0
X119.5Y-58.0
X123.5Y-87.5
X124.0Y-68.0
X127.5Y-62.5
X129.0Y-87.5
X133.5Y-86.5
X134.5Y-58.0
X135.0Y-89.5
X136.5Y-78.0
X136.5Y-83.5
X138.0Y-61.3
X138.0Y-87.5
X139.5Y-62.5
X159.0Y-129.5
X165.5Y-93.5
X168.0Y-131.5
X172.5Y-95.0
X178.55Y-95.0
T3
X76.263Y-108.36
X76.263Y-110.9
X76.263Y-113.44
X76.263Y-115.98
X76.263Y-118.52
X76.263Y-121.06
X76.263Y-123.6
X76.263Y-126.14
X88.962Y-108.36
X88.962Y-110.9
X88.962Y-113.44
X88.962Y-115.98
X88.962Y-118.52
X88.962Y-121.06
X88.962Y-123.6
X88.962Y-126.14
X161.3Y-108.67
X161.3Y-111.21
X161.3Y-113.75
X161.3Y-116.29
X161.3Y-118.83
X161.3Y-121.37
X161.3Y-123.91
X161.3Y-126.45
X174.0Y-108.67
X174.0Y-111.21
X174.0Y-113.75
X174.0Y-116.29
X174.0Y-118.83
X174.0Y-121.37
X174.0Y-123.91
X174.0Y-126.45
T4
X65.75Y-114.75
X66.523Y-112.372
X67.295Y-109.995
X68.068Y-107.617
X75.5Y-91.0
X78.0Y-91.0
X80.5Y-91.0
X83.0Y-91.0
X85.5Y-91.0
X87.25Y-51.75
X88.0Y-91.0
X89.75Y-51.75
X92.25Y-51.75
X94.75Y-51.75
X97.25Y-51.75
X159.705Y-144.189
X161.727Y-142.719
X163.75Y-141.25
X181.932Y-107.617
X182.705Y-109.995
X183.477Y-112.372
X184.25Y-114.75
T5
X139.75Y-50.725
X139.75Y-53.265
X139.75Y-55.805
X144.72Y-50.407
X144.72Y-52.947
X144.72Y-55.487
X144.72Y-58.027
X144.72Y-60.567
X144.72Y-63.107
X144.72Y-65.647
X144.72Y-68.188
X144.72Y-70.727
X144.72Y-73.267
X144.72Y-75.807
X144.72Y-78.347
X144.72Y-80.888
X144.72Y-83.427
X144.72Y-85.968
X144.72Y-88.507
X144.72Y-91.047
X144.72Y-93.587
X144.72Y-96.127
X144.72Y-98.667
X162.5Y-50.407
X162.5Y-52.947
X162.5Y-55.487
X162.5Y-58.027
X162.5Y-60.567
X162.5Y-63.107
X162.5Y-65.647
X162.5Y-68.188
X162.5Y-70.727
X162.5Y-73.267
X162.5Y-75.807
X162.5Y-78.347
X162.5Y-80.888
X162.5Y-83.427
X162.5Y-85.968
X162.5Y-88.507
X162.5Y-91.047
X162.5Y-93.587
X162.5Y-96.127
X162.5Y-98.667
X167.86Y-73.5
X167.86Y-76.04
X167.86Y-78.58
X167.86Y-81.12
X167.86Y-83.66
X167.86Y-86.2
X167.86Y-88.74
X167.86Y-91.28
X167.86Y-93.82
X174.47Y-80.849
X175.255Y-83.264
X176.04Y-85.68
M30
