G04 #@! TF.GenerationSoftware,KiCad,Pcbnew,8.0.5*
G04 #@! TF.CreationDate,2024-10-05T13:16:41+02:00*
G04 #@! TF.ProjectId,valiant-turtle-2,76616c69-616e-4742-9d74-7572746c652d,rev?*
G04 #@! TF.SameCoordinates,Original*
G04 #@! TF.FileFunction,Soldermask,Bot*
G04 #@! TF.FilePolarity,Negative*
%FSLAX46Y46*%
G04 Gerber Fmt 4.6, Leading zero omitted, Abs format (unit mm)*
G04 Created by KiCad (PCBNEW 8.0.5) date 2024-10-05 13:16:41*
%MOMM*%
%LPD*%
G01*
G04 APERTURE LIST*
G04 Aperture macros list*
%AMRoundRect*
0 Rectangle with rounded corners*
0 $1 Rounding radius*
0 $2 $3 $4 $5 $6 $7 $8 $9 X,Y pos of 4 corners*
0 Add a 4 corners polygon primitive as box body*
4,1,4,$2,$3,$4,$5,$6,$7,$8,$9,$2,$3,0*
0 Add four circle primitives for the rounded corners*
1,1,$1+$1,$2,$3*
1,1,$1+$1,$4,$5*
1,1,$1+$1,$6,$7*
1,1,$1+$1,$8,$9*
0 Add four rect primitives between the rounded corners*
20,1,$1+$1,$2,$3,$4,$5,0*
20,1,$1+$1,$4,$5,$6,$7,0*
20,1,$1+$1,$6,$7,$8,$9,0*
20,1,$1+$1,$8,$9,$2,$3,0*%
%AMHorizOval*
0 Thick line with rounded ends*
0 $1 width*
0 $2 $3 position (X,Y) of the first rounded end (center of the circle)*
0 $4 $5 position (X,Y) of the second rounded end (center of the circle)*
0 Add line between two ends*
20,1,$1,$2,$3,$4,$5,0*
0 Add two circle primitives to create the rounded ends*
1,1,$1,$2,$3*
1,1,$1,$4,$5*%
%AMRotRect*
0 Rectangle, with rotation*
0 The origin of the aperture is its center*
0 $1 length*
0 $2 width*
0 $3 Rotation angle, in degrees counterclockwise*
0 Add horizontal line*
21,1,$1,$2,0,0,$3*%
%AMFreePoly0*
4,1,28,0.605014,0.794986,0.644504,0.794986,0.724698,0.756366,0.780194,0.686777,0.800000,0.600000,0.800000,-0.600000,0.780194,-0.686777,0.724698,-0.756366,0.644504,-0.794986,0.605014,-0.794986,0.600000,-0.800000,0.000000,-0.800000,-0.178017,-0.779942,-0.347107,-0.720775,-0.498792,-0.625465,-0.625465,-0.498792,-0.720775,-0.347107,-0.779942,-0.178017,-0.800000,0.000000,-0.779942,0.178017,
-0.720775,0.347107,-0.625465,0.498792,-0.498792,0.625465,-0.347107,0.720775,-0.178017,0.779942,0.000000,0.800000,0.600000,0.800000,0.605014,0.794986,0.605014,0.794986,$1*%
%AMFreePoly1*
4,1,28,0.178017,0.779942,0.347107,0.720775,0.498792,0.625465,0.625465,0.498792,0.720775,0.347107,0.779942,0.178017,0.800000,0.000000,0.779942,-0.178017,0.720775,-0.347107,0.625465,-0.498792,0.498792,-0.625465,0.347107,-0.720775,0.178017,-0.779942,0.000000,-0.800000,-0.600000,-0.800000,-0.605014,-0.794986,-0.644504,-0.794986,-0.724698,-0.756366,-0.780194,-0.686777,-0.800000,-0.600000,
-0.800000,0.600000,-0.780194,0.686777,-0.724698,0.756366,-0.644504,0.794986,-0.605014,0.794986,-0.600000,0.800000,0.000000,0.800000,0.178017,0.779942,0.178017,0.779942,$1*%
G04 Aperture macros list end*
%ADD10C,3.200000*%
%ADD11RoundRect,0.250000X-0.059266X-0.939208X0.911555X-0.233866X0.059266X0.939208X-0.911555X0.233866X0*%
%ADD12HorizOval,1.700000X-0.073473X0.101127X0.073473X-0.101127X0*%
%ADD13R,1.700000X1.700000*%
%ADD14O,1.700000X1.700000*%
%ADD15R,1.600000X1.600000*%
%ADD16O,1.600000X1.600000*%
%ADD17RotRect,1.700000X1.700000X18.000000*%
%ADD18HorizOval,1.700000X0.000000X0.000000X0.000000X0.000000X0*%
%ADD19RoundRect,0.250000X-0.600000X-0.725000X0.600000X-0.725000X0.600000X0.725000X-0.600000X0.725000X0*%
%ADD20O,1.700000X1.950000*%
%ADD21RoundRect,0.250000X0.504106X-0.794671X0.874926X0.346597X-0.504106X0.794671X-0.874926X-0.346597X0*%
%ADD22HorizOval,1.700000X-0.118882X0.038627X0.118882X-0.038627X0*%
%ADD23C,2.200000*%
%ADD24C,1.850000*%
%ADD25RoundRect,0.200000X-0.600000X-0.600000X0.600000X-0.600000X0.600000X0.600000X-0.600000X0.600000X0*%
%ADD26C,1.600000*%
%ADD27FreePoly0,0.000000*%
%ADD28FreePoly1,0.000000*%
%ADD29RoundRect,0.250000X-0.874926X0.346597X-0.504106X-0.794671X0.874926X-0.346597X0.504106X0.794671X0*%
%ADD30HorizOval,1.700000X-0.118882X-0.038627X0.118882X0.038627X0*%
G04 APERTURE END LIST*
D10*
X100060000Y-105360000D03*
X150060000Y-105350000D03*
D11*
X159704915Y-144188926D03*
D12*
X161727457Y-142719463D03*
X163750000Y-141250000D03*
D13*
X167860000Y-93820000D03*
D14*
X167860000Y-91280000D03*
X167860000Y-88740000D03*
X167860000Y-86200000D03*
X167860000Y-83660000D03*
X167860000Y-81120000D03*
X167860000Y-78580000D03*
X167860000Y-76040000D03*
X167860000Y-73500000D03*
D15*
X174000000Y-126450000D03*
D16*
X174000000Y-123910000D03*
X174000000Y-121370000D03*
X174000000Y-118830000D03*
X174000000Y-116290000D03*
X174000000Y-113750000D03*
X174000000Y-111210000D03*
X174000000Y-108670000D03*
X161300000Y-108670000D03*
X161300000Y-111210000D03*
X161300000Y-113750000D03*
X161300000Y-116290000D03*
X161300000Y-118830000D03*
X161300000Y-121370000D03*
X161300000Y-123910000D03*
X161300000Y-126450000D03*
D10*
X185060000Y-124860000D03*
D15*
X88962500Y-126140000D03*
D16*
X88962500Y-123600000D03*
X88962500Y-121060000D03*
X88962500Y-118520000D03*
X88962500Y-115980000D03*
X88962500Y-113440000D03*
X88962500Y-110900000D03*
X88962500Y-108360000D03*
X76262500Y-108360000D03*
X76262500Y-110900000D03*
X76262500Y-113440000D03*
X76262500Y-115980000D03*
X76262500Y-118520000D03*
X76262500Y-121060000D03*
X76262500Y-123600000D03*
X76262500Y-126140000D03*
D13*
X139750000Y-50725000D03*
D14*
X139750000Y-53265000D03*
X139750000Y-55805000D03*
D17*
X174469732Y-80848582D03*
D18*
X175254635Y-83264266D03*
X176039538Y-85679949D03*
D19*
X87250000Y-51750000D03*
D20*
X89750000Y-51750000D03*
X92250000Y-51750000D03*
X94750000Y-51750000D03*
X97250000Y-51750000D03*
D10*
X100060000Y-150360000D03*
X125050000Y-52850000D03*
X65050000Y-124860000D03*
D21*
X65750000Y-114750000D03*
D22*
X66522542Y-112372359D03*
X67295085Y-109994717D03*
X68067627Y-107617076D03*
D10*
X150070000Y-150360000D03*
D19*
X75500000Y-91000000D03*
D20*
X78000000Y-91000000D03*
X80500000Y-91000000D03*
X83000000Y-91000000D03*
X85500000Y-91000000D03*
X88000000Y-91000000D03*
D23*
X150885000Y-50537500D03*
D24*
X151185000Y-53567500D03*
X156035000Y-53567500D03*
D23*
X156335000Y-50537500D03*
D25*
X144720000Y-50407500D03*
D26*
X144720000Y-52947500D03*
D27*
X144720000Y-55487500D03*
D26*
X144720000Y-58027500D03*
X144720000Y-60567500D03*
X144720000Y-63107500D03*
X144720000Y-65647500D03*
D27*
X144720000Y-68187500D03*
D26*
X144720000Y-70727500D03*
X144720000Y-73267500D03*
X144720000Y-75807500D03*
X144720000Y-78347500D03*
D27*
X144720000Y-80887500D03*
D26*
X144720000Y-83427500D03*
X144720000Y-85967500D03*
X144720000Y-88507500D03*
X144720000Y-91047500D03*
D27*
X144720000Y-93587500D03*
D26*
X144720000Y-96127500D03*
X144720000Y-98667500D03*
X162500000Y-98667500D03*
X162500000Y-96127500D03*
D28*
X162500000Y-93587500D03*
D26*
X162500000Y-91047500D03*
X162500000Y-88507500D03*
X162500000Y-85967500D03*
X162500000Y-83427500D03*
D28*
X162500000Y-80887500D03*
D26*
X162500000Y-78347500D03*
X162500000Y-75807500D03*
X162500000Y-73267500D03*
X162500000Y-70727500D03*
D28*
X162500000Y-68187500D03*
D26*
X162500000Y-65647500D03*
X162500000Y-63107500D03*
X162500000Y-60567500D03*
X162500000Y-58027500D03*
D28*
X162500000Y-55487500D03*
D26*
X162500000Y-52947500D03*
X162500000Y-50407500D03*
D29*
X181932373Y-107617077D03*
D30*
X182704915Y-109994718D03*
X183477458Y-112372360D03*
X184250000Y-114750001D03*
M02*
