%TF.GenerationSoftware,KiCad,Pcbnew,7.0.10-7.0.10~ubuntu23.10.1*%
%TF.CreationDate,2024-01-06T16:48:33+01:00*%
%TF.ProjectId,valiant-turtle-2,76616c69-616e-4742-9d74-7572746c652d,rev?*%
%TF.SameCoordinates,Original*%
%TF.FileFunction,Drillmap*%
%TF.FilePolarity,Positive*%
%FSLAX45Y45*%
G04 Gerber Fmt 4.5, Leading zero omitted, Abs format (unit mm)*
G04 Created by KiCad (PCBNEW 7.0.10-7.0.10~ubuntu23.10.1) date 2024-01-06 16:48:33*
%MOMM*%
%LPD*%
G01*
G04 APERTURE LIST*
%ADD10C,0.200000*%
%ADD11C,0.100000*%
G04 APERTURE END LIST*
D10*
X9554647Y-6430260D02*
X9642553Y-6430260D01*
X9896645Y-7762260D02*
X9814912Y-7794620D01*
X10044796Y-7668240D02*
X9973678Y-7719910D01*
X8920592Y-6954800D02*
X8947758Y-6871190D01*
X8904121Y-7041150D02*
X8920592Y-6954800D01*
X9467434Y-6441280D02*
X9554647Y-6430260D01*
X9223522Y-7719910D02*
X9152404Y-7668240D01*
X9382288Y-6463140D02*
X9467434Y-6441280D01*
X9814912Y-6463140D02*
X9896645Y-6495500D01*
X9973678Y-6537850D02*
X10044796Y-6589520D01*
X10293079Y-7041150D02*
X10298600Y-7128880D01*
X10212014Y-7466110D02*
X10164912Y-7540330D01*
X8985186Y-7466110D02*
X8947758Y-7386570D01*
X9300555Y-7762260D02*
X9223522Y-7719910D01*
X9300555Y-6495500D02*
X9382288Y-6463140D01*
X10249442Y-7386570D02*
X10212014Y-7466110D01*
X10164912Y-6717430D02*
X10212014Y-6791650D01*
X9896645Y-6495500D02*
X9973678Y-6537850D01*
X9642553Y-7827500D02*
X9554647Y-7827500D01*
X10249442Y-6871190D02*
X10276608Y-6954800D01*
X8947758Y-7386570D02*
X8920592Y-7302960D01*
X10044796Y-6589520D02*
X10108877Y-6649700D01*
X9729766Y-7816480D02*
X9642553Y-7827500D01*
X8985186Y-6791650D02*
X9032288Y-6717430D01*
X10108877Y-7608060D02*
X10044796Y-7668240D01*
X9814912Y-7794620D02*
X9729766Y-7816480D01*
X9152404Y-6589520D02*
X9223522Y-6537850D01*
X8947758Y-6871190D02*
X8985186Y-6791650D01*
X16256000Y-12192000D02*
X13713100Y-4365760D01*
X9223522Y-6537850D02*
X9300555Y-6495500D01*
X9032288Y-7540330D02*
X8985186Y-7466110D01*
X2941200Y-12192000D02*
X9598600Y-17028880D01*
X8898600Y-7128880D02*
X8904121Y-7041150D01*
X10276608Y-7302960D02*
X10249442Y-7386570D01*
X9032288Y-6717430D02*
X9088323Y-6649700D01*
X10164912Y-7540330D02*
X10108877Y-7608060D01*
X9152404Y-7668240D02*
X9088323Y-7608060D01*
X13713100Y-4365760D02*
X5484100Y-4365760D01*
X9973678Y-7719910D02*
X9896645Y-7762260D01*
X10212014Y-6791650D02*
X10249442Y-6871190D01*
X5484100Y-4365760D02*
X2941200Y-12192000D01*
X9382288Y-7794620D02*
X9300555Y-7762260D01*
X8920592Y-7302960D02*
X8904121Y-7216610D01*
X9554647Y-7827500D02*
X9467434Y-7816480D01*
X10108877Y-6649700D02*
X10164912Y-6717430D01*
X9467434Y-7816480D02*
X9382288Y-7794620D01*
X10293079Y-7216610D02*
X10276608Y-7302960D01*
X9088323Y-7608060D02*
X9032288Y-7540330D01*
X10298600Y-7128880D02*
X10293079Y-7216610D01*
X9598600Y-17028880D02*
X16256000Y-12192000D01*
X10276608Y-6954800D02*
X10293079Y-7041150D01*
X9642553Y-6430260D02*
X9729766Y-6441280D01*
X8904121Y-7216610D02*
X8898600Y-7128880D01*
X9729766Y-6441280D02*
X9814912Y-6463140D01*
X9088323Y-6649700D02*
X9152404Y-6589520D01*
D11*
X5237800Y-13086400D02*
X5277800Y-13126400D01*
X5277800Y-13086400D02*
X5237800Y-13126400D01*
X5796600Y-13061000D02*
X5836600Y-13101000D01*
X5836600Y-13061000D02*
X5796600Y-13101000D01*
X6177600Y-13315000D02*
X6217600Y-13355000D01*
X6217600Y-13315000D02*
X6177600Y-13355000D01*
X7701600Y-10851200D02*
X7741600Y-10891200D01*
X7741600Y-10851200D02*
X7701600Y-10891200D01*
X9124000Y-6126800D02*
X9164000Y-6166800D01*
X9164000Y-6126800D02*
X9124000Y-6166800D01*
X9174800Y-5060000D02*
X9214800Y-5100000D01*
X9214800Y-5060000D02*
X9174800Y-5100000D01*
X10140000Y-6406200D02*
X10180000Y-6446200D01*
X10180000Y-6406200D02*
X10140000Y-6446200D01*
X10419400Y-8717600D02*
X10459400Y-8757600D01*
X10459400Y-8717600D02*
X10419400Y-8757600D01*
X10851200Y-8920800D02*
X10891200Y-8960800D01*
X10891200Y-8920800D02*
X10851200Y-8960800D01*
X10902000Y-7600000D02*
X10942000Y-7640000D01*
X10942000Y-7600000D02*
X10902000Y-7640000D01*
X10902000Y-8057200D02*
X10942000Y-8097200D01*
X10942000Y-8057200D02*
X10902000Y-8097200D01*
X13365800Y-8438200D02*
X13405800Y-8478200D01*
X13405800Y-8438200D02*
X13365800Y-8478200D01*
X13365800Y-9047800D02*
X13405800Y-9087800D01*
X13405800Y-9047800D02*
X13365800Y-9087800D01*
X13543600Y-10597200D02*
X13583600Y-10637200D01*
X13583600Y-10597200D02*
X13543600Y-10637200D01*
X13670600Y-5212400D02*
X13710600Y-5252400D01*
X13710600Y-5212400D02*
X13670600Y-5252400D01*
X4932200Y-9118600D02*
G75*
G03*
X4872200Y-9118600I-30000J0D01*
G01*
X4872200Y-9118600D02*
G75*
G03*
X4932200Y-9118600I30000J0D01*
G01*
X5110000Y-10515600D02*
G75*
G03*
X5050000Y-10515600I-30000J0D01*
G01*
X5050000Y-10515600D02*
G75*
G03*
X5110000Y-10515600I30000J0D01*
G01*
X5329600Y-8077200D02*
G75*
G03*
X5269600Y-8077200I-30000J0D01*
G01*
X5269600Y-8077200D02*
G75*
G03*
X5329600Y-8077200I30000J0D01*
G01*
X5389400Y-8771400D02*
G75*
G03*
X5329400Y-8771400I-30000J0D01*
G01*
X5329400Y-8771400D02*
G75*
G03*
X5389400Y-8771400I30000J0D01*
G01*
X5509600Y-8534400D02*
G75*
G03*
X5449600Y-8534400I-30000J0D01*
G01*
X5449600Y-8534400D02*
G75*
G03*
X5509600Y-8534400I30000J0D01*
G01*
X5668800Y-10515600D02*
G75*
G03*
X5608800Y-10515600I-30000J0D01*
G01*
X5608800Y-10515600D02*
G75*
G03*
X5668800Y-10515600I30000J0D01*
G01*
X6532400Y-12369800D02*
G75*
G03*
X6472400Y-12369800I-30000J0D01*
G01*
X6472400Y-12369800D02*
G75*
G03*
X6532400Y-12369800I30000J0D01*
G01*
X6532400Y-12877800D02*
G75*
G03*
X6472400Y-12877800I-30000J0D01*
G01*
X6472400Y-12877800D02*
G75*
G03*
X6532400Y-12877800I30000J0D01*
G01*
X6735600Y-6451600D02*
G75*
G03*
X6675600Y-6451600I-30000J0D01*
G01*
X6675600Y-6451600D02*
G75*
G03*
X6735600Y-6451600I30000J0D01*
G01*
X6913400Y-9017000D02*
G75*
G03*
X6853400Y-9017000I-30000J0D01*
G01*
X6853400Y-9017000D02*
G75*
G03*
X6913400Y-9017000I30000J0D01*
G01*
X6964200Y-11938000D02*
G75*
G03*
X6904200Y-11938000I-30000J0D01*
G01*
X6904200Y-11938000D02*
G75*
G03*
X6964200Y-11938000I30000J0D01*
G01*
X7040400Y-9042400D02*
G75*
G03*
X6980400Y-9042400I-30000J0D01*
G01*
X6980400Y-9042400D02*
G75*
G03*
X7040400Y-9042400I30000J0D01*
G01*
X7167400Y-6451600D02*
G75*
G03*
X7107400Y-6451600I-30000J0D01*
G01*
X7107400Y-6451600D02*
G75*
G03*
X7167400Y-6451600I30000J0D01*
G01*
X7167400Y-10486200D02*
G75*
G03*
X7107400Y-10486200I-30000J0D01*
G01*
X7107400Y-10486200D02*
G75*
G03*
X7167400Y-10486200I30000J0D01*
G01*
X7192800Y-7416800D02*
G75*
G03*
X7132800Y-7416800I-30000J0D01*
G01*
X7132800Y-7416800D02*
G75*
G03*
X7192800Y-7416800I30000J0D01*
G01*
X7192800Y-9067800D02*
G75*
G03*
X7132800Y-9067800I-30000J0D01*
G01*
X7132800Y-9067800D02*
G75*
G03*
X7192800Y-9067800I30000J0D01*
G01*
X7421400Y-12903200D02*
G75*
G03*
X7361400Y-12903200I-30000J0D01*
G01*
X7361400Y-12903200D02*
G75*
G03*
X7421400Y-12903200I30000J0D01*
G01*
X7700800Y-6273800D02*
G75*
G03*
X7640800Y-6273800I-30000J0D01*
G01*
X7640800Y-6273800D02*
G75*
G03*
X7700800Y-6273800I30000J0D01*
G01*
X7700800Y-12985700D02*
G75*
G03*
X7640800Y-12985700I-30000J0D01*
G01*
X7640800Y-12985700D02*
G75*
G03*
X7700800Y-12985700I30000J0D01*
G01*
X7751600Y-8356600D02*
G75*
G03*
X7691600Y-8356600I-30000J0D01*
G01*
X7691600Y-8356600D02*
G75*
G03*
X7751600Y-8356600I30000J0D01*
G01*
X7878600Y-7518400D02*
G75*
G03*
X7818600Y-7518400I-30000J0D01*
G01*
X7818600Y-7518400D02*
G75*
G03*
X7878600Y-7518400I30000J0D01*
G01*
X7878600Y-7797800D02*
G75*
G03*
X7818600Y-7797800I-30000J0D01*
G01*
X7818600Y-7797800D02*
G75*
G03*
X7878600Y-7797800I30000J0D01*
G01*
X7904000Y-6934200D02*
G75*
G03*
X7844000Y-6934200I-30000J0D01*
G01*
X7844000Y-6934200D02*
G75*
G03*
X7904000Y-6934200I30000J0D01*
G01*
X8412000Y-7569200D02*
G75*
G03*
X8352000Y-7569200I-30000J0D01*
G01*
X8352000Y-7569200D02*
G75*
G03*
X8412000Y-7569200I30000J0D01*
G01*
X8513600Y-8356600D02*
G75*
G03*
X8453600Y-8356600I-30000J0D01*
G01*
X8453600Y-8356600D02*
G75*
G03*
X8513600Y-8356600I30000J0D01*
G01*
X8767600Y-5994400D02*
G75*
G03*
X8707600Y-5994400I-30000J0D01*
G01*
X8707600Y-5994400D02*
G75*
G03*
X8767600Y-5994400I30000J0D01*
G01*
X8767600Y-6654800D02*
G75*
G03*
X8707600Y-6654800I-30000J0D01*
G01*
X8707600Y-6654800D02*
G75*
G03*
X8767600Y-6654800I30000J0D01*
G01*
X8894600Y-6731000D02*
G75*
G03*
X8834600Y-6731000I-30000J0D01*
G01*
X8834600Y-6731000D02*
G75*
G03*
X8894600Y-6731000I30000J0D01*
G01*
X9148600Y-5562600D02*
G75*
G03*
X9088600Y-5562600I-30000J0D01*
G01*
X9088600Y-5562600D02*
G75*
G03*
X9148600Y-5562600I30000J0D01*
G01*
X9233453Y-5477747D02*
G75*
G03*
X9173453Y-5477747I-30000J0D01*
G01*
X9173453Y-5477747D02*
G75*
G03*
X9233453Y-5477747I30000J0D01*
G01*
X9529600Y-5613400D02*
G75*
G03*
X9469600Y-5613400I-30000J0D01*
G01*
X9469600Y-5613400D02*
G75*
G03*
X9529600Y-5613400I30000J0D01*
G01*
X9834400Y-8940800D02*
G75*
G03*
X9774400Y-8940800I-30000J0D01*
G01*
X9774400Y-8940800D02*
G75*
G03*
X9834400Y-8940800I30000J0D01*
G01*
X9961400Y-6223000D02*
G75*
G03*
X9901400Y-6223000I-30000J0D01*
G01*
X9901400Y-6223000D02*
G75*
G03*
X9961400Y-6223000I30000J0D01*
G01*
X10139200Y-8940800D02*
G75*
G03*
X10079200Y-8940800I-30000J0D01*
G01*
X10079200Y-8940800D02*
G75*
G03*
X10139200Y-8940800I30000J0D01*
G01*
X10398364Y-7665636D02*
G75*
G03*
X10338364Y-7665636I-30000J0D01*
G01*
X10338364Y-7665636D02*
G75*
G03*
X10398364Y-7665636I30000J0D01*
G01*
X10494800Y-12118400D02*
G75*
G03*
X10434800Y-12118400I-30000J0D01*
G01*
X10434800Y-12118400D02*
G75*
G03*
X10494800Y-12118400I30000J0D01*
G01*
X10494800Y-12352800D02*
G75*
G03*
X10434800Y-12352800I-30000J0D01*
G01*
X10434800Y-12352800D02*
G75*
G03*
X10494800Y-12352800I30000J0D01*
G01*
X10614796Y-12353783D02*
G75*
G03*
X10554796Y-12353783I-30000J0D01*
G01*
X10554796Y-12353783D02*
G75*
G03*
X10614796Y-12353783I30000J0D01*
G01*
X10621800Y-12118400D02*
G75*
G03*
X10561800Y-12118400I-30000J0D01*
G01*
X10561800Y-12118400D02*
G75*
G03*
X10621800Y-12118400I30000J0D01*
G01*
X10774200Y-8331200D02*
G75*
G03*
X10714200Y-8331200I-30000J0D01*
G01*
X10714200Y-8331200D02*
G75*
G03*
X10774200Y-8331200I30000J0D01*
G01*
X11764800Y-7683500D02*
G75*
G03*
X11704800Y-7683500I-30000J0D01*
G01*
X11704800Y-7683500D02*
G75*
G03*
X11764800Y-7683500I30000J0D01*
G01*
X11815600Y-10718800D02*
G75*
G03*
X11755600Y-10718800I-30000J0D01*
G01*
X11755600Y-10718800D02*
G75*
G03*
X11815600Y-10718800I30000J0D01*
G01*
X12272800Y-11938000D02*
G75*
G03*
X12212800Y-11938000I-30000J0D01*
G01*
X12212800Y-11938000D02*
G75*
G03*
X12272800Y-11938000I30000J0D01*
G01*
X12272800Y-12141200D02*
G75*
G03*
X12212800Y-12141200I-30000J0D01*
G01*
X12212800Y-12141200D02*
G75*
G03*
X12272800Y-12141200I30000J0D01*
G01*
X12399800Y-11938000D02*
G75*
G03*
X12339800Y-11938000I-30000J0D01*
G01*
X12339800Y-11938000D02*
G75*
G03*
X12399800Y-11938000I30000J0D01*
G01*
X12399800Y-12141200D02*
G75*
G03*
X12339800Y-12141200I-30000J0D01*
G01*
X12339800Y-12141200D02*
G75*
G03*
X12399800Y-12141200I30000J0D01*
G01*
X12627214Y-9803214D02*
G75*
G03*
X12567214Y-9803214I-30000J0D01*
G01*
X12567214Y-9803214D02*
G75*
G03*
X12627214Y-9803214I30000J0D01*
G01*
X4902200Y-10196200D02*
X4902200Y-10276200D01*
X4862200Y-10236200D02*
X4942200Y-10236200D01*
X4902200Y-11466200D02*
X4902200Y-11546200D01*
X4862200Y-11506200D02*
X4942200Y-11506200D01*
X5156200Y-10196200D02*
X5156200Y-10276200D01*
X5116200Y-10236200D02*
X5196200Y-10236200D01*
X5156200Y-11466200D02*
X5156200Y-11546200D01*
X5116200Y-11506200D02*
X5196200Y-11506200D01*
X5410200Y-10196200D02*
X5410200Y-10276200D01*
X5370200Y-10236200D02*
X5450200Y-10236200D01*
X5410200Y-11466200D02*
X5410200Y-11546200D01*
X5370200Y-11506200D02*
X5450200Y-11506200D01*
X5664200Y-10196200D02*
X5664200Y-10276200D01*
X5624200Y-10236200D02*
X5704200Y-10236200D01*
X5664200Y-11466200D02*
X5664200Y-11546200D01*
X5624200Y-11506200D02*
X5704200Y-11506200D01*
X5918200Y-10196200D02*
X5918200Y-10276200D01*
X5878200Y-10236200D02*
X5958200Y-10236200D01*
X5918200Y-11466200D02*
X5918200Y-11546200D01*
X5878200Y-11506200D02*
X5958200Y-11506200D01*
X6172200Y-10196200D02*
X6172200Y-10276200D01*
X6132200Y-10236200D02*
X6212200Y-10236200D01*
X6172200Y-11466200D02*
X6172200Y-11546200D01*
X6132200Y-11506200D02*
X6212200Y-11506200D01*
X6426200Y-10196200D02*
X6426200Y-10276200D01*
X6386200Y-10236200D02*
X6466200Y-10236200D01*
X6426200Y-11466200D02*
X6426200Y-11546200D01*
X6386200Y-11506200D02*
X6466200Y-11506200D01*
X6680200Y-10196200D02*
X6680200Y-10276200D01*
X6640200Y-10236200D02*
X6720200Y-10236200D01*
X6680200Y-11466200D02*
X6680200Y-11546200D01*
X6640200Y-11506200D02*
X6720200Y-11506200D01*
X12674600Y-10196200D02*
X12674600Y-10276200D01*
X12634600Y-10236200D02*
X12714600Y-10236200D01*
X12674600Y-11466200D02*
X12674600Y-11546200D01*
X12634600Y-11506200D02*
X12714600Y-11506200D01*
X12928600Y-10196200D02*
X12928600Y-10276200D01*
X12888600Y-10236200D02*
X12968600Y-10236200D01*
X12928600Y-11466200D02*
X12928600Y-11546200D01*
X12888600Y-11506200D02*
X12968600Y-11506200D01*
X13182600Y-10196200D02*
X13182600Y-10276200D01*
X13142600Y-10236200D02*
X13222600Y-10236200D01*
X13182600Y-11466200D02*
X13182600Y-11546200D01*
X13142600Y-11506200D02*
X13222600Y-11506200D01*
X13436600Y-10196200D02*
X13436600Y-10276200D01*
X13396600Y-10236200D02*
X13476600Y-10236200D01*
X13436600Y-11466200D02*
X13436600Y-11546200D01*
X13396600Y-11506200D02*
X13476600Y-11506200D01*
X13690600Y-10196200D02*
X13690600Y-10276200D01*
X13650600Y-10236200D02*
X13730600Y-10236200D01*
X13690600Y-11466200D02*
X13690600Y-11546200D01*
X13650600Y-11506200D02*
X13730600Y-11506200D01*
X13944600Y-10196200D02*
X13944600Y-10276200D01*
X13904600Y-10236200D02*
X13984600Y-10236200D01*
X13944600Y-11466200D02*
X13944600Y-11546200D01*
X13904600Y-11506200D02*
X13984600Y-11506200D01*
X14198600Y-10196200D02*
X14198600Y-10276200D01*
X14158600Y-10236200D02*
X14238600Y-10236200D01*
X14198600Y-11466200D02*
X14198600Y-11546200D01*
X14158600Y-11506200D02*
X14238600Y-11506200D01*
X14452600Y-10196200D02*
X14452600Y-10276200D01*
X14412600Y-10236200D02*
X14492600Y-10236200D01*
X14452600Y-11466200D02*
X14452600Y-11546200D01*
X14412600Y-11506200D02*
X14492600Y-11506200D01*
X3767388Y-10930188D02*
X3767388Y-10863012D01*
X3700212Y-10863012D01*
X3700212Y-10930188D01*
X3767388Y-10930188D01*
X3844642Y-10692424D02*
X3844642Y-10625248D01*
X3777466Y-10625248D01*
X3777466Y-10692424D01*
X3844642Y-10692424D01*
X3921896Y-10454660D02*
X3921896Y-10387484D01*
X3854721Y-10387484D01*
X3854721Y-10454660D01*
X3921896Y-10454660D01*
X3999151Y-10216896D02*
X3999151Y-10149720D01*
X3931975Y-10149720D01*
X3931975Y-10216896D01*
X3999151Y-10216896D01*
X4808788Y-7653588D02*
X4808788Y-7586412D01*
X4741612Y-7586412D01*
X4741612Y-7653588D01*
X4808788Y-7653588D01*
X4886042Y-7415824D02*
X4886042Y-7348648D01*
X4818866Y-7348648D01*
X4818866Y-7415824D01*
X4886042Y-7415824D01*
X4958566Y-13249622D02*
X4958566Y-13182446D01*
X4891391Y-13182446D01*
X4891391Y-13249622D01*
X4958566Y-13249622D01*
X4963296Y-7178060D02*
X4963296Y-7110884D01*
X4896121Y-7110884D01*
X4896121Y-7178060D01*
X4963296Y-7178060D01*
X5160821Y-13396569D02*
X5160821Y-13329393D01*
X5093645Y-13329393D01*
X5093645Y-13396569D01*
X5160821Y-13396569D01*
X5363075Y-13543515D02*
X5363075Y-13476339D01*
X5295899Y-13476339D01*
X5295899Y-13543515D01*
X5363075Y-13543515D01*
X5565329Y-13690461D02*
X5565329Y-13623285D01*
X5498153Y-13623285D01*
X5498153Y-13690461D01*
X5565329Y-13690461D01*
X5767583Y-13837408D02*
X5767583Y-13770232D01*
X5700408Y-13770232D01*
X5700408Y-13837408D01*
X5767583Y-13837408D01*
X5969838Y-13984354D02*
X5969838Y-13917178D01*
X5902662Y-13917178D01*
X5902662Y-13984354D01*
X5969838Y-13984354D01*
X6172092Y-14131300D02*
X6172092Y-14064124D01*
X6104916Y-14064124D01*
X6104916Y-14131300D01*
X6172092Y-14131300D01*
X15273588Y-10193588D02*
X15273588Y-10126412D01*
X15206412Y-10126412D01*
X15206412Y-10193588D01*
X15273588Y-10193588D01*
X15350842Y-10431352D02*
X15350842Y-10364176D01*
X15283666Y-10364176D01*
X15283666Y-10431352D01*
X15350842Y-10431352D01*
X15428096Y-10669116D02*
X15428096Y-10601940D01*
X15360921Y-10601940D01*
X15360921Y-10669116D01*
X15428096Y-10669116D01*
X15505351Y-10906880D02*
X15505351Y-10839705D01*
X15438175Y-10839705D01*
X15438175Y-10906880D01*
X15505351Y-10906880D01*
X4494746Y-8593564D02*
X4544746Y-8543564D01*
X4494746Y-8493564D01*
X4444746Y-8543564D01*
X4494746Y-8593564D01*
X4572000Y-8355800D02*
X4622000Y-8305800D01*
X4572000Y-8255800D01*
X4522000Y-8305800D01*
X4572000Y-8355800D01*
X7848600Y-8635200D02*
X7898600Y-8585200D01*
X7848600Y-8535200D01*
X7798600Y-8585200D01*
X7848600Y-8635200D01*
X8102600Y-8635200D02*
X8152600Y-8585200D01*
X8102600Y-8535200D01*
X8052600Y-8585200D01*
X8102600Y-8635200D01*
X8356600Y-8635200D02*
X8406600Y-8585200D01*
X8356600Y-8535200D01*
X8306600Y-8585200D01*
X8356600Y-8635200D01*
X9207500Y-11861000D02*
X9257500Y-11811000D01*
X9207500Y-11761000D01*
X9157500Y-11811000D01*
X9207500Y-11861000D01*
X9461500Y-11861000D02*
X9511500Y-11811000D01*
X9461500Y-11761000D01*
X9411500Y-11811000D01*
X9461500Y-11861000D01*
X9715500Y-11861000D02*
X9765500Y-11811000D01*
X9715500Y-11761000D01*
X9665500Y-11811000D01*
X9715500Y-11861000D01*
X9969500Y-11861000D02*
X10019500Y-11811000D01*
X9969500Y-11761000D01*
X9919500Y-11811000D01*
X9969500Y-11861000D01*
X10718800Y-4672800D02*
X10768800Y-4622800D01*
X10718800Y-4572800D01*
X10668800Y-4622800D01*
X10718800Y-4672800D01*
X10718800Y-4926800D02*
X10768800Y-4876800D01*
X10718800Y-4826800D01*
X10668800Y-4876800D01*
X10718800Y-4926800D01*
X10718800Y-5180800D02*
X10768800Y-5130800D01*
X10718800Y-5080800D01*
X10668800Y-5130800D01*
X10718800Y-5180800D01*
X10718800Y-6831800D02*
X10768800Y-6781800D01*
X10718800Y-6731800D01*
X10668800Y-6781800D01*
X10718800Y-6831800D01*
X10718800Y-9244800D02*
X10768800Y-9194800D01*
X10718800Y-9144800D01*
X10668800Y-9194800D01*
X10718800Y-9244800D01*
X10718800Y-9498800D02*
X10768800Y-9448800D01*
X10718800Y-9398800D01*
X10668800Y-9448800D01*
X10718800Y-9498800D01*
X11277600Y-4685500D02*
X11327600Y-4635500D01*
X11277600Y-4585500D01*
X11227600Y-4635500D01*
X11277600Y-4685500D01*
X11277600Y-4939500D02*
X11327600Y-4889500D01*
X11277600Y-4839500D01*
X11227600Y-4889500D01*
X11277600Y-4939500D01*
X11277600Y-5193500D02*
X11327600Y-5143500D01*
X11277600Y-5093500D01*
X11227600Y-5143500D01*
X11277600Y-5193500D01*
X11277600Y-5447500D02*
X11327600Y-5397500D01*
X11277600Y-5347500D01*
X11227600Y-5397500D01*
X11277600Y-5447500D01*
X11277600Y-5701500D02*
X11327600Y-5651500D01*
X11277600Y-5601500D01*
X11227600Y-5651500D01*
X11277600Y-5701500D01*
X11277600Y-5955500D02*
X11327600Y-5905500D01*
X11277600Y-5855500D01*
X11227600Y-5905500D01*
X11277600Y-5955500D01*
X11277600Y-6209500D02*
X11327600Y-6159500D01*
X11277600Y-6109500D01*
X11227600Y-6159500D01*
X11277600Y-6209500D01*
X11277600Y-6463500D02*
X11327600Y-6413500D01*
X11277600Y-6363500D01*
X11227600Y-6413500D01*
X11277600Y-6463500D01*
X11277600Y-6717500D02*
X11327600Y-6667500D01*
X11277600Y-6617500D01*
X11227600Y-6667500D01*
X11277600Y-6717500D01*
X11277600Y-6971500D02*
X11327600Y-6921500D01*
X11277600Y-6871500D01*
X11227600Y-6921500D01*
X11277600Y-6971500D01*
X11277600Y-7225500D02*
X11327600Y-7175500D01*
X11277600Y-7125500D01*
X11227600Y-7175500D01*
X11277600Y-7225500D01*
X11277600Y-7479500D02*
X11327600Y-7429500D01*
X11277600Y-7379500D01*
X11227600Y-7429500D01*
X11277600Y-7479500D01*
X11277600Y-7733500D02*
X11327600Y-7683500D01*
X11277600Y-7633500D01*
X11227600Y-7683500D01*
X11277600Y-7733500D01*
X11277600Y-7987500D02*
X11327600Y-7937500D01*
X11277600Y-7887500D01*
X11227600Y-7937500D01*
X11277600Y-7987500D01*
X11277600Y-8241500D02*
X11327600Y-8191500D01*
X11277600Y-8141500D01*
X11227600Y-8191500D01*
X11277600Y-8241500D01*
X11277600Y-8495500D02*
X11327600Y-8445500D01*
X11277600Y-8395500D01*
X11227600Y-8445500D01*
X11277600Y-8495500D01*
X11277600Y-8749500D02*
X11327600Y-8699500D01*
X11277600Y-8649500D01*
X11227600Y-8699500D01*
X11277600Y-8749500D01*
X11277600Y-9003500D02*
X11327600Y-8953500D01*
X11277600Y-8903500D01*
X11227600Y-8953500D01*
X11277600Y-9003500D01*
X11277600Y-9257500D02*
X11327600Y-9207500D01*
X11277600Y-9157500D01*
X11227600Y-9207500D01*
X11277600Y-9257500D01*
X11277600Y-9511500D02*
X11327600Y-9461500D01*
X11277600Y-9411500D01*
X11227600Y-9461500D01*
X11277600Y-9511500D01*
X13055600Y-4685500D02*
X13105600Y-4635500D01*
X13055600Y-4585500D01*
X13005600Y-4635500D01*
X13055600Y-4685500D01*
X13055600Y-4939500D02*
X13105600Y-4889500D01*
X13055600Y-4839500D01*
X13005600Y-4889500D01*
X13055600Y-4939500D01*
X13055600Y-5193500D02*
X13105600Y-5143500D01*
X13055600Y-5093500D01*
X13005600Y-5143500D01*
X13055600Y-5193500D01*
X13055600Y-5447500D02*
X13105600Y-5397500D01*
X13055600Y-5347500D01*
X13005600Y-5397500D01*
X13055600Y-5447500D01*
X13055600Y-5701500D02*
X13105600Y-5651500D01*
X13055600Y-5601500D01*
X13005600Y-5651500D01*
X13055600Y-5701500D01*
X13055600Y-5955500D02*
X13105600Y-5905500D01*
X13055600Y-5855500D01*
X13005600Y-5905500D01*
X13055600Y-5955500D01*
X13055600Y-6209500D02*
X13105600Y-6159500D01*
X13055600Y-6109500D01*
X13005600Y-6159500D01*
X13055600Y-6209500D01*
X13055600Y-6463500D02*
X13105600Y-6413500D01*
X13055600Y-6363500D01*
X13005600Y-6413500D01*
X13055600Y-6463500D01*
X13055600Y-6717500D02*
X13105600Y-6667500D01*
X13055600Y-6617500D01*
X13005600Y-6667500D01*
X13055600Y-6717500D01*
X13055600Y-6971500D02*
X13105600Y-6921500D01*
X13055600Y-6871500D01*
X13005600Y-6921500D01*
X13055600Y-6971500D01*
X13055600Y-7225500D02*
X13105600Y-7175500D01*
X13055600Y-7125500D01*
X13005600Y-7175500D01*
X13055600Y-7225500D01*
X13055600Y-7479500D02*
X13105600Y-7429500D01*
X13055600Y-7379500D01*
X13005600Y-7429500D01*
X13055600Y-7479500D01*
X13055600Y-7733500D02*
X13105600Y-7683500D01*
X13055600Y-7633500D01*
X13005600Y-7683500D01*
X13055600Y-7733500D01*
X13055600Y-7987500D02*
X13105600Y-7937500D01*
X13055600Y-7887500D01*
X13005600Y-7937500D01*
X13055600Y-7987500D01*
X13055600Y-8241500D02*
X13105600Y-8191500D01*
X13055600Y-8141500D01*
X13005600Y-8191500D01*
X13055600Y-8241500D01*
X13055600Y-8495500D02*
X13105600Y-8445500D01*
X13055600Y-8395500D01*
X13005600Y-8445500D01*
X13055600Y-8495500D01*
X13055600Y-8749500D02*
X13105600Y-8699500D01*
X13055600Y-8649500D01*
X13005600Y-8699500D01*
X13055600Y-8749500D01*
X13055600Y-9003500D02*
X13105600Y-8953500D01*
X13055600Y-8903500D01*
X13005600Y-8953500D01*
X13055600Y-9003500D01*
X13055600Y-9257500D02*
X13105600Y-9207500D01*
X13055600Y-9157500D01*
X13005600Y-9207500D01*
X13055600Y-9257500D01*
X13055600Y-9511500D02*
X13105600Y-9461500D01*
X13055600Y-9411500D01*
X13005600Y-9461500D01*
X13055600Y-9511500D01*
X13589000Y-6730200D02*
X13639000Y-6680200D01*
X13589000Y-6630200D01*
X13539000Y-6680200D01*
X13589000Y-6730200D01*
X13614400Y-8457400D02*
X13664400Y-8407400D01*
X13614400Y-8357400D01*
X13564400Y-8407400D01*
X13614400Y-8457400D01*
X13614400Y-8711400D02*
X13664400Y-8661400D01*
X13614400Y-8611400D01*
X13564400Y-8661400D01*
X13614400Y-8711400D01*
X13614400Y-8965400D02*
X13664400Y-8915400D01*
X13614400Y-8865400D01*
X13564400Y-8915400D01*
X13614400Y-8965400D01*
X13614400Y-9219400D02*
X13664400Y-9169400D01*
X13614400Y-9119400D01*
X13564400Y-9169400D01*
X13614400Y-9219400D01*
X13614400Y-9473400D02*
X13664400Y-9423400D01*
X13614400Y-9373400D01*
X13564400Y-9423400D01*
X13614400Y-9473400D01*
X13995400Y-6222200D02*
X14045400Y-6172200D01*
X13995400Y-6122200D01*
X13945400Y-6172200D01*
X13995400Y-6222200D01*
X13995400Y-6476200D02*
X14045400Y-6426200D01*
X13995400Y-6376200D01*
X13945400Y-6426200D01*
X13995400Y-6476200D01*
X13995400Y-6730200D02*
X14045400Y-6680200D01*
X13995400Y-6630200D01*
X13945400Y-6680200D01*
X13995400Y-6730200D01*
D10*
X3191977Y-17350364D02*
X3191977Y-17150364D01*
X3191977Y-17150364D02*
X3239596Y-17150364D01*
X3239596Y-17150364D02*
X3268167Y-17159888D01*
X3268167Y-17159888D02*
X3287215Y-17178935D01*
X3287215Y-17178935D02*
X3296739Y-17197983D01*
X3296739Y-17197983D02*
X3306262Y-17236078D01*
X3306262Y-17236078D02*
X3306262Y-17264650D01*
X3306262Y-17264650D02*
X3296739Y-17302745D01*
X3296739Y-17302745D02*
X3287215Y-17321792D01*
X3287215Y-17321792D02*
X3268167Y-17340840D01*
X3268167Y-17340840D02*
X3239596Y-17350364D01*
X3239596Y-17350364D02*
X3191977Y-17350364D01*
X3391977Y-17350364D02*
X3391977Y-17217030D01*
X3391977Y-17255126D02*
X3401501Y-17236078D01*
X3401501Y-17236078D02*
X3411024Y-17226554D01*
X3411024Y-17226554D02*
X3430072Y-17217030D01*
X3430072Y-17217030D02*
X3449120Y-17217030D01*
X3515786Y-17350364D02*
X3515786Y-17217030D01*
X3515786Y-17150364D02*
X3506262Y-17159888D01*
X3506262Y-17159888D02*
X3515786Y-17169411D01*
X3515786Y-17169411D02*
X3525310Y-17159888D01*
X3525310Y-17159888D02*
X3515786Y-17150364D01*
X3515786Y-17150364D02*
X3515786Y-17169411D01*
X3639596Y-17350364D02*
X3620548Y-17340840D01*
X3620548Y-17340840D02*
X3611024Y-17321792D01*
X3611024Y-17321792D02*
X3611024Y-17150364D01*
X3744358Y-17350364D02*
X3725310Y-17340840D01*
X3725310Y-17340840D02*
X3715786Y-17321792D01*
X3715786Y-17321792D02*
X3715786Y-17150364D01*
X3972929Y-17350364D02*
X3972929Y-17150364D01*
X3972929Y-17150364D02*
X4039596Y-17293221D01*
X4039596Y-17293221D02*
X4106262Y-17150364D01*
X4106262Y-17150364D02*
X4106262Y-17350364D01*
X4287215Y-17350364D02*
X4287215Y-17245602D01*
X4287215Y-17245602D02*
X4277691Y-17226554D01*
X4277691Y-17226554D02*
X4258644Y-17217030D01*
X4258644Y-17217030D02*
X4220548Y-17217030D01*
X4220548Y-17217030D02*
X4201501Y-17226554D01*
X4287215Y-17340840D02*
X4268167Y-17350364D01*
X4268167Y-17350364D02*
X4220548Y-17350364D01*
X4220548Y-17350364D02*
X4201501Y-17340840D01*
X4201501Y-17340840D02*
X4191977Y-17321792D01*
X4191977Y-17321792D02*
X4191977Y-17302745D01*
X4191977Y-17302745D02*
X4201501Y-17283697D01*
X4201501Y-17283697D02*
X4220548Y-17274173D01*
X4220548Y-17274173D02*
X4268167Y-17274173D01*
X4268167Y-17274173D02*
X4287215Y-17264650D01*
X4382453Y-17217030D02*
X4382453Y-17417030D01*
X4382453Y-17226554D02*
X4401501Y-17217030D01*
X4401501Y-17217030D02*
X4439596Y-17217030D01*
X4439596Y-17217030D02*
X4458644Y-17226554D01*
X4458644Y-17226554D02*
X4468167Y-17236078D01*
X4468167Y-17236078D02*
X4477691Y-17255126D01*
X4477691Y-17255126D02*
X4477691Y-17312269D01*
X4477691Y-17312269D02*
X4468167Y-17331316D01*
X4468167Y-17331316D02*
X4458644Y-17340840D01*
X4458644Y-17340840D02*
X4439596Y-17350364D01*
X4439596Y-17350364D02*
X4401501Y-17350364D01*
X4401501Y-17350364D02*
X4382453Y-17340840D01*
X4563405Y-17331316D02*
X4572929Y-17340840D01*
X4572929Y-17340840D02*
X4563405Y-17350364D01*
X4563405Y-17350364D02*
X4553882Y-17340840D01*
X4553882Y-17340840D02*
X4563405Y-17331316D01*
X4563405Y-17331316D02*
X4563405Y-17350364D01*
X4563405Y-17226554D02*
X4572929Y-17236078D01*
X4572929Y-17236078D02*
X4563405Y-17245602D01*
X4563405Y-17245602D02*
X4553882Y-17236078D01*
X4553882Y-17236078D02*
X4563405Y-17226554D01*
X4563405Y-17226554D02*
X4563405Y-17245602D01*
D11*
X2891200Y-17658880D02*
X2931200Y-17698880D01*
X2931200Y-17658880D02*
X2891200Y-17698880D01*
D10*
X3230072Y-17570364D02*
X3249120Y-17570364D01*
X3249120Y-17570364D02*
X3268167Y-17579888D01*
X3268167Y-17579888D02*
X3277691Y-17589411D01*
X3277691Y-17589411D02*
X3287215Y-17608459D01*
X3287215Y-17608459D02*
X3296739Y-17646554D01*
X3296739Y-17646554D02*
X3296739Y-17694173D01*
X3296739Y-17694173D02*
X3287215Y-17732269D01*
X3287215Y-17732269D02*
X3277691Y-17751316D01*
X3277691Y-17751316D02*
X3268167Y-17760840D01*
X3268167Y-17760840D02*
X3249120Y-17770364D01*
X3249120Y-17770364D02*
X3230072Y-17770364D01*
X3230072Y-17770364D02*
X3211024Y-17760840D01*
X3211024Y-17760840D02*
X3201501Y-17751316D01*
X3201501Y-17751316D02*
X3191977Y-17732269D01*
X3191977Y-17732269D02*
X3182453Y-17694173D01*
X3182453Y-17694173D02*
X3182453Y-17646554D01*
X3182453Y-17646554D02*
X3191977Y-17608459D01*
X3191977Y-17608459D02*
X3201501Y-17589411D01*
X3201501Y-17589411D02*
X3211024Y-17579888D01*
X3211024Y-17579888D02*
X3230072Y-17570364D01*
X3382453Y-17751316D02*
X3391977Y-17760840D01*
X3391977Y-17760840D02*
X3382453Y-17770364D01*
X3382453Y-17770364D02*
X3372929Y-17760840D01*
X3372929Y-17760840D02*
X3382453Y-17751316D01*
X3382453Y-17751316D02*
X3382453Y-17770364D01*
X3563405Y-17637030D02*
X3563405Y-17770364D01*
X3515786Y-17560840D02*
X3468167Y-17703697D01*
X3468167Y-17703697D02*
X3591977Y-17703697D01*
X3706262Y-17570364D02*
X3725310Y-17570364D01*
X3725310Y-17570364D02*
X3744358Y-17579888D01*
X3744358Y-17579888D02*
X3753882Y-17589411D01*
X3753882Y-17589411D02*
X3763405Y-17608459D01*
X3763405Y-17608459D02*
X3772929Y-17646554D01*
X3772929Y-17646554D02*
X3772929Y-17694173D01*
X3772929Y-17694173D02*
X3763405Y-17732269D01*
X3763405Y-17732269D02*
X3753882Y-17751316D01*
X3753882Y-17751316D02*
X3744358Y-17760840D01*
X3744358Y-17760840D02*
X3725310Y-17770364D01*
X3725310Y-17770364D02*
X3706262Y-17770364D01*
X3706262Y-17770364D02*
X3687215Y-17760840D01*
X3687215Y-17760840D02*
X3677691Y-17751316D01*
X3677691Y-17751316D02*
X3668167Y-17732269D01*
X3668167Y-17732269D02*
X3658643Y-17694173D01*
X3658643Y-17694173D02*
X3658643Y-17646554D01*
X3658643Y-17646554D02*
X3668167Y-17608459D01*
X3668167Y-17608459D02*
X3677691Y-17589411D01*
X3677691Y-17589411D02*
X3687215Y-17579888D01*
X3687215Y-17579888D02*
X3706262Y-17570364D01*
X3896739Y-17570364D02*
X3915786Y-17570364D01*
X3915786Y-17570364D02*
X3934834Y-17579888D01*
X3934834Y-17579888D02*
X3944358Y-17589411D01*
X3944358Y-17589411D02*
X3953882Y-17608459D01*
X3953882Y-17608459D02*
X3963405Y-17646554D01*
X3963405Y-17646554D02*
X3963405Y-17694173D01*
X3963405Y-17694173D02*
X3953882Y-17732269D01*
X3953882Y-17732269D02*
X3944358Y-17751316D01*
X3944358Y-17751316D02*
X3934834Y-17760840D01*
X3934834Y-17760840D02*
X3915786Y-17770364D01*
X3915786Y-17770364D02*
X3896739Y-17770364D01*
X3896739Y-17770364D02*
X3877691Y-17760840D01*
X3877691Y-17760840D02*
X3868167Y-17751316D01*
X3868167Y-17751316D02*
X3858643Y-17732269D01*
X3858643Y-17732269D02*
X3849120Y-17694173D01*
X3849120Y-17694173D02*
X3849120Y-17646554D01*
X3849120Y-17646554D02*
X3858643Y-17608459D01*
X3858643Y-17608459D02*
X3868167Y-17589411D01*
X3868167Y-17589411D02*
X3877691Y-17579888D01*
X3877691Y-17579888D02*
X3896739Y-17570364D01*
X4049120Y-17770364D02*
X4049120Y-17637030D01*
X4049120Y-17656078D02*
X4058643Y-17646554D01*
X4058643Y-17646554D02*
X4077691Y-17637030D01*
X4077691Y-17637030D02*
X4106263Y-17637030D01*
X4106263Y-17637030D02*
X4125310Y-17646554D01*
X4125310Y-17646554D02*
X4134834Y-17665602D01*
X4134834Y-17665602D02*
X4134834Y-17770364D01*
X4134834Y-17665602D02*
X4144358Y-17646554D01*
X4144358Y-17646554D02*
X4163405Y-17637030D01*
X4163405Y-17637030D02*
X4191977Y-17637030D01*
X4191977Y-17637030D02*
X4211025Y-17646554D01*
X4211025Y-17646554D02*
X4220548Y-17665602D01*
X4220548Y-17665602D02*
X4220548Y-17770364D01*
X4315786Y-17770364D02*
X4315786Y-17637030D01*
X4315786Y-17656078D02*
X4325310Y-17646554D01*
X4325310Y-17646554D02*
X4344358Y-17637030D01*
X4344358Y-17637030D02*
X4372929Y-17637030D01*
X4372929Y-17637030D02*
X4391977Y-17646554D01*
X4391977Y-17646554D02*
X4401501Y-17665602D01*
X4401501Y-17665602D02*
X4401501Y-17770364D01*
X4401501Y-17665602D02*
X4411025Y-17646554D01*
X4411025Y-17646554D02*
X4430072Y-17637030D01*
X4430072Y-17637030D02*
X4458644Y-17637030D01*
X4458644Y-17637030D02*
X4477691Y-17646554D01*
X4477691Y-17646554D02*
X4487215Y-17665602D01*
X4487215Y-17665602D02*
X4487215Y-17770364D01*
X4877691Y-17560840D02*
X4706263Y-17817983D01*
X5134834Y-17570364D02*
X5153882Y-17570364D01*
X5153882Y-17570364D02*
X5172929Y-17579888D01*
X5172929Y-17579888D02*
X5182453Y-17589411D01*
X5182453Y-17589411D02*
X5191977Y-17608459D01*
X5191977Y-17608459D02*
X5201501Y-17646554D01*
X5201501Y-17646554D02*
X5201501Y-17694173D01*
X5201501Y-17694173D02*
X5191977Y-17732269D01*
X5191977Y-17732269D02*
X5182453Y-17751316D01*
X5182453Y-17751316D02*
X5172929Y-17760840D01*
X5172929Y-17760840D02*
X5153882Y-17770364D01*
X5153882Y-17770364D02*
X5134834Y-17770364D01*
X5134834Y-17770364D02*
X5115787Y-17760840D01*
X5115787Y-17760840D02*
X5106263Y-17751316D01*
X5106263Y-17751316D02*
X5096739Y-17732269D01*
X5096739Y-17732269D02*
X5087215Y-17694173D01*
X5087215Y-17694173D02*
X5087215Y-17646554D01*
X5087215Y-17646554D02*
X5096739Y-17608459D01*
X5096739Y-17608459D02*
X5106263Y-17589411D01*
X5106263Y-17589411D02*
X5115787Y-17579888D01*
X5115787Y-17579888D02*
X5134834Y-17570364D01*
X5287215Y-17751316D02*
X5296739Y-17760840D01*
X5296739Y-17760840D02*
X5287215Y-17770364D01*
X5287215Y-17770364D02*
X5277691Y-17760840D01*
X5277691Y-17760840D02*
X5287215Y-17751316D01*
X5287215Y-17751316D02*
X5287215Y-17770364D01*
X5420548Y-17570364D02*
X5439596Y-17570364D01*
X5439596Y-17570364D02*
X5458644Y-17579888D01*
X5458644Y-17579888D02*
X5468168Y-17589411D01*
X5468168Y-17589411D02*
X5477691Y-17608459D01*
X5477691Y-17608459D02*
X5487215Y-17646554D01*
X5487215Y-17646554D02*
X5487215Y-17694173D01*
X5487215Y-17694173D02*
X5477691Y-17732269D01*
X5477691Y-17732269D02*
X5468168Y-17751316D01*
X5468168Y-17751316D02*
X5458644Y-17760840D01*
X5458644Y-17760840D02*
X5439596Y-17770364D01*
X5439596Y-17770364D02*
X5420548Y-17770364D01*
X5420548Y-17770364D02*
X5401501Y-17760840D01*
X5401501Y-17760840D02*
X5391977Y-17751316D01*
X5391977Y-17751316D02*
X5382453Y-17732269D01*
X5382453Y-17732269D02*
X5372929Y-17694173D01*
X5372929Y-17694173D02*
X5372929Y-17646554D01*
X5372929Y-17646554D02*
X5382453Y-17608459D01*
X5382453Y-17608459D02*
X5391977Y-17589411D01*
X5391977Y-17589411D02*
X5401501Y-17579888D01*
X5401501Y-17579888D02*
X5420548Y-17570364D01*
X5677691Y-17770364D02*
X5563406Y-17770364D01*
X5620548Y-17770364D02*
X5620548Y-17570364D01*
X5620548Y-17570364D02*
X5601501Y-17598935D01*
X5601501Y-17598935D02*
X5582453Y-17617983D01*
X5582453Y-17617983D02*
X5563406Y-17627507D01*
X5858644Y-17570364D02*
X5763406Y-17570364D01*
X5763406Y-17570364D02*
X5753882Y-17665602D01*
X5753882Y-17665602D02*
X5763406Y-17656078D01*
X5763406Y-17656078D02*
X5782453Y-17646554D01*
X5782453Y-17646554D02*
X5830072Y-17646554D01*
X5830072Y-17646554D02*
X5849120Y-17656078D01*
X5849120Y-17656078D02*
X5858644Y-17665602D01*
X5858644Y-17665602D02*
X5868167Y-17684650D01*
X5868167Y-17684650D02*
X5868167Y-17732269D01*
X5868167Y-17732269D02*
X5858644Y-17751316D01*
X5858644Y-17751316D02*
X5849120Y-17760840D01*
X5849120Y-17760840D02*
X5830072Y-17770364D01*
X5830072Y-17770364D02*
X5782453Y-17770364D01*
X5782453Y-17770364D02*
X5763406Y-17760840D01*
X5763406Y-17760840D02*
X5753882Y-17751316D01*
X5934834Y-17570364D02*
X6068167Y-17570364D01*
X6068167Y-17570364D02*
X5982453Y-17770364D01*
X6134834Y-17570364D02*
X6134834Y-17608459D01*
X6211025Y-17570364D02*
X6211025Y-17608459D01*
X6506263Y-17846554D02*
X6496739Y-17837030D01*
X6496739Y-17837030D02*
X6477691Y-17808459D01*
X6477691Y-17808459D02*
X6468168Y-17789411D01*
X6468168Y-17789411D02*
X6458644Y-17760840D01*
X6458644Y-17760840D02*
X6449120Y-17713221D01*
X6449120Y-17713221D02*
X6449120Y-17675126D01*
X6449120Y-17675126D02*
X6458644Y-17627507D01*
X6458644Y-17627507D02*
X6468168Y-17598935D01*
X6468168Y-17598935D02*
X6477691Y-17579888D01*
X6477691Y-17579888D02*
X6496739Y-17551316D01*
X6496739Y-17551316D02*
X6506263Y-17541792D01*
X6687215Y-17770364D02*
X6572929Y-17770364D01*
X6630072Y-17770364D02*
X6630072Y-17570364D01*
X6630072Y-17570364D02*
X6611025Y-17598935D01*
X6611025Y-17598935D02*
X6591977Y-17617983D01*
X6591977Y-17617983D02*
X6572929Y-17627507D01*
X6868168Y-17570364D02*
X6772929Y-17570364D01*
X6772929Y-17570364D02*
X6763406Y-17665602D01*
X6763406Y-17665602D02*
X6772929Y-17656078D01*
X6772929Y-17656078D02*
X6791977Y-17646554D01*
X6791977Y-17646554D02*
X6839596Y-17646554D01*
X6839596Y-17646554D02*
X6858644Y-17656078D01*
X6858644Y-17656078D02*
X6868168Y-17665602D01*
X6868168Y-17665602D02*
X6877691Y-17684650D01*
X6877691Y-17684650D02*
X6877691Y-17732269D01*
X6877691Y-17732269D02*
X6868168Y-17751316D01*
X6868168Y-17751316D02*
X6858644Y-17760840D01*
X6858644Y-17760840D02*
X6839596Y-17770364D01*
X6839596Y-17770364D02*
X6791977Y-17770364D01*
X6791977Y-17770364D02*
X6772929Y-17760840D01*
X6772929Y-17760840D02*
X6763406Y-17751316D01*
X7115787Y-17770364D02*
X7115787Y-17570364D01*
X7201501Y-17770364D02*
X7201501Y-17665602D01*
X7201501Y-17665602D02*
X7191977Y-17646554D01*
X7191977Y-17646554D02*
X7172930Y-17637030D01*
X7172930Y-17637030D02*
X7144358Y-17637030D01*
X7144358Y-17637030D02*
X7125310Y-17646554D01*
X7125310Y-17646554D02*
X7115787Y-17656078D01*
X7325310Y-17770364D02*
X7306263Y-17760840D01*
X7306263Y-17760840D02*
X7296739Y-17751316D01*
X7296739Y-17751316D02*
X7287215Y-17732269D01*
X7287215Y-17732269D02*
X7287215Y-17675126D01*
X7287215Y-17675126D02*
X7296739Y-17656078D01*
X7296739Y-17656078D02*
X7306263Y-17646554D01*
X7306263Y-17646554D02*
X7325310Y-17637030D01*
X7325310Y-17637030D02*
X7353882Y-17637030D01*
X7353882Y-17637030D02*
X7372930Y-17646554D01*
X7372930Y-17646554D02*
X7382453Y-17656078D01*
X7382453Y-17656078D02*
X7391977Y-17675126D01*
X7391977Y-17675126D02*
X7391977Y-17732269D01*
X7391977Y-17732269D02*
X7382453Y-17751316D01*
X7382453Y-17751316D02*
X7372930Y-17760840D01*
X7372930Y-17760840D02*
X7353882Y-17770364D01*
X7353882Y-17770364D02*
X7325310Y-17770364D01*
X7506263Y-17770364D02*
X7487215Y-17760840D01*
X7487215Y-17760840D02*
X7477691Y-17741792D01*
X7477691Y-17741792D02*
X7477691Y-17570364D01*
X7658644Y-17760840D02*
X7639596Y-17770364D01*
X7639596Y-17770364D02*
X7601501Y-17770364D01*
X7601501Y-17770364D02*
X7582453Y-17760840D01*
X7582453Y-17760840D02*
X7572930Y-17741792D01*
X7572930Y-17741792D02*
X7572930Y-17665602D01*
X7572930Y-17665602D02*
X7582453Y-17646554D01*
X7582453Y-17646554D02*
X7601501Y-17637030D01*
X7601501Y-17637030D02*
X7639596Y-17637030D01*
X7639596Y-17637030D02*
X7658644Y-17646554D01*
X7658644Y-17646554D02*
X7668168Y-17665602D01*
X7668168Y-17665602D02*
X7668168Y-17684650D01*
X7668168Y-17684650D02*
X7572930Y-17703697D01*
X7744358Y-17760840D02*
X7763406Y-17770364D01*
X7763406Y-17770364D02*
X7801501Y-17770364D01*
X7801501Y-17770364D02*
X7820549Y-17760840D01*
X7820549Y-17760840D02*
X7830072Y-17741792D01*
X7830072Y-17741792D02*
X7830072Y-17732269D01*
X7830072Y-17732269D02*
X7820549Y-17713221D01*
X7820549Y-17713221D02*
X7801501Y-17703697D01*
X7801501Y-17703697D02*
X7772930Y-17703697D01*
X7772930Y-17703697D02*
X7753882Y-17694173D01*
X7753882Y-17694173D02*
X7744358Y-17675126D01*
X7744358Y-17675126D02*
X7744358Y-17665602D01*
X7744358Y-17665602D02*
X7753882Y-17646554D01*
X7753882Y-17646554D02*
X7772930Y-17637030D01*
X7772930Y-17637030D02*
X7801501Y-17637030D01*
X7801501Y-17637030D02*
X7820549Y-17646554D01*
X7896739Y-17846554D02*
X7906263Y-17837030D01*
X7906263Y-17837030D02*
X7925311Y-17808459D01*
X7925311Y-17808459D02*
X7934834Y-17789411D01*
X7934834Y-17789411D02*
X7944358Y-17760840D01*
X7944358Y-17760840D02*
X7953882Y-17713221D01*
X7953882Y-17713221D02*
X7953882Y-17675126D01*
X7953882Y-17675126D02*
X7944358Y-17627507D01*
X7944358Y-17627507D02*
X7934834Y-17598935D01*
X7934834Y-17598935D02*
X7925311Y-17579888D01*
X7925311Y-17579888D02*
X7906263Y-17551316D01*
X7906263Y-17551316D02*
X7896739Y-17541792D01*
D11*
X2931200Y-17942880D02*
G75*
G03*
X2871200Y-17942880I-30000J0D01*
G01*
X2871200Y-17942880D02*
G75*
G03*
X2931200Y-17942880I30000J0D01*
G01*
D10*
X3230072Y-17834364D02*
X3249120Y-17834364D01*
X3249120Y-17834364D02*
X3268167Y-17843888D01*
X3268167Y-17843888D02*
X3277691Y-17853411D01*
X3277691Y-17853411D02*
X3287215Y-17872459D01*
X3287215Y-17872459D02*
X3296739Y-17910554D01*
X3296739Y-17910554D02*
X3296739Y-17958173D01*
X3296739Y-17958173D02*
X3287215Y-17996269D01*
X3287215Y-17996269D02*
X3277691Y-18015316D01*
X3277691Y-18015316D02*
X3268167Y-18024840D01*
X3268167Y-18024840D02*
X3249120Y-18034364D01*
X3249120Y-18034364D02*
X3230072Y-18034364D01*
X3230072Y-18034364D02*
X3211024Y-18024840D01*
X3211024Y-18024840D02*
X3201501Y-18015316D01*
X3201501Y-18015316D02*
X3191977Y-17996269D01*
X3191977Y-17996269D02*
X3182453Y-17958173D01*
X3182453Y-17958173D02*
X3182453Y-17910554D01*
X3182453Y-17910554D02*
X3191977Y-17872459D01*
X3191977Y-17872459D02*
X3201501Y-17853411D01*
X3201501Y-17853411D02*
X3211024Y-17843888D01*
X3211024Y-17843888D02*
X3230072Y-17834364D01*
X3382453Y-18015316D02*
X3391977Y-18024840D01*
X3391977Y-18024840D02*
X3382453Y-18034364D01*
X3382453Y-18034364D02*
X3372929Y-18024840D01*
X3372929Y-18024840D02*
X3382453Y-18015316D01*
X3382453Y-18015316D02*
X3382453Y-18034364D01*
X3563405Y-17834364D02*
X3525310Y-17834364D01*
X3525310Y-17834364D02*
X3506262Y-17843888D01*
X3506262Y-17843888D02*
X3496739Y-17853411D01*
X3496739Y-17853411D02*
X3477691Y-17881983D01*
X3477691Y-17881983D02*
X3468167Y-17920078D01*
X3468167Y-17920078D02*
X3468167Y-17996269D01*
X3468167Y-17996269D02*
X3477691Y-18015316D01*
X3477691Y-18015316D02*
X3487215Y-18024840D01*
X3487215Y-18024840D02*
X3506262Y-18034364D01*
X3506262Y-18034364D02*
X3544358Y-18034364D01*
X3544358Y-18034364D02*
X3563405Y-18024840D01*
X3563405Y-18024840D02*
X3572929Y-18015316D01*
X3572929Y-18015316D02*
X3582453Y-17996269D01*
X3582453Y-17996269D02*
X3582453Y-17948650D01*
X3582453Y-17948650D02*
X3572929Y-17929602D01*
X3572929Y-17929602D02*
X3563405Y-17920078D01*
X3563405Y-17920078D02*
X3544358Y-17910554D01*
X3544358Y-17910554D02*
X3506262Y-17910554D01*
X3506262Y-17910554D02*
X3487215Y-17920078D01*
X3487215Y-17920078D02*
X3477691Y-17929602D01*
X3477691Y-17929602D02*
X3468167Y-17948650D01*
X3706262Y-17834364D02*
X3725310Y-17834364D01*
X3725310Y-17834364D02*
X3744358Y-17843888D01*
X3744358Y-17843888D02*
X3753882Y-17853411D01*
X3753882Y-17853411D02*
X3763405Y-17872459D01*
X3763405Y-17872459D02*
X3772929Y-17910554D01*
X3772929Y-17910554D02*
X3772929Y-17958173D01*
X3772929Y-17958173D02*
X3763405Y-17996269D01*
X3763405Y-17996269D02*
X3753882Y-18015316D01*
X3753882Y-18015316D02*
X3744358Y-18024840D01*
X3744358Y-18024840D02*
X3725310Y-18034364D01*
X3725310Y-18034364D02*
X3706262Y-18034364D01*
X3706262Y-18034364D02*
X3687215Y-18024840D01*
X3687215Y-18024840D02*
X3677691Y-18015316D01*
X3677691Y-18015316D02*
X3668167Y-17996269D01*
X3668167Y-17996269D02*
X3658643Y-17958173D01*
X3658643Y-17958173D02*
X3658643Y-17910554D01*
X3658643Y-17910554D02*
X3668167Y-17872459D01*
X3668167Y-17872459D02*
X3677691Y-17853411D01*
X3677691Y-17853411D02*
X3687215Y-17843888D01*
X3687215Y-17843888D02*
X3706262Y-17834364D01*
X3896739Y-17834364D02*
X3915786Y-17834364D01*
X3915786Y-17834364D02*
X3934834Y-17843888D01*
X3934834Y-17843888D02*
X3944358Y-17853411D01*
X3944358Y-17853411D02*
X3953882Y-17872459D01*
X3953882Y-17872459D02*
X3963405Y-17910554D01*
X3963405Y-17910554D02*
X3963405Y-17958173D01*
X3963405Y-17958173D02*
X3953882Y-17996269D01*
X3953882Y-17996269D02*
X3944358Y-18015316D01*
X3944358Y-18015316D02*
X3934834Y-18024840D01*
X3934834Y-18024840D02*
X3915786Y-18034364D01*
X3915786Y-18034364D02*
X3896739Y-18034364D01*
X3896739Y-18034364D02*
X3877691Y-18024840D01*
X3877691Y-18024840D02*
X3868167Y-18015316D01*
X3868167Y-18015316D02*
X3858643Y-17996269D01*
X3858643Y-17996269D02*
X3849120Y-17958173D01*
X3849120Y-17958173D02*
X3849120Y-17910554D01*
X3849120Y-17910554D02*
X3858643Y-17872459D01*
X3858643Y-17872459D02*
X3868167Y-17853411D01*
X3868167Y-17853411D02*
X3877691Y-17843888D01*
X3877691Y-17843888D02*
X3896739Y-17834364D01*
X4049120Y-18034364D02*
X4049120Y-17901030D01*
X4049120Y-17920078D02*
X4058643Y-17910554D01*
X4058643Y-17910554D02*
X4077691Y-17901030D01*
X4077691Y-17901030D02*
X4106263Y-17901030D01*
X4106263Y-17901030D02*
X4125310Y-17910554D01*
X4125310Y-17910554D02*
X4134834Y-17929602D01*
X4134834Y-17929602D02*
X4134834Y-18034364D01*
X4134834Y-17929602D02*
X4144358Y-17910554D01*
X4144358Y-17910554D02*
X4163405Y-17901030D01*
X4163405Y-17901030D02*
X4191977Y-17901030D01*
X4191977Y-17901030D02*
X4211025Y-17910554D01*
X4211025Y-17910554D02*
X4220548Y-17929602D01*
X4220548Y-17929602D02*
X4220548Y-18034364D01*
X4315786Y-18034364D02*
X4315786Y-17901030D01*
X4315786Y-17920078D02*
X4325310Y-17910554D01*
X4325310Y-17910554D02*
X4344358Y-17901030D01*
X4344358Y-17901030D02*
X4372929Y-17901030D01*
X4372929Y-17901030D02*
X4391977Y-17910554D01*
X4391977Y-17910554D02*
X4401501Y-17929602D01*
X4401501Y-17929602D02*
X4401501Y-18034364D01*
X4401501Y-17929602D02*
X4411025Y-17910554D01*
X4411025Y-17910554D02*
X4430072Y-17901030D01*
X4430072Y-17901030D02*
X4458644Y-17901030D01*
X4458644Y-17901030D02*
X4477691Y-17910554D01*
X4477691Y-17910554D02*
X4487215Y-17929602D01*
X4487215Y-17929602D02*
X4487215Y-18034364D01*
X4877691Y-17824840D02*
X4706263Y-18081983D01*
X5134834Y-17834364D02*
X5153882Y-17834364D01*
X5153882Y-17834364D02*
X5172929Y-17843888D01*
X5172929Y-17843888D02*
X5182453Y-17853411D01*
X5182453Y-17853411D02*
X5191977Y-17872459D01*
X5191977Y-17872459D02*
X5201501Y-17910554D01*
X5201501Y-17910554D02*
X5201501Y-17958173D01*
X5201501Y-17958173D02*
X5191977Y-17996269D01*
X5191977Y-17996269D02*
X5182453Y-18015316D01*
X5182453Y-18015316D02*
X5172929Y-18024840D01*
X5172929Y-18024840D02*
X5153882Y-18034364D01*
X5153882Y-18034364D02*
X5134834Y-18034364D01*
X5134834Y-18034364D02*
X5115787Y-18024840D01*
X5115787Y-18024840D02*
X5106263Y-18015316D01*
X5106263Y-18015316D02*
X5096739Y-17996269D01*
X5096739Y-17996269D02*
X5087215Y-17958173D01*
X5087215Y-17958173D02*
X5087215Y-17910554D01*
X5087215Y-17910554D02*
X5096739Y-17872459D01*
X5096739Y-17872459D02*
X5106263Y-17853411D01*
X5106263Y-17853411D02*
X5115787Y-17843888D01*
X5115787Y-17843888D02*
X5134834Y-17834364D01*
X5287215Y-18015316D02*
X5296739Y-18024840D01*
X5296739Y-18024840D02*
X5287215Y-18034364D01*
X5287215Y-18034364D02*
X5277691Y-18024840D01*
X5277691Y-18024840D02*
X5287215Y-18015316D01*
X5287215Y-18015316D02*
X5287215Y-18034364D01*
X5420548Y-17834364D02*
X5439596Y-17834364D01*
X5439596Y-17834364D02*
X5458644Y-17843888D01*
X5458644Y-17843888D02*
X5468168Y-17853411D01*
X5468168Y-17853411D02*
X5477691Y-17872459D01*
X5477691Y-17872459D02*
X5487215Y-17910554D01*
X5487215Y-17910554D02*
X5487215Y-17958173D01*
X5487215Y-17958173D02*
X5477691Y-17996269D01*
X5477691Y-17996269D02*
X5468168Y-18015316D01*
X5468168Y-18015316D02*
X5458644Y-18024840D01*
X5458644Y-18024840D02*
X5439596Y-18034364D01*
X5439596Y-18034364D02*
X5420548Y-18034364D01*
X5420548Y-18034364D02*
X5401501Y-18024840D01*
X5401501Y-18024840D02*
X5391977Y-18015316D01*
X5391977Y-18015316D02*
X5382453Y-17996269D01*
X5382453Y-17996269D02*
X5372929Y-17958173D01*
X5372929Y-17958173D02*
X5372929Y-17910554D01*
X5372929Y-17910554D02*
X5382453Y-17872459D01*
X5382453Y-17872459D02*
X5391977Y-17853411D01*
X5391977Y-17853411D02*
X5401501Y-17843888D01*
X5401501Y-17843888D02*
X5420548Y-17834364D01*
X5563406Y-17853411D02*
X5572929Y-17843888D01*
X5572929Y-17843888D02*
X5591977Y-17834364D01*
X5591977Y-17834364D02*
X5639596Y-17834364D01*
X5639596Y-17834364D02*
X5658644Y-17843888D01*
X5658644Y-17843888D02*
X5668167Y-17853411D01*
X5668167Y-17853411D02*
X5677691Y-17872459D01*
X5677691Y-17872459D02*
X5677691Y-17891507D01*
X5677691Y-17891507D02*
X5668167Y-17920078D01*
X5668167Y-17920078D02*
X5553882Y-18034364D01*
X5553882Y-18034364D02*
X5677691Y-18034364D01*
X5744358Y-17834364D02*
X5868167Y-17834364D01*
X5868167Y-17834364D02*
X5801501Y-17910554D01*
X5801501Y-17910554D02*
X5830072Y-17910554D01*
X5830072Y-17910554D02*
X5849120Y-17920078D01*
X5849120Y-17920078D02*
X5858644Y-17929602D01*
X5858644Y-17929602D02*
X5868167Y-17948650D01*
X5868167Y-17948650D02*
X5868167Y-17996269D01*
X5868167Y-17996269D02*
X5858644Y-18015316D01*
X5858644Y-18015316D02*
X5849120Y-18024840D01*
X5849120Y-18024840D02*
X5830072Y-18034364D01*
X5830072Y-18034364D02*
X5772929Y-18034364D01*
X5772929Y-18034364D02*
X5753882Y-18024840D01*
X5753882Y-18024840D02*
X5744358Y-18015316D01*
X6039596Y-17834364D02*
X6001501Y-17834364D01*
X6001501Y-17834364D02*
X5982453Y-17843888D01*
X5982453Y-17843888D02*
X5972929Y-17853411D01*
X5972929Y-17853411D02*
X5953882Y-17881983D01*
X5953882Y-17881983D02*
X5944358Y-17920078D01*
X5944358Y-17920078D02*
X5944358Y-17996269D01*
X5944358Y-17996269D02*
X5953882Y-18015316D01*
X5953882Y-18015316D02*
X5963406Y-18024840D01*
X5963406Y-18024840D02*
X5982453Y-18034364D01*
X5982453Y-18034364D02*
X6020548Y-18034364D01*
X6020548Y-18034364D02*
X6039596Y-18024840D01*
X6039596Y-18024840D02*
X6049120Y-18015316D01*
X6049120Y-18015316D02*
X6058644Y-17996269D01*
X6058644Y-17996269D02*
X6058644Y-17948650D01*
X6058644Y-17948650D02*
X6049120Y-17929602D01*
X6049120Y-17929602D02*
X6039596Y-17920078D01*
X6039596Y-17920078D02*
X6020548Y-17910554D01*
X6020548Y-17910554D02*
X5982453Y-17910554D01*
X5982453Y-17910554D02*
X5963406Y-17920078D01*
X5963406Y-17920078D02*
X5953882Y-17929602D01*
X5953882Y-17929602D02*
X5944358Y-17948650D01*
X6134834Y-17834364D02*
X6134834Y-17872459D01*
X6211025Y-17834364D02*
X6211025Y-17872459D01*
X6506263Y-18110554D02*
X6496739Y-18101030D01*
X6496739Y-18101030D02*
X6477691Y-18072459D01*
X6477691Y-18072459D02*
X6468168Y-18053411D01*
X6468168Y-18053411D02*
X6458644Y-18024840D01*
X6458644Y-18024840D02*
X6449120Y-17977221D01*
X6449120Y-17977221D02*
X6449120Y-17939126D01*
X6449120Y-17939126D02*
X6458644Y-17891507D01*
X6458644Y-17891507D02*
X6468168Y-17862935D01*
X6468168Y-17862935D02*
X6477691Y-17843888D01*
X6477691Y-17843888D02*
X6496739Y-17815316D01*
X6496739Y-17815316D02*
X6506263Y-17805792D01*
X6668168Y-17901030D02*
X6668168Y-18034364D01*
X6620548Y-17824840D02*
X6572929Y-17967697D01*
X6572929Y-17967697D02*
X6696739Y-17967697D01*
X6753882Y-17834364D02*
X6887215Y-17834364D01*
X6887215Y-17834364D02*
X6801501Y-18034364D01*
X7115787Y-18034364D02*
X7115787Y-17834364D01*
X7201501Y-18034364D02*
X7201501Y-17929602D01*
X7201501Y-17929602D02*
X7191977Y-17910554D01*
X7191977Y-17910554D02*
X7172930Y-17901030D01*
X7172930Y-17901030D02*
X7144358Y-17901030D01*
X7144358Y-17901030D02*
X7125310Y-17910554D01*
X7125310Y-17910554D02*
X7115787Y-17920078D01*
X7325310Y-18034364D02*
X7306263Y-18024840D01*
X7306263Y-18024840D02*
X7296739Y-18015316D01*
X7296739Y-18015316D02*
X7287215Y-17996269D01*
X7287215Y-17996269D02*
X7287215Y-17939126D01*
X7287215Y-17939126D02*
X7296739Y-17920078D01*
X7296739Y-17920078D02*
X7306263Y-17910554D01*
X7306263Y-17910554D02*
X7325310Y-17901030D01*
X7325310Y-17901030D02*
X7353882Y-17901030D01*
X7353882Y-17901030D02*
X7372930Y-17910554D01*
X7372930Y-17910554D02*
X7382453Y-17920078D01*
X7382453Y-17920078D02*
X7391977Y-17939126D01*
X7391977Y-17939126D02*
X7391977Y-17996269D01*
X7391977Y-17996269D02*
X7382453Y-18015316D01*
X7382453Y-18015316D02*
X7372930Y-18024840D01*
X7372930Y-18024840D02*
X7353882Y-18034364D01*
X7353882Y-18034364D02*
X7325310Y-18034364D01*
X7506263Y-18034364D02*
X7487215Y-18024840D01*
X7487215Y-18024840D02*
X7477691Y-18005792D01*
X7477691Y-18005792D02*
X7477691Y-17834364D01*
X7658644Y-18024840D02*
X7639596Y-18034364D01*
X7639596Y-18034364D02*
X7601501Y-18034364D01*
X7601501Y-18034364D02*
X7582453Y-18024840D01*
X7582453Y-18024840D02*
X7572930Y-18005792D01*
X7572930Y-18005792D02*
X7572930Y-17929602D01*
X7572930Y-17929602D02*
X7582453Y-17910554D01*
X7582453Y-17910554D02*
X7601501Y-17901030D01*
X7601501Y-17901030D02*
X7639596Y-17901030D01*
X7639596Y-17901030D02*
X7658644Y-17910554D01*
X7658644Y-17910554D02*
X7668168Y-17929602D01*
X7668168Y-17929602D02*
X7668168Y-17948650D01*
X7668168Y-17948650D02*
X7572930Y-17967697D01*
X7744358Y-18024840D02*
X7763406Y-18034364D01*
X7763406Y-18034364D02*
X7801501Y-18034364D01*
X7801501Y-18034364D02*
X7820549Y-18024840D01*
X7820549Y-18024840D02*
X7830072Y-18005792D01*
X7830072Y-18005792D02*
X7830072Y-17996269D01*
X7830072Y-17996269D02*
X7820549Y-17977221D01*
X7820549Y-17977221D02*
X7801501Y-17967697D01*
X7801501Y-17967697D02*
X7772930Y-17967697D01*
X7772930Y-17967697D02*
X7753882Y-17958173D01*
X7753882Y-17958173D02*
X7744358Y-17939126D01*
X7744358Y-17939126D02*
X7744358Y-17929602D01*
X7744358Y-17929602D02*
X7753882Y-17910554D01*
X7753882Y-17910554D02*
X7772930Y-17901030D01*
X7772930Y-17901030D02*
X7801501Y-17901030D01*
X7801501Y-17901030D02*
X7820549Y-17910554D01*
X7896739Y-18110554D02*
X7906263Y-18101030D01*
X7906263Y-18101030D02*
X7925311Y-18072459D01*
X7925311Y-18072459D02*
X7934834Y-18053411D01*
X7934834Y-18053411D02*
X7944358Y-18024840D01*
X7944358Y-18024840D02*
X7953882Y-17977221D01*
X7953882Y-17977221D02*
X7953882Y-17939126D01*
X7953882Y-17939126D02*
X7944358Y-17891507D01*
X7944358Y-17891507D02*
X7934834Y-17862935D01*
X7934834Y-17862935D02*
X7925311Y-17843888D01*
X7925311Y-17843888D02*
X7906263Y-17815316D01*
X7906263Y-17815316D02*
X7896739Y-17805792D01*
D11*
X2891200Y-18166880D02*
X2891200Y-18246880D01*
X2851200Y-18206880D02*
X2931200Y-18206880D01*
D10*
X3230072Y-18098364D02*
X3249120Y-18098364D01*
X3249120Y-18098364D02*
X3268167Y-18107888D01*
X3268167Y-18107888D02*
X3277691Y-18117411D01*
X3277691Y-18117411D02*
X3287215Y-18136459D01*
X3287215Y-18136459D02*
X3296739Y-18174554D01*
X3296739Y-18174554D02*
X3296739Y-18222173D01*
X3296739Y-18222173D02*
X3287215Y-18260269D01*
X3287215Y-18260269D02*
X3277691Y-18279316D01*
X3277691Y-18279316D02*
X3268167Y-18288840D01*
X3268167Y-18288840D02*
X3249120Y-18298364D01*
X3249120Y-18298364D02*
X3230072Y-18298364D01*
X3230072Y-18298364D02*
X3211024Y-18288840D01*
X3211024Y-18288840D02*
X3201501Y-18279316D01*
X3201501Y-18279316D02*
X3191977Y-18260269D01*
X3191977Y-18260269D02*
X3182453Y-18222173D01*
X3182453Y-18222173D02*
X3182453Y-18174554D01*
X3182453Y-18174554D02*
X3191977Y-18136459D01*
X3191977Y-18136459D02*
X3201501Y-18117411D01*
X3201501Y-18117411D02*
X3211024Y-18107888D01*
X3211024Y-18107888D02*
X3230072Y-18098364D01*
X3382453Y-18279316D02*
X3391977Y-18288840D01*
X3391977Y-18288840D02*
X3382453Y-18298364D01*
X3382453Y-18298364D02*
X3372929Y-18288840D01*
X3372929Y-18288840D02*
X3382453Y-18279316D01*
X3382453Y-18279316D02*
X3382453Y-18298364D01*
X3506262Y-18184078D02*
X3487215Y-18174554D01*
X3487215Y-18174554D02*
X3477691Y-18165030D01*
X3477691Y-18165030D02*
X3468167Y-18145983D01*
X3468167Y-18145983D02*
X3468167Y-18136459D01*
X3468167Y-18136459D02*
X3477691Y-18117411D01*
X3477691Y-18117411D02*
X3487215Y-18107888D01*
X3487215Y-18107888D02*
X3506262Y-18098364D01*
X3506262Y-18098364D02*
X3544358Y-18098364D01*
X3544358Y-18098364D02*
X3563405Y-18107888D01*
X3563405Y-18107888D02*
X3572929Y-18117411D01*
X3572929Y-18117411D02*
X3582453Y-18136459D01*
X3582453Y-18136459D02*
X3582453Y-18145983D01*
X3582453Y-18145983D02*
X3572929Y-18165030D01*
X3572929Y-18165030D02*
X3563405Y-18174554D01*
X3563405Y-18174554D02*
X3544358Y-18184078D01*
X3544358Y-18184078D02*
X3506262Y-18184078D01*
X3506262Y-18184078D02*
X3487215Y-18193602D01*
X3487215Y-18193602D02*
X3477691Y-18203126D01*
X3477691Y-18203126D02*
X3468167Y-18222173D01*
X3468167Y-18222173D02*
X3468167Y-18260269D01*
X3468167Y-18260269D02*
X3477691Y-18279316D01*
X3477691Y-18279316D02*
X3487215Y-18288840D01*
X3487215Y-18288840D02*
X3506262Y-18298364D01*
X3506262Y-18298364D02*
X3544358Y-18298364D01*
X3544358Y-18298364D02*
X3563405Y-18288840D01*
X3563405Y-18288840D02*
X3572929Y-18279316D01*
X3572929Y-18279316D02*
X3582453Y-18260269D01*
X3582453Y-18260269D02*
X3582453Y-18222173D01*
X3582453Y-18222173D02*
X3572929Y-18203126D01*
X3572929Y-18203126D02*
X3563405Y-18193602D01*
X3563405Y-18193602D02*
X3544358Y-18184078D01*
X3706262Y-18098364D02*
X3725310Y-18098364D01*
X3725310Y-18098364D02*
X3744358Y-18107888D01*
X3744358Y-18107888D02*
X3753882Y-18117411D01*
X3753882Y-18117411D02*
X3763405Y-18136459D01*
X3763405Y-18136459D02*
X3772929Y-18174554D01*
X3772929Y-18174554D02*
X3772929Y-18222173D01*
X3772929Y-18222173D02*
X3763405Y-18260269D01*
X3763405Y-18260269D02*
X3753882Y-18279316D01*
X3753882Y-18279316D02*
X3744358Y-18288840D01*
X3744358Y-18288840D02*
X3725310Y-18298364D01*
X3725310Y-18298364D02*
X3706262Y-18298364D01*
X3706262Y-18298364D02*
X3687215Y-18288840D01*
X3687215Y-18288840D02*
X3677691Y-18279316D01*
X3677691Y-18279316D02*
X3668167Y-18260269D01*
X3668167Y-18260269D02*
X3658643Y-18222173D01*
X3658643Y-18222173D02*
X3658643Y-18174554D01*
X3658643Y-18174554D02*
X3668167Y-18136459D01*
X3668167Y-18136459D02*
X3677691Y-18117411D01*
X3677691Y-18117411D02*
X3687215Y-18107888D01*
X3687215Y-18107888D02*
X3706262Y-18098364D01*
X3896739Y-18098364D02*
X3915786Y-18098364D01*
X3915786Y-18098364D02*
X3934834Y-18107888D01*
X3934834Y-18107888D02*
X3944358Y-18117411D01*
X3944358Y-18117411D02*
X3953882Y-18136459D01*
X3953882Y-18136459D02*
X3963405Y-18174554D01*
X3963405Y-18174554D02*
X3963405Y-18222173D01*
X3963405Y-18222173D02*
X3953882Y-18260269D01*
X3953882Y-18260269D02*
X3944358Y-18279316D01*
X3944358Y-18279316D02*
X3934834Y-18288840D01*
X3934834Y-18288840D02*
X3915786Y-18298364D01*
X3915786Y-18298364D02*
X3896739Y-18298364D01*
X3896739Y-18298364D02*
X3877691Y-18288840D01*
X3877691Y-18288840D02*
X3868167Y-18279316D01*
X3868167Y-18279316D02*
X3858643Y-18260269D01*
X3858643Y-18260269D02*
X3849120Y-18222173D01*
X3849120Y-18222173D02*
X3849120Y-18174554D01*
X3849120Y-18174554D02*
X3858643Y-18136459D01*
X3858643Y-18136459D02*
X3868167Y-18117411D01*
X3868167Y-18117411D02*
X3877691Y-18107888D01*
X3877691Y-18107888D02*
X3896739Y-18098364D01*
X4049120Y-18298364D02*
X4049120Y-18165030D01*
X4049120Y-18184078D02*
X4058643Y-18174554D01*
X4058643Y-18174554D02*
X4077691Y-18165030D01*
X4077691Y-18165030D02*
X4106263Y-18165030D01*
X4106263Y-18165030D02*
X4125310Y-18174554D01*
X4125310Y-18174554D02*
X4134834Y-18193602D01*
X4134834Y-18193602D02*
X4134834Y-18298364D01*
X4134834Y-18193602D02*
X4144358Y-18174554D01*
X4144358Y-18174554D02*
X4163405Y-18165030D01*
X4163405Y-18165030D02*
X4191977Y-18165030D01*
X4191977Y-18165030D02*
X4211025Y-18174554D01*
X4211025Y-18174554D02*
X4220548Y-18193602D01*
X4220548Y-18193602D02*
X4220548Y-18298364D01*
X4315786Y-18298364D02*
X4315786Y-18165030D01*
X4315786Y-18184078D02*
X4325310Y-18174554D01*
X4325310Y-18174554D02*
X4344358Y-18165030D01*
X4344358Y-18165030D02*
X4372929Y-18165030D01*
X4372929Y-18165030D02*
X4391977Y-18174554D01*
X4391977Y-18174554D02*
X4401501Y-18193602D01*
X4401501Y-18193602D02*
X4401501Y-18298364D01*
X4401501Y-18193602D02*
X4411025Y-18174554D01*
X4411025Y-18174554D02*
X4430072Y-18165030D01*
X4430072Y-18165030D02*
X4458644Y-18165030D01*
X4458644Y-18165030D02*
X4477691Y-18174554D01*
X4477691Y-18174554D02*
X4487215Y-18193602D01*
X4487215Y-18193602D02*
X4487215Y-18298364D01*
X4877691Y-18088840D02*
X4706263Y-18345983D01*
X5134834Y-18098364D02*
X5153882Y-18098364D01*
X5153882Y-18098364D02*
X5172929Y-18107888D01*
X5172929Y-18107888D02*
X5182453Y-18117411D01*
X5182453Y-18117411D02*
X5191977Y-18136459D01*
X5191977Y-18136459D02*
X5201501Y-18174554D01*
X5201501Y-18174554D02*
X5201501Y-18222173D01*
X5201501Y-18222173D02*
X5191977Y-18260269D01*
X5191977Y-18260269D02*
X5182453Y-18279316D01*
X5182453Y-18279316D02*
X5172929Y-18288840D01*
X5172929Y-18288840D02*
X5153882Y-18298364D01*
X5153882Y-18298364D02*
X5134834Y-18298364D01*
X5134834Y-18298364D02*
X5115787Y-18288840D01*
X5115787Y-18288840D02*
X5106263Y-18279316D01*
X5106263Y-18279316D02*
X5096739Y-18260269D01*
X5096739Y-18260269D02*
X5087215Y-18222173D01*
X5087215Y-18222173D02*
X5087215Y-18174554D01*
X5087215Y-18174554D02*
X5096739Y-18136459D01*
X5096739Y-18136459D02*
X5106263Y-18117411D01*
X5106263Y-18117411D02*
X5115787Y-18107888D01*
X5115787Y-18107888D02*
X5134834Y-18098364D01*
X5287215Y-18279316D02*
X5296739Y-18288840D01*
X5296739Y-18288840D02*
X5287215Y-18298364D01*
X5287215Y-18298364D02*
X5277691Y-18288840D01*
X5277691Y-18288840D02*
X5287215Y-18279316D01*
X5287215Y-18279316D02*
X5287215Y-18298364D01*
X5420548Y-18098364D02*
X5439596Y-18098364D01*
X5439596Y-18098364D02*
X5458644Y-18107888D01*
X5458644Y-18107888D02*
X5468168Y-18117411D01*
X5468168Y-18117411D02*
X5477691Y-18136459D01*
X5477691Y-18136459D02*
X5487215Y-18174554D01*
X5487215Y-18174554D02*
X5487215Y-18222173D01*
X5487215Y-18222173D02*
X5477691Y-18260269D01*
X5477691Y-18260269D02*
X5468168Y-18279316D01*
X5468168Y-18279316D02*
X5458644Y-18288840D01*
X5458644Y-18288840D02*
X5439596Y-18298364D01*
X5439596Y-18298364D02*
X5420548Y-18298364D01*
X5420548Y-18298364D02*
X5401501Y-18288840D01*
X5401501Y-18288840D02*
X5391977Y-18279316D01*
X5391977Y-18279316D02*
X5382453Y-18260269D01*
X5382453Y-18260269D02*
X5372929Y-18222173D01*
X5372929Y-18222173D02*
X5372929Y-18174554D01*
X5372929Y-18174554D02*
X5382453Y-18136459D01*
X5382453Y-18136459D02*
X5391977Y-18117411D01*
X5391977Y-18117411D02*
X5401501Y-18107888D01*
X5401501Y-18107888D02*
X5420548Y-18098364D01*
X5553882Y-18098364D02*
X5677691Y-18098364D01*
X5677691Y-18098364D02*
X5611025Y-18174554D01*
X5611025Y-18174554D02*
X5639596Y-18174554D01*
X5639596Y-18174554D02*
X5658644Y-18184078D01*
X5658644Y-18184078D02*
X5668167Y-18193602D01*
X5668167Y-18193602D02*
X5677691Y-18212650D01*
X5677691Y-18212650D02*
X5677691Y-18260269D01*
X5677691Y-18260269D02*
X5668167Y-18279316D01*
X5668167Y-18279316D02*
X5658644Y-18288840D01*
X5658644Y-18288840D02*
X5639596Y-18298364D01*
X5639596Y-18298364D02*
X5582453Y-18298364D01*
X5582453Y-18298364D02*
X5563406Y-18288840D01*
X5563406Y-18288840D02*
X5553882Y-18279316D01*
X5868167Y-18298364D02*
X5753882Y-18298364D01*
X5811025Y-18298364D02*
X5811025Y-18098364D01*
X5811025Y-18098364D02*
X5791977Y-18126935D01*
X5791977Y-18126935D02*
X5772929Y-18145983D01*
X5772929Y-18145983D02*
X5753882Y-18155507D01*
X6049120Y-18098364D02*
X5953882Y-18098364D01*
X5953882Y-18098364D02*
X5944358Y-18193602D01*
X5944358Y-18193602D02*
X5953882Y-18184078D01*
X5953882Y-18184078D02*
X5972929Y-18174554D01*
X5972929Y-18174554D02*
X6020548Y-18174554D01*
X6020548Y-18174554D02*
X6039596Y-18184078D01*
X6039596Y-18184078D02*
X6049120Y-18193602D01*
X6049120Y-18193602D02*
X6058644Y-18212650D01*
X6058644Y-18212650D02*
X6058644Y-18260269D01*
X6058644Y-18260269D02*
X6049120Y-18279316D01*
X6049120Y-18279316D02*
X6039596Y-18288840D01*
X6039596Y-18288840D02*
X6020548Y-18298364D01*
X6020548Y-18298364D02*
X5972929Y-18298364D01*
X5972929Y-18298364D02*
X5953882Y-18288840D01*
X5953882Y-18288840D02*
X5944358Y-18279316D01*
X6134834Y-18098364D02*
X6134834Y-18136459D01*
X6211025Y-18098364D02*
X6211025Y-18136459D01*
X6506263Y-18374554D02*
X6496739Y-18365030D01*
X6496739Y-18365030D02*
X6477691Y-18336459D01*
X6477691Y-18336459D02*
X6468168Y-18317411D01*
X6468168Y-18317411D02*
X6458644Y-18288840D01*
X6458644Y-18288840D02*
X6449120Y-18241221D01*
X6449120Y-18241221D02*
X6449120Y-18203126D01*
X6449120Y-18203126D02*
X6458644Y-18155507D01*
X6458644Y-18155507D02*
X6468168Y-18126935D01*
X6468168Y-18126935D02*
X6477691Y-18107888D01*
X6477691Y-18107888D02*
X6496739Y-18079316D01*
X6496739Y-18079316D02*
X6506263Y-18069792D01*
X6563406Y-18098364D02*
X6687215Y-18098364D01*
X6687215Y-18098364D02*
X6620548Y-18174554D01*
X6620548Y-18174554D02*
X6649120Y-18174554D01*
X6649120Y-18174554D02*
X6668168Y-18184078D01*
X6668168Y-18184078D02*
X6677691Y-18193602D01*
X6677691Y-18193602D02*
X6687215Y-18212650D01*
X6687215Y-18212650D02*
X6687215Y-18260269D01*
X6687215Y-18260269D02*
X6677691Y-18279316D01*
X6677691Y-18279316D02*
X6668168Y-18288840D01*
X6668168Y-18288840D02*
X6649120Y-18298364D01*
X6649120Y-18298364D02*
X6591977Y-18298364D01*
X6591977Y-18298364D02*
X6572929Y-18288840D01*
X6572929Y-18288840D02*
X6563406Y-18279316D01*
X6763406Y-18117411D02*
X6772929Y-18107888D01*
X6772929Y-18107888D02*
X6791977Y-18098364D01*
X6791977Y-18098364D02*
X6839596Y-18098364D01*
X6839596Y-18098364D02*
X6858644Y-18107888D01*
X6858644Y-18107888D02*
X6868168Y-18117411D01*
X6868168Y-18117411D02*
X6877691Y-18136459D01*
X6877691Y-18136459D02*
X6877691Y-18155507D01*
X6877691Y-18155507D02*
X6868168Y-18184078D01*
X6868168Y-18184078D02*
X6753882Y-18298364D01*
X6753882Y-18298364D02*
X6877691Y-18298364D01*
X7115787Y-18298364D02*
X7115787Y-18098364D01*
X7201501Y-18298364D02*
X7201501Y-18193602D01*
X7201501Y-18193602D02*
X7191977Y-18174554D01*
X7191977Y-18174554D02*
X7172930Y-18165030D01*
X7172930Y-18165030D02*
X7144358Y-18165030D01*
X7144358Y-18165030D02*
X7125310Y-18174554D01*
X7125310Y-18174554D02*
X7115787Y-18184078D01*
X7325310Y-18298364D02*
X7306263Y-18288840D01*
X7306263Y-18288840D02*
X7296739Y-18279316D01*
X7296739Y-18279316D02*
X7287215Y-18260269D01*
X7287215Y-18260269D02*
X7287215Y-18203126D01*
X7287215Y-18203126D02*
X7296739Y-18184078D01*
X7296739Y-18184078D02*
X7306263Y-18174554D01*
X7306263Y-18174554D02*
X7325310Y-18165030D01*
X7325310Y-18165030D02*
X7353882Y-18165030D01*
X7353882Y-18165030D02*
X7372930Y-18174554D01*
X7372930Y-18174554D02*
X7382453Y-18184078D01*
X7382453Y-18184078D02*
X7391977Y-18203126D01*
X7391977Y-18203126D02*
X7391977Y-18260269D01*
X7391977Y-18260269D02*
X7382453Y-18279316D01*
X7382453Y-18279316D02*
X7372930Y-18288840D01*
X7372930Y-18288840D02*
X7353882Y-18298364D01*
X7353882Y-18298364D02*
X7325310Y-18298364D01*
X7506263Y-18298364D02*
X7487215Y-18288840D01*
X7487215Y-18288840D02*
X7477691Y-18269792D01*
X7477691Y-18269792D02*
X7477691Y-18098364D01*
X7658644Y-18288840D02*
X7639596Y-18298364D01*
X7639596Y-18298364D02*
X7601501Y-18298364D01*
X7601501Y-18298364D02*
X7582453Y-18288840D01*
X7582453Y-18288840D02*
X7572930Y-18269792D01*
X7572930Y-18269792D02*
X7572930Y-18193602D01*
X7572930Y-18193602D02*
X7582453Y-18174554D01*
X7582453Y-18174554D02*
X7601501Y-18165030D01*
X7601501Y-18165030D02*
X7639596Y-18165030D01*
X7639596Y-18165030D02*
X7658644Y-18174554D01*
X7658644Y-18174554D02*
X7668168Y-18193602D01*
X7668168Y-18193602D02*
X7668168Y-18212650D01*
X7668168Y-18212650D02*
X7572930Y-18231697D01*
X7744358Y-18288840D02*
X7763406Y-18298364D01*
X7763406Y-18298364D02*
X7801501Y-18298364D01*
X7801501Y-18298364D02*
X7820549Y-18288840D01*
X7820549Y-18288840D02*
X7830072Y-18269792D01*
X7830072Y-18269792D02*
X7830072Y-18260269D01*
X7830072Y-18260269D02*
X7820549Y-18241221D01*
X7820549Y-18241221D02*
X7801501Y-18231697D01*
X7801501Y-18231697D02*
X7772930Y-18231697D01*
X7772930Y-18231697D02*
X7753882Y-18222173D01*
X7753882Y-18222173D02*
X7744358Y-18203126D01*
X7744358Y-18203126D02*
X7744358Y-18193602D01*
X7744358Y-18193602D02*
X7753882Y-18174554D01*
X7753882Y-18174554D02*
X7772930Y-18165030D01*
X7772930Y-18165030D02*
X7801501Y-18165030D01*
X7801501Y-18165030D02*
X7820549Y-18174554D01*
X7896739Y-18374554D02*
X7906263Y-18365030D01*
X7906263Y-18365030D02*
X7925311Y-18336459D01*
X7925311Y-18336459D02*
X7934834Y-18317411D01*
X7934834Y-18317411D02*
X7944358Y-18288840D01*
X7944358Y-18288840D02*
X7953882Y-18241221D01*
X7953882Y-18241221D02*
X7953882Y-18203126D01*
X7953882Y-18203126D02*
X7944358Y-18155507D01*
X7944358Y-18155507D02*
X7934834Y-18126935D01*
X7934834Y-18126935D02*
X7925311Y-18107888D01*
X7925311Y-18107888D02*
X7906263Y-18079316D01*
X7906263Y-18079316D02*
X7896739Y-18069792D01*
D11*
X2917288Y-18504468D02*
X2917288Y-18437292D01*
X2850112Y-18437292D01*
X2850112Y-18504468D01*
X2917288Y-18504468D01*
D10*
X3230072Y-18362364D02*
X3249120Y-18362364D01*
X3249120Y-18362364D02*
X3268167Y-18371888D01*
X3268167Y-18371888D02*
X3277691Y-18381411D01*
X3277691Y-18381411D02*
X3287215Y-18400459D01*
X3287215Y-18400459D02*
X3296739Y-18438554D01*
X3296739Y-18438554D02*
X3296739Y-18486173D01*
X3296739Y-18486173D02*
X3287215Y-18524269D01*
X3287215Y-18524269D02*
X3277691Y-18543316D01*
X3277691Y-18543316D02*
X3268167Y-18552840D01*
X3268167Y-18552840D02*
X3249120Y-18562364D01*
X3249120Y-18562364D02*
X3230072Y-18562364D01*
X3230072Y-18562364D02*
X3211024Y-18552840D01*
X3211024Y-18552840D02*
X3201501Y-18543316D01*
X3201501Y-18543316D02*
X3191977Y-18524269D01*
X3191977Y-18524269D02*
X3182453Y-18486173D01*
X3182453Y-18486173D02*
X3182453Y-18438554D01*
X3182453Y-18438554D02*
X3191977Y-18400459D01*
X3191977Y-18400459D02*
X3201501Y-18381411D01*
X3201501Y-18381411D02*
X3211024Y-18371888D01*
X3211024Y-18371888D02*
X3230072Y-18362364D01*
X3382453Y-18543316D02*
X3391977Y-18552840D01*
X3391977Y-18552840D02*
X3382453Y-18562364D01*
X3382453Y-18562364D02*
X3372929Y-18552840D01*
X3372929Y-18552840D02*
X3382453Y-18543316D01*
X3382453Y-18543316D02*
X3382453Y-18562364D01*
X3487215Y-18562364D02*
X3525310Y-18562364D01*
X3525310Y-18562364D02*
X3544358Y-18552840D01*
X3544358Y-18552840D02*
X3553882Y-18543316D01*
X3553882Y-18543316D02*
X3572929Y-18514745D01*
X3572929Y-18514745D02*
X3582453Y-18476650D01*
X3582453Y-18476650D02*
X3582453Y-18400459D01*
X3582453Y-18400459D02*
X3572929Y-18381411D01*
X3572929Y-18381411D02*
X3563405Y-18371888D01*
X3563405Y-18371888D02*
X3544358Y-18362364D01*
X3544358Y-18362364D02*
X3506262Y-18362364D01*
X3506262Y-18362364D02*
X3487215Y-18371888D01*
X3487215Y-18371888D02*
X3477691Y-18381411D01*
X3477691Y-18381411D02*
X3468167Y-18400459D01*
X3468167Y-18400459D02*
X3468167Y-18448078D01*
X3468167Y-18448078D02*
X3477691Y-18467126D01*
X3477691Y-18467126D02*
X3487215Y-18476650D01*
X3487215Y-18476650D02*
X3506262Y-18486173D01*
X3506262Y-18486173D02*
X3544358Y-18486173D01*
X3544358Y-18486173D02*
X3563405Y-18476650D01*
X3563405Y-18476650D02*
X3572929Y-18467126D01*
X3572929Y-18467126D02*
X3582453Y-18448078D01*
X3763405Y-18362364D02*
X3668167Y-18362364D01*
X3668167Y-18362364D02*
X3658643Y-18457602D01*
X3658643Y-18457602D02*
X3668167Y-18448078D01*
X3668167Y-18448078D02*
X3687215Y-18438554D01*
X3687215Y-18438554D02*
X3734834Y-18438554D01*
X3734834Y-18438554D02*
X3753882Y-18448078D01*
X3753882Y-18448078D02*
X3763405Y-18457602D01*
X3763405Y-18457602D02*
X3772929Y-18476650D01*
X3772929Y-18476650D02*
X3772929Y-18524269D01*
X3772929Y-18524269D02*
X3763405Y-18543316D01*
X3763405Y-18543316D02*
X3753882Y-18552840D01*
X3753882Y-18552840D02*
X3734834Y-18562364D01*
X3734834Y-18562364D02*
X3687215Y-18562364D01*
X3687215Y-18562364D02*
X3668167Y-18552840D01*
X3668167Y-18552840D02*
X3658643Y-18543316D01*
X3896739Y-18362364D02*
X3915786Y-18362364D01*
X3915786Y-18362364D02*
X3934834Y-18371888D01*
X3934834Y-18371888D02*
X3944358Y-18381411D01*
X3944358Y-18381411D02*
X3953882Y-18400459D01*
X3953882Y-18400459D02*
X3963405Y-18438554D01*
X3963405Y-18438554D02*
X3963405Y-18486173D01*
X3963405Y-18486173D02*
X3953882Y-18524269D01*
X3953882Y-18524269D02*
X3944358Y-18543316D01*
X3944358Y-18543316D02*
X3934834Y-18552840D01*
X3934834Y-18552840D02*
X3915786Y-18562364D01*
X3915786Y-18562364D02*
X3896739Y-18562364D01*
X3896739Y-18562364D02*
X3877691Y-18552840D01*
X3877691Y-18552840D02*
X3868167Y-18543316D01*
X3868167Y-18543316D02*
X3858643Y-18524269D01*
X3858643Y-18524269D02*
X3849120Y-18486173D01*
X3849120Y-18486173D02*
X3849120Y-18438554D01*
X3849120Y-18438554D02*
X3858643Y-18400459D01*
X3858643Y-18400459D02*
X3868167Y-18381411D01*
X3868167Y-18381411D02*
X3877691Y-18371888D01*
X3877691Y-18371888D02*
X3896739Y-18362364D01*
X4049120Y-18562364D02*
X4049120Y-18429030D01*
X4049120Y-18448078D02*
X4058643Y-18438554D01*
X4058643Y-18438554D02*
X4077691Y-18429030D01*
X4077691Y-18429030D02*
X4106263Y-18429030D01*
X4106263Y-18429030D02*
X4125310Y-18438554D01*
X4125310Y-18438554D02*
X4134834Y-18457602D01*
X4134834Y-18457602D02*
X4134834Y-18562364D01*
X4134834Y-18457602D02*
X4144358Y-18438554D01*
X4144358Y-18438554D02*
X4163405Y-18429030D01*
X4163405Y-18429030D02*
X4191977Y-18429030D01*
X4191977Y-18429030D02*
X4211025Y-18438554D01*
X4211025Y-18438554D02*
X4220548Y-18457602D01*
X4220548Y-18457602D02*
X4220548Y-18562364D01*
X4315786Y-18562364D02*
X4315786Y-18429030D01*
X4315786Y-18448078D02*
X4325310Y-18438554D01*
X4325310Y-18438554D02*
X4344358Y-18429030D01*
X4344358Y-18429030D02*
X4372929Y-18429030D01*
X4372929Y-18429030D02*
X4391977Y-18438554D01*
X4391977Y-18438554D02*
X4401501Y-18457602D01*
X4401501Y-18457602D02*
X4401501Y-18562364D01*
X4401501Y-18457602D02*
X4411025Y-18438554D01*
X4411025Y-18438554D02*
X4430072Y-18429030D01*
X4430072Y-18429030D02*
X4458644Y-18429030D01*
X4458644Y-18429030D02*
X4477691Y-18438554D01*
X4477691Y-18438554D02*
X4487215Y-18457602D01*
X4487215Y-18457602D02*
X4487215Y-18562364D01*
X4877691Y-18352840D02*
X4706263Y-18609983D01*
X5134834Y-18362364D02*
X5153882Y-18362364D01*
X5153882Y-18362364D02*
X5172929Y-18371888D01*
X5172929Y-18371888D02*
X5182453Y-18381411D01*
X5182453Y-18381411D02*
X5191977Y-18400459D01*
X5191977Y-18400459D02*
X5201501Y-18438554D01*
X5201501Y-18438554D02*
X5201501Y-18486173D01*
X5201501Y-18486173D02*
X5191977Y-18524269D01*
X5191977Y-18524269D02*
X5182453Y-18543316D01*
X5182453Y-18543316D02*
X5172929Y-18552840D01*
X5172929Y-18552840D02*
X5153882Y-18562364D01*
X5153882Y-18562364D02*
X5134834Y-18562364D01*
X5134834Y-18562364D02*
X5115787Y-18552840D01*
X5115787Y-18552840D02*
X5106263Y-18543316D01*
X5106263Y-18543316D02*
X5096739Y-18524269D01*
X5096739Y-18524269D02*
X5087215Y-18486173D01*
X5087215Y-18486173D02*
X5087215Y-18438554D01*
X5087215Y-18438554D02*
X5096739Y-18400459D01*
X5096739Y-18400459D02*
X5106263Y-18381411D01*
X5106263Y-18381411D02*
X5115787Y-18371888D01*
X5115787Y-18371888D02*
X5134834Y-18362364D01*
X5287215Y-18543316D02*
X5296739Y-18552840D01*
X5296739Y-18552840D02*
X5287215Y-18562364D01*
X5287215Y-18562364D02*
X5277691Y-18552840D01*
X5277691Y-18552840D02*
X5287215Y-18543316D01*
X5287215Y-18543316D02*
X5287215Y-18562364D01*
X5420548Y-18362364D02*
X5439596Y-18362364D01*
X5439596Y-18362364D02*
X5458644Y-18371888D01*
X5458644Y-18371888D02*
X5468168Y-18381411D01*
X5468168Y-18381411D02*
X5477691Y-18400459D01*
X5477691Y-18400459D02*
X5487215Y-18438554D01*
X5487215Y-18438554D02*
X5487215Y-18486173D01*
X5487215Y-18486173D02*
X5477691Y-18524269D01*
X5477691Y-18524269D02*
X5468168Y-18543316D01*
X5468168Y-18543316D02*
X5458644Y-18552840D01*
X5458644Y-18552840D02*
X5439596Y-18562364D01*
X5439596Y-18562364D02*
X5420548Y-18562364D01*
X5420548Y-18562364D02*
X5401501Y-18552840D01*
X5401501Y-18552840D02*
X5391977Y-18543316D01*
X5391977Y-18543316D02*
X5382453Y-18524269D01*
X5382453Y-18524269D02*
X5372929Y-18486173D01*
X5372929Y-18486173D02*
X5372929Y-18438554D01*
X5372929Y-18438554D02*
X5382453Y-18400459D01*
X5382453Y-18400459D02*
X5391977Y-18381411D01*
X5391977Y-18381411D02*
X5401501Y-18371888D01*
X5401501Y-18371888D02*
X5420548Y-18362364D01*
X5553882Y-18362364D02*
X5677691Y-18362364D01*
X5677691Y-18362364D02*
X5611025Y-18438554D01*
X5611025Y-18438554D02*
X5639596Y-18438554D01*
X5639596Y-18438554D02*
X5658644Y-18448078D01*
X5658644Y-18448078D02*
X5668167Y-18457602D01*
X5668167Y-18457602D02*
X5677691Y-18476650D01*
X5677691Y-18476650D02*
X5677691Y-18524269D01*
X5677691Y-18524269D02*
X5668167Y-18543316D01*
X5668167Y-18543316D02*
X5658644Y-18552840D01*
X5658644Y-18552840D02*
X5639596Y-18562364D01*
X5639596Y-18562364D02*
X5582453Y-18562364D01*
X5582453Y-18562364D02*
X5563406Y-18552840D01*
X5563406Y-18552840D02*
X5553882Y-18543316D01*
X5744358Y-18362364D02*
X5877691Y-18362364D01*
X5877691Y-18362364D02*
X5791977Y-18562364D01*
X6039596Y-18429030D02*
X6039596Y-18562364D01*
X5991977Y-18352840D02*
X5944358Y-18495697D01*
X5944358Y-18495697D02*
X6068167Y-18495697D01*
X6134834Y-18362364D02*
X6134834Y-18400459D01*
X6211025Y-18362364D02*
X6211025Y-18400459D01*
X6506263Y-18638554D02*
X6496739Y-18629030D01*
X6496739Y-18629030D02*
X6477691Y-18600459D01*
X6477691Y-18600459D02*
X6468168Y-18581411D01*
X6468168Y-18581411D02*
X6458644Y-18552840D01*
X6458644Y-18552840D02*
X6449120Y-18505221D01*
X6449120Y-18505221D02*
X6449120Y-18467126D01*
X6449120Y-18467126D02*
X6458644Y-18419507D01*
X6458644Y-18419507D02*
X6468168Y-18390935D01*
X6468168Y-18390935D02*
X6477691Y-18371888D01*
X6477691Y-18371888D02*
X6496739Y-18343316D01*
X6496739Y-18343316D02*
X6506263Y-18333792D01*
X6687215Y-18562364D02*
X6572929Y-18562364D01*
X6630072Y-18562364D02*
X6630072Y-18362364D01*
X6630072Y-18362364D02*
X6611025Y-18390935D01*
X6611025Y-18390935D02*
X6591977Y-18409983D01*
X6591977Y-18409983D02*
X6572929Y-18419507D01*
X6801501Y-18448078D02*
X6782453Y-18438554D01*
X6782453Y-18438554D02*
X6772929Y-18429030D01*
X6772929Y-18429030D02*
X6763406Y-18409983D01*
X6763406Y-18409983D02*
X6763406Y-18400459D01*
X6763406Y-18400459D02*
X6772929Y-18381411D01*
X6772929Y-18381411D02*
X6782453Y-18371888D01*
X6782453Y-18371888D02*
X6801501Y-18362364D01*
X6801501Y-18362364D02*
X6839596Y-18362364D01*
X6839596Y-18362364D02*
X6858644Y-18371888D01*
X6858644Y-18371888D02*
X6868168Y-18381411D01*
X6868168Y-18381411D02*
X6877691Y-18400459D01*
X6877691Y-18400459D02*
X6877691Y-18409983D01*
X6877691Y-18409983D02*
X6868168Y-18429030D01*
X6868168Y-18429030D02*
X6858644Y-18438554D01*
X6858644Y-18438554D02*
X6839596Y-18448078D01*
X6839596Y-18448078D02*
X6801501Y-18448078D01*
X6801501Y-18448078D02*
X6782453Y-18457602D01*
X6782453Y-18457602D02*
X6772929Y-18467126D01*
X6772929Y-18467126D02*
X6763406Y-18486173D01*
X6763406Y-18486173D02*
X6763406Y-18524269D01*
X6763406Y-18524269D02*
X6772929Y-18543316D01*
X6772929Y-18543316D02*
X6782453Y-18552840D01*
X6782453Y-18552840D02*
X6801501Y-18562364D01*
X6801501Y-18562364D02*
X6839596Y-18562364D01*
X6839596Y-18562364D02*
X6858644Y-18552840D01*
X6858644Y-18552840D02*
X6868168Y-18543316D01*
X6868168Y-18543316D02*
X6877691Y-18524269D01*
X6877691Y-18524269D02*
X6877691Y-18486173D01*
X6877691Y-18486173D02*
X6868168Y-18467126D01*
X6868168Y-18467126D02*
X6858644Y-18457602D01*
X6858644Y-18457602D02*
X6839596Y-18448078D01*
X7115787Y-18562364D02*
X7115787Y-18362364D01*
X7201501Y-18562364D02*
X7201501Y-18457602D01*
X7201501Y-18457602D02*
X7191977Y-18438554D01*
X7191977Y-18438554D02*
X7172930Y-18429030D01*
X7172930Y-18429030D02*
X7144358Y-18429030D01*
X7144358Y-18429030D02*
X7125310Y-18438554D01*
X7125310Y-18438554D02*
X7115787Y-18448078D01*
X7325310Y-18562364D02*
X7306263Y-18552840D01*
X7306263Y-18552840D02*
X7296739Y-18543316D01*
X7296739Y-18543316D02*
X7287215Y-18524269D01*
X7287215Y-18524269D02*
X7287215Y-18467126D01*
X7287215Y-18467126D02*
X7296739Y-18448078D01*
X7296739Y-18448078D02*
X7306263Y-18438554D01*
X7306263Y-18438554D02*
X7325310Y-18429030D01*
X7325310Y-18429030D02*
X7353882Y-18429030D01*
X7353882Y-18429030D02*
X7372930Y-18438554D01*
X7372930Y-18438554D02*
X7382453Y-18448078D01*
X7382453Y-18448078D02*
X7391977Y-18467126D01*
X7391977Y-18467126D02*
X7391977Y-18524269D01*
X7391977Y-18524269D02*
X7382453Y-18543316D01*
X7382453Y-18543316D02*
X7372930Y-18552840D01*
X7372930Y-18552840D02*
X7353882Y-18562364D01*
X7353882Y-18562364D02*
X7325310Y-18562364D01*
X7506263Y-18562364D02*
X7487215Y-18552840D01*
X7487215Y-18552840D02*
X7477691Y-18533792D01*
X7477691Y-18533792D02*
X7477691Y-18362364D01*
X7658644Y-18552840D02*
X7639596Y-18562364D01*
X7639596Y-18562364D02*
X7601501Y-18562364D01*
X7601501Y-18562364D02*
X7582453Y-18552840D01*
X7582453Y-18552840D02*
X7572930Y-18533792D01*
X7572930Y-18533792D02*
X7572930Y-18457602D01*
X7572930Y-18457602D02*
X7582453Y-18438554D01*
X7582453Y-18438554D02*
X7601501Y-18429030D01*
X7601501Y-18429030D02*
X7639596Y-18429030D01*
X7639596Y-18429030D02*
X7658644Y-18438554D01*
X7658644Y-18438554D02*
X7668168Y-18457602D01*
X7668168Y-18457602D02*
X7668168Y-18476650D01*
X7668168Y-18476650D02*
X7572930Y-18495697D01*
X7744358Y-18552840D02*
X7763406Y-18562364D01*
X7763406Y-18562364D02*
X7801501Y-18562364D01*
X7801501Y-18562364D02*
X7820549Y-18552840D01*
X7820549Y-18552840D02*
X7830072Y-18533792D01*
X7830072Y-18533792D02*
X7830072Y-18524269D01*
X7830072Y-18524269D02*
X7820549Y-18505221D01*
X7820549Y-18505221D02*
X7801501Y-18495697D01*
X7801501Y-18495697D02*
X7772930Y-18495697D01*
X7772930Y-18495697D02*
X7753882Y-18486173D01*
X7753882Y-18486173D02*
X7744358Y-18467126D01*
X7744358Y-18467126D02*
X7744358Y-18457602D01*
X7744358Y-18457602D02*
X7753882Y-18438554D01*
X7753882Y-18438554D02*
X7772930Y-18429030D01*
X7772930Y-18429030D02*
X7801501Y-18429030D01*
X7801501Y-18429030D02*
X7820549Y-18438554D01*
X7896739Y-18638554D02*
X7906263Y-18629030D01*
X7906263Y-18629030D02*
X7925311Y-18600459D01*
X7925311Y-18600459D02*
X7934834Y-18581411D01*
X7934834Y-18581411D02*
X7944358Y-18552840D01*
X7944358Y-18552840D02*
X7953882Y-18505221D01*
X7953882Y-18505221D02*
X7953882Y-18467126D01*
X7953882Y-18467126D02*
X7944358Y-18419507D01*
X7944358Y-18419507D02*
X7934834Y-18390935D01*
X7934834Y-18390935D02*
X7925311Y-18371888D01*
X7925311Y-18371888D02*
X7906263Y-18343316D01*
X7906263Y-18343316D02*
X7896739Y-18333792D01*
D11*
X2881200Y-18784880D02*
X2931200Y-18734880D01*
X2881200Y-18684880D01*
X2831200Y-18734880D01*
X2881200Y-18784880D01*
D10*
X3296739Y-18826364D02*
X3182453Y-18826364D01*
X3239596Y-18826364D02*
X3239596Y-18626364D01*
X3239596Y-18626364D02*
X3220548Y-18654935D01*
X3220548Y-18654935D02*
X3201501Y-18673983D01*
X3201501Y-18673983D02*
X3182453Y-18683507D01*
X3382453Y-18807316D02*
X3391977Y-18816840D01*
X3391977Y-18816840D02*
X3382453Y-18826364D01*
X3382453Y-18826364D02*
X3372929Y-18816840D01*
X3372929Y-18816840D02*
X3382453Y-18807316D01*
X3382453Y-18807316D02*
X3382453Y-18826364D01*
X3515786Y-18626364D02*
X3534834Y-18626364D01*
X3534834Y-18626364D02*
X3553882Y-18635888D01*
X3553882Y-18635888D02*
X3563405Y-18645411D01*
X3563405Y-18645411D02*
X3572929Y-18664459D01*
X3572929Y-18664459D02*
X3582453Y-18702554D01*
X3582453Y-18702554D02*
X3582453Y-18750173D01*
X3582453Y-18750173D02*
X3572929Y-18788269D01*
X3572929Y-18788269D02*
X3563405Y-18807316D01*
X3563405Y-18807316D02*
X3553882Y-18816840D01*
X3553882Y-18816840D02*
X3534834Y-18826364D01*
X3534834Y-18826364D02*
X3515786Y-18826364D01*
X3515786Y-18826364D02*
X3496739Y-18816840D01*
X3496739Y-18816840D02*
X3487215Y-18807316D01*
X3487215Y-18807316D02*
X3477691Y-18788269D01*
X3477691Y-18788269D02*
X3468167Y-18750173D01*
X3468167Y-18750173D02*
X3468167Y-18702554D01*
X3468167Y-18702554D02*
X3477691Y-18664459D01*
X3477691Y-18664459D02*
X3487215Y-18645411D01*
X3487215Y-18645411D02*
X3496739Y-18635888D01*
X3496739Y-18635888D02*
X3515786Y-18626364D01*
X3706262Y-18626364D02*
X3725310Y-18626364D01*
X3725310Y-18626364D02*
X3744358Y-18635888D01*
X3744358Y-18635888D02*
X3753882Y-18645411D01*
X3753882Y-18645411D02*
X3763405Y-18664459D01*
X3763405Y-18664459D02*
X3772929Y-18702554D01*
X3772929Y-18702554D02*
X3772929Y-18750173D01*
X3772929Y-18750173D02*
X3763405Y-18788269D01*
X3763405Y-18788269D02*
X3753882Y-18807316D01*
X3753882Y-18807316D02*
X3744358Y-18816840D01*
X3744358Y-18816840D02*
X3725310Y-18826364D01*
X3725310Y-18826364D02*
X3706262Y-18826364D01*
X3706262Y-18826364D02*
X3687215Y-18816840D01*
X3687215Y-18816840D02*
X3677691Y-18807316D01*
X3677691Y-18807316D02*
X3668167Y-18788269D01*
X3668167Y-18788269D02*
X3658643Y-18750173D01*
X3658643Y-18750173D02*
X3658643Y-18702554D01*
X3658643Y-18702554D02*
X3668167Y-18664459D01*
X3668167Y-18664459D02*
X3677691Y-18645411D01*
X3677691Y-18645411D02*
X3687215Y-18635888D01*
X3687215Y-18635888D02*
X3706262Y-18626364D01*
X3896739Y-18626364D02*
X3915786Y-18626364D01*
X3915786Y-18626364D02*
X3934834Y-18635888D01*
X3934834Y-18635888D02*
X3944358Y-18645411D01*
X3944358Y-18645411D02*
X3953882Y-18664459D01*
X3953882Y-18664459D02*
X3963405Y-18702554D01*
X3963405Y-18702554D02*
X3963405Y-18750173D01*
X3963405Y-18750173D02*
X3953882Y-18788269D01*
X3953882Y-18788269D02*
X3944358Y-18807316D01*
X3944358Y-18807316D02*
X3934834Y-18816840D01*
X3934834Y-18816840D02*
X3915786Y-18826364D01*
X3915786Y-18826364D02*
X3896739Y-18826364D01*
X3896739Y-18826364D02*
X3877691Y-18816840D01*
X3877691Y-18816840D02*
X3868167Y-18807316D01*
X3868167Y-18807316D02*
X3858643Y-18788269D01*
X3858643Y-18788269D02*
X3849120Y-18750173D01*
X3849120Y-18750173D02*
X3849120Y-18702554D01*
X3849120Y-18702554D02*
X3858643Y-18664459D01*
X3858643Y-18664459D02*
X3868167Y-18645411D01*
X3868167Y-18645411D02*
X3877691Y-18635888D01*
X3877691Y-18635888D02*
X3896739Y-18626364D01*
X4049120Y-18826364D02*
X4049120Y-18693030D01*
X4049120Y-18712078D02*
X4058643Y-18702554D01*
X4058643Y-18702554D02*
X4077691Y-18693030D01*
X4077691Y-18693030D02*
X4106263Y-18693030D01*
X4106263Y-18693030D02*
X4125310Y-18702554D01*
X4125310Y-18702554D02*
X4134834Y-18721602D01*
X4134834Y-18721602D02*
X4134834Y-18826364D01*
X4134834Y-18721602D02*
X4144358Y-18702554D01*
X4144358Y-18702554D02*
X4163405Y-18693030D01*
X4163405Y-18693030D02*
X4191977Y-18693030D01*
X4191977Y-18693030D02*
X4211025Y-18702554D01*
X4211025Y-18702554D02*
X4220548Y-18721602D01*
X4220548Y-18721602D02*
X4220548Y-18826364D01*
X4315786Y-18826364D02*
X4315786Y-18693030D01*
X4315786Y-18712078D02*
X4325310Y-18702554D01*
X4325310Y-18702554D02*
X4344358Y-18693030D01*
X4344358Y-18693030D02*
X4372929Y-18693030D01*
X4372929Y-18693030D02*
X4391977Y-18702554D01*
X4391977Y-18702554D02*
X4401501Y-18721602D01*
X4401501Y-18721602D02*
X4401501Y-18826364D01*
X4401501Y-18721602D02*
X4411025Y-18702554D01*
X4411025Y-18702554D02*
X4430072Y-18693030D01*
X4430072Y-18693030D02*
X4458644Y-18693030D01*
X4458644Y-18693030D02*
X4477691Y-18702554D01*
X4477691Y-18702554D02*
X4487215Y-18721602D01*
X4487215Y-18721602D02*
X4487215Y-18826364D01*
X4877691Y-18616840D02*
X4706263Y-18873983D01*
X5134834Y-18626364D02*
X5153882Y-18626364D01*
X5153882Y-18626364D02*
X5172929Y-18635888D01*
X5172929Y-18635888D02*
X5182453Y-18645411D01*
X5182453Y-18645411D02*
X5191977Y-18664459D01*
X5191977Y-18664459D02*
X5201501Y-18702554D01*
X5201501Y-18702554D02*
X5201501Y-18750173D01*
X5201501Y-18750173D02*
X5191977Y-18788269D01*
X5191977Y-18788269D02*
X5182453Y-18807316D01*
X5182453Y-18807316D02*
X5172929Y-18816840D01*
X5172929Y-18816840D02*
X5153882Y-18826364D01*
X5153882Y-18826364D02*
X5134834Y-18826364D01*
X5134834Y-18826364D02*
X5115787Y-18816840D01*
X5115787Y-18816840D02*
X5106263Y-18807316D01*
X5106263Y-18807316D02*
X5096739Y-18788269D01*
X5096739Y-18788269D02*
X5087215Y-18750173D01*
X5087215Y-18750173D02*
X5087215Y-18702554D01*
X5087215Y-18702554D02*
X5096739Y-18664459D01*
X5096739Y-18664459D02*
X5106263Y-18645411D01*
X5106263Y-18645411D02*
X5115787Y-18635888D01*
X5115787Y-18635888D02*
X5134834Y-18626364D01*
X5287215Y-18807316D02*
X5296739Y-18816840D01*
X5296739Y-18816840D02*
X5287215Y-18826364D01*
X5287215Y-18826364D02*
X5277691Y-18816840D01*
X5277691Y-18816840D02*
X5287215Y-18807316D01*
X5287215Y-18807316D02*
X5287215Y-18826364D01*
X5420548Y-18626364D02*
X5439596Y-18626364D01*
X5439596Y-18626364D02*
X5458644Y-18635888D01*
X5458644Y-18635888D02*
X5468168Y-18645411D01*
X5468168Y-18645411D02*
X5477691Y-18664459D01*
X5477691Y-18664459D02*
X5487215Y-18702554D01*
X5487215Y-18702554D02*
X5487215Y-18750173D01*
X5487215Y-18750173D02*
X5477691Y-18788269D01*
X5477691Y-18788269D02*
X5468168Y-18807316D01*
X5468168Y-18807316D02*
X5458644Y-18816840D01*
X5458644Y-18816840D02*
X5439596Y-18826364D01*
X5439596Y-18826364D02*
X5420548Y-18826364D01*
X5420548Y-18826364D02*
X5401501Y-18816840D01*
X5401501Y-18816840D02*
X5391977Y-18807316D01*
X5391977Y-18807316D02*
X5382453Y-18788269D01*
X5382453Y-18788269D02*
X5372929Y-18750173D01*
X5372929Y-18750173D02*
X5372929Y-18702554D01*
X5372929Y-18702554D02*
X5382453Y-18664459D01*
X5382453Y-18664459D02*
X5391977Y-18645411D01*
X5391977Y-18645411D02*
X5401501Y-18635888D01*
X5401501Y-18635888D02*
X5420548Y-18626364D01*
X5553882Y-18626364D02*
X5677691Y-18626364D01*
X5677691Y-18626364D02*
X5611025Y-18702554D01*
X5611025Y-18702554D02*
X5639596Y-18702554D01*
X5639596Y-18702554D02*
X5658644Y-18712078D01*
X5658644Y-18712078D02*
X5668167Y-18721602D01*
X5668167Y-18721602D02*
X5677691Y-18740650D01*
X5677691Y-18740650D02*
X5677691Y-18788269D01*
X5677691Y-18788269D02*
X5668167Y-18807316D01*
X5668167Y-18807316D02*
X5658644Y-18816840D01*
X5658644Y-18816840D02*
X5639596Y-18826364D01*
X5639596Y-18826364D02*
X5582453Y-18826364D01*
X5582453Y-18826364D02*
X5563406Y-18816840D01*
X5563406Y-18816840D02*
X5553882Y-18807316D01*
X5772929Y-18826364D02*
X5811025Y-18826364D01*
X5811025Y-18826364D02*
X5830072Y-18816840D01*
X5830072Y-18816840D02*
X5839596Y-18807316D01*
X5839596Y-18807316D02*
X5858644Y-18778745D01*
X5858644Y-18778745D02*
X5868167Y-18740650D01*
X5868167Y-18740650D02*
X5868167Y-18664459D01*
X5868167Y-18664459D02*
X5858644Y-18645411D01*
X5858644Y-18645411D02*
X5849120Y-18635888D01*
X5849120Y-18635888D02*
X5830072Y-18626364D01*
X5830072Y-18626364D02*
X5791977Y-18626364D01*
X5791977Y-18626364D02*
X5772929Y-18635888D01*
X5772929Y-18635888D02*
X5763406Y-18645411D01*
X5763406Y-18645411D02*
X5753882Y-18664459D01*
X5753882Y-18664459D02*
X5753882Y-18712078D01*
X5753882Y-18712078D02*
X5763406Y-18731126D01*
X5763406Y-18731126D02*
X5772929Y-18740650D01*
X5772929Y-18740650D02*
X5791977Y-18750173D01*
X5791977Y-18750173D02*
X5830072Y-18750173D01*
X5830072Y-18750173D02*
X5849120Y-18740650D01*
X5849120Y-18740650D02*
X5858644Y-18731126D01*
X5858644Y-18731126D02*
X5868167Y-18712078D01*
X6039596Y-18693030D02*
X6039596Y-18826364D01*
X5991977Y-18616840D02*
X5944358Y-18759697D01*
X5944358Y-18759697D02*
X6068167Y-18759697D01*
X6134834Y-18626364D02*
X6134834Y-18664459D01*
X6211025Y-18626364D02*
X6211025Y-18664459D01*
X6506263Y-18902554D02*
X6496739Y-18893030D01*
X6496739Y-18893030D02*
X6477691Y-18864459D01*
X6477691Y-18864459D02*
X6468168Y-18845411D01*
X6468168Y-18845411D02*
X6458644Y-18816840D01*
X6458644Y-18816840D02*
X6449120Y-18769221D01*
X6449120Y-18769221D02*
X6449120Y-18731126D01*
X6449120Y-18731126D02*
X6458644Y-18683507D01*
X6458644Y-18683507D02*
X6468168Y-18654935D01*
X6468168Y-18654935D02*
X6477691Y-18635888D01*
X6477691Y-18635888D02*
X6496739Y-18607316D01*
X6496739Y-18607316D02*
X6506263Y-18597792D01*
X6668168Y-18626364D02*
X6630072Y-18626364D01*
X6630072Y-18626364D02*
X6611025Y-18635888D01*
X6611025Y-18635888D02*
X6601501Y-18645411D01*
X6601501Y-18645411D02*
X6582453Y-18673983D01*
X6582453Y-18673983D02*
X6572929Y-18712078D01*
X6572929Y-18712078D02*
X6572929Y-18788269D01*
X6572929Y-18788269D02*
X6582453Y-18807316D01*
X6582453Y-18807316D02*
X6591977Y-18816840D01*
X6591977Y-18816840D02*
X6611025Y-18826364D01*
X6611025Y-18826364D02*
X6649120Y-18826364D01*
X6649120Y-18826364D02*
X6668168Y-18816840D01*
X6668168Y-18816840D02*
X6677691Y-18807316D01*
X6677691Y-18807316D02*
X6687215Y-18788269D01*
X6687215Y-18788269D02*
X6687215Y-18740650D01*
X6687215Y-18740650D02*
X6677691Y-18721602D01*
X6677691Y-18721602D02*
X6668168Y-18712078D01*
X6668168Y-18712078D02*
X6649120Y-18702554D01*
X6649120Y-18702554D02*
X6611025Y-18702554D01*
X6611025Y-18702554D02*
X6591977Y-18712078D01*
X6591977Y-18712078D02*
X6582453Y-18721602D01*
X6582453Y-18721602D02*
X6572929Y-18740650D01*
X6858644Y-18693030D02*
X6858644Y-18826364D01*
X6811025Y-18616840D02*
X6763406Y-18759697D01*
X6763406Y-18759697D02*
X6887215Y-18759697D01*
X7115787Y-18826364D02*
X7115787Y-18626364D01*
X7201501Y-18826364D02*
X7201501Y-18721602D01*
X7201501Y-18721602D02*
X7191977Y-18702554D01*
X7191977Y-18702554D02*
X7172930Y-18693030D01*
X7172930Y-18693030D02*
X7144358Y-18693030D01*
X7144358Y-18693030D02*
X7125310Y-18702554D01*
X7125310Y-18702554D02*
X7115787Y-18712078D01*
X7325310Y-18826364D02*
X7306263Y-18816840D01*
X7306263Y-18816840D02*
X7296739Y-18807316D01*
X7296739Y-18807316D02*
X7287215Y-18788269D01*
X7287215Y-18788269D02*
X7287215Y-18731126D01*
X7287215Y-18731126D02*
X7296739Y-18712078D01*
X7296739Y-18712078D02*
X7306263Y-18702554D01*
X7306263Y-18702554D02*
X7325310Y-18693030D01*
X7325310Y-18693030D02*
X7353882Y-18693030D01*
X7353882Y-18693030D02*
X7372930Y-18702554D01*
X7372930Y-18702554D02*
X7382453Y-18712078D01*
X7382453Y-18712078D02*
X7391977Y-18731126D01*
X7391977Y-18731126D02*
X7391977Y-18788269D01*
X7391977Y-18788269D02*
X7382453Y-18807316D01*
X7382453Y-18807316D02*
X7372930Y-18816840D01*
X7372930Y-18816840D02*
X7353882Y-18826364D01*
X7353882Y-18826364D02*
X7325310Y-18826364D01*
X7506263Y-18826364D02*
X7487215Y-18816840D01*
X7487215Y-18816840D02*
X7477691Y-18797792D01*
X7477691Y-18797792D02*
X7477691Y-18626364D01*
X7658644Y-18816840D02*
X7639596Y-18826364D01*
X7639596Y-18826364D02*
X7601501Y-18826364D01*
X7601501Y-18826364D02*
X7582453Y-18816840D01*
X7582453Y-18816840D02*
X7572930Y-18797792D01*
X7572930Y-18797792D02*
X7572930Y-18721602D01*
X7572930Y-18721602D02*
X7582453Y-18702554D01*
X7582453Y-18702554D02*
X7601501Y-18693030D01*
X7601501Y-18693030D02*
X7639596Y-18693030D01*
X7639596Y-18693030D02*
X7658644Y-18702554D01*
X7658644Y-18702554D02*
X7668168Y-18721602D01*
X7668168Y-18721602D02*
X7668168Y-18740650D01*
X7668168Y-18740650D02*
X7572930Y-18759697D01*
X7744358Y-18816840D02*
X7763406Y-18826364D01*
X7763406Y-18826364D02*
X7801501Y-18826364D01*
X7801501Y-18826364D02*
X7820549Y-18816840D01*
X7820549Y-18816840D02*
X7830072Y-18797792D01*
X7830072Y-18797792D02*
X7830072Y-18788269D01*
X7830072Y-18788269D02*
X7820549Y-18769221D01*
X7820549Y-18769221D02*
X7801501Y-18759697D01*
X7801501Y-18759697D02*
X7772930Y-18759697D01*
X7772930Y-18759697D02*
X7753882Y-18750173D01*
X7753882Y-18750173D02*
X7744358Y-18731126D01*
X7744358Y-18731126D02*
X7744358Y-18721602D01*
X7744358Y-18721602D02*
X7753882Y-18702554D01*
X7753882Y-18702554D02*
X7772930Y-18693030D01*
X7772930Y-18693030D02*
X7801501Y-18693030D01*
X7801501Y-18693030D02*
X7820549Y-18702554D01*
X7896739Y-18902554D02*
X7906263Y-18893030D01*
X7906263Y-18893030D02*
X7925311Y-18864459D01*
X7925311Y-18864459D02*
X7934834Y-18845411D01*
X7934834Y-18845411D02*
X7944358Y-18816840D01*
X7944358Y-18816840D02*
X7953882Y-18769221D01*
X7953882Y-18769221D02*
X7953882Y-18731126D01*
X7953882Y-18731126D02*
X7944358Y-18683507D01*
X7944358Y-18683507D02*
X7934834Y-18654935D01*
X7934834Y-18654935D02*
X7925311Y-18635888D01*
X7925311Y-18635888D02*
X7906263Y-18607316D01*
X7906263Y-18607316D02*
X7896739Y-18597792D01*
M02*
