G04 #@! TF.GenerationSoftware,KiCad,Pcbnew,8.0.5*
G04 #@! TF.CreationDate,2024-10-05T13:16:41+02:00*
G04 #@! TF.ProjectId,valiant-turtle-2,76616c69-616e-4742-9d74-7572746c652d,rev?*
G04 #@! TF.SameCoordinates,Original*
G04 #@! TF.FileFunction,Paste,Top*
G04 #@! TF.FilePolarity,Positive*
%FSLAX46Y46*%
G04 Gerber Fmt 4.6, Leading zero omitted, Abs format (unit mm)*
G04 Created by KiCad (PCBNEW 8.0.5) date 2024-10-05 13:16:41*
%MOMM*%
%LPD*%
G01*
G04 APERTURE LIST*
G04 Aperture macros list*
%AMRoundRect*
0 Rectangle with rounded corners*
0 $1 Rounding radius*
0 $2 $3 $4 $5 $6 $7 $8 $9 X,Y pos of 4 corners*
0 Add a 4 corners polygon primitive as box body*
4,1,4,$2,$3,$4,$5,$6,$7,$8,$9,$2,$3,0*
0 Add four circle primitives for the rounded corners*
1,1,$1+$1,$2,$3*
1,1,$1+$1,$4,$5*
1,1,$1+$1,$6,$7*
1,1,$1+$1,$8,$9*
0 Add four rect primitives between the rounded corners*
20,1,$1+$1,$2,$3,$4,$5,0*
20,1,$1+$1,$4,$5,$6,$7,0*
20,1,$1+$1,$6,$7,$8,$9,0*
20,1,$1+$1,$8,$9,$2,$3,0*%
G04 Aperture macros list end*
%ADD10C,0.150000*%
%ADD11RoundRect,0.250000X-0.350000X-0.450000X0.350000X-0.450000X0.350000X0.450000X-0.350000X0.450000X0*%
%ADD12R,1.500000X0.900000*%
%ADD13RoundRect,1.187500X5.812500X1.187500X-5.812500X1.187500X-5.812500X-1.187500X5.812500X-1.187500X0*%
%ADD14R,14.000000X2.000000*%
%ADD15RoundRect,0.250000X-0.337500X-0.475000X0.337500X-0.475000X0.337500X0.475000X-0.337500X0.475000X0*%
%ADD16RoundRect,0.250001X0.924999X-0.499999X0.924999X0.499999X-0.924999X0.499999X-0.924999X-0.499999X0*%
%ADD17RoundRect,0.150000X0.150000X0.625000X-0.150000X0.625000X-0.150000X-0.625000X0.150000X-0.625000X0*%
%ADD18RoundRect,0.250000X0.350000X0.650000X-0.350000X0.650000X-0.350000X-0.650000X0.350000X-0.650000X0*%
%ADD19RoundRect,0.250000X1.000000X-1.950000X1.000000X1.950000X-1.000000X1.950000X-1.000000X-1.950000X0*%
%ADD20RoundRect,0.250000X0.300000X-2.050000X0.300000X2.050000X-0.300000X2.050000X-0.300000X-2.050000X0*%
%ADD21RoundRect,0.250000X2.375000X-2.025000X2.375000X2.025000X-2.375000X2.025000X-2.375000X-2.025000X0*%
%ADD22RoundRect,0.250000X0.350000X0.450000X-0.350000X0.450000X-0.350000X-0.450000X0.350000X-0.450000X0*%
%ADD23RoundRect,0.250000X1.750000X1.000000X-1.750000X1.000000X-1.750000X-1.000000X1.750000X-1.000000X0*%
%ADD24RoundRect,0.375000X-0.375000X0.625000X-0.375000X-0.625000X0.375000X-0.625000X0.375000X0.625000X0*%
%ADD25RoundRect,0.500000X-1.400000X0.500000X-1.400000X-0.500000X1.400000X-0.500000X1.400000X0.500000X0*%
%ADD26RoundRect,0.250000X1.000000X-1.750000X1.000000X1.750000X-1.000000X1.750000X-1.000000X-1.750000X0*%
%ADD27RoundRect,0.150000X-0.150000X0.825000X-0.150000X-0.825000X0.150000X-0.825000X0.150000X0.825000X0*%
%ADD28RoundRect,0.250000X0.337500X0.475000X-0.337500X0.475000X-0.337500X-0.475000X0.337500X-0.475000X0*%
%ADD29RoundRect,0.150000X0.150000X-0.512500X0.150000X0.512500X-0.150000X0.512500X-0.150000X-0.512500X0*%
%ADD30RoundRect,0.100000X-0.637500X-0.100000X0.637500X-0.100000X0.637500X0.100000X-0.637500X0.100000X0*%
%ADD31RoundRect,0.250000X0.475000X-0.337500X0.475000X0.337500X-0.475000X0.337500X-0.475000X-0.337500X0*%
%ADD32RoundRect,0.250000X2.000000X-1.400000X2.000000X1.400000X-2.000000X1.400000X-2.000000X-1.400000X0*%
%ADD33RoundRect,0.250000X-0.325000X-0.450000X0.325000X-0.450000X0.325000X0.450000X-0.325000X0.450000X0*%
G04 APERTURE END LIST*
D10*
X129075000Y-52875000D02*
G75*
G02*
X121075000Y-52875000I-4000000J0D01*
G01*
X121075000Y-52875000D02*
G75*
G02*
X129075000Y-52875000I4000000J0D01*
G01*
D11*
X138000000Y-75750000D03*
X140000000Y-75750000D03*
D12*
X159012500Y-131850000D03*
X159012500Y-135150000D03*
X163912500Y-135150000D03*
X163912500Y-131850000D03*
D13*
X85250000Y-83125000D03*
D14*
X85250000Y-81750000D03*
X85250000Y-74750000D03*
D13*
X85250000Y-73375000D03*
D15*
X117462500Y-56500000D03*
X119537500Y-56500000D03*
D11*
X138000000Y-83500000D03*
X140000000Y-83500000D03*
D16*
X95250000Y-92250000D03*
X95250000Y-89000000D03*
D17*
X118000000Y-53875000D03*
X117000000Y-53875000D03*
X116000000Y-53875000D03*
X115000000Y-53875000D03*
D18*
X119300000Y-50000000D03*
X113700000Y-50000000D03*
D15*
X90962500Y-69500000D03*
X93037500Y-69500000D03*
D19*
X112500000Y-69000000D03*
X112500000Y-60600000D03*
D15*
X101425000Y-86125000D03*
X103500000Y-86125000D03*
D20*
X96450000Y-72000000D03*
X98150000Y-72000000D03*
X99850000Y-72000000D03*
D21*
X97075000Y-65275000D03*
X102625000Y-65275000D03*
X97075000Y-60425000D03*
X102625000Y-60425000D03*
D20*
X101550000Y-72000000D03*
X103250000Y-72000000D03*
D12*
X122712500Y-60200000D03*
X122712500Y-63500000D03*
X127612500Y-63500000D03*
X127612500Y-60200000D03*
D22*
X128750000Y-93750000D03*
X126750000Y-93750000D03*
D23*
X174050000Y-133250000D03*
X167950000Y-133250000D03*
D24*
X103550000Y-89225000D03*
X101250000Y-89225000D03*
D25*
X101250000Y-95525000D03*
D24*
X98950000Y-89225000D03*
D22*
X140000000Y-78250000D03*
X138000000Y-78250000D03*
D26*
X87000000Y-65550000D03*
X87000000Y-59450000D03*
D23*
X82300000Y-132750000D03*
X76200000Y-132750000D03*
D27*
X131370000Y-86050000D03*
X130100000Y-86050000D03*
X128830000Y-86050000D03*
X127560000Y-86050000D03*
X126290000Y-86050000D03*
X125020000Y-86050000D03*
X123750000Y-86050000D03*
X123750000Y-91000000D03*
X125020000Y-91000000D03*
X126290000Y-91000000D03*
X127560000Y-91000000D03*
X128830000Y-91000000D03*
X130100000Y-91000000D03*
X131370000Y-91000000D03*
D23*
X178550000Y-95000000D03*
X172450000Y-95000000D03*
D28*
X139750000Y-64500000D03*
X137675000Y-64500000D03*
D15*
X124175000Y-66250000D03*
X126250000Y-66250000D03*
X134462500Y-56500000D03*
X136537500Y-56500000D03*
X87712500Y-129000000D03*
X89787500Y-129000000D03*
D11*
X138000000Y-86000000D03*
X140000000Y-86000000D03*
D12*
X86312500Y-131450000D03*
X86312500Y-134750000D03*
X91212500Y-134750000D03*
X91212500Y-131450000D03*
D29*
X137800000Y-69055000D03*
X138750000Y-69055000D03*
X139700000Y-69055000D03*
X139700000Y-66780000D03*
X137800000Y-66780000D03*
D30*
X110275000Y-77450000D03*
X110275000Y-78100000D03*
X110275000Y-78750000D03*
X110275000Y-79400000D03*
X110275000Y-80050000D03*
X110275000Y-80700000D03*
X110275000Y-81350000D03*
X110275000Y-82000000D03*
X116000000Y-82000000D03*
X116000000Y-81350000D03*
X116000000Y-80700000D03*
X116000000Y-80050000D03*
X116000000Y-79400000D03*
X116000000Y-78750000D03*
X116000000Y-78100000D03*
X116000000Y-77450000D03*
D11*
X102500000Y-52750000D03*
X104500000Y-52750000D03*
D31*
X133750000Y-89587500D03*
X133750000Y-87512500D03*
D28*
X109325000Y-73250000D03*
X107250000Y-73250000D03*
D15*
X160425000Y-129500000D03*
X162500000Y-129500000D03*
D16*
X107250000Y-92250000D03*
X107250000Y-89000000D03*
D17*
X135000000Y-53875000D03*
X134000000Y-53875000D03*
X133000000Y-53875000D03*
X132000000Y-53875000D03*
D18*
X136300000Y-50000000D03*
X130700000Y-50000000D03*
D32*
X96700000Y-80000000D03*
X105500000Y-80000000D03*
D28*
X114287500Y-84000000D03*
X112212500Y-84000000D03*
D33*
X102475000Y-50000000D03*
X104525000Y-50000000D03*
M02*
