<?xml version="1.0" standalone="no"?>
<!DOCTYPE svg PUBLIC "-//W3C//DTD SVG 1.1//EN" "http://www.w3.org/Graphics/SVG/1.1/DTD/svg11.dtd">
<svg width="34mm" height="32mm" viewBox="-20 -16 34 32" xmlns="http://www.w3.org/2000/svg" version="1.1">
<title>OpenSCAD Model</title>
<path d="
M -8.87059,15.483 L -8.75,15.433 L -8.64644,15.3535 L -5.40059,11.3586 L -4.01721,12.3637 L -0.404846,12.3637
 L 0.517029,15.1294 L 0.566986,15.25 L 0.646439,15.3535 L 0.75,15.433 L 0.87059,15.483 L 1,15.5
 L 13,15.5 L 13.1294,15.483 L 13.25,15.433 L 13.3535,15.3535 L 13.433,15.25 L 13.483,15.1294
 L 13.5,15 L 14,11 L 13.983,10.8706 L 13.933,10.75 L 13.8535,10.6464 L 10.5984,7.3913
 L 13,-0 L 10.5984,-7.3913 L 13.8535,-10.6464 L 13.933,-10.75 L 13.983,-10.8706 L 14,-11
 L 13.5,-15 L 13.483,-15.1294 L 13.433,-15.25 L 13.3535,-15.3535 L 13.25,-15.433 L 13.1294,-15.483
 L 13,-15.5 L 1,-15.5 L 0.87059,-15.483 L 0.75,-15.433 L 0.646439,-15.3535 L 0.566986,-15.25
 L 0.517029,-15.1294 L -0.404846,-12.3637 L -4.01721,-12.3637 L -5.40059,-11.3586 L -8.64644,-15.3535 L -8.75,-15.433
 L -8.87059,-15.483 L -9,-15.5 L -13,-15.5 L -13.1294,-15.483 L -13.25,-15.433 L -13.3535,-15.3535
 L -13.433,-15.25 L -13.483,-15.1294 L -14.483,-9.12939 L -14.5,-9 L -14.483,-8.87059 L -14.433,-8.75
 L -14.3535,-8.64644 L -11.1035,-5.89644 L -11.088,-5.88451 L -11.8628,-3.5 L -16,-3.5 L -16.1294,-3.48296
 L -16.25,-3.433 L -16.3535,-3.35355 L -19.3535,-0.353546 L -19.433,-0.25 L -19.483,-0.129395 L -19.5,-0
 L -19.483,0.129395 L -19.433,0.25 L -19.3535,0.353546 L -16.3535,3.35355 L -16.25,3.433 L -16.1294,3.48296
 L -16,3.5 L -11.8628,3.5 L -11.088,5.88451 L -11.1035,5.89644 L -14.3535,8.64644 L -14.433,8.75
 L -14.483,8.87059 L -14.5,9 L -14.483,9.12939 L -13.483,15.1294 L -13.433,15.25 L -13.3535,15.3535
 L -13.25,15.433 L -13.1294,15.483 L -13,15.5 L -9,15.5 z
M 4.01721,-12.3637 L 0.647339,-12.3637 L 1.35942,-14.5 L 12.5625,-14.5 L 12.977,-11.1841 L 9.88988,-8.09698
 z
M -13.4625,-9.19789 L -12.5788,-14.5 L -9.23456,-14.5 L -6.20648,-10.7731 L -10.5172,-7.6412 L -10.7556,-6.90747
 z
M -9.28287,-7.36243 L -3.70819,-11.4127 L 3.18246,-11.4127 L 1.88434,-7.41747 L -5.88434,-4.89326 z
M 7.63672,-0.5 L 2.8354,-7.10844 L 4.13351,-11.1037 L 9.70819,-7.05342 L 11.8375,-0.5 z
M -5.66312,4.11449 L -5.66312,-4.11449 L 2.16312,-6.65739 L 7,-0 L 2.16312,6.65739 z
M 3,1.5 L 2,1.5 L 2,-1.5 L 3,-1.5 L 3,-2.5 L -3,-2.5
 L -3,-1.5 L -2,-1.5 L -2,1.5 L -3,1.5 L -3,2.5 L 3,2.5
 z
M -1,1.5 L -1,-1.5 L 1,-1.5 L 1,1.5 z
M -12,-0 L -9.87065,-6.55342 L -6.47212,-4.08424 L -6.47212,4.08424 L -9.87065,6.55342 z
M -15.7929,2.5 L -18.2929,-0 L -15.7929,-2.5 L -12.1877,-2.5 L -13,-0 L -12.1877,2.5
 z
M 2.8354,7.10844 L 7.63672,0.5 L 11.8375,0.5 L 9.70819,7.05342 L 4.13351,11.1037 z
M -3.70819,11.4127 L -9.28287,7.36243 L -5.88434,4.89326 L 1.88434,7.41747 L 3.18246,11.4127 z
M -12.5788,14.5 L -13.4625,9.19789 L -10.7556,6.90747 L -10.5172,7.6412 L -6.20648,10.7731 L -9.23456,14.5
 z
M 1.35942,14.5 L 0.647339,12.3637 L 4.01721,12.3637 L 9.88988,8.09698 L 12.977,11.1841 L 12.5625,14.5
 z
" stroke="black" fill="lightgray" stroke-width="0.5"/>
</svg>
