G04 #@! TF.GenerationSoftware,KiCad,Pcbnew,7.0.10-7.0.10~ubuntu23.10.1*
G04 #@! TF.CreationDate,2024-01-06T16:48:24+01:00*
G04 #@! TF.ProjectId,valiant-turtle-2,76616c69-616e-4742-9d74-7572746c652d,rev?*
G04 #@! TF.SameCoordinates,Original*
G04 #@! TF.FileFunction,Profile,NP*
%FSLAX46Y46*%
G04 Gerber Fmt 4.6, Leading zero omitted, Abs format (unit mm)*
G04 Created by KiCad (PCBNEW 7.0.10-7.0.10~ubuntu23.10.1) date 2024-01-06 16:48:24*
%MOMM*%
%LPD*%
G01*
G04 APERTURE LIST*
G04 #@! TA.AperFunction,Profile*
%ADD10C,0.200000*%
G04 #@! TD*
G04 APERTURE END LIST*
D10*
X95546471Y-64302600D02*
X96425529Y-64302600D01*
X98966450Y-77622600D02*
X98149120Y-77946200D01*
X100447960Y-76682400D02*
X99736780Y-77199100D01*
X89205920Y-69548000D02*
X89477580Y-68711900D01*
X89041210Y-70411500D02*
X89205920Y-69548000D01*
X94674340Y-64412800D02*
X95546471Y-64302600D01*
X92235220Y-77199100D02*
X91524040Y-76682400D01*
X93822880Y-64631400D02*
X94674340Y-64412800D01*
X98149120Y-64631400D02*
X98966450Y-64955000D01*
X99736780Y-65378500D02*
X100447960Y-65895200D01*
X102930790Y-70411500D02*
X102986000Y-71288800D01*
X102120140Y-74661100D02*
X101649120Y-75403300D01*
X89851860Y-74661100D02*
X89477580Y-73865700D01*
X93005550Y-77622600D02*
X92235220Y-77199100D01*
X93005550Y-64955000D02*
X93822880Y-64631400D01*
X102494420Y-73865700D02*
X102120140Y-74661100D01*
X101649120Y-67174300D02*
X102120140Y-67916500D01*
X98966450Y-64955000D02*
X99736780Y-65378500D01*
X96425529Y-78275000D02*
X95546471Y-78275000D01*
X102494420Y-68711900D02*
X102766080Y-69548000D01*
X89477580Y-73865700D02*
X89205920Y-73029600D01*
X100447960Y-65895200D02*
X101088770Y-66497000D01*
X97297660Y-78164800D02*
X96425529Y-78275000D01*
X89851860Y-67916500D02*
X90322880Y-67174300D01*
X101088770Y-76080600D02*
X100447960Y-76682400D01*
X98149120Y-77946200D02*
X97297660Y-78164800D01*
X91524040Y-65895200D02*
X92235220Y-65378500D01*
X89477580Y-68711900D02*
X89851860Y-67916500D01*
X162560000Y-121920000D02*
X137131000Y-43657600D01*
X92235220Y-65378500D02*
X93005550Y-64955000D01*
X90322880Y-75403300D02*
X89851860Y-74661100D01*
X29412000Y-121920000D02*
X95986000Y-170288800D01*
X88986000Y-71288800D02*
X89041210Y-70411500D01*
X102766080Y-73029600D02*
X102494420Y-73865700D01*
X90322880Y-67174300D02*
X90883230Y-66497000D01*
X101649120Y-75403300D02*
X101088770Y-76080600D01*
X91524040Y-76682400D02*
X90883230Y-76080600D01*
X137131000Y-43657600D02*
X54841000Y-43657600D01*
X99736780Y-77199100D02*
X98966450Y-77622600D01*
X102120140Y-67916500D02*
X102494420Y-68711900D01*
X54841000Y-43657600D02*
X29412000Y-121920000D01*
X93822880Y-77946200D02*
X93005550Y-77622600D01*
X89205920Y-73029600D02*
X89041210Y-72166100D01*
X95546471Y-78275000D02*
X94674340Y-78164800D01*
X101088770Y-66497000D02*
X101649120Y-67174300D01*
X94674340Y-78164800D02*
X93822880Y-77946200D01*
X102930790Y-72166100D02*
X102766080Y-73029600D01*
X90883230Y-76080600D02*
X90322880Y-75403300D01*
X102986000Y-71288800D02*
X102930790Y-72166100D01*
X95986000Y-170288800D02*
X162560000Y-121920000D01*
X102766080Y-69548000D02*
X102930790Y-70411500D01*
X96425529Y-64302600D02*
X97297660Y-64412800D01*
X89041210Y-72166100D02*
X88986000Y-71288800D01*
X97297660Y-64412800D02*
X98149120Y-64631400D01*
X90883230Y-66497000D02*
X91524040Y-65895200D01*
M02*
