M48
; DRILL file {KiCad 7.0.10-7.0.10~ubuntu23.10.1} date Sat 06 Jan 2024 16:48:32 CET
; FORMAT={-:-/ absolute / metric / decimal}
; #@! TF.CreationDate,2024-01-06T16:48:32+01:00
; #@! TF.GenerationSoftware,Kicad,Pcbnew,7.0.10-7.0.10~ubuntu23.10.1
; #@! TF.FileFunction,Plated,1,2,PTH
FMAT,2
METRIC
; #@! TA.AperFunction,Plated,PTH,ViaDrill
T1C0.400
; #@! TA.AperFunction,Plated,PTH,ViaDrill
T2C0.600
; #@! TA.AperFunction,Plated,PTH,ComponentDrill
T3C0.800
; #@! TA.AperFunction,Plated,PTH,ComponentDrill
T4C0.950
; #@! TA.AperFunction,Plated,PTH,ComponentDrill
T5C1.000
%
G90
G05
T1
X52.578Y-131.064
X58.166Y-130.81
X61.976Y-133.35
X77.216Y-108.712
X91.44Y-61.468
X91.948Y-50.8
X101.6Y-64.262
X104.394Y-87.376
X108.712Y-89.408
X109.22Y-76.2
X109.22Y-80.772
X133.858Y-84.582
X133.858Y-90.678
X135.636Y-106.172
X136.906Y-52.324
T2
X49.022Y-91.186
X50.8Y-105.156
X52.996Y-80.772
X53.594Y-87.714
X54.796Y-85.344
X56.388Y-105.156
X65.024Y-123.698
X65.024Y-128.778
X67.056Y-64.516
X68.834Y-90.17
X69.342Y-119.38
X70.104Y-90.424
X71.374Y-64.516
X71.374Y-104.862
X71.628Y-74.168
X71.628Y-90.678
X73.914Y-129.032
X76.708Y-62.738
X76.708Y-129.857
X77.216Y-83.566
X78.486Y-75.184
X78.486Y-77.978
X78.74Y-69.342
X83.82Y-75.692
X84.836Y-83.566
X87.376Y-59.944
X87.376Y-66.548
X88.646Y-67.31
X91.186Y-55.626
X92.035Y-54.777
X94.996Y-56.134
X98.044Y-89.408
X99.314Y-62.23
X101.092Y-89.408
X103.684Y-76.656
X104.648Y-121.184
X104.648Y-123.528
X105.848Y-123.538
X105.918Y-121.184
X107.442Y-83.312
X117.348Y-76.835
X117.856Y-107.188
X122.428Y-119.38
X122.428Y-121.412
X123.698Y-119.38
X123.698Y-121.412
X125.972Y-98.032
T3
X49.022Y-102.362
X49.022Y-115.062
X51.562Y-102.362
X51.562Y-115.062
X54.102Y-102.362
X54.102Y-115.062
X56.642Y-102.362
X56.642Y-115.062
X59.182Y-102.362
X59.182Y-115.062
X61.722Y-102.362
X61.722Y-115.062
X64.262Y-102.362
X64.262Y-115.062
X66.802Y-102.362
X66.802Y-115.062
X126.746Y-102.362
X126.746Y-115.062
X129.286Y-102.362
X129.286Y-115.062
X131.826Y-102.362
X131.826Y-115.062
X134.366Y-102.362
X134.366Y-115.062
X136.906Y-102.362
X136.906Y-115.062
X139.446Y-102.362
X139.446Y-115.062
X141.986Y-102.362
X141.986Y-115.062
X144.526Y-102.362
X144.526Y-115.062
T4
X37.338Y-108.966
X38.111Y-106.588
X38.883Y-104.211
X39.656Y-101.833
X47.752Y-76.2
X48.525Y-73.822
X49.25Y-132.16
X49.297Y-71.445
X51.272Y-133.63
X53.295Y-135.099
X55.317Y-136.569
X57.34Y-138.038
X59.362Y-139.508
X61.385Y-140.977
X152.4Y-101.6
X153.173Y-103.978
X153.945Y-106.355
X154.718Y-108.733
T5
X44.947Y-85.436
X45.72Y-83.058
X78.486Y-85.852
X81.026Y-85.852
X83.566Y-85.852
X92.075Y-118.11
X94.615Y-118.11
X97.155Y-118.11
X99.695Y-118.11
X107.188Y-46.228
X107.188Y-48.768
X107.188Y-51.308
X107.188Y-67.818
X107.188Y-91.948
X107.188Y-94.488
X112.776Y-46.355
X112.776Y-48.895
X112.776Y-51.435
X112.776Y-53.975
X112.776Y-56.515
X112.776Y-59.055
X112.776Y-61.595
X112.776Y-64.135
X112.776Y-66.675
X112.776Y-69.215
X112.776Y-71.755
X112.776Y-74.295
X112.776Y-76.835
X112.776Y-79.375
X112.776Y-81.915
X112.776Y-84.455
X112.776Y-86.995
X112.776Y-89.535
X112.776Y-92.075
X112.776Y-94.615
X130.556Y-46.355
X130.556Y-48.895
X130.556Y-51.435
X130.556Y-53.975
X130.556Y-56.515
X130.556Y-59.055
X130.556Y-61.595
X130.556Y-64.135
X130.556Y-66.675
X130.556Y-69.215
X130.556Y-71.755
X130.556Y-74.295
X130.556Y-76.835
X130.556Y-79.375
X130.556Y-81.915
X130.556Y-84.455
X130.556Y-86.995
X130.556Y-89.535
X130.556Y-92.075
X130.556Y-94.615
X135.89Y-66.802
X136.144Y-84.074
X136.144Y-86.614
X136.144Y-89.154
X136.144Y-91.694
X136.144Y-94.234
X139.954Y-61.722
X139.954Y-64.262
X139.954Y-66.802
M30
