G04 #@! TF.GenerationSoftware,KiCad,Pcbnew,7.0.10-7.0.10~ubuntu23.10.1*
G04 #@! TF.CreationDate,2024-01-06T16:48:24+01:00*
G04 #@! TF.ProjectId,valiant-turtle-2,76616c69-616e-4742-9d74-7572746c652d,rev?*
G04 #@! TF.SameCoordinates,Original*
G04 #@! TF.FileFunction,Soldermask,Bot*
G04 #@! TF.FilePolarity,Negative*
%FSLAX46Y46*%
G04 Gerber Fmt 4.6, Leading zero omitted, Abs format (unit mm)*
G04 Created by KiCad (PCBNEW 7.0.10-7.0.10~ubuntu23.10.1) date 2024-01-06 16:48:24*
%MOMM*%
%LPD*%
G01*
G04 APERTURE LIST*
G04 Aperture macros list*
%AMRoundRect*
0 Rectangle with rounded corners*
0 $1 Rounding radius*
0 $2 $3 $4 $5 $6 $7 $8 $9 X,Y pos of 4 corners*
0 Add a 4 corners polygon primitive as box body*
4,1,4,$2,$3,$4,$5,$6,$7,$8,$9,$2,$3,0*
0 Add four circle primitives for the rounded corners*
1,1,$1+$1,$2,$3*
1,1,$1+$1,$4,$5*
1,1,$1+$1,$6,$7*
1,1,$1+$1,$8,$9*
0 Add four rect primitives between the rounded corners*
20,1,$1+$1,$2,$3,$4,$5,0*
20,1,$1+$1,$4,$5,$6,$7,0*
20,1,$1+$1,$6,$7,$8,$9,0*
20,1,$1+$1,$8,$9,$2,$3,0*%
%AMHorizOval*
0 Thick line with rounded ends*
0 $1 width*
0 $2 $3 position (X,Y) of the first rounded end (center of the circle)*
0 $4 $5 position (X,Y) of the second rounded end (center of the circle)*
0 Add line between two ends*
20,1,$1,$2,$3,$4,$5,0*
0 Add two circle primitives to create the rounded ends*
1,1,$1,$2,$3*
1,1,$1,$4,$5*%
%AMFreePoly0*
4,1,28,0.605014,0.794986,0.644504,0.794986,0.724698,0.756366,0.780194,0.686777,0.800000,0.600000,0.800000,-0.600000,0.780194,-0.686777,0.724698,-0.756366,0.644504,-0.794986,0.605014,-0.794986,0.600000,-0.800000,0.000000,-0.800000,-0.178017,-0.779942,-0.347107,-0.720775,-0.498792,-0.625465,-0.625465,-0.498792,-0.720775,-0.347107,-0.779942,-0.178017,-0.800000,0.000000,-0.779942,0.178017,
-0.720775,0.347107,-0.625465,0.498792,-0.498792,0.625465,-0.347107,0.720775,-0.178017,0.779942,0.000000,0.800000,0.600000,0.800000,0.605014,0.794986,0.605014,0.794986,$1*%
%AMFreePoly1*
4,1,28,0.178017,0.779942,0.347107,0.720775,0.498792,0.625465,0.625465,0.498792,0.720775,0.347107,0.779942,0.178017,0.800000,0.000000,0.779942,-0.178017,0.720775,-0.347107,0.625465,-0.498792,0.498792,-0.625465,0.347107,-0.720775,0.178017,-0.779942,0.000000,-0.800000,-0.600000,-0.800000,-0.605014,-0.794986,-0.644504,-0.794986,-0.724698,-0.756366,-0.780194,-0.686777,-0.800000,-0.600000,
-0.800000,0.600000,-0.780194,0.686777,-0.724698,0.756366,-0.644504,0.794986,-0.605014,0.794986,-0.600000,0.800000,0.000000,0.800000,0.178017,0.779942,0.178017,0.779942,$1*%
G04 Aperture macros list end*
%ADD10RoundRect,0.250000X0.527882X-0.802397X0.898703X0.338871X-0.527882X0.802397X-0.898703X-0.338871X0*%
%ADD11HorizOval,1.700000X-0.142658X0.046353X0.142658X-0.046353X0*%
%ADD12R,1.700000X1.700000*%
%ADD13O,1.700000X1.700000*%
%ADD14C,2.700000*%
%ADD15R,1.600000X1.600000*%
%ADD16O,1.600000X1.600000*%
%ADD17C,3.200000*%
%ADD18RoundRect,0.250000X0.911555X0.233866X-0.059266X0.939208X-0.911555X-0.233866X0.059266X-0.939208X0*%
%ADD19HorizOval,1.700000X0.073473X0.101127X-0.073473X-0.101127X0*%
%ADD20RoundRect,0.250000X0.504106X-0.794671X0.874926X0.346597X-0.504106X0.794671X-0.874926X-0.346597X0*%
%ADD21HorizOval,1.700000X-0.118882X0.038627X0.118882X-0.038627X0*%
%ADD22RoundRect,0.250000X-0.874926X0.346597X-0.504106X-0.794671X0.874926X-0.346597X0.504106X0.794671X0*%
%ADD23HorizOval,1.700000X-0.118882X-0.038627X0.118882X0.038627X0*%
%ADD24C,2.200000*%
%ADD25C,1.850000*%
%ADD26RoundRect,0.200000X-0.600000X-0.600000X0.600000X-0.600000X0.600000X0.600000X-0.600000X0.600000X0*%
%ADD27C,1.600000*%
%ADD28FreePoly0,0.000000*%
%ADD29FreePoly1,0.000000*%
G04 APERTURE END LIST*
D10*
X44947458Y-85435641D03*
D11*
X45720000Y-83058000D03*
D12*
X139954000Y-61722000D03*
D13*
X139954000Y-64262000D03*
X139954000Y-66802000D03*
D14*
X111125000Y-153416000D03*
D15*
X126746000Y-115062000D03*
D16*
X129286000Y-115062000D03*
X131826000Y-115062000D03*
X134366000Y-115062000D03*
X136906000Y-115062000D03*
X139446000Y-115062000D03*
X141986000Y-115062000D03*
X144526000Y-115062000D03*
X144526000Y-102362000D03*
X141986000Y-102362000D03*
X139446000Y-102362000D03*
X136906000Y-102362000D03*
X134366000Y-102362000D03*
X131826000Y-102362000D03*
X129286000Y-102362000D03*
X126746000Y-102362000D03*
D17*
X95981600Y-48312000D03*
D12*
X135890000Y-66802000D03*
X78486000Y-85852000D03*
D13*
X81026000Y-85852000D03*
X83566000Y-85852000D03*
D18*
X61385040Y-140977123D03*
D19*
X59362498Y-139507660D03*
X57339955Y-138038197D03*
X55317413Y-136568734D03*
X53294870Y-135099270D03*
X51272328Y-133629807D03*
X49249785Y-132160344D03*
D12*
X92075000Y-118110000D03*
D13*
X94615000Y-118110000D03*
X97155000Y-118110000D03*
X99695000Y-118110000D03*
D20*
X47752000Y-76200000D03*
D21*
X48524542Y-73822359D03*
X49297085Y-71444717D03*
D22*
X152400000Y-101600000D03*
D23*
X153172542Y-103977641D03*
X153945085Y-106355283D03*
X154717627Y-108732924D03*
D12*
X136144000Y-94234000D03*
D13*
X136144000Y-91694000D03*
X136144000Y-89154000D03*
X136144000Y-86614000D03*
X136144000Y-84074000D03*
D24*
X118941000Y-46485000D03*
D25*
X119241000Y-49515000D03*
X124091000Y-49515000D03*
D24*
X124391000Y-46485000D03*
D26*
X112776000Y-46355000D03*
D27*
X112776000Y-48895000D03*
D28*
X112776000Y-51435000D03*
D27*
X112776000Y-53975000D03*
X112776000Y-56515000D03*
X112776000Y-59055000D03*
X112776000Y-61595000D03*
D28*
X112776000Y-64135000D03*
D27*
X112776000Y-66675000D03*
X112776000Y-69215000D03*
X112776000Y-71755000D03*
X112776000Y-74295000D03*
D28*
X112776000Y-76835000D03*
D27*
X112776000Y-79375000D03*
X112776000Y-81915000D03*
X112776000Y-84455000D03*
X112776000Y-86995000D03*
D28*
X112776000Y-89535000D03*
D27*
X112776000Y-92075000D03*
X112776000Y-94615000D03*
X130556000Y-94615000D03*
X130556000Y-92075000D03*
D29*
X130556000Y-89535000D03*
D27*
X130556000Y-86995000D03*
X130556000Y-84455000D03*
X130556000Y-81915000D03*
X130556000Y-79375000D03*
D29*
X130556000Y-76835000D03*
D27*
X130556000Y-74295000D03*
X130556000Y-71755000D03*
X130556000Y-69215000D03*
X130556000Y-66675000D03*
D29*
X130556000Y-64135000D03*
D27*
X130556000Y-61595000D03*
X130556000Y-59055000D03*
X130556000Y-56515000D03*
X130556000Y-53975000D03*
D29*
X130556000Y-51435000D03*
D27*
X130556000Y-48895000D03*
X130556000Y-46355000D03*
D14*
X80645000Y-153416000D03*
D12*
X107188000Y-46228000D03*
D13*
X107188000Y-48768000D03*
X107188000Y-51308000D03*
D14*
X111125000Y-114554000D03*
D12*
X107188000Y-67818000D03*
D17*
X35981600Y-120312000D03*
D15*
X49022000Y-115062000D03*
D16*
X51562000Y-115062000D03*
X54102000Y-115062000D03*
X56642000Y-115062000D03*
X59182000Y-115062000D03*
X61722000Y-115062000D03*
X64262000Y-115062000D03*
X66802000Y-115062000D03*
X66802000Y-102362000D03*
X64262000Y-102362000D03*
X61722000Y-102362000D03*
X59182000Y-102362000D03*
X56642000Y-102362000D03*
X54102000Y-102362000D03*
X51562000Y-102362000D03*
X49022000Y-102362000D03*
D14*
X80645000Y-114554000D03*
D20*
X37338000Y-108966000D03*
D21*
X38110542Y-106588359D03*
X38883085Y-104210717D03*
X39655627Y-101833076D03*
D12*
X107188000Y-94488000D03*
D13*
X107188000Y-91948000D03*
D17*
X155981600Y-120312000D03*
M02*
