G04 #@! TF.GenerationSoftware,KiCad,Pcbnew,8.0.5*
G04 #@! TF.CreationDate,2024-10-05T13:15:26+02:00*
G04 #@! TF.ProjectId,auxboard,61757862-6f61-4726-942e-6b696361645f,rev?*
G04 #@! TF.SameCoordinates,Original*
G04 #@! TF.FileFunction,Copper,L2,Bot*
G04 #@! TF.FilePolarity,Positive*
%FSLAX46Y46*%
G04 Gerber Fmt 4.6, Leading zero omitted, Abs format (unit mm)*
G04 Created by KiCad (PCBNEW 8.0.5) date 2024-10-05 13:15:26*
%MOMM*%
%LPD*%
G01*
G04 APERTURE LIST*
G04 Aperture macros list*
%AMRoundRect*
0 Rectangle with rounded corners*
0 $1 Rounding radius*
0 $2 $3 $4 $5 $6 $7 $8 $9 X,Y pos of 4 corners*
0 Add a 4 corners polygon primitive as box body*
4,1,4,$2,$3,$4,$5,$6,$7,$8,$9,$2,$3,0*
0 Add four circle primitives for the rounded corners*
1,1,$1+$1,$2,$3*
1,1,$1+$1,$4,$5*
1,1,$1+$1,$6,$7*
1,1,$1+$1,$8,$9*
0 Add four rect primitives between the rounded corners*
20,1,$1+$1,$2,$3,$4,$5,0*
20,1,$1+$1,$4,$5,$6,$7,0*
20,1,$1+$1,$6,$7,$8,$9,0*
20,1,$1+$1,$8,$9,$2,$3,0*%
%AMFreePoly0*
4,1,28,0.605014,0.794986,0.644504,0.794986,0.724698,0.756366,0.780194,0.686777,0.800000,0.600000,0.800000,-0.600000,0.780194,-0.686777,0.724698,-0.756366,0.644504,-0.794986,0.605014,-0.794986,0.600000,-0.800000,0.000000,-0.800000,-0.178017,-0.779942,-0.347107,-0.720775,-0.498792,-0.625465,-0.625465,-0.498792,-0.720775,-0.347107,-0.779942,-0.178017,-0.800000,0.000000,-0.779942,0.178017,
-0.720775,0.347107,-0.625465,0.498792,-0.498792,0.625465,-0.347107,0.720775,-0.178017,0.779942,0.000000,0.800000,0.600000,0.800000,0.605014,0.794986,0.605014,0.794986,$1*%
%AMFreePoly1*
4,1,28,0.178017,0.779942,0.347107,0.720775,0.498792,0.625465,0.625465,0.498792,0.720775,0.347107,0.779942,0.178017,0.800000,0.000000,0.779942,-0.178017,0.720775,-0.347107,0.625465,-0.498792,0.498792,-0.625465,0.347107,-0.720775,0.178017,-0.779942,0.000000,-0.800000,-0.600000,-0.800000,-0.605014,-0.794986,-0.644504,-0.794986,-0.724698,-0.756366,-0.780194,-0.686777,-0.800000,-0.600000,
-0.800000,0.600000,-0.780194,0.686777,-0.724698,0.756366,-0.644504,0.794986,-0.605014,0.794986,-0.600000,0.800000,0.000000,0.800000,0.178017,0.779942,0.178017,0.779942,$1*%
G04 Aperture macros list end*
G04 #@! TA.AperFunction,ComponentPad*
%ADD10RoundRect,0.250000X-0.600000X0.600000X-0.600000X-0.600000X0.600000X-0.600000X0.600000X0.600000X0*%
G04 #@! TD*
G04 #@! TA.AperFunction,ComponentPad*
%ADD11C,1.700000*%
G04 #@! TD*
G04 #@! TA.AperFunction,ComponentPad*
%ADD12RoundRect,0.250000X-0.600000X-0.600000X0.600000X-0.600000X0.600000X0.600000X-0.600000X0.600000X0*%
G04 #@! TD*
G04 #@! TA.AperFunction,ComponentPad*
%ADD13RoundRect,0.250000X-0.600000X-0.725000X0.600000X-0.725000X0.600000X0.725000X-0.600000X0.725000X0*%
G04 #@! TD*
G04 #@! TA.AperFunction,ComponentPad*
%ADD14O,1.700000X1.950000*%
G04 #@! TD*
G04 #@! TA.AperFunction,ComponentPad*
%ADD15RoundRect,0.250000X0.600000X0.600000X-0.600000X0.600000X-0.600000X-0.600000X0.600000X-0.600000X0*%
G04 #@! TD*
G04 #@! TA.AperFunction,ComponentPad*
%ADD16RoundRect,0.200000X0.600000X0.600000X-0.600000X0.600000X-0.600000X-0.600000X0.600000X-0.600000X0*%
G04 #@! TD*
G04 #@! TA.AperFunction,ComponentPad*
%ADD17C,1.600000*%
G04 #@! TD*
G04 #@! TA.AperFunction,ComponentPad*
%ADD18FreePoly0,180.000000*%
G04 #@! TD*
G04 #@! TA.AperFunction,ComponentPad*
%ADD19FreePoly1,180.000000*%
G04 #@! TD*
G04 #@! TA.AperFunction,ComponentPad*
%ADD20R,1.700000X1.700000*%
G04 #@! TD*
G04 #@! TA.AperFunction,ComponentPad*
%ADD21O,1.700000X1.700000*%
G04 #@! TD*
G04 #@! TA.AperFunction,ViaPad*
%ADD22C,0.600000*%
G04 #@! TD*
G04 #@! TA.AperFunction,Conductor*
%ADD23C,0.200000*%
G04 #@! TD*
G04 #@! TA.AperFunction,Conductor*
%ADD24C,1.200000*%
G04 #@! TD*
G04 #@! TA.AperFunction,Conductor*
%ADD25C,0.800000*%
G04 #@! TD*
G04 APERTURE END LIST*
D10*
X158410000Y-54750000D03*
D11*
X158410000Y-57290000D03*
X155870000Y-54750000D03*
X155870000Y-57290000D03*
X153330000Y-54750000D03*
X153330000Y-57290000D03*
X150790000Y-54750000D03*
X150790000Y-57290000D03*
X148250000Y-54750000D03*
X148250000Y-57290000D03*
D12*
X104210000Y-83000000D03*
D11*
X106750000Y-83000000D03*
X104210000Y-85540000D03*
X106750000Y-85540000D03*
X104210000Y-88080000D03*
X106750000Y-88080000D03*
X104210000Y-90620000D03*
X106750000Y-90620000D03*
X104210000Y-93160000D03*
X106750000Y-93160000D03*
D13*
X104000000Y-54000000D03*
D14*
X106500000Y-54000000D03*
X109000000Y-54000000D03*
X111500000Y-54000000D03*
X114000000Y-54000000D03*
X116500000Y-54000000D03*
D15*
X160540000Y-93160000D03*
D11*
X158000000Y-93160000D03*
X160540000Y-90620000D03*
X158000000Y-90620000D03*
X160540000Y-88080000D03*
X158000000Y-88080000D03*
X160540000Y-85540000D03*
X158000000Y-85540000D03*
X160540000Y-83000000D03*
X158000000Y-83000000D03*
D16*
X141280000Y-117760000D03*
D17*
X141280000Y-115220000D03*
D18*
X141280000Y-112680000D03*
D17*
X141280000Y-110140000D03*
X141280000Y-107600000D03*
X141280000Y-105060000D03*
X141280000Y-102520000D03*
D18*
X141280000Y-99980000D03*
D17*
X141280000Y-97440000D03*
X141280000Y-94900000D03*
X141280000Y-92360000D03*
X141280000Y-89820000D03*
D18*
X141280000Y-87280000D03*
D17*
X141280000Y-84740000D03*
X141280000Y-82200000D03*
X141280000Y-79660000D03*
X141280000Y-77120000D03*
D18*
X141280000Y-74580000D03*
D17*
X141280000Y-72040000D03*
X141280000Y-69500000D03*
X123500000Y-69500000D03*
X123500000Y-72040000D03*
D19*
X123500000Y-74580000D03*
D17*
X123500000Y-77120000D03*
X123500000Y-79660000D03*
X123500000Y-82200000D03*
X123500000Y-84740000D03*
D19*
X123500000Y-87280000D03*
D17*
X123500000Y-89820000D03*
X123500000Y-92360000D03*
X123500000Y-94900000D03*
X123500000Y-97440000D03*
D19*
X123500000Y-99980000D03*
D17*
X123500000Y-102520000D03*
X123500000Y-105060000D03*
X123500000Y-107600000D03*
X123500000Y-110140000D03*
D19*
X123500000Y-112680000D03*
D17*
X123500000Y-115220000D03*
X123500000Y-117760000D03*
D20*
X147000000Y-117830000D03*
D21*
X147000000Y-115290000D03*
X147000000Y-112750000D03*
D22*
X150750000Y-83750000D03*
X150750000Y-81250000D03*
X150784148Y-70784148D03*
X150750000Y-66750000D03*
X146750000Y-86250000D03*
X120000000Y-76000000D03*
X148500000Y-79000000D03*
X146750000Y-92500000D03*
X113750000Y-87250000D03*
X120000000Y-81750000D03*
X113750000Y-81750000D03*
X146500000Y-76000000D03*
X145049265Y-82150000D03*
X157860000Y-59250000D03*
X147299997Y-76002763D03*
X136250000Y-90250000D03*
X139000000Y-90250000D03*
X145018329Y-83350000D03*
X145699997Y-76000000D03*
X144549265Y-79650000D03*
X155080000Y-59250000D03*
X150000000Y-71750000D03*
X150000000Y-67500000D03*
X150049265Y-85299265D03*
X149949997Y-81250000D03*
X146250000Y-55500000D03*
D23*
X150750000Y-81250000D02*
X150750000Y-83750000D01*
X150750000Y-66750000D02*
X150750000Y-70750000D01*
X150750000Y-70750000D02*
X150784148Y-70784148D01*
D24*
X119975000Y-53950000D02*
X147450000Y-53950000D01*
X141280000Y-87280000D02*
X123500000Y-87280000D01*
X123500000Y-87280000D02*
X121280000Y-87280000D01*
X111500000Y-54000000D02*
X113275000Y-52225000D01*
X141280000Y-87280000D02*
X142643964Y-87280000D01*
D25*
X113750000Y-87250000D02*
X113750000Y-81750000D01*
D24*
X148250000Y-54750000D02*
X148250000Y-57290000D01*
X148250000Y-57290000D02*
X148250000Y-73762870D01*
X139930000Y-112680000D02*
X138500000Y-111250000D01*
X139020000Y-99980000D02*
X141280000Y-99980000D01*
X113275000Y-52225000D02*
X118250000Y-52225000D01*
X147432869Y-74580000D02*
X141280000Y-74580000D01*
X120000000Y-76000000D02*
X120000000Y-81750000D01*
X142643964Y-87280000D02*
X148500000Y-81423964D01*
X148500000Y-81423964D02*
X148500000Y-75647131D01*
X141280000Y-99980000D02*
X142880000Y-98380000D01*
X141280000Y-112680000D02*
X123500000Y-112680000D01*
X146930000Y-112680000D02*
X147000000Y-112750000D01*
X125110031Y-88890031D02*
X123500000Y-87280000D01*
D25*
X148250000Y-54750000D02*
X147500000Y-54000000D01*
D24*
X148250000Y-73762870D02*
X147432870Y-74580000D01*
X118250000Y-52225000D02*
X119975000Y-53950000D01*
X138500000Y-111250000D02*
X138500000Y-100500000D01*
X141280000Y-112680000D02*
X139930000Y-112680000D01*
X142880000Y-88880000D02*
X141280000Y-87280000D01*
X120670000Y-74580000D02*
X120000000Y-75250000D01*
X121280000Y-87280000D02*
X120000000Y-86000000D01*
X142880000Y-98380000D02*
X142880000Y-88880000D01*
X141280000Y-112680000D02*
X146930000Y-112680000D01*
X147432870Y-74580000D02*
X147432869Y-74580000D01*
X123500000Y-112680000D02*
X125110031Y-111069969D01*
X148500000Y-75647131D02*
X147432869Y-74580000D01*
X120000000Y-75250000D02*
X120000000Y-76000000D01*
X120000000Y-81750000D02*
X120000000Y-86000000D01*
D25*
X146750000Y-86250000D02*
X146750000Y-92500000D01*
D24*
X150790000Y-57290000D02*
X148250000Y-57290000D01*
X123500000Y-74580000D02*
X120670000Y-74580000D01*
X147450000Y-53950000D02*
X148250000Y-54750000D01*
X125110031Y-111069969D02*
X125110031Y-88890031D01*
X138500000Y-100500000D02*
X139020000Y-99980000D01*
D23*
X145049265Y-82150000D02*
X145149265Y-82050000D01*
X145149265Y-78366418D02*
X146500000Y-77015683D01*
X146500000Y-77015683D02*
X146500000Y-76000000D01*
X145149265Y-82050000D02*
X145149265Y-78366418D01*
X147299997Y-76781372D02*
X147299997Y-76002763D01*
X157830000Y-59250000D02*
X155870000Y-57290000D01*
X136250000Y-90250000D02*
X139000000Y-90250000D01*
X145750000Y-82618329D02*
X145750000Y-78331369D01*
X157860000Y-59250000D02*
X157830000Y-59250000D01*
X145018329Y-83350000D02*
X145750000Y-82618329D01*
X145750000Y-78331369D02*
X147299997Y-76781372D01*
X144549265Y-79650000D02*
X144549265Y-78400732D01*
X145699997Y-76000000D02*
X145699997Y-77250000D01*
X155080000Y-59040000D02*
X153330000Y-57290000D01*
X144549265Y-78400732D02*
X145699997Y-77250000D01*
X155080000Y-59250000D02*
X155080000Y-59040000D01*
X150000000Y-67500000D02*
X150000000Y-71750000D01*
X149949997Y-81250000D02*
X150000000Y-81300003D01*
X150000000Y-81300003D02*
X150000000Y-85250000D01*
X150000000Y-85250000D02*
X150049265Y-85299265D01*
D25*
X123500000Y-115220000D02*
X120220000Y-115220000D01*
X118250000Y-55575000D02*
X118000000Y-55825000D01*
X146175000Y-55575000D02*
X118250000Y-55575000D01*
X108075000Y-55575000D02*
X116250000Y-55575000D01*
X146250000Y-55500000D02*
X146175000Y-55575000D01*
X116250000Y-55575000D02*
X117750000Y-55575000D01*
X120220000Y-115220000D02*
X118000000Y-113000000D01*
X118000000Y-55825000D02*
X117750000Y-55575000D01*
X118000000Y-113000000D02*
X118000000Y-55825000D01*
X106500000Y-54000000D02*
X108075000Y-55575000D01*
X121475000Y-52750000D02*
X119750000Y-51025000D01*
X119750000Y-51025000D02*
X105875000Y-51025000D01*
X158410000Y-57290000D02*
X159860000Y-55840000D01*
X159860000Y-53790990D02*
X158819010Y-52750000D01*
X105875000Y-51025000D02*
X104000000Y-52900000D01*
X158819010Y-52750000D02*
X121475000Y-52750000D01*
X159860000Y-55840000D02*
X159860000Y-53790990D01*
X104000000Y-52900000D02*
X104000000Y-54000000D01*
G04 #@! TA.AperFunction,Conductor*
G36*
X104893678Y-50520185D02*
G01*
X104939433Y-50572989D01*
X104949377Y-50642147D01*
X104920352Y-50705703D01*
X104914320Y-50712181D01*
X103300538Y-52325960D01*
X103300537Y-52325961D01*
X103261064Y-52385039D01*
X103261063Y-52385040D01*
X103201986Y-52473453D01*
X103186952Y-52509750D01*
X103143110Y-52564153D01*
X103111399Y-52580001D01*
X103080667Y-52590185D01*
X102931342Y-52682289D01*
X102807289Y-52806342D01*
X102715187Y-52955663D01*
X102715186Y-52955666D01*
X102660001Y-53122203D01*
X102660001Y-53122204D01*
X102660000Y-53122204D01*
X102649500Y-53224983D01*
X102649500Y-54775001D01*
X102649501Y-54775018D01*
X102660000Y-54877796D01*
X102660001Y-54877799D01*
X102705894Y-55016294D01*
X102715186Y-55044334D01*
X102807288Y-55193656D01*
X102931344Y-55317712D01*
X103080666Y-55409814D01*
X103247203Y-55464999D01*
X103349991Y-55475500D01*
X104650008Y-55475499D01*
X104752797Y-55464999D01*
X104919334Y-55409814D01*
X105068656Y-55317712D01*
X105192712Y-55193656D01*
X105284814Y-55044334D01*
X105284814Y-55044331D01*
X105288178Y-55038879D01*
X105340126Y-54992154D01*
X105409088Y-54980931D01*
X105473170Y-55008774D01*
X105481398Y-55016294D01*
X105620213Y-55155109D01*
X105792179Y-55280048D01*
X105792181Y-55280049D01*
X105792184Y-55280051D01*
X105981588Y-55376557D01*
X106183757Y-55442246D01*
X106393713Y-55475500D01*
X106393714Y-55475500D01*
X106606280Y-55475500D01*
X106606287Y-55475500D01*
X106626510Y-55472296D01*
X106695798Y-55481249D01*
X106733588Y-55507088D01*
X107091426Y-55864925D01*
X107375536Y-56149035D01*
X107473984Y-56247483D01*
X107500966Y-56274465D01*
X107560043Y-56313939D01*
X107648453Y-56373013D01*
X107758509Y-56418599D01*
X107758512Y-56418600D01*
X107758513Y-56418601D01*
X107812329Y-56440892D01*
X107812334Y-56440894D01*
X107812338Y-56440894D01*
X107812339Y-56440895D01*
X107986305Y-56475500D01*
X107986308Y-56475500D01*
X107986309Y-56475500D01*
X116161309Y-56475500D01*
X116975500Y-56475500D01*
X117042539Y-56495185D01*
X117088294Y-56547989D01*
X117099500Y-56599500D01*
X117099500Y-113088696D01*
X117134103Y-113262659D01*
X117134106Y-113262669D01*
X117157942Y-113320213D01*
X117201984Y-113426542D01*
X117201987Y-113426547D01*
X117219958Y-113453444D01*
X117219960Y-113453446D01*
X117300532Y-113574031D01*
X117300538Y-113574039D01*
X119645964Y-115919464D01*
X119645966Y-115919466D01*
X119705036Y-115958933D01*
X119705039Y-115958936D01*
X119793450Y-116018011D01*
X119793453Y-116018013D01*
X119875393Y-116051953D01*
X119957334Y-116085895D01*
X120131303Y-116120499D01*
X120131307Y-116120500D01*
X120131308Y-116120500D01*
X120131309Y-116120500D01*
X122509952Y-116120500D01*
X122576991Y-116140185D01*
X122597628Y-116156814D01*
X122660861Y-116220047D01*
X122847266Y-116350568D01*
X122905275Y-116377618D01*
X122957714Y-116423791D01*
X122976866Y-116490984D01*
X122956650Y-116557865D01*
X122905275Y-116602381D01*
X122888272Y-116610310D01*
X122847267Y-116629431D01*
X122847265Y-116629432D01*
X122660858Y-116759954D01*
X122499954Y-116920858D01*
X122369432Y-117107265D01*
X122369431Y-117107267D01*
X122273261Y-117313502D01*
X122273258Y-117313511D01*
X122214366Y-117533302D01*
X122214364Y-117533313D01*
X122194532Y-117759998D01*
X122194532Y-117760001D01*
X122214364Y-117986686D01*
X122214366Y-117986697D01*
X122273258Y-118206488D01*
X122273261Y-118206497D01*
X122369431Y-118412732D01*
X122369432Y-118412734D01*
X122499954Y-118599141D01*
X122660858Y-118760045D01*
X122660861Y-118760047D01*
X122847266Y-118890568D01*
X123053504Y-118986739D01*
X123273308Y-119045635D01*
X123435230Y-119059801D01*
X123499998Y-119065468D01*
X123500000Y-119065468D01*
X123500002Y-119065468D01*
X123556784Y-119060500D01*
X123726692Y-119045635D01*
X123946496Y-118986739D01*
X124152734Y-118890568D01*
X124339139Y-118760047D01*
X124500047Y-118599139D01*
X124630568Y-118412734D01*
X124726739Y-118206496D01*
X124785635Y-117986692D01*
X124805468Y-117760000D01*
X124785635Y-117533308D01*
X124783064Y-117523713D01*
X128314500Y-117523713D01*
X128314500Y-117736287D01*
X128347754Y-117946243D01*
X128360898Y-117986697D01*
X128413444Y-118148414D01*
X128509951Y-118337820D01*
X128634890Y-118509786D01*
X128785213Y-118660109D01*
X128957179Y-118785048D01*
X128957181Y-118785049D01*
X128957184Y-118785051D01*
X129146588Y-118881557D01*
X129348757Y-118947246D01*
X129558713Y-118980500D01*
X129558714Y-118980500D01*
X129771286Y-118980500D01*
X129771287Y-118980500D01*
X129981243Y-118947246D01*
X130183412Y-118881557D01*
X130372816Y-118785051D01*
X130451502Y-118727883D01*
X130544786Y-118660109D01*
X130544788Y-118660106D01*
X130544792Y-118660104D01*
X130695104Y-118509792D01*
X130695106Y-118509788D01*
X130695109Y-118509786D01*
X130820048Y-118337820D01*
X130820047Y-118337820D01*
X130820051Y-118337816D01*
X130916557Y-118148412D01*
X130982246Y-117946243D01*
X131015500Y-117736287D01*
X131015500Y-117523713D01*
X133764500Y-117523713D01*
X133764500Y-117736287D01*
X133797754Y-117946243D01*
X133810898Y-117986697D01*
X133863444Y-118148414D01*
X133959951Y-118337820D01*
X134084890Y-118509786D01*
X134235213Y-118660109D01*
X134407179Y-118785048D01*
X134407181Y-118785049D01*
X134407184Y-118785051D01*
X134596588Y-118881557D01*
X134798757Y-118947246D01*
X135008713Y-118980500D01*
X135008714Y-118980500D01*
X135221286Y-118980500D01*
X135221287Y-118980500D01*
X135431243Y-118947246D01*
X135633412Y-118881557D01*
X135822816Y-118785051D01*
X135901502Y-118727883D01*
X135994786Y-118660109D01*
X135994788Y-118660106D01*
X135994792Y-118660104D01*
X136145104Y-118509792D01*
X136145106Y-118509788D01*
X136145109Y-118509786D01*
X136270048Y-118337820D01*
X136270047Y-118337820D01*
X136270051Y-118337816D01*
X136366557Y-118148412D01*
X136432246Y-117946243D01*
X136465500Y-117736287D01*
X136465500Y-117523713D01*
X136432246Y-117313757D01*
X136366557Y-117111588D01*
X136270051Y-116922184D01*
X136270049Y-116922181D01*
X136270048Y-116922179D01*
X136145109Y-116750213D01*
X135994786Y-116599890D01*
X135822820Y-116474951D01*
X135633414Y-116378444D01*
X135633413Y-116378443D01*
X135633412Y-116378443D01*
X135431243Y-116312754D01*
X135431241Y-116312753D01*
X135431240Y-116312753D01*
X135245443Y-116283326D01*
X135221287Y-116279500D01*
X135008713Y-116279500D01*
X134984557Y-116283326D01*
X134798760Y-116312753D01*
X134596585Y-116378444D01*
X134407179Y-116474951D01*
X134235213Y-116599890D01*
X134084890Y-116750213D01*
X133959951Y-116922179D01*
X133863444Y-117111585D01*
X133797753Y-117313760D01*
X133764500Y-117523713D01*
X131015500Y-117523713D01*
X130982246Y-117313757D01*
X130916557Y-117111588D01*
X130820051Y-116922184D01*
X130820049Y-116922181D01*
X130820048Y-116922179D01*
X130695109Y-116750213D01*
X130544786Y-116599890D01*
X130372820Y-116474951D01*
X130183414Y-116378444D01*
X130183413Y-116378443D01*
X130183412Y-116378443D01*
X129981243Y-116312754D01*
X129981241Y-116312753D01*
X129981240Y-116312753D01*
X129795443Y-116283326D01*
X129771287Y-116279500D01*
X129558713Y-116279500D01*
X129534557Y-116283326D01*
X129348760Y-116312753D01*
X129146585Y-116378444D01*
X128957179Y-116474951D01*
X128785213Y-116599890D01*
X128634890Y-116750213D01*
X128509951Y-116922179D01*
X128413444Y-117111585D01*
X128347753Y-117313760D01*
X128314500Y-117523713D01*
X124783064Y-117523713D01*
X124726739Y-117313504D01*
X124630568Y-117107266D01*
X124507936Y-116932128D01*
X124500045Y-116920858D01*
X124339141Y-116759954D01*
X124152734Y-116629432D01*
X124152728Y-116629429D01*
X124125038Y-116616517D01*
X124094724Y-116602381D01*
X124042285Y-116556210D01*
X124023133Y-116489017D01*
X124043348Y-116422135D01*
X124094725Y-116377618D01*
X124152734Y-116350568D01*
X124339139Y-116220047D01*
X124500047Y-116059139D01*
X124630568Y-115872734D01*
X124726739Y-115666496D01*
X124785635Y-115446692D01*
X124805468Y-115220000D01*
X124805126Y-115216096D01*
X124790997Y-115054596D01*
X124785635Y-114993308D01*
X124726739Y-114773504D01*
X124630568Y-114567266D01*
X124588710Y-114507486D01*
X128789500Y-114507486D01*
X128789500Y-114692513D01*
X128818445Y-114875265D01*
X128875619Y-115051232D01*
X128875620Y-115051235D01*
X128959622Y-115216096D01*
X129068379Y-115365787D01*
X129199213Y-115496621D01*
X129348904Y-115605378D01*
X129429763Y-115646577D01*
X129513764Y-115689379D01*
X129513767Y-115689380D01*
X129601750Y-115717967D01*
X129689736Y-115746555D01*
X129872486Y-115775500D01*
X129872487Y-115775500D01*
X130057513Y-115775500D01*
X130057514Y-115775500D01*
X130240264Y-115746555D01*
X130416235Y-115689379D01*
X130581096Y-115605378D01*
X130730787Y-115496621D01*
X130861621Y-115365787D01*
X130970378Y-115216096D01*
X131054379Y-115051235D01*
X131111555Y-114875264D01*
X131140500Y-114692514D01*
X131140500Y-114507486D01*
X133639500Y-114507486D01*
X133639500Y-114692513D01*
X133668445Y-114875265D01*
X133725619Y-115051232D01*
X133725620Y-115051235D01*
X133809622Y-115216096D01*
X133918379Y-115365787D01*
X134049213Y-115496621D01*
X134198904Y-115605378D01*
X134279763Y-115646577D01*
X134363764Y-115689379D01*
X134363767Y-115689380D01*
X134451750Y-115717967D01*
X134539736Y-115746555D01*
X134722486Y-115775500D01*
X134722487Y-115775500D01*
X134907513Y-115775500D01*
X134907514Y-115775500D01*
X135090264Y-115746555D01*
X135266235Y-115689379D01*
X135431096Y-115605378D01*
X135580787Y-115496621D01*
X135711621Y-115365787D01*
X135820378Y-115216096D01*
X135904379Y-115051235D01*
X135961555Y-114875264D01*
X135990500Y-114692514D01*
X135990500Y-114507486D01*
X135961555Y-114324736D01*
X135927509Y-114219951D01*
X135904380Y-114148767D01*
X135904379Y-114148764D01*
X135827149Y-113997193D01*
X135820378Y-113983904D01*
X135711621Y-113834213D01*
X135580787Y-113703379D01*
X135431096Y-113594622D01*
X135382100Y-113569657D01*
X135266235Y-113510620D01*
X135266232Y-113510619D01*
X135090265Y-113453445D01*
X134998889Y-113438972D01*
X134907514Y-113424500D01*
X134722486Y-113424500D01*
X134661569Y-113434148D01*
X134539734Y-113453445D01*
X134363767Y-113510619D01*
X134363764Y-113510620D01*
X134198903Y-113594622D01*
X134113499Y-113656672D01*
X134049213Y-113703379D01*
X134049211Y-113703381D01*
X134049210Y-113703381D01*
X133918381Y-113834210D01*
X133918381Y-113834211D01*
X133918379Y-113834213D01*
X133913093Y-113841489D01*
X133809622Y-113983903D01*
X133725620Y-114148764D01*
X133725619Y-114148767D01*
X133668445Y-114324734D01*
X133639500Y-114507486D01*
X131140500Y-114507486D01*
X131111555Y-114324736D01*
X131077509Y-114219951D01*
X131054380Y-114148767D01*
X131054379Y-114148764D01*
X130977149Y-113997193D01*
X130970378Y-113983904D01*
X130861621Y-113834213D01*
X130730787Y-113703379D01*
X130581096Y-113594622D01*
X130532100Y-113569657D01*
X130416235Y-113510620D01*
X130416232Y-113510619D01*
X130240265Y-113453445D01*
X130148889Y-113438972D01*
X130057514Y-113424500D01*
X129872486Y-113424500D01*
X129811569Y-113434148D01*
X129689734Y-113453445D01*
X129513767Y-113510619D01*
X129513764Y-113510620D01*
X129348903Y-113594622D01*
X129263499Y-113656672D01*
X129199213Y-113703379D01*
X129199211Y-113703381D01*
X129199210Y-113703381D01*
X129068381Y-113834210D01*
X129068381Y-113834211D01*
X129068379Y-113834213D01*
X129063093Y-113841489D01*
X128959622Y-113983903D01*
X128875620Y-114148764D01*
X128875619Y-114148767D01*
X128818445Y-114324734D01*
X128789500Y-114507486D01*
X124588710Y-114507486D01*
X124500047Y-114380861D01*
X124500045Y-114380858D01*
X124339141Y-114219954D01*
X124272490Y-114173285D01*
X124228865Y-114118709D01*
X124221671Y-114049210D01*
X124253194Y-113986855D01*
X124306259Y-113953470D01*
X124364766Y-113934986D01*
X124389514Y-113923067D01*
X123629410Y-113162962D01*
X123692993Y-113145925D01*
X123807007Y-113080099D01*
X123900099Y-112987007D01*
X123965925Y-112872993D01*
X123982962Y-112809410D01*
X124743209Y-113569657D01*
X124777163Y-113481388D01*
X124777164Y-113481385D01*
X124797481Y-113392374D01*
X124809198Y-113310885D01*
X124809198Y-113310884D01*
X124805413Y-113264607D01*
X124805000Y-113254499D01*
X124805000Y-112760245D01*
X124805780Y-112746358D01*
X124806886Y-112736544D01*
X124806886Y-112623455D01*
X124805780Y-112613641D01*
X124805000Y-112599755D01*
X124805000Y-112148951D01*
X124806262Y-112131304D01*
X124809198Y-112110883D01*
X124809198Y-112110881D01*
X124797481Y-111967626D01*
X124777166Y-111878624D01*
X124777165Y-111878617D01*
X124752365Y-111800119D01*
X124745366Y-111788184D01*
X123982962Y-112550589D01*
X123965925Y-112487007D01*
X123900099Y-112372993D01*
X123807007Y-112279901D01*
X123692993Y-112214075D01*
X123629409Y-112197037D01*
X124389514Y-111436931D01*
X124389513Y-111436930D01*
X124364764Y-111425012D01*
X124364753Y-111425007D01*
X124303031Y-111401266D01*
X124247528Y-111358826D01*
X124223781Y-111293116D01*
X124239329Y-111224998D01*
X124276424Y-111183959D01*
X124339139Y-111140047D01*
X124500047Y-110979139D01*
X124630568Y-110792734D01*
X124726739Y-110586496D01*
X124785635Y-110366692D01*
X124805468Y-110140000D01*
X124785635Y-109913308D01*
X124726739Y-109693504D01*
X124630568Y-109487266D01*
X124500047Y-109300861D01*
X124500045Y-109300858D01*
X124339141Y-109139954D01*
X124152734Y-109009432D01*
X124152728Y-109009429D01*
X124094725Y-108982382D01*
X124042285Y-108936210D01*
X124023133Y-108869017D01*
X124043348Y-108802135D01*
X124094725Y-108757618D01*
X124152734Y-108730568D01*
X124339139Y-108600047D01*
X124500047Y-108439139D01*
X124630568Y-108252734D01*
X124726739Y-108046496D01*
X124785635Y-107826692D01*
X124805468Y-107600000D01*
X124785635Y-107373308D01*
X124726739Y-107153504D01*
X124630568Y-106947266D01*
X124500047Y-106760861D01*
X124500045Y-106760858D01*
X124339141Y-106599954D01*
X124152734Y-106469432D01*
X124152728Y-106469429D01*
X124094725Y-106442382D01*
X124042285Y-106396210D01*
X124023133Y-106329017D01*
X124043348Y-106262135D01*
X124094725Y-106217618D01*
X124152734Y-106190568D01*
X124339139Y-106060047D01*
X124500047Y-105899139D01*
X124630568Y-105712734D01*
X124726739Y-105506496D01*
X124785635Y-105286692D01*
X124805468Y-105060000D01*
X124785635Y-104833308D01*
X124726739Y-104613504D01*
X124630568Y-104407266D01*
X124500047Y-104220861D01*
X124500045Y-104220858D01*
X124339141Y-104059954D01*
X124152734Y-103929432D01*
X124152728Y-103929429D01*
X124094725Y-103902382D01*
X124042285Y-103856210D01*
X124023133Y-103789017D01*
X124043348Y-103722135D01*
X124094725Y-103677618D01*
X124152734Y-103650568D01*
X124339139Y-103520047D01*
X124500047Y-103359139D01*
X124630568Y-103172734D01*
X124726739Y-102966496D01*
X124785635Y-102746692D01*
X124805468Y-102520000D01*
X124785635Y-102293308D01*
X124726739Y-102073504D01*
X124630568Y-101867266D01*
X124500047Y-101680861D01*
X124500045Y-101680858D01*
X124339141Y-101519954D01*
X124273001Y-101473643D01*
X124229376Y-101419067D01*
X124222182Y-101349568D01*
X124253704Y-101287213D01*
X124306766Y-101253829D01*
X124364980Y-101235438D01*
X124447236Y-101195825D01*
X124518320Y-101154137D01*
X124623123Y-101055558D01*
X124680045Y-100984179D01*
X124725998Y-100915783D01*
X124777652Y-100781495D01*
X124797968Y-100692487D01*
X124809697Y-100610917D01*
X124805913Y-100564644D01*
X124805500Y-100554537D01*
X124805500Y-100060274D01*
X124806280Y-100046387D01*
X124807383Y-100036600D01*
X124807383Y-99923398D01*
X124806280Y-99913610D01*
X124805500Y-99899725D01*
X124805500Y-99448973D01*
X124806762Y-99431325D01*
X124809697Y-99410912D01*
X124797968Y-99267515D01*
X124797968Y-99267513D01*
X124777652Y-99178505D01*
X124752830Y-99099933D01*
X124747205Y-99090342D01*
X124719683Y-99043412D01*
X124680045Y-98975821D01*
X124623123Y-98904442D01*
X124623113Y-98904431D01*
X124566668Y-98844420D01*
X124566663Y-98844416D01*
X124447241Y-98764178D01*
X124447236Y-98764175D01*
X124390664Y-98736931D01*
X124364980Y-98724562D01*
X124364976Y-98724560D01*
X124364973Y-98724559D01*
X124364972Y-98724558D01*
X124303523Y-98700922D01*
X124248020Y-98658482D01*
X124224273Y-98592772D01*
X124239821Y-98524654D01*
X124276917Y-98483614D01*
X124339139Y-98440047D01*
X124500047Y-98279139D01*
X124630568Y-98092734D01*
X124726739Y-97886496D01*
X124785635Y-97666692D01*
X124805468Y-97440000D01*
X124785635Y-97213308D01*
X124726739Y-96993504D01*
X124630568Y-96787266D01*
X124500047Y-96600861D01*
X124500045Y-96600858D01*
X124339141Y-96439954D01*
X124152734Y-96309432D01*
X124152728Y-96309429D01*
X124094725Y-96282382D01*
X124042285Y-96236210D01*
X124023133Y-96169017D01*
X124043348Y-96102135D01*
X124094725Y-96057618D01*
X124152734Y-96030568D01*
X124339139Y-95900047D01*
X124500047Y-95739139D01*
X124630568Y-95552734D01*
X124726739Y-95346496D01*
X124785635Y-95126692D01*
X124805468Y-94900000D01*
X124785635Y-94673308D01*
X124726739Y-94453504D01*
X124630568Y-94247266D01*
X124500047Y-94060861D01*
X124500045Y-94060858D01*
X124339141Y-93899954D01*
X124152734Y-93769432D01*
X124152728Y-93769429D01*
X124094725Y-93742382D01*
X124042285Y-93696210D01*
X124023133Y-93629017D01*
X124043348Y-93562135D01*
X124094725Y-93517618D01*
X124152734Y-93490568D01*
X124339139Y-93360047D01*
X124500047Y-93199139D01*
X124630568Y-93012734D01*
X124726739Y-92806496D01*
X124785635Y-92586692D01*
X124805468Y-92360000D01*
X124785635Y-92133308D01*
X124726739Y-91913504D01*
X124630568Y-91707266D01*
X124500047Y-91520861D01*
X124500045Y-91520858D01*
X124339141Y-91359954D01*
X124152734Y-91229432D01*
X124152728Y-91229429D01*
X124094725Y-91202382D01*
X124042285Y-91156210D01*
X124023133Y-91089017D01*
X124043348Y-91022135D01*
X124094725Y-90977618D01*
X124152734Y-90950568D01*
X124339139Y-90820047D01*
X124500047Y-90659139D01*
X124630568Y-90472734D01*
X124726739Y-90266496D01*
X124731160Y-90249996D01*
X135444435Y-90249996D01*
X135444435Y-90250003D01*
X135464630Y-90429249D01*
X135464631Y-90429254D01*
X135524211Y-90599523D01*
X135561672Y-90659141D01*
X135620184Y-90752262D01*
X135747738Y-90879816D01*
X135900478Y-90975789D01*
X136032927Y-91022135D01*
X136070745Y-91035368D01*
X136070750Y-91035369D01*
X136249996Y-91055565D01*
X136250000Y-91055565D01*
X136250004Y-91055565D01*
X136429249Y-91035369D01*
X136429252Y-91035368D01*
X136429255Y-91035368D01*
X136599522Y-90975789D01*
X136752262Y-90879816D01*
X136752267Y-90879810D01*
X136755097Y-90877555D01*
X136757275Y-90876665D01*
X136758158Y-90876111D01*
X136758255Y-90876265D01*
X136819783Y-90851145D01*
X136832412Y-90850500D01*
X138417588Y-90850500D01*
X138484627Y-90870185D01*
X138494903Y-90877555D01*
X138497736Y-90879814D01*
X138497738Y-90879816D01*
X138650478Y-90975789D01*
X138782927Y-91022135D01*
X138820745Y-91035368D01*
X138820750Y-91035369D01*
X138999996Y-91055565D01*
X139000000Y-91055565D01*
X139000004Y-91055565D01*
X139179249Y-91035369D01*
X139179252Y-91035368D01*
X139179255Y-91035368D01*
X139349522Y-90975789D01*
X139502262Y-90879816D01*
X139629816Y-90752262D01*
X139725789Y-90599522D01*
X139785368Y-90429255D01*
X139804203Y-90262081D01*
X139831269Y-90197669D01*
X139888863Y-90158114D01*
X139958700Y-90155975D01*
X140018607Y-90191933D01*
X140047197Y-90243869D01*
X140053258Y-90266487D01*
X140053261Y-90266497D01*
X140149431Y-90472732D01*
X140149432Y-90472734D01*
X140279954Y-90659141D01*
X140440858Y-90820045D01*
X140440861Y-90820047D01*
X140627266Y-90950568D01*
X140685275Y-90977618D01*
X140737714Y-91023791D01*
X140756866Y-91090984D01*
X140736650Y-91157865D01*
X140685275Y-91202382D01*
X140627267Y-91229431D01*
X140627265Y-91229432D01*
X140440858Y-91359954D01*
X140279954Y-91520858D01*
X140149432Y-91707265D01*
X140149431Y-91707267D01*
X140053261Y-91913502D01*
X140053258Y-91913511D01*
X139994366Y-92133302D01*
X139994364Y-92133313D01*
X139974532Y-92359998D01*
X139974532Y-92360001D01*
X139994364Y-92586686D01*
X139994366Y-92586697D01*
X140053258Y-92806488D01*
X140053261Y-92806497D01*
X140149431Y-93012732D01*
X140149432Y-93012734D01*
X140279954Y-93199141D01*
X140440858Y-93360045D01*
X140440861Y-93360047D01*
X140627266Y-93490568D01*
X140685275Y-93517618D01*
X140737714Y-93563791D01*
X140756866Y-93630984D01*
X140736650Y-93697865D01*
X140685275Y-93742382D01*
X140627267Y-93769431D01*
X140627265Y-93769432D01*
X140440858Y-93899954D01*
X140279954Y-94060858D01*
X140149432Y-94247265D01*
X140149431Y-94247267D01*
X140053261Y-94453502D01*
X140053258Y-94453511D01*
X139994366Y-94673302D01*
X139994364Y-94673313D01*
X139974532Y-94899998D01*
X139974532Y-94900001D01*
X139994364Y-95126686D01*
X139994366Y-95126697D01*
X140053258Y-95346488D01*
X140053261Y-95346497D01*
X140149431Y-95552732D01*
X140149432Y-95552734D01*
X140279954Y-95739141D01*
X140440858Y-95900045D01*
X140440861Y-95900047D01*
X140627266Y-96030568D01*
X140685275Y-96057618D01*
X140737714Y-96103791D01*
X140756866Y-96170984D01*
X140736650Y-96237865D01*
X140685275Y-96282382D01*
X140627267Y-96309431D01*
X140627265Y-96309432D01*
X140440858Y-96439954D01*
X140279954Y-96600858D01*
X140149432Y-96787265D01*
X140149431Y-96787267D01*
X140053261Y-96993502D01*
X140053258Y-96993511D01*
X139994366Y-97213302D01*
X139994364Y-97213313D01*
X139974532Y-97439998D01*
X139974532Y-97440001D01*
X139994364Y-97666686D01*
X139994366Y-97666697D01*
X140053258Y-97886488D01*
X140053261Y-97886497D01*
X140149431Y-98092732D01*
X140149432Y-98092734D01*
X140279954Y-98279141D01*
X140440858Y-98440045D01*
X140507509Y-98486714D01*
X140551134Y-98541290D01*
X140558328Y-98610788D01*
X140526806Y-98673143D01*
X140473741Y-98706528D01*
X140415238Y-98725010D01*
X140390485Y-98736930D01*
X140390485Y-98736931D01*
X141150591Y-99497037D01*
X141087007Y-99514075D01*
X140972993Y-99579901D01*
X140879901Y-99672993D01*
X140814075Y-99787007D01*
X140797037Y-99850590D01*
X140036789Y-99090342D01*
X140002836Y-99178611D01*
X140002836Y-99178613D01*
X139982518Y-99267625D01*
X139970801Y-99349114D01*
X139974587Y-99395391D01*
X139975000Y-99405500D01*
X139975000Y-99899755D01*
X139974220Y-99913641D01*
X139973114Y-99923455D01*
X139973114Y-100036544D01*
X139974220Y-100046358D01*
X139975000Y-100060245D01*
X139975000Y-100511048D01*
X139973738Y-100528694D01*
X139970802Y-100549115D01*
X139970801Y-100549118D01*
X139982518Y-100692373D01*
X140002833Y-100781375D01*
X140002834Y-100781382D01*
X140027634Y-100859880D01*
X140034631Y-100871813D01*
X140797037Y-100109409D01*
X140814075Y-100172993D01*
X140879901Y-100287007D01*
X140972993Y-100380099D01*
X141087007Y-100445925D01*
X141150590Y-100462962D01*
X140390485Y-101223067D01*
X140415234Y-101234986D01*
X140476968Y-101258733D01*
X140532471Y-101301173D01*
X140556218Y-101366883D01*
X140540670Y-101435001D01*
X140503574Y-101476041D01*
X140440856Y-101519956D01*
X140279954Y-101680858D01*
X140149432Y-101867265D01*
X140149431Y-101867267D01*
X140053261Y-102073502D01*
X140053258Y-102073511D01*
X139994366Y-102293302D01*
X139994364Y-102293313D01*
X139974532Y-102519998D01*
X139974532Y-102520001D01*
X139994364Y-102746686D01*
X139994366Y-102746697D01*
X140053258Y-102966488D01*
X140053261Y-102966497D01*
X140149431Y-103172732D01*
X140149432Y-103172734D01*
X140279954Y-103359141D01*
X140440858Y-103520045D01*
X140440861Y-103520047D01*
X140627266Y-103650568D01*
X140685275Y-103677618D01*
X140737714Y-103723791D01*
X140756866Y-103790984D01*
X140736650Y-103857865D01*
X140685275Y-103902382D01*
X140627267Y-103929431D01*
X140627265Y-103929432D01*
X140440858Y-104059954D01*
X140279954Y-104220858D01*
X140149432Y-104407265D01*
X140149431Y-104407267D01*
X140053261Y-104613502D01*
X140053258Y-104613511D01*
X139994366Y-104833302D01*
X139994364Y-104833313D01*
X139974532Y-105059998D01*
X139974532Y-105060001D01*
X139994364Y-105286686D01*
X139994366Y-105286697D01*
X140053258Y-105506488D01*
X140053261Y-105506497D01*
X140149431Y-105712732D01*
X140149432Y-105712734D01*
X140279954Y-105899141D01*
X140440858Y-106060045D01*
X140440861Y-106060047D01*
X140627266Y-106190568D01*
X140685275Y-106217618D01*
X140737714Y-106263791D01*
X140756866Y-106330984D01*
X140736650Y-106397865D01*
X140685275Y-106442382D01*
X140627267Y-106469431D01*
X140627265Y-106469432D01*
X140440858Y-106599954D01*
X140279954Y-106760858D01*
X140149432Y-106947265D01*
X140149431Y-106947267D01*
X140053261Y-107153502D01*
X140053258Y-107153511D01*
X139994366Y-107373302D01*
X139994364Y-107373313D01*
X139974532Y-107599998D01*
X139974532Y-107600001D01*
X139994364Y-107826686D01*
X139994366Y-107826697D01*
X140053258Y-108046488D01*
X140053261Y-108046497D01*
X140149431Y-108252732D01*
X140149432Y-108252734D01*
X140279954Y-108439141D01*
X140440858Y-108600045D01*
X140440861Y-108600047D01*
X140627266Y-108730568D01*
X140685275Y-108757618D01*
X140737714Y-108803791D01*
X140756866Y-108870984D01*
X140736650Y-108937865D01*
X140685275Y-108982382D01*
X140627267Y-109009431D01*
X140627265Y-109009432D01*
X140440858Y-109139954D01*
X140279954Y-109300858D01*
X140149432Y-109487265D01*
X140149431Y-109487267D01*
X140053261Y-109693502D01*
X140053258Y-109693511D01*
X139994366Y-109913302D01*
X139994364Y-109913313D01*
X139974532Y-110139998D01*
X139974532Y-110140001D01*
X139994364Y-110366686D01*
X139994366Y-110366697D01*
X140053258Y-110586488D01*
X140053261Y-110586497D01*
X140149431Y-110792732D01*
X140149432Y-110792734D01*
X140279954Y-110979141D01*
X140440858Y-111140045D01*
X140507509Y-111186714D01*
X140551134Y-111241290D01*
X140558328Y-111310788D01*
X140526806Y-111373143D01*
X140473741Y-111406528D01*
X140415238Y-111425010D01*
X140390485Y-111436930D01*
X140390485Y-111436931D01*
X141150591Y-112197037D01*
X141087007Y-112214075D01*
X140972993Y-112279901D01*
X140879901Y-112372993D01*
X140814075Y-112487007D01*
X140797037Y-112550590D01*
X140036789Y-111790342D01*
X140002836Y-111878611D01*
X140002836Y-111878613D01*
X139982518Y-111967625D01*
X139970801Y-112049114D01*
X139974587Y-112095391D01*
X139975000Y-112105500D01*
X139975000Y-112599755D01*
X139974220Y-112613641D01*
X139973114Y-112623455D01*
X139973114Y-112736544D01*
X139974220Y-112746358D01*
X139975000Y-112760245D01*
X139975000Y-113211048D01*
X139973738Y-113228694D01*
X139970802Y-113249115D01*
X139970801Y-113249118D01*
X139982518Y-113392373D01*
X140002833Y-113481375D01*
X140002834Y-113481382D01*
X140027634Y-113559880D01*
X140034631Y-113571813D01*
X140797037Y-112809409D01*
X140814075Y-112872993D01*
X140879901Y-112987007D01*
X140972993Y-113080099D01*
X141087007Y-113145925D01*
X141150590Y-113162962D01*
X140390485Y-113923067D01*
X140415234Y-113934986D01*
X140476968Y-113958733D01*
X140532471Y-114001173D01*
X140556218Y-114066883D01*
X140540670Y-114135001D01*
X140503574Y-114176041D01*
X140440856Y-114219956D01*
X140279954Y-114380858D01*
X140149432Y-114567265D01*
X140149431Y-114567267D01*
X140053261Y-114773502D01*
X140053258Y-114773511D01*
X139994366Y-114993302D01*
X139994364Y-114993313D01*
X139974532Y-115219998D01*
X139974532Y-115220001D01*
X139994364Y-115446686D01*
X139994366Y-115446697D01*
X140053258Y-115666488D01*
X140053261Y-115666497D01*
X140149431Y-115872732D01*
X140149432Y-115872734D01*
X140279954Y-116059141D01*
X140440857Y-116220044D01*
X140440860Y-116220046D01*
X140440861Y-116220047D01*
X140511483Y-116269497D01*
X140555108Y-116324072D01*
X140562302Y-116393570D01*
X140530780Y-116455925D01*
X140477251Y-116489456D01*
X140390396Y-116516521D01*
X140390394Y-116516521D01*
X140390394Y-116516522D01*
X140357838Y-116536203D01*
X140244811Y-116604530D01*
X140124530Y-116724811D01*
X140036522Y-116870393D01*
X139985913Y-117032807D01*
X139979500Y-117103386D01*
X139979500Y-118416613D01*
X139985913Y-118487192D01*
X139985913Y-118487194D01*
X139985914Y-118487196D01*
X140036522Y-118649606D01*
X140119871Y-118787482D01*
X140124530Y-118795188D01*
X140244811Y-118915469D01*
X140244813Y-118915470D01*
X140244815Y-118915472D01*
X140390394Y-119003478D01*
X140552804Y-119054086D01*
X140623384Y-119060500D01*
X140623387Y-119060500D01*
X141936613Y-119060500D01*
X141936616Y-119060500D01*
X142007196Y-119054086D01*
X142169606Y-119003478D01*
X142315185Y-118915472D01*
X142435472Y-118795185D01*
X142523478Y-118649606D01*
X142574086Y-118487196D01*
X142580500Y-118416616D01*
X142580500Y-117103384D01*
X142574086Y-117032804D01*
X142523478Y-116870394D01*
X142435472Y-116724815D01*
X142435470Y-116724813D01*
X142435469Y-116724811D01*
X142315188Y-116604530D01*
X142311635Y-116602382D01*
X142169606Y-116516522D01*
X142169604Y-116516521D01*
X142169602Y-116516520D01*
X142169603Y-116516520D01*
X142082749Y-116489456D01*
X142024601Y-116450719D01*
X141996627Y-116386694D01*
X142007709Y-116317708D01*
X142048513Y-116269498D01*
X142119139Y-116220047D01*
X142280047Y-116059139D01*
X142410568Y-115872734D01*
X142506739Y-115666496D01*
X142565635Y-115446692D01*
X142579344Y-115289999D01*
X145644341Y-115289999D01*
X145644341Y-115290000D01*
X145664936Y-115525403D01*
X145664938Y-115525413D01*
X145726094Y-115753655D01*
X145726096Y-115753659D01*
X145726097Y-115753663D01*
X145821816Y-115958933D01*
X145825965Y-115967830D01*
X145825967Y-115967834D01*
X145908634Y-116085894D01*
X145961501Y-116161396D01*
X145961506Y-116161402D01*
X146083430Y-116283326D01*
X146116915Y-116344649D01*
X146111931Y-116414341D01*
X146070059Y-116470274D01*
X146039083Y-116487189D01*
X145907669Y-116536203D01*
X145907664Y-116536206D01*
X145792455Y-116622452D01*
X145792452Y-116622455D01*
X145706206Y-116737664D01*
X145706202Y-116737671D01*
X145655908Y-116872517D01*
X145650569Y-116922184D01*
X145649501Y-116932123D01*
X145649500Y-116932135D01*
X145649500Y-118727870D01*
X145649501Y-118727876D01*
X145655908Y-118787483D01*
X145706202Y-118922328D01*
X145706206Y-118922335D01*
X145792452Y-119037544D01*
X145792455Y-119037547D01*
X145907664Y-119123793D01*
X145907671Y-119123797D01*
X146042517Y-119174091D01*
X146042516Y-119174091D01*
X146049444Y-119174835D01*
X146102127Y-119180500D01*
X147897872Y-119180499D01*
X147957483Y-119174091D01*
X148092331Y-119123796D01*
X148207546Y-119037546D01*
X148293796Y-118922331D01*
X148344091Y-118787483D01*
X148350500Y-118727873D01*
X148350499Y-116932128D01*
X148344091Y-116872517D01*
X148343299Y-116870394D01*
X148293797Y-116737671D01*
X148293793Y-116737664D01*
X148207547Y-116622455D01*
X148207544Y-116622452D01*
X148092335Y-116536206D01*
X148092328Y-116536202D01*
X147960917Y-116487189D01*
X147904983Y-116445318D01*
X147880566Y-116379853D01*
X147895418Y-116311580D01*
X147916563Y-116283332D01*
X148038495Y-116161401D01*
X148174035Y-115967830D01*
X148273903Y-115753663D01*
X148335063Y-115525408D01*
X148355659Y-115290000D01*
X148335063Y-115054592D01*
X148273903Y-114826337D01*
X148174035Y-114612171D01*
X148142593Y-114567266D01*
X148038494Y-114418597D01*
X147871402Y-114251506D01*
X147871401Y-114251505D01*
X147685405Y-114121269D01*
X147641781Y-114066692D01*
X147634588Y-113997193D01*
X147666110Y-113934839D01*
X147685405Y-113918119D01*
X147871082Y-113788105D01*
X148038105Y-113621082D01*
X148173600Y-113427578D01*
X148273429Y-113213492D01*
X148273432Y-113213486D01*
X148330636Y-113000000D01*
X147433012Y-113000000D01*
X147465925Y-112942993D01*
X147500000Y-112815826D01*
X147500000Y-112684174D01*
X147465925Y-112557007D01*
X147433012Y-112500000D01*
X148330636Y-112500000D01*
X148330635Y-112499999D01*
X148298136Y-112378711D01*
X155649500Y-112378711D01*
X155649500Y-112621288D01*
X155681161Y-112861785D01*
X155743947Y-113096104D01*
X155827566Y-113297977D01*
X155836776Y-113320212D01*
X155958064Y-113530289D01*
X155958066Y-113530292D01*
X155958067Y-113530293D01*
X156105733Y-113722736D01*
X156105739Y-113722743D01*
X156277256Y-113894260D01*
X156277263Y-113894266D01*
X156379475Y-113972696D01*
X156469711Y-114041936D01*
X156679788Y-114163224D01*
X156903900Y-114256054D01*
X157138211Y-114318838D01*
X157318586Y-114342584D01*
X157378711Y-114350500D01*
X157378712Y-114350500D01*
X157621289Y-114350500D01*
X157669388Y-114344167D01*
X157861789Y-114318838D01*
X158096100Y-114256054D01*
X158320212Y-114163224D01*
X158530289Y-114041936D01*
X158722738Y-113894265D01*
X158894265Y-113722738D01*
X159041936Y-113530289D01*
X159163224Y-113320212D01*
X159256054Y-113096100D01*
X159318838Y-112861789D01*
X159350500Y-112621288D01*
X159350500Y-112378712D01*
X159318838Y-112138211D01*
X159256054Y-111903900D01*
X159163224Y-111679788D01*
X159041936Y-111469711D01*
X158940590Y-111337634D01*
X158894266Y-111277263D01*
X158894260Y-111277256D01*
X158722743Y-111105739D01*
X158722736Y-111105733D01*
X158530293Y-110958067D01*
X158530292Y-110958066D01*
X158530289Y-110958064D01*
X158320212Y-110836776D01*
X158320205Y-110836773D01*
X158096104Y-110743947D01*
X157861785Y-110681161D01*
X157621289Y-110649500D01*
X157621288Y-110649500D01*
X157378712Y-110649500D01*
X157378711Y-110649500D01*
X157138214Y-110681161D01*
X156903895Y-110743947D01*
X156679794Y-110836773D01*
X156679785Y-110836777D01*
X156469706Y-110958067D01*
X156277263Y-111105733D01*
X156277256Y-111105739D01*
X156105739Y-111277256D01*
X156105733Y-111277263D01*
X155958067Y-111469706D01*
X155836777Y-111679785D01*
X155836773Y-111679794D01*
X155743947Y-111903895D01*
X155681161Y-112138214D01*
X155649500Y-112378711D01*
X148298136Y-112378711D01*
X148273432Y-112286513D01*
X148273429Y-112286507D01*
X148173600Y-112072422D01*
X148173599Y-112072420D01*
X148038113Y-111878926D01*
X148038108Y-111878920D01*
X147871082Y-111711894D01*
X147677578Y-111576399D01*
X147463492Y-111476570D01*
X147463486Y-111476567D01*
X147250000Y-111419364D01*
X147250000Y-112316988D01*
X147192993Y-112284075D01*
X147065826Y-112250000D01*
X146934174Y-112250000D01*
X146807007Y-112284075D01*
X146750000Y-112316988D01*
X146750000Y-111419364D01*
X146749999Y-111419364D01*
X146536513Y-111476567D01*
X146536507Y-111476570D01*
X146322422Y-111576399D01*
X146322420Y-111576400D01*
X146128926Y-111711886D01*
X146128920Y-111711891D01*
X145961891Y-111878920D01*
X145961886Y-111878926D01*
X145826400Y-112072420D01*
X145826399Y-112072422D01*
X145726570Y-112286507D01*
X145726567Y-112286513D01*
X145669364Y-112499999D01*
X145669364Y-112500000D01*
X146566988Y-112500000D01*
X146534075Y-112557007D01*
X146500000Y-112684174D01*
X146500000Y-112815826D01*
X146534075Y-112942993D01*
X146566988Y-113000000D01*
X145669364Y-113000000D01*
X145726567Y-113213486D01*
X145726570Y-113213492D01*
X145826399Y-113427578D01*
X145961894Y-113621082D01*
X146128917Y-113788105D01*
X146314595Y-113918119D01*
X146358219Y-113972696D01*
X146365412Y-114042195D01*
X146333890Y-114104549D01*
X146314595Y-114121269D01*
X146128594Y-114251508D01*
X145961505Y-114418597D01*
X145825965Y-114612169D01*
X145825964Y-114612171D01*
X145726098Y-114826335D01*
X145726094Y-114826344D01*
X145664938Y-115054586D01*
X145664936Y-115054596D01*
X145644341Y-115289999D01*
X142579344Y-115289999D01*
X142585468Y-115220000D01*
X142585126Y-115216096D01*
X142570997Y-115054596D01*
X142565635Y-114993308D01*
X142506739Y-114773504D01*
X142410568Y-114567266D01*
X142280047Y-114380861D01*
X142280045Y-114380858D01*
X142119141Y-114219954D01*
X141932734Y-114089432D01*
X141932732Y-114089431D01*
X141881607Y-114065591D01*
X141829168Y-114019418D01*
X141810016Y-113952225D01*
X141830232Y-113885344D01*
X141880212Y-113841488D01*
X141897977Y-113832933D01*
X142009379Y-113762933D01*
X141409410Y-113162962D01*
X141472993Y-113145925D01*
X141587007Y-113080099D01*
X141680099Y-112987007D01*
X141745925Y-112872993D01*
X141762962Y-112809409D01*
X142362933Y-113409380D01*
X142432932Y-113297977D01*
X142481997Y-113196094D01*
X142541538Y-113025933D01*
X142541540Y-113025927D01*
X142566701Y-112915689D01*
X142566703Y-112915673D01*
X142586886Y-112736547D01*
X142586887Y-112736547D01*
X142586887Y-112623453D01*
X142586886Y-112623452D01*
X142566703Y-112444326D01*
X142566701Y-112444310D01*
X142541540Y-112334072D01*
X142541538Y-112334066D01*
X142481999Y-112163909D01*
X142432926Y-112062011D01*
X142362932Y-111950619D01*
X141762962Y-112550589D01*
X141745925Y-112487007D01*
X141680099Y-112372993D01*
X141587007Y-112279901D01*
X141472993Y-112214075D01*
X141409409Y-112197037D01*
X142009380Y-111597065D01*
X142009379Y-111597064D01*
X141897981Y-111527069D01*
X141897978Y-111527067D01*
X141880208Y-111518509D01*
X141828349Y-111471685D01*
X141810038Y-111404257D01*
X141831088Y-111337634D01*
X141881603Y-111294410D01*
X141932734Y-111270568D01*
X142119139Y-111140047D01*
X142280047Y-110979139D01*
X142410568Y-110792734D01*
X142506739Y-110586496D01*
X142565635Y-110366692D01*
X142585468Y-110140000D01*
X142565635Y-109913308D01*
X142506739Y-109693504D01*
X142410568Y-109487266D01*
X142280047Y-109300861D01*
X142280045Y-109300858D01*
X142119141Y-109139954D01*
X141932734Y-109009432D01*
X141932728Y-109009429D01*
X141874725Y-108982382D01*
X141822285Y-108936210D01*
X141803133Y-108869017D01*
X141823348Y-108802135D01*
X141874725Y-108757618D01*
X141932734Y-108730568D01*
X142119139Y-108600047D01*
X142280047Y-108439139D01*
X142410568Y-108252734D01*
X142506739Y-108046496D01*
X142565635Y-107826692D01*
X142585468Y-107600000D01*
X142565635Y-107373308D01*
X142506739Y-107153504D01*
X142410568Y-106947266D01*
X142280047Y-106760861D01*
X142280045Y-106760858D01*
X142119141Y-106599954D01*
X141932734Y-106469432D01*
X141932728Y-106469429D01*
X141874725Y-106442382D01*
X141822285Y-106396210D01*
X141803133Y-106329017D01*
X141823348Y-106262135D01*
X141874725Y-106217618D01*
X141932734Y-106190568D01*
X142119139Y-106060047D01*
X142280047Y-105899139D01*
X142410568Y-105712734D01*
X142506739Y-105506496D01*
X142565635Y-105286692D01*
X142585468Y-105060000D01*
X142565635Y-104833308D01*
X142506739Y-104613504D01*
X142410568Y-104407266D01*
X142280047Y-104220861D01*
X142280045Y-104220858D01*
X142119141Y-104059954D01*
X141932734Y-103929432D01*
X141932728Y-103929429D01*
X141874725Y-103902382D01*
X141822285Y-103856210D01*
X141803133Y-103789017D01*
X141823348Y-103722135D01*
X141874725Y-103677618D01*
X141932734Y-103650568D01*
X142119139Y-103520047D01*
X142280047Y-103359139D01*
X142410568Y-103172734D01*
X142506739Y-102966496D01*
X142565635Y-102746692D01*
X142585468Y-102520000D01*
X142565635Y-102293308D01*
X142506739Y-102073504D01*
X142410568Y-101867266D01*
X142280047Y-101680861D01*
X142280045Y-101680858D01*
X142119141Y-101519954D01*
X141932734Y-101389432D01*
X141932732Y-101389431D01*
X141881607Y-101365591D01*
X141829168Y-101319418D01*
X141810016Y-101252225D01*
X141830232Y-101185344D01*
X141880212Y-101141488D01*
X141897977Y-101132933D01*
X142009379Y-101062933D01*
X141409410Y-100462962D01*
X141472993Y-100445925D01*
X141587007Y-100380099D01*
X141680099Y-100287007D01*
X141745925Y-100172993D01*
X141762962Y-100109409D01*
X142362933Y-100709380D01*
X142432932Y-100597977D01*
X142481997Y-100496094D01*
X142541538Y-100325933D01*
X142541540Y-100325927D01*
X142566701Y-100215689D01*
X142566703Y-100215673D01*
X142586886Y-100036547D01*
X142586887Y-100036547D01*
X142586887Y-99923453D01*
X142586886Y-99923452D01*
X142566703Y-99744326D01*
X142566701Y-99744310D01*
X142541540Y-99634072D01*
X142541538Y-99634066D01*
X142481999Y-99463909D01*
X142432926Y-99362011D01*
X142362932Y-99250619D01*
X141762962Y-99850589D01*
X141745925Y-99787007D01*
X141680099Y-99672993D01*
X141587007Y-99579901D01*
X141472993Y-99514075D01*
X141409409Y-99497037D01*
X142009380Y-98897065D01*
X142009379Y-98897064D01*
X141897981Y-98827069D01*
X141897978Y-98827067D01*
X141880208Y-98818509D01*
X141828349Y-98771685D01*
X141810038Y-98704257D01*
X141831088Y-98637634D01*
X141881603Y-98594410D01*
X141932734Y-98570568D01*
X142119139Y-98440047D01*
X142280047Y-98279139D01*
X142410568Y-98092734D01*
X142506739Y-97886496D01*
X142565635Y-97666692D01*
X142585468Y-97440000D01*
X142565635Y-97213308D01*
X142506739Y-96993504D01*
X142410568Y-96787266D01*
X142280047Y-96600861D01*
X142280045Y-96600858D01*
X142119141Y-96439954D01*
X141932734Y-96309432D01*
X141932728Y-96309429D01*
X141874725Y-96282382D01*
X141822285Y-96236210D01*
X141803133Y-96169017D01*
X141823348Y-96102135D01*
X141874725Y-96057618D01*
X141932734Y-96030568D01*
X142119139Y-95900047D01*
X142280047Y-95739139D01*
X142410568Y-95552734D01*
X142506739Y-95346496D01*
X142565635Y-95126692D01*
X142585468Y-94900000D01*
X142565635Y-94673308D01*
X142506739Y-94453504D01*
X142410568Y-94247266D01*
X142280047Y-94060861D01*
X142280045Y-94060858D01*
X142119141Y-93899954D01*
X141932734Y-93769432D01*
X141932728Y-93769429D01*
X141874725Y-93742382D01*
X141822285Y-93696210D01*
X141803133Y-93629017D01*
X141823348Y-93562135D01*
X141874725Y-93517618D01*
X141932734Y-93490568D01*
X142119139Y-93360047D01*
X142280047Y-93199139D01*
X142410568Y-93012734D01*
X142506739Y-92806496D01*
X142565635Y-92586692D01*
X142585468Y-92360000D01*
X142565635Y-92133308D01*
X142506739Y-91913504D01*
X142410568Y-91707266D01*
X142280047Y-91520861D01*
X142280045Y-91520858D01*
X142119141Y-91359954D01*
X141932734Y-91229432D01*
X141932728Y-91229429D01*
X141874725Y-91202382D01*
X141822285Y-91156210D01*
X141803133Y-91089017D01*
X141823348Y-91022135D01*
X141874725Y-90977618D01*
X141932734Y-90950568D01*
X142119139Y-90820047D01*
X142280047Y-90659139D01*
X142410568Y-90472734D01*
X142506739Y-90266496D01*
X142565635Y-90046692D01*
X142585468Y-89820000D01*
X142565635Y-89593308D01*
X142506739Y-89373504D01*
X142410568Y-89167266D01*
X142280047Y-88980861D01*
X142280045Y-88980858D01*
X142119141Y-88819954D01*
X141932734Y-88689432D01*
X141932732Y-88689431D01*
X141881607Y-88665591D01*
X141829168Y-88619418D01*
X141810016Y-88552225D01*
X141830232Y-88485344D01*
X141880212Y-88441488D01*
X141897977Y-88432933D01*
X142009379Y-88362933D01*
X141409410Y-87762962D01*
X141472993Y-87745925D01*
X141587007Y-87680099D01*
X141680099Y-87587007D01*
X141745925Y-87472993D01*
X141762962Y-87409409D01*
X142362933Y-88009380D01*
X142432932Y-87897977D01*
X142481997Y-87796094D01*
X142541538Y-87625933D01*
X142541540Y-87625927D01*
X142566701Y-87515689D01*
X142566703Y-87515673D01*
X142586886Y-87336547D01*
X142586887Y-87336547D01*
X142586887Y-87223453D01*
X142586886Y-87223452D01*
X142566703Y-87044326D01*
X142566701Y-87044310D01*
X142541540Y-86934072D01*
X142541538Y-86934066D01*
X142481999Y-86763909D01*
X142432926Y-86662011D01*
X142362932Y-86550619D01*
X141762962Y-87150589D01*
X141745925Y-87087007D01*
X141680099Y-86972993D01*
X141587007Y-86879901D01*
X141472993Y-86814075D01*
X141409409Y-86797037D01*
X142009380Y-86197065D01*
X142009379Y-86197064D01*
X141897981Y-86127069D01*
X141897978Y-86127067D01*
X141880208Y-86118509D01*
X141828349Y-86071685D01*
X141810038Y-86004257D01*
X141831088Y-85937634D01*
X141881603Y-85894410D01*
X141932734Y-85870568D01*
X142119139Y-85740047D01*
X142280047Y-85579139D01*
X142410568Y-85392734D01*
X142506739Y-85186496D01*
X142565635Y-84966692D01*
X142585468Y-84740000D01*
X142565635Y-84513308D01*
X142506739Y-84293504D01*
X142410568Y-84087266D01*
X142280047Y-83900861D01*
X142280045Y-83900858D01*
X142119141Y-83739954D01*
X141932734Y-83609432D01*
X141932728Y-83609429D01*
X141874725Y-83582382D01*
X141822285Y-83536210D01*
X141803133Y-83469017D01*
X141823348Y-83402135D01*
X141874725Y-83357618D01*
X141932734Y-83330568D01*
X142119139Y-83200047D01*
X142280047Y-83039139D01*
X142410568Y-82852734D01*
X142506739Y-82646496D01*
X142565635Y-82426692D01*
X142585468Y-82200000D01*
X142565635Y-81973308D01*
X142506739Y-81753504D01*
X142410568Y-81547266D01*
X142280047Y-81360861D01*
X142280045Y-81360858D01*
X142119141Y-81199954D01*
X141932734Y-81069432D01*
X141932728Y-81069429D01*
X141874725Y-81042382D01*
X141822285Y-80996210D01*
X141803133Y-80929017D01*
X141823348Y-80862135D01*
X141874725Y-80817618D01*
X141932734Y-80790568D01*
X142119139Y-80660047D01*
X142280047Y-80499139D01*
X142410568Y-80312734D01*
X142506739Y-80106496D01*
X142565635Y-79886692D01*
X142585468Y-79660000D01*
X142584593Y-79650003D01*
X142584592Y-79649996D01*
X143743700Y-79649996D01*
X143743700Y-79650003D01*
X143763895Y-79829249D01*
X143763896Y-79829254D01*
X143823476Y-79999523D01*
X143890687Y-80106488D01*
X143919449Y-80152262D01*
X144047003Y-80279816D01*
X144199743Y-80375789D01*
X144370010Y-80435368D01*
X144438649Y-80443101D01*
X144503061Y-80470166D01*
X144542617Y-80527760D01*
X144548765Y-80566321D01*
X144548765Y-81467059D01*
X144529080Y-81534098D01*
X144512447Y-81554740D01*
X144419448Y-81647739D01*
X144323476Y-81800476D01*
X144263896Y-81970745D01*
X144263895Y-81970750D01*
X144243700Y-82149996D01*
X144243700Y-82150003D01*
X144263895Y-82329249D01*
X144263896Y-82329254D01*
X144323476Y-82499523D01*
X144419451Y-82652265D01*
X144423360Y-82657167D01*
X144449767Y-82721854D01*
X144437009Y-82790549D01*
X144414094Y-82822157D01*
X144388512Y-82847739D01*
X144292540Y-83000476D01*
X144232960Y-83170745D01*
X144232959Y-83170750D01*
X144212764Y-83349996D01*
X144212764Y-83350003D01*
X144232959Y-83529249D01*
X144232960Y-83529254D01*
X144292540Y-83699523D01*
X144380041Y-83838779D01*
X144388513Y-83852262D01*
X144516067Y-83979816D01*
X144668807Y-84075789D01*
X144736635Y-84099523D01*
X144839074Y-84135368D01*
X144839079Y-84135369D01*
X145018325Y-84155565D01*
X145018329Y-84155565D01*
X145018333Y-84155565D01*
X145197578Y-84135369D01*
X145197581Y-84135368D01*
X145197584Y-84135368D01*
X145367851Y-84075789D01*
X145520591Y-83979816D01*
X145648145Y-83852262D01*
X145744118Y-83699522D01*
X145803697Y-83529255D01*
X145813490Y-83442329D01*
X145840555Y-83377918D01*
X145849019Y-83368543D01*
X146108506Y-83109057D01*
X146108511Y-83109053D01*
X146118714Y-83098849D01*
X146118716Y-83098849D01*
X146230520Y-82987045D01*
X146308058Y-82852745D01*
X146308064Y-82852735D01*
X146309575Y-82850117D01*
X146309577Y-82850114D01*
X146350500Y-82697386D01*
X146350500Y-82539272D01*
X146350500Y-81249996D01*
X149144432Y-81249996D01*
X149144432Y-81250003D01*
X149164627Y-81429249D01*
X149164628Y-81429254D01*
X149224208Y-81599523D01*
X149320181Y-81752262D01*
X149363181Y-81795262D01*
X149396666Y-81856585D01*
X149399500Y-81882943D01*
X149399500Y-84793027D01*
X149380494Y-84858999D01*
X149323474Y-84949746D01*
X149263898Y-85120002D01*
X149263895Y-85120015D01*
X149243700Y-85299258D01*
X149243700Y-85299268D01*
X149263895Y-85478514D01*
X149263896Y-85478519D01*
X149323476Y-85648788D01*
X149403034Y-85775403D01*
X149419449Y-85801527D01*
X149547003Y-85929081D01*
X149617127Y-85973143D01*
X149679018Y-86012032D01*
X149699743Y-86025054D01*
X149733683Y-86036930D01*
X149870010Y-86084633D01*
X149870015Y-86084634D01*
X150049261Y-86104830D01*
X150049265Y-86104830D01*
X150049269Y-86104830D01*
X150228514Y-86084634D01*
X150228517Y-86084633D01*
X150228520Y-86084633D01*
X150398787Y-86025054D01*
X150551527Y-85929081D01*
X150679081Y-85801527D01*
X150775054Y-85648787D01*
X150834633Y-85478520D01*
X150844299Y-85392732D01*
X150854830Y-85299268D01*
X150854830Y-85299258D01*
X150834634Y-85120015D01*
X150834633Y-85120010D01*
X150780986Y-84966697D01*
X150775054Y-84949743D01*
X150679081Y-84797003D01*
X150648558Y-84766480D01*
X150615073Y-84705157D01*
X150620057Y-84635465D01*
X150661929Y-84579532D01*
X150727393Y-84555115D01*
X150749439Y-84555565D01*
X150750000Y-84555565D01*
X150750004Y-84555565D01*
X150929249Y-84535369D01*
X150929252Y-84535368D01*
X150929255Y-84535368D01*
X151099522Y-84475789D01*
X151252262Y-84379816D01*
X151379816Y-84252262D01*
X151475789Y-84099522D01*
X151535368Y-83929255D01*
X151537454Y-83910742D01*
X151555565Y-83750003D01*
X151555565Y-83749996D01*
X151535369Y-83570750D01*
X151535368Y-83570745D01*
X151497898Y-83463663D01*
X151475789Y-83400478D01*
X151474995Y-83399215D01*
X151379813Y-83247734D01*
X151377550Y-83244896D01*
X151376659Y-83242715D01*
X151376111Y-83241842D01*
X151376264Y-83241745D01*
X151351144Y-83180209D01*
X151350500Y-83167587D01*
X151350500Y-82999999D01*
X156644341Y-82999999D01*
X156644341Y-83000000D01*
X156664936Y-83235403D01*
X156664938Y-83235413D01*
X156726094Y-83463655D01*
X156726096Y-83463659D01*
X156726097Y-83463663D01*
X156806004Y-83635023D01*
X156825965Y-83677830D01*
X156825967Y-83677834D01*
X156930043Y-83826468D01*
X156961501Y-83871396D01*
X156961506Y-83871402D01*
X157128597Y-84038493D01*
X157128603Y-84038498D01*
X157314158Y-84168425D01*
X157357783Y-84223002D01*
X157364977Y-84292500D01*
X157333454Y-84354855D01*
X157314158Y-84371575D01*
X157128597Y-84501505D01*
X156961505Y-84668597D01*
X156825965Y-84862169D01*
X156825964Y-84862171D01*
X156726098Y-85076335D01*
X156726094Y-85076344D01*
X156664938Y-85304586D01*
X156664936Y-85304596D01*
X156644341Y-85539999D01*
X156644341Y-85540000D01*
X156664936Y-85775403D01*
X156664938Y-85775413D01*
X156726094Y-86003655D01*
X156726096Y-86003659D01*
X156726097Y-86003663D01*
X156806004Y-86175023D01*
X156825965Y-86217830D01*
X156825967Y-86217834D01*
X156934281Y-86372521D01*
X156961501Y-86411396D01*
X156961506Y-86411402D01*
X157128597Y-86578493D01*
X157128603Y-86578498D01*
X157314158Y-86708425D01*
X157357783Y-86763002D01*
X157364977Y-86832500D01*
X157333454Y-86894855D01*
X157314158Y-86911575D01*
X157128597Y-87041505D01*
X156961505Y-87208597D01*
X156825965Y-87402169D01*
X156825964Y-87402171D01*
X156726098Y-87616335D01*
X156726094Y-87616344D01*
X156664938Y-87844586D01*
X156664936Y-87844596D01*
X156644341Y-88079999D01*
X156644341Y-88080000D01*
X156664936Y-88315403D01*
X156664938Y-88315413D01*
X156726094Y-88543655D01*
X156726096Y-88543659D01*
X156726097Y-88543663D01*
X156794071Y-88689433D01*
X156825965Y-88757830D01*
X156825967Y-88757834D01*
X156869466Y-88819956D01*
X156961501Y-88951396D01*
X156961506Y-88951402D01*
X157128597Y-89118493D01*
X157128603Y-89118498D01*
X157314158Y-89248425D01*
X157357783Y-89303002D01*
X157364977Y-89372500D01*
X157333454Y-89434855D01*
X157314158Y-89451575D01*
X157128597Y-89581505D01*
X156961505Y-89748597D01*
X156825965Y-89942169D01*
X156825964Y-89942171D01*
X156726098Y-90156335D01*
X156726094Y-90156344D01*
X156664938Y-90384586D01*
X156664936Y-90384596D01*
X156644341Y-90619999D01*
X156644341Y-90620000D01*
X156664936Y-90855403D01*
X156664938Y-90855413D01*
X156726094Y-91083655D01*
X156726096Y-91083659D01*
X156726097Y-91083663D01*
X156806004Y-91255023D01*
X156825965Y-91297830D01*
X156825967Y-91297834D01*
X156934281Y-91452521D01*
X156961501Y-91491396D01*
X156961506Y-91491402D01*
X157128597Y-91658493D01*
X157128603Y-91658498D01*
X157314158Y-91788425D01*
X157357783Y-91843002D01*
X157364977Y-91912500D01*
X157333454Y-91974855D01*
X157314158Y-91991575D01*
X157128597Y-92121505D01*
X156961505Y-92288597D01*
X156825965Y-92482169D01*
X156825964Y-92482171D01*
X156726098Y-92696335D01*
X156726094Y-92696344D01*
X156664938Y-92924586D01*
X156664936Y-92924596D01*
X156644341Y-93159999D01*
X156644341Y-93160000D01*
X156664936Y-93395403D01*
X156664938Y-93395413D01*
X156726094Y-93623655D01*
X156726096Y-93623659D01*
X156726097Y-93623663D01*
X156806004Y-93795023D01*
X156825965Y-93837830D01*
X156825967Y-93837834D01*
X156932670Y-93990220D01*
X156961505Y-94031401D01*
X157128599Y-94198495D01*
X157171675Y-94228657D01*
X157322165Y-94334032D01*
X157322167Y-94334033D01*
X157322170Y-94334035D01*
X157536337Y-94433903D01*
X157764592Y-94495063D01*
X157941034Y-94510500D01*
X157999999Y-94515659D01*
X158000000Y-94515659D01*
X158000001Y-94515659D01*
X158058966Y-94510500D01*
X158235408Y-94495063D01*
X158463663Y-94433903D01*
X158677830Y-94334035D01*
X158871401Y-94198495D01*
X159038495Y-94031401D01*
X159038504Y-94031388D01*
X159039636Y-94030040D01*
X159040293Y-94029602D01*
X159042323Y-94027573D01*
X159042730Y-94027980D01*
X159097805Y-93991334D01*
X159167666Y-93990220D01*
X159227038Y-94027053D01*
X159252335Y-94070733D01*
X159255186Y-94079334D01*
X159347288Y-94228656D01*
X159471344Y-94352712D01*
X159620666Y-94444814D01*
X159787203Y-94499999D01*
X159889991Y-94510500D01*
X161190008Y-94510499D01*
X161292797Y-94499999D01*
X161459334Y-94444814D01*
X161608656Y-94352712D01*
X161732712Y-94228656D01*
X161824814Y-94079334D01*
X161879999Y-93912797D01*
X161890500Y-93810009D01*
X161890499Y-92509992D01*
X161879999Y-92407203D01*
X161824814Y-92240666D01*
X161732712Y-92091344D01*
X161608656Y-91967288D01*
X161515888Y-91910069D01*
X161459336Y-91875187D01*
X161459331Y-91875185D01*
X161459215Y-91875146D01*
X161450733Y-91872336D01*
X161393290Y-91832564D01*
X161366467Y-91768048D01*
X161378782Y-91699272D01*
X161407767Y-91662517D01*
X161407573Y-91662323D01*
X161409219Y-91660676D01*
X161410040Y-91659636D01*
X161411388Y-91658504D01*
X161411401Y-91658495D01*
X161578495Y-91491401D01*
X161714035Y-91297830D01*
X161813903Y-91083663D01*
X161875063Y-90855408D01*
X161895659Y-90620000D01*
X161893867Y-90599523D01*
X161891539Y-90572918D01*
X161875063Y-90384592D01*
X161813903Y-90156337D01*
X161714035Y-89942171D01*
X161708425Y-89934158D01*
X161578494Y-89748597D01*
X161411402Y-89581506D01*
X161411396Y-89581501D01*
X161225842Y-89451575D01*
X161182217Y-89396998D01*
X161175023Y-89327500D01*
X161206546Y-89265145D01*
X161225842Y-89248425D01*
X161341747Y-89167267D01*
X161411401Y-89118495D01*
X161578495Y-88951401D01*
X161714035Y-88757830D01*
X161813903Y-88543663D01*
X161875063Y-88315408D01*
X161895659Y-88080000D01*
X161875063Y-87844592D01*
X161813903Y-87616337D01*
X161714035Y-87402171D01*
X161708425Y-87394158D01*
X161578494Y-87208597D01*
X161411402Y-87041506D01*
X161411396Y-87041501D01*
X161225842Y-86911575D01*
X161182217Y-86856998D01*
X161175023Y-86787500D01*
X161206546Y-86725145D01*
X161225842Y-86708425D01*
X161292128Y-86662011D01*
X161411401Y-86578495D01*
X161578495Y-86411401D01*
X161714035Y-86217830D01*
X161813903Y-86003663D01*
X161875063Y-85775408D01*
X161895659Y-85540000D01*
X161875063Y-85304592D01*
X161813903Y-85076337D01*
X161714035Y-84862171D01*
X161708425Y-84854158D01*
X161578494Y-84668597D01*
X161411402Y-84501506D01*
X161411396Y-84501501D01*
X161225842Y-84371575D01*
X161182217Y-84316998D01*
X161175023Y-84247500D01*
X161206546Y-84185145D01*
X161225842Y-84168425D01*
X161341747Y-84087267D01*
X161411401Y-84038495D01*
X161578495Y-83871401D01*
X161714035Y-83677830D01*
X161813903Y-83463663D01*
X161875063Y-83235408D01*
X161895659Y-83000000D01*
X161875063Y-82764592D01*
X161828626Y-82591285D01*
X161813905Y-82536344D01*
X161813904Y-82536343D01*
X161813903Y-82536337D01*
X161714035Y-82322171D01*
X161708425Y-82314158D01*
X161578494Y-82128597D01*
X161411402Y-81961506D01*
X161411395Y-81961501D01*
X161217834Y-81825967D01*
X161217830Y-81825965D01*
X161087890Y-81765373D01*
X161003663Y-81726097D01*
X161003659Y-81726096D01*
X161003655Y-81726094D01*
X160775413Y-81664938D01*
X160775403Y-81664936D01*
X160540001Y-81644341D01*
X160539999Y-81644341D01*
X160304596Y-81664936D01*
X160304586Y-81664938D01*
X160076344Y-81726094D01*
X160076335Y-81726098D01*
X159862171Y-81825964D01*
X159862169Y-81825965D01*
X159668597Y-81961505D01*
X159501505Y-82128597D01*
X159371575Y-82314158D01*
X159316998Y-82357783D01*
X159247500Y-82364977D01*
X159185145Y-82333454D01*
X159168425Y-82314158D01*
X159038494Y-82128597D01*
X158871402Y-81961506D01*
X158871395Y-81961501D01*
X158677834Y-81825967D01*
X158677830Y-81825965D01*
X158547890Y-81765373D01*
X158463663Y-81726097D01*
X158463659Y-81726096D01*
X158463655Y-81726094D01*
X158235413Y-81664938D01*
X158235403Y-81664936D01*
X158000001Y-81644341D01*
X157999999Y-81644341D01*
X157764596Y-81664936D01*
X157764586Y-81664938D01*
X157536344Y-81726094D01*
X157536335Y-81726098D01*
X157322171Y-81825964D01*
X157322169Y-81825965D01*
X157128597Y-81961505D01*
X156961505Y-82128597D01*
X156825965Y-82322169D01*
X156825964Y-82322171D01*
X156726098Y-82536335D01*
X156726094Y-82536344D01*
X156664938Y-82764586D01*
X156664936Y-82764596D01*
X156644341Y-82999999D01*
X151350500Y-82999999D01*
X151350500Y-81832412D01*
X151370185Y-81765373D01*
X151377555Y-81755097D01*
X151379810Y-81752267D01*
X151379816Y-81752262D01*
X151475789Y-81599522D01*
X151535368Y-81429255D01*
X151543074Y-81360861D01*
X151555565Y-81250003D01*
X151555565Y-81249996D01*
X151535369Y-81070750D01*
X151535368Y-81070745D01*
X151501257Y-80973261D01*
X151475789Y-80900478D01*
X151451696Y-80862135D01*
X151436582Y-80838080D01*
X151379816Y-80747738D01*
X151252262Y-80620184D01*
X151166540Y-80566321D01*
X151099523Y-80524211D01*
X150929254Y-80464631D01*
X150929249Y-80464630D01*
X150750004Y-80444435D01*
X150749996Y-80444435D01*
X150570750Y-80464630D01*
X150570737Y-80464633D01*
X150393906Y-80526510D01*
X150393157Y-80524369D01*
X150334821Y-80533958D01*
X150306405Y-80525611D01*
X150306091Y-80526510D01*
X150129259Y-80464633D01*
X150129246Y-80464630D01*
X149950001Y-80444435D01*
X149949993Y-80444435D01*
X149770747Y-80464630D01*
X149770742Y-80464631D01*
X149600473Y-80524211D01*
X149447734Y-80620184D01*
X149320181Y-80747737D01*
X149224208Y-80900476D01*
X149164628Y-81070745D01*
X149164627Y-81070750D01*
X149144432Y-81249996D01*
X146350500Y-81249996D01*
X146350500Y-78631466D01*
X146370185Y-78564427D01*
X146386819Y-78543785D01*
X147010394Y-77920210D01*
X147780517Y-77150088D01*
X147859574Y-77013156D01*
X147900498Y-76860429D01*
X147900498Y-76702314D01*
X147900498Y-76694719D01*
X147900497Y-76694701D01*
X147900497Y-76585175D01*
X147920182Y-76518136D01*
X147927552Y-76507860D01*
X147929807Y-76505030D01*
X147929813Y-76505025D01*
X148025786Y-76352285D01*
X148085365Y-76182018D01*
X148085366Y-76182012D01*
X148105562Y-76002766D01*
X148105562Y-76002759D01*
X148085366Y-75823513D01*
X148085365Y-75823508D01*
X148025785Y-75653239D01*
X147929812Y-75500500D01*
X147802259Y-75372947D01*
X147649520Y-75276974D01*
X147479251Y-75217394D01*
X147479246Y-75217393D01*
X147300001Y-75197198D01*
X147299993Y-75197198D01*
X147120747Y-75217393D01*
X147120734Y-75217396D01*
X146943903Y-75279273D01*
X146942923Y-75276474D01*
X146886479Y-75285182D01*
X146856227Y-75276133D01*
X146856095Y-75276511D01*
X146679254Y-75214631D01*
X146679249Y-75214630D01*
X146500004Y-75194435D01*
X146499996Y-75194435D01*
X146320750Y-75214630D01*
X146320737Y-75214633D01*
X146143906Y-75276510D01*
X146143157Y-75274369D01*
X146084821Y-75283958D01*
X146056405Y-75275611D01*
X146056091Y-75276510D01*
X145879259Y-75214633D01*
X145879246Y-75214630D01*
X145700001Y-75194435D01*
X145699993Y-75194435D01*
X145520747Y-75214630D01*
X145520742Y-75214631D01*
X145350473Y-75274211D01*
X145197734Y-75370184D01*
X145070181Y-75497737D01*
X144974208Y-75650476D01*
X144914628Y-75820745D01*
X144914627Y-75820750D01*
X144894432Y-75999996D01*
X144894432Y-76000003D01*
X144914627Y-76179249D01*
X144914628Y-76179254D01*
X144974208Y-76349523D01*
X145070182Y-76502263D01*
X145072442Y-76505097D01*
X145073331Y-76507275D01*
X145073886Y-76508158D01*
X145073731Y-76508255D01*
X145098852Y-76569783D01*
X145099497Y-76582412D01*
X145099497Y-76949902D01*
X145079812Y-77016941D01*
X145063178Y-77037583D01*
X144068746Y-78032014D01*
X144068744Y-78032017D01*
X144018626Y-78118826D01*
X144018624Y-78118828D01*
X143989690Y-78168941D01*
X143989689Y-78168942D01*
X143989688Y-78168947D01*
X143948764Y-78321675D01*
X143948764Y-78321677D01*
X143948764Y-78489778D01*
X143948765Y-78489791D01*
X143948765Y-79067587D01*
X143929080Y-79134626D01*
X143921715Y-79144896D01*
X143919451Y-79147734D01*
X143823476Y-79300476D01*
X143763896Y-79470745D01*
X143763895Y-79470750D01*
X143743700Y-79649996D01*
X142584592Y-79649996D01*
X142579801Y-79595230D01*
X142565635Y-79433308D01*
X142506739Y-79213504D01*
X142410568Y-79007266D01*
X142280047Y-78820861D01*
X142280045Y-78820858D01*
X142119141Y-78659954D01*
X141932734Y-78529432D01*
X141932728Y-78529429D01*
X141874725Y-78502382D01*
X141822285Y-78456210D01*
X141803133Y-78389017D01*
X141823348Y-78322135D01*
X141874725Y-78277618D01*
X141932734Y-78250568D01*
X142119139Y-78120047D01*
X142280047Y-77959139D01*
X142410568Y-77772734D01*
X142506739Y-77566496D01*
X142565635Y-77346692D01*
X142585468Y-77120000D01*
X142565635Y-76893308D01*
X142506739Y-76673504D01*
X142410568Y-76467266D01*
X142280047Y-76280861D01*
X142280045Y-76280858D01*
X142119141Y-76119954D01*
X141932734Y-75989432D01*
X141932732Y-75989431D01*
X141881607Y-75965591D01*
X141829168Y-75919418D01*
X141810016Y-75852225D01*
X141830232Y-75785344D01*
X141880212Y-75741488D01*
X141897977Y-75732933D01*
X142009379Y-75662933D01*
X141409410Y-75062962D01*
X141472993Y-75045925D01*
X141587007Y-74980099D01*
X141680099Y-74887007D01*
X141745925Y-74772993D01*
X141762962Y-74709409D01*
X142362933Y-75309380D01*
X142432932Y-75197977D01*
X142481997Y-75096094D01*
X142541538Y-74925933D01*
X142541540Y-74925927D01*
X142566701Y-74815689D01*
X142566703Y-74815673D01*
X142586886Y-74636547D01*
X142586887Y-74636547D01*
X142586887Y-74523453D01*
X142586886Y-74523452D01*
X142566703Y-74344326D01*
X142566701Y-74344310D01*
X142541540Y-74234072D01*
X142541538Y-74234066D01*
X142481999Y-74063909D01*
X142432926Y-73962011D01*
X142362932Y-73850619D01*
X141762962Y-74450589D01*
X141745925Y-74387007D01*
X141680099Y-74272993D01*
X141587007Y-74179901D01*
X141472993Y-74114075D01*
X141409409Y-74097037D01*
X142009380Y-73497065D01*
X142009379Y-73497064D01*
X141897981Y-73427069D01*
X141897978Y-73427067D01*
X141880208Y-73418509D01*
X141828349Y-73371685D01*
X141810038Y-73304257D01*
X141831088Y-73237634D01*
X141881603Y-73194410D01*
X141932734Y-73170568D01*
X142119139Y-73040047D01*
X142280047Y-72879139D01*
X142410568Y-72692734D01*
X142506739Y-72486496D01*
X142565635Y-72266692D01*
X142585468Y-72040000D01*
X142565635Y-71813308D01*
X142506739Y-71593504D01*
X142410568Y-71387266D01*
X142280047Y-71200861D01*
X142280045Y-71200858D01*
X142119141Y-71039954D01*
X141932734Y-70909432D01*
X141932728Y-70909429D01*
X141874725Y-70882382D01*
X141822285Y-70836210D01*
X141803133Y-70769017D01*
X141823348Y-70702135D01*
X141874725Y-70657618D01*
X141932734Y-70630568D01*
X142119139Y-70500047D01*
X142280047Y-70339139D01*
X142410568Y-70152734D01*
X142506739Y-69946496D01*
X142565635Y-69726692D01*
X142585468Y-69500000D01*
X142565635Y-69273308D01*
X142506739Y-69053504D01*
X142410568Y-68847266D01*
X142280047Y-68660861D01*
X142280045Y-68660858D01*
X142119141Y-68499954D01*
X141932734Y-68369432D01*
X141932732Y-68369431D01*
X141726497Y-68273261D01*
X141726488Y-68273258D01*
X141506697Y-68214366D01*
X141506693Y-68214365D01*
X141506692Y-68214365D01*
X141506691Y-68214364D01*
X141506686Y-68214364D01*
X141280002Y-68194532D01*
X141279998Y-68194532D01*
X141053313Y-68214364D01*
X141053302Y-68214366D01*
X140833511Y-68273258D01*
X140833502Y-68273261D01*
X140627267Y-68369431D01*
X140627265Y-68369432D01*
X140440858Y-68499954D01*
X140279954Y-68660858D01*
X140149432Y-68847265D01*
X140149431Y-68847267D01*
X140053261Y-69053502D01*
X140053258Y-69053511D01*
X139994366Y-69273302D01*
X139994364Y-69273313D01*
X139974532Y-69499998D01*
X139974532Y-69500001D01*
X139994364Y-69726686D01*
X139994366Y-69726697D01*
X140053258Y-69946488D01*
X140053261Y-69946497D01*
X140149431Y-70152732D01*
X140149432Y-70152734D01*
X140279954Y-70339141D01*
X140440858Y-70500045D01*
X140440861Y-70500047D01*
X140627266Y-70630568D01*
X140685275Y-70657618D01*
X140737714Y-70703791D01*
X140756866Y-70770984D01*
X140736650Y-70837865D01*
X140685275Y-70882382D01*
X140627267Y-70909431D01*
X140627265Y-70909432D01*
X140440858Y-71039954D01*
X140279954Y-71200858D01*
X140149432Y-71387265D01*
X140149431Y-71387267D01*
X140053261Y-71593502D01*
X140053258Y-71593511D01*
X139994366Y-71813302D01*
X139994364Y-71813313D01*
X139974532Y-72039998D01*
X139974532Y-72040001D01*
X139994364Y-72266686D01*
X139994366Y-72266697D01*
X140053258Y-72486488D01*
X140053261Y-72486497D01*
X140149431Y-72692732D01*
X140149432Y-72692734D01*
X140279954Y-72879141D01*
X140440858Y-73040045D01*
X140507509Y-73086714D01*
X140551134Y-73141290D01*
X140558328Y-73210788D01*
X140526806Y-73273143D01*
X140473741Y-73306528D01*
X140415238Y-73325010D01*
X140390485Y-73336930D01*
X140390485Y-73336931D01*
X141150591Y-74097037D01*
X141087007Y-74114075D01*
X140972993Y-74179901D01*
X140879901Y-74272993D01*
X140814075Y-74387007D01*
X140797037Y-74450590D01*
X140036789Y-73690342D01*
X140002836Y-73778611D01*
X140002836Y-73778613D01*
X139982518Y-73867625D01*
X139970801Y-73949114D01*
X139974587Y-73995391D01*
X139975000Y-74005500D01*
X139975000Y-74499755D01*
X139974220Y-74513641D01*
X139973114Y-74523455D01*
X139973114Y-74636544D01*
X139974220Y-74646358D01*
X139975000Y-74660245D01*
X139975000Y-75111048D01*
X139973738Y-75128694D01*
X139970802Y-75149115D01*
X139970801Y-75149118D01*
X139982518Y-75292373D01*
X140002833Y-75381375D01*
X140002834Y-75381382D01*
X140027634Y-75459880D01*
X140034631Y-75471813D01*
X140797037Y-74709409D01*
X140814075Y-74772993D01*
X140879901Y-74887007D01*
X140972993Y-74980099D01*
X141087007Y-75045925D01*
X141150590Y-75062962D01*
X140390485Y-75823067D01*
X140415234Y-75834986D01*
X140476968Y-75858733D01*
X140532471Y-75901173D01*
X140556218Y-75966883D01*
X140540670Y-76035001D01*
X140503574Y-76076041D01*
X140440856Y-76119956D01*
X140279954Y-76280858D01*
X140149432Y-76467265D01*
X140149431Y-76467267D01*
X140053261Y-76673502D01*
X140053258Y-76673511D01*
X139994366Y-76893302D01*
X139994364Y-76893313D01*
X139974532Y-77119998D01*
X139974532Y-77120001D01*
X139994364Y-77346686D01*
X139994366Y-77346697D01*
X140053258Y-77566488D01*
X140053261Y-77566497D01*
X140149431Y-77772732D01*
X140149432Y-77772734D01*
X140279954Y-77959141D01*
X140440858Y-78120045D01*
X140440861Y-78120047D01*
X140627266Y-78250568D01*
X140685275Y-78277618D01*
X140737714Y-78323791D01*
X140756866Y-78390984D01*
X140736650Y-78457865D01*
X140685275Y-78502382D01*
X140627267Y-78529431D01*
X140627265Y-78529432D01*
X140440858Y-78659954D01*
X140279954Y-78820858D01*
X140149432Y-79007265D01*
X140149431Y-79007267D01*
X140053261Y-79213502D01*
X140053258Y-79213511D01*
X139994366Y-79433302D01*
X139994364Y-79433313D01*
X139974532Y-79659998D01*
X139974532Y-79660001D01*
X139994364Y-79886686D01*
X139994366Y-79886697D01*
X140053258Y-80106488D01*
X140053261Y-80106497D01*
X140149431Y-80312732D01*
X140149432Y-80312734D01*
X140279954Y-80499141D01*
X140440858Y-80660045D01*
X140440861Y-80660047D01*
X140627266Y-80790568D01*
X140685275Y-80817618D01*
X140737714Y-80863791D01*
X140756866Y-80930984D01*
X140736650Y-80997865D01*
X140685275Y-81042382D01*
X140627267Y-81069431D01*
X140627265Y-81069432D01*
X140440858Y-81199954D01*
X140279954Y-81360858D01*
X140149432Y-81547265D01*
X140149431Y-81547267D01*
X140053261Y-81753502D01*
X140053258Y-81753511D01*
X139994366Y-81973302D01*
X139994364Y-81973313D01*
X139974532Y-82199998D01*
X139974532Y-82200001D01*
X139994364Y-82426686D01*
X139994366Y-82426697D01*
X140053258Y-82646488D01*
X140053261Y-82646497D01*
X140149431Y-82852732D01*
X140149432Y-82852734D01*
X140279954Y-83039141D01*
X140440858Y-83200045D01*
X140440861Y-83200047D01*
X140627266Y-83330568D01*
X140685275Y-83357618D01*
X140737714Y-83403791D01*
X140756866Y-83470984D01*
X140736650Y-83537865D01*
X140685275Y-83582382D01*
X140627267Y-83609431D01*
X140627265Y-83609432D01*
X140440858Y-83739954D01*
X140279954Y-83900858D01*
X140149432Y-84087265D01*
X140149431Y-84087267D01*
X140053261Y-84293502D01*
X140053258Y-84293511D01*
X139994366Y-84513302D01*
X139994364Y-84513313D01*
X139974532Y-84739998D01*
X139974532Y-84740001D01*
X139994364Y-84966686D01*
X139994366Y-84966697D01*
X140053258Y-85186488D01*
X140053261Y-85186497D01*
X140149431Y-85392732D01*
X140149432Y-85392734D01*
X140279954Y-85579141D01*
X140440858Y-85740045D01*
X140507509Y-85786714D01*
X140551134Y-85841290D01*
X140558328Y-85910788D01*
X140526806Y-85973143D01*
X140473741Y-86006528D01*
X140415238Y-86025010D01*
X140390485Y-86036930D01*
X140390485Y-86036931D01*
X141150591Y-86797037D01*
X141087007Y-86814075D01*
X140972993Y-86879901D01*
X140879901Y-86972993D01*
X140814075Y-87087007D01*
X140797037Y-87150590D01*
X140036789Y-86390342D01*
X140002836Y-86478611D01*
X140002836Y-86478613D01*
X139982518Y-86567625D01*
X139970801Y-86649114D01*
X139974587Y-86695391D01*
X139975000Y-86705500D01*
X139975000Y-87199755D01*
X139974220Y-87213641D01*
X139973114Y-87223455D01*
X139973114Y-87336544D01*
X139974220Y-87346358D01*
X139975000Y-87360245D01*
X139975000Y-87811048D01*
X139973738Y-87828694D01*
X139970802Y-87849115D01*
X139970801Y-87849118D01*
X139982518Y-87992373D01*
X140002833Y-88081375D01*
X140002834Y-88081382D01*
X140027634Y-88159880D01*
X140034631Y-88171813D01*
X140797037Y-87409409D01*
X140814075Y-87472993D01*
X140879901Y-87587007D01*
X140972993Y-87680099D01*
X141087007Y-87745925D01*
X141150590Y-87762962D01*
X140390485Y-88523067D01*
X140415234Y-88534986D01*
X140476968Y-88558733D01*
X140532471Y-88601173D01*
X140556218Y-88666883D01*
X140540670Y-88735001D01*
X140503574Y-88776041D01*
X140440856Y-88819956D01*
X140279954Y-88980858D01*
X140149432Y-89167265D01*
X140149431Y-89167267D01*
X140053261Y-89373502D01*
X140053258Y-89373511D01*
X139994366Y-89593302D01*
X139994364Y-89593313D01*
X139974532Y-89819998D01*
X139974532Y-89820002D01*
X139980606Y-89889433D01*
X139966839Y-89957933D01*
X139918224Y-90008116D01*
X139850195Y-90024049D01*
X139784351Y-90000673D01*
X139741598Y-89945411D01*
X139740036Y-89941194D01*
X139725789Y-89900478D01*
X139718849Y-89889433D01*
X139629816Y-89747738D01*
X139502262Y-89620184D01*
X139459480Y-89593302D01*
X139349523Y-89524211D01*
X139179254Y-89464631D01*
X139179249Y-89464630D01*
X139000004Y-89444435D01*
X138999996Y-89444435D01*
X138820750Y-89464630D01*
X138820745Y-89464631D01*
X138650476Y-89524211D01*
X138497736Y-89620185D01*
X138494903Y-89622445D01*
X138492724Y-89623334D01*
X138491842Y-89623889D01*
X138491744Y-89623734D01*
X138430217Y-89648855D01*
X138417588Y-89649500D01*
X136832412Y-89649500D01*
X136765373Y-89629815D01*
X136755097Y-89622445D01*
X136752263Y-89620185D01*
X136752262Y-89620184D01*
X136690698Y-89581501D01*
X136599523Y-89524211D01*
X136429254Y-89464631D01*
X136429249Y-89464630D01*
X136250004Y-89444435D01*
X136249996Y-89444435D01*
X136070750Y-89464630D01*
X136070745Y-89464631D01*
X135900476Y-89524211D01*
X135747737Y-89620184D01*
X135620184Y-89747737D01*
X135524211Y-89900476D01*
X135464631Y-90070745D01*
X135464630Y-90070750D01*
X135444435Y-90249996D01*
X124731160Y-90249996D01*
X124785635Y-90046692D01*
X124805468Y-89820000D01*
X124785635Y-89593308D01*
X124726739Y-89373504D01*
X124630568Y-89167266D01*
X124500047Y-88980861D01*
X124500045Y-88980858D01*
X124339141Y-88819954D01*
X124272490Y-88773285D01*
X124228865Y-88718709D01*
X124221671Y-88649210D01*
X124253194Y-88586855D01*
X124306259Y-88553470D01*
X124364766Y-88534986D01*
X124389514Y-88523067D01*
X123629410Y-87762962D01*
X123692993Y-87745925D01*
X123807007Y-87680099D01*
X123900099Y-87587007D01*
X123965925Y-87472993D01*
X123982962Y-87409410D01*
X124743209Y-88169657D01*
X124777163Y-88081388D01*
X124777164Y-88081385D01*
X124797481Y-87992374D01*
X124809198Y-87910885D01*
X124809198Y-87910884D01*
X124805413Y-87864607D01*
X124805000Y-87854499D01*
X124805000Y-87360245D01*
X124805780Y-87346358D01*
X124806886Y-87336544D01*
X124806886Y-87223455D01*
X124805780Y-87213641D01*
X124805000Y-87199755D01*
X124805000Y-86748951D01*
X124806262Y-86731304D01*
X124809198Y-86710883D01*
X124809198Y-86710881D01*
X124797481Y-86567626D01*
X124777166Y-86478624D01*
X124777165Y-86478617D01*
X124752365Y-86400119D01*
X124745366Y-86388184D01*
X123982962Y-87150589D01*
X123965925Y-87087007D01*
X123900099Y-86972993D01*
X123807007Y-86879901D01*
X123692993Y-86814075D01*
X123629409Y-86797037D01*
X124389514Y-86036931D01*
X124389513Y-86036930D01*
X124364764Y-86025012D01*
X124364753Y-86025007D01*
X124303031Y-86001266D01*
X124247528Y-85958826D01*
X124223781Y-85893116D01*
X124239329Y-85824998D01*
X124276424Y-85783959D01*
X124339139Y-85740047D01*
X124500047Y-85579139D01*
X124630568Y-85392734D01*
X124726739Y-85186496D01*
X124785635Y-84966692D01*
X124805468Y-84740000D01*
X124785635Y-84513308D01*
X124726739Y-84293504D01*
X124630568Y-84087266D01*
X124500047Y-83900861D01*
X124500045Y-83900858D01*
X124339141Y-83739954D01*
X124152734Y-83609432D01*
X124152728Y-83609429D01*
X124094725Y-83582382D01*
X124042285Y-83536210D01*
X124023133Y-83469017D01*
X124043348Y-83402135D01*
X124094725Y-83357618D01*
X124152734Y-83330568D01*
X124339139Y-83200047D01*
X124500047Y-83039139D01*
X124630568Y-82852734D01*
X124726739Y-82646496D01*
X124785635Y-82426692D01*
X124805468Y-82200000D01*
X124785635Y-81973308D01*
X124726739Y-81753504D01*
X124630568Y-81547266D01*
X124500047Y-81360861D01*
X124500045Y-81360858D01*
X124339141Y-81199954D01*
X124152734Y-81069432D01*
X124152728Y-81069429D01*
X124094725Y-81042382D01*
X124042285Y-80996210D01*
X124023133Y-80929017D01*
X124043348Y-80862135D01*
X124094725Y-80817618D01*
X124152734Y-80790568D01*
X124339139Y-80660047D01*
X124500047Y-80499139D01*
X124630568Y-80312734D01*
X124726739Y-80106496D01*
X124785635Y-79886692D01*
X124805468Y-79660000D01*
X124804593Y-79650003D01*
X124799801Y-79595230D01*
X124785635Y-79433308D01*
X124726739Y-79213504D01*
X124630568Y-79007266D01*
X124500047Y-78820861D01*
X124500045Y-78820858D01*
X124339141Y-78659954D01*
X124152734Y-78529432D01*
X124152728Y-78529429D01*
X124094725Y-78502382D01*
X124042285Y-78456210D01*
X124023133Y-78389017D01*
X124043348Y-78322135D01*
X124094725Y-78277618D01*
X124152734Y-78250568D01*
X124339139Y-78120047D01*
X124500047Y-77959139D01*
X124630568Y-77772734D01*
X124726739Y-77566496D01*
X124785635Y-77346692D01*
X124805468Y-77120000D01*
X124785635Y-76893308D01*
X124726739Y-76673504D01*
X124630568Y-76467266D01*
X124500047Y-76280861D01*
X124500045Y-76280858D01*
X124339141Y-76119954D01*
X124272490Y-76073285D01*
X124228865Y-76018709D01*
X124221671Y-75949210D01*
X124253194Y-75886855D01*
X124306259Y-75853470D01*
X124364766Y-75834986D01*
X124389514Y-75823067D01*
X123629410Y-75062962D01*
X123692993Y-75045925D01*
X123807007Y-74980099D01*
X123900099Y-74887007D01*
X123965925Y-74772993D01*
X123982962Y-74709410D01*
X124743209Y-75469657D01*
X124777163Y-75381388D01*
X124777164Y-75381385D01*
X124797481Y-75292374D01*
X124809198Y-75210885D01*
X124809198Y-75210884D01*
X124805413Y-75164607D01*
X124805000Y-75154499D01*
X124805000Y-74660245D01*
X124805780Y-74646358D01*
X124806886Y-74636544D01*
X124806886Y-74523455D01*
X124805780Y-74513641D01*
X124805000Y-74499755D01*
X124805000Y-74048951D01*
X124806262Y-74031304D01*
X124809198Y-74010883D01*
X124809198Y-74010881D01*
X124797481Y-73867626D01*
X124777166Y-73778624D01*
X124777165Y-73778617D01*
X124752365Y-73700119D01*
X124745366Y-73688184D01*
X123982962Y-74450589D01*
X123965925Y-74387007D01*
X123900099Y-74272993D01*
X123807007Y-74179901D01*
X123692993Y-74114075D01*
X123629409Y-74097037D01*
X124389514Y-73336931D01*
X124389513Y-73336930D01*
X124364764Y-73325012D01*
X124364753Y-73325007D01*
X124303031Y-73301266D01*
X124247528Y-73258826D01*
X124223781Y-73193116D01*
X124239329Y-73124998D01*
X124276424Y-73083959D01*
X124339139Y-73040047D01*
X124500047Y-72879139D01*
X124630568Y-72692734D01*
X124726739Y-72486496D01*
X124779362Y-72290104D01*
X125290000Y-72290104D01*
X125290000Y-72290105D01*
X125290000Y-76630000D01*
X139490000Y-76630000D01*
X139490000Y-72290105D01*
X139489999Y-72290104D01*
X134837944Y-68677338D01*
X134797069Y-68620672D01*
X134790000Y-68579402D01*
X134790000Y-67630000D01*
X129990000Y-67630000D01*
X129990000Y-68579402D01*
X129970315Y-68646441D01*
X129942056Y-68677338D01*
X125290000Y-72290104D01*
X124779362Y-72290104D01*
X124785635Y-72266692D01*
X124805468Y-72040000D01*
X124785635Y-71813308D01*
X124726739Y-71593504D01*
X124630568Y-71387266D01*
X124500047Y-71200861D01*
X124500045Y-71200858D01*
X124339141Y-71039954D01*
X124152734Y-70909432D01*
X124152728Y-70909429D01*
X124094725Y-70882382D01*
X124042285Y-70836210D01*
X124023133Y-70769017D01*
X124043348Y-70702135D01*
X124094725Y-70657618D01*
X124152734Y-70630568D01*
X124339139Y-70500047D01*
X124500047Y-70339139D01*
X124630568Y-70152734D01*
X124726739Y-69946496D01*
X124785635Y-69726692D01*
X124805468Y-69500000D01*
X124785635Y-69273308D01*
X124726739Y-69053504D01*
X124630568Y-68847266D01*
X124500047Y-68660861D01*
X124500045Y-68660858D01*
X124339141Y-68499954D01*
X124152734Y-68369432D01*
X124152732Y-68369431D01*
X123946497Y-68273261D01*
X123946488Y-68273258D01*
X123726697Y-68214366D01*
X123726693Y-68214365D01*
X123726692Y-68214365D01*
X123726691Y-68214364D01*
X123726686Y-68214364D01*
X123500002Y-68194532D01*
X123499998Y-68194532D01*
X123273313Y-68214364D01*
X123273302Y-68214366D01*
X123053511Y-68273258D01*
X123053502Y-68273261D01*
X122847267Y-68369431D01*
X122847265Y-68369432D01*
X122660858Y-68499954D01*
X122499954Y-68660858D01*
X122369432Y-68847265D01*
X122369431Y-68847267D01*
X122273261Y-69053502D01*
X122273258Y-69053511D01*
X122214366Y-69273302D01*
X122214364Y-69273313D01*
X122194532Y-69499998D01*
X122194532Y-69500001D01*
X122214364Y-69726686D01*
X122214366Y-69726697D01*
X122273258Y-69946488D01*
X122273261Y-69946497D01*
X122369431Y-70152732D01*
X122369432Y-70152734D01*
X122499954Y-70339141D01*
X122660858Y-70500045D01*
X122660861Y-70500047D01*
X122847266Y-70630568D01*
X122905275Y-70657618D01*
X122957714Y-70703791D01*
X122976866Y-70770984D01*
X122956650Y-70837865D01*
X122905275Y-70882382D01*
X122847267Y-70909431D01*
X122847265Y-70909432D01*
X122660858Y-71039954D01*
X122499954Y-71200858D01*
X122369432Y-71387265D01*
X122369431Y-71387267D01*
X122273261Y-71593502D01*
X122273258Y-71593511D01*
X122214366Y-71813302D01*
X122214364Y-71813313D01*
X122194532Y-72039998D01*
X122194532Y-72040001D01*
X122214364Y-72266686D01*
X122214366Y-72266697D01*
X122273258Y-72486488D01*
X122273261Y-72486497D01*
X122369431Y-72692732D01*
X122369432Y-72692734D01*
X122499954Y-72879141D01*
X122660858Y-73040045D01*
X122660861Y-73040047D01*
X122847266Y-73170568D01*
X122895620Y-73193116D01*
X122898391Y-73194408D01*
X122950831Y-73240580D01*
X122969983Y-73307773D01*
X122949767Y-73374655D01*
X122899793Y-73418508D01*
X122882031Y-73427062D01*
X122770618Y-73497065D01*
X123370591Y-74097037D01*
X123307007Y-74114075D01*
X123192993Y-74179901D01*
X123099901Y-74272993D01*
X123034075Y-74387007D01*
X123017037Y-74450590D01*
X122417066Y-73850619D01*
X122347066Y-73962023D01*
X122298002Y-74063905D01*
X122238461Y-74234066D01*
X122238459Y-74234072D01*
X122213298Y-74344310D01*
X122213296Y-74344326D01*
X122193113Y-74523452D01*
X122193113Y-74636547D01*
X122213296Y-74815673D01*
X122213298Y-74815689D01*
X122238459Y-74925927D01*
X122238461Y-74925933D01*
X122298002Y-75096094D01*
X122347066Y-75197976D01*
X122417066Y-75309379D01*
X123017037Y-74709409D01*
X123034075Y-74772993D01*
X123099901Y-74887007D01*
X123192993Y-74980099D01*
X123307007Y-75045925D01*
X123370590Y-75062962D01*
X122770619Y-75662933D01*
X122882023Y-75732933D01*
X122899789Y-75741489D01*
X122951649Y-75788312D01*
X122969961Y-75855739D01*
X122948913Y-75922363D01*
X122898393Y-75965591D01*
X122847264Y-75989433D01*
X122660858Y-76119954D01*
X122499954Y-76280858D01*
X122369432Y-76467265D01*
X122369431Y-76467267D01*
X122273261Y-76673502D01*
X122273258Y-76673511D01*
X122214366Y-76893302D01*
X122214364Y-76893313D01*
X122194532Y-77119998D01*
X122194532Y-77120001D01*
X122214364Y-77346686D01*
X122214366Y-77346697D01*
X122273258Y-77566488D01*
X122273261Y-77566497D01*
X122369431Y-77772732D01*
X122369432Y-77772734D01*
X122499954Y-77959141D01*
X122660858Y-78120045D01*
X122660861Y-78120047D01*
X122847266Y-78250568D01*
X122905275Y-78277618D01*
X122957714Y-78323791D01*
X122976866Y-78390984D01*
X122956650Y-78457865D01*
X122905275Y-78502382D01*
X122847267Y-78529431D01*
X122847265Y-78529432D01*
X122660858Y-78659954D01*
X122499954Y-78820858D01*
X122369432Y-79007265D01*
X122369431Y-79007267D01*
X122273261Y-79213502D01*
X122273258Y-79213511D01*
X122214366Y-79433302D01*
X122214364Y-79433313D01*
X122194532Y-79659998D01*
X122194532Y-79660001D01*
X122214364Y-79886686D01*
X122214366Y-79886697D01*
X122273258Y-80106488D01*
X122273261Y-80106497D01*
X122369431Y-80312732D01*
X122369432Y-80312734D01*
X122499954Y-80499141D01*
X122660858Y-80660045D01*
X122660861Y-80660047D01*
X122847266Y-80790568D01*
X122905275Y-80817618D01*
X122957714Y-80863791D01*
X122976866Y-80930984D01*
X122956650Y-80997865D01*
X122905275Y-81042382D01*
X122847267Y-81069431D01*
X122847265Y-81069432D01*
X122660858Y-81199954D01*
X122499954Y-81360858D01*
X122369432Y-81547265D01*
X122369431Y-81547267D01*
X122273261Y-81753502D01*
X122273258Y-81753511D01*
X122214366Y-81973302D01*
X122214364Y-81973313D01*
X122194532Y-82199998D01*
X122194532Y-82200001D01*
X122214364Y-82426686D01*
X122214366Y-82426697D01*
X122273258Y-82646488D01*
X122273261Y-82646497D01*
X122369431Y-82852732D01*
X122369432Y-82852734D01*
X122499954Y-83039141D01*
X122660858Y-83200045D01*
X122660861Y-83200047D01*
X122847266Y-83330568D01*
X122905275Y-83357618D01*
X122957714Y-83403791D01*
X122976866Y-83470984D01*
X122956650Y-83537865D01*
X122905275Y-83582382D01*
X122847267Y-83609431D01*
X122847265Y-83609432D01*
X122660858Y-83739954D01*
X122499954Y-83900858D01*
X122369432Y-84087265D01*
X122369431Y-84087267D01*
X122273261Y-84293502D01*
X122273258Y-84293511D01*
X122214366Y-84513302D01*
X122214364Y-84513313D01*
X122194532Y-84739998D01*
X122194532Y-84740001D01*
X122214364Y-84966686D01*
X122214366Y-84966697D01*
X122273258Y-85186488D01*
X122273261Y-85186497D01*
X122369431Y-85392732D01*
X122369432Y-85392734D01*
X122499954Y-85579141D01*
X122660858Y-85740045D01*
X122660861Y-85740047D01*
X122847266Y-85870568D01*
X122895620Y-85893116D01*
X122898391Y-85894408D01*
X122950831Y-85940580D01*
X122969983Y-86007773D01*
X122949767Y-86074655D01*
X122899793Y-86118508D01*
X122882031Y-86127062D01*
X122770618Y-86197065D01*
X123370591Y-86797037D01*
X123307007Y-86814075D01*
X123192993Y-86879901D01*
X123099901Y-86972993D01*
X123034075Y-87087007D01*
X123017037Y-87150590D01*
X122417066Y-86550619D01*
X122347066Y-86662023D01*
X122298002Y-86763905D01*
X122238461Y-86934066D01*
X122238459Y-86934072D01*
X122213298Y-87044310D01*
X122213296Y-87044326D01*
X122193113Y-87223452D01*
X122193113Y-87336547D01*
X122213296Y-87515673D01*
X122213298Y-87515689D01*
X122238459Y-87625927D01*
X122238461Y-87625933D01*
X122298002Y-87796094D01*
X122347066Y-87897976D01*
X122417066Y-88009379D01*
X123017037Y-87409409D01*
X123034075Y-87472993D01*
X123099901Y-87587007D01*
X123192993Y-87680099D01*
X123307007Y-87745925D01*
X123370590Y-87762962D01*
X122770619Y-88362933D01*
X122882023Y-88432933D01*
X122899789Y-88441489D01*
X122951649Y-88488312D01*
X122969961Y-88555739D01*
X122948913Y-88622363D01*
X122898393Y-88665591D01*
X122847264Y-88689433D01*
X122660858Y-88819954D01*
X122499954Y-88980858D01*
X122369432Y-89167265D01*
X122369431Y-89167267D01*
X122273261Y-89373502D01*
X122273258Y-89373511D01*
X122214366Y-89593302D01*
X122214364Y-89593313D01*
X122194532Y-89819998D01*
X122194532Y-89820001D01*
X122214364Y-90046686D01*
X122214366Y-90046697D01*
X122273258Y-90266488D01*
X122273261Y-90266497D01*
X122369431Y-90472732D01*
X122369432Y-90472734D01*
X122499954Y-90659141D01*
X122660858Y-90820045D01*
X122660861Y-90820047D01*
X122847266Y-90950568D01*
X122905275Y-90977618D01*
X122957714Y-91023791D01*
X122976866Y-91090984D01*
X122956650Y-91157865D01*
X122905275Y-91202382D01*
X122847267Y-91229431D01*
X122847265Y-91229432D01*
X122660858Y-91359954D01*
X122499954Y-91520858D01*
X122369432Y-91707265D01*
X122369431Y-91707267D01*
X122273261Y-91913502D01*
X122273258Y-91913511D01*
X122214366Y-92133302D01*
X122214364Y-92133313D01*
X122194532Y-92359998D01*
X122194532Y-92360001D01*
X122214364Y-92586686D01*
X122214366Y-92586697D01*
X122273258Y-92806488D01*
X122273261Y-92806497D01*
X122369431Y-93012732D01*
X122369432Y-93012734D01*
X122499954Y-93199141D01*
X122660858Y-93360045D01*
X122660861Y-93360047D01*
X122847266Y-93490568D01*
X122905275Y-93517618D01*
X122957714Y-93563791D01*
X122976866Y-93630984D01*
X122956650Y-93697865D01*
X122905275Y-93742382D01*
X122847267Y-93769431D01*
X122847265Y-93769432D01*
X122660858Y-93899954D01*
X122499954Y-94060858D01*
X122369432Y-94247265D01*
X122369431Y-94247267D01*
X122273261Y-94453502D01*
X122273258Y-94453511D01*
X122214366Y-94673302D01*
X122214364Y-94673313D01*
X122194532Y-94899998D01*
X122194532Y-94900001D01*
X122214364Y-95126686D01*
X122214366Y-95126697D01*
X122273258Y-95346488D01*
X122273261Y-95346497D01*
X122369431Y-95552732D01*
X122369432Y-95552734D01*
X122499954Y-95739141D01*
X122660858Y-95900045D01*
X122660861Y-95900047D01*
X122847266Y-96030568D01*
X122905275Y-96057618D01*
X122957714Y-96103791D01*
X122976866Y-96170984D01*
X122956650Y-96237865D01*
X122905275Y-96282382D01*
X122847267Y-96309431D01*
X122847265Y-96309432D01*
X122660858Y-96439954D01*
X122499954Y-96600858D01*
X122369432Y-96787265D01*
X122369431Y-96787267D01*
X122273261Y-96993502D01*
X122273258Y-96993511D01*
X122214366Y-97213302D01*
X122214364Y-97213313D01*
X122194532Y-97439998D01*
X122194532Y-97440001D01*
X122214364Y-97666686D01*
X122214366Y-97666697D01*
X122273258Y-97886488D01*
X122273261Y-97886497D01*
X122369431Y-98092732D01*
X122369432Y-98092734D01*
X122499954Y-98279141D01*
X122660858Y-98440045D01*
X122660861Y-98440047D01*
X122847266Y-98570568D01*
X122897810Y-98594137D01*
X122950250Y-98640309D01*
X122969402Y-98707502D01*
X122949187Y-98774384D01*
X122899213Y-98818236D01*
X122881762Y-98826640D01*
X122881755Y-98826644D01*
X122729111Y-98922557D01*
X122640610Y-98993134D01*
X122513134Y-99120610D01*
X122442557Y-99209111D01*
X122346647Y-99361750D01*
X122297528Y-99463744D01*
X122237989Y-99633901D01*
X122237986Y-99633910D01*
X122212801Y-99744260D01*
X122212800Y-99744263D01*
X122192617Y-99923396D01*
X122192617Y-100036603D01*
X122212800Y-100215736D01*
X122212801Y-100215739D01*
X122237986Y-100326089D01*
X122237989Y-100326098D01*
X122297528Y-100496255D01*
X122346647Y-100598249D01*
X122405861Y-100692487D01*
X122442558Y-100750890D01*
X122513135Y-100839390D01*
X122640610Y-100966865D01*
X122729110Y-101037442D01*
X122881083Y-101132933D01*
X122881755Y-101133355D01*
X122881759Y-101133357D01*
X122899209Y-101141761D01*
X122951068Y-101188584D01*
X122969380Y-101256011D01*
X122948331Y-101322635D01*
X122897812Y-101365862D01*
X122847264Y-101389433D01*
X122660858Y-101519954D01*
X122499954Y-101680858D01*
X122369432Y-101867265D01*
X122369431Y-101867267D01*
X122273261Y-102073502D01*
X122273258Y-102073511D01*
X122214366Y-102293302D01*
X122214364Y-102293313D01*
X122194532Y-102519998D01*
X122194532Y-102520001D01*
X122214364Y-102746686D01*
X122214366Y-102746697D01*
X122273258Y-102966488D01*
X122273261Y-102966497D01*
X122369431Y-103172732D01*
X122369432Y-103172734D01*
X122499954Y-103359141D01*
X122660858Y-103520045D01*
X122660861Y-103520047D01*
X122847266Y-103650568D01*
X122905275Y-103677618D01*
X122957714Y-103723791D01*
X122976866Y-103790984D01*
X122956650Y-103857865D01*
X122905275Y-103902382D01*
X122847267Y-103929431D01*
X122847265Y-103929432D01*
X122660858Y-104059954D01*
X122499954Y-104220858D01*
X122369432Y-104407265D01*
X122369431Y-104407267D01*
X122273261Y-104613502D01*
X122273258Y-104613511D01*
X122214366Y-104833302D01*
X122214364Y-104833313D01*
X122194532Y-105059998D01*
X122194532Y-105060001D01*
X122214364Y-105286686D01*
X122214366Y-105286697D01*
X122273258Y-105506488D01*
X122273261Y-105506497D01*
X122369431Y-105712732D01*
X122369432Y-105712734D01*
X122499954Y-105899141D01*
X122660858Y-106060045D01*
X122660861Y-106060047D01*
X122847266Y-106190568D01*
X122905275Y-106217618D01*
X122957714Y-106263791D01*
X122976866Y-106330984D01*
X122956650Y-106397865D01*
X122905275Y-106442382D01*
X122847267Y-106469431D01*
X122847265Y-106469432D01*
X122660858Y-106599954D01*
X122499954Y-106760858D01*
X122369432Y-106947265D01*
X122369431Y-106947267D01*
X122273261Y-107153502D01*
X122273258Y-107153511D01*
X122214366Y-107373302D01*
X122214364Y-107373313D01*
X122194532Y-107599998D01*
X122194532Y-107600001D01*
X122214364Y-107826686D01*
X122214366Y-107826697D01*
X122273258Y-108046488D01*
X122273261Y-108046497D01*
X122369431Y-108252732D01*
X122369432Y-108252734D01*
X122499954Y-108439141D01*
X122660858Y-108600045D01*
X122660861Y-108600047D01*
X122847266Y-108730568D01*
X122905275Y-108757618D01*
X122957714Y-108803791D01*
X122976866Y-108870984D01*
X122956650Y-108937865D01*
X122905275Y-108982382D01*
X122847267Y-109009431D01*
X122847265Y-109009432D01*
X122660858Y-109139954D01*
X122499954Y-109300858D01*
X122369432Y-109487265D01*
X122369431Y-109487267D01*
X122273261Y-109693502D01*
X122273258Y-109693511D01*
X122214366Y-109913302D01*
X122214364Y-109913313D01*
X122194532Y-110139998D01*
X122194532Y-110140001D01*
X122214364Y-110366686D01*
X122214366Y-110366697D01*
X122273258Y-110586488D01*
X122273261Y-110586497D01*
X122369431Y-110792732D01*
X122369432Y-110792734D01*
X122499954Y-110979141D01*
X122660858Y-111140045D01*
X122660861Y-111140047D01*
X122847266Y-111270568D01*
X122895620Y-111293116D01*
X122898391Y-111294408D01*
X122950831Y-111340580D01*
X122969983Y-111407773D01*
X122949767Y-111474655D01*
X122899793Y-111518508D01*
X122882031Y-111527062D01*
X122770618Y-111597065D01*
X123370591Y-112197037D01*
X123307007Y-112214075D01*
X123192993Y-112279901D01*
X123099901Y-112372993D01*
X123034075Y-112487007D01*
X123017037Y-112550590D01*
X122417066Y-111950619D01*
X122347066Y-112062023D01*
X122298002Y-112163905D01*
X122238461Y-112334066D01*
X122238459Y-112334072D01*
X122213298Y-112444310D01*
X122213296Y-112444326D01*
X122193113Y-112623452D01*
X122193113Y-112736547D01*
X122213296Y-112915673D01*
X122213298Y-112915689D01*
X122238459Y-113025927D01*
X122238461Y-113025933D01*
X122298002Y-113196094D01*
X122347066Y-113297976D01*
X122417066Y-113409379D01*
X123017037Y-112809409D01*
X123034075Y-112872993D01*
X123099901Y-112987007D01*
X123192993Y-113080099D01*
X123307007Y-113145925D01*
X123370590Y-113162962D01*
X122770619Y-113762933D01*
X122882023Y-113832933D01*
X122899789Y-113841489D01*
X122951649Y-113888312D01*
X122969961Y-113955739D01*
X122948913Y-114022363D01*
X122898393Y-114065591D01*
X122847264Y-114089433D01*
X122660862Y-114219951D01*
X122629309Y-114251505D01*
X122597631Y-114283182D01*
X122536311Y-114316666D01*
X122509952Y-114319500D01*
X120644362Y-114319500D01*
X120577323Y-114299815D01*
X120556681Y-114283181D01*
X118936819Y-112663319D01*
X118903334Y-112601996D01*
X118900500Y-112575638D01*
X118900500Y-67499996D01*
X149194435Y-67499996D01*
X149194435Y-67500003D01*
X149214630Y-67679249D01*
X149214631Y-67679254D01*
X149274211Y-67849523D01*
X149370185Y-68002263D01*
X149372445Y-68005097D01*
X149373334Y-68007275D01*
X149373889Y-68008158D01*
X149373734Y-68008255D01*
X149398855Y-68069783D01*
X149399500Y-68082412D01*
X149399500Y-71167587D01*
X149379815Y-71234626D01*
X149372450Y-71244896D01*
X149370186Y-71247734D01*
X149274211Y-71400476D01*
X149214631Y-71570745D01*
X149214630Y-71570750D01*
X149194435Y-71749996D01*
X149194435Y-71750003D01*
X149214630Y-71929249D01*
X149214631Y-71929254D01*
X149274211Y-72099523D01*
X149370184Y-72252262D01*
X149497738Y-72379816D01*
X149650478Y-72475789D01*
X149681080Y-72486497D01*
X149820745Y-72535368D01*
X149820750Y-72535369D01*
X149999996Y-72555565D01*
X150000000Y-72555565D01*
X150000004Y-72555565D01*
X150179249Y-72535369D01*
X150179252Y-72535368D01*
X150179255Y-72535368D01*
X150349522Y-72475789D01*
X150502262Y-72379816D01*
X150629816Y-72252262D01*
X150725789Y-72099522D01*
X150785368Y-71929255D01*
X150785369Y-71929249D01*
X150805565Y-71750003D01*
X150805565Y-71750000D01*
X150805565Y-71749996D01*
X150801346Y-71712559D01*
X150813399Y-71643740D01*
X150860748Y-71592359D01*
X150910680Y-71575456D01*
X150963403Y-71569516D01*
X151133670Y-71509937D01*
X151286410Y-71413964D01*
X151413964Y-71286410D01*
X151509937Y-71133670D01*
X151569516Y-70963403D01*
X151575597Y-70909431D01*
X151589713Y-70784151D01*
X151589713Y-70784144D01*
X151569517Y-70604898D01*
X151569516Y-70604893D01*
X151509936Y-70434624D01*
X151413963Y-70281885D01*
X151386819Y-70254741D01*
X151353334Y-70193418D01*
X151350500Y-70167060D01*
X151350500Y-67378711D01*
X155649500Y-67378711D01*
X155649500Y-67621288D01*
X155681161Y-67861785D01*
X155743947Y-68096104D01*
X155792933Y-68214366D01*
X155836776Y-68320212D01*
X155958064Y-68530289D01*
X155958066Y-68530292D01*
X155958067Y-68530293D01*
X156105733Y-68722736D01*
X156105739Y-68722743D01*
X156277256Y-68894260D01*
X156277262Y-68894265D01*
X156469711Y-69041936D01*
X156679788Y-69163224D01*
X156903900Y-69256054D01*
X157138211Y-69318838D01*
X157318586Y-69342584D01*
X157378711Y-69350500D01*
X157378712Y-69350500D01*
X157621289Y-69350500D01*
X157669388Y-69344167D01*
X157861789Y-69318838D01*
X158096100Y-69256054D01*
X158320212Y-69163224D01*
X158530289Y-69041936D01*
X158722738Y-68894265D01*
X158894265Y-68722738D01*
X159041936Y-68530289D01*
X159163224Y-68320212D01*
X159256054Y-68096100D01*
X159318838Y-67861789D01*
X159350500Y-67621288D01*
X159350500Y-67378712D01*
X159318838Y-67138211D01*
X159256054Y-66903900D01*
X159163224Y-66679788D01*
X159041936Y-66469711D01*
X158894265Y-66277262D01*
X158894260Y-66277256D01*
X158722743Y-66105739D01*
X158722736Y-66105733D01*
X158530293Y-65958067D01*
X158530292Y-65958066D01*
X158530289Y-65958064D01*
X158320212Y-65836776D01*
X158320205Y-65836773D01*
X158096104Y-65743947D01*
X157861785Y-65681161D01*
X157621289Y-65649500D01*
X157621288Y-65649500D01*
X157378712Y-65649500D01*
X157378711Y-65649500D01*
X157138214Y-65681161D01*
X156903895Y-65743947D01*
X156679794Y-65836773D01*
X156679785Y-65836777D01*
X156469706Y-65958067D01*
X156277263Y-66105733D01*
X156277256Y-66105739D01*
X156105739Y-66277256D01*
X156105733Y-66277263D01*
X155958067Y-66469706D01*
X155836777Y-66679785D01*
X155836773Y-66679794D01*
X155743947Y-66903895D01*
X155681161Y-67138214D01*
X155649500Y-67378711D01*
X151350500Y-67378711D01*
X151350500Y-67332412D01*
X151370185Y-67265373D01*
X151377555Y-67255097D01*
X151379810Y-67252267D01*
X151379816Y-67252262D01*
X151475789Y-67099522D01*
X151535368Y-66929255D01*
X151538225Y-66903900D01*
X151555565Y-66750003D01*
X151555565Y-66749996D01*
X151535369Y-66570750D01*
X151535368Y-66570745D01*
X151475789Y-66400478D01*
X151379816Y-66247738D01*
X151252262Y-66120184D01*
X151229267Y-66105735D01*
X151099523Y-66024211D01*
X150929254Y-65964631D01*
X150929249Y-65964630D01*
X150750004Y-65944435D01*
X150749996Y-65944435D01*
X150570750Y-65964630D01*
X150570745Y-65964631D01*
X150400476Y-66024211D01*
X150247737Y-66120184D01*
X150120184Y-66247737D01*
X150024210Y-66400478D01*
X149964630Y-66570750D01*
X149961132Y-66601798D01*
X149934064Y-66666211D01*
X149876468Y-66705765D01*
X149851798Y-66711132D01*
X149820750Y-66714630D01*
X149650478Y-66774210D01*
X149497737Y-66870184D01*
X149370184Y-66997737D01*
X149274211Y-67150476D01*
X149214631Y-67320745D01*
X149214630Y-67320750D01*
X149194435Y-67499996D01*
X118900500Y-67499996D01*
X118900500Y-56599500D01*
X118920185Y-56532461D01*
X118972989Y-56486706D01*
X119024500Y-56475500D01*
X146263693Y-56475500D01*
X146263694Y-56475499D01*
X146437666Y-56440895D01*
X146538721Y-56399036D01*
X146601547Y-56373013D01*
X146689959Y-56313936D01*
X146749036Y-56274464D01*
X146949464Y-56074036D01*
X147048012Y-55926547D01*
X147115895Y-55762666D01*
X147150500Y-55588692D01*
X147150500Y-55547309D01*
X147170185Y-55480270D01*
X147186819Y-55459628D01*
X147767037Y-54879409D01*
X147784075Y-54942993D01*
X147849901Y-55057007D01*
X147942993Y-55150099D01*
X148057007Y-55215925D01*
X148120590Y-55232962D01*
X147488625Y-55864925D01*
X147565031Y-55918425D01*
X147608655Y-55973002D01*
X147615848Y-56042501D01*
X147584326Y-56104855D01*
X147565029Y-56121576D01*
X147488625Y-56175072D01*
X148120590Y-56807037D01*
X148057007Y-56824075D01*
X147942993Y-56889901D01*
X147849901Y-56982993D01*
X147784075Y-57097007D01*
X147767037Y-57160590D01*
X147135072Y-56528625D01*
X147076401Y-56612419D01*
X146976570Y-56826507D01*
X146976566Y-56826516D01*
X146915432Y-57054673D01*
X146915430Y-57054684D01*
X146894843Y-57289998D01*
X146894843Y-57290001D01*
X146915430Y-57525315D01*
X146915432Y-57525326D01*
X146976566Y-57753483D01*
X146976570Y-57753492D01*
X147076400Y-57967579D01*
X147076402Y-57967583D01*
X147135072Y-58051373D01*
X147135073Y-58051373D01*
X147767037Y-57419409D01*
X147784075Y-57482993D01*
X147849901Y-57597007D01*
X147942993Y-57690099D01*
X148057007Y-57755925D01*
X148120590Y-57772962D01*
X147488625Y-58404925D01*
X147572421Y-58463599D01*
X147786507Y-58563429D01*
X147786516Y-58563433D01*
X148014673Y-58624567D01*
X148014684Y-58624569D01*
X148249998Y-58645157D01*
X148250002Y-58645157D01*
X148485315Y-58624569D01*
X148485326Y-58624567D01*
X148713483Y-58563433D01*
X148713492Y-58563429D01*
X148927578Y-58463600D01*
X148927582Y-58463598D01*
X149011373Y-58404926D01*
X149011373Y-58404925D01*
X148379409Y-57772962D01*
X148442993Y-57755925D01*
X148557007Y-57690099D01*
X148650099Y-57597007D01*
X148715925Y-57482993D01*
X148732962Y-57419410D01*
X149364925Y-58051373D01*
X149418425Y-57974968D01*
X149473002Y-57931344D01*
X149542501Y-57924151D01*
X149604855Y-57955673D01*
X149621576Y-57974969D01*
X149675073Y-58051372D01*
X150307037Y-57419409D01*
X150324075Y-57482993D01*
X150389901Y-57597007D01*
X150482993Y-57690099D01*
X150597007Y-57755925D01*
X150660590Y-57772962D01*
X150028625Y-58404925D01*
X150112421Y-58463599D01*
X150326507Y-58563429D01*
X150326516Y-58563433D01*
X150554673Y-58624567D01*
X150554684Y-58624569D01*
X150789998Y-58645157D01*
X150790002Y-58645157D01*
X151025315Y-58624569D01*
X151025326Y-58624567D01*
X151253483Y-58563433D01*
X151253492Y-58563429D01*
X151467578Y-58463600D01*
X151467582Y-58463598D01*
X151551373Y-58404926D01*
X151551373Y-58404925D01*
X150919409Y-57772962D01*
X150982993Y-57755925D01*
X151097007Y-57690099D01*
X151190099Y-57597007D01*
X151255925Y-57482993D01*
X151272962Y-57419410D01*
X151904925Y-58051373D01*
X151958119Y-57975405D01*
X152012696Y-57931781D01*
X152082195Y-57924588D01*
X152144549Y-57956110D01*
X152161269Y-57975405D01*
X152291505Y-58161401D01*
X152458599Y-58328495D01*
X152555384Y-58396265D01*
X152652165Y-58464032D01*
X152652167Y-58464033D01*
X152652170Y-58464035D01*
X152866337Y-58563903D01*
X153094592Y-58625063D01*
X153282918Y-58641539D01*
X153329999Y-58645659D01*
X153330000Y-58645659D01*
X153330001Y-58645659D01*
X153369234Y-58642226D01*
X153565408Y-58625063D01*
X153693757Y-58590672D01*
X153763606Y-58592335D01*
X153813531Y-58622766D01*
X154249052Y-59058288D01*
X154282537Y-59119611D01*
X154284591Y-59159851D01*
X154274435Y-59249995D01*
X154274435Y-59250003D01*
X154294630Y-59429249D01*
X154294631Y-59429254D01*
X154354211Y-59599523D01*
X154450184Y-59752262D01*
X154577738Y-59879816D01*
X154730478Y-59975789D01*
X154900745Y-60035368D01*
X154900750Y-60035369D01*
X155079996Y-60055565D01*
X155080000Y-60055565D01*
X155080004Y-60055565D01*
X155259249Y-60035369D01*
X155259252Y-60035368D01*
X155259255Y-60035368D01*
X155429522Y-59975789D01*
X155582262Y-59879816D01*
X155709816Y-59752262D01*
X155805789Y-59599522D01*
X155865368Y-59429255D01*
X155872758Y-59363666D01*
X155885565Y-59250003D01*
X155885565Y-59249996D01*
X155865369Y-59070750D01*
X155865368Y-59070745D01*
X155805788Y-58900476D01*
X155765043Y-58835631D01*
X155746043Y-58768395D01*
X155766411Y-58701559D01*
X155819678Y-58656345D01*
X155864664Y-58646799D01*
X155864606Y-58646131D01*
X155900011Y-58643033D01*
X156105408Y-58625063D01*
X156233757Y-58590672D01*
X156303606Y-58592335D01*
X156353531Y-58622766D01*
X157033107Y-59302343D01*
X157066592Y-59363666D01*
X157068646Y-59376139D01*
X157074630Y-59429249D01*
X157134210Y-59599521D01*
X157230184Y-59752262D01*
X157357738Y-59879816D01*
X157510478Y-59975789D01*
X157680745Y-60035368D01*
X157680750Y-60035369D01*
X157859996Y-60055565D01*
X157860000Y-60055565D01*
X157860004Y-60055565D01*
X158039249Y-60035369D01*
X158039252Y-60035368D01*
X158039255Y-60035368D01*
X158209522Y-59975789D01*
X158362262Y-59879816D01*
X158489816Y-59752262D01*
X158585789Y-59599522D01*
X158645368Y-59429255D01*
X158652758Y-59363666D01*
X158665565Y-59250003D01*
X158665565Y-59249996D01*
X158645369Y-59070750D01*
X158645368Y-59070745D01*
X158585788Y-58900475D01*
X158532817Y-58816174D01*
X158513816Y-58748937D01*
X158534183Y-58682102D01*
X158587451Y-58636887D01*
X158627001Y-58626673D01*
X158645408Y-58625063D01*
X158873663Y-58563903D01*
X159087830Y-58464035D01*
X159281401Y-58328495D01*
X159448495Y-58161401D01*
X159584035Y-57967830D01*
X159683903Y-57753663D01*
X159745063Y-57525408D01*
X159765659Y-57290000D01*
X159764088Y-57272052D01*
X159777853Y-57203555D01*
X159799932Y-57173566D01*
X160559464Y-56414035D01*
X160658013Y-56266547D01*
X160706081Y-56150500D01*
X160709624Y-56141948D01*
X160720386Y-56115965D01*
X160725895Y-56102666D01*
X160760500Y-55928691D01*
X160760500Y-55751308D01*
X160760500Y-53702299D01*
X160756332Y-53681344D01*
X160755116Y-53675233D01*
X160731948Y-53558757D01*
X160725895Y-53528324D01*
X160691953Y-53446383D01*
X160658013Y-53364443D01*
X160576386Y-53242280D01*
X160559464Y-53216954D01*
X160559462Y-53216951D01*
X160559459Y-53216948D01*
X159393045Y-52050535D01*
X159393040Y-52050531D01*
X159333971Y-52011064D01*
X159333970Y-52011063D01*
X159245554Y-51951985D01*
X159245552Y-51951984D01*
X159163617Y-51918046D01*
X159163616Y-51918046D01*
X159081676Y-51884105D01*
X159081668Y-51884103D01*
X158907706Y-51849500D01*
X158907702Y-51849500D01*
X158907701Y-51849500D01*
X121899361Y-51849500D01*
X121832322Y-51829815D01*
X121811680Y-51813181D01*
X120710681Y-50712181D01*
X120677196Y-50650858D01*
X120682180Y-50581166D01*
X120724052Y-50525233D01*
X120789516Y-50500816D01*
X120798362Y-50500500D01*
X164375500Y-50500500D01*
X164442539Y-50520185D01*
X164488294Y-50572989D01*
X164499500Y-50624500D01*
X164499500Y-119375500D01*
X164479815Y-119442539D01*
X164427011Y-119488294D01*
X164375500Y-119499500D01*
X100624500Y-119499500D01*
X100557461Y-119479815D01*
X100511706Y-119427011D01*
X100500500Y-119375500D01*
X100500500Y-112378711D01*
X105649500Y-112378711D01*
X105649500Y-112621288D01*
X105681161Y-112861785D01*
X105743947Y-113096104D01*
X105827566Y-113297977D01*
X105836776Y-113320212D01*
X105958064Y-113530289D01*
X105958066Y-113530292D01*
X105958067Y-113530293D01*
X106105733Y-113722736D01*
X106105739Y-113722743D01*
X106277256Y-113894260D01*
X106277263Y-113894266D01*
X106379475Y-113972696D01*
X106469711Y-114041936D01*
X106679788Y-114163224D01*
X106903900Y-114256054D01*
X107138211Y-114318838D01*
X107318586Y-114342584D01*
X107378711Y-114350500D01*
X107378712Y-114350500D01*
X107621289Y-114350500D01*
X107669388Y-114344167D01*
X107861789Y-114318838D01*
X108096100Y-114256054D01*
X108320212Y-114163224D01*
X108530289Y-114041936D01*
X108722738Y-113894265D01*
X108894265Y-113722738D01*
X109041936Y-113530289D01*
X109163224Y-113320212D01*
X109256054Y-113096100D01*
X109318838Y-112861789D01*
X109350500Y-112621288D01*
X109350500Y-112378712D01*
X109318838Y-112138211D01*
X109256054Y-111903900D01*
X109163224Y-111679788D01*
X109041936Y-111469711D01*
X108940590Y-111337634D01*
X108894266Y-111277263D01*
X108894260Y-111277256D01*
X108722743Y-111105739D01*
X108722736Y-111105733D01*
X108530293Y-110958067D01*
X108530292Y-110958066D01*
X108530289Y-110958064D01*
X108320212Y-110836776D01*
X108320205Y-110836773D01*
X108096104Y-110743947D01*
X107861785Y-110681161D01*
X107621289Y-110649500D01*
X107621288Y-110649500D01*
X107378712Y-110649500D01*
X107378711Y-110649500D01*
X107138214Y-110681161D01*
X106903895Y-110743947D01*
X106679794Y-110836773D01*
X106679785Y-110836777D01*
X106469706Y-110958067D01*
X106277263Y-111105733D01*
X106277256Y-111105739D01*
X106105739Y-111277256D01*
X106105733Y-111277263D01*
X105958067Y-111469706D01*
X105836777Y-111679785D01*
X105836773Y-111679794D01*
X105743947Y-111903895D01*
X105681161Y-112138214D01*
X105649500Y-112378711D01*
X100500500Y-112378711D01*
X100500500Y-85539999D01*
X102854341Y-85539999D01*
X102854341Y-85540000D01*
X102874936Y-85775403D01*
X102874938Y-85775413D01*
X102936094Y-86003655D01*
X102936096Y-86003659D01*
X102936097Y-86003663D01*
X103016004Y-86175023D01*
X103035965Y-86217830D01*
X103035967Y-86217834D01*
X103144281Y-86372521D01*
X103171501Y-86411396D01*
X103171506Y-86411402D01*
X103338597Y-86578493D01*
X103338603Y-86578498D01*
X103524158Y-86708425D01*
X103567783Y-86763002D01*
X103574977Y-86832500D01*
X103543454Y-86894855D01*
X103524158Y-86911575D01*
X103338597Y-87041505D01*
X103171505Y-87208597D01*
X103035965Y-87402169D01*
X103035964Y-87402171D01*
X102936098Y-87616335D01*
X102936094Y-87616344D01*
X102874938Y-87844586D01*
X102874936Y-87844596D01*
X102854341Y-88079999D01*
X102854341Y-88080000D01*
X102874936Y-88315403D01*
X102874938Y-88315413D01*
X102936094Y-88543655D01*
X102936096Y-88543659D01*
X102936097Y-88543663D01*
X103004071Y-88689433D01*
X103035965Y-88757830D01*
X103035967Y-88757834D01*
X103079466Y-88819956D01*
X103171501Y-88951396D01*
X103171506Y-88951402D01*
X103338597Y-89118493D01*
X103338603Y-89118498D01*
X103524158Y-89248425D01*
X103567783Y-89303002D01*
X103574977Y-89372500D01*
X103543454Y-89434855D01*
X103524158Y-89451575D01*
X103338597Y-89581505D01*
X103171505Y-89748597D01*
X103035965Y-89942169D01*
X103035964Y-89942171D01*
X102936098Y-90156335D01*
X102936094Y-90156344D01*
X102874938Y-90384586D01*
X102874936Y-90384596D01*
X102854341Y-90619999D01*
X102854341Y-90620000D01*
X102874936Y-90855403D01*
X102874938Y-90855413D01*
X102936094Y-91083655D01*
X102936096Y-91083659D01*
X102936097Y-91083663D01*
X103016004Y-91255023D01*
X103035965Y-91297830D01*
X103035967Y-91297834D01*
X103144281Y-91452521D01*
X103171501Y-91491396D01*
X103171506Y-91491402D01*
X103338597Y-91658493D01*
X103338603Y-91658498D01*
X103524158Y-91788425D01*
X103567783Y-91843002D01*
X103574977Y-91912500D01*
X103543454Y-91974855D01*
X103524158Y-91991575D01*
X103338597Y-92121505D01*
X103171505Y-92288597D01*
X103035965Y-92482169D01*
X103035964Y-92482171D01*
X102936098Y-92696335D01*
X102936094Y-92696344D01*
X102874938Y-92924586D01*
X102874936Y-92924596D01*
X102854341Y-93159999D01*
X102854341Y-93160000D01*
X102874936Y-93395403D01*
X102874938Y-93395413D01*
X102936094Y-93623655D01*
X102936096Y-93623659D01*
X102936097Y-93623663D01*
X103016004Y-93795023D01*
X103035965Y-93837830D01*
X103035967Y-93837834D01*
X103142670Y-93990220D01*
X103171505Y-94031401D01*
X103338599Y-94198495D01*
X103381675Y-94228657D01*
X103532165Y-94334032D01*
X103532167Y-94334033D01*
X103532170Y-94334035D01*
X103746337Y-94433903D01*
X103974592Y-94495063D01*
X104151034Y-94510500D01*
X104209999Y-94515659D01*
X104210000Y-94515659D01*
X104210001Y-94515659D01*
X104268966Y-94510500D01*
X104445408Y-94495063D01*
X104673663Y-94433903D01*
X104887830Y-94334035D01*
X105081401Y-94198495D01*
X105248495Y-94031401D01*
X105378425Y-93845842D01*
X105433002Y-93802217D01*
X105502500Y-93795023D01*
X105564855Y-93826546D01*
X105581575Y-93845842D01*
X105711500Y-94031395D01*
X105711505Y-94031401D01*
X105878599Y-94198495D01*
X105921675Y-94228657D01*
X106072165Y-94334032D01*
X106072167Y-94334033D01*
X106072170Y-94334035D01*
X106286337Y-94433903D01*
X106514592Y-94495063D01*
X106691034Y-94510500D01*
X106749999Y-94515659D01*
X106750000Y-94515659D01*
X106750001Y-94515659D01*
X106808966Y-94510500D01*
X106985408Y-94495063D01*
X107213663Y-94433903D01*
X107427830Y-94334035D01*
X107621401Y-94198495D01*
X107788495Y-94031401D01*
X107924035Y-93837830D01*
X108023903Y-93623663D01*
X108085063Y-93395408D01*
X108105659Y-93160000D01*
X108085063Y-92924592D01*
X108023903Y-92696337D01*
X107924035Y-92482171D01*
X107918425Y-92474158D01*
X107788494Y-92288597D01*
X107621402Y-92121506D01*
X107621396Y-92121501D01*
X107435842Y-91991575D01*
X107392217Y-91936998D01*
X107385023Y-91867500D01*
X107416546Y-91805145D01*
X107435842Y-91788425D01*
X107551747Y-91707267D01*
X107621401Y-91658495D01*
X107788495Y-91491401D01*
X107924035Y-91297830D01*
X108023903Y-91083663D01*
X108085063Y-90855408D01*
X108105659Y-90620000D01*
X108103867Y-90599523D01*
X108101539Y-90572918D01*
X108085063Y-90384592D01*
X108023903Y-90156337D01*
X107924035Y-89942171D01*
X107918425Y-89934158D01*
X107788494Y-89748597D01*
X107621402Y-89581506D01*
X107621396Y-89581501D01*
X107435842Y-89451575D01*
X107392217Y-89396998D01*
X107385023Y-89327500D01*
X107416546Y-89265145D01*
X107435842Y-89248425D01*
X107551747Y-89167267D01*
X107621401Y-89118495D01*
X107788495Y-88951401D01*
X107924035Y-88757830D01*
X108023903Y-88543663D01*
X108085063Y-88315408D01*
X108105659Y-88080000D01*
X108085063Y-87844592D01*
X108023903Y-87616337D01*
X107924035Y-87402171D01*
X107918425Y-87394158D01*
X107788494Y-87208597D01*
X107621402Y-87041506D01*
X107621396Y-87041501D01*
X107435842Y-86911575D01*
X107392217Y-86856998D01*
X107385023Y-86787500D01*
X107416546Y-86725145D01*
X107435842Y-86708425D01*
X107502128Y-86662011D01*
X107621401Y-86578495D01*
X107788495Y-86411401D01*
X107924035Y-86217830D01*
X108023903Y-86003663D01*
X108085063Y-85775408D01*
X108105659Y-85540000D01*
X108085063Y-85304592D01*
X108023903Y-85076337D01*
X107924035Y-84862171D01*
X107918425Y-84854158D01*
X107788494Y-84668597D01*
X107621402Y-84501506D01*
X107621396Y-84501501D01*
X107435842Y-84371575D01*
X107392217Y-84316998D01*
X107385023Y-84247500D01*
X107416546Y-84185145D01*
X107435842Y-84168425D01*
X107551747Y-84087267D01*
X107621401Y-84038495D01*
X107788495Y-83871401D01*
X107924035Y-83677830D01*
X108023903Y-83463663D01*
X108085063Y-83235408D01*
X108105659Y-83000000D01*
X108085063Y-82764592D01*
X108038626Y-82591285D01*
X108023905Y-82536344D01*
X108023904Y-82536343D01*
X108023903Y-82536337D01*
X107924035Y-82322171D01*
X107918425Y-82314158D01*
X107788494Y-82128597D01*
X107621402Y-81961506D01*
X107621395Y-81961501D01*
X107427834Y-81825967D01*
X107427830Y-81825965D01*
X107297890Y-81765373D01*
X107213663Y-81726097D01*
X107213659Y-81726096D01*
X107213655Y-81726094D01*
X106985413Y-81664938D01*
X106985403Y-81664936D01*
X106750001Y-81644341D01*
X106749999Y-81644341D01*
X106514596Y-81664936D01*
X106514586Y-81664938D01*
X106286344Y-81726094D01*
X106286335Y-81726098D01*
X106072171Y-81825964D01*
X106072169Y-81825965D01*
X105878597Y-81961505D01*
X105711503Y-82128599D01*
X105710349Y-82129975D01*
X105709688Y-82130414D01*
X105707676Y-82132427D01*
X105707271Y-82132022D01*
X105652173Y-82168671D01*
X105582312Y-82169772D01*
X105522946Y-82132928D01*
X105497663Y-82089265D01*
X105494814Y-82080666D01*
X105402712Y-81931344D01*
X105278656Y-81807288D01*
X105185888Y-81750069D01*
X105129336Y-81715187D01*
X105129331Y-81715185D01*
X105127862Y-81714698D01*
X104962797Y-81660001D01*
X104962795Y-81660000D01*
X104860010Y-81649500D01*
X103559998Y-81649500D01*
X103559981Y-81649501D01*
X103457203Y-81660000D01*
X103457200Y-81660001D01*
X103290668Y-81715185D01*
X103290663Y-81715187D01*
X103141342Y-81807289D01*
X103017289Y-81931342D01*
X102925187Y-82080663D01*
X102925185Y-82080668D01*
X102908701Y-82130414D01*
X102870001Y-82247203D01*
X102870001Y-82247204D01*
X102870000Y-82247204D01*
X102859500Y-82349983D01*
X102859500Y-83650001D01*
X102859501Y-83650018D01*
X102870000Y-83752796D01*
X102870001Y-83752799D01*
X102925185Y-83919331D01*
X102925187Y-83919336D01*
X102931305Y-83929255D01*
X103017288Y-84068656D01*
X103141344Y-84192712D01*
X103290666Y-84284814D01*
X103299264Y-84287663D01*
X103356707Y-84327433D01*
X103383531Y-84391948D01*
X103371217Y-84460724D01*
X103342234Y-84497483D01*
X103342427Y-84497676D01*
X103340798Y-84499304D01*
X103339975Y-84500349D01*
X103338599Y-84501503D01*
X103171505Y-84668597D01*
X103035965Y-84862169D01*
X103035964Y-84862171D01*
X102936098Y-85076335D01*
X102936094Y-85076344D01*
X102874938Y-85304586D01*
X102874936Y-85304596D01*
X102854341Y-85539999D01*
X100500500Y-85539999D01*
X100500500Y-67378711D01*
X105649500Y-67378711D01*
X105649500Y-67621288D01*
X105681161Y-67861785D01*
X105743947Y-68096104D01*
X105792933Y-68214366D01*
X105836776Y-68320212D01*
X105958064Y-68530289D01*
X105958066Y-68530292D01*
X105958067Y-68530293D01*
X106105733Y-68722736D01*
X106105739Y-68722743D01*
X106277256Y-68894260D01*
X106277262Y-68894265D01*
X106469711Y-69041936D01*
X106679788Y-69163224D01*
X106903900Y-69256054D01*
X107138211Y-69318838D01*
X107318586Y-69342584D01*
X107378711Y-69350500D01*
X107378712Y-69350500D01*
X107621289Y-69350500D01*
X107669388Y-69344167D01*
X107861789Y-69318838D01*
X108096100Y-69256054D01*
X108320212Y-69163224D01*
X108530289Y-69041936D01*
X108722738Y-68894265D01*
X108894265Y-68722738D01*
X109041936Y-68530289D01*
X109163224Y-68320212D01*
X109256054Y-68096100D01*
X109318838Y-67861789D01*
X109350500Y-67621288D01*
X109350500Y-67378712D01*
X109318838Y-67138211D01*
X109256054Y-66903900D01*
X109163224Y-66679788D01*
X109041936Y-66469711D01*
X108894265Y-66277262D01*
X108894260Y-66277256D01*
X108722743Y-66105739D01*
X108722736Y-66105733D01*
X108530293Y-65958067D01*
X108530292Y-65958066D01*
X108530289Y-65958064D01*
X108320212Y-65836776D01*
X108320205Y-65836773D01*
X108096104Y-65743947D01*
X107861785Y-65681161D01*
X107621289Y-65649500D01*
X107621288Y-65649500D01*
X107378712Y-65649500D01*
X107378711Y-65649500D01*
X107138214Y-65681161D01*
X106903895Y-65743947D01*
X106679794Y-65836773D01*
X106679785Y-65836777D01*
X106469706Y-65958067D01*
X106277263Y-66105733D01*
X106277256Y-66105739D01*
X106105739Y-66277256D01*
X106105733Y-66277263D01*
X105958067Y-66469706D01*
X105836777Y-66679785D01*
X105836773Y-66679794D01*
X105743947Y-66903895D01*
X105681161Y-67138214D01*
X105649500Y-67378711D01*
X100500500Y-67378711D01*
X100500500Y-50624500D01*
X100520185Y-50557461D01*
X100572989Y-50511706D01*
X100624500Y-50500500D01*
X104826639Y-50500500D01*
X104893678Y-50520185D01*
G37*
G04 #@! TD.AperFunction*
G04 #@! TA.AperFunction,Conductor*
G36*
X149364925Y-55511373D02*
G01*
X149418119Y-55435405D01*
X149472696Y-55391781D01*
X149542195Y-55384588D01*
X149604549Y-55416110D01*
X149621269Y-55435405D01*
X149751505Y-55621401D01*
X149918599Y-55788495D01*
X150104158Y-55918425D01*
X150104594Y-55918730D01*
X150148218Y-55973307D01*
X150155411Y-56042806D01*
X150123889Y-56105160D01*
X150104593Y-56121880D01*
X150028626Y-56175072D01*
X150028625Y-56175072D01*
X150660590Y-56807037D01*
X150597007Y-56824075D01*
X150482993Y-56889901D01*
X150389901Y-56982993D01*
X150324075Y-57097007D01*
X150307037Y-57160590D01*
X149675072Y-56528625D01*
X149675072Y-56528626D01*
X149621574Y-56605030D01*
X149566998Y-56648655D01*
X149497499Y-56655849D01*
X149435144Y-56624326D01*
X149418424Y-56605030D01*
X149364925Y-56528626D01*
X149364925Y-56528625D01*
X148732962Y-57160589D01*
X148715925Y-57097007D01*
X148650099Y-56982993D01*
X148557007Y-56889901D01*
X148442993Y-56824075D01*
X148379410Y-56807037D01*
X149011373Y-56175073D01*
X148934969Y-56121576D01*
X148891344Y-56066999D01*
X148884150Y-55997501D01*
X148915672Y-55935146D01*
X148934968Y-55918425D01*
X149011373Y-55864925D01*
X148379409Y-55232962D01*
X148442993Y-55215925D01*
X148557007Y-55150099D01*
X148650099Y-55057007D01*
X148715925Y-54942993D01*
X148732962Y-54879410D01*
X149364925Y-55511373D01*
G37*
G04 #@! TD.AperFunction*
G04 #@! TA.AperFunction,Conductor*
G36*
X152144855Y-55416546D02*
G01*
X152161575Y-55435842D01*
X152291501Y-55621396D01*
X152291506Y-55621402D01*
X152458597Y-55788493D01*
X152458603Y-55788498D01*
X152644158Y-55918425D01*
X152687783Y-55973002D01*
X152694977Y-56042500D01*
X152663454Y-56104855D01*
X152644158Y-56121575D01*
X152458597Y-56251505D01*
X152291505Y-56418597D01*
X152161269Y-56604595D01*
X152106692Y-56648220D01*
X152037194Y-56655414D01*
X151974839Y-56623891D01*
X151958119Y-56604595D01*
X151904925Y-56528626D01*
X151904925Y-56528625D01*
X151272962Y-57160589D01*
X151255925Y-57097007D01*
X151190099Y-56982993D01*
X151097007Y-56889901D01*
X150982993Y-56824075D01*
X150919410Y-56807037D01*
X151551373Y-56175073D01*
X151551373Y-56175072D01*
X151475405Y-56121880D01*
X151431780Y-56067304D01*
X151424586Y-55997805D01*
X151456108Y-55935451D01*
X151475399Y-55918734D01*
X151661401Y-55788495D01*
X151828495Y-55621401D01*
X151958425Y-55435842D01*
X152013002Y-55392217D01*
X152082500Y-55385023D01*
X152144855Y-55416546D01*
G37*
G04 #@! TD.AperFunction*
G04 #@! TA.AperFunction,Conductor*
G36*
X119392677Y-51945185D02*
G01*
X119413319Y-51961819D01*
X120775536Y-53324035D01*
X120897882Y-53446381D01*
X120900966Y-53449465D01*
X121048446Y-53548009D01*
X121048459Y-53548016D01*
X121171363Y-53598923D01*
X121212334Y-53615894D01*
X121212336Y-53615894D01*
X121212341Y-53615896D01*
X121386304Y-53650499D01*
X121386307Y-53650500D01*
X121386309Y-53650500D01*
X147452691Y-53650500D01*
X147519730Y-53670185D01*
X147540372Y-53686819D01*
X148120590Y-54267037D01*
X148057007Y-54284075D01*
X147942993Y-54349901D01*
X147849901Y-54442993D01*
X147784075Y-54557007D01*
X147767037Y-54620590D01*
X147135072Y-53988625D01*
X147076401Y-54072419D01*
X146976570Y-54286507D01*
X146976566Y-54286516D01*
X146915432Y-54514673D01*
X146915430Y-54514683D01*
X146905011Y-54633778D01*
X146879558Y-54698846D01*
X146822967Y-54739825D01*
X146753205Y-54743703D01*
X146712593Y-54726073D01*
X146676545Y-54701986D01*
X146512666Y-54634105D01*
X146512658Y-54634103D01*
X146338696Y-54599500D01*
X146338692Y-54599500D01*
X146161308Y-54599500D01*
X146161303Y-54599500D01*
X145987341Y-54634103D01*
X145987333Y-54634105D01*
X145912601Y-54665061D01*
X145865148Y-54674500D01*
X118161306Y-54674500D01*
X118077640Y-54691142D01*
X118035807Y-54699464D01*
X118024188Y-54701774D01*
X117975811Y-54701774D01*
X117884219Y-54683555D01*
X117822308Y-54651170D01*
X117787733Y-54590454D01*
X117790478Y-54523623D01*
X117817246Y-54441243D01*
X117850500Y-54231287D01*
X117850500Y-53768713D01*
X117817246Y-53558757D01*
X117751557Y-53356588D01*
X117655051Y-53167184D01*
X117655049Y-53167181D01*
X117655048Y-53167179D01*
X117530109Y-52995213D01*
X117379786Y-52844890D01*
X117207820Y-52719951D01*
X117018414Y-52623444D01*
X117018413Y-52623443D01*
X117018412Y-52623443D01*
X116816243Y-52557754D01*
X116816241Y-52557753D01*
X116816240Y-52557753D01*
X116654957Y-52532208D01*
X116606287Y-52524500D01*
X116393713Y-52524500D01*
X116345042Y-52532208D01*
X116183760Y-52557753D01*
X115981585Y-52623444D01*
X115792179Y-52719951D01*
X115620213Y-52844890D01*
X115469894Y-52995209D01*
X115469890Y-52995214D01*
X115350318Y-53159793D01*
X115294989Y-53202459D01*
X115225375Y-53208438D01*
X115163580Y-53175833D01*
X115149682Y-53159793D01*
X115030109Y-52995214D01*
X115030105Y-52995209D01*
X114879786Y-52844890D01*
X114707820Y-52719951D01*
X114518414Y-52623444D01*
X114518413Y-52623443D01*
X114518412Y-52623443D01*
X114316243Y-52557754D01*
X114316241Y-52557753D01*
X114316240Y-52557753D01*
X114154957Y-52532208D01*
X114106287Y-52524500D01*
X113893713Y-52524500D01*
X113845042Y-52532208D01*
X113683760Y-52557753D01*
X113481585Y-52623444D01*
X113292179Y-52719951D01*
X113120213Y-52844890D01*
X112969894Y-52995209D01*
X112969890Y-52995214D01*
X112850008Y-53160218D01*
X112794678Y-53202884D01*
X112725065Y-53208863D01*
X112663270Y-53176257D01*
X112649372Y-53160218D01*
X112529727Y-52995540D01*
X112529723Y-52995535D01*
X112379464Y-52845276D01*
X112379459Y-52845272D01*
X112207557Y-52720379D01*
X112018215Y-52623903D01*
X111816124Y-52558241D01*
X111750000Y-52547768D01*
X111750000Y-53595854D01*
X111683343Y-53557370D01*
X111562535Y-53525000D01*
X111437465Y-53525000D01*
X111316657Y-53557370D01*
X111250000Y-53595854D01*
X111250000Y-52547768D01*
X111249999Y-52547768D01*
X111183875Y-52558241D01*
X110981784Y-52623903D01*
X110792442Y-52720379D01*
X110620540Y-52845272D01*
X110620535Y-52845276D01*
X110470276Y-52995535D01*
X110470272Y-52995540D01*
X110350627Y-53160218D01*
X110295297Y-53202884D01*
X110225684Y-53208863D01*
X110163889Y-53176257D01*
X110149991Y-53160218D01*
X110030109Y-52995214D01*
X110030105Y-52995209D01*
X109879786Y-52844890D01*
X109707820Y-52719951D01*
X109518414Y-52623444D01*
X109518413Y-52623443D01*
X109518412Y-52623443D01*
X109316243Y-52557754D01*
X109316241Y-52557753D01*
X109316240Y-52557753D01*
X109154957Y-52532208D01*
X109106287Y-52524500D01*
X108893713Y-52524500D01*
X108845042Y-52532208D01*
X108683760Y-52557753D01*
X108481585Y-52623444D01*
X108292179Y-52719951D01*
X108120213Y-52844890D01*
X107969894Y-52995209D01*
X107969890Y-52995214D01*
X107850318Y-53159793D01*
X107794989Y-53202459D01*
X107725375Y-53208438D01*
X107663580Y-53175833D01*
X107649682Y-53159793D01*
X107530109Y-52995214D01*
X107530105Y-52995209D01*
X107379786Y-52844890D01*
X107207820Y-52719951D01*
X107018414Y-52623444D01*
X107018413Y-52623443D01*
X107018412Y-52623443D01*
X106816243Y-52557754D01*
X106816241Y-52557753D01*
X106816240Y-52557753D01*
X106654957Y-52532208D01*
X106606287Y-52524500D01*
X106393713Y-52524500D01*
X106345042Y-52532208D01*
X106183760Y-52557753D01*
X105981585Y-52623444D01*
X105799335Y-52716305D01*
X105730665Y-52729201D01*
X105665925Y-52702924D01*
X105625668Y-52645818D01*
X105622676Y-52576012D01*
X105655357Y-52518141D01*
X106211680Y-51961819D01*
X106273003Y-51928334D01*
X106299361Y-51925500D01*
X119325638Y-51925500D01*
X119392677Y-51945185D01*
G37*
G04 #@! TD.AperFunction*
G04 #@! TA.AperFunction,Conductor*
G36*
X149747280Y-53670185D02*
G01*
X149793035Y-53722989D01*
X149802979Y-53792147D01*
X149773954Y-53855703D01*
X149767922Y-53862181D01*
X149751505Y-53878597D01*
X149621269Y-54064595D01*
X149566692Y-54108220D01*
X149497194Y-54115414D01*
X149434839Y-54083891D01*
X149418119Y-54064595D01*
X149364925Y-53988626D01*
X149364925Y-53988625D01*
X148732962Y-54620589D01*
X148715925Y-54557007D01*
X148650099Y-54442993D01*
X148557007Y-54349901D01*
X148442993Y-54284075D01*
X148379409Y-54267037D01*
X148959628Y-53686819D01*
X149020951Y-53653334D01*
X149047309Y-53650500D01*
X149680241Y-53650500D01*
X149747280Y-53670185D01*
G37*
G04 #@! TD.AperFunction*
M02*
