G04 #@! TF.GenerationSoftware,KiCad,Pcbnew,8.0.5*
G04 #@! TF.CreationDate,2024-10-05T13:15:26+02:00*
G04 #@! TF.ProjectId,auxboard,61757862-6f61-4726-942e-6b696361645f,rev?*
G04 #@! TF.SameCoordinates,Original*
G04 #@! TF.FileFunction,Legend,Top*
G04 #@! TF.FilePolarity,Positive*
%FSLAX46Y46*%
G04 Gerber Fmt 4.6, Leading zero omitted, Abs format (unit mm)*
G04 Created by KiCad (PCBNEW 8.0.5) date 2024-10-05 13:15:26*
%MOMM*%
%LPD*%
G01*
G04 APERTURE LIST*
G04 Aperture macros list*
%AMRoundRect*
0 Rectangle with rounded corners*
0 $1 Rounding radius*
0 $2 $3 $4 $5 $6 $7 $8 $9 X,Y pos of 4 corners*
0 Add a 4 corners polygon primitive as box body*
4,1,4,$2,$3,$4,$5,$6,$7,$8,$9,$2,$3,0*
0 Add four circle primitives for the rounded corners*
1,1,$1+$1,$2,$3*
1,1,$1+$1,$4,$5*
1,1,$1+$1,$6,$7*
1,1,$1+$1,$8,$9*
0 Add four rect primitives between the rounded corners*
20,1,$1+$1,$2,$3,$4,$5,0*
20,1,$1+$1,$4,$5,$6,$7,0*
20,1,$1+$1,$6,$7,$8,$9,0*
20,1,$1+$1,$8,$9,$2,$3,0*%
%AMFreePoly0*
4,1,28,0.178017,0.779942,0.347107,0.720775,0.498792,0.625465,0.625465,0.498792,0.720775,0.347107,0.779942,0.178017,0.800000,0.000000,0.779942,-0.178017,0.720775,-0.347107,0.625465,-0.498792,0.498792,-0.625465,0.347107,-0.720775,0.178017,-0.779942,0.000000,-0.800000,-2.200000,-0.800000,-2.205014,-0.794986,-2.244504,-0.794986,-2.324698,-0.756366,-2.380194,-0.686777,-2.400000,-0.600000,
-2.400000,0.600000,-2.380194,0.686777,-2.324698,0.756366,-2.244504,0.794986,-2.205014,0.794986,-2.200000,0.800000,0.000000,0.800000,0.178017,0.779942,0.178017,0.779942,$1*%
%AMFreePoly1*
4,1,28,0.605014,0.794986,0.644504,0.794986,0.724698,0.756366,0.780194,0.686777,0.800000,0.600000,0.800000,-0.600000,0.780194,-0.686777,0.724698,-0.756366,0.644504,-0.794986,0.605014,-0.794986,0.600000,-0.800000,0.000000,-0.800000,-0.178017,-0.779942,-0.347107,-0.720775,-0.498792,-0.625465,-0.625465,-0.498792,-0.720775,-0.347107,-0.779942,-0.178017,-0.800000,0.000000,-0.779942,0.178017,
-0.720775,0.347107,-0.625465,0.498792,-0.498792,0.625465,-0.347107,0.720775,-0.178017,0.779942,0.000000,0.800000,0.600000,0.800000,0.605014,0.794986,0.605014,0.794986,$1*%
%AMFreePoly2*
4,1,29,0.605014,0.794986,0.644504,0.794986,0.724698,0.756366,0.780194,0.686777,0.800000,0.600000,0.800000,-0.600000,0.780194,-0.686777,0.724698,-0.756366,0.644504,-0.794986,0.605014,-0.794986,0.600000,-0.800000,0.000000,-0.800000,-1.600000,-0.800000,-1.778017,-0.779942,-1.947107,-0.720775,-2.098792,-0.625465,-2.225465,-0.498792,-2.320775,-0.347107,-2.379942,-0.178017,-2.400000,0.000000,
-2.379942,0.178017,-2.320775,0.347107,-2.225465,0.498792,-2.098792,0.625465,-1.947107,0.720775,-1.778017,0.779942,-1.600000,0.800000,0.600000,0.800000,0.605014,0.794986,0.605014,0.794986,$1*%
%AMFreePoly3*
4,1,28,0.178017,0.779942,0.347107,0.720775,0.498792,0.625465,0.625465,0.498792,0.720775,0.347107,0.779942,0.178017,0.800000,0.000000,0.779942,-0.178017,0.720775,-0.347107,0.625465,-0.498792,0.498792,-0.625465,0.347107,-0.720775,0.178017,-0.779942,0.000000,-0.800000,-0.600000,-0.800000,-0.605014,-0.794986,-0.644504,-0.794986,-0.724698,-0.756366,-0.780194,-0.686777,-0.800000,-0.600000,
-0.800000,0.600000,-0.780194,0.686777,-0.724698,0.756366,-0.644504,0.794986,-0.605014,0.794986,-0.600000,0.800000,0.000000,0.800000,0.178017,0.779942,0.178017,0.779942,$1*%
%AMFreePoly4*
4,1,29,1.778017,0.779942,1.947107,0.720775,2.098792,0.625465,2.225465,0.498792,2.320775,0.347107,2.379942,0.178017,2.400000,0.000000,2.379942,-0.178017,2.320775,-0.347107,2.225465,-0.498792,2.098792,-0.625465,1.947107,-0.720775,1.778017,-0.779942,1.600000,-0.800000,0.000000,-0.800000,-0.600000,-0.800000,-0.605014,-0.794986,-0.644504,-0.794986,-0.724698,-0.756366,-0.780194,-0.686777,
-0.800000,-0.600000,-0.800000,0.600000,-0.780194,0.686777,-0.724698,0.756366,-0.644504,0.794986,-0.605014,0.794986,-0.600000,0.800000,1.600000,0.800000,1.778017,0.779942,1.778017,0.779942,$1*%
G04 Aperture macros list end*
%ADD10C,0.165000*%
%ADD11C,0.100000*%
%ADD12C,0.150000*%
%ADD13C,0.120000*%
%ADD14C,3.200000*%
%ADD15RoundRect,0.250000X-0.600000X0.600000X-0.600000X-0.600000X0.600000X-0.600000X0.600000X0.600000X0*%
%ADD16C,1.700000*%
%ADD17RoundRect,0.250000X-0.600000X-0.600000X0.600000X-0.600000X0.600000X0.600000X-0.600000X0.600000X0*%
%ADD18RoundRect,0.250000X-0.600000X-0.725000X0.600000X-0.725000X0.600000X0.725000X-0.600000X0.725000X0*%
%ADD19O,1.700000X1.950000*%
%ADD20RoundRect,0.250000X0.600000X0.600000X-0.600000X0.600000X-0.600000X-0.600000X0.600000X-0.600000X0*%
%ADD21C,2.200000*%
%ADD22C,1.850000*%
%ADD23RoundRect,0.200000X0.600000X0.600000X-0.600000X0.600000X-0.600000X-0.600000X0.600000X-0.600000X0*%
%ADD24FreePoly0,180.000000*%
%ADD25C,1.600000*%
%ADD26RoundRect,0.800000X0.800000X0.000010X-0.800000X0.000010X-0.800000X-0.000010X0.800000X-0.000010X0*%
%ADD27FreePoly1,180.000000*%
%ADD28FreePoly2,180.000000*%
%ADD29FreePoly3,180.000000*%
%ADD30FreePoly4,180.000000*%
%ADD31R,1.700000X1.700000*%
%ADD32O,1.700000X1.700000*%
G04 APERTURE END LIST*
D10*
X155455000Y-99965000D02*
X155497702Y-99970609D01*
X155537500Y-99987110D01*
X155571655Y-100013345D01*
X155597890Y-100047500D01*
X155614390Y-100087297D01*
X155620000Y-100130000D01*
X155620000Y-104090000D01*
X155614390Y-104132705D01*
X155597890Y-104172500D01*
X155571655Y-104206675D01*
X155537500Y-104232895D01*
X155497702Y-104249380D01*
X154585021Y-104553599D01*
X154585021Y-105745679D01*
X154253338Y-106202195D01*
X155571655Y-107273325D01*
X155597890Y-107307500D01*
X155614390Y-107347295D01*
X155620000Y-107390000D01*
X155620000Y-108710000D01*
X155614390Y-108752702D01*
X155597890Y-108792500D01*
X155571655Y-108826655D01*
X155537500Y-108852890D01*
X155497702Y-108869390D01*
X153540304Y-109195622D01*
X153517699Y-109199390D01*
X153475000Y-109205000D01*
X153432295Y-109199390D01*
X153392500Y-109182890D01*
X153358325Y-109156655D01*
X152450825Y-108084155D01*
X152446888Y-108079040D01*
X151660000Y-108334724D01*
X151660000Y-109700000D01*
X151654377Y-109742702D01*
X151637890Y-109782500D01*
X151611671Y-109816655D01*
X150621670Y-110806655D01*
X150587500Y-110832890D01*
X150547700Y-110849390D01*
X150505000Y-110855000D01*
X150462300Y-110849390D01*
X150422500Y-110832890D01*
X150388330Y-110806655D01*
X149398329Y-109816655D01*
X149372110Y-109782500D01*
X149355623Y-109742702D01*
X149350000Y-109700000D01*
X149350000Y-108441941D01*
X149680000Y-108441941D01*
X149680000Y-109631657D01*
X150505000Y-110456657D01*
X151330000Y-109631657D01*
X151330000Y-108441941D01*
X150505000Y-108710000D01*
X149680000Y-108441941D01*
X149350000Y-108441941D01*
X149350000Y-108334724D01*
X148563112Y-108079040D01*
X148559175Y-108084155D01*
X147651675Y-109156655D01*
X147617500Y-109182890D01*
X147577705Y-109199390D01*
X147535000Y-109205000D01*
X147492301Y-109199390D01*
X147469696Y-109195622D01*
X145512298Y-108869390D01*
X145472500Y-108852890D01*
X145438345Y-108826655D01*
X145412110Y-108792500D01*
X145395610Y-108752702D01*
X145390000Y-108710000D01*
X145390000Y-107467405D01*
X145720000Y-107467405D01*
X145720000Y-108571004D01*
X147469696Y-108862625D01*
X148225535Y-107969348D01*
X148075398Y-107920566D01*
X147983404Y-107890676D01*
X147828389Y-107677315D01*
X148342371Y-107677315D01*
X150505000Y-108380000D01*
X151768849Y-107969348D01*
X152784465Y-107969348D01*
X153540304Y-108862625D01*
X155290000Y-108571004D01*
X155290000Y-107467405D01*
X154060123Y-106468138D01*
X153026596Y-107890676D01*
X152934602Y-107920566D01*
X152784465Y-107969348D01*
X151768849Y-107969348D01*
X152667629Y-107677315D01*
X151852799Y-106555800D01*
X149157201Y-106555800D01*
X149147218Y-106569540D01*
X148342371Y-107677315D01*
X147828389Y-107677315D01*
X146949877Y-106468138D01*
X145720000Y-107467405D01*
X145390000Y-107467405D01*
X145390000Y-107390000D01*
X145395610Y-107347295D01*
X145412110Y-107307500D01*
X145438345Y-107273325D01*
X146756662Y-106202195D01*
X146424979Y-105745679D01*
X146424979Y-105643703D01*
X146738809Y-105643703D01*
X148075398Y-107483347D01*
X148890224Y-106361832D01*
X152119776Y-106361832D01*
X152934602Y-107483347D01*
X154271191Y-105643703D01*
X154271191Y-103369788D01*
X152952765Y-103798168D01*
X152850785Y-104112027D01*
X152119776Y-106361832D01*
X148890224Y-106361832D01*
X148159215Y-104112028D01*
X148057235Y-103798168D01*
X147774093Y-103706170D01*
X148308061Y-103706170D01*
X149147218Y-106288830D01*
X151862782Y-106288830D01*
X152701939Y-103706170D01*
X150505000Y-102110000D01*
X148308061Y-103706170D01*
X147774093Y-103706170D01*
X146738809Y-103369788D01*
X146738809Y-105643703D01*
X146424979Y-105643703D01*
X146424979Y-104553599D01*
X145512298Y-104249380D01*
X145472500Y-104232895D01*
X145438345Y-104206675D01*
X145412110Y-104172500D01*
X145395610Y-104132705D01*
X145390000Y-104090000D01*
X145390000Y-100274375D01*
X145720000Y-100274375D01*
X145720000Y-103971391D01*
X146424979Y-104206378D01*
X146424979Y-103094321D01*
X146452863Y-103055942D01*
X146840779Y-103055942D01*
X148159215Y-103484318D01*
X150340000Y-101899882D01*
X150670000Y-101899882D01*
X152850785Y-103484318D01*
X154169221Y-103055942D01*
X152832629Y-101216297D01*
X152648095Y-101156339D01*
X153177004Y-101156339D01*
X154585021Y-103094321D01*
X154585021Y-104206378D01*
X155290000Y-103971391D01*
X155290000Y-100274375D01*
X154195753Y-100137590D01*
X153177004Y-101156339D01*
X152648095Y-101156339D01*
X150670000Y-100513625D01*
X150670000Y-101899882D01*
X150340000Y-101899882D01*
X150340000Y-100513625D01*
X148177371Y-101216297D01*
X146840779Y-103055942D01*
X146452863Y-103055942D01*
X147832997Y-101156339D01*
X146814247Y-100137590D01*
X145720000Y-100274375D01*
X145390000Y-100274375D01*
X145390000Y-100130000D01*
X145395610Y-100087297D01*
X145412110Y-100047500D01*
X145438345Y-100013345D01*
X145472500Y-99987110D01*
X145512298Y-99970609D01*
X145555000Y-99965000D01*
X146875000Y-99800000D01*
X146917702Y-99805609D01*
X146957500Y-99822110D01*
X146991688Y-99848345D01*
X148065871Y-100922528D01*
X150505000Y-100130000D01*
X152944129Y-100922528D01*
X154018312Y-99848345D01*
X154052500Y-99822110D01*
X154092298Y-99805609D01*
X154135000Y-99800000D01*
X155455000Y-99965000D01*
G36*
X155455000Y-99965000D02*
G01*
X155497702Y-99970609D01*
X155537500Y-99987110D01*
X155571655Y-100013345D01*
X155597890Y-100047500D01*
X155614390Y-100087297D01*
X155620000Y-100130000D01*
X155620000Y-104090000D01*
X155614390Y-104132705D01*
X155597890Y-104172500D01*
X155571655Y-104206675D01*
X155537500Y-104232895D01*
X155497702Y-104249380D01*
X154585021Y-104553599D01*
X154585021Y-105745679D01*
X154253338Y-106202195D01*
X155571655Y-107273325D01*
X155597890Y-107307500D01*
X155614390Y-107347295D01*
X155620000Y-107390000D01*
X155620000Y-108710000D01*
X155614390Y-108752702D01*
X155597890Y-108792500D01*
X155571655Y-108826655D01*
X155537500Y-108852890D01*
X155497702Y-108869390D01*
X153540304Y-109195622D01*
X153517699Y-109199390D01*
X153475000Y-109205000D01*
X153432295Y-109199390D01*
X153392500Y-109182890D01*
X153358325Y-109156655D01*
X152450825Y-108084155D01*
X152446888Y-108079040D01*
X151660000Y-108334724D01*
X151660000Y-109700000D01*
X151654377Y-109742702D01*
X151637890Y-109782500D01*
X151611671Y-109816655D01*
X150621670Y-110806655D01*
X150587500Y-110832890D01*
X150547700Y-110849390D01*
X150505000Y-110855000D01*
X150462300Y-110849390D01*
X150422500Y-110832890D01*
X150388330Y-110806655D01*
X149398329Y-109816655D01*
X149372110Y-109782500D01*
X149355623Y-109742702D01*
X149350000Y-109700000D01*
X149350000Y-108441941D01*
X149680000Y-108441941D01*
X149680000Y-109631657D01*
X150505000Y-110456657D01*
X151330000Y-109631657D01*
X151330000Y-108441941D01*
X150505000Y-108710000D01*
X149680000Y-108441941D01*
X149350000Y-108441941D01*
X149350000Y-108334724D01*
X148563112Y-108079040D01*
X148559175Y-108084155D01*
X147651675Y-109156655D01*
X147617500Y-109182890D01*
X147577705Y-109199390D01*
X147535000Y-109205000D01*
X147492301Y-109199390D01*
X147469696Y-109195622D01*
X145512298Y-108869390D01*
X145472500Y-108852890D01*
X145438345Y-108826655D01*
X145412110Y-108792500D01*
X145395610Y-108752702D01*
X145390000Y-108710000D01*
X145390000Y-107467405D01*
X145720000Y-107467405D01*
X145720000Y-108571004D01*
X147469696Y-108862625D01*
X148225535Y-107969348D01*
X148075398Y-107920566D01*
X147983404Y-107890676D01*
X147828389Y-107677315D01*
X148342371Y-107677315D01*
X150505000Y-108380000D01*
X151768849Y-107969348D01*
X152784465Y-107969348D01*
X153540304Y-108862625D01*
X155290000Y-108571004D01*
X155290000Y-107467405D01*
X154060123Y-106468138D01*
X153026596Y-107890676D01*
X152934602Y-107920566D01*
X152784465Y-107969348D01*
X151768849Y-107969348D01*
X152667629Y-107677315D01*
X151852799Y-106555800D01*
X149157201Y-106555800D01*
X149147218Y-106569540D01*
X148342371Y-107677315D01*
X147828389Y-107677315D01*
X146949877Y-106468138D01*
X145720000Y-107467405D01*
X145390000Y-107467405D01*
X145390000Y-107390000D01*
X145395610Y-107347295D01*
X145412110Y-107307500D01*
X145438345Y-107273325D01*
X146756662Y-106202195D01*
X146424979Y-105745679D01*
X146424979Y-105643703D01*
X146738809Y-105643703D01*
X148075398Y-107483347D01*
X148890224Y-106361832D01*
X152119776Y-106361832D01*
X152934602Y-107483347D01*
X154271191Y-105643703D01*
X154271191Y-103369788D01*
X152952765Y-103798168D01*
X152850785Y-104112027D01*
X152119776Y-106361832D01*
X148890224Y-106361832D01*
X148159215Y-104112028D01*
X148057235Y-103798168D01*
X147774093Y-103706170D01*
X148308061Y-103706170D01*
X149147218Y-106288830D01*
X151862782Y-106288830D01*
X152701939Y-103706170D01*
X150505000Y-102110000D01*
X148308061Y-103706170D01*
X147774093Y-103706170D01*
X146738809Y-103369788D01*
X146738809Y-105643703D01*
X146424979Y-105643703D01*
X146424979Y-104553599D01*
X145512298Y-104249380D01*
X145472500Y-104232895D01*
X145438345Y-104206675D01*
X145412110Y-104172500D01*
X145395610Y-104132705D01*
X145390000Y-104090000D01*
X145390000Y-100274375D01*
X145720000Y-100274375D01*
X145720000Y-103971391D01*
X146424979Y-104206378D01*
X146424979Y-103094321D01*
X146452863Y-103055942D01*
X146840779Y-103055942D01*
X148159215Y-103484318D01*
X150340000Y-101899882D01*
X150670000Y-101899882D01*
X152850785Y-103484318D01*
X154169221Y-103055942D01*
X152832629Y-101216297D01*
X152648095Y-101156339D01*
X153177004Y-101156339D01*
X154585021Y-103094321D01*
X154585021Y-104206378D01*
X155290000Y-103971391D01*
X155290000Y-100274375D01*
X154195753Y-100137590D01*
X153177004Y-101156339D01*
X152648095Y-101156339D01*
X150670000Y-100513625D01*
X150670000Y-101899882D01*
X150340000Y-101899882D01*
X150340000Y-100513625D01*
X148177371Y-101216297D01*
X146840779Y-103055942D01*
X146452863Y-103055942D01*
X147832997Y-101156339D01*
X146814247Y-100137590D01*
X145720000Y-100274375D01*
X145390000Y-100274375D01*
X145390000Y-100130000D01*
X145395610Y-100087297D01*
X145412110Y-100047500D01*
X145438345Y-100013345D01*
X145472500Y-99987110D01*
X145512298Y-99970609D01*
X145555000Y-99965000D01*
X146875000Y-99800000D01*
X146917702Y-99805609D01*
X146957500Y-99822110D01*
X146991688Y-99848345D01*
X148065871Y-100922528D01*
X150505000Y-100130000D01*
X152944129Y-100922528D01*
X154018312Y-99848345D01*
X154052500Y-99822110D01*
X154092298Y-99805609D01*
X154135000Y-99800000D01*
X155455000Y-99965000D01*
G37*
X150010000Y-103760000D02*
X151000000Y-103760000D01*
X151000000Y-103430000D01*
X151330000Y-103430000D01*
X151330000Y-105410000D01*
X151000000Y-105410000D01*
X151000000Y-105080000D01*
X150010000Y-105080000D01*
X150010000Y-105410000D01*
X149680000Y-105410000D01*
X149680000Y-104750000D01*
X150010000Y-104750000D01*
X151000000Y-104750000D01*
X151000000Y-104090000D01*
X150010000Y-104090000D01*
X150010000Y-104750000D01*
X149680000Y-104750000D01*
X149680000Y-103430000D01*
X150010000Y-103430000D01*
X150010000Y-103760000D01*
G36*
X150010000Y-103760000D02*
G01*
X151000000Y-103760000D01*
X151000000Y-103430000D01*
X151330000Y-103430000D01*
X151330000Y-105410000D01*
X151000000Y-105410000D01*
X151000000Y-105080000D01*
X150010000Y-105080000D01*
X150010000Y-105410000D01*
X149680000Y-105410000D01*
X149680000Y-104750000D01*
X150010000Y-104750000D01*
X151000000Y-104750000D01*
X151000000Y-104090000D01*
X150010000Y-104090000D01*
X150010000Y-104750000D01*
X149680000Y-104750000D01*
X149680000Y-103430000D01*
X150010000Y-103430000D01*
X150010000Y-103760000D01*
G37*
D11*
X151327693Y-61420038D02*
X151232455Y-61372419D01*
X151232455Y-61372419D02*
X151089598Y-61372419D01*
X151089598Y-61372419D02*
X150946741Y-61420038D01*
X150946741Y-61420038D02*
X150851503Y-61515276D01*
X150851503Y-61515276D02*
X150803884Y-61610514D01*
X150803884Y-61610514D02*
X150756265Y-61800990D01*
X150756265Y-61800990D02*
X150756265Y-61943847D01*
X150756265Y-61943847D02*
X150803884Y-62134323D01*
X150803884Y-62134323D02*
X150851503Y-62229561D01*
X150851503Y-62229561D02*
X150946741Y-62324800D01*
X150946741Y-62324800D02*
X151089598Y-62372419D01*
X151089598Y-62372419D02*
X151184836Y-62372419D01*
X151184836Y-62372419D02*
X151327693Y-62324800D01*
X151327693Y-62324800D02*
X151375312Y-62277180D01*
X151375312Y-62277180D02*
X151375312Y-61943847D01*
X151375312Y-61943847D02*
X151184836Y-61943847D01*
X151803884Y-62372419D02*
X151803884Y-61372419D01*
X151803884Y-61372419D02*
X152184836Y-61372419D01*
X152184836Y-61372419D02*
X152280074Y-61420038D01*
X152280074Y-61420038D02*
X152327693Y-61467657D01*
X152327693Y-61467657D02*
X152375312Y-61562895D01*
X152375312Y-61562895D02*
X152375312Y-61705752D01*
X152375312Y-61705752D02*
X152327693Y-61800990D01*
X152327693Y-61800990D02*
X152280074Y-61848609D01*
X152280074Y-61848609D02*
X152184836Y-61896228D01*
X152184836Y-61896228D02*
X151803884Y-61896228D01*
X152803884Y-62372419D02*
X152803884Y-61372419D01*
X153470550Y-61372419D02*
X153661026Y-61372419D01*
X153661026Y-61372419D02*
X153756264Y-61420038D01*
X153756264Y-61420038D02*
X153851502Y-61515276D01*
X153851502Y-61515276D02*
X153899121Y-61705752D01*
X153899121Y-61705752D02*
X153899121Y-62039085D01*
X153899121Y-62039085D02*
X153851502Y-62229561D01*
X153851502Y-62229561D02*
X153756264Y-62324800D01*
X153756264Y-62324800D02*
X153661026Y-62372419D01*
X153661026Y-62372419D02*
X153470550Y-62372419D01*
X153470550Y-62372419D02*
X153375312Y-62324800D01*
X153375312Y-62324800D02*
X153280074Y-62229561D01*
X153280074Y-62229561D02*
X153232455Y-62039085D01*
X153232455Y-62039085D02*
X153232455Y-61705752D01*
X153232455Y-61705752D02*
X153280074Y-61515276D01*
X153280074Y-61515276D02*
X153375312Y-61420038D01*
X153375312Y-61420038D02*
X153470550Y-61372419D01*
X154232455Y-61372419D02*
X154851502Y-61372419D01*
X154851502Y-61372419D02*
X154518169Y-61753371D01*
X154518169Y-61753371D02*
X154661026Y-61753371D01*
X154661026Y-61753371D02*
X154756264Y-61800990D01*
X154756264Y-61800990D02*
X154803883Y-61848609D01*
X154803883Y-61848609D02*
X154851502Y-61943847D01*
X154851502Y-61943847D02*
X154851502Y-62181942D01*
X154851502Y-62181942D02*
X154803883Y-62277180D01*
X154803883Y-62277180D02*
X154756264Y-62324800D01*
X154756264Y-62324800D02*
X154661026Y-62372419D01*
X154661026Y-62372419D02*
X154375312Y-62372419D01*
X154375312Y-62372419D02*
X154280074Y-62324800D01*
X154280074Y-62324800D02*
X154232455Y-62277180D01*
X157827693Y-76170038D02*
X157732455Y-76122419D01*
X157732455Y-76122419D02*
X157589598Y-76122419D01*
X157589598Y-76122419D02*
X157446741Y-76170038D01*
X157446741Y-76170038D02*
X157351503Y-76265276D01*
X157351503Y-76265276D02*
X157303884Y-76360514D01*
X157303884Y-76360514D02*
X157256265Y-76550990D01*
X157256265Y-76550990D02*
X157256265Y-76693847D01*
X157256265Y-76693847D02*
X157303884Y-76884323D01*
X157303884Y-76884323D02*
X157351503Y-76979561D01*
X157351503Y-76979561D02*
X157446741Y-77074800D01*
X157446741Y-77074800D02*
X157589598Y-77122419D01*
X157589598Y-77122419D02*
X157684836Y-77122419D01*
X157684836Y-77122419D02*
X157827693Y-77074800D01*
X157827693Y-77074800D02*
X157875312Y-77027180D01*
X157875312Y-77027180D02*
X157875312Y-76693847D01*
X157875312Y-76693847D02*
X157684836Y-76693847D01*
X158303884Y-77122419D02*
X158303884Y-76122419D01*
X158303884Y-76122419D02*
X158684836Y-76122419D01*
X158684836Y-76122419D02*
X158780074Y-76170038D01*
X158780074Y-76170038D02*
X158827693Y-76217657D01*
X158827693Y-76217657D02*
X158875312Y-76312895D01*
X158875312Y-76312895D02*
X158875312Y-76455752D01*
X158875312Y-76455752D02*
X158827693Y-76550990D01*
X158827693Y-76550990D02*
X158780074Y-76598609D01*
X158780074Y-76598609D02*
X158684836Y-76646228D01*
X158684836Y-76646228D02*
X158303884Y-76646228D01*
X159303884Y-77122419D02*
X159303884Y-76122419D01*
X159970550Y-76122419D02*
X160161026Y-76122419D01*
X160161026Y-76122419D02*
X160256264Y-76170038D01*
X160256264Y-76170038D02*
X160351502Y-76265276D01*
X160351502Y-76265276D02*
X160399121Y-76455752D01*
X160399121Y-76455752D02*
X160399121Y-76789085D01*
X160399121Y-76789085D02*
X160351502Y-76979561D01*
X160351502Y-76979561D02*
X160256264Y-77074800D01*
X160256264Y-77074800D02*
X160161026Y-77122419D01*
X160161026Y-77122419D02*
X159970550Y-77122419D01*
X159970550Y-77122419D02*
X159875312Y-77074800D01*
X159875312Y-77074800D02*
X159780074Y-76979561D01*
X159780074Y-76979561D02*
X159732455Y-76789085D01*
X159732455Y-76789085D02*
X159732455Y-76455752D01*
X159732455Y-76455752D02*
X159780074Y-76265276D01*
X159780074Y-76265276D02*
X159875312Y-76170038D01*
X159875312Y-76170038D02*
X159970550Y-76122419D01*
X161018169Y-76122419D02*
X161113407Y-76122419D01*
X161113407Y-76122419D02*
X161208645Y-76170038D01*
X161208645Y-76170038D02*
X161256264Y-76217657D01*
X161256264Y-76217657D02*
X161303883Y-76312895D01*
X161303883Y-76312895D02*
X161351502Y-76503371D01*
X161351502Y-76503371D02*
X161351502Y-76741466D01*
X161351502Y-76741466D02*
X161303883Y-76931942D01*
X161303883Y-76931942D02*
X161256264Y-77027180D01*
X161256264Y-77027180D02*
X161208645Y-77074800D01*
X161208645Y-77074800D02*
X161113407Y-77122419D01*
X161113407Y-77122419D02*
X161018169Y-77122419D01*
X161018169Y-77122419D02*
X160922931Y-77074800D01*
X160922931Y-77074800D02*
X160875312Y-77027180D01*
X160875312Y-77027180D02*
X160827693Y-76931942D01*
X160827693Y-76931942D02*
X160780074Y-76741466D01*
X160780074Y-76741466D02*
X160780074Y-76503371D01*
X160780074Y-76503371D02*
X160827693Y-76312895D01*
X160827693Y-76312895D02*
X160875312Y-76217657D01*
X160875312Y-76217657D02*
X160922931Y-76170038D01*
X160922931Y-76170038D02*
X161018169Y-76122419D01*
X125589598Y-62393427D02*
X125541979Y-62345808D01*
X125541979Y-62345808D02*
X125446741Y-62202951D01*
X125446741Y-62202951D02*
X125399122Y-62107713D01*
X125399122Y-62107713D02*
X125351503Y-61964856D01*
X125351503Y-61964856D02*
X125303884Y-61726760D01*
X125303884Y-61726760D02*
X125303884Y-61536284D01*
X125303884Y-61536284D02*
X125351503Y-61298189D01*
X125351503Y-61298189D02*
X125399122Y-61155332D01*
X125399122Y-61155332D02*
X125446741Y-61060094D01*
X125446741Y-61060094D02*
X125541979Y-60917236D01*
X125541979Y-60917236D02*
X125589598Y-60869617D01*
X126399122Y-61964856D02*
X126303884Y-62012475D01*
X126303884Y-62012475D02*
X126113408Y-62012475D01*
X126113408Y-62012475D02*
X126018170Y-61964856D01*
X126018170Y-61964856D02*
X125970551Y-61917236D01*
X125970551Y-61917236D02*
X125922932Y-61821998D01*
X125922932Y-61821998D02*
X125922932Y-61536284D01*
X125922932Y-61536284D02*
X125970551Y-61441046D01*
X125970551Y-61441046D02*
X126018170Y-61393427D01*
X126018170Y-61393427D02*
X126113408Y-61345808D01*
X126113408Y-61345808D02*
X126303884Y-61345808D01*
X126303884Y-61345808D02*
X126399122Y-61393427D01*
X126732456Y-62393427D02*
X126780075Y-62345808D01*
X126780075Y-62345808D02*
X126875313Y-62202951D01*
X126875313Y-62202951D02*
X126922932Y-62107713D01*
X126922932Y-62107713D02*
X126970551Y-61964856D01*
X126970551Y-61964856D02*
X127018170Y-61726760D01*
X127018170Y-61726760D02*
X127018170Y-61536284D01*
X127018170Y-61536284D02*
X126970551Y-61298189D01*
X126970551Y-61298189D02*
X126922932Y-61155332D01*
X126922932Y-61155332D02*
X126875313Y-61060094D01*
X126875313Y-61060094D02*
X126780075Y-60917236D01*
X126780075Y-60917236D02*
X126732456Y-60869617D01*
X127446742Y-61107713D02*
X127494361Y-61060094D01*
X127494361Y-61060094D02*
X127589599Y-61012475D01*
X127589599Y-61012475D02*
X127827694Y-61012475D01*
X127827694Y-61012475D02*
X127922932Y-61060094D01*
X127922932Y-61060094D02*
X127970551Y-61107713D01*
X127970551Y-61107713D02*
X128018170Y-61202951D01*
X128018170Y-61202951D02*
X128018170Y-61298189D01*
X128018170Y-61298189D02*
X127970551Y-61441046D01*
X127970551Y-61441046D02*
X127399123Y-62012475D01*
X127399123Y-62012475D02*
X128018170Y-62012475D01*
X128637218Y-61012475D02*
X128732456Y-61012475D01*
X128732456Y-61012475D02*
X128827694Y-61060094D01*
X128827694Y-61060094D02*
X128875313Y-61107713D01*
X128875313Y-61107713D02*
X128922932Y-61202951D01*
X128922932Y-61202951D02*
X128970551Y-61393427D01*
X128970551Y-61393427D02*
X128970551Y-61631522D01*
X128970551Y-61631522D02*
X128922932Y-61821998D01*
X128922932Y-61821998D02*
X128875313Y-61917236D01*
X128875313Y-61917236D02*
X128827694Y-61964856D01*
X128827694Y-61964856D02*
X128732456Y-62012475D01*
X128732456Y-62012475D02*
X128637218Y-62012475D01*
X128637218Y-62012475D02*
X128541980Y-61964856D01*
X128541980Y-61964856D02*
X128494361Y-61917236D01*
X128494361Y-61917236D02*
X128446742Y-61821998D01*
X128446742Y-61821998D02*
X128399123Y-61631522D01*
X128399123Y-61631522D02*
X128399123Y-61393427D01*
X128399123Y-61393427D02*
X128446742Y-61202951D01*
X128446742Y-61202951D02*
X128494361Y-61107713D01*
X128494361Y-61107713D02*
X128541980Y-61060094D01*
X128541980Y-61060094D02*
X128637218Y-61012475D01*
X129351504Y-61107713D02*
X129399123Y-61060094D01*
X129399123Y-61060094D02*
X129494361Y-61012475D01*
X129494361Y-61012475D02*
X129732456Y-61012475D01*
X129732456Y-61012475D02*
X129827694Y-61060094D01*
X129827694Y-61060094D02*
X129875313Y-61107713D01*
X129875313Y-61107713D02*
X129922932Y-61202951D01*
X129922932Y-61202951D02*
X129922932Y-61298189D01*
X129922932Y-61298189D02*
X129875313Y-61441046D01*
X129875313Y-61441046D02*
X129303885Y-62012475D01*
X129303885Y-62012475D02*
X129922932Y-62012475D01*
X130780075Y-61345808D02*
X130780075Y-62012475D01*
X130541980Y-60964856D02*
X130303885Y-61679141D01*
X130303885Y-61679141D02*
X130922932Y-61679141D01*
X132018171Y-61964856D02*
X132161028Y-62012475D01*
X132161028Y-62012475D02*
X132399123Y-62012475D01*
X132399123Y-62012475D02*
X132494361Y-61964856D01*
X132494361Y-61964856D02*
X132541980Y-61917236D01*
X132541980Y-61917236D02*
X132589599Y-61821998D01*
X132589599Y-61821998D02*
X132589599Y-61726760D01*
X132589599Y-61726760D02*
X132541980Y-61631522D01*
X132541980Y-61631522D02*
X132494361Y-61583903D01*
X132494361Y-61583903D02*
X132399123Y-61536284D01*
X132399123Y-61536284D02*
X132208647Y-61488665D01*
X132208647Y-61488665D02*
X132113409Y-61441046D01*
X132113409Y-61441046D02*
X132065790Y-61393427D01*
X132065790Y-61393427D02*
X132018171Y-61298189D01*
X132018171Y-61298189D02*
X132018171Y-61202951D01*
X132018171Y-61202951D02*
X132065790Y-61107713D01*
X132065790Y-61107713D02*
X132113409Y-61060094D01*
X132113409Y-61060094D02*
X132208647Y-61012475D01*
X132208647Y-61012475D02*
X132446742Y-61012475D01*
X132446742Y-61012475D02*
X132589599Y-61060094D01*
X133018171Y-62012475D02*
X133018171Y-61345808D01*
X133018171Y-61012475D02*
X132970552Y-61060094D01*
X132970552Y-61060094D02*
X133018171Y-61107713D01*
X133018171Y-61107713D02*
X133065790Y-61060094D01*
X133065790Y-61060094D02*
X133018171Y-61012475D01*
X133018171Y-61012475D02*
X133018171Y-61107713D01*
X133494361Y-62012475D02*
X133494361Y-61345808D01*
X133494361Y-61441046D02*
X133541980Y-61393427D01*
X133541980Y-61393427D02*
X133637218Y-61345808D01*
X133637218Y-61345808D02*
X133780075Y-61345808D01*
X133780075Y-61345808D02*
X133875313Y-61393427D01*
X133875313Y-61393427D02*
X133922932Y-61488665D01*
X133922932Y-61488665D02*
X133922932Y-62012475D01*
X133922932Y-61488665D02*
X133970551Y-61393427D01*
X133970551Y-61393427D02*
X134065789Y-61345808D01*
X134065789Y-61345808D02*
X134208646Y-61345808D01*
X134208646Y-61345808D02*
X134303885Y-61393427D01*
X134303885Y-61393427D02*
X134351504Y-61488665D01*
X134351504Y-61488665D02*
X134351504Y-62012475D01*
X134970551Y-62012475D02*
X134875313Y-61964856D01*
X134875313Y-61964856D02*
X134827694Y-61917236D01*
X134827694Y-61917236D02*
X134780075Y-61821998D01*
X134780075Y-61821998D02*
X134780075Y-61536284D01*
X134780075Y-61536284D02*
X134827694Y-61441046D01*
X134827694Y-61441046D02*
X134875313Y-61393427D01*
X134875313Y-61393427D02*
X134970551Y-61345808D01*
X134970551Y-61345808D02*
X135113408Y-61345808D01*
X135113408Y-61345808D02*
X135208646Y-61393427D01*
X135208646Y-61393427D02*
X135256265Y-61441046D01*
X135256265Y-61441046D02*
X135303884Y-61536284D01*
X135303884Y-61536284D02*
X135303884Y-61821998D01*
X135303884Y-61821998D02*
X135256265Y-61917236D01*
X135256265Y-61917236D02*
X135208646Y-61964856D01*
X135208646Y-61964856D02*
X135113408Y-62012475D01*
X135113408Y-62012475D02*
X134970551Y-62012475D01*
X135732456Y-61345808D02*
X135732456Y-62012475D01*
X135732456Y-61441046D02*
X135780075Y-61393427D01*
X135780075Y-61393427D02*
X135875313Y-61345808D01*
X135875313Y-61345808D02*
X136018170Y-61345808D01*
X136018170Y-61345808D02*
X136113408Y-61393427D01*
X136113408Y-61393427D02*
X136161027Y-61488665D01*
X136161027Y-61488665D02*
X136161027Y-62012475D01*
X137399123Y-62012475D02*
X137399123Y-61012475D01*
X137875313Y-61345808D02*
X137875313Y-62012475D01*
X137875313Y-61441046D02*
X137922932Y-61393427D01*
X137922932Y-61393427D02*
X138018170Y-61345808D01*
X138018170Y-61345808D02*
X138161027Y-61345808D01*
X138161027Y-61345808D02*
X138256265Y-61393427D01*
X138256265Y-61393427D02*
X138303884Y-61488665D01*
X138303884Y-61488665D02*
X138303884Y-62012475D01*
X138780075Y-61345808D02*
X138780075Y-62012475D01*
X138780075Y-61441046D02*
X138827694Y-61393427D01*
X138827694Y-61393427D02*
X138922932Y-61345808D01*
X138922932Y-61345808D02*
X139065789Y-61345808D01*
X139065789Y-61345808D02*
X139161027Y-61393427D01*
X139161027Y-61393427D02*
X139208646Y-61488665D01*
X139208646Y-61488665D02*
X139208646Y-62012475D01*
X139637218Y-61964856D02*
X139732456Y-62012475D01*
X139732456Y-62012475D02*
X139922932Y-62012475D01*
X139922932Y-62012475D02*
X140018170Y-61964856D01*
X140018170Y-61964856D02*
X140065789Y-61869617D01*
X140065789Y-61869617D02*
X140065789Y-61821998D01*
X140065789Y-61821998D02*
X140018170Y-61726760D01*
X140018170Y-61726760D02*
X139922932Y-61679141D01*
X139922932Y-61679141D02*
X139780075Y-61679141D01*
X139780075Y-61679141D02*
X139684837Y-61631522D01*
X139684837Y-61631522D02*
X139637218Y-61536284D01*
X139637218Y-61536284D02*
X139637218Y-61488665D01*
X139637218Y-61488665D02*
X139684837Y-61393427D01*
X139684837Y-61393427D02*
X139780075Y-61345808D01*
X139780075Y-61345808D02*
X139922932Y-61345808D01*
X139922932Y-61345808D02*
X140018170Y-61393427D01*
X125875312Y-63527180D02*
X125827693Y-63574800D01*
X125827693Y-63574800D02*
X125684836Y-63622419D01*
X125684836Y-63622419D02*
X125589598Y-63622419D01*
X125589598Y-63622419D02*
X125446741Y-63574800D01*
X125446741Y-63574800D02*
X125351503Y-63479561D01*
X125351503Y-63479561D02*
X125303884Y-63384323D01*
X125303884Y-63384323D02*
X125256265Y-63193847D01*
X125256265Y-63193847D02*
X125256265Y-63050990D01*
X125256265Y-63050990D02*
X125303884Y-62860514D01*
X125303884Y-62860514D02*
X125351503Y-62765276D01*
X125351503Y-62765276D02*
X125446741Y-62670038D01*
X125446741Y-62670038D02*
X125589598Y-62622419D01*
X125589598Y-62622419D02*
X125684836Y-62622419D01*
X125684836Y-62622419D02*
X125827693Y-62670038D01*
X125827693Y-62670038D02*
X125875312Y-62717657D01*
X126875312Y-63527180D02*
X126827693Y-63574800D01*
X126827693Y-63574800D02*
X126684836Y-63622419D01*
X126684836Y-63622419D02*
X126589598Y-63622419D01*
X126589598Y-63622419D02*
X126446741Y-63574800D01*
X126446741Y-63574800D02*
X126351503Y-63479561D01*
X126351503Y-63479561D02*
X126303884Y-63384323D01*
X126303884Y-63384323D02*
X126256265Y-63193847D01*
X126256265Y-63193847D02*
X126256265Y-63050990D01*
X126256265Y-63050990D02*
X126303884Y-62860514D01*
X126303884Y-62860514D02*
X126351503Y-62765276D01*
X126351503Y-62765276D02*
X126446741Y-62670038D01*
X126446741Y-62670038D02*
X126589598Y-62622419D01*
X126589598Y-62622419D02*
X126684836Y-62622419D01*
X126684836Y-62622419D02*
X126827693Y-62670038D01*
X126827693Y-62670038D02*
X126875312Y-62717657D01*
X128399122Y-63098609D02*
X128541979Y-63146228D01*
X128541979Y-63146228D02*
X128589598Y-63193847D01*
X128589598Y-63193847D02*
X128637217Y-63289085D01*
X128637217Y-63289085D02*
X128637217Y-63431942D01*
X128637217Y-63431942D02*
X128589598Y-63527180D01*
X128589598Y-63527180D02*
X128541979Y-63574800D01*
X128541979Y-63574800D02*
X128446741Y-63622419D01*
X128446741Y-63622419D02*
X128065789Y-63622419D01*
X128065789Y-63622419D02*
X128065789Y-62622419D01*
X128065789Y-62622419D02*
X128399122Y-62622419D01*
X128399122Y-62622419D02*
X128494360Y-62670038D01*
X128494360Y-62670038D02*
X128541979Y-62717657D01*
X128541979Y-62717657D02*
X128589598Y-62812895D01*
X128589598Y-62812895D02*
X128589598Y-62908133D01*
X128589598Y-62908133D02*
X128541979Y-63003371D01*
X128541979Y-63003371D02*
X128494360Y-63050990D01*
X128494360Y-63050990D02*
X128399122Y-63098609D01*
X128399122Y-63098609D02*
X128065789Y-63098609D01*
X129256265Y-63146228D02*
X129256265Y-63622419D01*
X128922932Y-62622419D02*
X129256265Y-63146228D01*
X129256265Y-63146228D02*
X129589598Y-62622419D01*
X129922932Y-63241466D02*
X130684837Y-63241466D01*
X131113408Y-63574800D02*
X131256265Y-63622419D01*
X131256265Y-63622419D02*
X131494360Y-63622419D01*
X131494360Y-63622419D02*
X131589598Y-63574800D01*
X131589598Y-63574800D02*
X131637217Y-63527180D01*
X131637217Y-63527180D02*
X131684836Y-63431942D01*
X131684836Y-63431942D02*
X131684836Y-63336704D01*
X131684836Y-63336704D02*
X131637217Y-63241466D01*
X131637217Y-63241466D02*
X131589598Y-63193847D01*
X131589598Y-63193847D02*
X131494360Y-63146228D01*
X131494360Y-63146228D02*
X131303884Y-63098609D01*
X131303884Y-63098609D02*
X131208646Y-63050990D01*
X131208646Y-63050990D02*
X131161027Y-63003371D01*
X131161027Y-63003371D02*
X131113408Y-62908133D01*
X131113408Y-62908133D02*
X131113408Y-62812895D01*
X131113408Y-62812895D02*
X131161027Y-62717657D01*
X131161027Y-62717657D02*
X131208646Y-62670038D01*
X131208646Y-62670038D02*
X131303884Y-62622419D01*
X131303884Y-62622419D02*
X131541979Y-62622419D01*
X131541979Y-62622419D02*
X131684836Y-62670038D01*
X132065789Y-63336704D02*
X132541979Y-63336704D01*
X131970551Y-63622419D02*
X132303884Y-62622419D01*
X132303884Y-62622419D02*
X132637217Y-63622419D01*
X134161027Y-62955752D02*
X134161027Y-63622419D01*
X133922932Y-62574800D02*
X133684837Y-63289085D01*
X133684837Y-63289085D02*
X134303884Y-63289085D01*
X134684837Y-63527180D02*
X134732456Y-63574800D01*
X134732456Y-63574800D02*
X134684837Y-63622419D01*
X134684837Y-63622419D02*
X134637218Y-63574800D01*
X134637218Y-63574800D02*
X134684837Y-63527180D01*
X134684837Y-63527180D02*
X134684837Y-63622419D01*
X135351503Y-62622419D02*
X135446741Y-62622419D01*
X135446741Y-62622419D02*
X135541979Y-62670038D01*
X135541979Y-62670038D02*
X135589598Y-62717657D01*
X135589598Y-62717657D02*
X135637217Y-62812895D01*
X135637217Y-62812895D02*
X135684836Y-63003371D01*
X135684836Y-63003371D02*
X135684836Y-63241466D01*
X135684836Y-63241466D02*
X135637217Y-63431942D01*
X135637217Y-63431942D02*
X135589598Y-63527180D01*
X135589598Y-63527180D02*
X135541979Y-63574800D01*
X135541979Y-63574800D02*
X135446741Y-63622419D01*
X135446741Y-63622419D02*
X135351503Y-63622419D01*
X135351503Y-63622419D02*
X135256265Y-63574800D01*
X135256265Y-63574800D02*
X135208646Y-63527180D01*
X135208646Y-63527180D02*
X135161027Y-63431942D01*
X135161027Y-63431942D02*
X135113408Y-63241466D01*
X135113408Y-63241466D02*
X135113408Y-63003371D01*
X135113408Y-63003371D02*
X135161027Y-62812895D01*
X135161027Y-62812895D02*
X135208646Y-62717657D01*
X135208646Y-62717657D02*
X135256265Y-62670038D01*
X135256265Y-62670038D02*
X135351503Y-62622419D01*
X104077693Y-76420038D02*
X103982455Y-76372419D01*
X103982455Y-76372419D02*
X103839598Y-76372419D01*
X103839598Y-76372419D02*
X103696741Y-76420038D01*
X103696741Y-76420038D02*
X103601503Y-76515276D01*
X103601503Y-76515276D02*
X103553884Y-76610514D01*
X103553884Y-76610514D02*
X103506265Y-76800990D01*
X103506265Y-76800990D02*
X103506265Y-76943847D01*
X103506265Y-76943847D02*
X103553884Y-77134323D01*
X103553884Y-77134323D02*
X103601503Y-77229561D01*
X103601503Y-77229561D02*
X103696741Y-77324800D01*
X103696741Y-77324800D02*
X103839598Y-77372419D01*
X103839598Y-77372419D02*
X103934836Y-77372419D01*
X103934836Y-77372419D02*
X104077693Y-77324800D01*
X104077693Y-77324800D02*
X104125312Y-77277180D01*
X104125312Y-77277180D02*
X104125312Y-76943847D01*
X104125312Y-76943847D02*
X103934836Y-76943847D01*
X104553884Y-77372419D02*
X104553884Y-76372419D01*
X104553884Y-76372419D02*
X104934836Y-76372419D01*
X104934836Y-76372419D02*
X105030074Y-76420038D01*
X105030074Y-76420038D02*
X105077693Y-76467657D01*
X105077693Y-76467657D02*
X105125312Y-76562895D01*
X105125312Y-76562895D02*
X105125312Y-76705752D01*
X105125312Y-76705752D02*
X105077693Y-76800990D01*
X105077693Y-76800990D02*
X105030074Y-76848609D01*
X105030074Y-76848609D02*
X104934836Y-76896228D01*
X104934836Y-76896228D02*
X104553884Y-76896228D01*
X105553884Y-77372419D02*
X105553884Y-76372419D01*
X106220550Y-76372419D02*
X106411026Y-76372419D01*
X106411026Y-76372419D02*
X106506264Y-76420038D01*
X106506264Y-76420038D02*
X106601502Y-76515276D01*
X106601502Y-76515276D02*
X106649121Y-76705752D01*
X106649121Y-76705752D02*
X106649121Y-77039085D01*
X106649121Y-77039085D02*
X106601502Y-77229561D01*
X106601502Y-77229561D02*
X106506264Y-77324800D01*
X106506264Y-77324800D02*
X106411026Y-77372419D01*
X106411026Y-77372419D02*
X106220550Y-77372419D01*
X106220550Y-77372419D02*
X106125312Y-77324800D01*
X106125312Y-77324800D02*
X106030074Y-77229561D01*
X106030074Y-77229561D02*
X105982455Y-77039085D01*
X105982455Y-77039085D02*
X105982455Y-76705752D01*
X105982455Y-76705752D02*
X106030074Y-76515276D01*
X106030074Y-76515276D02*
X106125312Y-76420038D01*
X106125312Y-76420038D02*
X106220550Y-76372419D01*
X107601502Y-77372419D02*
X107030074Y-77372419D01*
X107315788Y-77372419D02*
X107315788Y-76372419D01*
X107315788Y-76372419D02*
X107220550Y-76515276D01*
X107220550Y-76515276D02*
X107125312Y-76610514D01*
X107125312Y-76610514D02*
X107030074Y-76658133D01*
X106553884Y-58348609D02*
X106887217Y-58348609D01*
X107030074Y-58872419D02*
X106553884Y-58872419D01*
X106553884Y-58872419D02*
X106553884Y-57872419D01*
X106553884Y-57872419D02*
X107030074Y-57872419D01*
X107363408Y-58872419D02*
X107887217Y-58205752D01*
X107363408Y-58205752D02*
X107887217Y-58872419D01*
X108268170Y-58205752D02*
X108268170Y-59205752D01*
X108268170Y-58253371D02*
X108363408Y-58205752D01*
X108363408Y-58205752D02*
X108553884Y-58205752D01*
X108553884Y-58205752D02*
X108649122Y-58253371D01*
X108649122Y-58253371D02*
X108696741Y-58300990D01*
X108696741Y-58300990D02*
X108744360Y-58396228D01*
X108744360Y-58396228D02*
X108744360Y-58681942D01*
X108744360Y-58681942D02*
X108696741Y-58777180D01*
X108696741Y-58777180D02*
X108649122Y-58824800D01*
X108649122Y-58824800D02*
X108553884Y-58872419D01*
X108553884Y-58872419D02*
X108363408Y-58872419D01*
X108363408Y-58872419D02*
X108268170Y-58824800D01*
X109601503Y-58872419D02*
X109601503Y-58348609D01*
X109601503Y-58348609D02*
X109553884Y-58253371D01*
X109553884Y-58253371D02*
X109458646Y-58205752D01*
X109458646Y-58205752D02*
X109268170Y-58205752D01*
X109268170Y-58205752D02*
X109172932Y-58253371D01*
X109601503Y-58824800D02*
X109506265Y-58872419D01*
X109506265Y-58872419D02*
X109268170Y-58872419D01*
X109268170Y-58872419D02*
X109172932Y-58824800D01*
X109172932Y-58824800D02*
X109125313Y-58729561D01*
X109125313Y-58729561D02*
X109125313Y-58634323D01*
X109125313Y-58634323D02*
X109172932Y-58539085D01*
X109172932Y-58539085D02*
X109268170Y-58491466D01*
X109268170Y-58491466D02*
X109506265Y-58491466D01*
X109506265Y-58491466D02*
X109601503Y-58443847D01*
X110077694Y-58205752D02*
X110077694Y-58872419D01*
X110077694Y-58300990D02*
X110125313Y-58253371D01*
X110125313Y-58253371D02*
X110220551Y-58205752D01*
X110220551Y-58205752D02*
X110363408Y-58205752D01*
X110363408Y-58205752D02*
X110458646Y-58253371D01*
X110458646Y-58253371D02*
X110506265Y-58348609D01*
X110506265Y-58348609D02*
X110506265Y-58872419D01*
X110934837Y-58824800D02*
X111030075Y-58872419D01*
X111030075Y-58872419D02*
X111220551Y-58872419D01*
X111220551Y-58872419D02*
X111315789Y-58824800D01*
X111315789Y-58824800D02*
X111363408Y-58729561D01*
X111363408Y-58729561D02*
X111363408Y-58681942D01*
X111363408Y-58681942D02*
X111315789Y-58586704D01*
X111315789Y-58586704D02*
X111220551Y-58539085D01*
X111220551Y-58539085D02*
X111077694Y-58539085D01*
X111077694Y-58539085D02*
X110982456Y-58491466D01*
X110982456Y-58491466D02*
X110934837Y-58396228D01*
X110934837Y-58396228D02*
X110934837Y-58348609D01*
X110934837Y-58348609D02*
X110982456Y-58253371D01*
X110982456Y-58253371D02*
X111077694Y-58205752D01*
X111077694Y-58205752D02*
X111220551Y-58205752D01*
X111220551Y-58205752D02*
X111315789Y-58253371D01*
X111791980Y-58872419D02*
X111791980Y-58205752D01*
X111791980Y-57872419D02*
X111744361Y-57920038D01*
X111744361Y-57920038D02*
X111791980Y-57967657D01*
X111791980Y-57967657D02*
X111839599Y-57920038D01*
X111839599Y-57920038D02*
X111791980Y-57872419D01*
X111791980Y-57872419D02*
X111791980Y-57967657D01*
X112411027Y-58872419D02*
X112315789Y-58824800D01*
X112315789Y-58824800D02*
X112268170Y-58777180D01*
X112268170Y-58777180D02*
X112220551Y-58681942D01*
X112220551Y-58681942D02*
X112220551Y-58396228D01*
X112220551Y-58396228D02*
X112268170Y-58300990D01*
X112268170Y-58300990D02*
X112315789Y-58253371D01*
X112315789Y-58253371D02*
X112411027Y-58205752D01*
X112411027Y-58205752D02*
X112553884Y-58205752D01*
X112553884Y-58205752D02*
X112649122Y-58253371D01*
X112649122Y-58253371D02*
X112696741Y-58300990D01*
X112696741Y-58300990D02*
X112744360Y-58396228D01*
X112744360Y-58396228D02*
X112744360Y-58681942D01*
X112744360Y-58681942D02*
X112696741Y-58777180D01*
X112696741Y-58777180D02*
X112649122Y-58824800D01*
X112649122Y-58824800D02*
X112553884Y-58872419D01*
X112553884Y-58872419D02*
X112411027Y-58872419D01*
X113172932Y-58205752D02*
X113172932Y-58872419D01*
X113172932Y-58300990D02*
X113220551Y-58253371D01*
X113220551Y-58253371D02*
X113315789Y-58205752D01*
X113315789Y-58205752D02*
X113458646Y-58205752D01*
X113458646Y-58205752D02*
X113553884Y-58253371D01*
X113553884Y-58253371D02*
X113601503Y-58348609D01*
X113601503Y-58348609D02*
X113601503Y-58872419D01*
X148872419Y-116946115D02*
X149681942Y-116946115D01*
X149681942Y-116946115D02*
X149777180Y-116898496D01*
X149777180Y-116898496D02*
X149824800Y-116850877D01*
X149824800Y-116850877D02*
X149872419Y-116755639D01*
X149872419Y-116755639D02*
X149872419Y-116565163D01*
X149872419Y-116565163D02*
X149824800Y-116469925D01*
X149824800Y-116469925D02*
X149777180Y-116422306D01*
X149777180Y-116422306D02*
X149681942Y-116374687D01*
X149681942Y-116374687D02*
X148872419Y-116374687D01*
X149586704Y-115946115D02*
X149586704Y-115469925D01*
X149872419Y-116041353D02*
X148872419Y-115708020D01*
X148872419Y-115708020D02*
X149872419Y-115374687D01*
X149872419Y-114469925D02*
X149396228Y-114803258D01*
X149872419Y-115041353D02*
X148872419Y-115041353D01*
X148872419Y-115041353D02*
X148872419Y-114660401D01*
X148872419Y-114660401D02*
X148920038Y-114565163D01*
X148920038Y-114565163D02*
X148967657Y-114517544D01*
X148967657Y-114517544D02*
X149062895Y-114469925D01*
X149062895Y-114469925D02*
X149205752Y-114469925D01*
X149205752Y-114469925D02*
X149300990Y-114517544D01*
X149300990Y-114517544D02*
X149348609Y-114565163D01*
X149348609Y-114565163D02*
X149396228Y-114660401D01*
X149396228Y-114660401D02*
X149396228Y-115041353D01*
X148872419Y-114184210D02*
X148872419Y-113612782D01*
X149872419Y-113898496D02*
X148872419Y-113898496D01*
X102916665Y-103402531D02*
X103249998Y-104402531D01*
X103249998Y-104402531D02*
X103583331Y-103402531D01*
X104345236Y-104402531D02*
X104345236Y-103878721D01*
X104345236Y-103878721D02*
X104297617Y-103783483D01*
X104297617Y-103783483D02*
X104202379Y-103735864D01*
X104202379Y-103735864D02*
X104011903Y-103735864D01*
X104011903Y-103735864D02*
X103916665Y-103783483D01*
X104345236Y-104354912D02*
X104249998Y-104402531D01*
X104249998Y-104402531D02*
X104011903Y-104402531D01*
X104011903Y-104402531D02*
X103916665Y-104354912D01*
X103916665Y-104354912D02*
X103869046Y-104259673D01*
X103869046Y-104259673D02*
X103869046Y-104164435D01*
X103869046Y-104164435D02*
X103916665Y-104069197D01*
X103916665Y-104069197D02*
X104011903Y-104021578D01*
X104011903Y-104021578D02*
X104249998Y-104021578D01*
X104249998Y-104021578D02*
X104345236Y-103973959D01*
X104964284Y-104402531D02*
X104869046Y-104354912D01*
X104869046Y-104354912D02*
X104821427Y-104259673D01*
X104821427Y-104259673D02*
X104821427Y-103402531D01*
X105345237Y-104402531D02*
X105345237Y-103735864D01*
X105345237Y-103402531D02*
X105297618Y-103450150D01*
X105297618Y-103450150D02*
X105345237Y-103497769D01*
X105345237Y-103497769D02*
X105392856Y-103450150D01*
X105392856Y-103450150D02*
X105345237Y-103402531D01*
X105345237Y-103402531D02*
X105345237Y-103497769D01*
X106249998Y-104402531D02*
X106249998Y-103878721D01*
X106249998Y-103878721D02*
X106202379Y-103783483D01*
X106202379Y-103783483D02*
X106107141Y-103735864D01*
X106107141Y-103735864D02*
X105916665Y-103735864D01*
X105916665Y-103735864D02*
X105821427Y-103783483D01*
X106249998Y-104354912D02*
X106154760Y-104402531D01*
X106154760Y-104402531D02*
X105916665Y-104402531D01*
X105916665Y-104402531D02*
X105821427Y-104354912D01*
X105821427Y-104354912D02*
X105773808Y-104259673D01*
X105773808Y-104259673D02*
X105773808Y-104164435D01*
X105773808Y-104164435D02*
X105821427Y-104069197D01*
X105821427Y-104069197D02*
X105916665Y-104021578D01*
X105916665Y-104021578D02*
X106154760Y-104021578D01*
X106154760Y-104021578D02*
X106249998Y-103973959D01*
X106726189Y-103735864D02*
X106726189Y-104402531D01*
X106726189Y-103831102D02*
X106773808Y-103783483D01*
X106773808Y-103783483D02*
X106869046Y-103735864D01*
X106869046Y-103735864D02*
X107011903Y-103735864D01*
X107011903Y-103735864D02*
X107107141Y-103783483D01*
X107107141Y-103783483D02*
X107154760Y-103878721D01*
X107154760Y-103878721D02*
X107154760Y-104402531D01*
X107488094Y-103735864D02*
X107869046Y-103735864D01*
X107630951Y-103402531D02*
X107630951Y-104259673D01*
X107630951Y-104259673D02*
X107678570Y-104354912D01*
X107678570Y-104354912D02*
X107773808Y-104402531D01*
X107773808Y-104402531D02*
X107869046Y-104402531D01*
X108821428Y-103402531D02*
X109392856Y-103402531D01*
X109107142Y-104402531D02*
X109107142Y-103402531D01*
X110154761Y-103735864D02*
X110154761Y-104402531D01*
X109726190Y-103735864D02*
X109726190Y-104259673D01*
X109726190Y-104259673D02*
X109773809Y-104354912D01*
X109773809Y-104354912D02*
X109869047Y-104402531D01*
X109869047Y-104402531D02*
X110011904Y-104402531D01*
X110011904Y-104402531D02*
X110107142Y-104354912D01*
X110107142Y-104354912D02*
X110154761Y-104307292D01*
X110630952Y-104402531D02*
X110630952Y-103735864D01*
X110630952Y-103926340D02*
X110678571Y-103831102D01*
X110678571Y-103831102D02*
X110726190Y-103783483D01*
X110726190Y-103783483D02*
X110821428Y-103735864D01*
X110821428Y-103735864D02*
X110916666Y-103735864D01*
X111107143Y-103735864D02*
X111488095Y-103735864D01*
X111250000Y-103402531D02*
X111250000Y-104259673D01*
X111250000Y-104259673D02*
X111297619Y-104354912D01*
X111297619Y-104354912D02*
X111392857Y-104402531D01*
X111392857Y-104402531D02*
X111488095Y-104402531D01*
X111964286Y-104402531D02*
X111869048Y-104354912D01*
X111869048Y-104354912D02*
X111821429Y-104259673D01*
X111821429Y-104259673D02*
X111821429Y-103402531D01*
X112726191Y-104354912D02*
X112630953Y-104402531D01*
X112630953Y-104402531D02*
X112440477Y-104402531D01*
X112440477Y-104402531D02*
X112345239Y-104354912D01*
X112345239Y-104354912D02*
X112297620Y-104259673D01*
X112297620Y-104259673D02*
X112297620Y-103878721D01*
X112297620Y-103878721D02*
X112345239Y-103783483D01*
X112345239Y-103783483D02*
X112440477Y-103735864D01*
X112440477Y-103735864D02*
X112630953Y-103735864D01*
X112630953Y-103735864D02*
X112726191Y-103783483D01*
X112726191Y-103783483D02*
X112773810Y-103878721D01*
X112773810Y-103878721D02*
X112773810Y-103973959D01*
X112773810Y-103973959D02*
X112297620Y-104069197D01*
X113916668Y-103497769D02*
X113964287Y-103450150D01*
X113964287Y-103450150D02*
X114059525Y-103402531D01*
X114059525Y-103402531D02*
X114297620Y-103402531D01*
X114297620Y-103402531D02*
X114392858Y-103450150D01*
X114392858Y-103450150D02*
X114440477Y-103497769D01*
X114440477Y-103497769D02*
X114488096Y-103593007D01*
X114488096Y-103593007D02*
X114488096Y-103688245D01*
X114488096Y-103688245D02*
X114440477Y-103831102D01*
X114440477Y-103831102D02*
X113869049Y-104402531D01*
X113869049Y-104402531D02*
X114488096Y-104402531D01*
X103869046Y-106012475D02*
X103535713Y-105536284D01*
X103297618Y-106012475D02*
X103297618Y-105012475D01*
X103297618Y-105012475D02*
X103678570Y-105012475D01*
X103678570Y-105012475D02*
X103773808Y-105060094D01*
X103773808Y-105060094D02*
X103821427Y-105107713D01*
X103821427Y-105107713D02*
X103869046Y-105202951D01*
X103869046Y-105202951D02*
X103869046Y-105345808D01*
X103869046Y-105345808D02*
X103821427Y-105441046D01*
X103821427Y-105441046D02*
X103773808Y-105488665D01*
X103773808Y-105488665D02*
X103678570Y-105536284D01*
X103678570Y-105536284D02*
X103297618Y-105536284D01*
X104726189Y-106012475D02*
X104726189Y-105488665D01*
X104726189Y-105488665D02*
X104678570Y-105393427D01*
X104678570Y-105393427D02*
X104583332Y-105345808D01*
X104583332Y-105345808D02*
X104392856Y-105345808D01*
X104392856Y-105345808D02*
X104297618Y-105393427D01*
X104726189Y-105964856D02*
X104630951Y-106012475D01*
X104630951Y-106012475D02*
X104392856Y-106012475D01*
X104392856Y-106012475D02*
X104297618Y-105964856D01*
X104297618Y-105964856D02*
X104249999Y-105869617D01*
X104249999Y-105869617D02*
X104249999Y-105774379D01*
X104249999Y-105774379D02*
X104297618Y-105679141D01*
X104297618Y-105679141D02*
X104392856Y-105631522D01*
X104392856Y-105631522D02*
X104630951Y-105631522D01*
X104630951Y-105631522D02*
X104726189Y-105583903D01*
X105154761Y-105964856D02*
X105249999Y-106012475D01*
X105249999Y-106012475D02*
X105440475Y-106012475D01*
X105440475Y-106012475D02*
X105535713Y-105964856D01*
X105535713Y-105964856D02*
X105583332Y-105869617D01*
X105583332Y-105869617D02*
X105583332Y-105821998D01*
X105583332Y-105821998D02*
X105535713Y-105726760D01*
X105535713Y-105726760D02*
X105440475Y-105679141D01*
X105440475Y-105679141D02*
X105297618Y-105679141D01*
X105297618Y-105679141D02*
X105202380Y-105631522D01*
X105202380Y-105631522D02*
X105154761Y-105536284D01*
X105154761Y-105536284D02*
X105154761Y-105488665D01*
X105154761Y-105488665D02*
X105202380Y-105393427D01*
X105202380Y-105393427D02*
X105297618Y-105345808D01*
X105297618Y-105345808D02*
X105440475Y-105345808D01*
X105440475Y-105345808D02*
X105535713Y-105393427D01*
X106011904Y-105345808D02*
X106011904Y-106345808D01*
X106011904Y-105393427D02*
X106107142Y-105345808D01*
X106107142Y-105345808D02*
X106297618Y-105345808D01*
X106297618Y-105345808D02*
X106392856Y-105393427D01*
X106392856Y-105393427D02*
X106440475Y-105441046D01*
X106440475Y-105441046D02*
X106488094Y-105536284D01*
X106488094Y-105536284D02*
X106488094Y-105821998D01*
X106488094Y-105821998D02*
X106440475Y-105917236D01*
X106440475Y-105917236D02*
X106392856Y-105964856D01*
X106392856Y-105964856D02*
X106297618Y-106012475D01*
X106297618Y-106012475D02*
X106107142Y-106012475D01*
X106107142Y-106012475D02*
X106011904Y-105964856D01*
X106916666Y-106012475D02*
X106916666Y-105012475D01*
X106916666Y-105393427D02*
X107011904Y-105345808D01*
X107011904Y-105345808D02*
X107202380Y-105345808D01*
X107202380Y-105345808D02*
X107297618Y-105393427D01*
X107297618Y-105393427D02*
X107345237Y-105441046D01*
X107345237Y-105441046D02*
X107392856Y-105536284D01*
X107392856Y-105536284D02*
X107392856Y-105821998D01*
X107392856Y-105821998D02*
X107345237Y-105917236D01*
X107345237Y-105917236D02*
X107297618Y-105964856D01*
X107297618Y-105964856D02*
X107202380Y-106012475D01*
X107202380Y-106012475D02*
X107011904Y-106012475D01*
X107011904Y-106012475D02*
X106916666Y-105964856D01*
X108202380Y-105964856D02*
X108107142Y-106012475D01*
X108107142Y-106012475D02*
X107916666Y-106012475D01*
X107916666Y-106012475D02*
X107821428Y-105964856D01*
X107821428Y-105964856D02*
X107773809Y-105869617D01*
X107773809Y-105869617D02*
X107773809Y-105488665D01*
X107773809Y-105488665D02*
X107821428Y-105393427D01*
X107821428Y-105393427D02*
X107916666Y-105345808D01*
X107916666Y-105345808D02*
X108107142Y-105345808D01*
X108107142Y-105345808D02*
X108202380Y-105393427D01*
X108202380Y-105393427D02*
X108249999Y-105488665D01*
X108249999Y-105488665D02*
X108249999Y-105583903D01*
X108249999Y-105583903D02*
X107773809Y-105679141D01*
X108678571Y-106012475D02*
X108678571Y-105345808D01*
X108678571Y-105536284D02*
X108726190Y-105441046D01*
X108726190Y-105441046D02*
X108773809Y-105393427D01*
X108773809Y-105393427D02*
X108869047Y-105345808D01*
X108869047Y-105345808D02*
X108964285Y-105345808D01*
X109297619Y-106012475D02*
X109297619Y-105345808D01*
X109297619Y-105536284D02*
X109345238Y-105441046D01*
X109345238Y-105441046D02*
X109392857Y-105393427D01*
X109392857Y-105393427D02*
X109488095Y-105345808D01*
X109488095Y-105345808D02*
X109583333Y-105345808D01*
X109821429Y-105345808D02*
X110059524Y-106012475D01*
X110297619Y-105345808D02*
X110059524Y-106012475D01*
X110059524Y-106012475D02*
X109964286Y-106250570D01*
X109964286Y-106250570D02*
X109916667Y-106298189D01*
X109916667Y-106298189D02*
X109821429Y-106345808D01*
X111440477Y-106012475D02*
X111440477Y-105012475D01*
X111440477Y-105012475D02*
X111821429Y-105012475D01*
X111821429Y-105012475D02*
X111916667Y-105060094D01*
X111916667Y-105060094D02*
X111964286Y-105107713D01*
X111964286Y-105107713D02*
X112011905Y-105202951D01*
X112011905Y-105202951D02*
X112011905Y-105345808D01*
X112011905Y-105345808D02*
X111964286Y-105441046D01*
X111964286Y-105441046D02*
X111916667Y-105488665D01*
X111916667Y-105488665D02*
X111821429Y-105536284D01*
X111821429Y-105536284D02*
X111440477Y-105536284D01*
X112440477Y-106012475D02*
X112440477Y-105345808D01*
X112440477Y-105012475D02*
X112392858Y-105060094D01*
X112392858Y-105060094D02*
X112440477Y-105107713D01*
X112440477Y-105107713D02*
X112488096Y-105060094D01*
X112488096Y-105060094D02*
X112440477Y-105012475D01*
X112440477Y-105012475D02*
X112440477Y-105107713D01*
X113345238Y-105964856D02*
X113250000Y-106012475D01*
X113250000Y-106012475D02*
X113059524Y-106012475D01*
X113059524Y-106012475D02*
X112964286Y-105964856D01*
X112964286Y-105964856D02*
X112916667Y-105917236D01*
X112916667Y-105917236D02*
X112869048Y-105821998D01*
X112869048Y-105821998D02*
X112869048Y-105536284D01*
X112869048Y-105536284D02*
X112916667Y-105441046D01*
X112916667Y-105441046D02*
X112964286Y-105393427D01*
X112964286Y-105393427D02*
X113059524Y-105345808D01*
X113059524Y-105345808D02*
X113250000Y-105345808D01*
X113250000Y-105345808D02*
X113345238Y-105393427D01*
X113916667Y-106012475D02*
X113821429Y-105964856D01*
X113821429Y-105964856D02*
X113773810Y-105917236D01*
X113773810Y-105917236D02*
X113726191Y-105821998D01*
X113726191Y-105821998D02*
X113726191Y-105536284D01*
X113726191Y-105536284D02*
X113773810Y-105441046D01*
X113773810Y-105441046D02*
X113821429Y-105393427D01*
X113821429Y-105393427D02*
X113916667Y-105345808D01*
X113916667Y-105345808D02*
X114059524Y-105345808D01*
X114059524Y-105345808D02*
X114154762Y-105393427D01*
X114154762Y-105393427D02*
X114202381Y-105441046D01*
X114202381Y-105441046D02*
X114250000Y-105536284D01*
X114250000Y-105536284D02*
X114250000Y-105821998D01*
X114250000Y-105821998D02*
X114202381Y-105917236D01*
X114202381Y-105917236D02*
X114154762Y-105964856D01*
X114154762Y-105964856D02*
X114059524Y-106012475D01*
X114059524Y-106012475D02*
X113916667Y-106012475D01*
X105107142Y-107336704D02*
X105583332Y-107336704D01*
X105011904Y-107622419D02*
X105345237Y-106622419D01*
X105345237Y-106622419D02*
X105678570Y-107622419D01*
X106440475Y-106955752D02*
X106440475Y-107622419D01*
X106011904Y-106955752D02*
X106011904Y-107479561D01*
X106011904Y-107479561D02*
X106059523Y-107574800D01*
X106059523Y-107574800D02*
X106154761Y-107622419D01*
X106154761Y-107622419D02*
X106297618Y-107622419D01*
X106297618Y-107622419D02*
X106392856Y-107574800D01*
X106392856Y-107574800D02*
X106440475Y-107527180D01*
X106821428Y-107622419D02*
X107345237Y-106955752D01*
X106821428Y-106955752D02*
X107345237Y-107622419D01*
X108821428Y-107098609D02*
X108964285Y-107146228D01*
X108964285Y-107146228D02*
X109011904Y-107193847D01*
X109011904Y-107193847D02*
X109059523Y-107289085D01*
X109059523Y-107289085D02*
X109059523Y-107431942D01*
X109059523Y-107431942D02*
X109011904Y-107527180D01*
X109011904Y-107527180D02*
X108964285Y-107574800D01*
X108964285Y-107574800D02*
X108869047Y-107622419D01*
X108869047Y-107622419D02*
X108488095Y-107622419D01*
X108488095Y-107622419D02*
X108488095Y-106622419D01*
X108488095Y-106622419D02*
X108821428Y-106622419D01*
X108821428Y-106622419D02*
X108916666Y-106670038D01*
X108916666Y-106670038D02*
X108964285Y-106717657D01*
X108964285Y-106717657D02*
X109011904Y-106812895D01*
X109011904Y-106812895D02*
X109011904Y-106908133D01*
X109011904Y-106908133D02*
X108964285Y-107003371D01*
X108964285Y-107003371D02*
X108916666Y-107050990D01*
X108916666Y-107050990D02*
X108821428Y-107098609D01*
X108821428Y-107098609D02*
X108488095Y-107098609D01*
X109630952Y-107622419D02*
X109535714Y-107574800D01*
X109535714Y-107574800D02*
X109488095Y-107527180D01*
X109488095Y-107527180D02*
X109440476Y-107431942D01*
X109440476Y-107431942D02*
X109440476Y-107146228D01*
X109440476Y-107146228D02*
X109488095Y-107050990D01*
X109488095Y-107050990D02*
X109535714Y-107003371D01*
X109535714Y-107003371D02*
X109630952Y-106955752D01*
X109630952Y-106955752D02*
X109773809Y-106955752D01*
X109773809Y-106955752D02*
X109869047Y-107003371D01*
X109869047Y-107003371D02*
X109916666Y-107050990D01*
X109916666Y-107050990D02*
X109964285Y-107146228D01*
X109964285Y-107146228D02*
X109964285Y-107431942D01*
X109964285Y-107431942D02*
X109916666Y-107527180D01*
X109916666Y-107527180D02*
X109869047Y-107574800D01*
X109869047Y-107574800D02*
X109773809Y-107622419D01*
X109773809Y-107622419D02*
X109630952Y-107622419D01*
X110821428Y-107622419D02*
X110821428Y-107098609D01*
X110821428Y-107098609D02*
X110773809Y-107003371D01*
X110773809Y-107003371D02*
X110678571Y-106955752D01*
X110678571Y-106955752D02*
X110488095Y-106955752D01*
X110488095Y-106955752D02*
X110392857Y-107003371D01*
X110821428Y-107574800D02*
X110726190Y-107622419D01*
X110726190Y-107622419D02*
X110488095Y-107622419D01*
X110488095Y-107622419D02*
X110392857Y-107574800D01*
X110392857Y-107574800D02*
X110345238Y-107479561D01*
X110345238Y-107479561D02*
X110345238Y-107384323D01*
X110345238Y-107384323D02*
X110392857Y-107289085D01*
X110392857Y-107289085D02*
X110488095Y-107241466D01*
X110488095Y-107241466D02*
X110726190Y-107241466D01*
X110726190Y-107241466D02*
X110821428Y-107193847D01*
X111297619Y-107622419D02*
X111297619Y-106955752D01*
X111297619Y-107146228D02*
X111345238Y-107050990D01*
X111345238Y-107050990D02*
X111392857Y-107003371D01*
X111392857Y-107003371D02*
X111488095Y-106955752D01*
X111488095Y-106955752D02*
X111583333Y-106955752D01*
X112345238Y-107622419D02*
X112345238Y-106622419D01*
X112345238Y-107574800D02*
X112250000Y-107622419D01*
X112250000Y-107622419D02*
X112059524Y-107622419D01*
X112059524Y-107622419D02*
X111964286Y-107574800D01*
X111964286Y-107574800D02*
X111916667Y-107527180D01*
X111916667Y-107527180D02*
X111869048Y-107431942D01*
X111869048Y-107431942D02*
X111869048Y-107146228D01*
X111869048Y-107146228D02*
X111916667Y-107050990D01*
X111916667Y-107050990D02*
X111964286Y-107003371D01*
X111964286Y-107003371D02*
X112059524Y-106955752D01*
X112059524Y-106955752D02*
X112250000Y-106955752D01*
X112250000Y-106955752D02*
X112345238Y-107003371D01*
D12*
X162666666Y-61204819D02*
X162666666Y-61919104D01*
X162666666Y-61919104D02*
X162619047Y-62061961D01*
X162619047Y-62061961D02*
X162523809Y-62157200D01*
X162523809Y-62157200D02*
X162380952Y-62204819D01*
X162380952Y-62204819D02*
X162285714Y-62204819D01*
X163571428Y-61538152D02*
X163571428Y-62204819D01*
X163333333Y-61157200D02*
X163095238Y-61871485D01*
X163095238Y-61871485D02*
X163714285Y-61871485D01*
X105166666Y-98704819D02*
X105166666Y-99419104D01*
X105166666Y-99419104D02*
X105119047Y-99561961D01*
X105119047Y-99561961D02*
X105023809Y-99657200D01*
X105023809Y-99657200D02*
X104880952Y-99704819D01*
X104880952Y-99704819D02*
X104785714Y-99704819D01*
X106119047Y-98704819D02*
X105642857Y-98704819D01*
X105642857Y-98704819D02*
X105595238Y-99181009D01*
X105595238Y-99181009D02*
X105642857Y-99133390D01*
X105642857Y-99133390D02*
X105738095Y-99085771D01*
X105738095Y-99085771D02*
X105976190Y-99085771D01*
X105976190Y-99085771D02*
X106071428Y-99133390D01*
X106071428Y-99133390D02*
X106119047Y-99181009D01*
X106119047Y-99181009D02*
X106166666Y-99276247D01*
X106166666Y-99276247D02*
X106166666Y-99514342D01*
X106166666Y-99514342D02*
X106119047Y-99609580D01*
X106119047Y-99609580D02*
X106071428Y-99657200D01*
X106071428Y-99657200D02*
X105976190Y-99704819D01*
X105976190Y-99704819D02*
X105738095Y-99704819D01*
X105738095Y-99704819D02*
X105642857Y-99657200D01*
X105642857Y-99657200D02*
X105595238Y-99609580D01*
X101666666Y-57954819D02*
X101666666Y-58669104D01*
X101666666Y-58669104D02*
X101619047Y-58811961D01*
X101619047Y-58811961D02*
X101523809Y-58907200D01*
X101523809Y-58907200D02*
X101380952Y-58954819D01*
X101380952Y-58954819D02*
X101285714Y-58954819D01*
X102666666Y-58954819D02*
X102095238Y-58954819D01*
X102380952Y-58954819D02*
X102380952Y-57954819D01*
X102380952Y-57954819D02*
X102285714Y-58097676D01*
X102285714Y-58097676D02*
X102190476Y-58192914D01*
X102190476Y-58192914D02*
X102095238Y-58240533D01*
X158936666Y-98714819D02*
X158936666Y-99429104D01*
X158936666Y-99429104D02*
X158889047Y-99571961D01*
X158889047Y-99571961D02*
X158793809Y-99667200D01*
X158793809Y-99667200D02*
X158650952Y-99714819D01*
X158650952Y-99714819D02*
X158555714Y-99714819D01*
X159365238Y-98810057D02*
X159412857Y-98762438D01*
X159412857Y-98762438D02*
X159508095Y-98714819D01*
X159508095Y-98714819D02*
X159746190Y-98714819D01*
X159746190Y-98714819D02*
X159841428Y-98762438D01*
X159841428Y-98762438D02*
X159889047Y-98810057D01*
X159889047Y-98810057D02*
X159936666Y-98905295D01*
X159936666Y-98905295D02*
X159936666Y-99000533D01*
X159936666Y-99000533D02*
X159889047Y-99143390D01*
X159889047Y-99143390D02*
X159317619Y-99714819D01*
X159317619Y-99714819D02*
X159936666Y-99714819D01*
X119039160Y-68419104D02*
X119515350Y-68419104D01*
X118943922Y-68704819D02*
X119277255Y-67704819D01*
X119277255Y-67704819D02*
X119610588Y-68704819D01*
X120467731Y-68704819D02*
X119896303Y-68704819D01*
X120182017Y-68704819D02*
X120182017Y-67704819D01*
X120182017Y-67704819D02*
X120086779Y-67847676D01*
X120086779Y-67847676D02*
X119991541Y-67942914D01*
X119991541Y-67942914D02*
X119896303Y-67990533D01*
X149166666Y-117704819D02*
X149166666Y-118419104D01*
X149166666Y-118419104D02*
X149119047Y-118561961D01*
X149119047Y-118561961D02*
X149023809Y-118657200D01*
X149023809Y-118657200D02*
X148880952Y-118704819D01*
X148880952Y-118704819D02*
X148785714Y-118704819D01*
X149547619Y-117704819D02*
X150166666Y-117704819D01*
X150166666Y-117704819D02*
X149833333Y-118085771D01*
X149833333Y-118085771D02*
X149976190Y-118085771D01*
X149976190Y-118085771D02*
X150071428Y-118133390D01*
X150071428Y-118133390D02*
X150119047Y-118181009D01*
X150119047Y-118181009D02*
X150166666Y-118276247D01*
X150166666Y-118276247D02*
X150166666Y-118514342D01*
X150166666Y-118514342D02*
X150119047Y-118609580D01*
X150119047Y-118609580D02*
X150071428Y-118657200D01*
X150071428Y-118657200D02*
X149976190Y-118704819D01*
X149976190Y-118704819D02*
X149690476Y-118704819D01*
X149690476Y-118704819D02*
X149595238Y-118657200D01*
X149595238Y-118657200D02*
X149547619Y-118609580D01*
D13*
X143040000Y-51460000D02*
X163620000Y-51460000D01*
X143040000Y-60580000D02*
X143040000Y-51460000D01*
X144340000Y-52770000D02*
X151280000Y-52770000D01*
X144340000Y-59270000D02*
X144340000Y-52770000D01*
X151280000Y-52770000D02*
X151280000Y-51460000D01*
X151280000Y-52770000D02*
X151280000Y-52770000D01*
X155380000Y-51460000D02*
X155380000Y-52770000D01*
X155380000Y-52770000D02*
X162320000Y-52770000D01*
X157910000Y-50070000D02*
X158410000Y-51070000D01*
X158410000Y-51070000D02*
X158910000Y-50070000D01*
X158910000Y-50070000D02*
X157910000Y-50070000D01*
X162320000Y-52770000D02*
X162320000Y-59270000D01*
X162320000Y-59270000D02*
X144340000Y-59270000D01*
X163620000Y-51460000D02*
X163620000Y-60580000D01*
X163620000Y-60580000D02*
X143040000Y-60580000D01*
X99530000Y-82500000D02*
X99530000Y-83500000D01*
X99530000Y-83500000D02*
X100530000Y-83000000D01*
X100530000Y-83000000D02*
X99530000Y-82500000D01*
X100920000Y-77790000D02*
X110040000Y-77790000D01*
X100920000Y-86030000D02*
X102230000Y-86030000D01*
X100920000Y-98370000D02*
X100920000Y-77790000D01*
X102230000Y-79090000D02*
X108730000Y-79090000D01*
X102230000Y-86030000D02*
X102230000Y-79090000D01*
X102230000Y-90130000D02*
X100920000Y-90130000D01*
X102230000Y-90130000D02*
X102230000Y-90130000D01*
X102230000Y-97070000D02*
X102230000Y-90130000D01*
X108730000Y-79090000D02*
X108730000Y-97070000D01*
X108730000Y-97070000D02*
X102230000Y-97070000D01*
X110040000Y-77790000D02*
X110040000Y-98370000D01*
X110040000Y-98370000D02*
X100920000Y-98370000D01*
X101150000Y-51250000D02*
X101150000Y-52500000D01*
X101440000Y-51540000D02*
X101440000Y-57510000D01*
X101440000Y-57510000D02*
X119060000Y-57510000D01*
X101450000Y-51550000D02*
X101450000Y-52300000D01*
X101450000Y-52300000D02*
X103250000Y-52300000D01*
X101450000Y-53800000D02*
X102200000Y-53800000D01*
X102200000Y-53800000D02*
X102200000Y-56750000D01*
X102200000Y-56750000D02*
X110250000Y-56750000D01*
X102400000Y-51250000D02*
X101150000Y-51250000D01*
X103250000Y-51550000D02*
X101450000Y-51550000D01*
X103250000Y-52300000D02*
X103250000Y-51550000D01*
X104750000Y-51550000D02*
X104750000Y-52300000D01*
X104750000Y-52300000D02*
X115750000Y-52300000D01*
X115750000Y-51550000D02*
X104750000Y-51550000D01*
X115750000Y-52300000D02*
X115750000Y-51550000D01*
X117250000Y-51550000D02*
X117250000Y-52300000D01*
X117250000Y-52300000D02*
X119050000Y-52300000D01*
X118300000Y-53800000D02*
X118300000Y-56750000D01*
X118300000Y-56750000D02*
X110250000Y-56750000D01*
X119050000Y-51550000D02*
X117250000Y-51550000D01*
X119050000Y-52300000D02*
X119050000Y-51550000D01*
X119050000Y-53800000D02*
X118300000Y-53800000D01*
X119060000Y-51540000D02*
X101440000Y-51540000D01*
X119060000Y-57510000D02*
X119060000Y-51540000D01*
X154710000Y-77790000D02*
X163830000Y-77790000D01*
X154710000Y-98370000D02*
X154710000Y-77790000D01*
X156020000Y-79090000D02*
X162520000Y-79090000D01*
X156020000Y-97070000D02*
X156020000Y-79090000D01*
X162520000Y-79090000D02*
X162520000Y-86030000D01*
X162520000Y-86030000D02*
X162520000Y-86030000D01*
X162520000Y-86030000D02*
X163830000Y-86030000D01*
X162520000Y-90130000D02*
X162520000Y-97070000D01*
X162520000Y-97070000D02*
X156020000Y-97070000D01*
X163830000Y-77790000D02*
X163830000Y-98370000D01*
X163830000Y-90130000D02*
X162520000Y-90130000D01*
X163830000Y-98370000D02*
X154710000Y-98370000D01*
X164220000Y-93160000D02*
X165220000Y-93660000D01*
X165220000Y-92660000D02*
X164220000Y-93160000D01*
X165220000Y-93660000D02*
X165220000Y-92660000D01*
X121780000Y-70980000D02*
X121780000Y-70560000D01*
X121780000Y-73520000D02*
X121780000Y-73100000D01*
X121780000Y-76060000D02*
X121780000Y-75640000D01*
X121780000Y-78600000D02*
X121780000Y-78180000D01*
X121780000Y-81140000D02*
X121780000Y-80720000D01*
X121780000Y-83680000D02*
X121780000Y-83260000D01*
X121780000Y-86220000D02*
X121780000Y-85800000D01*
X121780000Y-88760000D02*
X121780000Y-88340000D01*
X121780000Y-91300000D02*
X121780000Y-90880000D01*
X121780000Y-93840000D02*
X121780000Y-93420000D01*
X121780000Y-96380000D02*
X121780000Y-95960000D01*
X121780000Y-98920000D02*
X121780000Y-98500000D01*
X121780000Y-101460000D02*
X121780000Y-101040000D01*
X121780000Y-104000000D02*
X121780000Y-103580000D01*
X121780000Y-106540000D02*
X121780000Y-106120000D01*
X121780000Y-109080000D02*
X121780000Y-108660000D01*
X121780000Y-111620000D02*
X121780000Y-111200000D01*
X121780000Y-114160000D02*
X121780000Y-113740000D01*
X121780000Y-116700000D02*
X121780000Y-116280000D01*
X122120000Y-68440063D02*
X122120000Y-68083000D01*
X122120000Y-70980000D02*
X122120000Y-70560000D01*
X122120000Y-73520000D02*
X122120000Y-73100000D01*
X122120000Y-76060000D02*
X122120000Y-75640000D01*
X122120000Y-78600000D02*
X122120000Y-78180000D01*
X122120000Y-81140000D02*
X122120000Y-80720000D01*
X122120000Y-83680000D02*
X122120000Y-83260000D01*
X122120000Y-86220000D02*
X122120000Y-85800000D01*
X122120000Y-88760000D02*
X122120000Y-88340000D01*
X122120000Y-91300000D02*
X122120000Y-90880000D01*
X122120000Y-93840000D02*
X122120000Y-93420000D01*
X122120000Y-96380000D02*
X122120000Y-95960000D01*
X122120000Y-98920000D02*
X122120000Y-98500000D01*
X122120000Y-101460000D02*
X122120000Y-101040000D01*
X122120000Y-104000000D02*
X122120000Y-103580000D01*
X122120000Y-106540000D02*
X122120000Y-106120000D01*
X122120000Y-109080000D02*
X122120000Y-108660000D01*
X122120000Y-111620000D02*
X122120000Y-111200000D01*
X122120000Y-114160000D02*
X122120000Y-113740000D01*
X122120000Y-116700000D02*
X122120000Y-116280000D01*
X122120000Y-118819937D02*
X122120000Y-119177000D01*
X122390000Y-119240000D02*
X124880000Y-119240000D01*
X124880000Y-68933520D02*
X124880000Y-68020000D01*
X124880000Y-71326480D02*
X124880000Y-68933520D01*
X124880000Y-115933520D02*
X124880000Y-71326480D01*
X124880000Y-118326480D02*
X124880000Y-115933520D01*
X124880000Y-119240000D02*
X124880000Y-118326480D01*
X128155000Y-119240000D02*
X124880000Y-119240000D01*
X128490000Y-116945200D02*
X128490000Y-114720000D01*
X128490000Y-119240000D02*
X128490000Y-118324000D01*
X128786090Y-114720000D02*
X128490000Y-114720000D01*
X128790000Y-68020000D02*
X122390000Y-68020000D01*
X128790000Y-68020000D02*
X135990000Y-68020000D01*
X133636090Y-114720000D02*
X131143910Y-114720000D01*
X136290000Y-114720000D02*
X135993910Y-114720000D01*
X136290000Y-116945200D02*
X136290000Y-114720000D01*
X136290000Y-119240000D02*
X136290000Y-118324000D01*
X136625000Y-119240000D02*
X128155000Y-119240000D01*
X139900000Y-68933520D02*
X139900000Y-68020000D01*
X139900000Y-71326480D02*
X139900000Y-68933520D01*
X139900000Y-115933520D02*
X139900000Y-71326480D01*
X139900000Y-118326480D02*
X139900000Y-115933520D01*
X139900000Y-119240000D02*
X136625000Y-119240000D01*
X139900000Y-119240000D02*
X139900000Y-118326480D01*
X142390000Y-68020000D02*
X135990000Y-68020000D01*
X142390000Y-119240000D02*
X139900000Y-119240000D01*
X142660000Y-68440063D02*
X142660000Y-68083000D01*
X142660000Y-70980000D02*
X142660000Y-70560000D01*
X142660000Y-73520000D02*
X142660000Y-73100000D01*
X142660000Y-76060000D02*
X142660000Y-75640000D01*
X142660000Y-78600000D02*
X142660000Y-78180000D01*
X142660000Y-81140000D02*
X142660000Y-80720000D01*
X142660000Y-83680000D02*
X142660000Y-83260000D01*
X142660000Y-86220000D02*
X142660000Y-85800000D01*
X142660000Y-88760000D02*
X142660000Y-88340000D01*
X142660000Y-91300000D02*
X142660000Y-90880000D01*
X142660000Y-93840000D02*
X142660000Y-93420000D01*
X142660000Y-96380000D02*
X142660000Y-95960000D01*
X142660000Y-98920000D02*
X142660000Y-98500000D01*
X142660000Y-101460000D02*
X142660000Y-101040000D01*
X142660000Y-104000000D02*
X142660000Y-103580000D01*
X142660000Y-106540000D02*
X142660000Y-106120000D01*
X142660000Y-109080000D02*
X142660000Y-108660000D01*
X142660000Y-111620000D02*
X142660000Y-111200000D01*
X142660000Y-114160000D02*
X142660000Y-113740000D01*
X142660000Y-116700000D02*
X142660000Y-116280000D01*
X142660000Y-118819937D02*
X142660000Y-119177000D01*
X142969676Y-118820000D02*
X143480000Y-118820000D01*
X143000000Y-70980000D02*
X143000000Y-70560000D01*
X143000000Y-73520000D02*
X143000000Y-73100000D01*
X143000000Y-76060000D02*
X143000000Y-75640000D01*
X143000000Y-78600000D02*
X143000000Y-78180000D01*
X143000000Y-81140000D02*
X143000000Y-80720000D01*
X143000000Y-83680000D02*
X143000000Y-83260000D01*
X143000000Y-86220000D02*
X143000000Y-85800000D01*
X143000000Y-88760000D02*
X143000000Y-88340000D01*
X143000000Y-91300000D02*
X143000000Y-90880000D01*
X143000000Y-93840000D02*
X143000000Y-93420000D01*
X143000000Y-96380000D02*
X143000000Y-95960000D01*
X143000000Y-98920000D02*
X143000000Y-98500000D01*
X143000000Y-101460000D02*
X143000000Y-101040000D01*
X143000000Y-104000000D02*
X143000000Y-103580000D01*
X143000000Y-106540000D02*
X143000000Y-106120000D01*
X143000000Y-109080000D02*
X143000000Y-108660000D01*
X143000000Y-111620000D02*
X143000000Y-111200000D01*
X143000000Y-114160000D02*
X143000000Y-113740000D01*
X143000000Y-116700000D02*
X143000000Y-116280000D01*
X143000000Y-116700000D02*
X143480000Y-116700000D01*
X121810324Y-68440063D02*
G75*
G02*
X122390000Y-68019996I579636J-189877D01*
G01*
X122390000Y-119240000D02*
G75*
G02*
X121810324Y-118819937I0J610000D01*
G01*
X142390000Y-68020000D02*
G75*
G02*
X142969676Y-68440063I-1J-610002D01*
G01*
X142969676Y-118820000D02*
G75*
G02*
X142390000Y-119240000I-579692J190051D01*
G01*
X127630000Y-70130000D02*
G75*
G02*
X125750000Y-70130000I-940000J0D01*
G01*
X125750000Y-70130000D02*
G75*
G02*
X127630000Y-70130000I940000J0D01*
G01*
X127630000Y-117130000D02*
G75*
G02*
X125750000Y-117130000I-940000J0D01*
G01*
X125750000Y-117130000D02*
G75*
G02*
X127630000Y-117130000I940000J0D01*
G01*
X139030000Y-70130000D02*
G75*
G02*
X137150000Y-70130000I-940000J0D01*
G01*
X137150000Y-70130000D02*
G75*
G02*
X139030000Y-70130000I940000J0D01*
G01*
X139030000Y-117130000D02*
G75*
G02*
X137150000Y-117130000I-940000J0D01*
G01*
X137150000Y-117130000D02*
G75*
G02*
X139030000Y-117130000I940000J0D01*
G01*
X145670000Y-116560000D02*
X145670000Y-111420000D01*
X148330000Y-111420000D02*
X145670000Y-111420000D01*
X148330000Y-116560000D02*
X145670000Y-116560000D01*
X148330000Y-116560000D02*
X148330000Y-111420000D01*
X148330000Y-117830000D02*
X148330000Y-119160000D01*
X148330000Y-119160000D02*
X147000000Y-119160000D01*
%LPC*%
D14*
X157500000Y-67500000D03*
D15*
X158410000Y-54750000D03*
D16*
X158410000Y-57290000D03*
X155870000Y-54750000D03*
X155870000Y-57290000D03*
X153330000Y-54750000D03*
X153330000Y-57290000D03*
X150790000Y-54750000D03*
X150790000Y-57290000D03*
X148250000Y-54750000D03*
X148250000Y-57290000D03*
D14*
X107500000Y-67500000D03*
D17*
X104210000Y-83000000D03*
D16*
X106750000Y-83000000D03*
X104210000Y-85540000D03*
X106750000Y-85540000D03*
X104210000Y-88080000D03*
X106750000Y-88080000D03*
X104210000Y-90620000D03*
X106750000Y-90620000D03*
X104210000Y-93160000D03*
X106750000Y-93160000D03*
D14*
X107500000Y-112500000D03*
X157500000Y-112500000D03*
D18*
X104000000Y-54000000D03*
D19*
X106500000Y-54000000D03*
X109000000Y-54000000D03*
X111500000Y-54000000D03*
X114000000Y-54000000D03*
X116500000Y-54000000D03*
D20*
X160540000Y-93160000D03*
D16*
X158000000Y-93160000D03*
X160540000Y-90620000D03*
X158000000Y-90620000D03*
X160540000Y-88080000D03*
X158000000Y-88080000D03*
X160540000Y-85540000D03*
X158000000Y-85540000D03*
X160540000Y-83000000D03*
X158000000Y-83000000D03*
D21*
X135115000Y-117630000D03*
D22*
X134815000Y-114600000D03*
X129965000Y-114600000D03*
D21*
X129665000Y-117630000D03*
D23*
X141280000Y-117760000D03*
D24*
X141280000Y-117760000D03*
D25*
X141280000Y-115220000D03*
D26*
X142080000Y-115220000D03*
D27*
X141280000Y-112680000D03*
D28*
X141280000Y-112680000D03*
D25*
X141280000Y-110140000D03*
D26*
X142080000Y-110140000D03*
D25*
X141280000Y-107600000D03*
D26*
X142080000Y-107600000D03*
D25*
X141280000Y-105060000D03*
D26*
X142080000Y-105060000D03*
D25*
X141280000Y-102520000D03*
D26*
X142080000Y-102520000D03*
D27*
X141280000Y-99980000D03*
D28*
X141280000Y-99980000D03*
D25*
X141280000Y-97440000D03*
D26*
X142080000Y-97440000D03*
D25*
X141280000Y-94900000D03*
D26*
X142080000Y-94900000D03*
D25*
X141280000Y-92360000D03*
D26*
X142080000Y-92360000D03*
D25*
X141280000Y-89820000D03*
D26*
X142080000Y-89820000D03*
D27*
X141280000Y-87280000D03*
D28*
X141280000Y-87280000D03*
D25*
X141280000Y-84740000D03*
D26*
X142080000Y-84740000D03*
D25*
X141280000Y-82200000D03*
D26*
X142080000Y-82200000D03*
D25*
X141280000Y-79660000D03*
D26*
X142080000Y-79660000D03*
D25*
X141280000Y-77120000D03*
D26*
X142080000Y-77120000D03*
D27*
X141280000Y-74580000D03*
D28*
X141280000Y-74580000D03*
D25*
X141280000Y-72040000D03*
D26*
X142080000Y-72040000D03*
D25*
X141280000Y-69500000D03*
D26*
X142080000Y-69500000D03*
D25*
X123500000Y-69500000D03*
D26*
X122700000Y-69500000D03*
D25*
X123500000Y-72040000D03*
D26*
X122700000Y-72040000D03*
D29*
X123500000Y-74580000D03*
D30*
X123500000Y-74580000D03*
D25*
X123500000Y-77120000D03*
D26*
X122700000Y-77120000D03*
D25*
X123500000Y-79660000D03*
D26*
X122700000Y-79660000D03*
D25*
X123500000Y-82200000D03*
D26*
X122700000Y-82200000D03*
D25*
X123500000Y-84740000D03*
D26*
X122700000Y-84740000D03*
D29*
X123500000Y-87280000D03*
D30*
X123500000Y-87280000D03*
D25*
X123500000Y-89820000D03*
D26*
X122700000Y-89820000D03*
D25*
X123500000Y-92360000D03*
D26*
X122700000Y-92360000D03*
D25*
X123500000Y-94900000D03*
D26*
X122700000Y-94900000D03*
D25*
X123500000Y-97440000D03*
D26*
X122700000Y-97440000D03*
D29*
X123500000Y-99980000D03*
D30*
X123500000Y-99980000D03*
D25*
X123500000Y-102520000D03*
D26*
X122700000Y-102520000D03*
D25*
X123500000Y-105060000D03*
D26*
X122700000Y-105060000D03*
D25*
X123500000Y-107600000D03*
D26*
X122700000Y-107600000D03*
D25*
X123500000Y-110140000D03*
D26*
X122700000Y-110140000D03*
D29*
X123500000Y-112680000D03*
D30*
X123500000Y-112680000D03*
D25*
X123500000Y-115220000D03*
D26*
X122700000Y-115220000D03*
D25*
X123500000Y-117760000D03*
D26*
X122700000Y-117760000D03*
D31*
X147000000Y-117830000D03*
D32*
X147000000Y-115290000D03*
X147000000Y-112750000D03*
%LPD*%
M02*
