G04 #@! TF.GenerationSoftware,KiCad,Pcbnew,8.0.5*
G04 #@! TF.CreationDate,2024-10-24T17:48:12+02:00*
G04 #@! TF.ProjectId,parallel_adapter,70617261-6c6c-4656-9c5f-616461707465,rev?*
G04 #@! TF.SameCoordinates,Original*
G04 #@! TF.FileFunction,Copper,L2,Bot*
G04 #@! TF.FilePolarity,Positive*
%FSLAX46Y46*%
G04 Gerber Fmt 4.6, Leading zero omitted, Abs format (unit mm)*
G04 Created by KiCad (PCBNEW 8.0.5) date 2024-10-24 17:48:12*
%MOMM*%
%LPD*%
G01*
G04 APERTURE LIST*
G04 Aperture macros list*
%AMRoundRect*
0 Rectangle with rounded corners*
0 $1 Rounding radius*
0 $2 $3 $4 $5 $6 $7 $8 $9 X,Y pos of 4 corners*
0 Add a 4 corners polygon primitive as box body*
4,1,4,$2,$3,$4,$5,$6,$7,$8,$9,$2,$3,0*
0 Add four circle primitives for the rounded corners*
1,1,$1+$1,$2,$3*
1,1,$1+$1,$4,$5*
1,1,$1+$1,$6,$7*
1,1,$1+$1,$8,$9*
0 Add four rect primitives between the rounded corners*
20,1,$1+$1,$2,$3,$4,$5,0*
20,1,$1+$1,$4,$5,$6,$7,0*
20,1,$1+$1,$6,$7,$8,$9,0*
20,1,$1+$1,$8,$9,$2,$3,0*%
G04 Aperture macros list end*
G04 #@! TA.AperFunction,ComponentPad*
%ADD10RoundRect,0.250000X0.600000X-0.600000X0.600000X0.600000X-0.600000X0.600000X-0.600000X-0.600000X0*%
G04 #@! TD*
G04 #@! TA.AperFunction,ComponentPad*
%ADD11C,1.700000*%
G04 #@! TD*
G04 #@! TA.AperFunction,ComponentPad*
%ADD12C,4.000000*%
G04 #@! TD*
G04 #@! TA.AperFunction,ComponentPad*
%ADD13R,1.600000X1.600000*%
G04 #@! TD*
G04 #@! TA.AperFunction,ComponentPad*
%ADD14C,1.600000*%
G04 #@! TD*
G04 #@! TA.AperFunction,ViaPad*
%ADD15C,0.600000*%
G04 #@! TD*
G04 #@! TA.AperFunction,Conductor*
%ADD16C,0.200000*%
G04 #@! TD*
G04 APERTURE END LIST*
D10*
X139080000Y-82540000D03*
D11*
X139080000Y-80000000D03*
X141620000Y-82540000D03*
X141620000Y-80000000D03*
X144160000Y-82540000D03*
X144160000Y-80000000D03*
X146700000Y-82540000D03*
X146700000Y-80000000D03*
X149240000Y-82540000D03*
X149240000Y-80000000D03*
X151780000Y-82540000D03*
X151780000Y-80000000D03*
X154320000Y-82540000D03*
X154320000Y-80000000D03*
X156860000Y-82540000D03*
X156860000Y-80000000D03*
X159400000Y-82540000D03*
X159400000Y-80000000D03*
X161940000Y-82540000D03*
X161940000Y-80000000D03*
D12*
X133500000Y-89600000D03*
X166800000Y-89600000D03*
D13*
X159845000Y-88180000D03*
D14*
X157075000Y-88180000D03*
X154305000Y-88180000D03*
X151535000Y-88180000D03*
X148765000Y-88180000D03*
X145995000Y-88180000D03*
X143225000Y-88180000D03*
X140455000Y-88180000D03*
X158460000Y-91020000D03*
X155690000Y-91020000D03*
X152920000Y-91020000D03*
X150150000Y-91020000D03*
X147380000Y-91020000D03*
X144610000Y-91020000D03*
X141840000Y-91020000D03*
D15*
X147600000Y-89400000D03*
X144400000Y-85200000D03*
D16*
X146700000Y-82540000D02*
X149240000Y-82540000D01*
X161940000Y-82540000D02*
X161940000Y-84740000D01*
X144160000Y-82540000D02*
X146700000Y-82540000D01*
X144160000Y-82540000D02*
X137100000Y-89600000D01*
X159591370Y-91020000D02*
X161940000Y-88671370D01*
X155690000Y-91020000D02*
X158460000Y-91020000D01*
X161940000Y-88671370D02*
X161940000Y-82540000D01*
X158460000Y-91020000D02*
X159591370Y-91020000D01*
X137100000Y-89600000D02*
X133500000Y-89600000D01*
X151780000Y-82540000D02*
X154320000Y-82540000D01*
X161940000Y-84740000D02*
X166800000Y-89600000D01*
X159400000Y-82540000D02*
X161940000Y-82540000D01*
X149240000Y-82540000D02*
X151780000Y-82540000D01*
X156860000Y-82540000D02*
X159400000Y-82540000D01*
X154320000Y-82540000D02*
X156860000Y-82540000D01*
X147600000Y-89400000D02*
X158625000Y-89400000D01*
X158625000Y-89400000D02*
X159845000Y-88180000D01*
X142980000Y-91020000D02*
X141840000Y-91020000D01*
X144400000Y-85200000D02*
X144400000Y-89600000D01*
X144400000Y-89600000D02*
X142980000Y-91020000D01*
G04 #@! TA.AperFunction,Conductor*
G36*
X145514855Y-80666546D02*
G01*
X145531575Y-80685842D01*
X145661500Y-80871395D01*
X145661505Y-80871401D01*
X145828599Y-81038495D01*
X146014158Y-81168425D01*
X146014594Y-81168730D01*
X146058218Y-81223307D01*
X146065411Y-81292806D01*
X146033889Y-81355160D01*
X146014593Y-81371880D01*
X145938626Y-81425072D01*
X145938625Y-81425072D01*
X146570590Y-82057037D01*
X146507007Y-82074075D01*
X146392993Y-82139901D01*
X146299901Y-82232993D01*
X146234075Y-82347007D01*
X146217037Y-82410590D01*
X145585072Y-81778625D01*
X145585072Y-81778626D01*
X145531574Y-81855030D01*
X145476998Y-81898655D01*
X145407499Y-81905849D01*
X145345144Y-81874326D01*
X145328424Y-81855030D01*
X145274925Y-81778626D01*
X145274925Y-81778625D01*
X144642962Y-82410589D01*
X144625925Y-82347007D01*
X144560099Y-82232993D01*
X144467007Y-82139901D01*
X144352993Y-82074075D01*
X144289410Y-82057037D01*
X144921373Y-81425073D01*
X144921373Y-81425072D01*
X144845405Y-81371880D01*
X144801780Y-81317304D01*
X144794586Y-81247805D01*
X144826108Y-81185451D01*
X144845399Y-81168734D01*
X145031401Y-81038495D01*
X145198495Y-80871401D01*
X145328425Y-80685842D01*
X145383002Y-80642217D01*
X145452500Y-80635023D01*
X145514855Y-80666546D01*
G37*
G04 #@! TD.AperFunction*
G04 #@! TA.AperFunction,Conductor*
G36*
X148054855Y-80666546D02*
G01*
X148071575Y-80685842D01*
X148201500Y-80871395D01*
X148201505Y-80871401D01*
X148368599Y-81038495D01*
X148554158Y-81168425D01*
X148554594Y-81168730D01*
X148598218Y-81223307D01*
X148605411Y-81292806D01*
X148573889Y-81355160D01*
X148554593Y-81371880D01*
X148478626Y-81425072D01*
X148478625Y-81425072D01*
X149110590Y-82057037D01*
X149047007Y-82074075D01*
X148932993Y-82139901D01*
X148839901Y-82232993D01*
X148774075Y-82347007D01*
X148757037Y-82410590D01*
X148125072Y-81778625D01*
X148125072Y-81778626D01*
X148071574Y-81855030D01*
X148016998Y-81898655D01*
X147947499Y-81905849D01*
X147885144Y-81874326D01*
X147868424Y-81855030D01*
X147814925Y-81778626D01*
X147814925Y-81778625D01*
X147182962Y-82410589D01*
X147165925Y-82347007D01*
X147100099Y-82232993D01*
X147007007Y-82139901D01*
X146892993Y-82074075D01*
X146829410Y-82057037D01*
X147461373Y-81425073D01*
X147461373Y-81425072D01*
X147385405Y-81371880D01*
X147341780Y-81317304D01*
X147334586Y-81247805D01*
X147366108Y-81185451D01*
X147385399Y-81168734D01*
X147571401Y-81038495D01*
X147738495Y-80871401D01*
X147868425Y-80685842D01*
X147923002Y-80642217D01*
X147992500Y-80635023D01*
X148054855Y-80666546D01*
G37*
G04 #@! TD.AperFunction*
G04 #@! TA.AperFunction,Conductor*
G36*
X153134855Y-80666546D02*
G01*
X153151575Y-80685842D01*
X153281500Y-80871395D01*
X153281505Y-80871401D01*
X153448599Y-81038495D01*
X153634158Y-81168425D01*
X153634594Y-81168730D01*
X153678218Y-81223307D01*
X153685411Y-81292806D01*
X153653889Y-81355160D01*
X153634593Y-81371880D01*
X153558626Y-81425072D01*
X153558625Y-81425072D01*
X154190590Y-82057037D01*
X154127007Y-82074075D01*
X154012993Y-82139901D01*
X153919901Y-82232993D01*
X153854075Y-82347007D01*
X153837037Y-82410590D01*
X153205072Y-81778625D01*
X153205072Y-81778626D01*
X153151574Y-81855030D01*
X153096998Y-81898655D01*
X153027499Y-81905849D01*
X152965144Y-81874326D01*
X152948424Y-81855030D01*
X152894925Y-81778626D01*
X152894925Y-81778625D01*
X152262962Y-82410589D01*
X152245925Y-82347007D01*
X152180099Y-82232993D01*
X152087007Y-82139901D01*
X151972993Y-82074075D01*
X151909410Y-82057037D01*
X152541373Y-81425073D01*
X152541373Y-81425072D01*
X152465405Y-81371880D01*
X152421780Y-81317304D01*
X152414586Y-81247805D01*
X152446108Y-81185451D01*
X152465399Y-81168734D01*
X152651401Y-81038495D01*
X152818495Y-80871401D01*
X152948425Y-80685842D01*
X153003002Y-80642217D01*
X153072500Y-80635023D01*
X153134855Y-80666546D01*
G37*
G04 #@! TD.AperFunction*
G04 #@! TA.AperFunction,Conductor*
G36*
X155674855Y-80666546D02*
G01*
X155691575Y-80685842D01*
X155821500Y-80871395D01*
X155821505Y-80871401D01*
X155988599Y-81038495D01*
X156174158Y-81168425D01*
X156174594Y-81168730D01*
X156218218Y-81223307D01*
X156225411Y-81292806D01*
X156193889Y-81355160D01*
X156174593Y-81371880D01*
X156098626Y-81425072D01*
X156098625Y-81425072D01*
X156730590Y-82057037D01*
X156667007Y-82074075D01*
X156552993Y-82139901D01*
X156459901Y-82232993D01*
X156394075Y-82347007D01*
X156377037Y-82410590D01*
X155745072Y-81778625D01*
X155745072Y-81778626D01*
X155691574Y-81855030D01*
X155636998Y-81898655D01*
X155567499Y-81905849D01*
X155505144Y-81874326D01*
X155488424Y-81855030D01*
X155434925Y-81778626D01*
X155434925Y-81778625D01*
X154802962Y-82410589D01*
X154785925Y-82347007D01*
X154720099Y-82232993D01*
X154627007Y-82139901D01*
X154512993Y-82074075D01*
X154449410Y-82057037D01*
X155081373Y-81425073D01*
X155081373Y-81425072D01*
X155005405Y-81371880D01*
X154961780Y-81317304D01*
X154954586Y-81247805D01*
X154986108Y-81185451D01*
X155005399Y-81168734D01*
X155191401Y-81038495D01*
X155358495Y-80871401D01*
X155488425Y-80685842D01*
X155543002Y-80642217D01*
X155612500Y-80635023D01*
X155674855Y-80666546D01*
G37*
G04 #@! TD.AperFunction*
G04 #@! TA.AperFunction,Conductor*
G36*
X160754855Y-80666546D02*
G01*
X160771575Y-80685842D01*
X160901500Y-80871395D01*
X160901505Y-80871401D01*
X161068599Y-81038495D01*
X161254158Y-81168425D01*
X161254594Y-81168730D01*
X161298218Y-81223307D01*
X161305411Y-81292806D01*
X161273889Y-81355160D01*
X161254593Y-81371880D01*
X161178626Y-81425072D01*
X161178625Y-81425072D01*
X161810590Y-82057037D01*
X161747007Y-82074075D01*
X161632993Y-82139901D01*
X161539901Y-82232993D01*
X161474075Y-82347007D01*
X161457037Y-82410590D01*
X160825072Y-81778625D01*
X160825072Y-81778626D01*
X160771574Y-81855030D01*
X160716998Y-81898655D01*
X160647499Y-81905849D01*
X160585144Y-81874326D01*
X160568424Y-81855030D01*
X160514925Y-81778626D01*
X160514925Y-81778625D01*
X159882962Y-82410589D01*
X159865925Y-82347007D01*
X159800099Y-82232993D01*
X159707007Y-82139901D01*
X159592993Y-82074075D01*
X159529410Y-82057037D01*
X160161373Y-81425073D01*
X160161373Y-81425072D01*
X160085405Y-81371880D01*
X160041780Y-81317304D01*
X160034586Y-81247805D01*
X160066108Y-81185451D01*
X160085399Y-81168734D01*
X160271401Y-81038495D01*
X160438495Y-80871401D01*
X160568425Y-80685842D01*
X160623002Y-80642217D01*
X160692500Y-80635023D01*
X160754855Y-80666546D01*
G37*
G04 #@! TD.AperFunction*
G04 #@! TA.AperFunction,Conductor*
G36*
X142974855Y-80666546D02*
G01*
X142991575Y-80685842D01*
X143121500Y-80871395D01*
X143121505Y-80871401D01*
X143288599Y-81038495D01*
X143474158Y-81168425D01*
X143474594Y-81168730D01*
X143518218Y-81223307D01*
X143525411Y-81292806D01*
X143493889Y-81355160D01*
X143474593Y-81371880D01*
X143398626Y-81425072D01*
X143398625Y-81425072D01*
X144030590Y-82057037D01*
X143967007Y-82074075D01*
X143852993Y-82139901D01*
X143759901Y-82232993D01*
X143694075Y-82347007D01*
X143677037Y-82410589D01*
X143045073Y-81778626D01*
X142991881Y-81854594D01*
X142937304Y-81898219D01*
X142867806Y-81905413D01*
X142805451Y-81873891D01*
X142788730Y-81854594D01*
X142658494Y-81668597D01*
X142491402Y-81501506D01*
X142491396Y-81501501D01*
X142305842Y-81371575D01*
X142262217Y-81316998D01*
X142255023Y-81247500D01*
X142286546Y-81185145D01*
X142305842Y-81168425D01*
X142433165Y-81079272D01*
X142491401Y-81038495D01*
X142658495Y-80871401D01*
X142788425Y-80685842D01*
X142843002Y-80642217D01*
X142912500Y-80635023D01*
X142974855Y-80666546D01*
G37*
G04 #@! TD.AperFunction*
G04 #@! TA.AperFunction,Conductor*
G36*
X150594855Y-80666546D02*
G01*
X150611575Y-80685842D01*
X150741500Y-80871395D01*
X150741505Y-80871401D01*
X150908599Y-81038495D01*
X151094158Y-81168425D01*
X151094594Y-81168730D01*
X151138218Y-81223307D01*
X151145411Y-81292806D01*
X151113889Y-81355160D01*
X151094593Y-81371880D01*
X151018626Y-81425072D01*
X151018625Y-81425072D01*
X151650590Y-82057037D01*
X151587007Y-82074075D01*
X151472993Y-82139901D01*
X151379901Y-82232993D01*
X151314075Y-82347007D01*
X151297037Y-82410589D01*
X150665073Y-81778625D01*
X150665072Y-81778626D01*
X150611574Y-81855030D01*
X150556998Y-81898655D01*
X150487499Y-81905849D01*
X150425144Y-81874326D01*
X150408424Y-81855030D01*
X150354925Y-81778626D01*
X150354925Y-81778625D01*
X149722962Y-82410589D01*
X149705925Y-82347007D01*
X149640099Y-82232993D01*
X149547007Y-82139901D01*
X149432993Y-82074075D01*
X149369410Y-82057037D01*
X150001373Y-81425073D01*
X150001373Y-81425072D01*
X149925405Y-81371880D01*
X149881780Y-81317304D01*
X149874586Y-81247805D01*
X149906108Y-81185451D01*
X149925399Y-81168734D01*
X150111401Y-81038495D01*
X150278495Y-80871401D01*
X150408425Y-80685842D01*
X150463002Y-80642217D01*
X150532500Y-80635023D01*
X150594855Y-80666546D01*
G37*
G04 #@! TD.AperFunction*
G04 #@! TA.AperFunction,Conductor*
G36*
X158214855Y-80666546D02*
G01*
X158231575Y-80685842D01*
X158361500Y-80871395D01*
X158361505Y-80871401D01*
X158528599Y-81038495D01*
X158714158Y-81168425D01*
X158714594Y-81168730D01*
X158758218Y-81223307D01*
X158765411Y-81292806D01*
X158733889Y-81355160D01*
X158714593Y-81371880D01*
X158638626Y-81425072D01*
X158638625Y-81425072D01*
X159270590Y-82057037D01*
X159207007Y-82074075D01*
X159092993Y-82139901D01*
X158999901Y-82232993D01*
X158934075Y-82347007D01*
X158917037Y-82410589D01*
X158285073Y-81778625D01*
X158285072Y-81778626D01*
X158231574Y-81855030D01*
X158176998Y-81898655D01*
X158107499Y-81905849D01*
X158045144Y-81874326D01*
X158028424Y-81855030D01*
X157974925Y-81778626D01*
X157974925Y-81778625D01*
X157342962Y-82410589D01*
X157325925Y-82347007D01*
X157260099Y-82232993D01*
X157167007Y-82139901D01*
X157052993Y-82074075D01*
X156989410Y-82057037D01*
X157621373Y-81425073D01*
X157621373Y-81425072D01*
X157545405Y-81371880D01*
X157501780Y-81317304D01*
X157494586Y-81247805D01*
X157526108Y-81185451D01*
X157545399Y-81168734D01*
X157731401Y-81038495D01*
X157898495Y-80871401D01*
X158028425Y-80685842D01*
X158083002Y-80642217D01*
X158152500Y-80635023D01*
X158214855Y-80666546D01*
G37*
G04 #@! TD.AperFunction*
G04 #@! TA.AperFunction,Conductor*
G36*
X169242539Y-69720185D02*
G01*
X169288294Y-69772989D01*
X169299500Y-69824500D01*
X169299500Y-88485377D01*
X169279815Y-88552416D01*
X169227011Y-88598171D01*
X169157853Y-88608115D01*
X169094297Y-88579090D01*
X169063302Y-88538174D01*
X168995100Y-88393238D01*
X168995096Y-88393232D01*
X168826542Y-88127632D01*
X168826539Y-88127628D01*
X168735712Y-88017838D01*
X168094250Y-88659300D01*
X168020412Y-88557670D01*
X167842330Y-88379588D01*
X167740698Y-88305748D01*
X168385027Y-87661419D01*
X168385026Y-87661417D01*
X168142227Y-87485014D01*
X168142209Y-87485003D01*
X167866552Y-87333459D01*
X167866544Y-87333455D01*
X167574073Y-87217659D01*
X167269379Y-87139426D01*
X167269370Y-87139424D01*
X166957298Y-87100000D01*
X166642701Y-87100000D01*
X166330629Y-87139424D01*
X166330620Y-87139426D01*
X166025926Y-87217659D01*
X165733455Y-87333455D01*
X165733447Y-87333459D01*
X165457787Y-87485004D01*
X165457782Y-87485007D01*
X165214972Y-87661418D01*
X165214971Y-87661419D01*
X165859301Y-88305748D01*
X165757670Y-88379588D01*
X165579588Y-88557670D01*
X165505748Y-88659300D01*
X164864286Y-88017838D01*
X164864285Y-88017838D01*
X164773459Y-88127629D01*
X164773457Y-88127632D01*
X164604903Y-88393232D01*
X164604900Y-88393238D01*
X164470965Y-88677862D01*
X164470963Y-88677867D01*
X164373755Y-88977041D01*
X164314808Y-89286050D01*
X164314807Y-89286057D01*
X164295057Y-89599994D01*
X164295057Y-89600005D01*
X164314807Y-89913942D01*
X164314808Y-89913949D01*
X164373755Y-90222958D01*
X164470963Y-90522132D01*
X164470965Y-90522137D01*
X164604900Y-90806761D01*
X164604903Y-90806767D01*
X164773457Y-91072367D01*
X164773460Y-91072371D01*
X164864286Y-91182160D01*
X165505748Y-90540698D01*
X165579588Y-90642330D01*
X165757670Y-90820412D01*
X165859300Y-90894250D01*
X165214971Y-91538579D01*
X165214972Y-91538581D01*
X165457772Y-91714985D01*
X165457790Y-91714996D01*
X165733447Y-91866540D01*
X165733455Y-91866544D01*
X166025926Y-91982340D01*
X166330620Y-92060573D01*
X166330629Y-92060575D01*
X166642701Y-92099999D01*
X166642715Y-92100000D01*
X166957285Y-92100000D01*
X166957298Y-92099999D01*
X167269370Y-92060575D01*
X167269379Y-92060573D01*
X167574073Y-91982340D01*
X167866544Y-91866544D01*
X167866552Y-91866540D01*
X168142209Y-91714996D01*
X168142219Y-91714990D01*
X168385026Y-91538579D01*
X168385027Y-91538579D01*
X167740698Y-90894251D01*
X167842330Y-90820412D01*
X168020412Y-90642330D01*
X168094251Y-90540698D01*
X168735712Y-91182160D01*
X168826544Y-91072364D01*
X168995096Y-90806767D01*
X168995099Y-90806761D01*
X169063302Y-90661825D01*
X169109657Y-90609547D01*
X169176917Y-90590630D01*
X169243727Y-90611079D01*
X169288876Y-90664403D01*
X169299500Y-90714622D01*
X169299500Y-100575500D01*
X169279815Y-100642539D01*
X169227011Y-100688294D01*
X169175500Y-100699500D01*
X131224500Y-100699500D01*
X131157461Y-100679815D01*
X131111706Y-100627011D01*
X131100500Y-100575500D01*
X131100500Y-90911490D01*
X131120185Y-90844451D01*
X131172989Y-90798696D01*
X131242147Y-90788752D01*
X131305703Y-90817777D01*
X131329197Y-90845048D01*
X131473457Y-91072367D01*
X131473460Y-91072371D01*
X131564286Y-91182160D01*
X132205748Y-90540698D01*
X132279588Y-90642330D01*
X132457670Y-90820412D01*
X132559300Y-90894250D01*
X131914971Y-91538579D01*
X131914972Y-91538581D01*
X132157772Y-91714985D01*
X132157790Y-91714996D01*
X132433447Y-91866540D01*
X132433455Y-91866544D01*
X132725926Y-91982340D01*
X133030620Y-92060573D01*
X133030629Y-92060575D01*
X133342701Y-92099999D01*
X133342715Y-92100000D01*
X133657285Y-92100000D01*
X133657298Y-92099999D01*
X133969370Y-92060575D01*
X133969379Y-92060573D01*
X134274073Y-91982340D01*
X134566544Y-91866544D01*
X134566552Y-91866540D01*
X134842209Y-91714996D01*
X134842219Y-91714990D01*
X135085026Y-91538579D01*
X135085027Y-91538579D01*
X134440698Y-90894251D01*
X134542330Y-90820412D01*
X134720412Y-90642330D01*
X134794251Y-90540698D01*
X135435712Y-91182160D01*
X135526544Y-91072364D01*
X135695096Y-90806767D01*
X135695099Y-90806761D01*
X135829034Y-90522137D01*
X135829036Y-90522132D01*
X135926244Y-90222958D01*
X135985191Y-89913949D01*
X135985192Y-89913942D01*
X136004943Y-89600005D01*
X136004943Y-89599994D01*
X135985192Y-89286057D01*
X135985191Y-89286050D01*
X135926244Y-88977041D01*
X135829036Y-88677867D01*
X135829034Y-88677862D01*
X135695099Y-88393238D01*
X135695096Y-88393232D01*
X135559774Y-88179998D01*
X139149532Y-88179998D01*
X139149532Y-88180001D01*
X139169364Y-88406686D01*
X139169366Y-88406697D01*
X139228258Y-88626488D01*
X139228261Y-88626497D01*
X139324431Y-88832732D01*
X139324432Y-88832734D01*
X139454954Y-89019141D01*
X139615858Y-89180045D01*
X139615861Y-89180047D01*
X139802266Y-89310568D01*
X140008504Y-89406739D01*
X140228308Y-89465635D01*
X140390230Y-89479801D01*
X140454998Y-89485468D01*
X140455000Y-89485468D01*
X140455002Y-89485468D01*
X140511807Y-89480498D01*
X140681692Y-89465635D01*
X140901496Y-89406739D01*
X141107734Y-89310568D01*
X141294139Y-89180047D01*
X141455047Y-89019139D01*
X141585568Y-88832734D01*
X141681739Y-88626496D01*
X141720225Y-88482862D01*
X141756590Y-88423202D01*
X141819437Y-88392673D01*
X141888812Y-88400968D01*
X141942690Y-88445453D01*
X141959774Y-88482862D01*
X141965429Y-88503966D01*
X141998258Y-88626488D01*
X141998261Y-88626497D01*
X142094431Y-88832732D01*
X142094432Y-88832734D01*
X142224954Y-89019141D01*
X142385858Y-89180045D01*
X142385861Y-89180047D01*
X142572266Y-89310568D01*
X142778504Y-89406739D01*
X142998308Y-89465635D01*
X143160230Y-89479801D01*
X143224998Y-89485468D01*
X143225000Y-89485468D01*
X143225001Y-89485468D01*
X143249403Y-89483333D01*
X143368122Y-89472946D01*
X143436620Y-89486712D01*
X143486803Y-89535327D01*
X143502737Y-89603356D01*
X143479362Y-89669200D01*
X143466609Y-89684155D01*
X142992656Y-90158107D01*
X142931333Y-90191592D01*
X142861641Y-90186608D01*
X142817294Y-90158107D01*
X142679141Y-90019954D01*
X142492734Y-89889432D01*
X142492732Y-89889431D01*
X142286497Y-89793261D01*
X142286488Y-89793258D01*
X142066697Y-89734366D01*
X142066693Y-89734365D01*
X142066692Y-89734365D01*
X142066691Y-89734364D01*
X142066686Y-89734364D01*
X141840002Y-89714532D01*
X141839998Y-89714532D01*
X141613313Y-89734364D01*
X141613302Y-89734366D01*
X141393511Y-89793258D01*
X141393502Y-89793261D01*
X141187267Y-89889431D01*
X141187265Y-89889432D01*
X141000858Y-90019954D01*
X140839954Y-90180858D01*
X140709432Y-90367265D01*
X140709431Y-90367267D01*
X140613261Y-90573502D01*
X140613258Y-90573511D01*
X140554366Y-90793302D01*
X140554364Y-90793313D01*
X140534532Y-91019998D01*
X140534532Y-91020001D01*
X140554364Y-91246686D01*
X140554366Y-91246697D01*
X140613258Y-91466488D01*
X140613261Y-91466497D01*
X140709431Y-91672732D01*
X140709432Y-91672734D01*
X140839954Y-91859141D01*
X141000858Y-92020045D01*
X141000861Y-92020047D01*
X141187266Y-92150568D01*
X141393504Y-92246739D01*
X141613308Y-92305635D01*
X141775230Y-92319801D01*
X141839998Y-92325468D01*
X141840000Y-92325468D01*
X141840002Y-92325468D01*
X141896673Y-92320509D01*
X142066692Y-92305635D01*
X142286496Y-92246739D01*
X142492734Y-92150568D01*
X142679139Y-92020047D01*
X142840047Y-91859139D01*
X142970568Y-91672734D01*
X142970573Y-91672724D01*
X143025150Y-91629099D01*
X143055964Y-91620908D01*
X143059053Y-91620501D01*
X143059057Y-91620501D01*
X143211785Y-91579577D01*
X143261904Y-91550639D01*
X143271238Y-91545249D01*
X143339133Y-91528775D01*
X143405161Y-91551624D01*
X143445622Y-91600229D01*
X143479432Y-91672734D01*
X143479433Y-91672735D01*
X143609954Y-91859141D01*
X143770858Y-92020045D01*
X143770861Y-92020047D01*
X143957266Y-92150568D01*
X144163504Y-92246739D01*
X144383308Y-92305635D01*
X144545230Y-92319801D01*
X144609998Y-92325468D01*
X144610000Y-92325468D01*
X144610002Y-92325468D01*
X144666673Y-92320509D01*
X144836692Y-92305635D01*
X145056496Y-92246739D01*
X145262734Y-92150568D01*
X145449139Y-92020047D01*
X145610047Y-91859139D01*
X145740568Y-91672734D01*
X145836739Y-91466496D01*
X145875225Y-91322862D01*
X145911590Y-91263202D01*
X145974437Y-91232673D01*
X146043812Y-91240968D01*
X146097690Y-91285453D01*
X146114775Y-91322863D01*
X146153258Y-91466488D01*
X146153261Y-91466497D01*
X146249431Y-91672732D01*
X146249432Y-91672734D01*
X146379954Y-91859141D01*
X146540858Y-92020045D01*
X146540861Y-92020047D01*
X146727266Y-92150568D01*
X146933504Y-92246739D01*
X147153308Y-92305635D01*
X147315230Y-92319801D01*
X147379998Y-92325468D01*
X147380000Y-92325468D01*
X147380002Y-92325468D01*
X147436673Y-92320509D01*
X147606692Y-92305635D01*
X147826496Y-92246739D01*
X148032734Y-92150568D01*
X148219139Y-92020047D01*
X148380047Y-91859139D01*
X148510568Y-91672734D01*
X148606739Y-91466496D01*
X148645225Y-91322862D01*
X148681590Y-91263202D01*
X148744437Y-91232673D01*
X148813812Y-91240968D01*
X148867690Y-91285453D01*
X148884775Y-91322863D01*
X148923258Y-91466488D01*
X148923261Y-91466497D01*
X149019431Y-91672732D01*
X149019432Y-91672734D01*
X149149954Y-91859141D01*
X149310858Y-92020045D01*
X149310861Y-92020047D01*
X149497266Y-92150568D01*
X149703504Y-92246739D01*
X149923308Y-92305635D01*
X150085230Y-92319801D01*
X150149998Y-92325468D01*
X150150000Y-92325468D01*
X150150002Y-92325468D01*
X150206673Y-92320509D01*
X150376692Y-92305635D01*
X150596496Y-92246739D01*
X150802734Y-92150568D01*
X150989139Y-92020047D01*
X151150047Y-91859139D01*
X151280568Y-91672734D01*
X151376739Y-91466496D01*
X151415225Y-91322862D01*
X151451590Y-91263202D01*
X151514437Y-91232673D01*
X151583812Y-91240968D01*
X151637690Y-91285453D01*
X151654775Y-91322863D01*
X151693258Y-91466488D01*
X151693261Y-91466497D01*
X151789431Y-91672732D01*
X151789432Y-91672734D01*
X151919954Y-91859141D01*
X152080858Y-92020045D01*
X152080861Y-92020047D01*
X152267266Y-92150568D01*
X152473504Y-92246739D01*
X152693308Y-92305635D01*
X152855230Y-92319801D01*
X152919998Y-92325468D01*
X152920000Y-92325468D01*
X152920002Y-92325468D01*
X152976673Y-92320509D01*
X153146692Y-92305635D01*
X153366496Y-92246739D01*
X153572734Y-92150568D01*
X153759139Y-92020047D01*
X153920047Y-91859139D01*
X154050568Y-91672734D01*
X154146739Y-91466496D01*
X154185484Y-91321895D01*
X154221847Y-91262238D01*
X154284694Y-91231708D01*
X154354070Y-91240002D01*
X154407948Y-91284487D01*
X154425033Y-91321897D01*
X154463731Y-91466319D01*
X154463735Y-91466331D01*
X154559863Y-91672478D01*
X154610974Y-91745472D01*
X155207037Y-91149409D01*
X155224075Y-91212993D01*
X155289901Y-91327007D01*
X155382993Y-91420099D01*
X155497007Y-91485925D01*
X155560590Y-91502962D01*
X154964526Y-92099025D01*
X155037513Y-92150132D01*
X155037521Y-92150136D01*
X155243668Y-92246264D01*
X155243682Y-92246269D01*
X155463389Y-92305139D01*
X155463400Y-92305141D01*
X155689998Y-92324966D01*
X155690002Y-92324966D01*
X155916599Y-92305141D01*
X155916610Y-92305139D01*
X156136317Y-92246269D01*
X156136331Y-92246264D01*
X156342478Y-92150136D01*
X156415471Y-92099024D01*
X155819409Y-91502962D01*
X155882993Y-91485925D01*
X155997007Y-91420099D01*
X156090099Y-91327007D01*
X156155925Y-91212993D01*
X156172962Y-91149409D01*
X156769024Y-91745471D01*
X156820136Y-91672478D01*
X156916264Y-91466331D01*
X156916269Y-91466317D01*
X156955225Y-91320932D01*
X156991590Y-91261271D01*
X157054437Y-91230742D01*
X157123812Y-91239037D01*
X157177690Y-91283522D01*
X157194775Y-91320932D01*
X157233730Y-91466317D01*
X157233735Y-91466331D01*
X157329863Y-91672478D01*
X157380974Y-91745472D01*
X157977037Y-91149408D01*
X157994075Y-91212993D01*
X158059901Y-91327007D01*
X158152993Y-91420099D01*
X158267007Y-91485925D01*
X158330590Y-91502962D01*
X157734526Y-92099025D01*
X157807513Y-92150132D01*
X157807521Y-92150136D01*
X158013668Y-92246264D01*
X158013682Y-92246269D01*
X158233389Y-92305139D01*
X158233400Y-92305141D01*
X158459998Y-92324966D01*
X158460002Y-92324966D01*
X158686599Y-92305141D01*
X158686610Y-92305139D01*
X158906317Y-92246269D01*
X158906331Y-92246264D01*
X159112478Y-92150136D01*
X159185471Y-92099024D01*
X158589409Y-91502962D01*
X158652993Y-91485925D01*
X158767007Y-91420099D01*
X158860099Y-91327007D01*
X158925925Y-91212993D01*
X158942962Y-91149409D01*
X159539024Y-91745471D01*
X159590136Y-91672478D01*
X159686264Y-91466331D01*
X159686269Y-91466317D01*
X159745139Y-91246610D01*
X159745141Y-91246599D01*
X159764966Y-91020002D01*
X159764966Y-91019997D01*
X159745141Y-90793400D01*
X159745139Y-90793389D01*
X159686269Y-90573682D01*
X159686264Y-90573668D01*
X159590136Y-90367521D01*
X159590132Y-90367513D01*
X159539025Y-90294526D01*
X158942962Y-90890589D01*
X158925925Y-90827007D01*
X158860099Y-90712993D01*
X158767007Y-90619901D01*
X158652993Y-90554075D01*
X158589408Y-90537037D01*
X159185472Y-89940974D01*
X159158181Y-89921865D01*
X159114556Y-89867288D01*
X159107364Y-89797789D01*
X159138886Y-89735435D01*
X159141592Y-89732641D01*
X159357416Y-89516818D01*
X159418739Y-89483333D01*
X159445097Y-89480499D01*
X160692871Y-89480499D01*
X160692872Y-89480499D01*
X160752483Y-89474091D01*
X160887331Y-89423796D01*
X161002546Y-89337546D01*
X161088796Y-89222331D01*
X161139091Y-89087483D01*
X161145500Y-89027873D01*
X161145499Y-87332128D01*
X161139091Y-87272517D01*
X161118630Y-87217659D01*
X161088797Y-87137671D01*
X161088793Y-87137664D01*
X161002547Y-87022455D01*
X161002544Y-87022452D01*
X160887335Y-86936206D01*
X160887328Y-86936202D01*
X160752482Y-86885908D01*
X160752483Y-86885908D01*
X160692883Y-86879501D01*
X160692881Y-86879500D01*
X160692873Y-86879500D01*
X160692864Y-86879500D01*
X158997129Y-86879500D01*
X158997123Y-86879501D01*
X158937516Y-86885908D01*
X158802671Y-86936202D01*
X158802664Y-86936206D01*
X158687455Y-87022452D01*
X158687452Y-87022455D01*
X158601206Y-87137664D01*
X158601202Y-87137671D01*
X158550908Y-87272517D01*
X158544501Y-87332116D01*
X158544501Y-87332123D01*
X158544500Y-87332135D01*
X158544500Y-87697625D01*
X158524815Y-87764664D01*
X158472011Y-87810419D01*
X158402853Y-87820363D01*
X158339297Y-87791338D01*
X158305060Y-87738063D01*
X158303593Y-87738598D01*
X158301738Y-87733502D01*
X158268125Y-87661419D01*
X158205568Y-87527266D01*
X158075047Y-87340861D01*
X158075045Y-87340858D01*
X157914141Y-87179954D01*
X157727734Y-87049432D01*
X157727732Y-87049431D01*
X157521497Y-86953261D01*
X157521488Y-86953258D01*
X157301697Y-86894366D01*
X157301693Y-86894365D01*
X157301692Y-86894365D01*
X157301691Y-86894364D01*
X157301686Y-86894364D01*
X157075002Y-86874532D01*
X157074998Y-86874532D01*
X156848313Y-86894364D01*
X156848302Y-86894366D01*
X156628511Y-86953258D01*
X156628502Y-86953261D01*
X156422267Y-87049431D01*
X156422265Y-87049432D01*
X156235858Y-87179954D01*
X156074954Y-87340858D01*
X155944432Y-87527265D01*
X155944431Y-87527267D01*
X155848261Y-87733502D01*
X155848258Y-87733511D01*
X155809775Y-87877136D01*
X155773410Y-87936797D01*
X155710563Y-87967326D01*
X155641188Y-87959031D01*
X155587310Y-87914546D01*
X155570225Y-87877136D01*
X155531741Y-87733511D01*
X155531738Y-87733502D01*
X155498125Y-87661419D01*
X155435568Y-87527266D01*
X155305047Y-87340861D01*
X155305045Y-87340858D01*
X155144141Y-87179954D01*
X154957734Y-87049432D01*
X154957732Y-87049431D01*
X154751497Y-86953261D01*
X154751488Y-86953258D01*
X154531697Y-86894366D01*
X154531693Y-86894365D01*
X154531692Y-86894365D01*
X154531691Y-86894364D01*
X154531686Y-86894364D01*
X154305002Y-86874532D01*
X154304998Y-86874532D01*
X154078313Y-86894364D01*
X154078302Y-86894366D01*
X153858511Y-86953258D01*
X153858502Y-86953261D01*
X153652267Y-87049431D01*
X153652265Y-87049432D01*
X153465858Y-87179954D01*
X153304954Y-87340858D01*
X153174432Y-87527265D01*
X153174431Y-87527267D01*
X153078261Y-87733502D01*
X153078258Y-87733511D01*
X153039775Y-87877136D01*
X153003410Y-87936797D01*
X152940563Y-87967326D01*
X152871188Y-87959031D01*
X152817310Y-87914546D01*
X152800225Y-87877136D01*
X152761741Y-87733511D01*
X152761738Y-87733502D01*
X152728125Y-87661419D01*
X152665568Y-87527266D01*
X152535047Y-87340861D01*
X152535045Y-87340858D01*
X152374141Y-87179954D01*
X152187734Y-87049432D01*
X152187732Y-87049431D01*
X151981497Y-86953261D01*
X151981488Y-86953258D01*
X151761697Y-86894366D01*
X151761693Y-86894365D01*
X151761692Y-86894365D01*
X151761691Y-86894364D01*
X151761686Y-86894364D01*
X151535002Y-86874532D01*
X151534998Y-86874532D01*
X151308313Y-86894364D01*
X151308302Y-86894366D01*
X151088511Y-86953258D01*
X151088502Y-86953261D01*
X150882267Y-87049431D01*
X150882265Y-87049432D01*
X150695858Y-87179954D01*
X150534954Y-87340858D01*
X150404432Y-87527265D01*
X150404431Y-87527267D01*
X150308261Y-87733502D01*
X150308258Y-87733511D01*
X150269775Y-87877136D01*
X150233410Y-87936797D01*
X150170563Y-87967326D01*
X150101188Y-87959031D01*
X150047310Y-87914546D01*
X150030225Y-87877136D01*
X149991741Y-87733511D01*
X149991738Y-87733502D01*
X149958125Y-87661419D01*
X149895568Y-87527266D01*
X149765047Y-87340861D01*
X149765045Y-87340858D01*
X149604141Y-87179954D01*
X149417734Y-87049432D01*
X149417732Y-87049431D01*
X149211497Y-86953261D01*
X149211488Y-86953258D01*
X148991697Y-86894366D01*
X148991693Y-86894365D01*
X148991692Y-86894365D01*
X148991691Y-86894364D01*
X148991686Y-86894364D01*
X148765002Y-86874532D01*
X148764998Y-86874532D01*
X148538313Y-86894364D01*
X148538302Y-86894366D01*
X148318511Y-86953258D01*
X148318502Y-86953261D01*
X148112267Y-87049431D01*
X148112265Y-87049432D01*
X147925858Y-87179954D01*
X147764954Y-87340858D01*
X147634432Y-87527265D01*
X147634431Y-87527267D01*
X147538261Y-87733502D01*
X147538258Y-87733511D01*
X147499775Y-87877136D01*
X147463410Y-87936797D01*
X147400563Y-87967326D01*
X147331188Y-87959031D01*
X147277310Y-87914546D01*
X147260225Y-87877136D01*
X147221741Y-87733511D01*
X147221738Y-87733502D01*
X147188125Y-87661419D01*
X147125568Y-87527266D01*
X146995047Y-87340861D01*
X146995045Y-87340858D01*
X146834141Y-87179954D01*
X146647734Y-87049432D01*
X146647732Y-87049431D01*
X146441497Y-86953261D01*
X146441488Y-86953258D01*
X146221697Y-86894366D01*
X146221693Y-86894365D01*
X146221692Y-86894365D01*
X146221691Y-86894364D01*
X146221686Y-86894364D01*
X145995002Y-86874532D01*
X145994998Y-86874532D01*
X145768313Y-86894364D01*
X145768302Y-86894366D01*
X145548511Y-86953258D01*
X145548502Y-86953261D01*
X145342267Y-87049431D01*
X145342265Y-87049432D01*
X145195623Y-87152111D01*
X145129416Y-87174439D01*
X145061649Y-87157427D01*
X145013837Y-87106479D01*
X145000500Y-87050536D01*
X145000500Y-85782412D01*
X145020185Y-85715373D01*
X145027555Y-85705097D01*
X145029810Y-85702267D01*
X145029816Y-85702262D01*
X145125789Y-85549522D01*
X145185368Y-85379255D01*
X145205565Y-85200000D01*
X145185368Y-85020745D01*
X145125789Y-84850478D01*
X145029816Y-84697738D01*
X144902262Y-84570184D01*
X144749523Y-84474211D01*
X144579254Y-84414631D01*
X144579249Y-84414630D01*
X144400004Y-84394435D01*
X144399996Y-84394435D01*
X144220750Y-84414630D01*
X144220745Y-84414631D01*
X144050476Y-84474211D01*
X143897737Y-84570184D01*
X143770184Y-84697737D01*
X143674211Y-84850476D01*
X143614631Y-85020745D01*
X143614630Y-85020750D01*
X143594435Y-85199996D01*
X143594435Y-85200003D01*
X143614630Y-85379249D01*
X143614631Y-85379254D01*
X143674211Y-85549523D01*
X143770185Y-85702263D01*
X143772445Y-85705097D01*
X143773334Y-85707275D01*
X143773889Y-85708158D01*
X143773734Y-85708255D01*
X143798855Y-85769783D01*
X143799500Y-85782412D01*
X143799500Y-86825959D01*
X143779815Y-86892998D01*
X143727011Y-86938753D01*
X143657853Y-86948697D01*
X143643407Y-86945734D01*
X143451697Y-86894366D01*
X143451693Y-86894365D01*
X143451692Y-86894365D01*
X143451691Y-86894364D01*
X143451686Y-86894364D01*
X143225002Y-86874532D01*
X143224998Y-86874532D01*
X142998313Y-86894364D01*
X142998302Y-86894366D01*
X142778511Y-86953258D01*
X142778502Y-86953261D01*
X142572267Y-87049431D01*
X142572265Y-87049432D01*
X142385858Y-87179954D01*
X142224954Y-87340858D01*
X142094432Y-87527265D01*
X142094431Y-87527267D01*
X141998261Y-87733502D01*
X141998258Y-87733511D01*
X141959775Y-87877136D01*
X141923410Y-87936797D01*
X141860563Y-87967326D01*
X141791188Y-87959031D01*
X141737310Y-87914546D01*
X141720225Y-87877136D01*
X141681741Y-87733511D01*
X141681738Y-87733502D01*
X141648125Y-87661419D01*
X141585568Y-87527266D01*
X141455047Y-87340861D01*
X141455045Y-87340858D01*
X141294141Y-87179954D01*
X141107734Y-87049432D01*
X141107732Y-87049431D01*
X140901497Y-86953261D01*
X140901488Y-86953258D01*
X140681697Y-86894366D01*
X140681693Y-86894365D01*
X140681692Y-86894365D01*
X140681691Y-86894364D01*
X140681686Y-86894364D01*
X140455002Y-86874532D01*
X140454998Y-86874532D01*
X140228313Y-86894364D01*
X140228302Y-86894366D01*
X140008511Y-86953258D01*
X140008502Y-86953261D01*
X139802267Y-87049431D01*
X139802265Y-87049432D01*
X139615858Y-87179954D01*
X139454954Y-87340858D01*
X139324432Y-87527265D01*
X139324431Y-87527267D01*
X139228261Y-87733502D01*
X139228258Y-87733511D01*
X139169366Y-87953302D01*
X139169364Y-87953313D01*
X139149532Y-88179998D01*
X135559774Y-88179998D01*
X135526542Y-88127632D01*
X135526539Y-88127628D01*
X135435712Y-88017838D01*
X134794250Y-88659300D01*
X134720412Y-88557670D01*
X134542330Y-88379588D01*
X134440698Y-88305748D01*
X135085027Y-87661419D01*
X135085026Y-87661417D01*
X134842227Y-87485014D01*
X134842209Y-87485003D01*
X134566552Y-87333459D01*
X134566544Y-87333455D01*
X134274073Y-87217659D01*
X133969379Y-87139426D01*
X133969370Y-87139424D01*
X133657298Y-87100000D01*
X133342701Y-87100000D01*
X133030629Y-87139424D01*
X133030620Y-87139426D01*
X132725926Y-87217659D01*
X132433455Y-87333455D01*
X132433447Y-87333459D01*
X132157787Y-87485004D01*
X132157782Y-87485007D01*
X131914972Y-87661418D01*
X131914971Y-87661419D01*
X132559301Y-88305748D01*
X132457670Y-88379588D01*
X132279588Y-88557670D01*
X132205748Y-88659300D01*
X131564286Y-88017838D01*
X131564285Y-88017838D01*
X131473459Y-88127629D01*
X131473457Y-88127632D01*
X131329197Y-88354951D01*
X131276655Y-88401007D01*
X131207554Y-88411346D01*
X131143834Y-88382684D01*
X131105724Y-88324123D01*
X131100500Y-88288509D01*
X131100500Y-82078711D01*
X131749500Y-82078711D01*
X131749500Y-82321288D01*
X131781161Y-82561785D01*
X131843947Y-82796104D01*
X131929850Y-83003492D01*
X131936776Y-83020212D01*
X132058064Y-83230289D01*
X132058066Y-83230292D01*
X132058067Y-83230293D01*
X132205733Y-83422736D01*
X132205739Y-83422743D01*
X132377256Y-83594260D01*
X132377262Y-83594265D01*
X132569711Y-83741936D01*
X132779788Y-83863224D01*
X133003900Y-83956054D01*
X133238211Y-84018838D01*
X133418586Y-84042584D01*
X133478711Y-84050500D01*
X133478712Y-84050500D01*
X133721289Y-84050500D01*
X133769388Y-84044167D01*
X133961789Y-84018838D01*
X134196100Y-83956054D01*
X134420212Y-83863224D01*
X134630289Y-83741936D01*
X134822738Y-83594265D01*
X134994265Y-83422738D01*
X135141936Y-83230289D01*
X135263224Y-83020212D01*
X135356054Y-82796100D01*
X135418838Y-82561789D01*
X135450500Y-82321288D01*
X135450500Y-82078712D01*
X135418838Y-81838211D01*
X135356054Y-81603900D01*
X135263224Y-81379788D01*
X135141936Y-81169711D01*
X134994265Y-80977262D01*
X134994260Y-80977256D01*
X134822743Y-80805739D01*
X134822736Y-80805733D01*
X134630293Y-80658067D01*
X134630292Y-80658066D01*
X134630289Y-80658064D01*
X134420212Y-80536776D01*
X134420205Y-80536773D01*
X134196104Y-80443947D01*
X133961785Y-80381161D01*
X133721289Y-80349500D01*
X133721288Y-80349500D01*
X133478712Y-80349500D01*
X133478711Y-80349500D01*
X133238214Y-80381161D01*
X133003895Y-80443947D01*
X132779794Y-80536773D01*
X132779785Y-80536777D01*
X132569706Y-80658067D01*
X132377263Y-80805733D01*
X132377256Y-80805739D01*
X132205739Y-80977256D01*
X132205733Y-80977263D01*
X132058067Y-81169706D01*
X131936777Y-81379785D01*
X131936773Y-81379794D01*
X131843947Y-81603895D01*
X131781161Y-81838214D01*
X131749500Y-82078711D01*
X131100500Y-82078711D01*
X131100500Y-79999999D01*
X137724341Y-79999999D01*
X137724341Y-80000000D01*
X137744936Y-80235403D01*
X137744938Y-80235413D01*
X137806094Y-80463655D01*
X137806096Y-80463659D01*
X137806097Y-80463663D01*
X137840191Y-80536777D01*
X137905965Y-80677830D01*
X137905967Y-80677834D01*
X137995524Y-80805733D01*
X138041505Y-80871401D01*
X138208599Y-81038495D01*
X138208604Y-81038499D01*
X138209968Y-81039643D01*
X138210407Y-81040303D01*
X138212427Y-81042323D01*
X138212021Y-81042728D01*
X138248669Y-81097815D01*
X138249776Y-81167676D01*
X138212937Y-81227046D01*
X138169267Y-81252336D01*
X138160669Y-81255184D01*
X138160663Y-81255187D01*
X138011342Y-81347289D01*
X137887289Y-81471342D01*
X137795187Y-81620663D01*
X137795185Y-81620668D01*
X137778701Y-81670414D01*
X137740001Y-81787203D01*
X137740001Y-81787204D01*
X137740000Y-81787204D01*
X137729500Y-81889983D01*
X137729500Y-83190001D01*
X137729501Y-83190018D01*
X137740000Y-83292796D01*
X137740001Y-83292799D01*
X137783059Y-83422738D01*
X137795186Y-83459334D01*
X137887288Y-83608656D01*
X138011344Y-83732712D01*
X138160666Y-83824814D01*
X138327203Y-83879999D01*
X138429991Y-83890500D01*
X139730008Y-83890499D01*
X139832797Y-83879999D01*
X139999334Y-83824814D01*
X140148656Y-83732712D01*
X140272712Y-83608656D01*
X140364814Y-83459334D01*
X140367662Y-83450738D01*
X140407429Y-83393294D01*
X140471944Y-83366468D01*
X140540720Y-83378779D01*
X140577483Y-83407766D01*
X140577677Y-83407573D01*
X140579313Y-83409209D01*
X140580354Y-83410030D01*
X140581501Y-83411397D01*
X140581505Y-83411401D01*
X140748599Y-83578495D01*
X140791675Y-83608657D01*
X140942165Y-83714032D01*
X140942167Y-83714033D01*
X140942170Y-83714035D01*
X141156337Y-83813903D01*
X141384592Y-83875063D01*
X141561034Y-83890500D01*
X141619999Y-83895659D01*
X141620000Y-83895659D01*
X141620001Y-83895659D01*
X141678966Y-83890500D01*
X141855408Y-83875063D01*
X142083663Y-83813903D01*
X142297830Y-83714035D01*
X142491401Y-83578495D01*
X142658495Y-83411401D01*
X142788732Y-83225403D01*
X142843307Y-83181780D01*
X142912805Y-83174586D01*
X142975160Y-83206109D01*
X142991880Y-83225405D01*
X143045073Y-83301373D01*
X143677037Y-82669409D01*
X143694075Y-82732993D01*
X143759901Y-82847007D01*
X143852993Y-82940099D01*
X143967007Y-83005925D01*
X144030590Y-83022962D01*
X143398625Y-83654925D01*
X143482421Y-83713599D01*
X143696507Y-83813429D01*
X143696516Y-83813433D01*
X143924673Y-83874567D01*
X143924684Y-83874569D01*
X144159998Y-83895157D01*
X144160002Y-83895157D01*
X144395315Y-83874569D01*
X144395326Y-83874567D01*
X144623483Y-83813433D01*
X144623492Y-83813429D01*
X144837578Y-83713600D01*
X144837582Y-83713598D01*
X144921373Y-83654926D01*
X144921373Y-83654925D01*
X144289409Y-83022962D01*
X144352993Y-83005925D01*
X144467007Y-82940099D01*
X144560099Y-82847007D01*
X144625925Y-82732993D01*
X144642962Y-82669410D01*
X145274925Y-83301373D01*
X145328425Y-83224968D01*
X145383002Y-83181344D01*
X145452501Y-83174151D01*
X145514855Y-83205673D01*
X145531576Y-83224969D01*
X145585073Y-83301372D01*
X146217037Y-82669409D01*
X146234075Y-82732993D01*
X146299901Y-82847007D01*
X146392993Y-82940099D01*
X146507007Y-83005925D01*
X146570590Y-83022962D01*
X145938625Y-83654925D01*
X146022421Y-83713599D01*
X146236507Y-83813429D01*
X146236516Y-83813433D01*
X146464673Y-83874567D01*
X146464684Y-83874569D01*
X146699998Y-83895157D01*
X146700002Y-83895157D01*
X146935315Y-83874569D01*
X146935326Y-83874567D01*
X147163483Y-83813433D01*
X147163492Y-83813429D01*
X147377578Y-83713600D01*
X147377582Y-83713598D01*
X147461373Y-83654926D01*
X147461373Y-83654925D01*
X146829409Y-83022962D01*
X146892993Y-83005925D01*
X147007007Y-82940099D01*
X147100099Y-82847007D01*
X147165925Y-82732993D01*
X147182962Y-82669410D01*
X147814925Y-83301373D01*
X147868425Y-83224968D01*
X147923002Y-83181344D01*
X147992501Y-83174151D01*
X148054855Y-83205673D01*
X148071576Y-83224969D01*
X148125073Y-83301372D01*
X148757037Y-82669409D01*
X148774075Y-82732993D01*
X148839901Y-82847007D01*
X148932993Y-82940099D01*
X149047007Y-83005925D01*
X149110590Y-83022962D01*
X148478625Y-83654925D01*
X148562421Y-83713599D01*
X148776507Y-83813429D01*
X148776516Y-83813433D01*
X149004673Y-83874567D01*
X149004684Y-83874569D01*
X149239998Y-83895157D01*
X149240002Y-83895157D01*
X149475315Y-83874569D01*
X149475326Y-83874567D01*
X149703483Y-83813433D01*
X149703492Y-83813429D01*
X149917578Y-83713600D01*
X149917582Y-83713598D01*
X150001373Y-83654926D01*
X150001373Y-83654925D01*
X149369409Y-83022962D01*
X149432993Y-83005925D01*
X149547007Y-82940099D01*
X149640099Y-82847007D01*
X149705925Y-82732993D01*
X149722962Y-82669410D01*
X150354925Y-83301373D01*
X150408425Y-83224968D01*
X150463002Y-83181344D01*
X150532501Y-83174151D01*
X150594855Y-83205673D01*
X150611576Y-83224969D01*
X150665073Y-83301372D01*
X151297037Y-82669409D01*
X151314075Y-82732993D01*
X151379901Y-82847007D01*
X151472993Y-82940099D01*
X151587007Y-83005925D01*
X151650590Y-83022962D01*
X151018625Y-83654925D01*
X151102421Y-83713599D01*
X151316507Y-83813429D01*
X151316516Y-83813433D01*
X151544673Y-83874567D01*
X151544684Y-83874569D01*
X151779998Y-83895157D01*
X151780002Y-83895157D01*
X152015315Y-83874569D01*
X152015326Y-83874567D01*
X152243483Y-83813433D01*
X152243492Y-83813429D01*
X152457578Y-83713600D01*
X152457582Y-83713598D01*
X152541373Y-83654926D01*
X152541373Y-83654925D01*
X151909409Y-83022962D01*
X151972993Y-83005925D01*
X152087007Y-82940099D01*
X152180099Y-82847007D01*
X152245925Y-82732993D01*
X152262962Y-82669410D01*
X152894925Y-83301373D01*
X152948425Y-83224968D01*
X153003002Y-83181344D01*
X153072501Y-83174151D01*
X153134855Y-83205673D01*
X153151576Y-83224969D01*
X153205073Y-83301372D01*
X153837037Y-82669409D01*
X153854075Y-82732993D01*
X153919901Y-82847007D01*
X154012993Y-82940099D01*
X154127007Y-83005925D01*
X154190590Y-83022962D01*
X153558625Y-83654925D01*
X153642421Y-83713599D01*
X153856507Y-83813429D01*
X153856516Y-83813433D01*
X154084673Y-83874567D01*
X154084684Y-83874569D01*
X154319998Y-83895157D01*
X154320002Y-83895157D01*
X154555315Y-83874569D01*
X154555326Y-83874567D01*
X154783483Y-83813433D01*
X154783492Y-83813429D01*
X154997578Y-83713600D01*
X154997582Y-83713598D01*
X155081373Y-83654926D01*
X155081373Y-83654925D01*
X154449409Y-83022962D01*
X154512993Y-83005925D01*
X154627007Y-82940099D01*
X154720099Y-82847007D01*
X154785925Y-82732993D01*
X154802962Y-82669410D01*
X155434925Y-83301373D01*
X155488425Y-83224968D01*
X155543002Y-83181344D01*
X155612501Y-83174151D01*
X155674855Y-83205673D01*
X155691576Y-83224969D01*
X155745073Y-83301372D01*
X156377037Y-82669409D01*
X156394075Y-82732993D01*
X156459901Y-82847007D01*
X156552993Y-82940099D01*
X156667007Y-83005925D01*
X156730590Y-83022962D01*
X156098625Y-83654925D01*
X156182421Y-83713599D01*
X156396507Y-83813429D01*
X156396516Y-83813433D01*
X156624673Y-83874567D01*
X156624684Y-83874569D01*
X156859998Y-83895157D01*
X156860002Y-83895157D01*
X157095315Y-83874569D01*
X157095326Y-83874567D01*
X157323483Y-83813433D01*
X157323492Y-83813429D01*
X157537578Y-83713600D01*
X157537582Y-83713598D01*
X157621373Y-83654926D01*
X157621373Y-83654925D01*
X156989409Y-83022962D01*
X157052993Y-83005925D01*
X157167007Y-82940099D01*
X157260099Y-82847007D01*
X157325925Y-82732993D01*
X157342962Y-82669410D01*
X157974925Y-83301373D01*
X158028425Y-83224968D01*
X158083002Y-83181344D01*
X158152501Y-83174151D01*
X158214855Y-83205673D01*
X158231576Y-83224969D01*
X158285073Y-83301372D01*
X158917037Y-82669409D01*
X158934075Y-82732993D01*
X158999901Y-82847007D01*
X159092993Y-82940099D01*
X159207007Y-83005925D01*
X159270590Y-83022962D01*
X158638625Y-83654925D01*
X158722421Y-83713599D01*
X158936507Y-83813429D01*
X158936516Y-83813433D01*
X159164673Y-83874567D01*
X159164684Y-83874569D01*
X159399998Y-83895157D01*
X159400002Y-83895157D01*
X159635315Y-83874569D01*
X159635326Y-83874567D01*
X159863483Y-83813433D01*
X159863492Y-83813429D01*
X160077578Y-83713600D01*
X160077582Y-83713598D01*
X160161373Y-83654926D01*
X160161373Y-83654925D01*
X159529409Y-83022962D01*
X159592993Y-83005925D01*
X159707007Y-82940099D01*
X159800099Y-82847007D01*
X159865925Y-82732993D01*
X159882962Y-82669409D01*
X160514925Y-83301373D01*
X160568425Y-83224968D01*
X160623002Y-83181344D01*
X160692501Y-83174151D01*
X160754855Y-83205673D01*
X160771576Y-83224969D01*
X160825073Y-83301372D01*
X161457037Y-82669409D01*
X161474075Y-82732993D01*
X161539901Y-82847007D01*
X161632993Y-82940099D01*
X161747007Y-83005925D01*
X161810590Y-83022962D01*
X161178625Y-83654925D01*
X161262421Y-83713599D01*
X161476507Y-83813429D01*
X161476516Y-83813433D01*
X161704673Y-83874567D01*
X161704684Y-83874569D01*
X161939998Y-83895157D01*
X161940002Y-83895157D01*
X162175315Y-83874569D01*
X162175326Y-83874567D01*
X162403483Y-83813433D01*
X162403492Y-83813429D01*
X162617578Y-83713600D01*
X162617582Y-83713598D01*
X162701373Y-83654926D01*
X162701373Y-83654925D01*
X162069409Y-83022962D01*
X162132993Y-83005925D01*
X162247007Y-82940099D01*
X162340099Y-82847007D01*
X162405925Y-82732993D01*
X162422962Y-82669410D01*
X163054925Y-83301373D01*
X163054926Y-83301373D01*
X163113598Y-83217582D01*
X163113600Y-83217578D01*
X163213429Y-83003492D01*
X163213433Y-83003483D01*
X163274567Y-82775326D01*
X163274569Y-82775315D01*
X163295157Y-82540001D01*
X163295157Y-82539998D01*
X163274569Y-82304684D01*
X163274567Y-82304673D01*
X163214021Y-82078711D01*
X164949500Y-82078711D01*
X164949500Y-82321288D01*
X164981161Y-82561785D01*
X165043947Y-82796104D01*
X165129850Y-83003492D01*
X165136776Y-83020212D01*
X165258064Y-83230289D01*
X165258066Y-83230292D01*
X165258067Y-83230293D01*
X165405733Y-83422736D01*
X165405739Y-83422743D01*
X165577256Y-83594260D01*
X165577262Y-83594265D01*
X165769711Y-83741936D01*
X165979788Y-83863224D01*
X166203900Y-83956054D01*
X166438211Y-84018838D01*
X166618586Y-84042584D01*
X166678711Y-84050500D01*
X166678712Y-84050500D01*
X166921289Y-84050500D01*
X166969388Y-84044167D01*
X167161789Y-84018838D01*
X167396100Y-83956054D01*
X167620212Y-83863224D01*
X167830289Y-83741936D01*
X168022738Y-83594265D01*
X168194265Y-83422738D01*
X168341936Y-83230289D01*
X168463224Y-83020212D01*
X168556054Y-82796100D01*
X168618838Y-82561789D01*
X168650500Y-82321288D01*
X168650500Y-82078712D01*
X168618838Y-81838211D01*
X168556054Y-81603900D01*
X168463224Y-81379788D01*
X168341936Y-81169711D01*
X168194265Y-80977262D01*
X168194260Y-80977256D01*
X168022743Y-80805739D01*
X168022736Y-80805733D01*
X167830293Y-80658067D01*
X167830292Y-80658066D01*
X167830289Y-80658064D01*
X167620212Y-80536776D01*
X167620205Y-80536773D01*
X167396104Y-80443947D01*
X167161785Y-80381161D01*
X166921289Y-80349500D01*
X166921288Y-80349500D01*
X166678712Y-80349500D01*
X166678711Y-80349500D01*
X166438214Y-80381161D01*
X166203895Y-80443947D01*
X165979794Y-80536773D01*
X165979785Y-80536777D01*
X165769706Y-80658067D01*
X165577263Y-80805733D01*
X165577256Y-80805739D01*
X165405739Y-80977256D01*
X165405733Y-80977263D01*
X165258067Y-81169706D01*
X165136777Y-81379785D01*
X165136773Y-81379794D01*
X165043947Y-81603895D01*
X164981161Y-81838214D01*
X164949500Y-82078711D01*
X163214021Y-82078711D01*
X163213433Y-82076516D01*
X163213429Y-82076507D01*
X163113600Y-81862423D01*
X163113599Y-81862421D01*
X163054925Y-81778626D01*
X163054925Y-81778625D01*
X162422962Y-82410589D01*
X162405925Y-82347007D01*
X162340099Y-82232993D01*
X162247007Y-82139901D01*
X162132993Y-82074075D01*
X162069410Y-82057037D01*
X162701373Y-81425073D01*
X162701373Y-81425072D01*
X162625405Y-81371880D01*
X162581780Y-81317304D01*
X162574586Y-81247805D01*
X162606108Y-81185451D01*
X162625399Y-81168734D01*
X162811401Y-81038495D01*
X162978495Y-80871401D01*
X163114035Y-80677830D01*
X163213903Y-80463663D01*
X163275063Y-80235408D01*
X163295659Y-80000000D01*
X163275063Y-79764592D01*
X163213903Y-79536337D01*
X163114035Y-79322171D01*
X163108425Y-79314158D01*
X162978494Y-79128597D01*
X162811402Y-78961506D01*
X162811395Y-78961501D01*
X162617834Y-78825967D01*
X162617830Y-78825965D01*
X162617828Y-78825964D01*
X162403663Y-78726097D01*
X162403659Y-78726096D01*
X162403655Y-78726094D01*
X162175413Y-78664938D01*
X162175403Y-78664936D01*
X161940001Y-78644341D01*
X161939999Y-78644341D01*
X161704596Y-78664936D01*
X161704586Y-78664938D01*
X161476344Y-78726094D01*
X161476335Y-78726098D01*
X161262171Y-78825964D01*
X161262169Y-78825965D01*
X161068597Y-78961505D01*
X160901505Y-79128597D01*
X160771575Y-79314158D01*
X160716998Y-79357783D01*
X160647500Y-79364977D01*
X160585145Y-79333454D01*
X160568425Y-79314158D01*
X160438494Y-79128597D01*
X160271402Y-78961506D01*
X160271395Y-78961501D01*
X160077834Y-78825967D01*
X160077830Y-78825965D01*
X160077828Y-78825964D01*
X159863663Y-78726097D01*
X159863659Y-78726096D01*
X159863655Y-78726094D01*
X159635413Y-78664938D01*
X159635403Y-78664936D01*
X159400001Y-78644341D01*
X159399999Y-78644341D01*
X159164596Y-78664936D01*
X159164586Y-78664938D01*
X158936344Y-78726094D01*
X158936335Y-78726098D01*
X158722171Y-78825964D01*
X158722169Y-78825965D01*
X158528597Y-78961505D01*
X158361505Y-79128597D01*
X158231575Y-79314158D01*
X158176998Y-79357783D01*
X158107500Y-79364977D01*
X158045145Y-79333454D01*
X158028425Y-79314158D01*
X157898494Y-79128597D01*
X157731402Y-78961506D01*
X157731395Y-78961501D01*
X157537834Y-78825967D01*
X157537830Y-78825965D01*
X157537828Y-78825964D01*
X157323663Y-78726097D01*
X157323659Y-78726096D01*
X157323655Y-78726094D01*
X157095413Y-78664938D01*
X157095403Y-78664936D01*
X156860001Y-78644341D01*
X156859999Y-78644341D01*
X156624596Y-78664936D01*
X156624586Y-78664938D01*
X156396344Y-78726094D01*
X156396335Y-78726098D01*
X156182171Y-78825964D01*
X156182169Y-78825965D01*
X155988597Y-78961505D01*
X155821505Y-79128597D01*
X155691575Y-79314158D01*
X155636998Y-79357783D01*
X155567500Y-79364977D01*
X155505145Y-79333454D01*
X155488425Y-79314158D01*
X155358494Y-79128597D01*
X155191402Y-78961506D01*
X155191395Y-78961501D01*
X154997834Y-78825967D01*
X154997830Y-78825965D01*
X154997828Y-78825964D01*
X154783663Y-78726097D01*
X154783659Y-78726096D01*
X154783655Y-78726094D01*
X154555413Y-78664938D01*
X154555403Y-78664936D01*
X154320001Y-78644341D01*
X154319999Y-78644341D01*
X154084596Y-78664936D01*
X154084586Y-78664938D01*
X153856344Y-78726094D01*
X153856335Y-78726098D01*
X153642171Y-78825964D01*
X153642169Y-78825965D01*
X153448597Y-78961505D01*
X153281505Y-79128597D01*
X153151575Y-79314158D01*
X153096998Y-79357783D01*
X153027500Y-79364977D01*
X152965145Y-79333454D01*
X152948425Y-79314158D01*
X152818494Y-79128597D01*
X152651402Y-78961506D01*
X152651395Y-78961501D01*
X152457834Y-78825967D01*
X152457830Y-78825965D01*
X152457828Y-78825964D01*
X152243663Y-78726097D01*
X152243659Y-78726096D01*
X152243655Y-78726094D01*
X152015413Y-78664938D01*
X152015403Y-78664936D01*
X151780001Y-78644341D01*
X151779999Y-78644341D01*
X151544596Y-78664936D01*
X151544586Y-78664938D01*
X151316344Y-78726094D01*
X151316335Y-78726098D01*
X151102171Y-78825964D01*
X151102169Y-78825965D01*
X150908597Y-78961505D01*
X150741505Y-79128597D01*
X150611575Y-79314158D01*
X150556998Y-79357783D01*
X150487500Y-79364977D01*
X150425145Y-79333454D01*
X150408425Y-79314158D01*
X150278494Y-79128597D01*
X150111402Y-78961506D01*
X150111395Y-78961501D01*
X149917834Y-78825967D01*
X149917830Y-78825965D01*
X149917828Y-78825964D01*
X149703663Y-78726097D01*
X149703659Y-78726096D01*
X149703655Y-78726094D01*
X149475413Y-78664938D01*
X149475403Y-78664936D01*
X149240001Y-78644341D01*
X149239999Y-78644341D01*
X149004596Y-78664936D01*
X149004586Y-78664938D01*
X148776344Y-78726094D01*
X148776335Y-78726098D01*
X148562171Y-78825964D01*
X148562169Y-78825965D01*
X148368597Y-78961505D01*
X148201505Y-79128597D01*
X148071575Y-79314158D01*
X148016998Y-79357783D01*
X147947500Y-79364977D01*
X147885145Y-79333454D01*
X147868425Y-79314158D01*
X147738494Y-79128597D01*
X147571402Y-78961506D01*
X147571395Y-78961501D01*
X147377834Y-78825967D01*
X147377830Y-78825965D01*
X147377828Y-78825964D01*
X147163663Y-78726097D01*
X147163659Y-78726096D01*
X147163655Y-78726094D01*
X146935413Y-78664938D01*
X146935403Y-78664936D01*
X146700001Y-78644341D01*
X146699999Y-78644341D01*
X146464596Y-78664936D01*
X146464586Y-78664938D01*
X146236344Y-78726094D01*
X146236335Y-78726098D01*
X146022171Y-78825964D01*
X146022169Y-78825965D01*
X145828597Y-78961505D01*
X145661505Y-79128597D01*
X145531575Y-79314158D01*
X145476998Y-79357783D01*
X145407500Y-79364977D01*
X145345145Y-79333454D01*
X145328425Y-79314158D01*
X145198494Y-79128597D01*
X145031402Y-78961506D01*
X145031395Y-78961501D01*
X144837834Y-78825967D01*
X144837830Y-78825965D01*
X144837828Y-78825964D01*
X144623663Y-78726097D01*
X144623659Y-78726096D01*
X144623655Y-78726094D01*
X144395413Y-78664938D01*
X144395403Y-78664936D01*
X144160001Y-78644341D01*
X144159999Y-78644341D01*
X143924596Y-78664936D01*
X143924586Y-78664938D01*
X143696344Y-78726094D01*
X143696335Y-78726098D01*
X143482171Y-78825964D01*
X143482169Y-78825965D01*
X143288597Y-78961505D01*
X143121505Y-79128597D01*
X142991575Y-79314158D01*
X142936998Y-79357783D01*
X142867500Y-79364977D01*
X142805145Y-79333454D01*
X142788425Y-79314158D01*
X142658494Y-79128597D01*
X142491402Y-78961506D01*
X142491395Y-78961501D01*
X142297834Y-78825967D01*
X142297830Y-78825965D01*
X142297828Y-78825964D01*
X142083663Y-78726097D01*
X142083659Y-78726096D01*
X142083655Y-78726094D01*
X141855413Y-78664938D01*
X141855403Y-78664936D01*
X141620001Y-78644341D01*
X141619999Y-78644341D01*
X141384596Y-78664936D01*
X141384586Y-78664938D01*
X141156344Y-78726094D01*
X141156335Y-78726098D01*
X140942171Y-78825964D01*
X140942169Y-78825965D01*
X140748597Y-78961505D01*
X140581505Y-79128597D01*
X140451575Y-79314158D01*
X140396998Y-79357783D01*
X140327500Y-79364977D01*
X140265145Y-79333454D01*
X140248425Y-79314158D01*
X140118494Y-79128597D01*
X139951402Y-78961506D01*
X139951395Y-78961501D01*
X139757834Y-78825967D01*
X139757830Y-78825965D01*
X139757828Y-78825964D01*
X139543663Y-78726097D01*
X139543659Y-78726096D01*
X139543655Y-78726094D01*
X139315413Y-78664938D01*
X139315403Y-78664936D01*
X139080001Y-78644341D01*
X139079999Y-78644341D01*
X138844596Y-78664936D01*
X138844586Y-78664938D01*
X138616344Y-78726094D01*
X138616335Y-78726098D01*
X138402171Y-78825964D01*
X138402169Y-78825965D01*
X138208597Y-78961505D01*
X138041505Y-79128597D01*
X137905965Y-79322169D01*
X137905964Y-79322171D01*
X137806098Y-79536335D01*
X137806094Y-79536344D01*
X137744938Y-79764586D01*
X137744936Y-79764596D01*
X137724341Y-79999999D01*
X131100500Y-79999999D01*
X131100500Y-69824500D01*
X131120185Y-69757461D01*
X131172989Y-69711706D01*
X131224500Y-69700500D01*
X169175500Y-69700500D01*
X169242539Y-69720185D01*
G37*
G04 #@! TD.AperFunction*
M02*
