G04 #@! TF.GenerationSoftware,KiCad,Pcbnew,8.0.5*
G04 #@! TF.CreationDate,2024-10-24T17:48:12+02:00*
G04 #@! TF.ProjectId,parallel_adapter,70617261-6c6c-4656-9c5f-616461707465,rev?*
G04 #@! TF.SameCoordinates,Original*
G04 #@! TF.FileFunction,Legend,Top*
G04 #@! TF.FilePolarity,Positive*
%FSLAX46Y46*%
G04 Gerber Fmt 4.6, Leading zero omitted, Abs format (unit mm)*
G04 Created by KiCad (PCBNEW 8.0.5) date 2024-10-24 17:48:12*
%MOMM*%
%LPD*%
G01*
G04 APERTURE LIST*
G04 Aperture macros list*
%AMRoundRect*
0 Rectangle with rounded corners*
0 $1 Rounding radius*
0 $2 $3 $4 $5 $6 $7 $8 $9 X,Y pos of 4 corners*
0 Add a 4 corners polygon primitive as box body*
4,1,4,$2,$3,$4,$5,$6,$7,$8,$9,$2,$3,0*
0 Add four circle primitives for the rounded corners*
1,1,$1+$1,$2,$3*
1,1,$1+$1,$4,$5*
1,1,$1+$1,$6,$7*
1,1,$1+$1,$8,$9*
0 Add four rect primitives between the rounded corners*
20,1,$1+$1,$2,$3,$4,$5,0*
20,1,$1+$1,$4,$5,$6,$7,0*
20,1,$1+$1,$6,$7,$8,$9,0*
20,1,$1+$1,$8,$9,$2,$3,0*%
G04 Aperture macros list end*
%ADD10C,0.100000*%
%ADD11C,0.150000*%
%ADD12C,0.120000*%
%ADD13C,3.200000*%
%ADD14RoundRect,0.250000X0.600000X-0.600000X0.600000X0.600000X-0.600000X0.600000X-0.600000X-0.600000X0*%
%ADD15C,1.700000*%
%ADD16C,4.000000*%
%ADD17R,1.600000X1.600000*%
%ADD18C,1.600000*%
G04 APERTURE END LIST*
D10*
X137642854Y-95928721D02*
X137785711Y-95976340D01*
X137785711Y-95976340D02*
X137833330Y-96023959D01*
X137833330Y-96023959D02*
X137880949Y-96119197D01*
X137880949Y-96119197D02*
X137880949Y-96262054D01*
X137880949Y-96262054D02*
X137833330Y-96357292D01*
X137833330Y-96357292D02*
X137785711Y-96404912D01*
X137785711Y-96404912D02*
X137690473Y-96452531D01*
X137690473Y-96452531D02*
X137309521Y-96452531D01*
X137309521Y-96452531D02*
X137309521Y-95452531D01*
X137309521Y-95452531D02*
X137642854Y-95452531D01*
X137642854Y-95452531D02*
X137738092Y-95500150D01*
X137738092Y-95500150D02*
X137785711Y-95547769D01*
X137785711Y-95547769D02*
X137833330Y-95643007D01*
X137833330Y-95643007D02*
X137833330Y-95738245D01*
X137833330Y-95738245D02*
X137785711Y-95833483D01*
X137785711Y-95833483D02*
X137738092Y-95881102D01*
X137738092Y-95881102D02*
X137642854Y-95928721D01*
X137642854Y-95928721D02*
X137309521Y-95928721D01*
X138642854Y-95928721D02*
X138785711Y-95976340D01*
X138785711Y-95976340D02*
X138833330Y-96023959D01*
X138833330Y-96023959D02*
X138880949Y-96119197D01*
X138880949Y-96119197D02*
X138880949Y-96262054D01*
X138880949Y-96262054D02*
X138833330Y-96357292D01*
X138833330Y-96357292D02*
X138785711Y-96404912D01*
X138785711Y-96404912D02*
X138690473Y-96452531D01*
X138690473Y-96452531D02*
X138309521Y-96452531D01*
X138309521Y-96452531D02*
X138309521Y-95452531D01*
X138309521Y-95452531D02*
X138642854Y-95452531D01*
X138642854Y-95452531D02*
X138738092Y-95500150D01*
X138738092Y-95500150D02*
X138785711Y-95547769D01*
X138785711Y-95547769D02*
X138833330Y-95643007D01*
X138833330Y-95643007D02*
X138833330Y-95738245D01*
X138833330Y-95738245D02*
X138785711Y-95833483D01*
X138785711Y-95833483D02*
X138738092Y-95881102D01*
X138738092Y-95881102D02*
X138642854Y-95928721D01*
X138642854Y-95928721D02*
X138309521Y-95928721D01*
X139880949Y-96357292D02*
X139833330Y-96404912D01*
X139833330Y-96404912D02*
X139690473Y-96452531D01*
X139690473Y-96452531D02*
X139595235Y-96452531D01*
X139595235Y-96452531D02*
X139452378Y-96404912D01*
X139452378Y-96404912D02*
X139357140Y-96309673D01*
X139357140Y-96309673D02*
X139309521Y-96214435D01*
X139309521Y-96214435D02*
X139261902Y-96023959D01*
X139261902Y-96023959D02*
X139261902Y-95881102D01*
X139261902Y-95881102D02*
X139309521Y-95690626D01*
X139309521Y-95690626D02*
X139357140Y-95595388D01*
X139357140Y-95595388D02*
X139452378Y-95500150D01*
X139452378Y-95500150D02*
X139595235Y-95452531D01*
X139595235Y-95452531D02*
X139690473Y-95452531D01*
X139690473Y-95452531D02*
X139833330Y-95500150D01*
X139833330Y-95500150D02*
X139880949Y-95547769D01*
X141071426Y-95452531D02*
X141071426Y-96262054D01*
X141071426Y-96262054D02*
X141119045Y-96357292D01*
X141119045Y-96357292D02*
X141166664Y-96404912D01*
X141166664Y-96404912D02*
X141261902Y-96452531D01*
X141261902Y-96452531D02*
X141452378Y-96452531D01*
X141452378Y-96452531D02*
X141547616Y-96404912D01*
X141547616Y-96404912D02*
X141595235Y-96357292D01*
X141595235Y-96357292D02*
X141642854Y-96262054D01*
X141642854Y-96262054D02*
X141642854Y-95452531D01*
X142071426Y-96404912D02*
X142166664Y-96452531D01*
X142166664Y-96452531D02*
X142357140Y-96452531D01*
X142357140Y-96452531D02*
X142452378Y-96404912D01*
X142452378Y-96404912D02*
X142499997Y-96309673D01*
X142499997Y-96309673D02*
X142499997Y-96262054D01*
X142499997Y-96262054D02*
X142452378Y-96166816D01*
X142452378Y-96166816D02*
X142357140Y-96119197D01*
X142357140Y-96119197D02*
X142214283Y-96119197D01*
X142214283Y-96119197D02*
X142119045Y-96071578D01*
X142119045Y-96071578D02*
X142071426Y-95976340D01*
X142071426Y-95976340D02*
X142071426Y-95928721D01*
X142071426Y-95928721D02*
X142119045Y-95833483D01*
X142119045Y-95833483D02*
X142214283Y-95785864D01*
X142214283Y-95785864D02*
X142357140Y-95785864D01*
X142357140Y-95785864D02*
X142452378Y-95833483D01*
X143309521Y-96404912D02*
X143214283Y-96452531D01*
X143214283Y-96452531D02*
X143023807Y-96452531D01*
X143023807Y-96452531D02*
X142928569Y-96404912D01*
X142928569Y-96404912D02*
X142880950Y-96309673D01*
X142880950Y-96309673D02*
X142880950Y-95928721D01*
X142880950Y-95928721D02*
X142928569Y-95833483D01*
X142928569Y-95833483D02*
X143023807Y-95785864D01*
X143023807Y-95785864D02*
X143214283Y-95785864D01*
X143214283Y-95785864D02*
X143309521Y-95833483D01*
X143309521Y-95833483D02*
X143357140Y-95928721D01*
X143357140Y-95928721D02*
X143357140Y-96023959D01*
X143357140Y-96023959D02*
X142880950Y-96119197D01*
X143785712Y-96452531D02*
X143785712Y-95785864D01*
X143785712Y-95976340D02*
X143833331Y-95881102D01*
X143833331Y-95881102D02*
X143880950Y-95833483D01*
X143880950Y-95833483D02*
X143976188Y-95785864D01*
X143976188Y-95785864D02*
X144071426Y-95785864D01*
X144404760Y-95785864D02*
X144404760Y-96785864D01*
X144404760Y-95833483D02*
X144499998Y-95785864D01*
X144499998Y-95785864D02*
X144690474Y-95785864D01*
X144690474Y-95785864D02*
X144785712Y-95833483D01*
X144785712Y-95833483D02*
X144833331Y-95881102D01*
X144833331Y-95881102D02*
X144880950Y-95976340D01*
X144880950Y-95976340D02*
X144880950Y-96262054D01*
X144880950Y-96262054D02*
X144833331Y-96357292D01*
X144833331Y-96357292D02*
X144785712Y-96404912D01*
X144785712Y-96404912D02*
X144690474Y-96452531D01*
X144690474Y-96452531D02*
X144499998Y-96452531D01*
X144499998Y-96452531D02*
X144404760Y-96404912D01*
X145452379Y-96452531D02*
X145357141Y-96404912D01*
X145357141Y-96404912D02*
X145309522Y-96357292D01*
X145309522Y-96357292D02*
X145261903Y-96262054D01*
X145261903Y-96262054D02*
X145261903Y-95976340D01*
X145261903Y-95976340D02*
X145309522Y-95881102D01*
X145309522Y-95881102D02*
X145357141Y-95833483D01*
X145357141Y-95833483D02*
X145452379Y-95785864D01*
X145452379Y-95785864D02*
X145595236Y-95785864D01*
X145595236Y-95785864D02*
X145690474Y-95833483D01*
X145690474Y-95833483D02*
X145738093Y-95881102D01*
X145738093Y-95881102D02*
X145785712Y-95976340D01*
X145785712Y-95976340D02*
X145785712Y-96262054D01*
X145785712Y-96262054D02*
X145738093Y-96357292D01*
X145738093Y-96357292D02*
X145690474Y-96404912D01*
X145690474Y-96404912D02*
X145595236Y-96452531D01*
X145595236Y-96452531D02*
X145452379Y-96452531D01*
X146214284Y-96452531D02*
X146214284Y-95785864D01*
X146214284Y-95976340D02*
X146261903Y-95881102D01*
X146261903Y-95881102D02*
X146309522Y-95833483D01*
X146309522Y-95833483D02*
X146404760Y-95785864D01*
X146404760Y-95785864D02*
X146499998Y-95785864D01*
X146690475Y-95785864D02*
X147071427Y-95785864D01*
X146833332Y-95452531D02*
X146833332Y-96309673D01*
X146833332Y-96309673D02*
X146880951Y-96404912D01*
X146880951Y-96404912D02*
X146976189Y-96452531D01*
X146976189Y-96452531D02*
X147071427Y-96452531D01*
X148166666Y-96071578D02*
X148928571Y-96071578D01*
X149404761Y-95785864D02*
X150166666Y-96071578D01*
X150166666Y-96071578D02*
X149404761Y-96357292D01*
X151261904Y-95452531D02*
X151595237Y-96452531D01*
X151595237Y-96452531D02*
X151928570Y-95452531D01*
X152690475Y-96452531D02*
X152690475Y-95928721D01*
X152690475Y-95928721D02*
X152642856Y-95833483D01*
X152642856Y-95833483D02*
X152547618Y-95785864D01*
X152547618Y-95785864D02*
X152357142Y-95785864D01*
X152357142Y-95785864D02*
X152261904Y-95833483D01*
X152690475Y-96404912D02*
X152595237Y-96452531D01*
X152595237Y-96452531D02*
X152357142Y-96452531D01*
X152357142Y-96452531D02*
X152261904Y-96404912D01*
X152261904Y-96404912D02*
X152214285Y-96309673D01*
X152214285Y-96309673D02*
X152214285Y-96214435D01*
X152214285Y-96214435D02*
X152261904Y-96119197D01*
X152261904Y-96119197D02*
X152357142Y-96071578D01*
X152357142Y-96071578D02*
X152595237Y-96071578D01*
X152595237Y-96071578D02*
X152690475Y-96023959D01*
X153309523Y-96452531D02*
X153214285Y-96404912D01*
X153214285Y-96404912D02*
X153166666Y-96309673D01*
X153166666Y-96309673D02*
X153166666Y-95452531D01*
X153690476Y-96452531D02*
X153690476Y-95785864D01*
X153690476Y-95452531D02*
X153642857Y-95500150D01*
X153642857Y-95500150D02*
X153690476Y-95547769D01*
X153690476Y-95547769D02*
X153738095Y-95500150D01*
X153738095Y-95500150D02*
X153690476Y-95452531D01*
X153690476Y-95452531D02*
X153690476Y-95547769D01*
X154595237Y-96452531D02*
X154595237Y-95928721D01*
X154595237Y-95928721D02*
X154547618Y-95833483D01*
X154547618Y-95833483D02*
X154452380Y-95785864D01*
X154452380Y-95785864D02*
X154261904Y-95785864D01*
X154261904Y-95785864D02*
X154166666Y-95833483D01*
X154595237Y-96404912D02*
X154499999Y-96452531D01*
X154499999Y-96452531D02*
X154261904Y-96452531D01*
X154261904Y-96452531D02*
X154166666Y-96404912D01*
X154166666Y-96404912D02*
X154119047Y-96309673D01*
X154119047Y-96309673D02*
X154119047Y-96214435D01*
X154119047Y-96214435D02*
X154166666Y-96119197D01*
X154166666Y-96119197D02*
X154261904Y-96071578D01*
X154261904Y-96071578D02*
X154499999Y-96071578D01*
X154499999Y-96071578D02*
X154595237Y-96023959D01*
X155071428Y-95785864D02*
X155071428Y-96452531D01*
X155071428Y-95881102D02*
X155119047Y-95833483D01*
X155119047Y-95833483D02*
X155214285Y-95785864D01*
X155214285Y-95785864D02*
X155357142Y-95785864D01*
X155357142Y-95785864D02*
X155452380Y-95833483D01*
X155452380Y-95833483D02*
X155499999Y-95928721D01*
X155499999Y-95928721D02*
X155499999Y-96452531D01*
X155833333Y-95785864D02*
X156214285Y-95785864D01*
X155976190Y-95452531D02*
X155976190Y-96309673D01*
X155976190Y-96309673D02*
X156023809Y-96404912D01*
X156023809Y-96404912D02*
X156119047Y-96452531D01*
X156119047Y-96452531D02*
X156214285Y-96452531D01*
X157309524Y-96452531D02*
X157309524Y-95452531D01*
X157309524Y-95452531D02*
X157690476Y-95452531D01*
X157690476Y-95452531D02*
X157785714Y-95500150D01*
X157785714Y-95500150D02*
X157833333Y-95547769D01*
X157833333Y-95547769D02*
X157880952Y-95643007D01*
X157880952Y-95643007D02*
X157880952Y-95785864D01*
X157880952Y-95785864D02*
X157833333Y-95881102D01*
X157833333Y-95881102D02*
X157785714Y-95928721D01*
X157785714Y-95928721D02*
X157690476Y-95976340D01*
X157690476Y-95976340D02*
X157309524Y-95976340D01*
X158738095Y-96452531D02*
X158738095Y-95928721D01*
X158738095Y-95928721D02*
X158690476Y-95833483D01*
X158690476Y-95833483D02*
X158595238Y-95785864D01*
X158595238Y-95785864D02*
X158404762Y-95785864D01*
X158404762Y-95785864D02*
X158309524Y-95833483D01*
X158738095Y-96404912D02*
X158642857Y-96452531D01*
X158642857Y-96452531D02*
X158404762Y-96452531D01*
X158404762Y-96452531D02*
X158309524Y-96404912D01*
X158309524Y-96404912D02*
X158261905Y-96309673D01*
X158261905Y-96309673D02*
X158261905Y-96214435D01*
X158261905Y-96214435D02*
X158309524Y-96119197D01*
X158309524Y-96119197D02*
X158404762Y-96071578D01*
X158404762Y-96071578D02*
X158642857Y-96071578D01*
X158642857Y-96071578D02*
X158738095Y-96023959D01*
X159214286Y-96452531D02*
X159214286Y-95785864D01*
X159214286Y-95976340D02*
X159261905Y-95881102D01*
X159261905Y-95881102D02*
X159309524Y-95833483D01*
X159309524Y-95833483D02*
X159404762Y-95785864D01*
X159404762Y-95785864D02*
X159500000Y-95785864D01*
X160261905Y-96452531D02*
X160261905Y-95928721D01*
X160261905Y-95928721D02*
X160214286Y-95833483D01*
X160214286Y-95833483D02*
X160119048Y-95785864D01*
X160119048Y-95785864D02*
X159928572Y-95785864D01*
X159928572Y-95785864D02*
X159833334Y-95833483D01*
X160261905Y-96404912D02*
X160166667Y-96452531D01*
X160166667Y-96452531D02*
X159928572Y-96452531D01*
X159928572Y-96452531D02*
X159833334Y-96404912D01*
X159833334Y-96404912D02*
X159785715Y-96309673D01*
X159785715Y-96309673D02*
X159785715Y-96214435D01*
X159785715Y-96214435D02*
X159833334Y-96119197D01*
X159833334Y-96119197D02*
X159928572Y-96071578D01*
X159928572Y-96071578D02*
X160166667Y-96071578D01*
X160166667Y-96071578D02*
X160261905Y-96023959D01*
X160880953Y-96452531D02*
X160785715Y-96404912D01*
X160785715Y-96404912D02*
X160738096Y-96309673D01*
X160738096Y-96309673D02*
X160738096Y-95452531D01*
X161404763Y-96452531D02*
X161309525Y-96404912D01*
X161309525Y-96404912D02*
X161261906Y-96309673D01*
X161261906Y-96309673D02*
X161261906Y-95452531D01*
X162166668Y-96404912D02*
X162071430Y-96452531D01*
X162071430Y-96452531D02*
X161880954Y-96452531D01*
X161880954Y-96452531D02*
X161785716Y-96404912D01*
X161785716Y-96404912D02*
X161738097Y-96309673D01*
X161738097Y-96309673D02*
X161738097Y-95928721D01*
X161738097Y-95928721D02*
X161785716Y-95833483D01*
X161785716Y-95833483D02*
X161880954Y-95785864D01*
X161880954Y-95785864D02*
X162071430Y-95785864D01*
X162071430Y-95785864D02*
X162166668Y-95833483D01*
X162166668Y-95833483D02*
X162214287Y-95928721D01*
X162214287Y-95928721D02*
X162214287Y-96023959D01*
X162214287Y-96023959D02*
X161738097Y-96119197D01*
X162785716Y-96452531D02*
X162690478Y-96404912D01*
X162690478Y-96404912D02*
X162642859Y-96309673D01*
X162642859Y-96309673D02*
X162642859Y-95452531D01*
X142547618Y-98443427D02*
X142499999Y-98395808D01*
X142499999Y-98395808D02*
X142404761Y-98252951D01*
X142404761Y-98252951D02*
X142357142Y-98157713D01*
X142357142Y-98157713D02*
X142309523Y-98014856D01*
X142309523Y-98014856D02*
X142261904Y-97776760D01*
X142261904Y-97776760D02*
X142261904Y-97586284D01*
X142261904Y-97586284D02*
X142309523Y-97348189D01*
X142309523Y-97348189D02*
X142357142Y-97205332D01*
X142357142Y-97205332D02*
X142404761Y-97110094D01*
X142404761Y-97110094D02*
X142499999Y-96967236D01*
X142499999Y-96967236D02*
X142547618Y-96919617D01*
X143357142Y-98014856D02*
X143261904Y-98062475D01*
X143261904Y-98062475D02*
X143071428Y-98062475D01*
X143071428Y-98062475D02*
X142976190Y-98014856D01*
X142976190Y-98014856D02*
X142928571Y-97967236D01*
X142928571Y-97967236D02*
X142880952Y-97871998D01*
X142880952Y-97871998D02*
X142880952Y-97586284D01*
X142880952Y-97586284D02*
X142928571Y-97491046D01*
X142928571Y-97491046D02*
X142976190Y-97443427D01*
X142976190Y-97443427D02*
X143071428Y-97395808D01*
X143071428Y-97395808D02*
X143261904Y-97395808D01*
X143261904Y-97395808D02*
X143357142Y-97443427D01*
X143690476Y-98443427D02*
X143738095Y-98395808D01*
X143738095Y-98395808D02*
X143833333Y-98252951D01*
X143833333Y-98252951D02*
X143880952Y-98157713D01*
X143880952Y-98157713D02*
X143928571Y-98014856D01*
X143928571Y-98014856D02*
X143976190Y-97776760D01*
X143976190Y-97776760D02*
X143976190Y-97586284D01*
X143976190Y-97586284D02*
X143928571Y-97348189D01*
X143928571Y-97348189D02*
X143880952Y-97205332D01*
X143880952Y-97205332D02*
X143833333Y-97110094D01*
X143833333Y-97110094D02*
X143738095Y-96967236D01*
X143738095Y-96967236D02*
X143690476Y-96919617D01*
X145166667Y-97157713D02*
X145214286Y-97110094D01*
X145214286Y-97110094D02*
X145309524Y-97062475D01*
X145309524Y-97062475D02*
X145547619Y-97062475D01*
X145547619Y-97062475D02*
X145642857Y-97110094D01*
X145642857Y-97110094D02*
X145690476Y-97157713D01*
X145690476Y-97157713D02*
X145738095Y-97252951D01*
X145738095Y-97252951D02*
X145738095Y-97348189D01*
X145738095Y-97348189D02*
X145690476Y-97491046D01*
X145690476Y-97491046D02*
X145119048Y-98062475D01*
X145119048Y-98062475D02*
X145738095Y-98062475D01*
X146357143Y-97062475D02*
X146452381Y-97062475D01*
X146452381Y-97062475D02*
X146547619Y-97110094D01*
X146547619Y-97110094D02*
X146595238Y-97157713D01*
X146595238Y-97157713D02*
X146642857Y-97252951D01*
X146642857Y-97252951D02*
X146690476Y-97443427D01*
X146690476Y-97443427D02*
X146690476Y-97681522D01*
X146690476Y-97681522D02*
X146642857Y-97871998D01*
X146642857Y-97871998D02*
X146595238Y-97967236D01*
X146595238Y-97967236D02*
X146547619Y-98014856D01*
X146547619Y-98014856D02*
X146452381Y-98062475D01*
X146452381Y-98062475D02*
X146357143Y-98062475D01*
X146357143Y-98062475D02*
X146261905Y-98014856D01*
X146261905Y-98014856D02*
X146214286Y-97967236D01*
X146214286Y-97967236D02*
X146166667Y-97871998D01*
X146166667Y-97871998D02*
X146119048Y-97681522D01*
X146119048Y-97681522D02*
X146119048Y-97443427D01*
X146119048Y-97443427D02*
X146166667Y-97252951D01*
X146166667Y-97252951D02*
X146214286Y-97157713D01*
X146214286Y-97157713D02*
X146261905Y-97110094D01*
X146261905Y-97110094D02*
X146357143Y-97062475D01*
X147071429Y-97157713D02*
X147119048Y-97110094D01*
X147119048Y-97110094D02*
X147214286Y-97062475D01*
X147214286Y-97062475D02*
X147452381Y-97062475D01*
X147452381Y-97062475D02*
X147547619Y-97110094D01*
X147547619Y-97110094D02*
X147595238Y-97157713D01*
X147595238Y-97157713D02*
X147642857Y-97252951D01*
X147642857Y-97252951D02*
X147642857Y-97348189D01*
X147642857Y-97348189D02*
X147595238Y-97491046D01*
X147595238Y-97491046D02*
X147023810Y-98062475D01*
X147023810Y-98062475D02*
X147642857Y-98062475D01*
X148500000Y-97395808D02*
X148500000Y-98062475D01*
X148261905Y-97014856D02*
X148023810Y-97729141D01*
X148023810Y-97729141D02*
X148642857Y-97729141D01*
X149738096Y-98014856D02*
X149880953Y-98062475D01*
X149880953Y-98062475D02*
X150119048Y-98062475D01*
X150119048Y-98062475D02*
X150214286Y-98014856D01*
X150214286Y-98014856D02*
X150261905Y-97967236D01*
X150261905Y-97967236D02*
X150309524Y-97871998D01*
X150309524Y-97871998D02*
X150309524Y-97776760D01*
X150309524Y-97776760D02*
X150261905Y-97681522D01*
X150261905Y-97681522D02*
X150214286Y-97633903D01*
X150214286Y-97633903D02*
X150119048Y-97586284D01*
X150119048Y-97586284D02*
X149928572Y-97538665D01*
X149928572Y-97538665D02*
X149833334Y-97491046D01*
X149833334Y-97491046D02*
X149785715Y-97443427D01*
X149785715Y-97443427D02*
X149738096Y-97348189D01*
X149738096Y-97348189D02*
X149738096Y-97252951D01*
X149738096Y-97252951D02*
X149785715Y-97157713D01*
X149785715Y-97157713D02*
X149833334Y-97110094D01*
X149833334Y-97110094D02*
X149928572Y-97062475D01*
X149928572Y-97062475D02*
X150166667Y-97062475D01*
X150166667Y-97062475D02*
X150309524Y-97110094D01*
X150738096Y-98062475D02*
X150738096Y-97395808D01*
X150738096Y-97062475D02*
X150690477Y-97110094D01*
X150690477Y-97110094D02*
X150738096Y-97157713D01*
X150738096Y-97157713D02*
X150785715Y-97110094D01*
X150785715Y-97110094D02*
X150738096Y-97062475D01*
X150738096Y-97062475D02*
X150738096Y-97157713D01*
X151214286Y-98062475D02*
X151214286Y-97395808D01*
X151214286Y-97491046D02*
X151261905Y-97443427D01*
X151261905Y-97443427D02*
X151357143Y-97395808D01*
X151357143Y-97395808D02*
X151500000Y-97395808D01*
X151500000Y-97395808D02*
X151595238Y-97443427D01*
X151595238Y-97443427D02*
X151642857Y-97538665D01*
X151642857Y-97538665D02*
X151642857Y-98062475D01*
X151642857Y-97538665D02*
X151690476Y-97443427D01*
X151690476Y-97443427D02*
X151785714Y-97395808D01*
X151785714Y-97395808D02*
X151928571Y-97395808D01*
X151928571Y-97395808D02*
X152023810Y-97443427D01*
X152023810Y-97443427D02*
X152071429Y-97538665D01*
X152071429Y-97538665D02*
X152071429Y-98062475D01*
X152690476Y-98062475D02*
X152595238Y-98014856D01*
X152595238Y-98014856D02*
X152547619Y-97967236D01*
X152547619Y-97967236D02*
X152500000Y-97871998D01*
X152500000Y-97871998D02*
X152500000Y-97586284D01*
X152500000Y-97586284D02*
X152547619Y-97491046D01*
X152547619Y-97491046D02*
X152595238Y-97443427D01*
X152595238Y-97443427D02*
X152690476Y-97395808D01*
X152690476Y-97395808D02*
X152833333Y-97395808D01*
X152833333Y-97395808D02*
X152928571Y-97443427D01*
X152928571Y-97443427D02*
X152976190Y-97491046D01*
X152976190Y-97491046D02*
X153023809Y-97586284D01*
X153023809Y-97586284D02*
X153023809Y-97871998D01*
X153023809Y-97871998D02*
X152976190Y-97967236D01*
X152976190Y-97967236D02*
X152928571Y-98014856D01*
X152928571Y-98014856D02*
X152833333Y-98062475D01*
X152833333Y-98062475D02*
X152690476Y-98062475D01*
X153452381Y-97395808D02*
X153452381Y-98062475D01*
X153452381Y-97491046D02*
X153500000Y-97443427D01*
X153500000Y-97443427D02*
X153595238Y-97395808D01*
X153595238Y-97395808D02*
X153738095Y-97395808D01*
X153738095Y-97395808D02*
X153833333Y-97443427D01*
X153833333Y-97443427D02*
X153880952Y-97538665D01*
X153880952Y-97538665D02*
X153880952Y-98062475D01*
X155119048Y-98062475D02*
X155119048Y-97062475D01*
X155595238Y-97395808D02*
X155595238Y-98062475D01*
X155595238Y-97491046D02*
X155642857Y-97443427D01*
X155642857Y-97443427D02*
X155738095Y-97395808D01*
X155738095Y-97395808D02*
X155880952Y-97395808D01*
X155880952Y-97395808D02*
X155976190Y-97443427D01*
X155976190Y-97443427D02*
X156023809Y-97538665D01*
X156023809Y-97538665D02*
X156023809Y-98062475D01*
X156500000Y-97395808D02*
X156500000Y-98062475D01*
X156500000Y-97491046D02*
X156547619Y-97443427D01*
X156547619Y-97443427D02*
X156642857Y-97395808D01*
X156642857Y-97395808D02*
X156785714Y-97395808D01*
X156785714Y-97395808D02*
X156880952Y-97443427D01*
X156880952Y-97443427D02*
X156928571Y-97538665D01*
X156928571Y-97538665D02*
X156928571Y-98062475D01*
X157357143Y-98014856D02*
X157452381Y-98062475D01*
X157452381Y-98062475D02*
X157642857Y-98062475D01*
X157642857Y-98062475D02*
X157738095Y-98014856D01*
X157738095Y-98014856D02*
X157785714Y-97919617D01*
X157785714Y-97919617D02*
X157785714Y-97871998D01*
X157785714Y-97871998D02*
X157738095Y-97776760D01*
X157738095Y-97776760D02*
X157642857Y-97729141D01*
X157642857Y-97729141D02*
X157500000Y-97729141D01*
X157500000Y-97729141D02*
X157404762Y-97681522D01*
X157404762Y-97681522D02*
X157357143Y-97586284D01*
X157357143Y-97586284D02*
X157357143Y-97538665D01*
X157357143Y-97538665D02*
X157404762Y-97443427D01*
X157404762Y-97443427D02*
X157500000Y-97395808D01*
X157500000Y-97395808D02*
X157642857Y-97395808D01*
X157642857Y-97395808D02*
X157738095Y-97443427D01*
X145404761Y-99577180D02*
X145357142Y-99624800D01*
X145357142Y-99624800D02*
X145214285Y-99672419D01*
X145214285Y-99672419D02*
X145119047Y-99672419D01*
X145119047Y-99672419D02*
X144976190Y-99624800D01*
X144976190Y-99624800D02*
X144880952Y-99529561D01*
X144880952Y-99529561D02*
X144833333Y-99434323D01*
X144833333Y-99434323D02*
X144785714Y-99243847D01*
X144785714Y-99243847D02*
X144785714Y-99100990D01*
X144785714Y-99100990D02*
X144833333Y-98910514D01*
X144833333Y-98910514D02*
X144880952Y-98815276D01*
X144880952Y-98815276D02*
X144976190Y-98720038D01*
X144976190Y-98720038D02*
X145119047Y-98672419D01*
X145119047Y-98672419D02*
X145214285Y-98672419D01*
X145214285Y-98672419D02*
X145357142Y-98720038D01*
X145357142Y-98720038D02*
X145404761Y-98767657D01*
X146404761Y-99577180D02*
X146357142Y-99624800D01*
X146357142Y-99624800D02*
X146214285Y-99672419D01*
X146214285Y-99672419D02*
X146119047Y-99672419D01*
X146119047Y-99672419D02*
X145976190Y-99624800D01*
X145976190Y-99624800D02*
X145880952Y-99529561D01*
X145880952Y-99529561D02*
X145833333Y-99434323D01*
X145833333Y-99434323D02*
X145785714Y-99243847D01*
X145785714Y-99243847D02*
X145785714Y-99100990D01*
X145785714Y-99100990D02*
X145833333Y-98910514D01*
X145833333Y-98910514D02*
X145880952Y-98815276D01*
X145880952Y-98815276D02*
X145976190Y-98720038D01*
X145976190Y-98720038D02*
X146119047Y-98672419D01*
X146119047Y-98672419D02*
X146214285Y-98672419D01*
X146214285Y-98672419D02*
X146357142Y-98720038D01*
X146357142Y-98720038D02*
X146404761Y-98767657D01*
X147928571Y-99148609D02*
X148071428Y-99196228D01*
X148071428Y-99196228D02*
X148119047Y-99243847D01*
X148119047Y-99243847D02*
X148166666Y-99339085D01*
X148166666Y-99339085D02*
X148166666Y-99481942D01*
X148166666Y-99481942D02*
X148119047Y-99577180D01*
X148119047Y-99577180D02*
X148071428Y-99624800D01*
X148071428Y-99624800D02*
X147976190Y-99672419D01*
X147976190Y-99672419D02*
X147595238Y-99672419D01*
X147595238Y-99672419D02*
X147595238Y-98672419D01*
X147595238Y-98672419D02*
X147928571Y-98672419D01*
X147928571Y-98672419D02*
X148023809Y-98720038D01*
X148023809Y-98720038D02*
X148071428Y-98767657D01*
X148071428Y-98767657D02*
X148119047Y-98862895D01*
X148119047Y-98862895D02*
X148119047Y-98958133D01*
X148119047Y-98958133D02*
X148071428Y-99053371D01*
X148071428Y-99053371D02*
X148023809Y-99100990D01*
X148023809Y-99100990D02*
X147928571Y-99148609D01*
X147928571Y-99148609D02*
X147595238Y-99148609D01*
X148785714Y-99196228D02*
X148785714Y-99672419D01*
X148452381Y-98672419D02*
X148785714Y-99196228D01*
X148785714Y-99196228D02*
X149119047Y-98672419D01*
X149452381Y-99291466D02*
X150214286Y-99291466D01*
X150642857Y-99624800D02*
X150785714Y-99672419D01*
X150785714Y-99672419D02*
X151023809Y-99672419D01*
X151023809Y-99672419D02*
X151119047Y-99624800D01*
X151119047Y-99624800D02*
X151166666Y-99577180D01*
X151166666Y-99577180D02*
X151214285Y-99481942D01*
X151214285Y-99481942D02*
X151214285Y-99386704D01*
X151214285Y-99386704D02*
X151166666Y-99291466D01*
X151166666Y-99291466D02*
X151119047Y-99243847D01*
X151119047Y-99243847D02*
X151023809Y-99196228D01*
X151023809Y-99196228D02*
X150833333Y-99148609D01*
X150833333Y-99148609D02*
X150738095Y-99100990D01*
X150738095Y-99100990D02*
X150690476Y-99053371D01*
X150690476Y-99053371D02*
X150642857Y-98958133D01*
X150642857Y-98958133D02*
X150642857Y-98862895D01*
X150642857Y-98862895D02*
X150690476Y-98767657D01*
X150690476Y-98767657D02*
X150738095Y-98720038D01*
X150738095Y-98720038D02*
X150833333Y-98672419D01*
X150833333Y-98672419D02*
X151071428Y-98672419D01*
X151071428Y-98672419D02*
X151214285Y-98720038D01*
X151595238Y-99386704D02*
X152071428Y-99386704D01*
X151500000Y-99672419D02*
X151833333Y-98672419D01*
X151833333Y-98672419D02*
X152166666Y-99672419D01*
X153690476Y-99005752D02*
X153690476Y-99672419D01*
X153452381Y-98624800D02*
X153214286Y-99339085D01*
X153214286Y-99339085D02*
X153833333Y-99339085D01*
X154214286Y-99577180D02*
X154261905Y-99624800D01*
X154261905Y-99624800D02*
X154214286Y-99672419D01*
X154214286Y-99672419D02*
X154166667Y-99624800D01*
X154166667Y-99624800D02*
X154214286Y-99577180D01*
X154214286Y-99577180D02*
X154214286Y-99672419D01*
X154880952Y-98672419D02*
X154976190Y-98672419D01*
X154976190Y-98672419D02*
X155071428Y-98720038D01*
X155071428Y-98720038D02*
X155119047Y-98767657D01*
X155119047Y-98767657D02*
X155166666Y-98862895D01*
X155166666Y-98862895D02*
X155214285Y-99053371D01*
X155214285Y-99053371D02*
X155214285Y-99291466D01*
X155214285Y-99291466D02*
X155166666Y-99481942D01*
X155166666Y-99481942D02*
X155119047Y-99577180D01*
X155119047Y-99577180D02*
X155071428Y-99624800D01*
X155071428Y-99624800D02*
X154976190Y-99672419D01*
X154976190Y-99672419D02*
X154880952Y-99672419D01*
X154880952Y-99672419D02*
X154785714Y-99624800D01*
X154785714Y-99624800D02*
X154738095Y-99577180D01*
X154738095Y-99577180D02*
X154690476Y-99481942D01*
X154690476Y-99481942D02*
X154642857Y-99291466D01*
X154642857Y-99291466D02*
X154642857Y-99053371D01*
X154642857Y-99053371D02*
X154690476Y-98862895D01*
X154690476Y-98862895D02*
X154738095Y-98767657D01*
X154738095Y-98767657D02*
X154785714Y-98720038D01*
X154785714Y-98720038D02*
X154880952Y-98672419D01*
D11*
X132434819Y-76658333D02*
X133149104Y-76658333D01*
X133149104Y-76658333D02*
X133291961Y-76705952D01*
X133291961Y-76705952D02*
X133387200Y-76801190D01*
X133387200Y-76801190D02*
X133434819Y-76944047D01*
X133434819Y-76944047D02*
X133434819Y-77039285D01*
X133434819Y-75658333D02*
X133434819Y-76229761D01*
X133434819Y-75944047D02*
X132434819Y-75944047D01*
X132434819Y-75944047D02*
X132577676Y-76039285D01*
X132577676Y-76039285D02*
X132672914Y-76134523D01*
X132672914Y-76134523D02*
X132720533Y-76229761D01*
X149816666Y-84834819D02*
X149816666Y-85549104D01*
X149816666Y-85549104D02*
X149769047Y-85691961D01*
X149769047Y-85691961D02*
X149673809Y-85787200D01*
X149673809Y-85787200D02*
X149530952Y-85834819D01*
X149530952Y-85834819D02*
X149435714Y-85834819D01*
X150245238Y-84930057D02*
X150292857Y-84882438D01*
X150292857Y-84882438D02*
X150388095Y-84834819D01*
X150388095Y-84834819D02*
X150626190Y-84834819D01*
X150626190Y-84834819D02*
X150721428Y-84882438D01*
X150721428Y-84882438D02*
X150769047Y-84930057D01*
X150769047Y-84930057D02*
X150816666Y-85025295D01*
X150816666Y-85025295D02*
X150816666Y-85120533D01*
X150816666Y-85120533D02*
X150769047Y-85263390D01*
X150769047Y-85263390D02*
X150197619Y-85834819D01*
X150197619Y-85834819D02*
X150816666Y-85834819D01*
D12*
X133870000Y-69150000D02*
X167150000Y-69150000D01*
X133870000Y-78270000D02*
X133870000Y-69150000D01*
X138580000Y-84890000D02*
X139580000Y-84890000D01*
X139080000Y-83890000D02*
X138580000Y-84890000D01*
X139580000Y-84890000D02*
X139080000Y-83890000D01*
X148460000Y-78270000D02*
X148460000Y-69150000D01*
X152560000Y-78270000D02*
X152560000Y-69150000D01*
X167150000Y-69150000D02*
X167150000Y-78270000D01*
X167150000Y-78270000D02*
X133870000Y-78270000D01*
X130490000Y-86320000D02*
X169810000Y-86320000D01*
X130490000Y-100860000D02*
X130490000Y-86320000D01*
X159595000Y-85425662D02*
X160095000Y-85425662D01*
X159845000Y-85858675D02*
X159595000Y-85425662D01*
X160095000Y-85425662D02*
X159845000Y-85858675D01*
X169810000Y-86320000D02*
X169810000Y-100860000D01*
%LPC*%
D13*
X133600000Y-82200000D03*
X166800000Y-82200000D03*
D14*
X139080000Y-82540000D03*
D15*
X139080000Y-80000000D03*
X141620000Y-82540000D03*
X141620000Y-80000000D03*
X144160000Y-82540000D03*
X144160000Y-80000000D03*
X146700000Y-82540000D03*
X146700000Y-80000000D03*
X149240000Y-82540000D03*
X149240000Y-80000000D03*
X151780000Y-82540000D03*
X151780000Y-80000000D03*
X154320000Y-82540000D03*
X154320000Y-80000000D03*
X156860000Y-82540000D03*
X156860000Y-80000000D03*
X159400000Y-82540000D03*
X159400000Y-80000000D03*
X161940000Y-82540000D03*
X161940000Y-80000000D03*
D16*
X133500000Y-89600000D03*
X166800000Y-89600000D03*
D17*
X159845000Y-88180000D03*
D18*
X157075000Y-88180000D03*
X154305000Y-88180000D03*
X151535000Y-88180000D03*
X148765000Y-88180000D03*
X145995000Y-88180000D03*
X143225000Y-88180000D03*
X140455000Y-88180000D03*
X158460000Y-91020000D03*
X155690000Y-91020000D03*
X152920000Y-91020000D03*
X150150000Y-91020000D03*
X147380000Y-91020000D03*
X144610000Y-91020000D03*
X141840000Y-91020000D03*
%LPD*%
M02*
