<?xml version="1.0" standalone="no"?>
<!DOCTYPE svg PUBLIC "-//W3C//DTD SVG 1.1//EN" "http://www.w3.org/Graphics/SVG/1.1/DTD/svg11.dtd">
<svg width="34mm" height="32mm" viewBox="-20 -16 34 32" xmlns="http://www.w3.org/2000/svg" version="1.1">
<title>OpenSCAD Model</title>
<path d="
M -8.9063,15.4911 L -8.84549,15.4755 L -8.78711,15.4524 L -8.73209,15.4221 L -8.68127,15.3853 L -8.63551,15.3423
 L -8.59549,15.2939 L -5.59549,11.2939 L -5.5621,11.2413 L -4.01721,12.3637 L -0.404984,12.3637 L 0.53511,15.1841
 L 0.561844,15.2409 L 0.59549,15.2939 L 0.635513,15.3423 L 0.681274,15.3853 L 0.732086,15.4221 L 0.787109,15.4524
 L 0.84549,15.4755 L 0.906296,15.4911 L 0.968597,15.499 L 13.0314,15.499 L 13.0937,15.4911 L 13.1545,15.4755
 L 13.2129,15.4524 L 13.2679,15.4221 L 13.3187,15.3853 L 13.3645,15.3423 L 13.4045,15.2939 L 13.4381,15.2409
 L 13.4649,15.1841 L 13.4843,15.1243 L 13.496,15.0627 L 13.996,11.0627 L 14,11 L 13.996,10.9373
 L 13.9843,10.8756 L 13.9649,10.8159 L 13.9381,10.7591 L 13.9045,10.7061 L 13.8645,10.6577 L 10.5983,7.39157
 L 13,-0 L 10.5983,-7.39157 L 13.8645,-10.6577 L 13.9045,-10.7061 L 13.9381,-10.7591 L 13.9649,-10.8159
 L 13.9843,-10.8756 L 13.996,-10.9373 L 14,-11 L 13.996,-11.0627 L 13.496,-15.0627 L 13.4843,-15.1243
 L 13.4649,-15.1841 L 13.4381,-15.2409 L 13.4045,-15.2939 L 13.3645,-15.3423 L 13.3187,-15.3853 L 13.2679,-15.4221
 L 13.2129,-15.4524 L 13.1545,-15.4755 L 13.0937,-15.4911 L 13.0314,-15.499 L 0.968597,-15.499 L 0.906296,-15.4911
 L 0.84549,-15.4755 L 0.787109,-15.4524 L 0.732086,-15.4221 L 0.681274,-15.3853 L 0.635513,-15.3423 L 0.59549,-15.2939
 L 0.561844,-15.2409 L 0.53511,-15.1841 L -0.404984,-12.3637 L -4.01721,-12.3637 L -5.5621,-11.2413 L -5.59549,-11.2939
 L -8.59549,-15.2939 L -8.63551,-15.3423 L -8.68127,-15.3853 L -8.73209,-15.4221 L -8.78711,-15.4524 L -8.84549,-15.4755
 L -8.9063,-15.4911 L -8.9686,-15.499 L -13.0314,-15.499 L -13.0937,-15.4911 L -13.1545,-15.4755 L -13.2129,-15.4524
 L -13.2679,-15.4221 L -13.3187,-15.3853 L -13.3645,-15.3423 L -13.4045,-15.2939 L -13.4381,-15.2409 L -13.4649,-15.1841
 L -13.4843,-15.1243 L -13.496,-15.0627 L -14.496,-9.06265 L -14.5,-9 L -14.496,-8.93733 L -14.4843,-8.87564
 L -14.4649,-8.81593 L -14.4381,-8.75911 L -14.4045,-8.7061 L -14.3645,-8.65771 L -14.3187,-8.61473 L -11.3187,-6.11473
 L -11.2679,-6.07784 L -11.2129,-6.04758 L -11.1545,-6.02446 L -11.0937,-6.00885 L -11.0494,-6.00325 L -11.8688,-3.48151
 L -11.9063,-3.49113 L -11.9686,-3.49901 L -16.0314,-3.49901 L -16.0937,-3.49113 L -16.1545,-3.47552 L -16.2129,-3.45241
 L -16.2679,-3.42215 L -16.3187,-3.38525 L -16.3645,-3.34227 L -19.3645,-0.34227 L -19.4045,-0.293884 L -19.4381,-0.240875
 L -19.4649,-0.184052 L -19.4843,-0.124344 L -19.496,-0.0626526 L -19.5,-0 L -19.496,0.0626526 L -19.4843,0.124344
 L -19.4649,0.184052 L -19.4381,0.240875 L -19.4045,0.293884 L -19.3645,0.34227 L -16.3645,3.34227 L -16.3187,3.38525
 L -16.2679,3.42215 L -16.2129,3.45241 L -16.1545,3.47552 L -16.0937,3.49113 L -16.0314,3.49901 L -11.9686,3.49901
 L -11.9063,3.49113 L -11.8688,3.48151 L -11.0494,6.00325 L -11.0937,6.00885 L -11.1545,6.02446 L -11.2129,6.04758
 L -11.2679,6.07784 L -11.3187,6.11473 L -14.3187,8.61473 L -14.3645,8.65771 L -14.4045,8.7061 L -14.4381,8.75911
 L -14.4649,8.81593 L -14.4843,8.87564 L -14.496,8.93733 L -14.5,9 L -14.496,9.06265 L -13.496,15.0627
 L -13.4843,15.1243 L -13.4649,15.1841 L -13.4381,15.2409 L -13.4045,15.2939 L -13.3645,15.3423 L -13.3187,15.3853
 L -13.2679,15.4221 L -13.2129,15.4524 L -13.1545,15.4755 L -13.0937,15.4911 L -13.0314,15.499 L -8.9686,15.499
 z
M -13.46,-9.20087 L -12.5767,-14.501 L -9.25066,-14.501 L -6.4045,-10.7061 L -6.36479,-10.6581 L -10.5172,-7.6412
 L -10.7455,-6.93874 z
M 4.01721,-12.3637 L 0.647476,-12.3637 L 1.35989,-14.501 L 12.5585,-14.501 L 12.9736,-11.1803 L 9.89008,-8.09683
 z
M -9.28287,-7.36243 L -3.70819,-11.4127 L 3.18246,-11.4127 L 1.88434,-7.41747 L -5.88434,-4.89326 z
M 7.63672,-0.5 L 2.8354,-7.10844 L 4.13351,-11.1037 L 9.70819,-7.05342 L 11.8375,-0.5 z
M -5.66312,4.11449 L -5.66312,-4.11449 L 2.16312,-6.65739 L 7,-0 L 2.16312,6.65739 z
M 3,1.5 L 2,1.5 L 2,-1.5 L 3,-1.5 L 3,-2.5 L -3,-2.5
 L -3,-1.5 L -2,-1.5 L -2,1.5 L -3,1.5 L -3,2.5 L 3,2.5
 z
M -1,1.5 L -1,-1.5 L 1,-1.5 L 1,1.5 z
M -12,-0 L -9.87065,-6.55342 L -6.47212,-4.08424 L -6.47212,4.08424 L -9.87065,6.55342 z
M -15.7923,2.50098 L -18.2932,-0 L -15.7923,-2.50098 L -12.1874,-2.50098 L -13,-0 L -12.1874,2.50098
 z
M 2.8354,7.10844 L 7.63672,0.5 L 11.8375,0.5 L 9.70819,7.05342 L 4.13351,11.1037 z
M -3.70819,11.4127 L -9.28287,7.36243 L -5.88434,4.89326 L 1.88434,7.41747 L 3.18246,11.4127 z
M -12.5767,14.501 L -13.46,9.20087 L -10.7455,6.93874 L -10.5172,7.6412 L -6.36479,10.6581 L -6.4045,10.7061
 L -9.25066,14.501 z
M 1.35989,14.501 L 0.647476,12.3637 L 4.01721,12.3637 L 9.89008,8.09683 L 12.9736,11.1803 L 12.5585,14.501
 z
" stroke="black" fill="lightgray" stroke-width="0.5"/>
</svg>
