G04 #@! TF.GenerationSoftware,KiCad,Pcbnew,8.0.5*
G04 #@! TF.CreationDate,2024-10-05T13:16:41+02:00*
G04 #@! TF.ProjectId,valiant-turtle-2,76616c69-616e-4742-9d74-7572746c652d,rev?*
G04 #@! TF.SameCoordinates,Original*
G04 #@! TF.FileFunction,Profile,NP*
%FSLAX46Y46*%
G04 Gerber Fmt 4.6, Leading zero omitted, Abs format (unit mm)*
G04 Created by KiCad (PCBNEW 8.0.5) date 2024-10-05 13:16:41*
%MOMM*%
%LPD*%
G01*
G04 APERTURE LIST*
G04 #@! TA.AperFunction,Profile*
%ADD10C,0.200000*%
G04 #@! TD*
G04 APERTURE END LIST*
D10*
X118280720Y-74114900D02*
X118552380Y-73278800D01*
X131840880Y-74114900D02*
X132005590Y-74978400D01*
X118926660Y-72483400D02*
X119397680Y-71741200D01*
X128811580Y-69945400D02*
X129522760Y-70462100D01*
X118552380Y-73278800D02*
X118926660Y-72483400D01*
X83915800Y-48224500D02*
X58486800Y-126486900D01*
X119958030Y-71063900D02*
X120598840Y-70462100D01*
X128811580Y-81766000D02*
X128041250Y-82189500D01*
X118280720Y-77596500D02*
X118116010Y-76733000D01*
X131194940Y-72483400D02*
X131569220Y-73278800D01*
X123749140Y-68979700D02*
X124621271Y-68869500D01*
X166205800Y-48224500D02*
X83915800Y-48224500D01*
X129522760Y-81249300D02*
X128811580Y-81766000D01*
X191634800Y-126486900D02*
X166205800Y-48224500D01*
X132005590Y-76733000D02*
X131840880Y-77596500D01*
X127223920Y-69198300D02*
X128041250Y-69521900D01*
X128041250Y-82189500D02*
X127223920Y-82513100D01*
X131840880Y-77596500D02*
X131569220Y-78432600D01*
X132005590Y-74978400D02*
X132060800Y-75855700D01*
X126372460Y-82731700D02*
X125500329Y-82841900D01*
X127223920Y-82513100D02*
X126372460Y-82731700D01*
X118116010Y-74978400D02*
X118280720Y-74114900D01*
X124621271Y-68869500D02*
X125500329Y-68869500D01*
X126372460Y-68979700D02*
X127223920Y-69198300D01*
X58486800Y-126486900D02*
X125060800Y-174855700D01*
X118926660Y-79228000D02*
X118552380Y-78432600D01*
X130163570Y-80647500D02*
X129522760Y-81249300D01*
X119958030Y-80647500D02*
X119397680Y-79970200D01*
X121310020Y-69945400D02*
X122080350Y-69521900D01*
X123749140Y-82731700D02*
X122897680Y-82513100D01*
X122897680Y-82513100D02*
X122080350Y-82189500D01*
X120598840Y-70462100D02*
X121310020Y-69945400D01*
X129522760Y-70462100D02*
X130163570Y-71063900D01*
X125500329Y-82841900D02*
X124621271Y-82841900D01*
X118116010Y-76733000D02*
X118060800Y-75855700D01*
X122080350Y-82189500D02*
X121310020Y-81766000D01*
X118552380Y-78432600D02*
X118280720Y-77596500D01*
X132060800Y-75855700D02*
X132005590Y-76733000D01*
X124621271Y-82841900D02*
X123749140Y-82731700D01*
X130723920Y-79970200D02*
X130163570Y-80647500D01*
X128041250Y-69521900D02*
X128811580Y-69945400D01*
X125500329Y-68869500D02*
X126372460Y-68979700D01*
X131569220Y-73278800D02*
X131840880Y-74114900D01*
X125060800Y-174855700D02*
X191634800Y-126486900D01*
X120598840Y-81249300D02*
X119958030Y-80647500D01*
X131194940Y-79228000D02*
X130723920Y-79970200D01*
X119397680Y-79970200D02*
X118926660Y-79228000D01*
X130723920Y-71741200D02*
X131194940Y-72483400D01*
X131569220Y-78432600D02*
X131194940Y-79228000D01*
X130163570Y-71063900D02*
X130723920Y-71741200D01*
X122897680Y-69198300D02*
X123749140Y-68979700D01*
X118060800Y-75855700D02*
X118116010Y-74978400D01*
X119397680Y-71741200D02*
X119958030Y-71063900D01*
X121310020Y-81766000D02*
X120598840Y-81249300D01*
X122080350Y-69521900D02*
X122897680Y-69198300D01*
M02*
