G04 #@! TF.GenerationSoftware,KiCad,Pcbnew,8.0.5*
G04 #@! TF.CreationDate,2024-10-05T13:16:41+02:00*
G04 #@! TF.ProjectId,valiant-turtle-2,76616c69-616e-4742-9d74-7572746c652d,rev?*
G04 #@! TF.SameCoordinates,Original*
G04 #@! TF.FileFunction,Legend,Bot*
G04 #@! TF.FilePolarity,Positive*
%FSLAX46Y46*%
G04 Gerber Fmt 4.6, Leading zero omitted, Abs format (unit mm)*
G04 Created by KiCad (PCBNEW 8.0.5) date 2024-10-05 13:16:41*
%MOMM*%
%LPD*%
G01*
G04 APERTURE LIST*
G04 Aperture macros list*
%AMRoundRect*
0 Rectangle with rounded corners*
0 $1 Rounding radius*
0 $2 $3 $4 $5 $6 $7 $8 $9 X,Y pos of 4 corners*
0 Add a 4 corners polygon primitive as box body*
4,1,4,$2,$3,$4,$5,$6,$7,$8,$9,$2,$3,0*
0 Add four circle primitives for the rounded corners*
1,1,$1+$1,$2,$3*
1,1,$1+$1,$4,$5*
1,1,$1+$1,$6,$7*
1,1,$1+$1,$8,$9*
0 Add four rect primitives between the rounded corners*
20,1,$1+$1,$2,$3,$4,$5,0*
20,1,$1+$1,$4,$5,$6,$7,0*
20,1,$1+$1,$6,$7,$8,$9,0*
20,1,$1+$1,$8,$9,$2,$3,0*%
%AMHorizOval*
0 Thick line with rounded ends*
0 $1 width*
0 $2 $3 position (X,Y) of the first rounded end (center of the circle)*
0 $4 $5 position (X,Y) of the second rounded end (center of the circle)*
0 Add line between two ends*
20,1,$1,$2,$3,$4,$5,0*
0 Add two circle primitives to create the rounded ends*
1,1,$1,$2,$3*
1,1,$1,$4,$5*%
%AMRotRect*
0 Rectangle, with rotation*
0 The origin of the aperture is its center*
0 $1 length*
0 $2 width*
0 $3 Rotation angle, in degrees counterclockwise*
0 Add horizontal line*
21,1,$1,$2,0,0,$3*%
%AMFreePoly0*
4,1,28,0.605014,0.794986,0.644504,0.794986,0.724698,0.756366,0.780194,0.686777,0.800000,0.600000,0.800000,-0.600000,0.780194,-0.686777,0.724698,-0.756366,0.644504,-0.794986,0.605014,-0.794986,0.600000,-0.800000,0.000000,-0.800000,-0.178017,-0.779942,-0.347107,-0.720775,-0.498792,-0.625465,-0.625465,-0.498792,-0.720775,-0.347107,-0.779942,-0.178017,-0.800000,0.000000,-0.779942,0.178017,
-0.720775,0.347107,-0.625465,0.498792,-0.498792,0.625465,-0.347107,0.720775,-0.178017,0.779942,0.000000,0.800000,0.600000,0.800000,0.605014,0.794986,0.605014,0.794986,$1*%
%AMFreePoly1*
4,1,28,0.178017,0.779942,0.347107,0.720775,0.498792,0.625465,0.625465,0.498792,0.720775,0.347107,0.779942,0.178017,0.800000,0.000000,0.779942,-0.178017,0.720775,-0.347107,0.625465,-0.498792,0.498792,-0.625465,0.347107,-0.720775,0.178017,-0.779942,0.000000,-0.800000,-0.600000,-0.800000,-0.605014,-0.794986,-0.644504,-0.794986,-0.724698,-0.756366,-0.780194,-0.686777,-0.800000,-0.600000,
-0.800000,0.600000,-0.780194,0.686777,-0.724698,0.756366,-0.644504,0.794986,-0.605014,0.794986,-0.600000,0.800000,0.000000,0.800000,0.178017,0.779942,0.178017,0.779942,$1*%
G04 Aperture macros list end*
%ADD10C,0.500000*%
%ADD11C,3.200000*%
%ADD12RoundRect,0.250000X-0.059266X-0.939208X0.911555X-0.233866X0.059266X0.939208X-0.911555X0.233866X0*%
%ADD13HorizOval,1.700000X-0.073473X0.101127X0.073473X-0.101127X0*%
%ADD14R,1.700000X1.700000*%
%ADD15O,1.700000X1.700000*%
%ADD16R,1.600000X1.600000*%
%ADD17O,1.600000X1.600000*%
%ADD18RotRect,1.700000X1.700000X18.000000*%
%ADD19HorizOval,1.700000X0.000000X0.000000X0.000000X0.000000X0*%
%ADD20RoundRect,0.250000X-0.600000X-0.725000X0.600000X-0.725000X0.600000X0.725000X-0.600000X0.725000X0*%
%ADD21O,1.700000X1.950000*%
%ADD22RoundRect,0.250000X0.504106X-0.794671X0.874926X0.346597X-0.504106X0.794671X-0.874926X-0.346597X0*%
%ADD23HorizOval,1.700000X-0.118882X0.038627X0.118882X-0.038627X0*%
%ADD24C,2.200000*%
%ADD25C,1.850000*%
%ADD26RoundRect,0.200000X-0.600000X-0.600000X0.600000X-0.600000X0.600000X0.600000X-0.600000X0.600000X0*%
%ADD27C,1.600000*%
%ADD28FreePoly0,0.000000*%
%ADD29FreePoly1,0.000000*%
%ADD30RoundRect,0.250000X-0.874926X0.346597X-0.504106X-0.794671X0.874926X-0.346597X0.504106X0.794671X0*%
%ADD31HorizOval,1.700000X-0.118882X-0.038627X0.118882X0.038627X0*%
G04 APERTURE END LIST*
D10*
X123483000Y-123129410D02*
X126483000Y-123129410D01*
X126483000Y-122129410D01*
X127483000Y-122129410D01*
X127483000Y-128129410D01*
X126483000Y-128129410D01*
X126483000Y-127129410D01*
X123483000Y-127129410D01*
X123483000Y-128129410D01*
X122483000Y-128129410D01*
X122483000Y-126129410D01*
X123483000Y-126129410D01*
X126483000Y-126129410D01*
X126483000Y-124129410D01*
X123483000Y-124129410D01*
X123483000Y-126129410D01*
X122483000Y-126129410D01*
X122483000Y-122129410D01*
X123483000Y-122129410D01*
X123483000Y-123129410D01*
G36*
X123483000Y-123129410D02*
G01*
X126483000Y-123129410D01*
X126483000Y-122129410D01*
X127483000Y-122129410D01*
X127483000Y-128129410D01*
X126483000Y-128129410D01*
X126483000Y-127129410D01*
X123483000Y-127129410D01*
X123483000Y-128129410D01*
X122483000Y-128129410D01*
X122483000Y-126129410D01*
X123483000Y-126129410D01*
X126483000Y-126129410D01*
X126483000Y-124129410D01*
X123483000Y-124129410D01*
X123483000Y-126129410D01*
X122483000Y-126129410D01*
X122483000Y-122129410D01*
X123483000Y-122129410D01*
X123483000Y-123129410D01*
G37*
X139983000Y-111629410D02*
X140112400Y-111646408D01*
X140233000Y-111696411D01*
X140336500Y-111775910D01*
X140416000Y-111879410D01*
X140466000Y-112000008D01*
X140483000Y-112129410D01*
X140483000Y-124129410D01*
X140466000Y-124258820D01*
X140416000Y-124379410D01*
X140336500Y-124482971D01*
X140233000Y-124562424D01*
X140112400Y-124612381D01*
X137346700Y-125534256D01*
X137346700Y-129146620D01*
X136341600Y-130530000D01*
X140336500Y-133775850D01*
X140416000Y-133879410D01*
X140466000Y-134000000D01*
X140483000Y-134129410D01*
X140483000Y-138129410D01*
X140466000Y-138258810D01*
X140416000Y-138379410D01*
X140336500Y-138482910D01*
X140233000Y-138562410D01*
X140112400Y-138612410D01*
X134180890Y-139600993D01*
X134112390Y-139612410D01*
X133983000Y-139629410D01*
X133853590Y-139612410D01*
X133733000Y-139562410D01*
X133629440Y-139482910D01*
X130879440Y-136232910D01*
X130867510Y-136217410D01*
X128483000Y-136992210D01*
X128483000Y-141129410D01*
X128465960Y-141258810D01*
X128416001Y-141379410D01*
X128336550Y-141482910D01*
X125336546Y-144482910D01*
X125233000Y-144562411D01*
X125112395Y-144612410D01*
X124983000Y-144629410D01*
X124853605Y-144612410D01*
X124733000Y-144562411D01*
X124629454Y-144482910D01*
X121629450Y-141482910D01*
X121549999Y-141379410D01*
X121500040Y-141258810D01*
X121483000Y-141129410D01*
X121483000Y-137317110D01*
X122483000Y-137317110D01*
X122483000Y-140922310D01*
X124983000Y-143422310D01*
X127483000Y-140922310D01*
X127483000Y-137317110D01*
X124983000Y-138129410D01*
X122483000Y-137317110D01*
X121483000Y-137317110D01*
X121483000Y-136992210D01*
X119098490Y-136217410D01*
X119086559Y-136232910D01*
X116336561Y-139482910D01*
X116233000Y-139562410D01*
X116112410Y-139612410D01*
X115983000Y-139629410D01*
X115853609Y-139612410D01*
X115785109Y-139600993D01*
X109853600Y-138612410D01*
X109733000Y-138562410D01*
X109629500Y-138482910D01*
X109550001Y-138379410D01*
X109500000Y-138258810D01*
X109483000Y-138129410D01*
X109483000Y-134363970D01*
X110483000Y-134363970D01*
X110483000Y-137708210D01*
X115785109Y-138591910D01*
X118075529Y-135885010D01*
X117620569Y-135737187D01*
X117341799Y-135646610D01*
X116872056Y-135000060D01*
X118429579Y-135000060D01*
X124983000Y-137129410D01*
X128812843Y-135885010D01*
X131890471Y-135885010D01*
X134180890Y-138591910D01*
X139483000Y-137708210D01*
X139483000Y-134363970D01*
X135756100Y-131335890D01*
X132624200Y-135646610D01*
X132345431Y-135737187D01*
X131890471Y-135885010D01*
X128812843Y-135885010D01*
X131536420Y-135000060D01*
X129097491Y-131643166D01*
X129067240Y-131601530D01*
X120898760Y-131601530D01*
X118429579Y-135000060D01*
X116872056Y-135000060D01*
X114209900Y-131335890D01*
X110483000Y-134363970D01*
X109483000Y-134363970D01*
X109483000Y-134129410D01*
X109500000Y-134000000D01*
X109550001Y-133879410D01*
X109629500Y-133775850D01*
X113624399Y-130530000D01*
X112619299Y-129146620D01*
X112619299Y-128837601D01*
X113570299Y-128837601D01*
X117620569Y-134412280D01*
X120089739Y-131013750D01*
X129876260Y-131013750D01*
X132345431Y-134412280D01*
X136395700Y-128837601D01*
X136395700Y-121946949D01*
X132400470Y-123245070D01*
X132091440Y-124196160D01*
X129876260Y-131013750D01*
X120089739Y-131013750D01*
X117874560Y-124196158D01*
X117565531Y-123245070D01*
X116707529Y-122966290D01*
X118325609Y-122966290D01*
X120868510Y-130792530D01*
X129097491Y-130792530D01*
X131640391Y-122966290D01*
X124983000Y-118129410D01*
X118325609Y-122966290D01*
X116707529Y-122966290D01*
X113570299Y-121946949D01*
X113570299Y-128837601D01*
X112619299Y-128837601D01*
X112619299Y-125534256D01*
X109853600Y-124612381D01*
X109733000Y-124562424D01*
X109629500Y-124482971D01*
X109550001Y-124379410D01*
X109500000Y-124258820D01*
X109483000Y-124129410D01*
X109483000Y-112566910D01*
X110483000Y-112566910D01*
X110483000Y-123769989D01*
X112619299Y-124482071D01*
X112619299Y-121112200D01*
X112703796Y-120995899D01*
X113879301Y-120995899D01*
X117874560Y-122294010D01*
X124483000Y-117492689D01*
X125483000Y-117492689D01*
X132091440Y-122294010D01*
X136086700Y-120995899D01*
X132036420Y-115421219D01*
X131477229Y-115239529D01*
X133079980Y-115239529D01*
X137346700Y-121112200D01*
X137346700Y-124482071D01*
X139483000Y-123769989D01*
X139483000Y-112566910D01*
X136167100Y-112152409D01*
X133079980Y-115239529D01*
X131477229Y-115239529D01*
X125483000Y-113291910D01*
X125483000Y-117492689D01*
X124483000Y-117492689D01*
X124483000Y-113291910D01*
X117929579Y-115421219D01*
X113879301Y-120995899D01*
X112703796Y-120995899D01*
X116886019Y-115239529D01*
X113798899Y-112152409D01*
X110483000Y-112566910D01*
X109483000Y-112566910D01*
X109483000Y-112129410D01*
X109500000Y-112000008D01*
X109550001Y-111879410D01*
X109629500Y-111775910D01*
X109733000Y-111696411D01*
X109853600Y-111646408D01*
X109983000Y-111629410D01*
X113983000Y-111129410D01*
X114112400Y-111146408D01*
X114233000Y-111196411D01*
X114336600Y-111275910D01*
X117591700Y-114531010D01*
X124983000Y-112129410D01*
X132374300Y-114531010D01*
X135629400Y-111275910D01*
X135733000Y-111196411D01*
X135853600Y-111146408D01*
X135983000Y-111129410D01*
X139983000Y-111629410D01*
G36*
X139983000Y-111629410D02*
G01*
X140112400Y-111646408D01*
X140233000Y-111696411D01*
X140336500Y-111775910D01*
X140416000Y-111879410D01*
X140466000Y-112000008D01*
X140483000Y-112129410D01*
X140483000Y-124129410D01*
X140466000Y-124258820D01*
X140416000Y-124379410D01*
X140336500Y-124482971D01*
X140233000Y-124562424D01*
X140112400Y-124612381D01*
X137346700Y-125534256D01*
X137346700Y-129146620D01*
X136341600Y-130530000D01*
X140336500Y-133775850D01*
X140416000Y-133879410D01*
X140466000Y-134000000D01*
X140483000Y-134129410D01*
X140483000Y-138129410D01*
X140466000Y-138258810D01*
X140416000Y-138379410D01*
X140336500Y-138482910D01*
X140233000Y-138562410D01*
X140112400Y-138612410D01*
X134180890Y-139600993D01*
X134112390Y-139612410D01*
X133983000Y-139629410D01*
X133853590Y-139612410D01*
X133733000Y-139562410D01*
X133629440Y-139482910D01*
X130879440Y-136232910D01*
X130867510Y-136217410D01*
X128483000Y-136992210D01*
X128483000Y-141129410D01*
X128465960Y-141258810D01*
X128416001Y-141379410D01*
X128336550Y-141482910D01*
X125336546Y-144482910D01*
X125233000Y-144562411D01*
X125112395Y-144612410D01*
X124983000Y-144629410D01*
X124853605Y-144612410D01*
X124733000Y-144562411D01*
X124629454Y-144482910D01*
X121629450Y-141482910D01*
X121549999Y-141379410D01*
X121500040Y-141258810D01*
X121483000Y-141129410D01*
X121483000Y-137317110D01*
X122483000Y-137317110D01*
X122483000Y-140922310D01*
X124983000Y-143422310D01*
X127483000Y-140922310D01*
X127483000Y-137317110D01*
X124983000Y-138129410D01*
X122483000Y-137317110D01*
X121483000Y-137317110D01*
X121483000Y-136992210D01*
X119098490Y-136217410D01*
X119086559Y-136232910D01*
X116336561Y-139482910D01*
X116233000Y-139562410D01*
X116112410Y-139612410D01*
X115983000Y-139629410D01*
X115853609Y-139612410D01*
X115785109Y-139600993D01*
X109853600Y-138612410D01*
X109733000Y-138562410D01*
X109629500Y-138482910D01*
X109550001Y-138379410D01*
X109500000Y-138258810D01*
X109483000Y-138129410D01*
X109483000Y-134363970D01*
X110483000Y-134363970D01*
X110483000Y-137708210D01*
X115785109Y-138591910D01*
X118075529Y-135885010D01*
X117620569Y-135737187D01*
X117341799Y-135646610D01*
X116872056Y-135000060D01*
X118429579Y-135000060D01*
X124983000Y-137129410D01*
X128812843Y-135885010D01*
X131890471Y-135885010D01*
X134180890Y-138591910D01*
X139483000Y-137708210D01*
X139483000Y-134363970D01*
X135756100Y-131335890D01*
X132624200Y-135646610D01*
X132345431Y-135737187D01*
X131890471Y-135885010D01*
X128812843Y-135885010D01*
X131536420Y-135000060D01*
X129097491Y-131643166D01*
X129067240Y-131601530D01*
X120898760Y-131601530D01*
X118429579Y-135000060D01*
X116872056Y-135000060D01*
X114209900Y-131335890D01*
X110483000Y-134363970D01*
X109483000Y-134363970D01*
X109483000Y-134129410D01*
X109500000Y-134000000D01*
X109550001Y-133879410D01*
X109629500Y-133775850D01*
X113624399Y-130530000D01*
X112619299Y-129146620D01*
X112619299Y-128837601D01*
X113570299Y-128837601D01*
X117620569Y-134412280D01*
X120089739Y-131013750D01*
X129876260Y-131013750D01*
X132345431Y-134412280D01*
X136395700Y-128837601D01*
X136395700Y-121946949D01*
X132400470Y-123245070D01*
X132091440Y-124196160D01*
X129876260Y-131013750D01*
X120089739Y-131013750D01*
X117874560Y-124196158D01*
X117565531Y-123245070D01*
X116707529Y-122966290D01*
X118325609Y-122966290D01*
X120868510Y-130792530D01*
X129097491Y-130792530D01*
X131640391Y-122966290D01*
X124983000Y-118129410D01*
X118325609Y-122966290D01*
X116707529Y-122966290D01*
X113570299Y-121946949D01*
X113570299Y-128837601D01*
X112619299Y-128837601D01*
X112619299Y-125534256D01*
X109853600Y-124612381D01*
X109733000Y-124562424D01*
X109629500Y-124482971D01*
X109550001Y-124379410D01*
X109500000Y-124258820D01*
X109483000Y-124129410D01*
X109483000Y-112566910D01*
X110483000Y-112566910D01*
X110483000Y-123769989D01*
X112619299Y-124482071D01*
X112619299Y-121112200D01*
X112703796Y-120995899D01*
X113879301Y-120995899D01*
X117874560Y-122294010D01*
X124483000Y-117492689D01*
X125483000Y-117492689D01*
X132091440Y-122294010D01*
X136086700Y-120995899D01*
X132036420Y-115421219D01*
X131477229Y-115239529D01*
X133079980Y-115239529D01*
X137346700Y-121112200D01*
X137346700Y-124482071D01*
X139483000Y-123769989D01*
X139483000Y-112566910D01*
X136167100Y-112152409D01*
X133079980Y-115239529D01*
X131477229Y-115239529D01*
X125483000Y-113291910D01*
X125483000Y-117492689D01*
X124483000Y-117492689D01*
X124483000Y-113291910D01*
X117929579Y-115421219D01*
X113879301Y-120995899D01*
X112703796Y-120995899D01*
X116886019Y-115239529D01*
X113798899Y-112152409D01*
X110483000Y-112566910D01*
X109483000Y-112566910D01*
X109483000Y-112129410D01*
X109500000Y-112000008D01*
X109550001Y-111879410D01*
X109629500Y-111775910D01*
X109733000Y-111696411D01*
X109853600Y-111646408D01*
X109983000Y-111629410D01*
X113983000Y-111129410D01*
X114112400Y-111146408D01*
X114233000Y-111196411D01*
X114336600Y-111275910D01*
X117591700Y-114531010D01*
X124983000Y-112129410D01*
X132374300Y-114531010D01*
X135629400Y-111275910D01*
X135733000Y-111196411D01*
X135853600Y-111146408D01*
X135983000Y-111129410D01*
X139983000Y-111629410D01*
G37*
%LPC*%
D11*
X100060000Y-105360000D03*
X150060000Y-105350000D03*
D12*
X159704915Y-144188926D03*
D13*
X161727457Y-142719463D03*
X163750000Y-141250000D03*
D14*
X167860000Y-93820000D03*
D15*
X167860000Y-91280000D03*
X167860000Y-88740000D03*
X167860000Y-86200000D03*
X167860000Y-83660000D03*
X167860000Y-81120000D03*
X167860000Y-78580000D03*
X167860000Y-76040000D03*
X167860000Y-73500000D03*
D16*
X174000000Y-126450000D03*
D17*
X174000000Y-123910000D03*
X174000000Y-121370000D03*
X174000000Y-118830000D03*
X174000000Y-116290000D03*
X174000000Y-113750000D03*
X174000000Y-111210000D03*
X174000000Y-108670000D03*
X161300000Y-108670000D03*
X161300000Y-111210000D03*
X161300000Y-113750000D03*
X161300000Y-116290000D03*
X161300000Y-118830000D03*
X161300000Y-121370000D03*
X161300000Y-123910000D03*
X161300000Y-126450000D03*
D11*
X185060000Y-124860000D03*
D16*
X88962500Y-126140000D03*
D17*
X88962500Y-123600000D03*
X88962500Y-121060000D03*
X88962500Y-118520000D03*
X88962500Y-115980000D03*
X88962500Y-113440000D03*
X88962500Y-110900000D03*
X88962500Y-108360000D03*
X76262500Y-108360000D03*
X76262500Y-110900000D03*
X76262500Y-113440000D03*
X76262500Y-115980000D03*
X76262500Y-118520000D03*
X76262500Y-121060000D03*
X76262500Y-123600000D03*
X76262500Y-126140000D03*
D14*
X139750000Y-50725000D03*
D15*
X139750000Y-53265000D03*
X139750000Y-55805000D03*
D18*
X174469732Y-80848582D03*
D19*
X175254635Y-83264266D03*
X176039538Y-85679949D03*
D20*
X87250000Y-51750000D03*
D21*
X89750000Y-51750000D03*
X92250000Y-51750000D03*
X94750000Y-51750000D03*
X97250000Y-51750000D03*
D11*
X100060000Y-150360000D03*
X125050000Y-52850000D03*
X65050000Y-124860000D03*
D22*
X65750000Y-114750000D03*
D23*
X66522542Y-112372359D03*
X67295085Y-109994717D03*
X68067627Y-107617076D03*
D11*
X150070000Y-150360000D03*
D20*
X75500000Y-91000000D03*
D21*
X78000000Y-91000000D03*
X80500000Y-91000000D03*
X83000000Y-91000000D03*
X85500000Y-91000000D03*
X88000000Y-91000000D03*
D24*
X150885000Y-50537500D03*
D25*
X151185000Y-53567500D03*
X156035000Y-53567500D03*
D24*
X156335000Y-50537500D03*
D26*
X144720000Y-50407500D03*
D27*
X144720000Y-52947500D03*
D28*
X144720000Y-55487500D03*
D27*
X144720000Y-58027500D03*
X144720000Y-60567500D03*
X144720000Y-63107500D03*
X144720000Y-65647500D03*
D28*
X144720000Y-68187500D03*
D27*
X144720000Y-70727500D03*
X144720000Y-73267500D03*
X144720000Y-75807500D03*
X144720000Y-78347500D03*
D28*
X144720000Y-80887500D03*
D27*
X144720000Y-83427500D03*
X144720000Y-85967500D03*
X144720000Y-88507500D03*
X144720000Y-91047500D03*
D28*
X144720000Y-93587500D03*
D27*
X144720000Y-96127500D03*
X144720000Y-98667500D03*
X162500000Y-98667500D03*
X162500000Y-96127500D03*
D29*
X162500000Y-93587500D03*
D27*
X162500000Y-91047500D03*
X162500000Y-88507500D03*
X162500000Y-85967500D03*
X162500000Y-83427500D03*
D29*
X162500000Y-80887500D03*
D27*
X162500000Y-78347500D03*
X162500000Y-75807500D03*
X162500000Y-73267500D03*
X162500000Y-70727500D03*
D29*
X162500000Y-68187500D03*
D27*
X162500000Y-65647500D03*
X162500000Y-63107500D03*
X162500000Y-60567500D03*
X162500000Y-58027500D03*
D29*
X162500000Y-55487500D03*
D27*
X162500000Y-52947500D03*
X162500000Y-50407500D03*
D30*
X181932373Y-107617077D03*
D31*
X182704915Y-109994718D03*
X183477458Y-112372360D03*
X184250000Y-114750001D03*
%LPD*%
M02*
