solid OpenSCAD_Model
  facet normal 1 -0 0
    outer loop
      vertex 53.5 -8.5 26
      vertex 53.5 9.5 0
      vertex 53.5 9.5 26
    endloop
  endfacet
  facet normal 1 0 0
    outer loop
      vertex 53.5 9.5 0
      vertex 53.5 -8.5 26
      vertex 53.5 -8.5 0
    endloop
  endfacet
  facet normal -0 0 1
    outer loop
      vertex 47.5 9.5 26
      vertex 53.5 -8.5 26
      vertex 53.5 9.5 26
    endloop
  endfacet
  facet normal 0 0 1
    outer loop
      vertex 53.5 -8.5 26
      vertex 47.5 9.5 26
      vertex 47.5 -8.5 26
    endloop
  endfacet
  facet normal 0 0 -1
    outer loop
      vertex 47.5 -8.5 0
      vertex 53.5 9.5 0
      vertex 53.5 -8.5 0
    endloop
  endfacet
  facet normal -0 0 -1
    outer loop
      vertex 53.5 9.5 0
      vertex 47.5 -8.5 0
      vertex 47.5 9.5 0
    endloop
  endfacet
  facet normal -1 0 0
    outer loop
      vertex 47.5 -8.5 0
      vertex 47.5 9.5 26
      vertex 47.5 9.5 0
    endloop
  endfacet
  facet normal -1 -0 0
    outer loop
      vertex 47.5 9.5 26
      vertex 47.5 -8.5 0
      vertex 47.5 -8.5 26
    endloop
  endfacet
  facet normal 0 1 -0
    outer loop
      vertex 53.5 9.5 0
      vertex 47.5 9.5 26
      vertex 53.5 9.5 26
    endloop
  endfacet
  facet normal 0 1 0
    outer loop
      vertex 47.5 9.5 26
      vertex 53.5 9.5 0
      vertex 47.5 9.5 0
    endloop
  endfacet
  facet normal 0 -1 0
    outer loop
      vertex 47.5 -8.5 0
      vertex 53.5 -8.5 26
      vertex 47.5 -8.5 26
    endloop
  endfacet
  facet normal 0 -1 -0
    outer loop
      vertex 53.5 -8.5 26
      vertex 47.5 -8.5 0
      vertex 53.5 -8.5 0
    endloop
  endfacet
  facet normal 1 -0 0
    outer loop
      vertex -47.5 -8.5 26
      vertex -47.5 9.5 0
      vertex -47.5 9.5 26
    endloop
  endfacet
  facet normal 1 0 0
    outer loop
      vertex -47.5 9.5 0
      vertex -47.5 -8.5 26
      vertex -47.5 -8.5 0
    endloop
  endfacet
  facet normal -0 0 1
    outer loop
      vertex -53.5 9.5 26
      vertex -47.5 -8.5 26
      vertex -47.5 9.5 26
    endloop
  endfacet
  facet normal 0 0 1
    outer loop
      vertex -47.5 -8.5 26
      vertex -53.5 9.5 26
      vertex -53.5 -8.5 26
    endloop
  endfacet
  facet normal 0 0 -1
    outer loop
      vertex -53.5 -8.5 0
      vertex -47.5 9.5 0
      vertex -47.5 -8.5 0
    endloop
  endfacet
  facet normal -0 0 -1
    outer loop
      vertex -47.5 9.5 0
      vertex -53.5 -8.5 0
      vertex -53.5 9.5 0
    endloop
  endfacet
  facet normal -1 0 0
    outer loop
      vertex -53.5 -8.5 0
      vertex -53.5 9.5 26
      vertex -53.5 9.5 0
    endloop
  endfacet
  facet normal -1 -0 0
    outer loop
      vertex -53.5 9.5 26
      vertex -53.5 -8.5 0
      vertex -53.5 -8.5 26
    endloop
  endfacet
  facet normal 0 1 -0
    outer loop
      vertex -47.5 9.5 0
      vertex -53.5 9.5 26
      vertex -47.5 9.5 26
    endloop
  endfacet
  facet normal 0 1 0
    outer loop
      vertex -53.5 9.5 26
      vertex -47.5 9.5 0
      vertex -53.5 9.5 0
    endloop
  endfacet
  facet normal 0 -1 0
    outer loop
      vertex -53.5 -8.5 0
      vertex -47.5 -8.5 26
      vertex -53.5 -8.5 26
    endloop
  endfacet
  facet normal 0 -1 -0
    outer loop
      vertex -47.5 -8.5 26
      vertex -53.5 -8.5 0
      vertex -47.5 -8.5 0
    endloop
  endfacet
endsolid OpenSCAD_Model
