solid OpenSCAD_Model
  facet normal 1 -0 0
    outer loop
      vertex 11.5 -3.5 3.5
      vertex 11.5 7.5 0
      vertex 11.5 7.5 3.5
    endloop
  endfacet
  facet normal 1 0 0
    outer loop
      vertex 11.5 7.5 0
      vertex 11.5 -3.5 3.5
      vertex 11.5 -3.5 0
    endloop
  endfacet
  facet normal -0 0 1
    outer loop
      vertex 9.5 7.5 3.5
      vertex 11.5 -3.5 3.5
      vertex 11.5 7.5 3.5
    endloop
  endfacet
  facet normal 0 0 1
    outer loop
      vertex 11.5 -3.5 3.5
      vertex 9.5 7.5 3.5
      vertex 9.5 -3.5 3.5
    endloop
  endfacet
  facet normal 0 0 -1
    outer loop
      vertex 9.5 -3.5 0
      vertex 11.5 7.5 0
      vertex 11.5 -3.5 0
    endloop
  endfacet
  facet normal -0 0 -1
    outer loop
      vertex 11.5 7.5 0
      vertex 9.5 -3.5 0
      vertex 9.5 7.5 0
    endloop
  endfacet
  facet normal -1 0 0
    outer loop
      vertex 9.5 -3.5 0
      vertex 9.5 7.5 3.5
      vertex 9.5 7.5 0
    endloop
  endfacet
  facet normal -1 -0 0
    outer loop
      vertex 9.5 7.5 3.5
      vertex 9.5 -3.5 0
      vertex 9.5 -3.5 3.5
    endloop
  endfacet
  facet normal 0 1 -0
    outer loop
      vertex 11.5 7.5 0
      vertex 9.5 7.5 3.5
      vertex 11.5 7.5 3.5
    endloop
  endfacet
  facet normal 0 1 0
    outer loop
      vertex 9.5 7.5 3.5
      vertex 11.5 7.5 0
      vertex 9.5 7.5 0
    endloop
  endfacet
  facet normal 0 -1 0
    outer loop
      vertex 9.5 -3.5 0
      vertex 11.5 -3.5 3.5
      vertex 9.5 -3.5 3.5
    endloop
  endfacet
  facet normal 0 -1 -0
    outer loop
      vertex 11.5 -3.5 3.5
      vertex 9.5 -3.5 0
      vertex 11.5 -3.5 0
    endloop
  endfacet
  facet normal 1 -0 0
    outer loop
      vertex -10.5 -3.5 3.5
      vertex -10.5 7.5 0
      vertex -10.5 7.5 3.5
    endloop
  endfacet
  facet normal 1 0 0
    outer loop
      vertex -10.5 7.5 0
      vertex -10.5 -3.5 3.5
      vertex -10.5 -3.5 0
    endloop
  endfacet
  facet normal -0 0 1
    outer loop
      vertex -12.5 7.5 3.5
      vertex -10.5 -3.5 3.5
      vertex -10.5 7.5 3.5
    endloop
  endfacet
  facet normal 0 0 1
    outer loop
      vertex -10.5 -3.5 3.5
      vertex -12.5 7.5 3.5
      vertex -12.5 -3.5 3.5
    endloop
  endfacet
  facet normal 0 0 -1
    outer loop
      vertex -12.5 -3.5 0
      vertex -10.5 7.5 0
      vertex -10.5 -3.5 0
    endloop
  endfacet
  facet normal -0 0 -1
    outer loop
      vertex -10.5 7.5 0
      vertex -12.5 -3.5 0
      vertex -12.5 7.5 0
    endloop
  endfacet
  facet normal -1 0 0
    outer loop
      vertex -12.5 -3.5 0
      vertex -12.5 7.5 3.5
      vertex -12.5 7.5 0
    endloop
  endfacet
  facet normal -1 -0 0
    outer loop
      vertex -12.5 7.5 3.5
      vertex -12.5 -3.5 0
      vertex -12.5 -3.5 3.5
    endloop
  endfacet
  facet normal 0 1 -0
    outer loop
      vertex -10.5 7.5 0
      vertex -12.5 7.5 3.5
      vertex -10.5 7.5 3.5
    endloop
  endfacet
  facet normal 0 1 0
    outer loop
      vertex -12.5 7.5 3.5
      vertex -10.5 7.5 0
      vertex -12.5 7.5 0
    endloop
  endfacet
  facet normal 0 -1 0
    outer loop
      vertex -12.5 -3.5 0
      vertex -10.5 -3.5 3.5
      vertex -12.5 -3.5 3.5
    endloop
  endfacet
  facet normal 0 -1 -0
    outer loop
      vertex -10.5 -3.5 3.5
      vertex -12.5 -3.5 0
      vertex -10.5 -3.5 0
    endloop
  endfacet
endsolid OpenSCAD_Model
