solid OpenSCAD_Model
  facet normal 0 -1 0
    outer loop
      vertex -32.916 -44.805 0
      vertex 32.916 -44.805 120
      vertex -32.916 -44.805 120
    endloop
  endfacet
  facet normal 0 -1 -0
    outer loop
      vertex 32.916 -44.805 120
      vertex -32.916 -44.805 0
      vertex 32.916 -44.805 0
    endloop
  endfacet
  facet normal -0.587785 0.809018 0
    outer loop
      vertex 0 56.5 0
      vertex -53.2592 17.805 120
      vertex 0 56.5 120
    endloop
  endfacet
  facet normal -0.587785 0.809018 0
    outer loop
      vertex -53.2592 17.805 120
      vertex 0 56.5 0
      vertex -53.2592 17.805 0
    endloop
  endfacet
  facet normal 0.587785 0.809018 -0
    outer loop
      vertex 53.2592 17.805 0
      vertex 0 56.5 120
      vertex 53.2592 17.805 120
    endloop
  endfacet
  facet normal 0.587785 0.809018 0
    outer loop
      vertex 0 56.5 120
      vertex 53.2592 17.805 0
      vertex 0 56.5 0
    endloop
  endfacet
  facet normal -0.951057 -0.309017 0
    outer loop
      vertex -32.916 -44.805 0
      vertex -53.2592 17.805 120
      vertex -53.2592 17.805 0
    endloop
  endfacet
  facet normal -0.951057 -0.309017 0
    outer loop
      vertex -53.2592 17.805 120
      vertex -32.916 -44.805 0
      vertex -32.916 -44.805 120
    endloop
  endfacet
  facet normal 0 0 1
    outer loop
      vertex 0 56.5 120
      vertex 47.0773 15.7963 120
      vertex 53.2592 17.805 120
    endloop
  endfacet
  facet normal 0 0 1
    outer loop
      vertex 0 56.5 120
      vertex 0 50 120
      vertex 47.0773 15.7963 120
    endloop
  endfacet
  facet normal 0 0 1
    outer loop
      vertex 0 56.5 120
      vertex -47.0773 15.7963 120
      vertex 0 50 120
    endloop
  endfacet
  facet normal 0 -0 1
    outer loop
      vertex -47.0773 15.7963 120
      vertex 0 56.5 120
      vertex -53.2592 17.805 120
    endloop
  endfacet
  facet normal -0 0 1
    outer loop
      vertex 47.0773 15.7963 120
      vertex 32.916 -44.805 120
      vertex 53.2592 17.805 120
    endloop
  endfacet
  facet normal -0 0 1
    outer loop
      vertex 29.0954 -39.5463 120
      vertex 32.916 -44.805 120
      vertex 47.0773 15.7963 120
    endloop
  endfacet
  facet normal -0 0 1
    outer loop
      vertex -29.0954 -39.5463 120
      vertex 32.916 -44.805 120
      vertex 29.0954 -39.5463 120
    endloop
  endfacet
  facet normal 0 0 1
    outer loop
      vertex -29.0954 -39.5463 120
      vertex -32.916 -44.805 120
      vertex 32.916 -44.805 120
    endloop
  endfacet
  facet normal 0 0 1
    outer loop
      vertex -47.0773 15.7963 120
      vertex -32.916 -44.805 120
      vertex -29.0954 -39.5463 120
    endloop
  endfacet
  facet normal 0 0 1
    outer loop
      vertex -32.916 -44.805 120
      vertex -47.0773 15.7963 120
      vertex -53.2592 17.805 120
    endloop
  endfacet
  facet normal 0.951057 -0.309017 0
    outer loop
      vertex 32.916 -44.805 120
      vertex 53.2592 17.805 0
      vertex 53.2592 17.805 120
    endloop
  endfacet
  facet normal 0.951057 -0.309017 0
    outer loop
      vertex 53.2592 17.805 0
      vertex 32.916 -44.805 120
      vertex 32.916 -44.805 0
    endloop
  endfacet
  facet normal 0 0 -1
    outer loop
      vertex 32.916 -44.805 0
      vertex 47.0773 15.7963 0
      vertex 53.2592 17.805 0
    endloop
  endfacet
  facet normal 0 0 -1
    outer loop
      vertex 32.916 -44.805 0
      vertex 29.0954 -39.5463 0
      vertex 47.0773 15.7963 0
    endloop
  endfacet
  facet normal 0 0 -1
    outer loop
      vertex 32.916 -44.805 0
      vertex -29.0954 -39.5463 0
      vertex 29.0954 -39.5463 0
    endloop
  endfacet
  facet normal 0 0 -1
    outer loop
      vertex -32.916 -44.805 0
      vertex -29.0954 -39.5463 0
      vertex 32.916 -44.805 0
    endloop
  endfacet
  facet normal 0 0 -1
    outer loop
      vertex -32.916 -44.805 0
      vertex -47.0773 15.7963 0
      vertex -29.0954 -39.5463 0
    endloop
  endfacet
  facet normal -0 -0 -1
    outer loop
      vertex -47.0773 15.7963 0
      vertex -32.916 -44.805 0
      vertex -53.2592 17.805 0
    endloop
  endfacet
  facet normal 0 0 -1
    outer loop
      vertex 0 50 0
      vertex 53.2592 17.805 0
      vertex 47.0773 15.7963 0
    endloop
  endfacet
  facet normal 0 0 -1
    outer loop
      vertex 0 50 0
      vertex 0 56.5 0
      vertex 53.2592 17.805 0
    endloop
  endfacet
  facet normal 0 0 -1
    outer loop
      vertex -47.0773 15.7963 0
      vertex 0 56.5 0
      vertex 0 50 0
    endloop
  endfacet
  facet normal 0 0 -1
    outer loop
      vertex 0 56.5 0
      vertex -47.0773 15.7963 0
      vertex -53.2592 17.805 0
    endloop
  endfacet
  facet normal 0 1 -0
    outer loop
      vertex 29.0954 -39.5463 0
      vertex -29.0954 -39.5463 120
      vertex 29.0954 -39.5463 120
    endloop
  endfacet
  facet normal 0 1 0
    outer loop
      vertex -29.0954 -39.5463 120
      vertex 29.0954 -39.5463 0
      vertex -29.0954 -39.5463 0
    endloop
  endfacet
  facet normal 0.587786 -0.809017 0
    outer loop
      vertex -47.0773 15.7963 0
      vertex 0 50 120
      vertex -47.0773 15.7963 120
    endloop
  endfacet
  facet normal 0.587786 -0.809017 0
    outer loop
      vertex 0 50 120
      vertex -47.0773 15.7963 0
      vertex 0 50 0
    endloop
  endfacet
  facet normal -0.587786 -0.809017 0
    outer loop
      vertex 0 50 0
      vertex 47.0773 15.7963 120
      vertex 0 50 120
    endloop
  endfacet
  facet normal -0.587786 -0.809017 -0
    outer loop
      vertex 47.0773 15.7963 120
      vertex 0 50 0
      vertex 47.0773 15.7963 0
    endloop
  endfacet
  facet normal 0.951057 0.309017 0
    outer loop
      vertex -29.0954 -39.5463 120
      vertex -47.0773 15.7963 0
      vertex -47.0773 15.7963 120
    endloop
  endfacet
  facet normal 0.951057 0.309017 0
    outer loop
      vertex -47.0773 15.7963 0
      vertex -29.0954 -39.5463 120
      vertex -29.0954 -39.5463 0
    endloop
  endfacet
  facet normal -0.951057 0.309017 0
    outer loop
      vertex 29.0954 -39.5463 0
      vertex 47.0773 15.7963 120
      vertex 47.0773 15.7963 0
    endloop
  endfacet
  facet normal -0.951057 0.309017 0
    outer loop
      vertex 47.0773 15.7963 120
      vertex 29.0954 -39.5463 0
      vertex 29.0954 -39.5463 120
    endloop
  endfacet
  facet normal -0.982288 -0.18738 0
    outer loop
      vertex -9.68583 -90.9869 0
      vertex -9.92115 -89.7533 20
      vertex -9.92115 -89.7533 0
    endloop
  endfacet
  facet normal -0.982288 -0.18738 0
    outer loop
      vertex -9.92115 -89.7533 20
      vertex -9.68583 -90.9869 0
      vertex -9.68583 -90.9869 20
    endloop
  endfacet
  facet normal -0.68452 -0.728994 0
    outer loop
      vertex -7.28969 -95.3455 0
      vertex -6.37424 -96.2051 20
      vertex -7.28969 -95.3455 20
    endloop
  endfacet
  facet normal -0.68452 -0.728994 -0
    outer loop
      vertex -6.37424 -96.2051 20
      vertex -7.28969 -95.3455 0
      vertex -6.37424 -96.2051 0
    endloop
  endfacet
  facet normal 0.982288 0.18738 0
    outer loop
      vertex 9.92115 -87.2467 20
      vertex 9.68583 -86.0131 0
      vertex 9.68583 -86.0131 20
    endloop
  endfacet
  facet normal 0.982288 0.18738 0
    outer loop
      vertex 9.68583 -86.0131 0
      vertex 9.92115 -87.2467 20
      vertex 9.92115 -87.2467 0
    endloop
  endfacet
  facet normal 0.998027 0.0627898 0
    outer loop
      vertex 10 -88.5 20
      vertex 9.92115 -87.2467 0
      vertex 9.92115 -87.2467 20
    endloop
  endfacet
  facet normal 0.998027 0.0627898 0
    outer loop
      vertex 9.92115 -87.2467 0
      vertex 10 -88.5 20
      vertex 10 -88.5 0
    endloop
  endfacet
  facet normal 0.951052 0.30903 0
    outer loop
      vertex 9.68583 -86.0131 20
      vertex 9.29776 -84.8188 0
      vertex 9.29776 -84.8188 20
    endloop
  endfacet
  facet normal 0.951052 0.30903 0
    outer loop
      vertex 9.29776 -84.8188 0
      vertex 9.68583 -86.0131 20
      vertex 9.68583 -86.0131 0
    endloop
  endfacet
  facet normal 0.248684 0.968585 -0
    outer loop
      vertex 3.09017 -78.9894 0
      vertex 1.87381 -78.6771 20
      vertex 3.09017 -78.9894 20
    endloop
  endfacet
  facet normal 0.248684 0.968585 0
    outer loop
      vertex 1.87381 -78.6771 20
      vertex 3.09017 -78.9894 0
      vertex 1.87381 -78.6771 0
    endloop
  endfacet
  facet normal 0.368129 0.929775 -0
    outer loop
      vertex 4.25779 -79.4517 0
      vertex 3.09017 -78.9894 20
      vertex 4.25779 -79.4517 20
    endloop
  endfacet
  facet normal 0.368129 0.929775 0
    outer loop
      vertex 3.09017 -78.9894 20
      vertex 4.25779 -79.4517 0
      vertex 3.09017 -78.9894 0
    endloop
  endfacet
  facet normal 0.904831 -0.425771 0
    outer loop
      vertex 8.76307 -93.3175 20
      vertex 9.29776 -92.1812 0
      vertex 9.29776 -92.1812 20
    endloop
  endfacet
  facet normal 0.904831 -0.425771 0
    outer loop
      vertex 9.29776 -92.1812 0
      vertex 8.76307 -93.3175 20
      vertex 8.76307 -93.3175 0
    endloop
  endfacet
  facet normal -0.481757 -0.876305 0
    outer loop
      vertex -5.35827 -96.9433 0
      vertex -4.25779 -97.5483 20
      vertex -5.35827 -96.9433 20
    endloop
  endfacet
  facet normal -0.481757 -0.876305 -0
    outer loop
      vertex -4.25779 -97.5483 20
      vertex -5.35827 -96.9433 0
      vertex -4.25779 -97.5483 0
    endloop
  endfacet
  facet normal 0.248684 -0.968585 0
    outer loop
      vertex 1.87381 -98.3229 0
      vertex 3.09017 -98.0106 20
      vertex 1.87381 -98.3229 20
    endloop
  endfacet
  facet normal 0.248684 -0.968585 0
    outer loop
      vertex 3.09017 -98.0106 20
      vertex 1.87381 -98.3229 0
      vertex 3.09017 -98.0106 0
    endloop
  endfacet
  facet normal 0.844346 0.535798 0
    outer loop
      vertex 8.76307 -83.6825 20
      vertex 8.09017 -82.6221 0
      vertex 8.09017 -82.6221 20
    endloop
  endfacet
  facet normal 0.844346 0.535798 0
    outer loop
      vertex 8.09017 -82.6221 0
      vertex 8.76307 -83.6825 20
      vertex 8.76307 -83.6825 0
    endloop
  endfacet
  facet normal 0.904831 0.425771 0
    outer loop
      vertex 9.29776 -84.8188 20
      vertex 8.76307 -83.6825 0
      vertex 8.76307 -83.6825 20
    endloop
  endfacet
  facet normal 0.904831 0.425771 0
    outer loop
      vertex 8.76307 -83.6825 0
      vertex 9.29776 -84.8188 20
      vertex 9.29776 -84.8188 0
    endloop
  endfacet
  facet normal -0.125338 0.992114 0
    outer loop
      vertex -0.627905 -78.5197 0
      vertex -1.87381 -78.6771 20
      vertex -0.627905 -78.5197 20
    endloop
  endfacet
  facet normal -0.125338 0.992114 0
    outer loop
      vertex -1.87381 -78.6771 20
      vertex -0.627905 -78.5197 0
      vertex -1.87381 -78.6771 0
    endloop
  endfacet
  facet normal 0.951052 -0.30903 0
    outer loop
      vertex 9.29776 -92.1812 20
      vertex 9.68583 -90.9869 0
      vertex 9.68583 -90.9869 20
    endloop
  endfacet
  facet normal 0.951052 -0.30903 0
    outer loop
      vertex 9.68583 -90.9869 0
      vertex 9.29776 -92.1812 20
      vertex 9.29776 -92.1812 0
    endloop
  endfacet
  facet normal -0.68452 0.728994 0
    outer loop
      vertex -6.37424 -80.7949 0
      vertex -7.28969 -81.6545 20
      vertex -6.37424 -80.7949 20
    endloop
  endfacet
  facet normal -0.68452 0.728994 0
    outer loop
      vertex -7.28969 -81.6545 20
      vertex -6.37424 -80.7949 0
      vertex -7.28969 -81.6545 0
    endloop
  endfacet
  facet normal -0.951052 0.30903 0
    outer loop
      vertex -9.68583 -86.0131 0
      vertex -9.29776 -84.8188 20
      vertex -9.29776 -84.8188 0
    endloop
  endfacet
  facet normal -0.951052 0.30903 0
    outer loop
      vertex -9.29776 -84.8188 20
      vertex -9.68583 -86.0131 0
      vertex -9.68583 -86.0131 20
    endloop
  endfacet
  facet normal -0.998027 -0.0627898 0
    outer loop
      vertex -9.92115 -89.7533 0
      vertex -10 -88.5 20
      vertex -10 -88.5 0
    endloop
  endfacet
  facet normal -0.998027 -0.0627898 0
    outer loop
      vertex -10 -88.5 20
      vertex -9.92115 -89.7533 0
      vertex -9.92115 -89.7533 20
    endloop
  endfacet
  facet normal 0.844346 -0.535798 0
    outer loop
      vertex 8.09017 -94.3779 20
      vertex 8.76307 -93.3175 0
      vertex 8.76307 -93.3175 20
    endloop
  endfacet
  facet normal 0.844346 -0.535798 0
    outer loop
      vertex 8.76307 -93.3175 0
      vertex 8.09017 -94.3779 20
      vertex 8.09017 -94.3779 0
    endloop
  endfacet
  facet normal 0.125338 -0.992114 0
    outer loop
      vertex 0.627905 -98.4803 0
      vertex 1.87381 -98.3229 20
      vertex 0.627905 -98.4803 20
    endloop
  endfacet
  facet normal 0.125338 -0.992114 0
    outer loop
      vertex 1.87381 -98.3229 20
      vertex 0.627905 -98.4803 0
      vertex 1.87381 -98.3229 0
    endloop
  endfacet
  facet normal 0.998027 -0.0627898 0
    outer loop
      vertex 9.92115 -89.7533 20
      vertex 10 -88.5 0
      vertex 10 -88.5 20
    endloop
  endfacet
  facet normal 0.998027 -0.0627898 0
    outer loop
      vertex 10 -88.5 0
      vertex 9.92115 -89.7533 20
      vertex 9.92115 -89.7533 0
    endloop
  endfacet
  facet normal 0.68452 0.728994 -0
    outer loop
      vertex 7.28969 -81.6545 0
      vertex 6.37424 -80.7949 20
      vertex 7.28969 -81.6545 20
    endloop
  endfacet
  facet normal 0.68452 0.728994 0
    outer loop
      vertex 6.37424 -80.7949 20
      vertex 7.28969 -81.6545 0
      vertex 6.37424 -80.7949 0
    endloop
  endfacet
  facet normal -0.248684 -0.968585 0
    outer loop
      vertex -3.09017 -98.0106 0
      vertex -1.87381 -98.3229 20
      vertex -3.09017 -98.0106 20
    endloop
  endfacet
  facet normal -0.248684 -0.968585 -0
    outer loop
      vertex -1.87381 -98.3229 20
      vertex -3.09017 -98.0106 0
      vertex -1.87381 -98.3229 0
    endloop
  endfacet
  facet normal -0.844346 -0.535798 0
    outer loop
      vertex -8.09017 -94.3779 0
      vertex -8.76307 -93.3175 20
      vertex -8.76307 -93.3175 0
    endloop
  endfacet
  facet normal -0.844346 -0.535798 0
    outer loop
      vertex -8.76307 -93.3175 20
      vertex -8.09017 -94.3779 0
      vertex -8.09017 -94.3779 20
    endloop
  endfacet
  facet normal -0.998027 0.0627898 0
    outer loop
      vertex -10 -88.5 0
      vertex -9.92115 -87.2467 20
      vertex -9.92115 -87.2467 0
    endloop
  endfacet
  facet normal -0.998027 0.0627898 0
    outer loop
      vertex -9.92115 -87.2467 20
      vertex -10 -88.5 0
      vertex -10 -88.5 20
    endloop
  endfacet
  facet normal -0.844346 0.535798 0
    outer loop
      vertex -8.76307 -83.6825 0
      vertex -8.09017 -82.6221 20
      vertex -8.09017 -82.6221 0
    endloop
  endfacet
  facet normal -0.844346 0.535798 0
    outer loop
      vertex -8.09017 -82.6221 20
      vertex -8.76307 -83.6825 0
      vertex -8.76307 -83.6825 20
    endloop
  endfacet
  facet normal 0.481757 -0.876305 0
    outer loop
      vertex 4.25779 -97.5483 0
      vertex 5.35827 -96.9433 20
      vertex 4.25779 -97.5483 20
    endloop
  endfacet
  facet normal 0.481757 -0.876305 0
    outer loop
      vertex 5.35827 -96.9433 20
      vertex 4.25779 -97.5483 0
      vertex 5.35827 -96.9433 0
    endloop
  endfacet
  facet normal -0.481757 0.876305 0
    outer loop
      vertex -4.25779 -79.4517 0
      vertex -5.35827 -80.0567 20
      vertex -4.25779 -79.4517 20
    endloop
  endfacet
  facet normal -0.481757 0.876305 0
    outer loop
      vertex -5.35827 -80.0567 20
      vertex -4.25779 -79.4517 0
      vertex -5.35827 -80.0567 0
    endloop
  endfacet
  facet normal 0.368129 -0.929775 0
    outer loop
      vertex 3.09017 -98.0106 0
      vertex 4.25779 -97.5483 20
      vertex 3.09017 -98.0106 20
    endloop
  endfacet
  facet normal 0.368129 -0.929775 0
    outer loop
      vertex 4.25779 -97.5483 20
      vertex 3.09017 -98.0106 0
      vertex 4.25779 -97.5483 0
    endloop
  endfacet
  facet normal 0.982288 -0.18738 0
    outer loop
      vertex 9.68583 -90.9869 20
      vertex 9.92115 -89.7533 0
      vertex 9.92115 -89.7533 20
    endloop
  endfacet
  facet normal 0.982288 -0.18738 0
    outer loop
      vertex 9.92115 -89.7533 0
      vertex 9.68583 -90.9869 20
      vertex 9.68583 -90.9869 0
    endloop
  endfacet
  facet normal -0.904831 0.425771 0
    outer loop
      vertex -9.29776 -84.8188 0
      vertex -8.76307 -83.6825 20
      vertex -8.76307 -83.6825 0
    endloop
  endfacet
  facet normal -0.904831 0.425771 0
    outer loop
      vertex -8.76307 -83.6825 20
      vertex -9.29776 -84.8188 0
      vertex -9.29776 -84.8188 20
    endloop
  endfacet
  facet normal 0 1 -0
    outer loop
      vertex 0.627905 -78.5197 0
      vertex -0.627905 -78.5197 20
      vertex 0.627905 -78.5197 20
    endloop
  endfacet
  facet normal 0 1 0
    outer loop
      vertex -0.627905 -78.5197 20
      vertex 0.627905 -78.5197 0
      vertex -0.627905 -78.5197 0
    endloop
  endfacet
  facet normal 0.770509 -0.63743 0
    outer loop
      vertex 7.28969 -95.3455 20
      vertex 8.09017 -94.3779 0
      vertex 8.09017 -94.3779 20
    endloop
  endfacet
  facet normal 0.770509 -0.63743 0
    outer loop
      vertex 8.09017 -94.3779 0
      vertex 7.28969 -95.3455 20
      vertex 7.28969 -95.3455 0
    endloop
  endfacet
  facet normal -0.368129 0.929775 0
    outer loop
      vertex -3.09017 -78.9894 0
      vertex -4.25779 -79.4517 20
      vertex -3.09017 -78.9894 20
    endloop
  endfacet
  facet normal -0.368129 0.929775 0
    outer loop
      vertex -4.25779 -79.4517 20
      vertex -3.09017 -78.9894 0
      vertex -4.25779 -79.4517 0
    endloop
  endfacet
  facet normal -0.982288 0.18738 0
    outer loop
      vertex -9.92115 -87.2467 0
      vertex -9.68583 -86.0131 20
      vertex -9.68583 -86.0131 0
    endloop
  endfacet
  facet normal -0.982288 0.18738 0
    outer loop
      vertex -9.68583 -86.0131 20
      vertex -9.92115 -87.2467 0
      vertex -9.92115 -87.2467 20
    endloop
  endfacet
  facet normal 0.125338 0.992114 -0
    outer loop
      vertex 1.87381 -78.6771 0
      vertex 0.627905 -78.5197 20
      vertex 1.87381 -78.6771 20
    endloop
  endfacet
  facet normal 0.125338 0.992114 0
    outer loop
      vertex 0.627905 -78.5197 20
      vertex 1.87381 -78.6771 0
      vertex 0.627905 -78.5197 0
    endloop
  endfacet
  facet normal -0.587814 -0.808996 0
    outer loop
      vertex -6.37424 -96.2051 0
      vertex -5.35827 -96.9433 20
      vertex -6.37424 -96.2051 20
    endloop
  endfacet
  facet normal -0.587814 -0.808996 -0
    outer loop
      vertex -5.35827 -96.9433 20
      vertex -6.37424 -96.2051 0
      vertex -5.35827 -96.9433 0
    endloop
  endfacet
  facet normal 0.481757 0.876305 -0
    outer loop
      vertex 5.35827 -80.0567 0
      vertex 4.25779 -79.4517 20
      vertex 5.35827 -80.0567 20
    endloop
  endfacet
  facet normal 0.481757 0.876305 0
    outer loop
      vertex 4.25779 -79.4517 20
      vertex 5.35827 -80.0567 0
      vertex 4.25779 -79.4517 0
    endloop
  endfacet
  facet normal -0.951052 -0.30903 0
    outer loop
      vertex -9.29776 -92.1812 0
      vertex -9.68583 -90.9869 20
      vertex -9.68583 -90.9869 0
    endloop
  endfacet
  facet normal -0.951052 -0.30903 0
    outer loop
      vertex -9.68583 -90.9869 20
      vertex -9.29776 -92.1812 0
      vertex -9.29776 -92.1812 20
    endloop
  endfacet
  facet normal -0.770509 0.63743 0
    outer loop
      vertex -8.09017 -82.6221 0
      vertex -7.28969 -81.6545 20
      vertex -7.28969 -81.6545 0
    endloop
  endfacet
  facet normal -0.770509 0.63743 0
    outer loop
      vertex -7.28969 -81.6545 20
      vertex -8.09017 -82.6221 0
      vertex -8.09017 -82.6221 20
    endloop
  endfacet
  facet normal -0.770509 -0.63743 0
    outer loop
      vertex -7.28969 -95.3455 0
      vertex -8.09017 -94.3779 20
      vertex -8.09017 -94.3779 0
    endloop
  endfacet
  facet normal -0.770509 -0.63743 0
    outer loop
      vertex -8.09017 -94.3779 20
      vertex -7.28969 -95.3455 0
      vertex -7.28969 -95.3455 20
    endloop
  endfacet
  facet normal 0.68452 -0.728994 0
    outer loop
      vertex 6.37424 -96.2051 0
      vertex 7.28969 -95.3455 20
      vertex 6.37424 -96.2051 20
    endloop
  endfacet
  facet normal 0.68452 -0.728994 0
    outer loop
      vertex 7.28969 -95.3455 20
      vertex 6.37424 -96.2051 0
      vertex 7.28969 -95.3455 0
    endloop
  endfacet
  facet normal 0 -1 0
    outer loop
      vertex -0.627905 -98.4803 0
      vertex 0.627905 -98.4803 20
      vertex -0.627905 -98.4803 20
    endloop
  endfacet
  facet normal 0 -1 -0
    outer loop
      vertex 0.627905 -98.4803 20
      vertex -0.627905 -98.4803 0
      vertex 0.627905 -98.4803 0
    endloop
  endfacet
  facet normal 0 0 -1
    outer loop
      vertex 9.92115 -89.7533 0
      vertex 9.92115 -87.2467 0
      vertex 10 -88.5 0
    endloop
  endfacet
  facet normal 0 0 -1
    outer loop
      vertex 9.68583 -90.9869 0
      vertex 9.92115 -87.2467 0
      vertex 9.92115 -89.7533 0
    endloop
  endfacet
  facet normal 0 0 -1
    outer loop
      vertex 9.68583 -90.9869 0
      vertex 9.68583 -86.0131 0
      vertex 9.92115 -87.2467 0
    endloop
  endfacet
  facet normal 0 0 -1
    outer loop
      vertex 9.29776 -92.1812 0
      vertex 9.68583 -86.0131 0
      vertex 9.68583 -90.9869 0
    endloop
  endfacet
  facet normal 0 0 -1
    outer loop
      vertex 9.29776 -92.1812 0
      vertex 9.29776 -84.8188 0
      vertex 9.68583 -86.0131 0
    endloop
  endfacet
  facet normal 0 0 -1
    outer loop
      vertex 8.76307 -93.3175 0
      vertex 9.29776 -84.8188 0
      vertex 9.29776 -92.1812 0
    endloop
  endfacet
  facet normal 0 0 -1
    outer loop
      vertex 8.76307 -93.3175 0
      vertex 8.76307 -83.6825 0
      vertex 9.29776 -84.8188 0
    endloop
  endfacet
  facet normal 0 0 -1
    outer loop
      vertex 8.09017 -94.3779 0
      vertex 8.76307 -83.6825 0
      vertex 8.76307 -93.3175 0
    endloop
  endfacet
  facet normal 0 0 -1
    outer loop
      vertex 8.09017 -94.3779 0
      vertex 8.09017 -82.6221 0
      vertex 8.76307 -83.6825 0
    endloop
  endfacet
  facet normal 0 0 -1
    outer loop
      vertex 7.28969 -95.3455 0
      vertex 8.09017 -82.6221 0
      vertex 8.09017 -94.3779 0
    endloop
  endfacet
  facet normal 0 0 -1
    outer loop
      vertex 7.28969 -95.3455 0
      vertex 7.28969 -81.6545 0
      vertex 8.09017 -82.6221 0
    endloop
  endfacet
  facet normal 0 0 -1
    outer loop
      vertex 6.37424 -96.2051 0
      vertex 7.28969 -81.6545 0
      vertex 7.28969 -95.3455 0
    endloop
  endfacet
  facet normal 0 0 -1
    outer loop
      vertex 6.37424 -96.2051 0
      vertex 6.37424 -80.7949 0
      vertex 7.28969 -81.6545 0
    endloop
  endfacet
  facet normal 0 0 -1
    outer loop
      vertex 5.35827 -96.9433 0
      vertex 6.37424 -80.7949 0
      vertex 6.37424 -96.2051 0
    endloop
  endfacet
  facet normal 0 0 -1
    outer loop
      vertex 5.35827 -96.9433 0
      vertex 5.35827 -80.0567 0
      vertex 6.37424 -80.7949 0
    endloop
  endfacet
  facet normal 0 0 -1
    outer loop
      vertex 4.25779 -97.5483 0
      vertex 5.35827 -80.0567 0
      vertex 5.35827 -96.9433 0
    endloop
  endfacet
  facet normal 0 0 -1
    outer loop
      vertex 4.25779 -97.5483 0
      vertex 4.25779 -79.4517 0
      vertex 5.35827 -80.0567 0
    endloop
  endfacet
  facet normal 0 0 -1
    outer loop
      vertex 3.09017 -98.0106 0
      vertex 4.25779 -79.4517 0
      vertex 4.25779 -97.5483 0
    endloop
  endfacet
  facet normal 0 0 -1
    outer loop
      vertex 3.09017 -98.0106 0
      vertex 3.09017 -78.9894 0
      vertex 4.25779 -79.4517 0
    endloop
  endfacet
  facet normal 0 0 -1
    outer loop
      vertex 1.87381 -98.3229 0
      vertex 3.09017 -78.9894 0
      vertex 3.09017 -98.0106 0
    endloop
  endfacet
  facet normal 0 0 -1
    outer loop
      vertex 1.87381 -98.3229 0
      vertex 1.87381 -78.6771 0
      vertex 3.09017 -78.9894 0
    endloop
  endfacet
  facet normal 0 0 -1
    outer loop
      vertex 0.627905 -98.4803 0
      vertex 1.87381 -78.6771 0
      vertex 1.87381 -98.3229 0
    endloop
  endfacet
  facet normal 0 0 -1
    outer loop
      vertex 0.627905 -98.4803 0
      vertex 0.627905 -78.5197 0
      vertex 1.87381 -78.6771 0
    endloop
  endfacet
  facet normal 0 0 -1
    outer loop
      vertex -0.627905 -98.4803 0
      vertex 0.627905 -78.5197 0
      vertex 0.627905 -98.4803 0
    endloop
  endfacet
  facet normal 0 0 -1
    outer loop
      vertex -0.627905 -98.4803 0
      vertex -0.627905 -78.5197 0
      vertex 0.627905 -78.5197 0
    endloop
  endfacet
  facet normal 0 0 -1
    outer loop
      vertex -1.87381 -98.3229 0
      vertex -0.627905 -78.5197 0
      vertex -0.627905 -98.4803 0
    endloop
  endfacet
  facet normal 0 0 -1
    outer loop
      vertex -1.87381 -98.3229 0
      vertex -1.87381 -78.6771 0
      vertex -0.627905 -78.5197 0
    endloop
  endfacet
  facet normal 0 0 -1
    outer loop
      vertex -3.09017 -98.0106 0
      vertex -1.87381 -78.6771 0
      vertex -1.87381 -98.3229 0
    endloop
  endfacet
  facet normal 0 0 -1
    outer loop
      vertex -3.09017 -98.0106 0
      vertex -3.09017 -78.9894 0
      vertex -1.87381 -78.6771 0
    endloop
  endfacet
  facet normal 0 0 -1
    outer loop
      vertex -4.25779 -97.5483 0
      vertex -3.09017 -78.9894 0
      vertex -3.09017 -98.0106 0
    endloop
  endfacet
  facet normal 0 0 -1
    outer loop
      vertex -4.25779 -97.5483 0
      vertex -4.25779 -79.4517 0
      vertex -3.09017 -78.9894 0
    endloop
  endfacet
  facet normal 0 0 -1
    outer loop
      vertex -5.35827 -96.9433 0
      vertex -4.25779 -79.4517 0
      vertex -4.25779 -97.5483 0
    endloop
  endfacet
  facet normal 0 0 -1
    outer loop
      vertex -5.35827 -96.9433 0
      vertex -5.35827 -80.0567 0
      vertex -4.25779 -79.4517 0
    endloop
  endfacet
  facet normal 0 0 -1
    outer loop
      vertex -6.37424 -96.2051 0
      vertex -5.35827 -80.0567 0
      vertex -5.35827 -96.9433 0
    endloop
  endfacet
  facet normal 0 0 -1
    outer loop
      vertex -6.37424 -96.2051 0
      vertex -6.37424 -80.7949 0
      vertex -5.35827 -80.0567 0
    endloop
  endfacet
  facet normal 0 0 -1
    outer loop
      vertex -7.28969 -95.3455 0
      vertex -6.37424 -80.7949 0
      vertex -6.37424 -96.2051 0
    endloop
  endfacet
  facet normal 0 0 -1
    outer loop
      vertex -7.28969 -95.3455 0
      vertex -7.28969 -81.6545 0
      vertex -6.37424 -80.7949 0
    endloop
  endfacet
  facet normal 0 0 -1
    outer loop
      vertex -8.09017 -94.3779 0
      vertex -7.28969 -81.6545 0
      vertex -7.28969 -95.3455 0
    endloop
  endfacet
  facet normal 0 0 -1
    outer loop
      vertex -8.09017 -94.3779 0
      vertex -8.09017 -82.6221 0
      vertex -7.28969 -81.6545 0
    endloop
  endfacet
  facet normal 0 0 -1
    outer loop
      vertex -8.76307 -93.3175 0
      vertex -8.09017 -82.6221 0
      vertex -8.09017 -94.3779 0
    endloop
  endfacet
  facet normal 0 0 -1
    outer loop
      vertex -8.76307 -93.3175 0
      vertex -8.76307 -83.6825 0
      vertex -8.09017 -82.6221 0
    endloop
  endfacet
  facet normal 0 0 -1
    outer loop
      vertex -9.29776 -92.1812 0
      vertex -8.76307 -83.6825 0
      vertex -8.76307 -93.3175 0
    endloop
  endfacet
  facet normal 0 0 -1
    outer loop
      vertex -9.29776 -92.1812 0
      vertex -9.29776 -84.8188 0
      vertex -8.76307 -83.6825 0
    endloop
  endfacet
  facet normal 0 0 -1
    outer loop
      vertex -9.68583 -90.9869 0
      vertex -9.29776 -84.8188 0
      vertex -9.29776 -92.1812 0
    endloop
  endfacet
  facet normal 0 0 -1
    outer loop
      vertex -9.68583 -90.9869 0
      vertex -9.68583 -86.0131 0
      vertex -9.29776 -84.8188 0
    endloop
  endfacet
  facet normal 0 0 -1
    outer loop
      vertex -9.92115 -89.7533 0
      vertex -9.68583 -86.0131 0
      vertex -9.68583 -90.9869 0
    endloop
  endfacet
  facet normal 0 0 -1
    outer loop
      vertex -9.92115 -89.7533 0
      vertex -9.92115 -87.2467 0
      vertex -9.68583 -86.0131 0
    endloop
  endfacet
  facet normal 0 -0 -1
    outer loop
      vertex -9.92115 -87.2467 0
      vertex -9.92115 -89.7533 0
      vertex -10 -88.5 0
    endloop
  endfacet
  facet normal -0.125338 -0.992114 0
    outer loop
      vertex -1.87381 -98.3229 0
      vertex -0.627905 -98.4803 20
      vertex -1.87381 -98.3229 20
    endloop
  endfacet
  facet normal -0.125338 -0.992114 -0
    outer loop
      vertex -0.627905 -98.4803 20
      vertex -1.87381 -98.3229 0
      vertex -0.627905 -98.4803 0
    endloop
  endfacet
  facet normal -0.587814 0.808996 0
    outer loop
      vertex -5.35827 -80.0567 0
      vertex -6.37424 -80.7949 20
      vertex -5.35827 -80.0567 20
    endloop
  endfacet
  facet normal -0.587814 0.808996 0
    outer loop
      vertex -6.37424 -80.7949 20
      vertex -5.35827 -80.0567 0
      vertex -6.37424 -80.7949 0
    endloop
  endfacet
  facet normal 0.587814 0.808996 -0
    outer loop
      vertex 6.37424 -80.7949 0
      vertex 5.35827 -80.0567 20
      vertex 6.37424 -80.7949 20
    endloop
  endfacet
  facet normal 0.587814 0.808996 0
    outer loop
      vertex 5.35827 -80.0567 20
      vertex 6.37424 -80.7949 0
      vertex 5.35827 -80.0567 0
    endloop
  endfacet
  facet normal -0.248684 0.968585 0
    outer loop
      vertex -1.87381 -78.6771 0
      vertex -3.09017 -78.9894 20
      vertex -1.87381 -78.6771 20
    endloop
  endfacet
  facet normal -0.248684 0.968585 0
    outer loop
      vertex -3.09017 -78.9894 20
      vertex -1.87381 -78.6771 0
      vertex -3.09017 -78.9894 0
    endloop
  endfacet
  facet normal 0 0 1
    outer loop
      vertex 9.92115 -87.2467 20
      vertex 9.92115 -89.7533 20
      vertex 10 -88.5 20
    endloop
  endfacet
  facet normal 0 0 1
    outer loop
      vertex 9.68583 -86.0131 20
      vertex 9.92115 -89.7533 20
      vertex 9.92115 -87.2467 20
    endloop
  endfacet
  facet normal 0 0 1
    outer loop
      vertex 9.68583 -86.0131 20
      vertex 9.68583 -90.9869 20
      vertex 9.92115 -89.7533 20
    endloop
  endfacet
  facet normal 0 0 1
    outer loop
      vertex 9.29776 -84.8188 20
      vertex 9.68583 -90.9869 20
      vertex 9.68583 -86.0131 20
    endloop
  endfacet
  facet normal 0 0 1
    outer loop
      vertex 9.29776 -84.8188 20
      vertex 9.29776 -92.1812 20
      vertex 9.68583 -90.9869 20
    endloop
  endfacet
  facet normal 0 0 1
    outer loop
      vertex 8.76307 -83.6825 20
      vertex 9.29776 -92.1812 20
      vertex 9.29776 -84.8188 20
    endloop
  endfacet
  facet normal 0 0 1
    outer loop
      vertex 8.76307 -83.6825 20
      vertex 8.76307 -93.3175 20
      vertex 9.29776 -92.1812 20
    endloop
  endfacet
  facet normal 0 0 1
    outer loop
      vertex 8.09017 -82.6221 20
      vertex 8.76307 -93.3175 20
      vertex 8.76307 -83.6825 20
    endloop
  endfacet
  facet normal 0 0 1
    outer loop
      vertex 8.09017 -82.6221 20
      vertex 8.09017 -94.3779 20
      vertex 8.76307 -93.3175 20
    endloop
  endfacet
  facet normal 0 0 1
    outer loop
      vertex 7.28969 -81.6545 20
      vertex 8.09017 -94.3779 20
      vertex 8.09017 -82.6221 20
    endloop
  endfacet
  facet normal 0 0 1
    outer loop
      vertex 7.28969 -81.6545 20
      vertex 7.28969 -95.3455 20
      vertex 8.09017 -94.3779 20
    endloop
  endfacet
  facet normal 0 0 1
    outer loop
      vertex 6.37424 -80.7949 20
      vertex 7.28969 -95.3455 20
      vertex 7.28969 -81.6545 20
    endloop
  endfacet
  facet normal 0 0 1
    outer loop
      vertex 6.37424 -80.7949 20
      vertex 6.37424 -96.2051 20
      vertex 7.28969 -95.3455 20
    endloop
  endfacet
  facet normal 0 0 1
    outer loop
      vertex 5.35827 -80.0567 20
      vertex 6.37424 -96.2051 20
      vertex 6.37424 -80.7949 20
    endloop
  endfacet
  facet normal 0 0 1
    outer loop
      vertex 5.35827 -80.0567 20
      vertex 5.35827 -96.9433 20
      vertex 6.37424 -96.2051 20
    endloop
  endfacet
  facet normal 0 0 1
    outer loop
      vertex 4.25779 -79.4517 20
      vertex 5.35827 -96.9433 20
      vertex 5.35827 -80.0567 20
    endloop
  endfacet
  facet normal 0 0 1
    outer loop
      vertex 4.25779 -79.4517 20
      vertex 4.25779 -97.5483 20
      vertex 5.35827 -96.9433 20
    endloop
  endfacet
  facet normal 0 0 1
    outer loop
      vertex 3.09017 -78.9894 20
      vertex 4.25779 -97.5483 20
      vertex 4.25779 -79.4517 20
    endloop
  endfacet
  facet normal 0 0 1
    outer loop
      vertex 3.09017 -78.9894 20
      vertex 3.09017 -98.0106 20
      vertex 4.25779 -97.5483 20
    endloop
  endfacet
  facet normal 0 0 1
    outer loop
      vertex 1.87381 -78.6771 20
      vertex 3.09017 -98.0106 20
      vertex 3.09017 -78.9894 20
    endloop
  endfacet
  facet normal 0 0 1
    outer loop
      vertex 1.87381 -78.6771 20
      vertex 1.87381 -98.3229 20
      vertex 3.09017 -98.0106 20
    endloop
  endfacet
  facet normal 0 0 1
    outer loop
      vertex 0.627905 -78.5197 20
      vertex 1.87381 -98.3229 20
      vertex 1.87381 -78.6771 20
    endloop
  endfacet
  facet normal 0 0 1
    outer loop
      vertex 0.627905 -78.5197 20
      vertex 0.627905 -98.4803 20
      vertex 1.87381 -98.3229 20
    endloop
  endfacet
  facet normal -0 0 1
    outer loop
      vertex -0.627905 -78.5197 20
      vertex 0.627905 -98.4803 20
      vertex 0.627905 -78.5197 20
    endloop
  endfacet
  facet normal 0 0 1
    outer loop
      vertex -0.627905 -78.5197 20
      vertex -0.627905 -98.4803 20
      vertex 0.627905 -98.4803 20
    endloop
  endfacet
  facet normal -0 0 1
    outer loop
      vertex -1.87381 -78.6771 20
      vertex -0.627905 -98.4803 20
      vertex -0.627905 -78.5197 20
    endloop
  endfacet
  facet normal 0 0 1
    outer loop
      vertex -1.87381 -78.6771 20
      vertex -1.87381 -98.3229 20
      vertex -0.627905 -98.4803 20
    endloop
  endfacet
  facet normal -0 0 1
    outer loop
      vertex -3.09017 -78.9894 20
      vertex -1.87381 -98.3229 20
      vertex -1.87381 -78.6771 20
    endloop
  endfacet
  facet normal 0 0 1
    outer loop
      vertex -3.09017 -78.9894 20
      vertex -3.09017 -98.0106 20
      vertex -1.87381 -98.3229 20
    endloop
  endfacet
  facet normal -0 0 1
    outer loop
      vertex -4.25779 -79.4517 20
      vertex -3.09017 -98.0106 20
      vertex -3.09017 -78.9894 20
    endloop
  endfacet
  facet normal 0 0 1
    outer loop
      vertex -4.25779 -79.4517 20
      vertex -4.25779 -97.5483 20
      vertex -3.09017 -98.0106 20
    endloop
  endfacet
  facet normal -0 0 1
    outer loop
      vertex -5.35827 -80.0567 20
      vertex -4.25779 -97.5483 20
      vertex -4.25779 -79.4517 20
    endloop
  endfacet
  facet normal 0 0 1
    outer loop
      vertex -5.35827 -80.0567 20
      vertex -5.35827 -96.9433 20
      vertex -4.25779 -97.5483 20
    endloop
  endfacet
  facet normal -0 0 1
    outer loop
      vertex -6.37424 -80.7949 20
      vertex -5.35827 -96.9433 20
      vertex -5.35827 -80.0567 20
    endloop
  endfacet
  facet normal 0 0 1
    outer loop
      vertex -6.37424 -80.7949 20
      vertex -6.37424 -96.2051 20
      vertex -5.35827 -96.9433 20
    endloop
  endfacet
  facet normal -0 0 1
    outer loop
      vertex -7.28969 -81.6545 20
      vertex -6.37424 -96.2051 20
      vertex -6.37424 -80.7949 20
    endloop
  endfacet
  facet normal 0 0 1
    outer loop
      vertex -7.28969 -81.6545 20
      vertex -7.28969 -95.3455 20
      vertex -6.37424 -96.2051 20
    endloop
  endfacet
  facet normal -0 0 1
    outer loop
      vertex -8.09017 -82.6221 20
      vertex -7.28969 -95.3455 20
      vertex -7.28969 -81.6545 20
    endloop
  endfacet
  facet normal 0 0 1
    outer loop
      vertex -8.09017 -82.6221 20
      vertex -8.09017 -94.3779 20
      vertex -7.28969 -95.3455 20
    endloop
  endfacet
  facet normal -0 0 1
    outer loop
      vertex -8.76307 -83.6825 20
      vertex -8.09017 -94.3779 20
      vertex -8.09017 -82.6221 20
    endloop
  endfacet
  facet normal 0 0 1
    outer loop
      vertex -8.76307 -83.6825 20
      vertex -8.76307 -93.3175 20
      vertex -8.09017 -94.3779 20
    endloop
  endfacet
  facet normal -0 0 1
    outer loop
      vertex -9.29776 -84.8188 20
      vertex -8.76307 -93.3175 20
      vertex -8.76307 -83.6825 20
    endloop
  endfacet
  facet normal 0 0 1
    outer loop
      vertex -9.29776 -84.8188 20
      vertex -9.29776 -92.1812 20
      vertex -8.76307 -93.3175 20
    endloop
  endfacet
  facet normal -0 0 1
    outer loop
      vertex -9.68583 -86.0131 20
      vertex -9.29776 -92.1812 20
      vertex -9.29776 -84.8188 20
    endloop
  endfacet
  facet normal 0 0 1
    outer loop
      vertex -9.68583 -86.0131 20
      vertex -9.68583 -90.9869 20
      vertex -9.29776 -92.1812 20
    endloop
  endfacet
  facet normal -0 0 1
    outer loop
      vertex -9.92115 -87.2467 20
      vertex -9.68583 -90.9869 20
      vertex -9.68583 -86.0131 20
    endloop
  endfacet
  facet normal 0 0 1
    outer loop
      vertex -9.92115 -87.2467 20
      vertex -9.92115 -89.7533 20
      vertex -9.68583 -90.9869 20
    endloop
  endfacet
  facet normal 0 -0 1
    outer loop
      vertex -9.92115 -89.7533 20
      vertex -9.92115 -87.2467 20
      vertex -10 -88.5 20
    endloop
  endfacet
  facet normal 0.770509 0.63743 0
    outer loop
      vertex 8.09017 -82.6221 20
      vertex 7.28969 -81.6545 0
      vertex 7.28969 -81.6545 20
    endloop
  endfacet
  facet normal 0.770509 0.63743 0
    outer loop
      vertex 7.28969 -81.6545 0
      vertex 8.09017 -82.6221 20
      vertex 8.09017 -82.6221 0
    endloop
  endfacet
  facet normal -0.904831 -0.425771 0
    outer loop
      vertex -8.76307 -93.3175 0
      vertex -9.29776 -92.1812 20
      vertex -9.29776 -92.1812 0
    endloop
  endfacet
  facet normal -0.904831 -0.425771 0
    outer loop
      vertex -9.29776 -92.1812 20
      vertex -8.76307 -93.3175 0
      vertex -8.76307 -93.3175 20
    endloop
  endfacet
  facet normal 0.587814 -0.808996 0
    outer loop
      vertex 5.35827 -96.9433 0
      vertex 6.37424 -96.2051 20
      vertex 5.35827 -96.9433 20
    endloop
  endfacet
  facet normal 0.587814 -0.808996 0
    outer loop
      vertex 6.37424 -96.2051 20
      vertex 5.35827 -96.9433 0
      vertex 6.37424 -96.2051 0
    endloop
  endfacet
  facet normal -0.368129 -0.929775 0
    outer loop
      vertex -4.25779 -97.5483 0
      vertex -3.09017 -98.0106 20
      vertex -4.25779 -97.5483 20
    endloop
  endfacet
  facet normal -0.368129 -0.929775 -0
    outer loop
      vertex -3.09017 -98.0106 20
      vertex -4.25779 -97.5483 0
      vertex -3.09017 -98.0106 0
    endloop
  endfacet
  facet normal 1 -0 0
    outer loop
      vertex 116 28 30
      vertex 116 32 0
      vertex 116 32 30
    endloop
  endfacet
  facet normal 1 0 0
    outer loop
      vertex 116 32 0
      vertex 116 28 30
      vertex 116 28 0
    endloop
  endfacet
  facet normal -0 0 1
    outer loop
      vertex 86 32 30
      vertex 116 28 30
      vertex 116 32 30
    endloop
  endfacet
  facet normal 0 0 1
    outer loop
      vertex 116 28 30
      vertex 86 32 30
      vertex 86 28 30
    endloop
  endfacet
  facet normal 0 0 -1
    outer loop
      vertex 86 28 0
      vertex 116 32 0
      vertex 116 28 0
    endloop
  endfacet
  facet normal -0 0 -1
    outer loop
      vertex 116 32 0
      vertex 86 28 0
      vertex 86 32 0
    endloop
  endfacet
  facet normal -1 0 0
    outer loop
      vertex 86 28 0
      vertex 86 32 30
      vertex 86 32 0
    endloop
  endfacet
  facet normal -1 -0 0
    outer loop
      vertex 86 32 30
      vertex 86 28 0
      vertex 86 28 30
    endloop
  endfacet
  facet normal 0 1 -0
    outer loop
      vertex 116 32 0
      vertex 86 32 30
      vertex 116 32 30
    endloop
  endfacet
  facet normal 0 1 0
    outer loop
      vertex 86 32 30
      vertex 116 32 0
      vertex 86 32 0
    endloop
  endfacet
  facet normal 0 -1 0
    outer loop
      vertex 86 28 0
      vertex 116 28 30
      vertex 86 28 30
    endloop
  endfacet
  facet normal 0 -1 -0
    outer loop
      vertex 116 28 30
      vertex 86 28 0
      vertex 116 28 0
    endloop
  endfacet
  facet normal 1 -0 0
    outer loop
      vertex -86 28 30
      vertex -86 32 0
      vertex -86 32 30
    endloop
  endfacet
  facet normal 1 0 0
    outer loop
      vertex -86 32 0
      vertex -86 28 30
      vertex -86 28 0
    endloop
  endfacet
  facet normal -0 0 1
    outer loop
      vertex -116 32 30
      vertex -86 28 30
      vertex -86 32 30
    endloop
  endfacet
  facet normal 0 0 1
    outer loop
      vertex -86 28 30
      vertex -116 32 30
      vertex -116 28 30
    endloop
  endfacet
  facet normal 0 0 -1
    outer loop
      vertex -116 28 0
      vertex -86 32 0
      vertex -86 28 0
    endloop
  endfacet
  facet normal -0 0 -1
    outer loop
      vertex -86 32 0
      vertex -116 28 0
      vertex -116 32 0
    endloop
  endfacet
  facet normal -1 0 0
    outer loop
      vertex -116 28 0
      vertex -116 32 30
      vertex -116 32 0
    endloop
  endfacet
  facet normal -1 -0 0
    outer loop
      vertex -116 32 30
      vertex -116 28 0
      vertex -116 28 30
    endloop
  endfacet
  facet normal 0 1 -0
    outer loop
      vertex -86 32 0
      vertex -116 32 30
      vertex -86 32 30
    endloop
  endfacet
  facet normal 0 1 0
    outer loop
      vertex -116 32 30
      vertex -86 32 0
      vertex -116 32 0
    endloop
  endfacet
  facet normal 0 -1 0
    outer loop
      vertex -116 28 0
      vertex -86 28 30
      vertex -116 28 30
    endloop
  endfacet
  facet normal 0 -1 -0
    outer loop
      vertex -86 28 30
      vertex -116 28 0
      vertex -86 28 0
    endloop
  endfacet
endsolid OpenSCAD_Model
