solid OpenSCAD_Model
  facet normal 1 -0 0
    outer loop
      vertex 11.5 -9.5 4
      vertex 11.5 1.5 0
      vertex 11.5 1.5 4
    endloop
  endfacet
  facet normal 1 0 0
    outer loop
      vertex 11.5 1.5 0
      vertex 11.5 -9.5 4
      vertex 11.5 -9.5 0
    endloop
  endfacet
  facet normal -0 0 1
    outer loop
      vertex 9.5 1.5 4
      vertex 11.5 -9.5 4
      vertex 11.5 1.5 4
    endloop
  endfacet
  facet normal 0 0 1
    outer loop
      vertex 11.5 -9.5 4
      vertex 9.5 1.5 4
      vertex 9.5 -9.5 4
    endloop
  endfacet
  facet normal 0 0 -1
    outer loop
      vertex 9.5 -9.5 0
      vertex 11.5 1.5 0
      vertex 11.5 -9.5 0
    endloop
  endfacet
  facet normal -0 0 -1
    outer loop
      vertex 11.5 1.5 0
      vertex 9.5 -9.5 0
      vertex 9.5 1.5 0
    endloop
  endfacet
  facet normal -1 0 0
    outer loop
      vertex 9.5 -9.5 0
      vertex 9.5 1.5 4
      vertex 9.5 1.5 0
    endloop
  endfacet
  facet normal -1 -0 0
    outer loop
      vertex 9.5 1.5 4
      vertex 9.5 -9.5 0
      vertex 9.5 -9.5 4
    endloop
  endfacet
  facet normal 0 1 -0
    outer loop
      vertex 11.5 1.5 0
      vertex 9.5 1.5 4
      vertex 11.5 1.5 4
    endloop
  endfacet
  facet normal 0 1 0
    outer loop
      vertex 9.5 1.5 4
      vertex 11.5 1.5 0
      vertex 9.5 1.5 0
    endloop
  endfacet
  facet normal 0 -1 0
    outer loop
      vertex 9.5 -9.5 0
      vertex 11.5 -9.5 4
      vertex 9.5 -9.5 4
    endloop
  endfacet
  facet normal 0 -1 -0
    outer loop
      vertex 11.5 -9.5 4
      vertex 9.5 -9.5 0
      vertex 11.5 -9.5 0
    endloop
  endfacet
  facet normal 1 -0 0
    outer loop
      vertex -10.5 -9.5 4
      vertex -10.5 1.5 0
      vertex -10.5 1.5 4
    endloop
  endfacet
  facet normal 1 0 0
    outer loop
      vertex -10.5 1.5 0
      vertex -10.5 -9.5 4
      vertex -10.5 -9.5 0
    endloop
  endfacet
  facet normal -0 0 1
    outer loop
      vertex -12.5 1.5 4
      vertex -10.5 -9.5 4
      vertex -10.5 1.5 4
    endloop
  endfacet
  facet normal 0 0 1
    outer loop
      vertex -10.5 -9.5 4
      vertex -12.5 1.5 4
      vertex -12.5 -9.5 4
    endloop
  endfacet
  facet normal 0 0 -1
    outer loop
      vertex -12.5 -9.5 0
      vertex -10.5 1.5 0
      vertex -10.5 -9.5 0
    endloop
  endfacet
  facet normal -0 0 -1
    outer loop
      vertex -10.5 1.5 0
      vertex -12.5 -9.5 0
      vertex -12.5 1.5 0
    endloop
  endfacet
  facet normal -1 0 0
    outer loop
      vertex -12.5 -9.5 0
      vertex -12.5 1.5 4
      vertex -12.5 1.5 0
    endloop
  endfacet
  facet normal -1 -0 0
    outer loop
      vertex -12.5 1.5 4
      vertex -12.5 -9.5 0
      vertex -12.5 -9.5 4
    endloop
  endfacet
  facet normal 0 1 -0
    outer loop
      vertex -10.5 1.5 0
      vertex -12.5 1.5 4
      vertex -10.5 1.5 4
    endloop
  endfacet
  facet normal 0 1 0
    outer loop
      vertex -12.5 1.5 4
      vertex -10.5 1.5 0
      vertex -12.5 1.5 0
    endloop
  endfacet
  facet normal 0 -1 0
    outer loop
      vertex -12.5 -9.5 0
      vertex -10.5 -9.5 4
      vertex -12.5 -9.5 4
    endloop
  endfacet
  facet normal 0 -1 -0
    outer loop
      vertex -10.5 -9.5 4
      vertex -12.5 -9.5 0
      vertex -10.5 -9.5 0
    endloop
  endfacet
endsolid OpenSCAD_Model
